<svg width="240" height="210" viewBox="0 0 240 210" fill="none" xmlns="http://www.w3.org/2000/svg">
<g clip-path="url(#clip0_900_123460)">
<circle cx="28" cy="9" r="40" fill="#FDDEF6"/>
<circle cx="86.5" cy="150.5" r="52.5" fill="#DCE2FF"/>
<path d="M235 121.363C235 139.589 220.315 152.5 198.5 152.5C168.5 164.5 156 139.589 156 121.363C156 103.138 170.5 109.363 191 99.3625C211.5 89.362 235 103.138 235 121.363Z" fill="#DCE2FF"/>
<circle cx="8.5" cy="99.5" r="23.5" fill="white" fill-opacity="0.71"/>
<g clip-path="url(#clip1_900_123460)">
<path d="M177.641 139.902L177.269 142.124C177.269 142.124 176.965 143.077 176.052 143.431C175.139 143.784 170.98 145.284 170.106 145.207C169.237 145.124 168.758 144.49 168.681 143.498C168.604 142.506 177.641 139.902 177.641 139.902Z" fill="#012336"/>
<path d="M181.472 135.746C181.472 135.746 181.713 137.813 181.462 138.505C181.211 139.197 178.83 140.528 178.83 140.528L177.642 139.908L181.472 135.746Z" fill="#012336"/>
<path d="M176.655 133.5C176.67 131.326 176.684 127.735 176.655 127.648L181.234 127.406L180.737 132.885L180.93 133.654L180.573 134.719L180.534 135.131H180.433L179.616 137.555L176.641 139.157L173.622 138.122L176.66 133.5H176.655Z" fill="#EFCCC2"/>
<path d="M180.732 132.887C180.732 132.887 181.336 134.039 181.452 135.51C181.568 136.976 181.452 137.18 181.452 137.18C181.452 137.18 181.172 137.814 180.38 138.167C179.588 138.525 177.921 139.788 177.525 140.703C177.129 141.613 176.69 142.668 175.303 143.152C173.917 143.636 171.024 144.584 170.193 144.58C169.362 144.58 168.845 143.98 168.691 143.505C168.531 143.031 171.072 140.534 171.826 139.464C172.579 138.394 174.598 136.575 174.999 135.34C175.4 134.111 177.264 134.711 177.974 135.582C178.684 136.454 178.09 137.925 178.09 137.925C178.09 137.925 179.878 135.718 180.158 135.016C180.438 134.314 180.94 134 180.747 132.887H180.732Z" fill="#574260"/>
<path d="M197.416 88.5078C197.416 88.5078 182.868 92.2248 176.13 96.5273C176.13 96.5273 174.4 98.773 174.4 100.941C174.4 103.109 175.555 132.24 175.555 132.24H182.491C182.491 132.24 183.544 117.75 183.1 112.644C182.534 106.149 184.003 103.1 184.003 103.1C184.003 103.1 207.7 101.749 207.893 99.1505C208.086 96.5515 207.801 90.8793 207.801 90.8793L197.421 88.5078H197.416Z" fill="#81D2E3"/>
<path d="M197.126 134.594L197.445 135.437L197.754 140.451L192.311 140.441C192.311 140.441 193.079 137.624 192.958 136.046C192.837 134.469 194.412 134.348 194.412 134.348L197.131 134.599L197.126 134.594Z" fill="#574260"/>
<path d="M193.219 136.535L192.567 129.105L197.142 129.362C197.103 129.488 197.127 136.835 197.127 136.835L197.431 139.84L193.799 140.861L193.186 138.301L193.215 136.525L193.219 136.535Z" fill="#EFCCC2"/>
<path d="M197.933 141.18C197.933 141.18 198.257 143.241 197.668 144.635C197.078 146.034 196.301 148.275 194.615 148.493C192.929 148.71 192.485 148.091 192.267 147.738C192.05 147.384 191.63 144.069 191.862 142.651L197.933 141.18Z" fill="#012336"/>
<path d="M195.151 136.723C196.258 136.766 197.18 137.594 197.388 138.683C197.547 139.52 197.75 140.507 197.876 140.957C198.122 141.814 197.533 143.808 196.828 145.187C196.122 146.567 194.934 147.753 193.891 147.748C192.847 147.743 192.422 147.031 192.234 146.32C192.046 145.609 191.954 143.469 191.862 142.661C191.77 141.853 193.055 138.005 193.055 138.005C193.055 138.005 193.485 136.665 195.151 136.727V136.723Z" fill="#574260"/>
<path d="M212.791 87.0273L201.594 89.7473L192.47 94.9646C189.968 96.3972 188.519 99.1365 188.727 102.016C188.809 103.134 188.968 104.373 189.258 105.636C190.297 110.132 192.035 133.823 192.035 133.823H198.078C198.078 133.823 199.566 117.925 198.411 108.158C198.165 106.077 197.981 104.407 197.841 103.066H200.136C200.136 103.066 213.366 101.76 214.143 97.3022C215.153 91.5332 212.796 87.0273 212.796 87.0273H212.791Z" fill="#87DBED"/>
<path d="M193.436 54.7148C193.436 54.7148 189.055 56.2249 188.848 62.1004C188.64 67.9759 189.833 81.2466 189.833 81.2466C189.833 81.2466 189.533 83.2454 191.538 83.3035C193.542 83.3615 196.416 80.3996 196.416 80.3996L193.436 54.7197V54.7148Z" fill="#FF7459"/>
<g style="mix-blend-mode:multiply">
<path d="M192.552 61.4219C192.552 61.4219 191.92 76.8463 193.127 81.5409L196.537 82.1168L192.557 61.4219H192.552Z" fill="#FF7459"/>
</g>
<path d="M192.214 62.5445L192.354 63.8754L193.479 74.3487L195.035 89.3956C202.869 94.6855 213.423 88.0695 213.423 88.0695C213.423 88.0695 213.67 82.7215 213.882 75.5974C214.051 69.7074 214.264 63.556 214.462 60.7199C214.901 54.4378 210.805 53.2085 210.805 53.2085L206.26 51.6211L202.594 52.318C202.594 52.318 196.039 52.2309 193.436 54.7137C190.827 57.1965 192.214 62.5445 192.214 62.5445Z" fill="#FF7459"/>
<path d="M198.469 53.2441C198.565 54.6573 200.502 56.4916 200.502 56.4916L207.139 52.6198C206.352 52.3488 205.849 50.8291 205.535 49.2755C205.502 49.1109 205.473 48.9464 205.444 48.7818C205.149 47.1315 204.985 44.3438 204.985 44.3438L198.788 46.3039C198.908 47.9929 198.923 49.3142 198.879 50.3209C198.879 50.3838 198.879 50.437 198.87 50.4951C198.773 52.5133 198.469 53.2393 198.469 53.2393V53.2441Z" fill="#EFCCC2"/>
<path d="M219.929 61.8945C219.929 61.8945 224.325 71.274 226.532 79.279C226.532 79.279 227.006 80.9923 226.156 82.1055C225.305 83.2186 221.417 82.5653 219.968 78.587L215.157 68.5541L219.934 61.8994L219.929 61.8945Z" fill="#EFCCC2"/>
<path d="M210.806 53.207L212.859 66.5019L214.09 68.9896L215.365 71.5692L216.819 70.5819L223.045 66.3519C223.045 66.3519 220.534 60.5877 217.954 57.0305C215.37 53.4781 210.806 53.207 210.806 53.207Z" fill="#FF7459"/>
<path d="M198.87 50.4804C200.45 50.5627 202.034 50.3982 203.56 49.9868C204.232 49.8029 204.903 49.5657 205.536 49.256C205.502 49.0914 205.473 48.9269 205.444 48.7623C205.149 47.1119 204.985 44.3242 204.985 44.3242L198.788 46.2843C198.909 47.9734 198.923 49.2947 198.88 50.3014C198.88 50.3643 198.88 50.4175 198.87 50.4756V50.4804Z" fill="#E5A8A8"/>
<path d="M215.365 71.5689L218.08 76.5684C218.08 76.5684 224.915 75.1309 227.069 76.549L223.04 66.3516L218.312 67.1453L215.36 71.5689H215.365Z" fill="#FF7459"/>
<path d="M192.136 80.4336L188.519 82.96L188.61 84.3103L192.706 83.3617C192.706 83.3617 193.639 84.3006 193.711 84.2957C193.783 84.2909 194.894 83.7779 194.894 83.7779L194.817 82.6696L194.131 80.9031L192.132 80.4336H192.136Z" fill="#EFCCC2"/>
<path d="M188.519 82.9647L188.374 84.3344L190.065 87.1221L191.364 87.6157L191.151 84.4795L192.499 82.3984L188.519 82.9647Z" fill="#EFCCC2"/>
<path d="M193.209 82.9297L192.475 85.3544L192.286 86.3369L192.817 87.029L194.894 83.7815L193.209 82.9297Z" fill="#EFCCC2"/>
<path d="M226.904 80.918L209.55 87.8195C209.55 87.8195 207.463 88.1099 207.588 85.0076C207.588 85.0076 213.486 81.8375 216.235 79.65C218.983 77.4624 221.968 75.841 223.581 75.8556L226.904 80.918Z" fill="#EFCCC2"/>
<path d="M227.073 76.5449C227.073 76.5449 228.614 80.7797 227.436 81.8251C226.257 82.8705 223.422 83.6206 223.422 83.6206L217.307 77.7016L218.079 76.5642L222.572 73.9023L227.068 76.5449H227.073Z" fill="#FF7459"/>
<g style="mix-blend-mode:multiply">
<path d="M214.09 68.9903L214.365 62.2969L216.283 73.259L214.09 68.9903Z" fill="#FF7459"/>
</g>
<g style="mix-blend-mode:multiply">
<path d="M218.079 76.5669C218.079 76.5669 220.799 75.0665 222.881 75.9522C222.881 75.9522 221.828 74.6406 217.572 75.6328L218.079 76.5669Z" fill="#FF7459"/>
</g>
<path d="M198.102 35.3315C197.58 35.3557 197.039 35.3025 196.551 35.5493C195.962 35.8445 195.566 36.527 195.363 37.219C195.005 38.4532 195.199 39.8761 195.962 40.7521C196.595 41.4781 197.556 41.7781 198.483 41.6716C199.879 41.5119 201.212 40.4423 201.84 38.9807C202.313 37.8773 202.608 35.6897 201.632 34.9056C201.227 34.5814 200.681 34.6685 200.212 34.8137C199.497 35.0315 198.841 35.2976 198.102 35.3315Z" fill="#06314C"/>
<path d="M207.903 39.4875C208.048 38.7374 208.134 37.9049 207.729 37.2612C207.304 36.5837 206.458 36.3078 205.666 36.211C204.874 36.1142 204.357 35.7028 203.826 35.0059C203.295 34.3138 201.773 33.4668 200.247 34.4396C199.788 34.7349 198.493 35.0301 198.054 35.3543C197.609 35.6835 197.025 35.7512 196.552 36.0319C196.03 36.3417 195.687 36.8837 195.475 37.45C195.054 38.5534 195.093 39.8699 195.745 40.8523C196.175 41.5057 196.832 41.9703 197.387 42.5221C198.667 43.7949 199.416 45.5469 200.773 46.7375C201.416 47.2989 202.256 47.7442 203.126 47.749C203.826 47.749 204.319 47.1392 204.806 46.6843C206.053 45.5179 206.956 44.0224 207.579 42.4398C207.936 41.5251 207.719 40.4555 207.907 39.4924L207.903 39.4875Z" fill="#06314C"/>
<path d="M203.903 47.5956C203.135 48.6168 201.855 49.0233 200.657 49.367C200.179 49.5025 199.696 49.6428 199.208 49.6573C198.72 49.6719 198.203 49.5606 197.827 49.2411C197.459 48.9314 197.257 48.4619 197.097 47.9973C196.358 45.7855 196.493 43.3608 196.638 41.0087C196.701 39.9923 196.783 38.9179 197.334 38.0661C197.783 37.3788 198.498 36.919 199.232 36.5996C200.029 36.256 200.889 36.0479 201.744 36.0769C202.599 36.1059 203.454 36.3915 204.12 36.9432C205.173 37.8192 205.642 39.2808 205.642 40.6941C205.642 41.9911 205.284 43.2204 204.922 44.4546C204.608 45.529 204.603 46.6664 203.903 47.6004V47.5956Z" fill="#EFCCC2"/>
<path d="M206.362 42.5625C206.613 42.7464 206.686 43.1239 206.652 43.4627C206.594 44.058 206.27 44.6049 205.855 45.0114C205.439 45.418 204.942 45.6938 204.435 45.9358C204.386 45.4422 204.382 44.9437 204.415 44.45C204.44 44.0919 204.449 43.6418 204.618 43.3175C204.903 42.7754 205.855 42.2043 206.357 42.5673L206.362 42.5625Z" fill="#EFCCC2"/>
<path d="M205.401 42.8708C205.101 43.1805 204.874 43.5483 204.623 43.8968C204.512 44.0468 204.396 44.1969 204.237 44.2888C204.077 44.3808 203.865 44.405 203.71 44.2985C203.522 44.1678 203.488 43.9016 203.531 43.679C203.575 43.4564 203.676 43.2434 203.691 43.016C203.744 42.2174 202.778 41.7092 202.589 40.93C202.469 40.4315 202.657 39.8169 202.29 39.4587C202.053 39.2313 201.681 39.2264 201.353 39.2409C200.126 39.2893 198.904 39.3377 197.677 39.3813C197.184 39.4006 196.634 39.3958 196.286 39.0473C196.016 38.7763 195.943 38.3504 196.035 37.9778C196.127 37.6051 196.349 37.2808 196.61 36.9953C197.518 35.9983 198.846 35.432 200.189 35.3401C201.532 35.2433 202.884 35.5966 204.077 36.2161C205.169 36.7823 206.169 37.6051 206.714 38.7086C207.091 39.4732 207.222 40.388 207.009 41.2204C206.927 41.535 206.782 42.0432 206.502 42.2416C206.352 42.3481 206.111 42.3529 205.946 42.4449C205.744 42.5513 205.565 42.7014 205.405 42.8659L205.401 42.8708Z" fill="#06314C"/>
<path d="M203.256 95.5135L181.95 94.1632L191.751 89.6719L213.057 91.0222L203.256 95.5135Z" fill="#012336"/>
<path d="M207.589 85.0039L202.807 86.6059L200.923 90.7971L203.681 91.9006L205.98 89.4613L208.695 88.5079C208.695 88.5079 209.656 88.1014 209.888 87.1915C210.12 86.2816 207.589 85.0039 207.589 85.0039Z" fill="#EFCCC2"/>
<path d="M203.256 95.5142L181.95 94.1639L178.235 78.875L199.541 80.2253L203.256 95.5142Z" fill="#06314C"/>
<path d="M150.761 107.043C150.761 107.043 145.346 104.516 140.178 103.379C135.01 102.242 131.604 99.207 131.604 99.207V103.122C131.604 103.122 135.348 104.637 138.71 107.038C142.072 109.438 148.631 111.461 148.631 111.461L150.766 107.038L150.761 107.043Z" fill="#EFCCC2"/>
<path d="M133.581 104.041L130.997 103.049L128.978 101.418L130.581 97.8895L131.711 97.3281L134.585 100.832L135.764 101.848L133.581 104.041Z" fill="#EFCCC2"/>
<path d="M128.977 101.419L127.422 100.378L127.2 99.7346L127.712 99.4104L127.156 98.7667L127.417 98.0165L127.813 98.0698L127.514 97.2905L128.291 96.7872L128.151 96.1242L128.808 95.4805L129.789 96.0225L131.711 97.3293L131.687 99.8121L128.977 101.419Z" fill="#EFCCC2"/>
<path d="M62.1748 107.172C62.1748 107.172 67.5894 104.645 72.7577 103.508C77.9261 102.37 81.3313 99.3359 81.3313 99.3359V103.251C81.3313 103.251 77.5879 104.766 74.2261 107.167C70.8643 109.567 64.3049 111.59 64.3049 111.59L62.1699 107.167L62.1748 107.172Z" fill="#EFCCC2"/>
<path d="M79.3513 104.175L81.9403 103.178L83.9593 101.547L82.3508 98.0184L81.2206 97.457L78.3466 100.961L77.1729 101.977L79.3513 104.175Z" fill="#EFCCC2"/>
<path d="M83.9594 101.547L85.5099 100.506L85.7369 99.8626L85.2249 99.5383L85.7804 98.8995L85.5196 98.1445L85.1235 98.1977L85.423 97.4185L84.6405 96.9152L84.7806 96.2521L84.1237 95.6133L83.148 96.1505L81.2207 97.4572L81.2497 99.9401L83.9594 101.547Z" fill="#EFCCC2"/>
<path d="M132.643 135.284L79.6509 133.198C77.9845 133.131 76.69 131.732 76.748 130.062L78.1197 92.3458C78.1825 90.6712 79.5881 89.3645 81.2594 89.4322L134.252 91.5182C135.918 91.5859 137.212 92.9846 137.154 94.6543L135.783 132.371C135.72 134.045 134.314 135.352 132.643 135.284Z" fill="#06314C"/>
<path d="M79.709 131.742C78.8444 131.709 78.1682 130.978 78.1972 130.111L79.569 92.395C79.6028 91.5286 80.3321 90.8462 81.1967 90.8801L134.194 92.9661C135.058 92.9999 135.735 93.7307 135.706 94.5971L134.334 132.314C134.3 133.18 133.571 133.862 132.706 133.828L79.709 131.742Z" fill="white"/>
<path d="M79.7672 130.295C79.6996 130.295 79.6465 130.232 79.6465 130.169L81.0183 92.453C81.0183 92.3853 81.0811 92.332 81.1487 92.332L134.141 94.418C134.208 94.418 134.262 94.4809 134.262 94.5487L132.89 132.265C132.89 132.333 132.827 132.386 132.764 132.386L79.7721 130.3L79.7672 130.295Z" fill="url(#paint0_linear_900_123460)"/>
<path d="M119.114 114.423L119.23 111.18L115.312 110.033C115.177 109.549 114.998 109.085 114.791 108.64L117.013 105.203L114.805 102.827L111.221 104.797C110.791 104.555 110.342 104.342 109.869 104.172L109.014 100.175L105.778 100.059L104.633 103.984C104.15 104.119 103.686 104.298 103.242 104.506L99.8122 102.28L97.4406 104.492L99.4065 108.083C99.165 108.514 98.9525 108.964 98.7834 109.438L94.7937 110.295L94.6777 113.537L98.595 114.684C98.7303 115.168 98.909 115.633 99.1167 116.078L96.8948 119.515L99.1022 121.891L102.686 119.921C103.116 120.163 103.565 120.376 104.039 120.545L104.894 124.543L108.13 124.659L109.275 120.734C109.758 120.599 110.221 120.42 110.666 120.211L114.095 122.438L116.467 120.226L114.501 116.635C114.742 116.204 114.955 115.754 115.124 115.28L119.114 114.423ZM106.884 114.239C105.845 114.2 105.034 113.329 105.072 112.289C105.111 111.248 105.98 110.435 107.019 110.474C108.057 110.513 108.869 111.384 108.83 112.424C108.792 113.465 107.922 114.278 106.884 114.239Z" fill="white"/>
<path d="M45.5498 192.674L42.3474 199.464L37.8408 198.307L41.5311 191.105L45.5498 192.674Z" fill="#EFCCC2"/>
<path d="M62.5032 141.596C60.8464 138.794 59.4747 135.933 58.127 132.981C57.8034 132.27 57.4701 131.548 57.1175 130.832C56.422 130.59 55.7361 130.329 55.0454 130.082C54.8087 130.702 54.6203 131.316 54.4899 131.921C54.0793 133.876 53.9972 138.358 53.9731 140.357L53.9537 141.223L53.4852 161.812C53.4852 161.812 53.379 162.242 53.2679 163.026C52.9539 165.2 48.2251 168.399 45.1193 177.831C42.4192 186.04 39.3955 192.089 39.3955 192.089L40.7528 192.627L44.2161 193.991L44.8198 194.229L45.5105 194.504L60.7354 167.193C61.3053 166.172 61.7255 165.079 61.996 163.946L62.8123 160.486L65.9568 147.176C64.7782 145.337 63.619 143.483 62.5032 141.601V141.596Z" fill="#06314C"/>
<path d="M36.3287 198.883C36.3287 198.883 35.9181 199.43 36.0147 199.817C36.0147 199.817 38.6327 201.249 39.0674 201.487L39.6664 201.09C39.6664 201.09 39.8789 201.09 40.1542 201.53C40.4295 201.971 40.4778 202.203 40.9995 202.547C44.7815 205.034 51.4665 206.699 51.4665 206.699L51.6163 206.109L40.2267 200.509L36.3335 198.888L36.3287 198.883Z" fill="#012336"/>
<path d="M39.0195 194.688C39.0195 194.688 36.986 197.272 36.3291 198.879C36.3291 198.879 38.2032 200.321 40.145 200.965C40.145 200.965 40.9661 201.831 42.845 202.857C44.724 203.883 51.6119 206.1 51.6119 206.1C51.6119 206.1 51.4814 204.856 48.82 203.162C46.1586 201.468 44.7916 196.672 44.7916 196.672C44.7916 196.672 44.4632 196.391 43.8932 196.561C43.3232 196.73 41.7003 197.054 41.0047 196.778C40.3044 196.498 39.4542 195.999 39.0195 194.692V194.688Z" fill="#DE9F7E"/>
<path d="M44.8199 194.224L40.748 192.637L39.8496 194.394L44.5204 194.863L44.8199 194.224Z" fill="#E5A8A8"/>
<path d="M71.7437 196.969L71.8645 204.485L67.3096 205.434L67.4496 197.341L71.7437 196.969Z" fill="#EFCCC2"/>
<path d="M74.1348 167.386L72.5167 198.622L65.9669 199.164C65.9669 199.164 66.0104 192.398 64.8173 183.842C63.4407 174.002 66.276 169.042 65.5998 166.951C65.3535 166.196 65.2617 165.765 65.2617 165.765L62.8128 160.48L56.2389 146.299C55.6882 145.143 54.7125 143.067 53.9542 141.218C53.5243 140.172 53.1669 139.2 52.9881 138.503C51.341 132.051 55.5578 121.438 55.5578 121.438H68.8747L67.6237 136.736L68.0149 138.445L73.8353 163.911C74.0961 165.049 74.1976 166.22 74.1348 167.386Z" fill="#06314C"/>
<path d="M68.8847 84.3227C68.4741 85.281 68.1263 86.2635 67.8317 87.2605C67.5467 88.2672 67.3245 89.2787 67.1651 90.3095C67.1216 90.6241 67.0733 90.9387 67.0395 91.2581C66.8656 92.7875 66.8367 94.3411 66.9477 95.8705C64.1269 95.2461 59.7073 94.8444 58.2051 92.3761C59.5092 91.2436 62.5426 89.0609 62.5136 83.5242C62.5136 81.8738 62.6392 80.7171 62.6778 80.6977C62.7406 80.6445 62.8276 80.6542 62.9145 80.6638C65.7209 80.9687 66.996 82.2077 68.8798 84.3227H68.8847Z" fill="#EFCCC2"/>
<path d="M66.2085 206.624C66.2085 206.624 66.083 207.297 66.339 207.602C66.339 207.602 69.3192 207.728 69.8119 207.747L70.1741 207.128C70.1741 207.128 70.3625 207.031 70.8069 207.307C71.2513 207.583 71.3913 207.767 72.0096 207.844C76.4969 208.401 83.2302 206.939 83.2302 206.939L83.1046 206.344L70.4156 206.358L66.2085 206.624Z" fill="#012336"/>
<path d="M66.7737 201.667C66.7737 201.667 66.0878 204.885 66.2086 206.618C66.2086 206.618 68.5271 207.083 70.5509 206.802C70.5509 206.802 71.6716 207.213 73.8113 207.305C75.9511 207.397 83.1046 206.333 83.1046 206.333C83.1046 206.333 82.4381 205.273 79.3081 204.929C76.1733 204.585 72.8308 200.888 72.8308 200.888C72.8308 200.888 72.4154 200.781 71.9759 201.183C71.5363 201.585 70.2273 202.596 69.4786 202.654C68.73 202.712 67.7446 202.64 66.7786 201.662L66.7737 201.667Z" fill="#DE9F7E"/>
<path d="M67.8314 87.2653C67.5465 88.272 67.3243 89.2835 67.1649 90.3144C67.1214 90.629 67.0731 90.9435 67.0393 91.263C65.3342 89.5497 64.0107 86.6797 64.0107 86.6797L67.8266 87.2653H67.8314Z" fill="#E5A8A8"/>
<path d="M64.3048 87.2819C65.3336 88.0466 68.2366 88.7483 68.7534 88.6225C69.2702 88.4967 69.7774 88.2353 70.0962 87.8142C70.4053 87.4077 70.5744 86.8995 70.5744 86.401C70.5647 84.0634 70.6613 81.6677 69.9851 79.4366C69.6905 78.4686 69.3668 77.4571 68.5988 76.794C67.9757 76.2617 67.1305 76.0245 66.29 75.9277C65.3819 75.8261 64.44 75.8745 63.5561 76.1552C62.6722 76.4359 61.8462 76.9538 61.2763 77.6846C60.3778 78.8364 60.2184 80.39 60.5324 81.7548C60.8222 83.0083 62.2616 83.6956 62.9137 84.7797C63.4837 85.7283 63.3629 86.5849 64.3 87.2819H64.3048Z" fill="#EFCCC2"/>
<path d="M69.3572 77.7977C69.618 76.6604 69.2896 75.5908 67.9999 74.7777C67.8357 74.6761 67.6666 74.5841 67.4928 74.497C66.9904 74.4631 66.4881 74.4244 66.0099 74.3083C64.4401 73.9259 62.025 73.4613 59.9528 74.9858C58.0594 76.37 58.6632 78.0688 58.2574 80.3822C58.156 80.963 57.8372 81.505 57.7744 82.0906C57.6295 83.4603 58.8564 84.5638 60.0398 85.3188C60.3344 85.5075 60.6387 85.6914 60.9382 85.8899C61.2232 86.0786 61.7641 86.5432 62.0781 86.6158C62.3486 86.1899 62.2761 85.6285 62.5466 85.0429C62.9137 84.2492 65.5317 81.8438 65.7684 82.2842C66.7006 81.9551 68.0724 78.7705 68.4346 78.4221C68.7051 78.1656 69.0288 77.9817 69.3572 77.8026V77.7977Z" fill="#06314C"/>
<path d="M65.3917 81.1567C65.0488 80.8422 64.5078 80.6776 64.0779 80.8857C63.8026 81.0212 63.619 81.2874 63.5272 81.5681C63.2954 82.2893 63.6335 83.0781 64.1793 83.6057C64.7251 84.1332 65.4545 84.4478 66.1694 84.7382C66.2225 84.7624 66.1549 82.8313 66.1307 82.6716C66.0438 82.1053 65.8264 81.5536 65.3869 81.1519L65.3917 81.1567Z" fill="#EFCCC2"/>
<path d="M71.7725 198.688L67.4205 199.065L67.3867 201.04L71.7822 199.389L71.7725 198.688Z" fill="#E5A8A8"/>
<path d="M54.2824 124.426C54.2824 124.426 62.2619 125.2 68.5749 124.692L68.4494 126.207C68.4494 126.207 59.8806 126.642 53.8477 125.829L54.2824 124.426Z" fill="#DE9F7E"/>
<path d="M56.6982 124.398L55.8887 124.293L55.6002 126.525L56.4097 126.63L56.6982 124.398Z" fill="#8BB0FE"/>
<path d="M63.6285 124.701L62.8145 124.641L62.6492 126.885L63.4633 126.945L63.6285 124.701Z" fill="#8BB0FE"/>
<path d="M68.9475 98.3278C65.291 86.5333 55.2249 88.9773 53.6696 97.8051C53.0078 101.566 53.8821 109.522 53.8531 115.335C53.829 120.392 53.2155 124.443 52.7808 126.674C52.5876 127.671 53.3266 128.606 54.341 128.635C57.3357 128.727 63.0788 128.877 66.9333 128.867C68.7446 128.862 70.2468 127.473 70.4159 125.668C70.9569 119.865 71.6959 107.204 68.9475 98.3327V98.3278Z" fill="#F6EBE5"/>
<path d="M72.5889 130.597L74.492 132.934L76.7477 134.217L79.4381 131.429L79.5444 130.171L75.2406 128.772L73.864 128.051L72.5889 130.597Z" fill="#EFCCC2"/>
<path d="M76.748 134.214L78.2841 135.284L78.9651 135.255L79.0762 134.659L79.878 134.945L80.4818 134.427L80.2886 134.074L81.1194 134.069L81.3029 133.159L81.9695 133.043L82.3269 132.196L81.4623 131.484L79.5447 130.168L77.2504 131.102L76.748 134.214Z" fill="#EFCCC2"/>
<path d="M63.2231 110.422L62.6435 117.633C62.6435 117.633 61.9962 123.02 59.0643 122.251C56.9487 121.694 56.3497 113.95 56.1807 109.691L63.054 110.34L63.2231 110.422Z" fill="#EFCCC2"/>
<path d="M62.0058 117.754C62.0058 117.754 66.6863 121.389 70.3717 125.198C74.0572 129.006 78.4237 130.313 78.4237 130.313L75.1005 132.375C75.1005 132.375 71.845 129.984 68.0388 128.382C64.2326 126.78 58.417 121.814 58.417 121.814L62.0107 117.754H62.0058Z" fill="#EFCCC2"/>
<path d="M64.7835 97.4079L63.7257 110.504L56.1809 109.691L55.1038 109.59C55.1038 109.59 54.3309 101.938 55.3598 98.5792C56.3886 95.2204 58.823 90.3467 61.6825 90.7677C64.542 91.1888 64.7835 97.4079 64.7835 97.4079Z" fill="#F6EBE5"/>
<path d="M172.85 186.829L178.197 192.095L182.027 189.447L176.081 183.969L172.85 186.829Z" fill="#EFCCC2"/>
<path d="M183.644 189.465C183.644 189.465 184.219 189.838 184.263 190.23C184.263 190.23 182.301 192.48 181.973 192.853L181.273 192.688C181.273 192.688 181.075 192.761 180.964 193.269C180.852 193.777 180.891 194.009 180.519 194.513C177.829 198.152 172.129 202.029 172.129 202.029L171.786 201.526L180.548 192.33L183.644 189.465Z" fill="#012336"/>
<path d="M179.674 186.461C179.674 186.461 182.476 188.179 183.644 189.466C183.644 189.466 182.379 191.465 180.78 192.743C180.78 192.743 180.307 193.837 178.896 195.453C177.486 197.07 171.786 201.527 171.786 201.527C171.786 201.527 171.482 200.317 173.395 197.805C175.308 195.294 174.94 190.318 174.94 190.318C174.94 190.318 175.148 189.941 175.747 189.902C176.346 189.863 177.974 189.607 178.534 189.103C179.094 188.6 179.722 187.835 179.679 186.461H179.674Z" fill="#012336"/>
<path d="M174.071 188.031L177.346 185.137L178.795 186.473L174.574 188.525L174.071 188.031Z" fill="#E5A8A8"/>
<path d="M149.201 165.84L173.55 189.071L178.525 184.768C178.525 184.768 173.681 180.059 168.425 173.206C162.388 165.332 156.157 162.055 154.703 160.414C154.176 159.819 151.805 156.605 151.805 156.605L149.201 165.84Z" fill="#6693E2"/>
<path d="M151.684 196.711L152.21 204.203L156.828 204.759L155.997 196.711H151.684Z" fill="#EFCCC2"/>
<path d="M157.432 141.79L155.258 163.138C155.258 163.138 155.311 163.578 155.326 164.372C155.369 166.564 157.982 173.113 157.461 183.029C157.006 191.659 157.634 198.396 157.634 198.396L151.06 198.425L147.626 164.914L144.062 121.312H157.378C157.378 121.312 161.837 130.01 159.074 136.064C158.243 137.884 157.659 139.8 157.432 141.79Z" fill="#8BB0FE"/>
<path d="M144.848 97.2128C148.051 86.8751 156.876 89.0191 158.238 96.7531C158.817 100.049 157.252 107.018 157.276 112.115C157.31 118.973 158.808 123.716 158.808 123.716C158.808 123.716 146.906 124.141 143.863 123.904C143.863 123.904 141.631 107.594 144.848 97.2128Z" fill="white"/>
<path d="M142.863 85.285C143.424 86.1658 143.926 87.0757 144.375 88.0146C144.82 88.9584 145.201 89.9263 145.525 90.9136C145.621 91.2185 145.718 91.5186 145.8 91.8284C146.22 93.3093 146.5 94.8339 146.636 96.3681C149.321 95.2936 152.683 94.5144 153.77 91.8284C152.301 90.9233 149.882 88.9293 149.012 83.4652C148.751 81.839 148.433 80.7162 148.394 80.7017C148.321 80.663 148.239 80.6823 148.157 80.7065C145.438 81.4664 144.38 82.8941 142.863 85.285Z" fill="#EFCCC2"/>
<path d="M144.993 108.014L143.143 115.008C143.143 115.008 141.96 120.302 144.983 120.554C148.007 120.806 152.857 107.09 152.857 107.09L144.993 108.014Z" fill="#EFCCC2"/>
<path d="M143.163 116.044C143.163 116.044 139.816 121 137.874 125.936C135.932 130.873 132.406 133.758 132.406 133.758L136.266 134.377C136.266 134.377 138.352 130.917 141.25 127.969C144.148 125.022 147.182 118.856 147.182 118.856L143.163 116.039V116.044Z" fill="#EFCCC2"/>
<path d="M137.903 131.769L137.038 134.663L135.449 136.72L131.899 135.181L131.314 134.058L134.754 131.11L135.744 129.91L137.903 131.769Z" fill="#EFCCC2"/>
<path d="M135.449 136.716L134.44 138.294L133.807 138.531L133.474 138.023L132.841 138.594L132.083 138.347L132.126 137.946L131.358 138.265L130.841 137.491L130.184 137.646L129.527 137.002L130.049 136.01L131.315 134.055L133.792 134.035L135.449 136.716Z" fill="#EFCCC2"/>
<path d="M143.202 107.641L147.052 95.1834C147.052 95.1834 149.81 89.6079 152.592 90.392C155.374 91.176 156.765 96.9644 156.331 100.454C155.901 103.939 154.205 110.385 154.205 110.385L143.197 107.636L143.202 107.641Z" fill="white"/>
<path d="M158.03 205.844C158.03 205.844 158.214 206.507 157.987 206.826C157.987 206.826 155.031 207.209 154.538 207.271L154.123 206.686C154.123 206.686 153.925 206.608 153.509 206.918C153.094 207.228 152.964 207.426 152.355 207.557C147.93 208.501 141.101 207.625 141.101 207.625L141.178 207.02L153.819 205.941L158.035 205.844H158.03Z" fill="#012336"/>
<path d="M157.04 200.96C157.04 200.96 158.001 204.105 158.03 205.843C158.03 205.843 155.76 206.506 153.717 206.4C153.717 206.4 152.64 206.908 150.514 207.184C148.389 207.459 141.173 207.019 141.173 207.019C141.173 207.019 141.743 205.906 144.839 205.296C147.935 204.686 150.944 200.708 150.944 200.708C150.944 200.708 151.35 200.563 151.823 200.931C152.297 201.298 153.688 202.189 154.437 202.179C155.185 202.17 156.161 202.015 157.04 200.955V200.96Z" fill="#012336"/>
<path d="M144.375 88.0167C144.819 88.9604 145.201 89.9284 145.525 90.9157C145.621 91.2206 145.718 91.5207 145.8 91.8304C147.206 89.8655 148.046 86.8164 148.046 86.8164L144.375 88.0118V88.0167Z" fill="#E5A8A8"/>
<path d="M147.863 87.4656C146.974 88.39 144.221 89.5515 143.69 89.508C143.158 89.4644 142.617 89.295 142.231 88.932C141.859 88.5836 141.608 88.1093 141.531 87.6156C141.164 85.307 140.676 82.9598 140.985 80.6463C141.12 79.6445 141.275 78.5894 141.927 77.8151C142.453 77.1859 143.25 76.8181 144.062 76.5858C144.941 76.3389 145.878 76.2325 146.796 76.368C147.713 76.5035 148.617 76.881 149.293 77.5053C150.365 78.4975 150.776 80.0026 150.684 81.4013C150.602 82.6839 149.293 83.5938 148.824 84.7747C148.414 85.8007 148.67 86.6283 147.858 87.4704L147.863 87.4656Z" fill="#EFCCC2"/>
<path d="M141.342 78.9264C140.902 77.8471 141.052 76.734 142.192 75.7273C142.337 75.6015 142.491 75.4805 142.651 75.3643C143.143 75.253 143.631 75.132 144.085 74.9384C145.573 74.3092 147.877 73.4574 150.171 74.619C152.263 75.6789 151.944 77.4502 152.717 79.6669C152.91 80.2234 153.311 80.7074 153.47 81.2785C153.837 82.6046 152.804 83.8968 151.755 84.8309C151.495 85.0632 151.224 85.2955 150.963 85.5424C150.712 85.7747 150.258 86.3216 149.954 86.4426C149.621 86.0699 149.601 85.4988 149.234 84.9664C148.741 84.2453 145.771 82.2949 145.607 82.7692C144.636 82.5949 142.766 79.6766 142.351 79.391C142.042 79.1829 141.694 79.0522 141.342 78.9264Z" fill="#06314C"/>
<path d="M155.123 78.5049C156.234 79.1631 157.07 80.2231 157.644 81.3846C158.847 83.8142 158.944 86.6551 158.615 89.3509C158.475 90.4979 158.267 91.645 158.311 92.7968C158.374 94.4375 158.953 96.0104 159.528 97.5543C158.19 97.1139 157.016 96.2718 155.963 95.3377C154.679 94.1955 153.49 92.7968 153.21 91.0981C152.978 89.6848 153.403 88.2619 153.679 86.8584C153.886 85.8082 154.017 84.7289 153.853 83.6738C153.688 82.6188 153.21 81.5782 152.375 80.9103C152.022 80.6296 151.611 80.4167 151.268 80.1263C150.925 79.8359 150.631 79.4293 150.631 78.9744C150.641 77.1014 154.263 77.9968 155.123 78.5049Z" fill="#06314C"/>
<path d="M145.796 81.5928C146.081 81.225 146.588 80.9733 147.047 81.1137C147.341 81.2008 147.568 81.4331 147.703 81.6993C148.051 82.372 147.844 83.2093 147.389 83.8191C146.935 84.4289 146.264 84.8548 145.607 85.2614C145.559 85.2904 145.312 83.3787 145.312 83.219C145.312 82.6479 145.433 82.0671 145.8 81.5976L145.796 81.5928Z" fill="#EFCCC2"/>
<path d="M151.805 198.422H156.171L156.374 200.387L151.853 199.124L151.805 198.422Z" fill="#E5A8A8"/>
<path d="M152.524 126.84C152.949 129.463 153.447 133.616 152.988 136.776C152.263 141.785 151.601 161.217 151.717 163.535C151.833 165.853 153.543 171.075 153.992 178.906C154.437 186.737 155.099 198.319 155.099 198.319" stroke="#6693E2" stroke-miterlimit="10"/>
<path d="M158.654 124.301C158.654 124.301 150.674 125.075 144.361 124.567L144.487 126.082C144.487 126.082 153.056 126.517 159.089 125.704L158.654 124.301Z" fill="#06314C"/>
<path d="M156.531 126.503L157.341 126.398L157.052 124.167L156.243 124.272L156.531 126.503Z" fill="#8BB0FE"/>
<path d="M149.473 126.822L150.287 126.762L150.122 124.517L149.308 124.578L149.473 126.822Z" fill="#8BB0FE"/>
<path d="M152.374 132.184C152.374 132.184 149.659 130.897 149.22 126.836" stroke="#6693E2" stroke-miterlimit="10"/>
<path d="M140.289 78.9285C140.531 80.3127 141.009 81.1064 142.115 81.9679C142.632 82.3696 143.999 82.9068 143.999 82.9068C143.999 82.9068 142.376 80.8499 143.337 78.8075C143.752 77.9266 143.801 76.0246 142.656 75.4874C141.69 75.0324 140.82 76.1069 140.506 76.8861C140.246 77.5298 140.168 78.2509 140.289 78.9333V78.9285Z" fill="#06314C"/>
</g>
<g clip-path="url(#clip2_900_123460)">
<path d="M146.65 51.6513C142.907 55.3947 142.907 61.4586 146.65 65.1961C150.394 68.9396 156.458 68.9396 160.195 65.1961C163.939 61.4527 163.939 55.3888 160.195 51.6513C156.452 47.9079 150.388 47.9079 146.65 51.6513ZM155.566 60.567C154.385 61.7479 152.466 61.7479 151.285 60.567C150.104 59.3862 150.104 57.4672 151.285 56.2863C152.466 55.1054 154.385 55.1054 155.566 56.2863C156.747 57.4672 156.747 59.3862 155.566 60.567Z" fill="url(#paint1_linear_900_123460)"/>
<path d="M143.055 50.1095C144.19 50.1095 145.11 49.1896 145.11 48.0548C145.11 46.9199 144.19 46 143.055 46C141.92 46 141 46.9199 141 48.0548C141 49.1896 141.92 50.1095 143.055 50.1095Z" fill="url(#paint2_linear_900_123460)"/>
<path opacity="0.6" d="M149.083 52.5318C150.317 51.6639 151.811 51.1797 153.322 51.1797" stroke="white" stroke-width="2" stroke-miterlimit="10" stroke-linecap="round"/>
<path opacity="0.6" d="M146.857 55.0357C146.916 54.9294 146.981 54.8172 147.04 54.7109" stroke="white" stroke-width="2" stroke-miterlimit="10" stroke-linecap="round"/>
</g>
<g clip-path="url(#clip3_900_123460)">
<path d="M96.379 66.4018L94.6584 67.7343C94.2149 68.0784 94.0084 68.6275 94.1231 69.162L94.5743 71.234C94.8955 72.7349 92.8996 73.6355 91.8978 72.4494L90.5061 70.802C90.1467 70.3774 89.5731 70.1797 89.0149 70.2895L86.8508 70.7215C85.2831 71.029 84.3425 69.1181 85.5814 68.1589L87.302 66.8264C87.7455 66.4823 87.952 65.9332 87.8373 65.3987L87.3861 63.3267C87.0573 61.8185 89.0531 60.9106 90.0625 62.104L91.4543 63.7514C91.8137 64.176 92.3873 64.3737 92.9455 64.2639L95.1096 63.8319C96.6773 63.5244 97.6178 65.4353 96.379 66.3945V66.4018Z" fill="url(#paint3_linear_900_123460)"/>
<path d="M110.724 63.3798L109.875 64.0314C109.654 64.1998 109.554 64.4707 109.615 64.7343L109.837 65.752C109.998 66.4914 109.019 66.9307 108.522 66.345L107.841 65.5323C107.665 65.32 107.382 65.2248 107.107 65.2834L106.044 65.4957C105.272 65.6495 104.813 64.7123 105.425 64.2364L106.274 63.5848C106.495 63.4164 106.595 63.1455 106.534 62.8819L106.312 61.8642C106.151 61.1247 107.13 60.6855 107.627 61.2712L108.308 62.0839C108.484 62.2962 108.767 62.3914 109.042 62.3328L110.105 62.1205C110.877 61.9667 111.336 62.9039 110.724 63.3798Z" fill="url(#paint4_linear_900_123460)"/>
</g>
</g>
<defs>
<linearGradient id="paint0_linear_900_123460" x1="83.4186" y1="134.28" x2="130.58" y2="90.5265" gradientUnits="userSpaceOnUse">
<stop stop-color="#ACFAFF"/>
<stop offset="1" stop-color="#71AEFF"/>
</linearGradient>
<linearGradient id="paint1_linear_900_123460" x1="146.646" y1="65.1965" x2="160.195" y2="51.6484" gradientUnits="userSpaceOnUse">
<stop stop-color="#3CEEB1"/>
<stop offset="0.98" stop-color="#44D6E1"/>
</linearGradient>
<linearGradient id="paint2_linear_900_123460" x1="141.599" y1="49.5016" x2="144.501" y2="46.5999" gradientUnits="userSpaceOnUse">
<stop stop-color="#3CEEB1"/>
<stop offset="0.98" stop-color="#44D6E1"/>
</linearGradient>
<linearGradient id="paint3_linear_900_123460" x1="88.2197" y1="61.7046" x2="93.3455" y2="73.0305" gradientUnits="userSpaceOnUse">
<stop stop-color="#D3C9FB"/>
<stop offset="1" stop-color="#B7E0E6"/>
</linearGradient>
<linearGradient id="paint4_linear_900_123460" x1="106.719" y1="61.0757" x2="109.235" y2="66.6345" gradientUnits="userSpaceOnUse">
<stop stop-color="#D3C9FB"/>
<stop offset="1" stop-color="#B7E0E6"/>
</linearGradient>
<clipPath id="clip0_900_123460">
<rect width="240" height="210" fill="white"/>
</clipPath>
<clipPath id="clip1_900_123460">
<rect width="196" height="174" fill="white" transform="translate(36 34)"/>
</clipPath>
<clipPath id="clip2_900_123460">
<rect width="22" height="22" fill="white" transform="translate(141 46)"/>
</clipPath>
<clipPath id="clip3_900_123460">
<rect width="26" height="12" fill="white" transform="translate(85 61)"/>
</clipPath>
</defs>
</svg>
