<svg width="282" height="176" viewBox="0 0 282 176" fill="none" xmlns="http://www.w3.org/2000/svg">
<g clip-path="url(#clip0_816_59669)">
<path d="M-26.7373 78.9898C21.2627 69.9898 18 94.147 34.7627 100.49C51.5253 106.832 68.1855 102.946 98.2626 104.99C146.94 108.298 163.262 153.49 163.262 180.719L73 230.045L-34.2376 188.719L-26.7373 78.9898Z" fill="#DFF5FF"/>
<path d="M263 40C263 49.3888 255.389 57 246 57C236.611 57 229 49.3888 229 40C229 30.6112 236.611 23 246 23C255.389 23 263 30.6112 263 40Z" fill="white"/>
<circle cx="70" cy="9" r="43" fill="#E9E1FF"/>
</g>
<path d="M218.248 40.9912C218.248 36.5768 214.675 33 210.269 33H79.5797C75.1735 33 71.6035 36.58 71.6035 40.9912V41.1345H218.248V40.9912Z" fill="#3C3D46"/>
<g filter="url(#filter0_d_816_59669)">
<path d="M71.6035 41.1348V132.905C71.6035 137.319 75.1735 140.896 79.5797 140.896H210.269C214.675 140.896 218.248 137.316 218.248 132.905V41.1348H71.6035Z" fill="url(#paint0_linear_816_59669)"/>
</g>
<path d="M214.484 75.5618C214.484 78.0716 212.481 80.1036 210.008 80.1036H160.339C157.866 80.1036 155.863 78.0716 155.863 75.5618V51.1678C155.863 48.658 157.866 46.626 160.339 46.626H210.008C212.481 46.626 214.484 48.658 214.484 51.1678V75.5618Z" fill="#4163CE"/>
<path d="M214.467 75.5452C214.467 78.0518 212.464 80.0838 209.994 80.0838H160.338C157.868 80.0838 155.865 78.0518 155.865 75.5452V51.1639C155.865 48.6573 157.868 46.6221 160.338 46.6221H209.994C212.464 46.6221 214.467 48.6541 214.467 51.1639V75.5452Z" fill="#4264CF"/>
<path d="M214.451 75.5292C214.451 78.0358 212.448 80.0679 209.978 80.0679H160.338C157.868 80.0679 155.865 78.0358 155.865 75.5292V51.1607C155.865 48.6541 157.868 46.6221 160.338 46.6221H209.978C212.448 46.6221 214.451 48.6541 214.451 51.1607V75.5292Z" fill="#4364D0"/>
<path d="M214.437 75.5133C214.437 78.0167 212.434 80.0488 209.964 80.0488H160.336C157.866 80.0488 155.863 78.0199 155.863 75.5133V51.1575C155.863 48.6509 157.866 46.6221 160.336 46.6221H209.964C212.434 46.6221 214.437 48.6509 214.437 51.1575V75.5133Z" fill="#4465D1"/>
<path d="M214.419 75.5013C214.419 78.0047 212.417 80.0336 209.95 80.0336H160.335C157.865 80.0336 155.865 78.0047 155.865 75.5013V51.1582C155.865 48.6548 157.868 46.626 160.335 46.626H209.95C212.42 46.626 214.419 48.6548 214.419 51.1582V75.5013Z" fill="#4466D2"/>
<path d="M214.405 75.4846C214.405 77.9881 212.405 80.0137 209.935 80.0137H160.333C157.863 80.0137 155.863 77.9849 155.863 75.4846V51.1543C155.863 48.6509 157.863 46.6221 160.333 46.6221H209.935C212.405 46.6221 214.405 48.6509 214.405 51.1543V75.4846Z" fill="#4567D3"/>
<path d="M214.392 75.4687C214.392 77.969 212.392 79.9978 209.922 79.9978H160.333C157.866 79.9978 155.863 77.9721 155.863 75.4687V51.1512C155.863 48.6509 157.863 46.6221 160.333 46.6221H209.922C212.389 46.6221 214.392 48.6477 214.392 51.1512V75.4687Z" fill="#4667D4"/>
<path d="M214.375 75.4528C214.375 77.953 212.375 79.9787 209.908 79.9787H160.332C157.865 79.9787 155.865 77.953 155.865 75.4528V51.148C155.865 48.6477 157.865 46.6221 160.332 46.6221H209.908C212.375 46.6221 214.375 48.6477 214.375 51.148V75.4528Z" fill="#4768D5"/>
<path d="M214.359 75.4369C214.359 77.9339 212.359 79.9596 209.893 79.9596H160.332C157.865 79.9596 155.865 77.9339 155.865 75.4369V51.1448C155.865 48.6477 157.865 46.6221 160.332 46.6221H209.893C212.359 46.6221 214.359 48.6477 214.359 51.1448V75.4369Z" fill="#4869D6"/>
<path d="M214.344 75.4249C214.344 77.9219 212.344 79.9444 209.881 79.9444H160.332C157.866 79.9444 155.869 77.9219 155.869 75.4249V51.1455C155.869 48.6485 157.869 46.626 160.332 46.626H209.881C212.347 46.626 214.344 48.6485 214.344 51.1455V75.4249Z" fill="#4969D7"/>
<path d="M214.327 75.4082C214.327 77.9053 212.328 79.9277 209.864 79.9277H160.329C157.865 79.9277 155.865 77.9053 155.865 75.4082V51.1416C155.865 48.6446 157.865 46.6221 160.329 46.6221H209.864C212.328 46.6221 214.327 48.6446 214.327 51.1416V75.4082Z" fill="#496AD8"/>
<path d="M214.313 75.3923C214.313 77.8861 212.316 79.9086 209.849 79.9086H160.327C157.863 79.9086 155.863 77.8861 155.863 75.3923V51.1384C155.863 48.6446 157.86 46.6221 160.327 46.6221H209.849C212.313 46.6221 214.313 48.6446 214.313 51.1384V75.3923Z" fill="#4A6BD9"/>
<path d="M214.295 75.3764C214.295 77.8702 212.299 79.8895 209.835 79.8895H160.325C157.862 79.8895 155.865 77.8702 155.865 75.3764V51.1352C155.865 48.6414 157.862 46.6221 160.325 46.6221H209.835C212.299 46.6221 214.295 48.6414 214.295 51.1352V75.3764Z" fill="#4B6CDA"/>
<path d="M214.281 75.3604C214.281 77.8511 212.284 79.8704 209.821 79.8704H160.323C157.86 79.8704 155.863 77.8511 155.863 75.3604V51.132C155.863 48.6414 157.86 46.6221 160.323 46.6221H209.821C212.284 46.6221 214.281 48.6414 214.281 51.132V75.3604Z" fill="#4C6CDB"/>
<path d="M214.265 75.3477C214.265 77.8384 212.269 79.8577 209.805 79.8577H160.323C157.86 79.8577 155.863 77.8384 155.863 75.3477V51.132C155.863 48.6414 157.86 46.6221 160.323 46.6221H209.805C212.269 46.6221 214.265 48.6414 214.265 51.132V75.3477Z" fill="#4D6DDC"/>
<path d="M214.248 75.3318C214.248 77.8193 212.251 79.8386 209.791 79.8386H160.322C157.862 79.8386 155.865 77.8224 155.865 75.3318V51.1289C155.865 48.6382 157.862 46.6221 160.322 46.6221H209.791C212.251 46.6221 214.248 48.6382 214.248 51.1289V75.3318Z" fill="#4E6EDD"/>
<path d="M214.233 75.3158C214.233 77.8033 212.237 79.8194 209.776 79.8194H160.32C157.86 79.8194 155.863 77.8033 155.863 75.3158V51.1257C155.863 48.6382 157.86 46.6221 160.32 46.6221H209.776C212.237 46.6221 214.233 48.6382 214.233 51.1257V75.3158Z" fill="#4E6EDE"/>
<path d="M214.216 75.2999C214.216 77.7874 212.223 79.8003 209.762 79.8003H160.319C157.858 79.8003 155.865 77.7842 155.865 75.2999V51.1225C155.865 48.635 157.858 46.6221 160.319 46.6221H209.762C212.223 46.6221 214.216 48.6382 214.216 51.1225V75.2999Z" fill="#4F6FDF"/>
<path d="M214.201 75.2842C214.201 77.7686 212.208 79.7847 209.748 79.7847H160.317C157.857 79.7847 155.863 77.7717 155.863 75.2842V51.1196C155.863 48.6353 157.857 46.6191 160.317 46.6191H209.748C212.208 46.6191 214.201 48.6321 214.201 51.1196V75.2842Z" fill="#5070E0"/>
<path d="M214.185 75.2712C214.185 77.7556 212.192 79.7685 209.732 79.7685H160.317C157.857 79.7685 155.863 77.7556 155.863 75.2712V51.1193C155.863 48.635 157.857 46.6221 160.317 46.6221H209.732C212.192 46.6221 214.185 48.635 214.185 51.1193V75.2712Z" fill="#5171E1"/>
<path d="M214.172 75.2553C214.172 77.7364 212.179 79.7494 209.722 79.7494H160.32C157.862 79.7494 155.869 77.7364 155.869 75.2553V51.1161C155.869 48.635 157.862 46.6221 160.32 46.6221H209.722C212.179 46.6221 214.172 48.635 214.172 51.1161V75.2553Z" fill="#5271E2"/>
<path d="M214.156 75.2394C214.156 77.7205 212.162 79.7303 209.705 79.7303H160.316C157.858 79.7303 155.865 77.7205 155.865 75.2394V51.1129C155.865 48.6318 157.858 46.6221 160.316 46.6221H209.705C212.162 46.6221 214.156 48.6318 214.156 51.1129V75.2394Z" fill="#5372E3"/>
<path d="M214.141 75.2237C214.141 77.7049 212.148 79.7146 209.69 79.7146H160.314C157.857 79.7146 155.863 77.7049 155.863 75.2237V51.11C155.863 48.6289 157.857 46.6191 160.314 46.6191H209.69C212.148 46.6191 214.141 48.6289 214.141 51.11V75.2237Z" fill="#5373E4"/>
<path d="M214.124 75.2078C214.124 77.6857 212.134 79.6955 209.676 79.6955H160.313C157.855 79.6955 155.865 77.6857 155.865 75.2078V51.1068C155.865 48.6289 157.855 46.6191 160.313 46.6191H209.676C212.134 46.6191 214.124 48.6289 214.124 51.1068V75.2078Z" fill="#5473E5"/>
<path d="M214.109 75.1955C214.109 77.6735 212.119 79.68 209.662 79.68H160.311C157.853 79.68 155.863 77.6735 155.863 75.1955V51.1105C155.863 48.6325 157.853 46.626 160.311 46.626H209.662C212.119 46.626 214.109 48.6325 214.109 51.1105V75.1955Z" fill="#5574E6"/>
<path d="M214.093 75.1796C214.093 77.6544 212.103 79.6609 209.649 79.6609H160.313C157.859 79.6609 155.869 77.6544 155.869 75.1796V51.1073C155.869 48.6325 157.859 46.626 160.313 46.626H209.649C212.103 46.626 214.093 48.6325 214.093 51.1073V75.1796Z" fill="#5675E6"/>
<path d="M214.076 75.163C214.076 77.6377 212.086 79.6443 209.632 79.6443H160.309C157.855 79.6443 155.865 77.6377 155.865 75.163V51.1034C155.865 48.6286 157.855 46.6221 160.309 46.6221H209.632C212.086 46.6221 214.076 48.6286 214.076 51.1034V75.163Z" fill="#5776E7"/>
<path d="M214.061 75.147C214.061 77.6218 212.071 79.6252 209.617 79.6252H160.308C157.853 79.6252 155.863 77.6218 155.863 75.147V51.1002C155.863 48.6254 157.853 46.6221 160.308 46.6221H209.617C212.071 46.6221 214.061 48.6254 214.061 51.1002V75.147Z" fill="#5876E8"/>
<path d="M214.044 75.135C214.044 77.6066 212.054 79.61 209.603 79.61H160.306C157.852 79.61 155.865 77.6066 155.865 75.135V51.1009C155.865 48.6293 157.855 46.626 160.306 46.626H209.603C212.057 46.626 214.044 48.6293 214.044 51.1009V75.135Z" fill="#5877E9"/>
<path d="M214.03 75.1191C214.03 77.5907 212.043 79.5908 209.589 79.5908H160.304C157.85 79.5908 155.863 77.5875 155.863 75.1191V51.0977C155.863 48.6262 157.85 46.626 160.304 46.626H209.589C212.043 46.626 214.03 48.6293 214.03 51.0977V75.1191Z" fill="#5978EA"/>
<path d="M214.013 75.1024C214.013 77.5708 212.026 79.5742 209.572 79.5742H160.3C157.849 79.5742 155.859 77.574 155.859 75.1024V51.0938C155.859 48.6254 157.846 46.6221 160.3 46.6221H209.572C212.023 46.6221 214.013 48.6223 214.013 51.0938V75.1024Z" fill="#5A78EB"/>
<path d="M213.997 75.0865C213.997 77.5549 212.01 79.5551 209.559 79.5551H160.303C157.852 79.5551 155.865 77.5549 155.865 75.0865V51.0906C155.865 48.6223 157.852 46.6221 160.303 46.6221H209.559C212.01 46.6221 213.997 48.6223 213.997 51.0906V75.0865Z" fill="#5B79EC"/>
<path d="M213.982 75.0706C213.982 77.5358 211.995 79.536 209.544 79.536H160.301C157.85 79.536 155.863 77.5358 155.863 75.0706V51.0875C155.863 48.6223 157.85 46.6221 160.301 46.6221H209.544C211.995 46.6221 213.982 48.6223 213.982 51.0875V75.0706Z" fill="#5C7AED"/>
<path d="M213.965 75.0586C213.965 77.5238 211.978 79.5208 209.53 79.5208H160.3C157.849 79.5208 155.865 77.5238 155.865 75.0586V51.0882C155.865 48.623 157.852 46.626 160.3 46.626H209.53C211.981 46.626 213.965 48.623 213.965 51.0882V75.0586Z" fill="#5D7BEE"/>
<path d="M213.952 75.0419C213.952 77.5071 211.965 79.5041 209.517 79.5041H160.3C157.852 79.5041 155.865 77.5071 155.865 75.0419V51.0843C155.865 48.6191 157.852 46.6221 160.3 46.6221H209.517C211.965 46.6221 213.952 48.6191 213.952 51.0843V75.0419Z" fill="#5D7BEF"/>
<path d="M213.937 75.026C213.937 77.488 211.954 79.485 209.503 79.485H160.298C157.85 79.485 155.863 77.488 155.863 75.026V51.0811C155.863 48.6191 157.847 46.6221 160.298 46.6221H209.503C211.951 46.6221 213.937 48.6191 213.937 51.0811V75.026Z" fill="#5E7CF0"/>
<path d="M213.921 75.0101C213.921 77.4721 211.937 79.4659 209.49 79.4659H160.301C157.853 79.4659 155.869 77.4721 155.869 75.0101V51.0779C155.869 48.6159 157.853 46.6221 160.301 46.6221H209.49C211.937 46.6221 213.921 48.6159 213.921 51.0779V75.0101Z" fill="#5F7DF1"/>
<path d="M213.904 74.9942C213.904 77.453 211.921 79.4468 209.473 79.4468H160.297C157.849 79.4468 155.865 77.453 155.865 74.9942V51.0747C155.865 48.6159 157.849 46.6221 160.297 46.6221H209.473C211.921 46.6221 213.904 48.6159 213.904 51.0747V74.9942Z" fill="#607DF2"/>
<path d="M213.89 74.9814C213.89 77.4402 211.906 79.4341 209.458 79.4341H160.295C157.847 79.4341 155.863 77.4402 155.863 74.9814V51.0747C155.863 48.6159 157.847 46.6221 160.295 46.6221H209.458C211.906 46.6221 213.89 48.6159 213.89 51.0747V74.9814Z" fill="#617EF3"/>
<path d="M213.873 74.9655C213.873 77.4243 211.889 79.415 209.444 79.415H160.294C157.849 79.415 155.865 77.4243 155.865 74.9655V51.0715C155.865 48.6127 157.849 46.6221 160.294 46.6221H209.444C211.889 46.6221 213.873 48.6127 213.873 51.0715V74.9655Z" fill="#627FF4"/>
<path d="M213.858 74.9496C213.858 77.4052 211.874 79.3958 209.43 79.3958H160.292C157.847 79.3958 155.863 77.4052 155.863 74.9496V51.0683C155.863 48.6127 157.847 46.6221 160.292 46.6221H209.43C211.874 46.6221 213.858 48.6127 213.858 51.0683V74.9496Z" fill="#6280F5"/>
<path d="M213.841 74.9336C213.841 77.3893 211.86 79.3767 209.416 79.3767H160.29C157.846 79.3767 155.865 77.3861 155.865 74.9336V51.0652C155.865 48.6095 157.846 46.6221 160.29 46.6221H209.416C211.86 46.6221 213.841 48.6127 213.841 51.0652V74.9336Z" fill="#6380F6"/>
<path d="M213.825 74.918C213.825 77.3704 211.844 79.3611 209.4 79.3611H160.29C157.846 79.3611 155.865 77.3736 155.865 74.918V51.0622C155.865 48.6098 157.846 46.6191 160.29 46.6191H209.4C211.844 46.6191 213.825 48.6066 213.825 51.0622V74.918Z" fill="#6481F7"/>
<path d="M213.81 74.905C213.81 77.3574 211.83 79.3449 209.385 79.3449H160.288C157.844 79.3449 155.863 77.3574 155.863 74.905V51.062C155.863 48.6095 157.844 46.6221 160.288 46.6221H209.385C211.83 46.6221 213.81 48.6095 213.81 51.062V74.905Z" fill="#6582F8"/>
<path d="M213.793 74.889C213.793 77.3383 211.813 79.3258 209.371 79.3258H160.287C157.846 79.3258 155.865 77.3383 155.865 74.889V51.0588C155.865 48.6095 157.846 46.6221 160.287 46.6221H209.371C211.813 46.6221 213.793 48.6095 213.793 51.0588V74.889Z" fill="#6682F9"/>
<path d="M213.779 74.8731C213.779 77.3224 211.798 79.3067 209.357 79.3067H160.285C157.844 79.3067 155.863 77.3224 155.863 74.8731V51.0556C155.863 48.6063 157.844 46.6221 160.285 46.6221H209.357C211.798 46.6221 213.779 48.6063 213.779 51.0556V74.8731Z" fill="#6783FA"/>
<path d="M213.762 74.8575C213.762 77.3067 211.781 79.291 209.34 79.291H160.281C157.84 79.291 155.859 77.3067 155.859 74.8575V51.0527C155.859 48.6034 157.84 46.6191 160.281 46.6191H209.34C211.781 46.6191 213.762 48.6034 213.762 51.0527V74.8575Z" fill="#6784FB"/>
<path d="M213.749 74.8415C213.749 77.2876 211.771 79.2719 209.33 79.2719H160.284C157.843 79.2719 155.865 77.2876 155.865 74.8415V51.0495C155.865 48.6034 157.843 46.6191 160.284 46.6191H209.33C211.771 46.6191 213.749 48.6034 213.749 51.0495V74.8415Z" fill="#6885FC"/>
<path d="M209.314 46.6221H160.284C157.844 46.6221 155.865 48.6042 155.865 51.0492V74.8285C155.865 77.2736 157.844 79.2557 160.284 79.2557H209.314C211.754 79.2557 213.733 77.2736 213.733 74.8285V51.0492C213.733 48.6042 211.754 46.6221 209.314 46.6221Z" fill="#6985FD"/>
<path d="M160.281 46.6221H209.298C211.736 46.6221 213.714 48.6063 213.714 51.0461V74.8094C213.714 77.2523 211.733 79.2334 209.298 79.2334H160.281C157.843 79.2334 155.865 77.2491 155.865 74.8094V51.0461C155.865 48.6031 157.846 46.6221 160.281 46.6221Z" fill="#6A86FE"/>
<path d="M160.281 86.6221H209.298C211.736 86.6221 213.714 88.6063 213.714 91.0461V114.809C213.714 117.252 211.733 119.233 209.298 119.233H160.281C157.843 119.233 155.865 117.249 155.865 114.809V91.0461C155.865 88.6031 157.846 86.6221 160.281 86.6221Z" fill="#6A86FE"/>
<path d="M150.16 132.236C150.16 134.714 148.195 136.723 145.773 136.723H80.6573C78.2349 136.723 76.2734 134.714 76.2734 132.236V50.9447C76.2734 48.4668 78.2381 46.457 80.6573 46.457H145.776C148.199 46.457 150.163 48.4668 150.163 50.9447V132.236H150.16Z" fill="#4F39BC"/>
<path d="M150.134 132.204C150.134 134.679 148.169 136.688 145.75 136.688H80.6534C78.231 136.688 76.2695 134.682 76.2695 132.204V50.9415C76.2695 48.4668 78.231 46.457 80.6534 46.457H145.747C148.169 46.457 150.131 48.4636 150.131 50.9415V132.204H150.134Z" fill="#503ABD"/>
<path d="M150.106 132.169C150.106 134.644 148.145 136.65 145.722 136.65H80.6541C78.2349 136.65 76.2734 134.644 76.2734 132.169V50.9383C76.2734 48.4636 78.2349 46.457 80.6541 46.457H145.725C148.145 46.457 150.109 48.4636 150.109 50.9383V132.169H150.106Z" fill="#513BBE"/>
<path d="M150.08 132.137C150.08 134.609 148.118 136.615 145.699 136.615H80.6502C78.231 136.615 76.2695 134.612 76.2695 132.137V50.9352C76.2695 48.4636 78.231 46.457 80.6502 46.457H145.696C148.115 46.457 150.077 48.4604 150.077 50.9352V132.137H150.08Z" fill="#523CBF"/>
<path d="M150.052 132.102C150.052 134.574 148.09 136.577 145.671 136.577H80.6509C78.2317 136.577 76.2734 134.574 76.2734 132.102V50.932C76.2734 48.4604 78.2349 46.457 80.6509 46.457H145.671C148.09 46.457 150.052 48.4604 150.052 50.932V132.102Z" fill="#523DC0"/>
<path d="M150.023 132.07C150.023 134.539 148.061 136.542 145.645 136.542H80.647C78.231 136.542 76.2695 134.542 76.2695 132.07V50.9288C76.2695 48.4604 78.2278 46.457 80.647 46.457H145.645C148.064 46.457 150.023 48.4572 150.023 50.9288V132.07Z" fill="#533EC1"/>
<path d="M149.998 132.035C149.998 134.503 148.04 136.504 145.62 136.504H80.6478C78.2317 136.504 76.2734 134.503 76.2734 132.035V50.9256C76.2734 48.4572 78.2317 46.457 80.6478 46.457H145.62C148.036 46.457 149.998 48.4572 149.998 50.9256V132.035Z" fill="#543EC2"/>
<path d="M149.969 132.003C149.969 134.468 148.01 136.465 145.594 136.465H80.6439C78.2278 136.465 76.2695 134.468 76.2695 132.003V50.9224C76.2695 48.4572 78.2278 46.457 80.6439 46.457H145.594C148.01 46.457 149.969 48.4572 149.969 50.9224V132.003Z" fill="#553FC3"/>
<path d="M149.944 131.968C149.944 134.433 147.986 136.427 145.57 136.427H80.6446C78.2285 136.427 76.2734 134.43 76.2734 131.968V50.9192C76.2734 48.4572 78.2317 46.457 80.6446 46.457H145.57C147.986 46.457 149.944 48.454 149.944 50.9192V131.968Z" fill="#5640C4"/>
<path d="M149.915 131.936C149.915 134.398 147.956 136.392 145.543 136.392H80.6407C78.2278 136.392 76.2695 134.398 76.2695 131.936V50.916C76.2695 48.454 78.2278 46.457 80.6407 46.457H145.54C147.953 46.457 149.911 48.454 149.911 50.916V131.936H149.915Z" fill="#5741C5"/>
<path d="M149.887 131.901C149.887 134.36 147.932 136.354 145.516 136.354H80.6414C78.2285 136.354 76.2734 134.36 76.2734 131.901V50.9126C76.2734 48.4538 78.2285 46.46 80.6414 46.46H145.519C147.932 46.46 149.89 48.4538 149.89 50.9126V131.901H149.887Z" fill="#5742C6"/>
<path d="M149.86 131.866C149.86 134.325 147.905 136.316 145.493 136.316H80.6375C78.2246 136.316 76.2695 134.322 76.2695 131.866V50.9094C76.2695 48.4506 78.2246 46.46 80.6375 46.46H145.489C147.902 46.46 149.857 48.4538 149.857 50.9094V131.869L149.86 131.866Z" fill="#5843C7"/>
<path d="M149.833 131.834C149.833 134.29 147.878 136.28 145.465 136.28H80.6382C78.2285 136.28 76.2734 134.29 76.2734 131.834V50.9062C76.2734 48.4506 78.2285 46.46 80.6382 46.46H145.468C147.881 46.46 149.836 48.4506 149.836 50.9062V131.834H149.833Z" fill="#5944C8"/>
<path d="M149.803 131.799C149.803 134.255 147.848 136.242 145.438 136.242H80.6343C78.2246 136.242 76.2695 134.252 76.2695 131.799V50.9031C76.2695 48.4474 78.2246 46.46 80.6343 46.46H145.438C147.848 46.46 149.803 48.4506 149.803 50.9031V131.802V131.799Z" fill="#5A45C9"/>
<path d="M149.779 131.767C149.779 134.22 147.823 136.207 145.414 136.207H80.635C78.2253 136.207 76.2734 134.22 76.2734 131.767V50.8999C76.2734 48.4474 78.2253 46.46 80.635 46.46H145.414C147.823 46.46 149.779 48.4474 149.779 50.8999V131.767Z" fill="#5B46CA"/>
<path d="M149.749 131.732C149.749 134.185 147.797 136.169 145.388 136.169H80.6311C78.2214 136.169 76.2695 134.182 76.2695 131.732V50.8967C76.2695 48.4442 78.2214 46.46 80.6311 46.46H145.388C147.797 46.46 149.749 48.4474 149.749 50.8967V131.735V131.732Z" fill="#5C47CB"/>
<path d="M149.725 131.7C149.725 134.15 147.773 136.134 145.363 136.134H80.6319C78.2254 136.134 76.2734 134.15 76.2734 131.7V50.8935C76.2734 48.4442 78.2254 46.46 80.6319 46.46H145.363C147.769 46.46 149.725 48.4442 149.725 50.8935V131.7Z" fill="#5C47CC"/>
<path d="M149.695 131.665C149.695 134.111 147.743 136.096 145.337 136.096H80.628C78.2214 136.096 76.2695 134.111 76.2695 131.665V50.8903C76.2695 48.4442 78.2214 46.46 80.628 46.46H145.337C147.743 46.46 149.695 48.4442 149.695 50.8903V131.669V131.665Z" fill="#5D48CD"/>
<path d="M149.667 131.634C149.667 134.08 147.715 136.061 145.312 136.061H80.6287C78.2222 136.061 76.2734 134.08 76.2734 131.634V50.8871C76.2734 48.441 78.2222 46.46 80.6287 46.46H145.312C147.719 46.46 149.667 48.441 149.667 50.8871V131.634Z" fill="#5E49CE"/>
<path d="M149.641 131.599C149.641 134.041 147.692 136.022 145.286 136.022H80.6248C78.2214 136.022 76.2695 134.041 76.2695 131.599V50.8839C76.2695 48.441 78.2183 46.46 80.6248 46.46H145.283C147.689 46.46 149.638 48.441 149.638 50.8839V131.602L149.641 131.599Z" fill="#5F4ACF"/>
<path d="M149.613 131.567C149.613 134.01 147.665 135.987 145.261 135.987H80.6255C78.2222 135.987 76.2734 134.01 76.2734 131.567V50.8808C76.2734 48.4379 78.2222 46.46 80.6255 46.46H145.261C147.665 46.46 149.613 48.441 149.613 50.8808V131.567Z" fill="#604BD0"/>
<path d="M149.584 131.532C149.584 133.971 147.635 135.949 145.232 135.949H80.6216C78.2183 135.949 76.2695 133.971 76.2695 131.532V50.8776C76.2695 48.4379 78.2183 46.46 80.6216 46.46H145.232C147.635 46.46 149.584 48.4379 149.584 50.8776V131.535V131.532Z" fill="#614CD1"/>
<path d="M149.559 131.5C149.559 133.939 147.61 135.914 145.21 135.914H80.6223C78.219 135.914 76.2734 133.939 76.2734 131.5V50.8744C76.2734 48.4347 78.2222 46.46 80.6223 46.46H145.21C147.614 46.46 149.559 48.4379 149.559 50.8744V131.5Z" fill="#614DD1"/>
<path d="M149.53 131.465C149.53 133.902 147.581 135.876 145.181 135.876H80.6184C78.2183 135.876 76.2695 133.902 76.2695 131.465V50.8683C76.2695 48.4317 78.2151 46.457 80.6184 46.457H145.181C147.581 46.457 149.53 48.4317 149.53 50.8683V131.465Z" fill="#624ED2"/>
<path d="M149.505 131.433C149.505 133.866 147.56 135.841 145.159 135.841H80.6191C78.219 135.841 76.2734 133.866 76.2734 131.433V50.8651C76.2734 48.4317 78.219 46.457 80.6191 46.457H145.156C147.556 46.457 149.502 48.4317 149.502 50.8651V131.43L149.505 131.433Z" fill="#634FD3"/>
<path d="M149.476 131.398C149.476 133.831 147.53 135.803 145.13 135.803H80.6152C78.2151 135.803 76.2695 133.831 76.2695 131.398V50.8619C76.2695 48.4286 78.2151 46.457 80.6152 46.457H145.13C147.53 46.457 149.476 48.4286 149.476 50.8619V131.398Z" fill="#6450D4"/>
<path d="M149.448 131.366C149.448 133.796 147.502 135.768 145.105 135.768H80.616C78.2158 135.768 76.2734 133.796 76.2734 131.366V50.8587C76.2734 48.4286 78.219 46.457 80.616 46.457H145.105C147.506 46.457 149.448 48.4286 149.448 50.8587V131.363V131.366Z" fill="#6551D5"/>
<path d="M149.422 131.331C149.422 133.761 147.476 135.73 145.079 135.73H80.6121C78.2151 135.73 76.2695 133.761 76.2695 131.331V50.8555C76.2695 48.4254 78.2119 46.457 80.6121 46.457H145.079C147.476 46.457 149.422 48.4254 149.422 50.8555V131.331Z" fill="#6551D6"/>
<path d="M149.394 131.296C149.394 133.723 147.452 135.691 145.055 135.691H80.6128C78.2158 135.691 76.2734 133.723 76.2734 131.296V50.8523C76.2734 48.4254 78.2158 46.457 80.6128 46.457H145.055C147.452 46.457 149.394 48.4254 149.394 50.8523V131.296Z" fill="#6652D7"/>
<path d="M149.365 131.264C149.365 133.691 147.422 135.656 145.025 135.656H80.6089C78.2119 135.656 76.2695 133.691 76.2695 131.264V50.8492C76.2695 48.4222 78.2119 46.457 80.6089 46.457H145.025C147.422 46.457 149.365 48.4222 149.365 50.8492V131.264Z" fill="#6753D8"/>
<path d="M149.34 131.229C149.34 133.653 147.397 135.618 145.004 135.618H80.6096C78.2158 135.618 76.2734 133.653 76.2734 131.229V50.846C76.2734 48.4222 78.2158 46.457 80.6096 46.457H145.004C147.397 46.457 149.34 48.4222 149.34 50.846V131.229Z" fill="#6854D9"/>
<path d="M149.311 131.197C149.311 133.621 147.368 135.583 144.974 135.583H80.6057C78.2119 135.583 76.2695 133.621 76.2695 131.197V50.8428C76.2695 48.4222 78.2087 46.457 80.6057 46.457H144.974C147.368 46.457 149.311 48.419 149.311 50.8428V131.197Z" fill="#6955DA"/>
<path d="M149.286 131.162C149.286 133.583 147.347 135.545 144.953 135.545H80.6064C78.2126 135.545 76.2734 133.583 76.2734 131.162V50.8396C76.2734 48.419 78.2126 46.457 80.6064 46.457H144.953C147.347 46.457 149.286 48.419 149.286 50.8396V131.162Z" fill="#6A56DB"/>
<path d="M149.256 131.131C149.256 133.548 147.317 135.51 144.923 135.51H80.6025C78.2087 135.51 76.2695 133.551 76.2695 131.131V50.8364C76.2695 48.419 78.2087 46.457 80.6025 46.457H144.923C147.317 46.457 149.256 48.419 149.256 50.8364V131.131Z" fill="#6A57DC"/>
<path d="M149.229 131.096C149.229 133.513 147.289 135.472 144.899 135.472H80.6033C78.2126 135.472 76.2734 133.513 76.2734 131.096V50.8332C76.2734 48.4158 78.2126 46.457 80.6033 46.457H144.899C147.289 46.457 149.229 48.4158 149.229 50.8332V131.096Z" fill="#6B58DD"/>
<path d="M149.203 131.064C149.203 133.478 147.264 135.437 144.873 135.437H80.6001C78.2095 135.437 76.2734 133.481 76.2734 131.064V50.8301C76.2734 48.4158 78.2126 46.457 80.6001 46.457H144.873C147.264 46.457 149.203 48.4158 149.203 50.8301V131.064Z" fill="#6C59DE"/>
<path d="M149.175 131.029C149.175 133.443 147.235 135.398 144.848 135.398H80.6001C78.2095 135.398 76.2734 133.443 76.2734 131.029V50.8269C76.2734 48.4126 78.2095 46.457 80.6001 46.457H144.848C147.239 46.457 149.175 48.4126 149.175 50.8269V131.029Z" fill="#6D5ADF"/>
<path d="M149.146 130.997C149.146 133.408 147.21 135.363 144.819 135.363H80.5969C78.2095 135.363 76.2734 133.408 76.2734 130.997V50.8237C76.2734 48.4126 78.2095 46.457 80.5969 46.457H144.822C147.21 46.457 149.149 48.4126 149.149 50.8237V130.997H149.146Z" fill="#6E5AE0"/>
<path d="M149.121 130.962C149.121 133.373 147.184 135.325 144.797 135.325H80.5969C78.2095 135.325 76.2734 133.373 76.2734 130.962V50.8205C76.2734 48.4126 78.2095 46.457 80.5969 46.457H144.797C147.184 46.457 149.121 48.4094 149.121 50.8205V130.962Z" fill="#6F5BE1"/>
<path d="M149.092 130.93C149.092 133.338 147.156 135.29 144.768 135.29H80.5937C78.2063 135.29 76.2734 133.338 76.2734 130.93V50.8173C76.2734 48.4094 78.2095 46.457 80.5937 46.457H144.768C147.156 46.457 149.092 48.4094 149.092 50.8173V130.93Z" fill="#6F5CE2"/>
<path d="M149.066 130.895C149.066 133.3 147.13 135.252 144.745 135.252H80.5898C78.2024 135.252 76.2695 133.303 76.2695 130.895V50.8141C76.2695 48.4094 78.2024 46.457 80.5898 46.457H144.742C147.13 46.457 149.063 48.4063 149.063 50.8141V130.895H149.066Z" fill="#705DE3"/>
<path d="M149.038 130.863C149.038 133.268 147.105 135.217 144.718 135.217H80.5905C78.2063 135.217 76.2734 133.268 76.2734 130.863V50.8109C76.2734 48.4063 78.2063 46.457 80.5905 46.457H144.718C147.102 46.457 149.038 48.4063 149.038 50.8109V130.863Z" fill="#715EE4"/>
<path d="M149.009 130.828C149.009 133.229 147.076 135.179 144.691 135.179H80.5866C78.2024 135.179 76.2695 133.233 76.2695 130.828V50.8078C76.2695 48.4063 78.2024 46.457 80.5866 46.457H144.691C147.076 46.457 149.009 48.4031 149.009 50.8078V130.828Z" fill="#725FE5"/>
<path opacity="0.3" d="M147.731 47.7188C147.731 47.7188 146.87 46.4702 144.902 46.4639H80.1455C80.1455 46.4639 76.6454 46.7027 76.2734 50.3655V131.52C76.2734 131.52 76.4038 133.176 77.6309 133.994C77.6309 133.994 76.8361 132.771 76.8838 131.574V50.4165C76.8838 50.4165 77.2176 47.2251 80.4316 47.1264H145.236C145.236 47.1264 146.816 47.1646 147.728 47.7188H147.731Z" fill="white"/>
<path d="M200.054 36.933C200.054 38.0318 199.164 38.9205 198.067 38.9205C196.97 38.9205 196.08 38.0287 196.08 36.933C196.08 35.8374 196.97 34.9424 198.067 34.9424C199.164 34.9424 200.054 35.8342 200.054 36.933Z" fill="url(#paint1_radial_816_59669)"/>
<path d="M206.176 36.933C206.176 38.0318 205.286 38.9205 204.189 38.9205C203.092 38.9205 202.205 38.0287 202.205 36.933C202.205 35.8374 203.092 34.9424 204.189 34.9424C205.286 34.9424 206.176 35.8342 206.176 36.933Z" fill="url(#paint2_radial_816_59669)"/>
<path d="M212.299 36.933C212.299 38.0318 211.409 38.9205 210.315 38.9205C209.221 38.9205 208.328 38.0287 208.328 36.933C208.328 35.8374 209.218 34.9424 210.315 34.9424C211.412 34.9424 212.299 35.8342 212.299 36.933Z" fill="url(#paint3_radial_816_59669)"/>
<path opacity="0.3" d="M212.937 48.5336C212.937 48.5336 211.802 46.7118 209.427 46.6162H159.781C159.781 46.6162 156.389 46.8551 155.867 50.6516V75.9788C155.867 75.9788 156.122 77.5299 157.543 78.2816C157.543 78.2816 156.42 77.014 156.325 76.0043V50.8204C156.325 50.8204 156.662 47.3615 159.936 47.0717H209.523C209.523 47.0717 211.36 46.992 212.937 48.5336Z" fill="white"/>
<path d="M170.569 93.1892C176.317 99.5751 181.511 104.267 182.172 103.668C182.834 103.069 178.714 97.4093 172.966 91.0234C167.218 84.6374 162.024 79.9459 161.363 80.5447C160.701 81.1434 164.821 86.8032 170.569 93.1892Z" fill="url(#paint4_linear_816_59669)"/>
<path d="M173.4 72.5796L157.021 87.3103C157.021 87.3103 153.315 90.1864 150.206 90.4252C150.206 90.4252 143.631 88.8678 140.761 92.4605C140.761 92.4605 137.534 95.2155 140.042 99.2859C140.042 99.2859 142.195 103.118 145.66 101.442C145.66 101.442 147.691 100.722 148.05 98.6872C148.05 98.6872 146.137 104.315 130.836 110.185C130.836 110.185 140.758 130.187 148.769 134.617C148.769 134.617 162.995 123.718 165.385 116.052C165.385 116.052 168.202 112.032 170.354 109.612L190.916 92.6643L173.393 72.5732L173.4 72.5796Z" fill="url(#paint5_linear_816_59669)"/>
<g filter="url(#filter1_d_816_59669)">
<path d="M117.982 93.1892C112.234 99.5751 107.039 104.267 106.378 103.668C105.717 103.069 109.837 97.4093 115.585 91.0234C121.332 84.6374 126.527 79.9459 127.188 80.5447C127.849 81.1434 123.729 86.8032 117.982 93.1892Z" fill="url(#paint6_linear_816_59669)"/>
<path d="M112.811 71.6465L131.081 86.8485C131.081 86.8485 132.474 88.0875 133.841 87.9506C135.427 87.8295 138.914 87.6352 141.642 88.0397C149.024 89.1322 150 90.7343 150.616 91.2088C151.071 91.556 142.424 93.8078 142.936 94.2027C148.963 98.8529 153.338 103.599 158.605 109.265C158.605 109.265 167.405 117.848 166.289 122.199C166.289 122.199 165.643 127.254 160.023 125.368C160.023 125.368 161.005 128.034 159.305 130.875C159.305 130.875 156.259 133.761 151.688 131.123C151.688 131.123 154.018 133.834 151.859 136.42C151.859 136.42 149.078 139.207 145.317 136.633C145.317 136.633 146.302 139.389 143.13 141.108C143.13 141.108 139.766 142.564 136.654 137.812C136.654 137.812 125.543 130.458 119.691 115.905C119.691 115.905 119.322 115.877 117.17 109.29L95.3301 89.9953L112.818 71.6529L112.811 71.6465Z" fill="url(#paint7_linear_816_59669)"/>
<path d="M120.39 71.7196L107.678 59.9924C107.296 59.642 106.816 59.4668 106.33 59.4573C106.209 59.4286 106.053 59.4445 105.859 59.5019C105.544 59.5688 105.242 59.7025 104.972 59.9096C102.629 61.2536 98.0579 65.3527 93.2036 70.5825C87.3351 76.908 83.0848 82.7015 83.0593 84.3099C82.9799 84.9565 83.1897 85.6222 83.6951 86.0872L96.408 97.8144C97.2504 98.5947 98.5888 98.5151 99.3931 97.6392L120.46 74.7103C121.265 73.8344 121.233 72.4935 120.39 71.7164V71.7196Z" fill="url(#paint8_linear_816_59669)"/>
<path d="M120.206 74.2711C120.206 74.2711 120.19 74.2424 120.181 74.2297C120.168 74.2201 120.152 74.2137 120.136 74.2074L120.104 74.1787L120.095 74.1883C119.164 73.9526 114.128 78.539 108.574 84.7084C102.897 91.0179 98.8083 96.6171 99.3487 97.3242L99.3424 97.3306L106.435 103.717C106.435 103.717 105.805 102.936 116.779 90.4478C120.867 85.7976 126.736 80.1442 127.194 80.5583L120.203 74.2647L120.206 74.2711Z" fill="url(#paint9_linear_816_59669)"/>
</g>
<g filter="url(#filter2_d_816_59669)">
<path d="M125.385 114.119C127.083 115.995 126.943 118.893 125.07 120.597L122.215 123.193C120.343 124.894 117.45 124.753 115.749 122.881C114.052 121.005 114.192 118.106 116.064 116.402L118.919 113.807C120.791 112.106 123.684 112.246 125.385 114.119Z" fill="url(#paint10_linear_816_59669)"/>
<path d="M131.876 121.129C133.662 123.104 133.516 126.155 131.545 127.945L128.541 130.674C126.57 132.464 123.528 132.318 121.738 130.343C119.951 128.368 120.097 125.317 122.068 123.527L125.073 120.798C127.044 119.008 130.089 119.154 131.876 121.129Z" fill="url(#paint11_linear_816_59669)"/>
<path d="M137.855 127.961C139.4 129.668 139.273 132.302 137.569 133.85L134.975 136.21C133.274 137.758 130.639 137.63 129.094 135.923C127.549 134.219 127.676 131.582 129.38 130.034L131.974 127.674C133.678 126.126 136.307 126.254 137.852 127.961H137.855Z" fill="url(#paint12_linear_816_59669)"/>
<path d="M143.988 132.445C145.323 133.92 145.215 136.203 143.74 137.544L141.492 139.586C140.021 140.927 137.741 140.815 136.403 139.337C135.068 137.863 135.176 135.579 136.651 134.241L138.898 132.2C140.37 130.859 142.65 130.97 143.985 132.448L143.988 132.445Z" fill="url(#paint13_linear_816_59669)"/>
</g>
<path d="M168.158 71.7196L180.871 59.9924C181.253 59.642 181.733 59.4668 182.219 59.4573C182.34 59.4286 182.496 59.4445 182.689 59.5019C183.004 59.5688 183.306 59.7025 183.576 59.9096C185.919 61.2536 190.491 65.3527 195.345 70.5825C201.214 76.908 205.464 82.7015 205.489 84.3099C205.569 84.9565 205.359 85.6222 204.854 86.0872L192.141 97.8144C191.298 98.5947 189.96 98.5151 189.156 97.6392L168.085 74.7103C167.281 73.8344 167.313 72.4935 168.155 71.7164L168.158 71.7196Z" fill="url(#paint14_linear_816_59669)"/>
<path d="M168.343 74.2711C168.343 74.2711 168.359 74.2424 168.368 74.2297C168.381 74.2201 168.397 74.2137 168.413 74.2074L168.445 74.1787L168.454 74.1883C169.386 73.9526 174.421 78.539 179.975 84.7084C185.653 91.0179 189.741 96.6171 189.2 97.3242L189.207 97.3306L182.114 103.717C182.114 103.717 182.744 102.936 171.77 90.4478C167.682 85.7976 161.813 80.1442 161.355 80.5583L168.346 74.2647L168.343 74.2711Z" fill="url(#paint15_linear_816_59669)"/>
<g filter="url(#filter3_d_816_59669)">
<path d="M155.099 88.5938C155.099 88.5938 151.205 90.4315 147.352 90.0716C147.352 90.0716 141.747 89.425 139.147 92.3871C139.147 92.3871 135.554 95.1167 137.847 99.5916C137.847 99.5916 140.088 103.273 144.662 100.76C144.662 100.76 145.648 100.311 147.085 98.3335C147.085 98.3335 147.781 97.9545 148.541 98.4928" fill="url(#paint16_linear_816_59669)"/>
</g>
<path d="M197.681 154.956H227.183C227.183 154.956 231.786 155.555 232.056 150.478V113.707C232.056 113.707 231.557 108.633 235.861 107.627H201.334C201.334 107.627 197.545 107.923 197.681 113.895V148.736" fill="url(#paint17_linear_816_59669)"/>
<path d="M198.041 154.956H228.35C228.35 154.956 225.349 154.874 225.848 149.434H195.657C195.657 149.434 194.738 154.061 198.038 154.956H198.041Z" fill="url(#paint18_linear_816_59669)"/>
<path d="M227.618 154.979C227.618 154.979 232.142 155.641 232.227 150.985V114.207C231.852 109.156 236.099 107.627 236.099 107.627H235.34C235.34 107.627 231.258 109.047 231.512 114.462V150.615C231.512 150.615 231.735 155.154 227.373 154.714C227.373 154.714 227.418 154.979 227.618 154.979Z" fill="#6F8BEF"/>
<path opacity="0.5" d="M235.327 107.627H201.334C201.334 107.627 197.37 108.471 197.675 113.602V149.433H198.482L198.441 113.077C198.441 113.077 198.571 108.735 201.814 108.181H234.313L235.327 107.627Z" fill="white"/>
<path d="M240.45 110.742C239.156 109.761 237.316 110.019 236.34 111.315L233.669 114.857L216.967 137.003L221.646 140.544L238.349 118.399L241.019 114.857C241.995 113.561 241.741 111.72 240.447 110.742H240.45Z" fill="url(#paint19_linear_816_59669)"/>
<path d="M216.969 137.003L214.902 139.745C213.923 141.042 213.17 143.87 214.496 145.157C216.206 146.131 218.606 144.583 219.582 143.287L221.652 140.545L216.972 137.003H216.969Z" fill="#E7DDF2"/>
<path d="M232.194 131.008C231.997 131.266 231.571 131.269 231.237 131.014C230.903 130.759 230.785 130.349 230.983 130.091L240.214 117.847C240.408 117.593 240.834 117.589 241.171 117.841C241.505 118.096 241.62 118.507 241.426 118.765L232.197 131.005L232.194 131.008Z" fill="#F2EDF7"/>
<path d="M240.215 117.848L237.898 120.921L236.982 120.211L239.271 117.179L240.215 117.848Z" fill="url(#paint20_linear_816_59669)"/>
<path d="M217.252 125.418C217.252 133.021 211.101 139.187 203.509 139.187C195.918 139.187 189.77 133.024 189.77 125.418C189.77 117.812 195.921 111.649 203.509 111.649C211.098 111.649 217.252 117.812 217.252 125.418Z" fill="url(#paint21_linear_816_59669)"/>
<path d="M201.824 131.684C201.315 131.684 200.825 131.48 200.466 131.12L195.802 126.435C195.055 125.683 195.059 124.469 195.809 123.721C196.559 122.973 197.77 122.976 198.517 123.724L201.808 127.033L208.035 120.635C208.776 119.877 209.987 119.861 210.744 120.6C211.5 121.339 211.516 122.555 210.779 123.313L203.194 131.104C202.838 131.47 202.345 131.68 201.833 131.684H201.824Z" fill="white"/>
<g style="mix-blend-mode:multiply" opacity="0.75">
<path d="M201.824 131.684C201.315 131.684 200.825 131.48 200.466 131.12L195.802 126.435C195.055 125.683 195.059 124.469 195.809 123.721C196.559 122.973 197.77 122.976 198.517 123.724L201.808 127.033L208.035 120.635C208.776 119.877 209.987 119.861 210.744 120.6C211.5 121.339 211.516 122.555 210.779 123.313L203.194 131.104C202.838 131.47 202.345 131.68 201.833 131.684H201.824Z" fill="#C9C9C9"/>
</g>
<path opacity="0.7" d="M206.962 112.089C206.962 112.089 198.853 109.325 192.587 117.067C192.587 117.067 188.152 121.746 190.457 129.731C190.457 129.731 189.316 121.784 193.522 117.042C193.522 117.042 197.39 111.471 206.962 112.092V112.089Z" fill="white"/>
<path d="M80.3453 101.862H73.9023V127.471H80.3453V101.862Z" fill="#F2A2F9"/>
<path d="M82.0001 101.862H80.3457V127.471H82.0001V101.862Z" fill="#DC5ED9"/>
<path d="M69.73 108.561H63.2871V127.47H69.73V108.561Z" fill="#83E7CD"/>
<path d="M71.379 108.561H69.7246V127.47H71.379V108.561Z" fill="#48BC9B"/>
<path d="M59.6695 115.255H53.2266V127.474H59.6695V115.255Z" fill="#78C2FF"/>
<path d="M61.3243 115.255H59.6699V127.474H61.3243V115.255Z" fill="#407EE2"/>
<path d="M77.4377 93.8256L52.248 107.965L53.0701 109.435L78.2598 95.2957L77.4377 93.8256Z" fill="#DB9C58"/>
<path d="M77.1896 93.3812L52 107.521L52.8221 108.991L78.0117 94.8514L77.1896 93.3812Z" fill="#FFEA85"/>
<path d="M77.5236 94.1545L78.5714 96.0284L79.6652 94.1867L80.7589 92.3404L78.6174 92.3128L76.4805 92.2852L77.5236 94.1545Z" fill="#FFEA85"/>
<path d="M80.7597 92.3398L81.0033 92.7818L78.9215 96.6494L78.5723 96.0278L80.7597 92.3398Z" fill="#DB9C58"/>
<path opacity="0.5" d="M77.2524 93.4734L76.6366 92.373L80.6577 92.3961L76.9629 92.5296L77.5603 93.5978H77.5557V93.6024L52.1931 107.843L52.0645 107.613L77.2524 93.4734Z" fill="white"/>
<defs>
<filter id="filter0_d_816_59669" x="67.6035" y="41.1348" width="154.645" height="107.761" filterUnits="userSpaceOnUse" color-interpolation-filters="sRGB">
<feFlood flood-opacity="0" result="BackgroundImageFix"/>
<feColorMatrix in="SourceAlpha" type="matrix" values="0 0 0 0 0 0 0 0 0 0 0 0 0 0 0 0 0 0 127 0" result="hardAlpha"/>
<feOffset dy="4"/>
<feGaussianBlur stdDeviation="2"/>
<feComposite in2="hardAlpha" operator="out"/>
<feColorMatrix type="matrix" values="0 0 0 0 0 0 0 0 0 0 0 0 0 0 0 0 0 0 0.25 0"/>
<feBlend mode="normal" in2="BackgroundImageFix" result="effect1_dropShadow_816_59669"/>
<feBlend mode="normal" in="SourceGraphic" in2="effect1_dropShadow_816_59669" result="shape"/>
</filter>
<filter id="filter1_d_816_59669" x="76.043" y="56.4434" width="91.3438" height="89.875" filterUnits="userSpaceOnUse" color-interpolation-filters="sRGB">
<feFlood flood-opacity="0" result="BackgroundImageFix"/>
<feColorMatrix in="SourceAlpha" type="matrix" values="0 0 0 0 0 0 0 0 0 0 0 0 0 0 0 0 0 0 127 0" result="hardAlpha"/>
<feOffset dx="-3" dy="1"/>
<feGaussianBlur stdDeviation="2"/>
<feComposite in2="hardAlpha" operator="out"/>
<feColorMatrix type="matrix" values="0 0 0 0 0 0 0 0 0 0 0 0 0 0 0 0 0 0 0.22 0"/>
<feBlend mode="normal" in2="BackgroundImageFix" result="effect1_dropShadow_816_59669"/>
<feBlend mode="normal" in="SourceGraphic" in2="effect1_dropShadow_816_59669" result="shape"/>
</filter>
<filter id="filter2_d_816_59669" x="114.562" y="112.617" width="38.3594" height="36.9062" filterUnits="userSpaceOnUse" color-interpolation-filters="sRGB">
<feFlood flood-opacity="0" result="BackgroundImageFix"/>
<feColorMatrix in="SourceAlpha" type="matrix" values="0 0 0 0 0 0 0 0 0 0 0 0 0 0 0 0 0 0 127 0" result="hardAlpha"/>
<feOffset dx="4" dy="5"/>
<feGaussianBlur stdDeviation="2"/>
<feComposite in2="hardAlpha" operator="out"/>
<feColorMatrix type="matrix" values="0 0 0 0 0 0 0 0 0 0 0 0 0 0 0 0 0 0 0.22 0"/>
<feBlend mode="normal" in2="BackgroundImageFix" result="effect1_dropShadow_816_59669"/>
<feBlend mode="normal" in="SourceGraphic" in2="effect1_dropShadow_816_59669" result="shape"/>
</filter>
<filter id="filter3_d_816_59669" x="132.082" y="85.5938" width="24.0176" height="19.0449" filterUnits="userSpaceOnUse" color-interpolation-filters="sRGB">
<feFlood flood-opacity="0" result="BackgroundImageFix"/>
<feColorMatrix in="SourceAlpha" type="matrix" values="0 0 0 0 0 0 0 0 0 0 0 0 0 0 0 0 0 0 127 0" result="hardAlpha"/>
<feOffset dx="-2"/>
<feGaussianBlur stdDeviation="1.5"/>
<feComposite in2="hardAlpha" operator="out"/>
<feColorMatrix type="matrix" values="0 0 0 0 0 0 0 0 0 0 0 0 0 0 0 0 0 0 0.14 0"/>
<feBlend mode="normal" in2="BackgroundImageFix" result="effect1_dropShadow_816_59669"/>
<feBlend mode="normal" in="SourceGraphic" in2="effect1_dropShadow_816_59669" result="shape"/>
</filter>
<linearGradient id="paint0_linear_816_59669" x1="86.0362" y1="61.0538" x2="218.199" y2="124.718" gradientUnits="userSpaceOnUse">
<stop offset="0.27" stop-color="#F7F6FA"/>
<stop offset="1" stop-color="#D6D7FB"/>
</linearGradient>
<radialGradient id="paint1_radial_816_59669" cx="0" cy="0" r="1" gradientUnits="userSpaceOnUse" gradientTransform="translate(197.279 36.1845) scale(2.99781 3.00347)">
<stop offset="0.43" stop-color="#F4D63C"/>
<stop offset="1" stop-color="#E1A51B"/>
</radialGradient>
<radialGradient id="paint2_radial_816_59669" cx="0" cy="0" r="1" gradientUnits="userSpaceOnUse" gradientTransform="translate(203.404 36.1845) scale(2.99781 3.00347)">
<stop offset="0.4" stop-color="#FB6173"/>
<stop offset="0.74" stop-color="#DF3C59"/>
<stop offset="1" stop-color="#73384B"/>
</radialGradient>
<radialGradient id="paint3_radial_816_59669" cx="0" cy="0" r="1" gradientUnits="userSpaceOnUse" gradientTransform="translate(209.527 36.1845) scale(2.99781 3.00347)">
<stop offset="0.42" stop-color="#8CB8FA"/>
<stop offset="1" stop-color="#5386EB"/>
</radialGradient>
<linearGradient id="paint4_linear_816_59669" x1="166.048" y1="97.232" x2="171.871" y2="92.0257" gradientUnits="userSpaceOnUse">
<stop stop-color="#F2EEEE"/>
<stop offset="0.36" stop-color="#E0DDE8"/>
<stop offset="0.74" stop-color="#C4BFDD"/>
<stop offset="0.98" stop-color="#AFACD1"/>
</linearGradient>
<linearGradient id="paint5_linear_816_59669" x1="146.861" y1="88.0492" x2="167.607" y2="111.662" gradientUnits="userSpaceOnUse">
<stop stop-color="#F5E3D6"/>
<stop offset="0.36" stop-color="#F5DFCE"/>
<stop offset="0.63" stop-color="#EDCBB3"/>
<stop offset="0.95" stop-color="#E3AEA1"/>
</linearGradient>
<linearGradient id="paint6_linear_816_59669" x1="122.503" y1="97.2215" x2="116.678" y2="92.0176" gradientUnits="userSpaceOnUse">
<stop stop-color="#F2EEEE"/>
<stop offset="0.36" stop-color="#E0DDE8"/>
<stop offset="0.74" stop-color="#C4BFDD"/>
<stop offset="0.98" stop-color="#AFACD1"/>
</linearGradient>
<linearGradient id="paint7_linear_816_59669" x1="145.727" y1="92.7026" x2="115.285" y2="119.534" gradientUnits="userSpaceOnUse">
<stop stop-color="#F5E3D6"/>
<stop offset="0.37" stop-color="#F9BCAC"/>
<stop offset="0.74" stop-color="#F7A699"/>
<stop offset="0.95" stop-color="#E88075"/>
</linearGradient>
<linearGradient id="paint8_linear_816_59669" x1="115.698" y1="63.773" x2="89.4516" y2="91.1815" gradientUnits="userSpaceOnUse">
<stop offset="0.18" stop-color="#4D73ED"/>
<stop offset="0.47" stop-color="#418BED"/>
<stop offset="0.58" stop-color="#418BED"/>
<stop offset="1" stop-color="#4E4ED7"/>
</linearGradient>
<linearGradient id="paint9_linear_816_59669" x1="119.666" y1="80.6284" x2="100.704" y2="101.926" gradientUnits="userSpaceOnUse">
<stop stop-color="#F2EEEE"/>
<stop offset="0.36" stop-color="#E0DDE8"/>
<stop offset="0.74" stop-color="#C4BFDD"/>
<stop offset="0.98" stop-color="#AFACD1"/>
</linearGradient>
<linearGradient id="paint10_linear_816_59669" x1="116.905" y1="114.475" x2="123.336" y2="121.486" gradientUnits="userSpaceOnUse">
<stop stop-color="#F2DECD"/>
<stop offset="0.32" stop-color="#F2DECD"/>
<stop offset="0.67" stop-color="#F0C2A6"/>
<stop offset="1" stop-color="#EA9576"/>
</linearGradient>
<linearGradient id="paint11_linear_816_59669" x1="123.385" y1="122.497" x2="130.278" y2="128.967" gradientUnits="userSpaceOnUse">
<stop stop-color="#F2DECD"/>
<stop offset="0.32" stop-color="#F2DECD"/>
<stop offset="0.67" stop-color="#F0C2A6"/>
<stop offset="1" stop-color="#EA9576"/>
</linearGradient>
<linearGradient id="paint12_linear_816_59669" x1="130.516" y1="129.14" x2="136.474" y2="134.733" gradientUnits="userSpaceOnUse">
<stop stop-color="#F2DECD"/>
<stop offset="0.32" stop-color="#F2DECD"/>
<stop offset="0.67" stop-color="#F0C2A6"/>
<stop offset="1" stop-color="#EA9576"/>
</linearGradient>
<linearGradient id="paint13_linear_816_59669" x1="137.64" y1="133.463" x2="142.795" y2="138.304" gradientUnits="userSpaceOnUse">
<stop stop-color="#F2DECD"/>
<stop offset="0.32" stop-color="#F2DECD"/>
<stop offset="0.67" stop-color="#F0C2A6"/>
<stop offset="1" stop-color="#EA9576"/>
</linearGradient>
<linearGradient id="paint14_linear_816_59669" x1="174.5" y1="65.1011" x2="199.162" y2="91.4203" gradientUnits="userSpaceOnUse">
<stop stop-color="#EBCB79"/>
<stop offset="0.36" stop-color="#E6B25F"/>
<stop offset="0.74" stop-color="#E1A650"/>
<stop offset="0.98" stop-color="#D3802E"/>
</linearGradient>
<linearGradient id="paint15_linear_816_59669" x1="168.883" y1="80.6252" x2="187.848" y2="101.926" gradientUnits="userSpaceOnUse">
<stop stop-color="#F2EEEE"/>
<stop offset="0.45" stop-color="#E0DDE8"/>
<stop offset="0.74" stop-color="#C4BFDD"/>
<stop offset="1" stop-color="#AFACD1"/>
</linearGradient>
<linearGradient id="paint16_linear_816_59669" x1="146.424" y1="90.9093" x2="143.941" y2="101.453" gradientUnits="userSpaceOnUse">
<stop stop-color="#F5E3D6"/>
<stop offset="0.5" stop-color="#F5DFCE"/>
<stop offset="0.81" stop-color="#EDCBB3"/>
<stop offset="0.95" stop-color="#EDCBB3"/>
</linearGradient>
<linearGradient id="paint17_linear_816_59669" x1="216.768" y1="106.636" x2="216.768" y2="152.44" gradientUnits="userSpaceOnUse">
<stop stop-color="#E9F2FE"/>
<stop offset="0.19" stop-color="#DCEAFE"/>
<stop offset="0.78" stop-color="#DCEAFE"/>
<stop offset="1" stop-color="#95B3EF"/>
</linearGradient>
<linearGradient id="paint18_linear_816_59669" x1="211.949" y1="153.889" x2="211.949" y2="143.994" gradientUnits="userSpaceOnUse">
<stop stop-color="#6586FF"/>
<stop offset="0.24" stop-color="#82A7ED"/>
<stop offset="0.8" stop-color="#82A7ED"/>
<stop offset="1" stop-color="#6586FF"/>
</linearGradient>
<linearGradient id="paint19_linear_816_59669" x1="226.018" y1="121.812" x2="231.26" y2="125.793" gradientUnits="userSpaceOnUse">
<stop stop-color="#FF97DF"/>
<stop offset="0.5" stop-color="#FF7ECB"/>
<stop offset="1" stop-color="#E64AF9"/>
</linearGradient>
<linearGradient id="paint20_linear_816_59669" x1="237.12" y1="118.884" x2="240.087" y2="119.182" gradientUnits="userSpaceOnUse">
<stop stop-color="#F2EEEE"/>
<stop offset="0.36" stop-color="#E0DDE8"/>
<stop offset="0.74" stop-color="#C4BFDD"/>
<stop offset="0.98" stop-color="#AFACD1"/>
</linearGradient>
<linearGradient id="paint21_linear_816_59669" x1="192.027" y1="120.316" x2="217.172" y2="131.444" gradientUnits="userSpaceOnUse">
<stop stop-color="#0FE9A9"/>
<stop offset="0.6" stop-color="#0FDF93"/>
<stop offset="1" stop-color="#0FBB93"/>
</linearGradient>
<clipPath id="clip0_816_59669">
<rect width="282" height="176" fill="white"/>
</clipPath>
</defs>
</svg>
