<svg width="130" height="100" viewBox="0 0 130 100" fill="none" xmlns="http://www.w3.org/2000/svg">
<g clip-path="url(#clip0_876_113775)">
<circle cx="45" cy="44" r="44" fill="#DBD8FF"/>
<circle cx="45" cy="44" r="44" fill="#DCEEFF"/>
<circle cx="83.5" cy="80.5" r="19.5" fill="#DBD8FF"/>
<circle cx="83.5" cy="80.5" r="19.5" fill="#EBE1FF"/>
<circle cx="117.5" cy="25.5" r="12.5" fill="#DBD8FF"/>
<circle cx="117.5" cy="25.5" r="12.5" fill="#C9F9D6"/>
<path d="M86.5422 47.9684V29H49V76.2302L69.0224 83V76.2302H86.5422V57.2618H82.967V72.6515H69.0224V36.8716L56.3246 32.5778H82.967V47.9684H86.5422Z" fill="#001B79"/>
<path d="M89.0662 55.5947V58.3491L98.0006 52.6136L89.0662 46.8789V49.6333H77.043V55.5947H89.0662Z" fill="#4E16ED"/>
<path d="M121.991 61.973C123.376 35.5192 103.053 12.9518 76.5993 11.5672C50.1455 10.1826 27.5781 30.5051 26.1935 56.9589C25.2951 74.1226 33.5348 89.6504 46.6582 98.8179" stroke="#9DCAFF" stroke-width="2" stroke-dasharray="4 4"/>
</g>
<defs>
<clipPath id="clip0_876_113775">
<rect width="130" height="100" fill="white"/>
</clipPath>
</defs>
</svg>
