<svg width="1920" height="1000" viewBox="0 0 1920 1000" fill="none" xmlns="http://www.w3.org/2000/svg">
<g clip-path="url(#clip0_609_67219)">
<path d="M153 602C91 595 5 566 -17 542L-29 1170C674.333 1179.33 2086.2 1198 2107 1198C2127.8 1198 2139.67 592.667 2139 430.001C1937 326 1805 300.8 1701 312C1493 334.4 1439 472 1353 494C1227.28 526.162 971 508.001 923 530C884.6 547.6 761.667 613.334 705 644C658.333 596 538.102 488.257 457 530C321 600 215 609 153 602Z" fill="white" fill-opacity="0.06"/>
<mask id="mask0_609_67219" style="mask-type:alpha" maskUnits="userSpaceOnUse" x="1397" y="112" width="190" height="190">
<circle cx="1491.93" cy="206.963" r="94.7266" transform="rotate(-45 1491.93 206.963)" fill="#D9D9D9"/>
</mask>
<g mask="url(#mask0_609_67219)">
<line x1="1116.5" y1="119.655" x2="1434.8" y2="-198.645" stroke="white" stroke-opacity="0.44"/>
<line x1="1126.59" y1="129.748" x2="1444.89" y2="-188.552" stroke="white" stroke-opacity="0.44"/>
<line x1="1136.68" y1="139.84" x2="1454.98" y2="-178.46" stroke="white" stroke-opacity="0.44"/>
<line x1="1146.78" y1="149.935" x2="1465.08" y2="-168.365" stroke="white" stroke-opacity="0.44"/>
<line x1="1156.87" y1="160.026" x2="1475.17" y2="-158.274" stroke="white" stroke-opacity="0.44"/>
<line x1="1166.96" y1="170.12" x2="1485.26" y2="-148.18" stroke="white" stroke-opacity="0.44"/>
<line x1="1177.06" y1="180.213" x2="1495.36" y2="-138.087" stroke="white" stroke-opacity="0.44"/>
<line x1="1187.15" y1="190.305" x2="1505.45" y2="-127.995" stroke="white" stroke-opacity="0.44"/>
<line x1="1197.25" y1="200.399" x2="1515.55" y2="-117.9" stroke="white" stroke-opacity="0.44"/>
<line x1="1207.34" y1="210.492" x2="1525.64" y2="-107.808" stroke="white" stroke-opacity="0.44"/>
<line x1="1217.43" y1="220.585" x2="1535.73" y2="-97.7149" stroke="white" stroke-opacity="0.44"/>
<line x1="1227.52" y1="230.678" x2="1545.82" y2="-87.6217" stroke="white" stroke-opacity="0.44"/>
<line x1="1237.61" y1="240.77" x2="1555.91" y2="-77.5299" stroke="white" stroke-opacity="0.44"/>
<line x1="1247.71" y1="250.865" x2="1566.01" y2="-67.4352" stroke="white" stroke-opacity="0.44"/>
<line x1="1257.8" y1="260.957" x2="1576.1" y2="-57.3434" stroke="white" stroke-opacity="0.44"/>
<line x1="1267.89" y1="271.05" x2="1586.19" y2="-47.2501" stroke="white" stroke-opacity="0.44"/>
<line x1="1277.99" y1="281.142" x2="1596.29" y2="-37.1583" stroke="white" stroke-opacity="0.44"/>
<line x1="1288.08" y1="291.235" x2="1606.38" y2="-27.065" stroke="white" stroke-opacity="0.44"/>
<line x1="1298.17" y1="301.328" x2="1616.47" y2="-16.9718" stroke="white" stroke-opacity="0.44"/>
<line x1="1308.27" y1="311.421" x2="1626.57" y2="-6.87851" stroke="white" stroke-opacity="0.44"/>
<line x1="1318.36" y1="321.515" x2="1636.66" y2="3.21475" stroke="white" stroke-opacity="0.44"/>
<line x1="1328.45" y1="331.606" x2="1646.75" y2="13.3066" stroke="white" stroke-opacity="0.44"/>
<line x1="1338.54" y1="341.7" x2="1656.84" y2="23.3998" stroke="white" stroke-opacity="0.44"/>
<line x1="1348.63" y1="351.793" x2="1666.93" y2="33.4931" stroke="white" stroke-opacity="0.44"/>
<line x1="1358.73" y1="361.887" x2="1677.03" y2="43.5868" stroke="white" stroke-opacity="0.44"/>
<line x1="1368.82" y1="371.98" x2="1687.12" y2="53.6801" stroke="white" stroke-opacity="0.44"/>
<line x1="1378.92" y1="382.072" x2="1697.22" y2="63.7719" stroke="white" stroke-opacity="0.44"/>
<line x1="1389.01" y1="392.165" x2="1707.31" y2="73.8651" stroke="white" stroke-opacity="0.44"/>
<line x1="1399.1" y1="402.257" x2="1717.4" y2="83.9569" stroke="white" stroke-opacity="0.44"/>
<line x1="1409.2" y1="412.352" x2="1727.5" y2="94.0517" stroke="white" stroke-opacity="0.44"/>
<line x1="1419.29" y1="422.445" x2="1737.59" y2="104.145" stroke="white" stroke-opacity="0.44"/>
<line x1="1429.38" y1="432.537" x2="1747.68" y2="114.237" stroke="white" stroke-opacity="0.44"/>
<line x1="1439.47" y1="442.63" x2="1757.77" y2="124.33" stroke="white" stroke-opacity="0.44"/>
<line x1="1449.56" y1="452.722" x2="1767.86" y2="134.422" stroke="white" stroke-opacity="0.44"/>
<line x1="1459.66" y1="462.816" x2="1777.96" y2="144.517" stroke="white" stroke-opacity="0.44"/>
<line x1="1469.75" y1="472.908" x2="1788.05" y2="154.608" stroke="white" stroke-opacity="0.44"/>
<line x1="1479.85" y1="483.001" x2="1798.15" y2="164.702" stroke="white" stroke-opacity="0.44"/>
<line x1="1489.94" y1="493.095" x2="1808.24" y2="174.795" stroke="white" stroke-opacity="0.44"/>
<line x1="1500.03" y1="503.186" x2="1818.33" y2="184.887" stroke="white" stroke-opacity="0.44"/>
<line x1="1510.13" y1="513.281" x2="1828.43" y2="194.981" stroke="white" stroke-opacity="0.44"/>
<line x1="1520.22" y1="523.373" x2="1838.52" y2="205.074" stroke="white" stroke-opacity="0.44"/>
<line x1="1530.31" y1="533.467" x2="1848.61" y2="215.167" stroke="white" stroke-opacity="0.44"/>
</g>
<circle cx="344" cy="226" r="153" fill="white" fill-opacity="0.1"/>
<circle cx="1289.5" cy="106.5" r="22.5" fill="white" fill-opacity="0.08"/>
<mask id="mask1_609_67219" style="mask-type:alpha" maskUnits="userSpaceOnUse" x="618" y="-73" width="119" height="119">
<circle cx="677.5" cy="-13.5" r="59.5" fill="#D9D9D9"/>
</mask>
<g mask="url(#mask1_609_67219)">
<path d="M505.592 43.3867L743.887 -194.908" stroke="#4D74DB" stroke-width="2"/>
<path d="M509.886 47.6294L748.181 -190.666" stroke="#4D74DB" stroke-width="3"/>
<path d="M514.181 51.8721L752.476 -186.423" stroke="#4D74DB" stroke-width="3"/>
<path d="M518.476 56.1147L756.771 -182.18" stroke="#4D74DB" stroke-width="3"/>
<path d="M522.771 60.3574L761.066 -177.938" stroke="#4D74DB" stroke-width="3"/>
<path d="M527.066 64.6001L765.361 -173.695" stroke="#4D74DB" stroke-width="3"/>
<path d="M531.361 68.8428L769.656 -169.452" stroke="#4D74DB" stroke-width="3"/>
<path d="M535.656 73.0854L773.951 -165.21" stroke="#4D74DB" stroke-width="3"/>
<path d="M539.951 77.3276L778.246 -160.967" stroke="#4D74DB" stroke-width="3"/>
<path d="M544.246 81.5703L782.541 -156.725" stroke="#4D74DB" stroke-width="3"/>
<path d="M548.541 85.813L786.836 -152.482" stroke="#4D74DB" stroke-width="3"/>
<path d="M552.836 90.0557L791.131 -148.239" stroke="#4D74DB" stroke-width="3"/>
<path d="M557.131 94.2983L795.426 -143.997" stroke="#4D74DB" stroke-width="3"/>
<path d="M561.426 98.541L799.721 -139.754" stroke="#4D74DB" stroke-width="3"/>
<path d="M565.72 102.784L804.015 -135.511" stroke="#4D74DB" stroke-width="3"/>
<path d="M570.015 107.026L808.31 -131.269" stroke="#4D74DB" stroke-width="3"/>
<path d="M574.31 111.269L812.605 -127.026" stroke="#4D74DB" stroke-width="3"/>
<path d="M578.605 115.512L816.9 -122.783" stroke="#4D74DB" stroke-width="3"/>
<path d="M582.9 119.754L821.195 -118.541" stroke="#4D74DB" stroke-width="3"/>
<path d="M587.195 123.997L825.49 -114.298" stroke="#4D74DB" stroke-width="3"/>
<path d="M591.49 128.24L829.785 -110.055" stroke="#4D74DB" stroke-width="3"/>
<path d="M595.785 132.482L834.08 -105.813" stroke="#4D74DB" stroke-width="3"/>
<path d="M600.08 136.725L838.375 -101.57" stroke="#4D74DB" stroke-width="3"/>
<path d="M604.375 140.967L842.67 -97.3277" stroke="#4D74DB" stroke-width="3"/>
<path d="M608.67 145.21L846.965 -93.085" stroke="#4D74DB" stroke-width="3"/>
<path d="M612.965 149.453L851.26 -88.8423" stroke="#4D74DB" stroke-width="3"/>
<path d="M617.26 153.695L855.555 -84.5997" stroke="#4D74DB" stroke-width="3"/>
<path d="M621.554 157.938L859.849 -80.357" stroke="#4D74DB" stroke-width="3"/>
<path d="M625.849 162.181L864.144 -76.1143" stroke="#4D74DB" stroke-width="3"/>
<path d="M630.144 166.423L868.439 -71.8716" stroke="#4D74DB" stroke-width="3"/>
<path d="M634.439 170.666L872.734 -67.629" stroke="#4D74DB" stroke-width="3"/>
<path d="M638.734 174.909L877.029 -63.3863" stroke="#4D74DB" stroke-width="3"/>
</g>
<path d="M314.639 216.714C261.24 266.514 200.131 274.059 135.034 233.582C69.9378 193.104 0.217997 241.613 -57.251 188.875C-171.059 84.4349 -129.366 -6.4084 -35.2578 -94.1736C58.8508 -181.939 207.51 -175.487 296.782 -79.7625C386.054 15.9617 408.748 128.949 314.639 216.714Z" fill="white" fill-opacity="0.07"/>
<mask id="mask2_609_67219" style="mask-type:alpha" maskUnits="userSpaceOnUse" x="-42" y="445" width="231" height="231">
<circle cx="73.75" cy="560.5" r="115.082" transform="rotate(-45 73.75 560.5)" fill="#D9D9D9"/>
</mask>
<g mask="url(#mask2_609_67219)">
<line x1="-232.082" y1="542.971" x2="27.1542" y2="283.735" stroke="white" stroke-opacity="0.56"/>
<line x1="-223.863" y1="551.191" x2="35.3733" y2="291.955" stroke="white" stroke-opacity="0.56"/>
<line x1="-215.644" y1="559.411" x2="43.5927" y2="300.174" stroke="white" stroke-opacity="0.56"/>
<line x1="-207.42" y1="567.632" x2="51.8165" y2="308.396" stroke="white" stroke-opacity="0.56"/>
<line x1="-199.2" y1="575.851" x2="60.0358" y2="316.614" stroke="white" stroke-opacity="0.56"/>
<line x1="-190.981" y1="584.072" x2="68.255" y2="324.836" stroke="white" stroke-opacity="0.56"/>
<line x1="-182.762" y1="592.292" x2="76.4741" y2="333.056" stroke="white" stroke-opacity="0.56"/>
<line x1="-174.543" y1="600.512" x2="84.6934" y2="341.275" stroke="white" stroke-opacity="0.56"/>
<line x1="-166.319" y1="608.732" x2="92.9172" y2="349.496" stroke="white" stroke-opacity="0.56"/>
<line x1="-158.1" y1="616.952" x2="101.136" y2="357.716" stroke="white" stroke-opacity="0.56"/>
<line x1="-149.881" y1="625.172" x2="109.356" y2="365.936" stroke="white" stroke-opacity="0.56"/>
<line x1="-141.661" y1="633.394" x2="117.575" y2="374.157" stroke="white" stroke-opacity="0.56"/>
<line x1="-133.442" y1="641.612" x2="125.794" y2="382.376" stroke="white" stroke-opacity="0.56"/>
<line x1="-125.218" y1="649.833" x2="134.018" y2="390.597" stroke="white" stroke-opacity="0.56"/>
<line x1="-116.999" y1="658.053" x2="142.237" y2="398.816" stroke="white" stroke-opacity="0.56"/>
<line x1="-108.78" y1="666.273" x2="150.456" y2="407.037" stroke="white" stroke-opacity="0.56"/>
<line x1="-100.561" y1="674.492" x2="158.676" y2="415.256" stroke="white" stroke-opacity="0.56"/>
<line x1="-92.3415" y1="682.712" x2="166.895" y2="423.476" stroke="white" stroke-opacity="0.56"/>
<line x1="-84.1222" y1="690.934" x2="175.114" y2="431.697" stroke="white" stroke-opacity="0.56"/>
<line x1="-75.8982" y1="699.153" x2="183.338" y2="439.917" stroke="white" stroke-opacity="0.56"/>
<line x1="-67.6791" y1="707.374" x2="191.557" y2="448.138" stroke="white" stroke-opacity="0.56"/>
<line x1="-59.4599" y1="715.593" x2="199.776" y2="456.357" stroke="white" stroke-opacity="0.56"/>
<line x1="-51.2408" y1="723.813" x2="207.995" y2="464.577" stroke="white" stroke-opacity="0.56"/>
<line x1="-43.0215" y1="732.034" x2="216.215" y2="472.797" stroke="white" stroke-opacity="0.56"/>
<line x1="-34.7975" y1="740.254" x2="224.439" y2="481.018" stroke="white" stroke-opacity="0.56"/>
<line x1="-26.5784" y1="748.475" x2="232.658" y2="489.238" stroke="white" stroke-opacity="0.56"/>
<line x1="-18.3592" y1="756.694" x2="240.877" y2="497.458" stroke="white" stroke-opacity="0.56"/>
<line x1="-10.1398" y1="764.915" x2="249.096" y2="505.678" stroke="white" stroke-opacity="0.56"/>
<line x1="-1.92081" y1="773.133" x2="257.315" y2="513.897" stroke="white" stroke-opacity="0.56"/>
<line x1="6.30306" y1="781.355" x2="265.539" y2="522.119" stroke="white" stroke-opacity="0.56"/>
<line x1="14.5223" y1="789.575" x2="273.759" y2="530.339" stroke="white" stroke-opacity="0.56"/>
<line x1="22.7415" y1="797.794" x2="281.978" y2="538.558" stroke="white" stroke-opacity="0.56"/>
<line x1="30.9609" y1="806.015" x2="290.197" y2="546.778" stroke="white" stroke-opacity="0.56"/>
<line x1="39.1799" y1="814.234" x2="298.416" y2="554.998" stroke="white" stroke-opacity="0.56"/>
<line x1="47.4039" y1="822.457" x2="306.64" y2="563.22" stroke="white" stroke-opacity="0.56"/>
<line x1="55.6231" y1="830.675" x2="314.859" y2="571.439" stroke="white" stroke-opacity="0.56"/>
<line x1="63.8422" y1="838.895" x2="323.078" y2="579.659" stroke="white" stroke-opacity="0.56"/>
<line x1="72.0616" y1="847.116" x2="331.298" y2="587.879" stroke="white" stroke-opacity="0.56"/>
<line x1="80.2806" y1="855.334" x2="339.517" y2="596.098" stroke="white" stroke-opacity="0.56"/>
<line x1="88.5045" y1="863.557" x2="347.741" y2="604.32" stroke="white" stroke-opacity="0.56"/>
<line x1="96.7238" y1="871.776" x2="355.96" y2="612.54" stroke="white" stroke-opacity="0.56"/>
<line x1="104.943" y1="879.997" x2="364.179" y2="620.76" stroke="white" stroke-opacity="0.56"/>
</g>
<circle cx="488.5" cy="922.5" r="230.5" fill="white" fill-opacity="0.07"/>
<path d="M2068.49 689.867C2095.56 887.852 2004.07 1144.13 1771 1176C1682.79 1188.06 1417.52 1156.8 1344.42 1126.75C1224.39 1077.4 1139.5 1000.39 1249.59 902.201C1353.12 773.464 1254.11 674.398 1317.55 600.188C1411.73 489.994 1523.46 560.153 1614.91 516.77C1706.36 473.387 1739.36 367.312 1948.48 402.845C2123.56 432.594 2057.95 612.789 2068.49 689.867Z" fill="white" fill-opacity="0.07"/>
</g>
<defs>
<clipPath id="clip0_609_67219">
<rect width="1920" height="1000" fill="white"/>
</clipPath>
</defs>
</svg>
