<svg width="154" height="92" viewBox="0 0 154 92" fill="none" xmlns="http://www.w3.org/2000/svg">
<g clip-path="url(#clip0_1667_115614)">
<path fill-rule="evenodd" clip-rule="evenodd" d="M111.106 18.5715L111.587 23.4113L111.789 23.3958L111.279 18.1996L105.167 20.0017L105.236 20.1616L110.927 18.4871L101.223 30.4959L93.0803 27.0919L81.5762 41.1556L81.7456 41.2524L93.1461 27.3097L101.289 30.7136L111.106 18.5715Z" fill="#8329CA"/>
<g clip-path="url(#clip1_1667_115614)">
<path d="M96.9029 70.3117L103.796 67.241L96.9029 64.1777L90 67.241L96.9029 70.3117Z" fill="#3C2DA1"/>
<path d="M90 67.2402V81.543L96.9029 84.6137V70.3109L90 67.2402Z" fill="#5A43DB"/>
<path d="M96.9028 70.3109V84.6137L103.796 81.543V67.2402L96.9028 70.3109Z" fill="#27145A"/>
<path d="M106.964 65.9246L113.867 62.8539L106.964 59.7832L100.062 62.8539L106.964 65.9246Z" fill="#FFB3F3"/>
<path d="M100.062 62.8535V85.9984L106.964 89.069V65.9242L100.062 62.8535Z" fill="#FF70E9"/>
<path d="M106.964 65.9242V89.069L113.867 85.9984V62.8535L106.964 65.9242Z" fill="#FF31C3"/>
<path d="M117.036 61.5285L123.929 58.4578L117.036 55.3945L110.133 58.4578L117.036 61.5285Z" fill="#5A43DB"/>
<path d="M110.133 58.457V90.4588L117.036 93.5294V61.5277L110.133 58.457Z" fill="#4E90F9"/>
<path d="M117.036 61.5277V93.5294L123.929 90.4588V58.457L117.036 61.5277Z" fill="#3C2DA1"/>
<path d="M127.097 57.1414L134 54.0707L127.097 51L120.194 54.0707L127.097 57.1414Z" fill="#33E7D2"/>
<path d="M120.194 54.0703V94.9289L127.097 97.9996V57.141L120.194 54.0703Z" fill="#7AF6E4"/>
<path d="M127.097 57.141V97.9996L134 94.9289V54.0703L127.097 57.141Z" fill="#0BC0CF"/>
</g>
<g clip-path="url(#clip2_1667_115614)">
<path d="M86.59 45.7402V68.2002C86.59 78.7302 69.44 87.2602 48.3 87.2602V45.7402H86.59Z" fill="#FF31C3"/>
<path d="M48.3001 26.6797C69.4501 26.6797 86.5901 35.2097 86.5901 45.7497H48.3001L33.8401 28.0997C38.3001 27.1897 43.1801 26.6897 48.3001 26.6897V26.6797Z" fill="#FF70E9"/>
<path d="M48.29 34.6504V78.1004L19.49 90.4504C13.58 87.1004 10 82.7104 10 77.9004V34.6504H48.29Z" fill="#3C2DA1"/>
<path d="M19.49 34.6504V90.4504C13.59 87.1004 10 82.7104 10 77.9004V34.6504H19.49Z" fill="#5A43DB"/>
<path d="M33.83 17L48.29 34.65L19.49 47.2C16.48 45.49 14.07 43.52 12.44 41.35C10.86 39.26 10.01 37 10.01 34.65C10 26.67 19.85 19.84 33.83 17Z" fill="#986DFF"/>
<path d="M19.49 76.8801V90.4501C26.5 94.4401 36.8 96.9601 48.29 96.9601C69.44 96.9601 86.58 88.4301 86.58 77.9001V64.3301H48.29L19.49 76.8801Z" fill="#0BC0CF"/>
<path d="M19.49 76.8801C19.78 77.0501 20.08 77.2201 20.38 77.3801C27.37 81.0801 37.28 83.3901 48.29 83.3901C69.44 83.3901 86.58 74.8601 86.58 64.3301H48.29L19.49 76.8801Z" fill="#33E7D2"/>
</g>
<path d="M117.998 38.4075C118.048 39.7893 116.974 40.949 115.593 40.9984C114.223 41.0477 113.051 39.9743 113.002 38.5925C112.952 37.2107 114.026 36.051 115.407 36.0016C116.789 35.9523 117.949 37.0257 117.998 38.4075Z" fill="#FF31C3"/>
<path d="M90.8236 16.7462C90.0917 16.7631 89.3552 16.5792 88.6808 16.2041C87.3545 15.4645 86.5574 14.0989 86.5335 12.5815C86.5134 11.2314 85.8092 10.0422 84.6404 9.39948C83.4714 8.74561 82.0852 8.7776 80.9477 9.48471C80.8272 9.55446 80.6601 9.52483 80.5905 9.3925C80.5211 9.27132 80.5505 9.10322 80.682 9.03322C81.9839 8.23302 83.5586 8.19668 84.896 8.93596C86.2334 9.67524 87.0416 11.0406 87.0658 12.5692C87.0856 13.9081 87.7898 15.0973 88.9475 15.7403C90.1054 16.3944 91.4807 16.3739 92.6299 15.6888C92.7504 15.619 92.9177 15.6598 92.9871 15.781C93.0565 15.9022 93.016 16.0705 92.8955 16.1403C92.2609 16.5233 91.5553 16.7181 90.8455 16.7345L90.8236 16.7462Z" fill="#5A43DB"/>
<path d="M0.766761 25.2334C0.947414 24.6692 1.28194 24.1543 1.74536 23.7372C2.65818 22.9173 3.90704 22.6669 5.06688 23.0477C6.09849 23.3875 7.18867 23.1616 7.98624 22.4368C8.79235 21.7148 9.1345 20.6462 8.89772 19.5902C8.87654 19.4798 8.94324 19.3598 9.06224 19.3413C9.1727 19.3201 9.29271 19.3869 9.31115 19.5059C9.57527 20.712 9.18659 21.9258 8.27103 22.7542C7.35547 23.5826 6.10388 23.8416 4.93549 23.458C3.91243 23.121 2.82224 23.3469 2.02741 24.0631C1.22403 24.7766 0.876077 25.8339 1.09303 26.893C1.11421 27.0034 1.03896 27.1207 0.928502 27.1419C0.818048 27.163 0.700772 27.0878 0.67959 26.9773C0.55625 26.3912 0.594656 25.8003 0.769834 25.2532L0.766761 25.2334Z" fill="#5A43DB"/>
<path d="M152.999 22.926C153.038 24.0314 152.179 24.9592 151.074 24.9987C149.978 25.0382 149.041 24.1795 149.001 23.074C148.962 21.9784 149.821 21.0408 150.926 21.0013C152.031 20.9618 152.959 21.8205 152.999 22.926Z" fill="#FFBC3F"/>
<path d="M62.4617 24.5391L52.7867 27.891L55.5047 20.0975L62.4617 24.5391ZM53.5548 27.1248L61.3841 24.4123L55.7523 20.812L53.5548 27.1248Z" fill="#A2B7E8"/>
<path d="M75.5 56L72 52.5L75.5 49L79 52.5L75.5 56ZM72.5568 52.5L75.5 55.4432L78.4432 52.5L75.5 49.5568L72.5568 52.5Z" fill="white"/>
<path d="M44.9975 15.444C45.0284 16.2707 44.3794 16.9661 43.5526 16.997C42.7259 17.0279 42.0305 16.3866 41.9996 15.5521C41.9687 14.7254 42.6177 14.03 43.4444 13.9991C44.2712 13.9682 44.9666 14.6172 44.9975 15.444Z" fill="#379FFF"/>
</g>
<defs>
<clipPath id="clip0_1667_115614">
<rect width="154" height="92" fill="white"/>
</clipPath>
<clipPath id="clip1_1667_115614">
<rect width="44" height="47" fill="white" transform="translate(90 51)"/>
</clipPath>
<clipPath id="clip2_1667_115614">
<rect width="76.59" height="79.96" fill="white" transform="translate(10 17)"/>
</clipPath>
</defs>
</svg>
