<svg width="308" height="471" viewBox="0 0 308 471" fill="none" xmlns="http://www.w3.org/2000/svg">
<path d="M68.4282 64.3203L65.8599 66.1466L63.9766 69.0573C63.9766 69.0573 64.319 71.2831 64.319 72.3675C64.319 73.4518 65.8029 76.4196 65.8029 76.4196L66.1453 79.3873L65.4034 82.3551C65.4034 82.3551 64.319 83.8389 65.4034 84.9233C66.4877 86.0077 66.8872 86.4072 68.3711 86.7496C69.855 87.092 71.6813 87.4915 72.7656 87.092C73.85 86.7496 74.5919 85.2657 74.5919 85.2657C74.5919 85.2657 74.9344 82.6975 74.9344 81.6131C74.9344 80.5288 74.9344 78.3029 74.9344 78.3029C74.9344 78.3029 74.9344 75.7347 74.9344 74.6503C74.9344 73.566 73.85 70.5982 73.85 70.5982L72.7656 67.2881L70.1974 64.7198L68.4282 64.3203Z" fill="#96EACC"/>
<path d="M56.2714 63.9219L53.7031 67.2321C53.7031 67.2321 54.0456 69.4579 55.187 69.4579C56.2714 69.4579 59.5815 68.7159 59.5815 68.7159C59.5815 68.7159 59.924 68.3735 59.924 67.2321C59.924 66.1477 59.5815 64.6638 59.5815 64.6638L56.2714 63.9219Z" fill="#96EACC"/>
<path d="M59.2414 71.2812C58.1571 73.1076 57.0156 74.5914 57.0156 74.5914L57.7576 76.8172L59.5839 79.043L60.3258 82.0108L62.5516 80.5269V77.9587L62.2092 76.4748L61.8667 74.6485L60.7824 72.4227L59.2414 71.2812Z" fill="#96EACC"/>
<path d="M74.3074 94.4531L70.9972 96.2794H67.2875L63.9773 96.6219L61.8086 100.332L66.2031 104.384H69.5133L72.0815 103.242L75.7342 102.158L76.8756 100.332L79.7863 98.8477L78.7019 95.8799L76.4761 94.7956L74.3074 94.4531Z" fill="#176ECC"/>
<path d="M64.3747 106.555L63.6328 109.865L65.8015 110.949L67.2854 108.381L65.8015 106.555H64.3747Z" fill="#176ECC"/>
<path d="M58.8398 91.488L59.5818 93.7138C59.5818 93.7138 60.3237 93.7138 61.4081 94.0563C62.4924 94.3987 64.3758 93.3143 64.3758 93.3143L64.0334 91.0885L60.3808 90.7461L58.8398 91.488Z" fill="#176ECC"/>
<path d="M53.7063 79.7305L51.4805 82.6982L51.88 85.6089L54.0487 83.4401L53.7063 79.7305Z" fill="#96EACC"/>
<path d="M51.8784 185.197L50.3945 189.592L51.1365 194.728L51.4789 198.381L52.9628 202.033L56.2729 202.376C56.2729 202.376 58.8412 200.55 58.8412 199.408C58.8412 198.324 58.0992 195.014 58.0992 193.872C58.0992 192.788 56.6154 189.078 56.6154 187.994C56.6154 186.909 54.3896 184.684 54.3896 184.684L51.8784 185.197Z" fill="#176ECC"/>
<path d="M129.039 30.134L131.265 34.5285L132.007 38.1811L134.232 39.2655L136.801 37.7816L139.768 36.2978L140.853 38.1241L139.369 41.0918L137.885 44.7444L140.453 45.8288L143.421 45.0869L144.905 44.3449H148.215L149.699 45.0869L150.041 48.7395L150.726 53.6477C155.121 56.2159 156.947 55.8735 156.947 55.8735L158.773 59.1836L161.342 61.4094L163.567 65.062L162.084 68.7146L159.116 69.4566L155.806 71.6824C155.806 71.6824 154.322 74.2506 154.322 75.335C154.322 76.4194 154.664 77.9032 154.664 77.9032L153.922 80.4715C153.922 80.4715 152.838 80.8139 152.838 81.9553C152.838 83.0397 153.58 84.5236 153.58 84.5236L156.148 84.866L155.806 87.7767C155.806 87.7767 156.148 88.8611 155.463 90.0025C154.721 91.0869 154.721 93.3127 154.721 93.3127L156.205 94.0546C156.205 94.0546 157.289 92.5707 158.431 92.5707C159.515 92.5707 159.515 92.5707 159.515 92.5707L162.825 92.9132C162.825 92.9132 163.91 94.7395 165.051 95.8809C166.136 96.9653 165.394 96.6228 167.619 98.1067C169.845 99.5906 174.582 101.074 174.582 101.074L177.55 101.417L174.582 103.985L171.272 105.811L170.53 109.122L173.498 111.347L171.272 115.742L169.788 118.71V123.504L168.304 127.898C168.304 127.898 166.82 130.866 166.82 133.035C166.82 135.261 167.163 137.829 167.163 137.829C167.163 137.829 167.163 139.313 170.473 140.055C173.783 140.797 178.92 140.797 178.92 140.797L180.746 139.712L181.488 137.886V134.918C182.972 133.092 185.883 131.608 185.883 131.608L188.451 131.266C188.451 131.266 189.535 132.749 189.935 133.834C190.277 134.918 190.277 137.886 190.277 137.886L192.503 139.37C192.503 139.37 194.729 137.886 195.813 137.886C196.897 137.886 196.555 136.06 199.123 136.06C201.691 136.06 203.518 136.06 203.518 136.06L205.744 134.576C205.744 134.576 209.396 136.402 210.538 136.801C211.622 137.144 214.19 138.285 214.19 138.285L213.106 140.112L210.538 140.854L208.711 142.337V144.563L210.195 144.906H214.247L216.815 143.422L220.126 144.506C220.126 144.506 220.468 147.074 220.868 148.159C221.21 149.243 224.52 149.643 224.52 149.643L227.088 148.901L230.056 150.385C230.056 150.385 231.882 151.868 233.024 152.61C234.108 153.352 237.818 153.695 237.818 153.695L239.302 155.521L243.354 157.005L245.922 156.663L246.265 154.437L249.232 152.61H250.716L253.684 154.094L254.426 156.663L256.652 157.404L257.736 155.921L259.962 154.437L261.788 154.094C261.788 154.094 262.873 154.437 264.014 154.836C265.098 155.179 267.667 155.921 267.667 155.921H270.634L273.602 154.094L277.997 154.437C277.997 154.437 278.339 157.005 280.222 158.089C282.049 159.174 283.533 159.573 283.533 159.573L285.359 156.263L287.585 153.295L291.979 152.211L295.632 150.613C295.461 150.27 295.346 149.928 295.289 149.643C294.947 148.558 295.289 144.107 295.289 143.022C295.289 141.938 295.289 139.712 295.289 139.712L290.895 132.749C290.895 132.749 290.552 130.181 289.411 128.697C288.327 127.213 286.843 123.161 286.843 123.161C286.843 123.161 283.875 119.109 283.19 118.025C282.448 116.94 279.88 113.973 279.88 113.973L278.796 110.663L276.969 108.094C276.969 108.094 276.227 107.352 275.485 104.784C274.743 102.216 274.401 101.474 274.401 100.39C274.401 99.3052 274.401 95.995 274.401 95.995L270.007 90.4591L262.416 80.4715L257.622 72.3673L255.054 66.8313L251.002 62.7792L247.349 59.1266L246.265 51.0223L244.039 43.6601C244.039 43.6601 242.212 40.0075 242.212 38.5236C242.212 37.0397 238.56 28.2506 238.56 28.2506C238.56 28.2506 235.992 25.2829 235.992 23.1141C235.992 20.8883 233.423 13.9256 233.423 13.9256L230.855 9.53102L229.771 4.73697L227.545 0L225.319 0.342432L222.751 0.684864L220.925 4.05211V8.84616L221.267 14.3821L218.699 18.4342L213.163 22.4864L209.51 23.5707L204.716 25.7965L200.664 28.7643L194.786 26.8238L190.391 25.7395L186.339 24.2556L184.113 24.9975L183.029 27.5658L181.203 26.8238L179.719 24.2556L177.892 23.5136L175.324 24.598L170.93 24.9404L168.704 24.598H166.136L163.567 23.5136L162.084 23.8561L158.773 25.34L156.947 26.0819L155.463 25.34L152.495 24.2556L151.012 22.4293H145.875C145.875 22.4293 143.307 22.0869 143.307 23.1712C143.307 24.2556 141.481 23.9132 141.481 23.9132L138.912 21.6873L135.602 22.0298H132.292L128.24 23.1141L125.672 25.34H125.615L124.93 28.6501L129.039 30.134Z" fill="#DCF193"/>
<path d="M91.5422 108.779L92.1129 105.754C92.1129 105.754 92.1129 104.099 92.1129 103.3C92.1129 102.501 90.4579 101.931 90.4579 101.931C90.4579 101.931 89.8871 100.276 89.8871 99.4766C89.8871 98.6776 91.2569 98.9059 91.2569 98.9059L92.3412 95.5957L93.9963 92.5709L92.6266 91.2012C92.6266 91.2012 89.0311 89.2607 87.9467 88.7471C86.8623 88.1763 86.577 86.293 86.577 86.293C86.577 86.293 83.8375 86.5783 82.9814 86.5783C82.1254 86.5783 80.5273 89.4319 80.5273 89.4319L81.2693 94.5684V96.7942V101.931L83.0956 106.725L86.4058 109.293L87.8896 110.777L87.9467 111.462C88.8598 110.948 89.7159 110.434 90.1725 110.035C91.5422 108.779 91.5422 108.779 91.5422 108.779Z" fill="#176ECC"/>
<path d="M95.7117 97.1942L96.796 99.6483L96.2253 101.589L98.6794 102.159L101.133 103.815L104.444 106.554H107.183C107.183 106.554 109.637 105.755 110.493 105.755C111.292 105.755 111.578 106.839 111.578 106.839L113.233 108.209H114.888H116.828L119.282 105.755L122.307 103.529C122.307 103.529 123.106 101.589 123.106 100.79C123.106 99.9908 123.392 98.3357 123.392 98.3357L124.761 96.3952L123.392 95.8245H121.052L119.397 94.7401L119.682 93.6558L120.481 91.43V89.2042L120.196 87.2637C120.196 87.2637 119.91 85.894 119.397 85.0379C118.826 84.2389 117.456 83.9535 117.456 83.9535L113.062 83.3828L111.977 85.3233L109.523 87.2637L106.498 86.4647L105.129 89.2042L103.473 92.229L99.3643 91.9436L96.3394 91.1446L93.5429 91.8865L94.1707 92.5143L92.5156 95.5391L93.8853 95.8245L95.7117 97.1942Z" fill="#69BAD4"/>
<path d="M110.55 156.719C111.349 156.719 114.659 156.433 114.659 156.433L117.113 154.207C117.113 154.207 119.852 154.207 120.423 155.006C120.994 155.805 124.532 159.401 124.532 159.401L127.557 161.855L129.212 162.426L132.808 158.83L136.403 154.949L141.083 151.068L144.108 149.413C144.108 149.413 146.334 147.188 147.133 147.188C147.932 147.188 149.587 146.902 150.443 147.188C151.242 147.473 151.813 147.473 152.669 147.473C153.468 147.473 157.349 145.532 157.349 145.532L158.718 142.793L159.004 140.339L160.659 139.255L162.314 139.54C162.314 139.54 163.113 139.255 163.969 138.456C164.597 137.828 166.252 136.173 166.937 135.488C166.88 134.689 166.823 133.776 166.823 132.92C166.823 130.694 168.307 127.783 168.307 127.783L169.79 123.389V118.709L171.274 115.741L173.5 111.346L170.532 109.121L171.274 105.81L174.584 103.984L177.552 101.416L174.584 101.073C174.584 101.073 169.79 99.5896 167.622 98.1057C165.396 96.6218 166.138 97.0213 165.053 95.8799C163.969 94.7955 162.828 92.9122 162.828 92.9122L159.517 92.5697C159.517 92.5697 159.517 92.5697 158.433 92.5697C157.349 92.5697 156.207 94.0536 156.207 94.0536L154.723 93.3117C154.723 93.3117 154.723 91.0859 155.465 90.0015C156.207 88.9171 155.808 87.7757 155.808 87.7757L156.15 84.865L153.582 84.5226C153.582 84.5226 152.84 83.0387 152.84 81.9543C152.84 80.87 153.924 80.4705 153.924 80.4705L154.666 77.9022C154.666 77.9022 154.324 76.4184 154.324 75.334C154.324 74.2496 155.808 71.6814 155.808 71.6814L159.118 69.4556L162.086 68.7137L163.57 65.061L161.344 61.4084L158.776 59.1826L156.949 55.8725C156.949 55.8725 155.123 56.2149 150.728 53.6467L149.986 48.8526L149.644 45.2L148.16 44.4581H144.85L143.366 45.2L140.398 45.942L137.83 44.8576L139.314 41.205L140.798 38.2372L139.713 36.4109L136.746 37.8948L134.178 39.3787L131.952 38.2943L131.21 34.6417L128.984 30.2472L124.932 28.7633L125.617 25.4531L122.706 26.5375L118.312 27.2794L115.743 28.7633L115.401 32.4159L113.917 33.1578L109.865 30.932L106.555 30.5896L104.329 30.932L100.277 33.1578L96.9666 35.7261L96.6242 39.0362L97.3661 42.004L99.5919 43.4879C99.5919 43.4879 100.676 43.8303 102.56 43.4879C104.386 43.1454 106.212 43.8303 106.212 43.8303L107.696 44.9147L106.612 46.741L105.87 48.5673L102.902 48.9097L101.418 50.736L99.9344 51.4779L99.5919 53.3042L101.418 56.272V59.2397L99.9344 60.3241L98.4505 59.5821L96.2247 57.3563L96.5671 54.7881H94.7408C94.7408 54.7881 93.6564 55.8725 92.515 55.8725C91.4306 55.8725 89.2048 55.8725 89.2048 55.8725L88.1205 57.3563L90.6887 58.4407C90.6887 58.4407 92.515 59.5251 92.9145 60.6665C93.2569 61.7509 93.6564 64.7186 93.6564 64.7186L90.6887 65.4606L90.3463 67.2869L89.6043 69.5127V75.7335C89.6043 75.7335 89.6043 79.7856 89.6043 80.87C89.6043 81.9543 87.0361 81.9543 87.0361 81.9543L87.3785 78.6442L85.8947 73.5077L81.5001 72.7658L78.5324 73.1082L77.7904 76.0759V79.7285V84.1231L79.2743 87.4332L80.3587 89.2595C80.3587 89.2595 82.0138 86.406 82.8128 86.406C83.6118 86.406 86.4083 86.1206 86.4083 86.1206C86.4083 86.1206 86.6937 88.061 87.778 88.5747C88.8624 89.1454 92.4579 91.0288 92.4579 91.0288L93.1999 91.7707L95.9964 91.0288L99.0212 91.8278L103.13 92.1131L104.785 89.0883L106.155 86.3489L109.18 87.1479L111.634 85.2074L112.718 83.267L117.113 83.8377C117.113 83.8377 118.483 84.1231 119.053 84.9221C119.624 85.7211 119.852 87.1479 119.852 87.1479L120.138 89.0883V91.3141L119.339 93.5399L119.053 94.6243L120.709 95.7087H123.163L124.532 96.2794L123.163 98.2198C123.163 98.2198 122.877 99.8749 122.877 100.674C122.877 101.473 122.078 103.413 122.078 103.413L119.053 105.639L116.599 108.093H114.659H113.004L111.349 106.724C111.349 106.724 111.063 105.639 110.264 105.639C109.465 105.639 106.954 106.438 106.954 106.438H104.5L101.19 103.699L98.7358 102.044L96.2818 101.473L96.8525 99.5325L95.7681 97.0784L93.8277 95.7087L92.4579 95.4233L91.3736 98.7335C91.3736 98.7335 90.0038 98.4481 90.0038 99.3042C90.0038 100.103 90.5746 101.758 90.5746 101.758C90.5746 101.758 92.2296 102.329 92.2296 103.128C92.2296 103.927 92.2296 105.582 92.2296 105.582L91.6589 108.607C91.6589 108.607 91.6589 108.607 90.2892 109.691C89.8326 110.034 88.9765 110.547 88.0634 111.118L88.3487 113.743L87.2644 116.312L88.7483 118.138L90.2321 121.106H87.2644L83.2123 120.763L80.2445 120.421L75.85 121.505C75.85 121.505 74.7656 124.473 74.7656 125.557C74.7656 126.642 77.3339 127.384 77.3339 127.384L79.9021 127.041C79.9021 127.041 82.1279 128.525 82.1279 130.694C82.1279 132.92 83.2123 135.488 83.2123 135.488L86.18 135.83L89.1478 132.863H92.4579L92.1155 137.257L89.8897 139.083V143.478L90.6316 146.446C90.6316 146.446 93.5994 150.84 93.5994 151.982C93.5994 153.066 97.6515 156.776 97.6515 156.776L100.22 158.26L106.383 157.175C106.155 157.289 109.751 156.719 110.55 156.719Z" fill="#96EACC"/>
<path d="M123.79 180.175L122.135 178.805L118.539 177.15C118.539 177.15 117.455 176.865 116.599 177.15C115.8 177.436 114.658 177.949 114.658 177.949C114.658 177.949 114.373 180.175 114.373 180.974C114.373 181.773 114.088 182.058 114.373 183.714C114.658 185.369 115.743 186.453 115.743 187.309C115.743 188.165 117.112 190.049 117.112 190.049C117.112 190.049 117.911 190.848 119.053 190.848C120.137 190.848 120.423 193.073 120.423 193.073C120.423 193.073 120.137 193.872 120.137 194.728C120.137 195.527 120.137 197.468 120.137 197.468L122.078 200.207L121.792 201.577C121.792 201.577 120.137 200.493 120.423 202.947C120.708 205.401 123.447 206.828 123.447 206.828L124.132 207.912H125.959L129.269 205.173C129.269 205.173 130.924 203.803 130.924 202.947C130.924 202.148 131.209 200.721 131.209 200.721V197.696L128.983 195.242L128.184 193.016C128.184 193.016 127.1 190.277 127.1 189.421C127.1 188.622 127.899 186.396 127.899 186.396L128.184 182.8L128.755 180.346H126.529L123.79 180.175Z" fill="#043A7B"/>
<path d="M148.615 239.703C148.33 238.333 148.044 236.678 147.816 235.822C147.531 235.023 147.531 233.596 147.531 231.941C147.531 230.286 146.161 230.001 146.161 230.001L142.565 227.775L140.111 227.49L138.456 229.43C138.456 229.43 135.146 230.229 134.347 230.229C133.548 230.229 132.692 230.229 132.692 230.229L131.322 228.574L130.523 225.549L128.868 224.465L128.583 228.06L127.498 230.8L124.188 228.859C124.188 228.859 122.818 226.405 122.248 223.894C121.677 221.44 121.677 219.785 121.677 218.929C121.677 218.13 122.476 215.904 122.476 215.904L124.131 211.509L123.56 207.914H124.245L123.56 206.83C123.56 206.83 120.821 205.46 120.536 202.949C120.25 200.495 121.905 201.579 121.905 201.579L122.191 200.209L120.25 197.47C120.25 197.47 120.25 195.529 120.25 194.73C120.25 193.931 120.536 193.075 120.536 193.075C120.536 193.075 120.25 190.849 119.166 190.849C118.081 190.849 117.225 190.05 117.225 190.05C117.225 190.05 115.856 188.11 115.856 187.311C115.856 186.512 114.771 185.371 114.486 183.715C114.201 182.06 114.486 181.775 114.486 180.976C114.486 180.177 114.771 177.951 114.771 177.951C114.771 177.951 115.856 177.38 116.712 177.152C117.511 176.867 118.652 177.152 118.652 177.152L122.248 178.807L123.903 180.177L126.642 180.462H128.868L130.808 178.522L133.034 176.867L134.119 177.666H136.573L137.657 176.581V174.356L135.717 171.902L134.062 169.961L132.406 168.021C132.406 168.021 131.037 166.366 130.466 165.567C129.895 164.768 129.382 162.542 129.382 162.542L127.727 161.971L124.702 159.517C124.702 159.517 121.106 155.921 120.593 155.122C120.022 154.323 117.282 154.323 117.282 154.323L114.828 156.549C114.828 156.549 111.518 156.835 110.719 156.835C109.92 156.835 106.325 157.405 106.325 157.405L100.161 158.49L98.3345 160.316L94.2824 162.142L92.7985 158.832C92.7985 158.832 91.7142 156.264 91.3147 155.179C90.9722 154.095 88.0045 151.527 88.0045 151.527L83.2104 149.301L78.074 147.475L74.7638 145.249L70.3692 142.281L67.4015 144.108L67.7439 149.244L66.2601 148.902L62.9499 145.591L59.6397 145.934L56.672 147.76V151.07L59.6397 153.296L59.9821 156.264L56.672 160.316L53.0194 159.974L52.2774 157.748L52.6199 155.179L51.8779 151.527L49.3097 153.353L47.4834 154.837L43.8308 155.179L42.3469 158.147L40.1211 161.457L36.8109 164.026C36.8109 164.026 35.7266 165.11 35.7266 166.993C35.7266 168.82 35.7266 168.82 35.7266 168.82C35.7266 168.82 36.4685 170.646 37.9524 170.304C39.4362 169.961 39.4362 169.961 39.4362 169.961L42.404 170.703L40.9201 172.529L41.662 175.497L45.3147 174.013H46.7985L47.5405 179.15V184.686L50.8506 184.343C50.8506 184.343 51.935 182.859 52.3345 181.775C52.6769 180.691 53.8184 181.033 54.5603 182.117C55.3022 183.202 56.7861 184.343 56.7861 184.343L60.8382 182.517L62.3221 180.291L63.4065 184.686L62.3221 190.564V196.785L62.6645 204.147L63.7489 207.457L65.5752 211.11L64.4908 213.336L63.007 216.646L65.2328 219.214V221.44L63.7489 224.008V226.576L60.0963 229.887L59.3544 232.112L61.1807 232.455H64.4908L67.0591 234.281L69.2849 237.249L70.3692 240.217L73.337 244.269L75.5628 246.095C75.5628 246.095 75.5628 246.152 75.6199 246.209C76.9325 245.753 78.3593 245.296 78.7588 245.182C79.5578 244.897 81.7836 244.611 82.6397 244.383C83.4387 244.098 84.2948 243.812 85.3792 242.728C86.4635 241.643 86.4635 241.073 87.8333 239.703C89.203 238.333 89.203 238.048 89.203 238.048C89.203 238.048 91.4288 235.594 92.5132 235.023C93.5975 234.452 95.538 233.939 95.538 233.939L98.8482 233.368L104.099 236.107L104.384 238.333L107.124 240.559L109.863 241.13H111.803L113.459 240.045C113.459 240.045 115.913 240.844 117.339 241.13C118.709 241.415 118.995 240.331 118.995 240.331C118.995 240.331 120.935 240.331 121.734 240.331C122.533 240.331 123.389 240.045 123.389 240.045L125.615 238.676L127.555 239.475C127.555 239.475 128.354 242.5 128.64 243.356C128.925 244.155 128.925 245.296 128.925 246.095C128.925 246.894 128.925 249.976 128.925 249.976L129.496 251.346L131.95 249.12L133.32 248.321L133.89 249.691L134.176 252.145L137.201 252.944L139.655 252.145L140.739 251.06L141.823 249.12L143.478 248.549C143.478 248.549 145.134 249.634 145.704 250.49C146.275 251.289 146.275 251.859 146.275 251.859H147.93V247.693L149.87 244.668C149.699 244.668 148.9 241.073 148.615 239.703Z" fill="#176ECC"/>
<path d="M140.624 220.639C140.624 219.27 141.708 218.185 141.708 218.185L142.507 216.245L144.162 214.304L144.447 212.364L142.507 209.91L141.708 207.17L139.482 206.086L137.028 207.17L135.088 206.086L134.003 203.346L132.063 201.977L131.093 201.691C131.036 202.148 130.978 202.662 130.978 203.061C130.978 203.86 129.323 205.287 129.323 205.287L126.013 208.026H123.559L124.13 211.622L122.475 216.016C122.475 216.016 121.676 218.242 121.676 219.041C121.676 219.84 121.676 221.495 122.247 224.007C122.817 226.461 124.187 228.972 124.187 228.972L127.497 230.912L128.581 228.173L128.867 224.577L130.522 225.662L131.321 228.686L132.691 230.342C132.691 230.342 133.49 230.342 134.346 230.342C135.145 230.342 138.455 229.543 138.455 229.543L140.11 227.602H140.224C140.567 225.947 141.48 224.292 141.48 224.292C141.48 224.292 140.624 222.066 140.624 220.639Z" fill="#96EACC"/>
<path d="M153.581 247.405L156.605 248.775L157.69 249.86L159.63 250.659C159.63 250.659 163.226 250.373 164.025 249.574C164.824 248.775 166.479 250.145 166.479 250.145L169.789 250.43L173.385 248.205L176.695 244.894L177.779 241.584V239.929C177.779 239.929 177.779 237.19 177.779 236.334C177.779 235.535 180.005 235.535 180.005 235.535L183.315 234.964L184.399 231.939C184.399 231.939 183.03 229.485 181.375 228.058C179.72 226.688 181.375 228.058 180.576 228.629C179.777 229.2 176.181 227.83 176.181 227.83C176.181 227.83 174.241 226.46 173.442 226.46C172.643 226.46 171.216 226.46 170.417 226.46C169.618 226.46 168.762 226.175 168.191 224.52C167.62 222.865 168.762 222.066 168.762 222.066L170.987 218.755L172.643 217.671L171.273 215.731V212.135C171.273 212.135 171.273 212.135 172.072 211.85C172.871 211.564 172.357 209.396 172.357 208.254C172.357 207.17 171.558 206.884 171.558 206.028C171.558 205.229 172.129 203.289 172.129 203.289V201.063L170.759 198.324C170.759 198.324 169.389 197.525 169.104 196.669C168.819 195.87 168.02 196.098 167.164 195.584C166.365 195.013 167.734 193.929 167.734 193.929L170.474 192.845L171.844 191.19L173.499 191.989L174.583 193.644L176.523 193.929L177.094 191.703C177.094 191.703 176.238 189.763 176.238 188.964C176.238 188.165 175.154 187.023 175.154 187.023L175.439 185.368L178.179 185.083L179.834 183.713L181.774 182.343L184.514 183.428L186.739 185.083L188.394 184.798L188.109 182.058L186.739 179.319L188.109 176.579L190.335 176.294L192.275 175.723L194.729 174.068L197.184 174.353L198.553 175.723L200.208 176.522L201.578 174.296L202.948 172.356L204.603 171.557L207.057 171.842L208.427 173.783L210.652 175.152L212.022 176.808L213.963 177.378L215.618 177.093H217.844L219.784 176.294V174.353C219.784 174.353 218.414 172.413 218.414 171.329C218.414 170.244 219.784 168.875 219.784 168.875L220.355 166.649L221.724 164.195L224.179 163.396L224.749 161.741L225.834 160.656H228.858L230.799 158.43L231.084 156.49H233.025L236.62 155.12L237.819 153.636C237.248 153.579 234.166 153.237 233.139 152.552C232.054 151.81 230.171 150.326 230.171 150.326L227.203 148.842L224.635 149.584C224.635 149.584 221.325 149.242 220.983 148.1C220.64 147.016 220.241 144.448 220.241 144.448L216.93 143.363L214.362 144.847H210.31L208.826 144.505V142.279L210.652 140.795L213.221 140.053L214.305 138.227C214.305 138.227 211.737 137.143 210.652 136.743C209.568 136.401 205.858 134.517 205.858 134.517L203.633 136.001C203.633 136.001 201.806 136.001 199.238 136.001C196.67 136.001 197.012 137.827 195.928 137.827C194.844 137.827 192.618 139.311 192.618 139.311L190.392 137.827C190.392 137.827 190.392 134.86 190.05 133.775C189.707 132.691 188.566 131.207 188.566 131.207L185.997 131.549C185.997 131.549 183.03 133.033 181.603 134.86V137.827L180.861 139.654L179.035 140.738C179.035 140.738 173.898 140.738 170.588 139.996C167.278 139.254 167.278 137.77 167.278 137.77C167.278 137.77 167.164 136.8 167.05 135.545C166.365 136.229 164.71 137.884 164.082 138.512C163.283 139.311 162.427 139.597 162.427 139.597L160.772 139.311L159.117 140.396L158.831 142.85L157.461 145.589C157.461 145.589 153.581 147.53 152.782 147.53C151.983 147.53 151.412 147.53 150.556 147.244C149.757 146.959 148.102 147.244 147.246 147.244C146.447 147.244 144.221 149.47 144.221 149.47L141.196 151.125L136.516 155.006L132.921 158.887L129.325 162.482C129.325 162.482 129.896 164.708 130.409 165.507C130.98 166.306 132.35 167.961 132.35 167.961L134.005 169.902L135.66 171.842L137.6 174.296V176.522L136.516 177.607H134.062L132.978 176.808L130.752 178.463L128.811 180.403L128.241 182.857L127.955 186.453C127.955 186.453 127.156 188.678 127.156 189.477C127.156 190.276 128.241 193.073 128.241 193.073L129.04 195.299L131.265 197.753V200.778C131.265 200.778 131.208 201.12 131.094 201.577L132.064 201.862L134.005 203.232L135.089 205.971L137.03 207.056L139.484 205.971L141.71 207.056L142.509 209.795L144.449 212.249L144.164 214.19L142.509 216.13L141.71 218.071C141.71 218.071 140.625 219.155 140.625 220.525C140.625 221.894 141.424 224.12 141.424 224.12C141.424 224.12 140.511 225.775 140.169 227.43L142.509 227.716L146.104 229.941C146.104 229.941 147.474 230.227 147.474 231.882C147.474 233.537 147.474 234.907 147.759 235.763C148.045 236.562 148.33 238.217 148.558 239.644C148.844 241.013 149.643 244.609 149.643 244.609L148.787 245.979L150.784 246.835L153.581 247.405Z" fill="#69BAD4"/>
<path d="M52.4473 302.252C52.4473 302.252 51.8766 303.907 51.8766 305.277C51.8766 306.646 52.961 307.731 52.961 307.731C52.961 307.731 53.5317 309.386 53.5317 310.185C53.5317 310.984 55.1868 311.554 55.1868 311.554L57.1272 310.984L59.3531 311.269L61.0081 312.353L62.9486 312.068L63.7476 309.842L66.2017 309.043L68.9411 307.388C68.9411 307.388 70.3109 305.448 70.8816 304.363C71.4523 303.279 71.1669 301.339 71.1669 301.339C71.1669 301.339 71.9659 299.113 72.5367 298.314C73.1074 297.515 76.1322 297.229 76.1322 297.229H80.2414L82.1818 297.8C82.1818 297.8 83.5516 298.884 83.8369 299.741C84.1223 300.54 85.7774 303.336 85.7774 303.336L86.3481 306.076L88.0032 307.16L89.9436 305.79L90.229 301.681L92.6831 299.227L95.1372 298.656L97.363 300.311L97.9337 303.336L96.564 305.562L97.363 307.788V310.527L95.4225 312.182L94.6235 313.552L97.363 314.408L99.3034 316.634L100.958 316.063C100.958 316.063 102.899 315.492 103.983 315.492C105.068 315.492 105.924 315.207 106.723 315.207C107.522 315.207 108.092 315.207 109.177 314.636C110.261 314.066 111.403 314.922 111.403 314.922L114.998 316.862H117.452L121.048 317.433L124.358 316.634L127.097 313.894L129.552 314.465C129.552 314.465 131.207 314.75 133.147 314.75C135.088 314.75 135.601 315.835 136.172 316.691C136.743 317.49 138.112 318.346 139.767 319.145C141.422 319.944 139.767 319.145 140.566 318.346C141.365 317.547 140.281 316.691 140.281 316.691C140.281 316.691 140.566 312.81 141.651 311.726C142.735 310.641 145.246 310.927 145.246 310.927L146.616 308.701L145.817 306.475C145.817 306.475 145.532 305.105 145.532 304.249C145.532 303.45 145.532 302.88 145.246 300.939C144.961 298.999 144.676 299.855 143.877 298.2C143.078 296.545 142.507 296.259 142.507 296.259L143.078 293.234L145.018 289.639L145.589 286.614L148.328 278.909C148.328 278.909 149.698 276.969 150.554 275.599C151.353 274.229 152.78 272.574 153.293 271.718C153.864 270.862 156.033 268.979 156.033 268.979H158.487L162.083 267.038C162.083 267.038 163.452 266.239 164.308 265.669C165.107 265.098 165.963 264.014 167.048 262.644C168.132 261.274 168.132 260.989 168.132 260.989L170.586 259.334L170.301 256.023L169.559 254.54L167.619 251.515L167.961 250.259L166.534 250.145C166.534 250.145 164.879 248.775 164.08 249.574C163.281 250.373 159.686 250.659 159.686 250.659L157.745 249.86L156.661 248.775L153.636 247.406L150.896 246.835L148.899 245.979L147.872 247.634V251.515H146.217C146.217 251.515 146.217 250.944 145.646 250.145C145.075 249.289 143.42 248.205 143.42 248.205L141.765 248.775L140.681 250.716L139.596 251.8L137.142 252.599L134.117 251.8L133.832 249.346L133.261 247.976L131.891 248.775L129.437 251.001L128.867 249.631C128.867 249.631 128.867 246.607 128.867 245.75C128.867 244.894 128.867 243.81 128.581 243.011C128.296 242.212 127.497 239.13 127.497 239.13L125.556 238.331L123.331 239.701C123.331 239.701 122.532 239.986 121.676 239.986C120.877 239.986 118.936 239.986 118.936 239.986C118.936 239.986 118.651 241.071 117.281 240.785C115.911 240.5 113.4 239.701 113.4 239.701L111.745 240.785H109.805L107.065 240.215L104.326 237.989L104.04 235.763L98.7898 233.023L95.4796 233.594C95.4796 233.594 93.5391 234.165 92.4548 234.679C91.3704 235.249 89.1446 237.703 89.1446 237.703C89.1446 237.703 89.1446 237.989 87.7749 239.358C86.4051 240.728 86.4051 241.299 85.3208 242.383C84.2364 243.468 83.3803 243.753 82.5813 244.038C81.7823 244.324 79.5565 244.609 78.7004 244.837C78.3009 244.951 76.8741 245.465 75.5615 245.865C75.7898 246.321 76.4176 247.919 75.5044 247.919C74.42 247.919 73.2786 248.661 72.1942 248.661C71.1099 248.661 68.8841 248.661 68.8841 248.661L63.3481 247.919L60.7798 249.746L61.8642 251.229L64.832 251.572L66.3158 251.914L67.0578 254.482L67.7997 258.135L70.7674 257.393L76.6458 256.651L82.8667 255.567L83.2091 257.793C83.2091 257.793 81.7252 259.277 80.6409 259.277C79.5565 259.277 78.8146 259.277 77.6731 259.277C76.5888 259.277 74.363 259.619 74.363 259.619C74.363 259.619 72.5367 260.703 73.2786 262.187C74.0205 263.671 76.5888 264.755 76.5888 264.755L78.4151 266.981L79.4994 269.549L76.1893 269.207L73.621 266.981H72.1372L69.5689 267.324L65.9163 270.976L63.6905 274.629L60.3803 275.371L55.9858 277.597L53.4176 279.822C53.4176 279.822 53.0751 281.306 53.4176 283.133C53.76 284.959 55.6434 286.1 55.6434 286.1L59.6955 285.758L66.3158 286.842L68.8841 289.068L65.9163 289.411H63.3481L61.8642 289.753L57.8121 290.495L55.2439 291.979L51.9337 294.547L49.5938 297.515C50.4498 298.428 51.1918 299.284 51.4201 299.626C51.8766 300.597 52.4473 302.252 52.4473 302.252Z" fill="#69BAD4"/>
<path d="M153.011 347.739C153.011 346.084 152.212 345.799 151.642 344.144C151.071 342.489 149.416 342.774 149.416 342.774C149.416 342.774 146.962 339.464 146.962 337.523C146.962 335.583 146.163 334.213 146.163 334.213L143.709 333.414C143.709 333.414 141.768 331.474 141.483 330.675C141.197 329.876 141.483 329.305 141.483 327.364C141.483 325.424 140.912 324.054 140.912 323.255C140.912 322.456 141.483 320.516 141.483 320.516L140.456 318.632C140.227 319.317 141.255 319.831 139.828 319.146C138.173 318.347 136.803 317.491 136.232 316.692C135.662 315.893 135.148 314.752 133.207 314.752C131.267 314.752 129.612 314.466 129.612 314.466L127.158 313.895L124.418 316.635L121.108 317.434L117.513 316.863H115.059L111.463 314.923C111.463 314.923 110.379 314.067 109.237 314.637C108.153 315.208 107.582 315.208 106.783 315.208C105.984 315.208 105.128 315.493 104.044 315.493C102.959 315.493 101.019 316.064 101.019 316.064L99.3638 316.635L97.4233 314.409L94.6839 313.553L95.4829 312.183L97.4233 310.528V307.789L96.6243 305.563L97.994 303.337L97.4233 300.312L95.1975 298.657L92.7434 299.228L90.2893 301.682L90.004 305.791L88.0635 307.161L86.4084 306.077L85.8377 303.337C85.8377 303.337 84.1826 300.598 83.8973 299.742C83.6119 298.886 82.2422 297.801 82.2422 297.801L80.3017 297.23H76.1926C76.1926 297.23 73.1677 297.516 72.597 298.315C72.0263 299.114 71.2273 301.34 71.2273 301.34C71.2273 301.34 71.5127 303.28 70.9419 304.364C70.3712 305.449 69.0015 307.389 69.0015 307.389L66.262 309.044L63.8079 309.843L63.0089 312.069L61.0685 312.355L59.4134 311.27L57.1305 311.042L55.1901 311.613C55.1901 311.613 53.535 311.042 53.535 310.243C53.535 309.444 52.9643 307.789 52.9643 307.789C52.9643 307.789 51.8799 306.704 51.8799 305.335C51.8799 303.965 52.4506 302.31 52.4506 302.31C52.4506 302.31 51.8799 300.655 51.3663 299.856C51.138 299.513 50.396 298.657 49.54 297.744L48.9692 298.486L47.4854 301.054L46.7434 303.965V306.533L44.5176 308.017L43.4333 309.501L41.607 313.154L37.9544 314.98L36.4705 318.632V320.858L40.1231 322.342L42.6913 327.479L46.3439 331.873L48.5697 333.3L47.8278 335.126L44.8601 336.953L43.3762 339.178L40.808 335.868L38.2397 336.953C38.2397 336.953 37.4978 337.694 38.2397 338.779C38.9817 339.863 38.9817 339.863 38.9817 339.863L37.1554 342.431L35.6715 344.657L33.8452 346.883L36.8129 348.709L40.1231 348.367L41.607 352.02L39.3812 355.33C39.3812 355.33 37.1554 357.156 37.1554 358.297C37.1554 359.382 37.1554 363.833 37.1554 363.833L38.2397 366.801L41.8923 368.285L44.8601 370.511L48.1702 373.079V376.047L45.2025 375.305L42.2348 371.995L38.9246 371.253L37.4407 371.995V374.221L39.267 376.789V380.441L36.2993 379.699C36.2993 379.699 35.9568 376.047 35.5573 374.905C35.2149 373.821 34.0735 370.853 34.0735 370.853L32.2472 369.369L29.2794 369.027C29.2794 369.027 27.4531 370.511 27.4531 371.595C27.4531 372.68 28.1951 375.99 28.1951 375.99L29.6789 378.9C29.6789 378.9 32.2472 381.868 33.731 383.694C35.2149 385.521 35.9568 387.005 37.0412 387.005C38.1256 387.005 40.3514 387.347 40.3514 387.347L41.8353 391.399L42.5772 395.052L44.803 396.878L43.7186 399.446L42.9767 401.672C42.9767 401.672 42.6343 402.414 42.6343 403.898C42.6343 405.382 44.1181 408.692 44.1181 408.692L45.602 411.26L48.9122 410.918C48.9122 410.918 50.7385 410.176 51.8799 408.692C52.9643 407.208 53.3638 406.124 53.7062 404.297C54.0486 402.471 55.5325 401.729 55.5325 401.729L60.669 398.761L63.6367 398.019C63.6367 398.019 65.463 396.536 65.463 395.451C65.463 394.367 66.9469 389.23 66.9469 389.23L69.9146 386.263C69.9146 386.263 70.999 388.488 70.6566 389.573C70.3141 390.657 69.9146 391.057 69.9146 392.883C69.9146 394.709 70.2571 397.278 70.6566 398.419C70.999 399.503 72.4829 400.645 72.4829 400.645C72.4829 400.645 73.5673 400.987 74.7087 400.987C75.7931 400.987 79.5027 400.245 79.5027 400.245C79.5027 400.245 80.2447 399.161 81.329 398.019C82.4134 396.935 83.1553 395.451 83.1553 395.451L84.9816 392.484L86.066 389.573V385.92L87.1504 384.094L90.1181 382.61L91.602 381.526L95.6541 379.3L99.3067 378.558L103.701 376.332L107.753 373.022L110.721 374.106L112.947 374.449L114.431 377.417L112.205 381.811L111.463 379.243L108.495 378.501L106.669 380.727V384.379L104.101 387.689L102.617 387.347L100.049 387.689C100.049 387.689 95.2546 389.173 95.2546 390.258C95.2546 391.342 96.7385 395.052 96.7385 395.052C96.7385 395.052 98.5648 395.394 99.7062 395.394C100.791 395.394 102.274 395.394 103.359 395.394C104.443 395.394 105.185 394.31 106.327 396.136C107.411 397.962 108.552 399.789 108.552 399.789L110.379 404.183L112.604 403.841C112.604 403.841 112.604 402.357 113.346 401.273C114.088 400.188 115.572 400.188 115.572 400.188C115.572 400.188 116.314 399.846 117.398 398.362C118.483 396.878 119.967 396.536 119.967 396.536V394.31C119.967 394.31 118.882 391.742 119.967 391.742C121.051 391.742 123.277 391 123.277 391L126.245 390.258L126.987 387.29L125.902 384.722L122.25 381.069C122.25 381.069 119.681 378.843 119.681 377.759C119.681 376.675 119.681 372.223 119.681 372.223L121.907 368.913L127.044 365.945H132.58C132.58 365.945 132.922 367.029 133.322 368.171C133.664 369.255 135.547 372.565 135.547 372.565L135.205 375.876L133.721 378.444V382.496L135.947 385.464L138.173 386.548L139.257 385.064V381.412L141.483 378.444H145.135L149.188 380.27L150.671 378.786V375.533C150.671 375.533 151.014 373.307 151.014 372.223C151.014 371.139 151.014 367.429 151.014 367.429L148.446 366.687C148.446 366.687 145.478 367.429 144.394 367.429C143.309 367.429 138.858 366.345 138.858 366.345L137.374 362.292L138.116 360.466H141.426H144.394L145.535 359.61L145.877 357.099L148.617 354.873C148.617 354.873 151.356 354.588 152.498 352.933C153.582 351.278 153.582 351.278 153.582 351.278C153.582 351.278 153.011 349.394 153.011 347.739ZM90.7459 333.129L89.9469 335.069C89.9469 335.069 89.1479 336.724 88.0065 337.01C86.9221 337.295 87.2074 338.094 87.2074 338.094L84.9816 337.809L83.3265 337.01L79.4457 338.094L75.8501 337.809L73.396 338.094L71.7409 336.154L69.8005 334.213L66.7757 333.414L64.3216 332.33C64.3216 332.33 64.3216 332.33 63.5226 330.96C62.7236 329.59 62.7236 328.734 62.7236 327.935C62.7236 327.136 63.8079 325.481 63.8079 325.481L65.1777 324.111C65.1777 324.111 67.6318 321.657 68.2025 320.801C68.7732 320.002 70.9419 319.717 70.9419 319.717L74.8228 321.943L79.7881 320.858C79.7881 320.858 82.0139 320.059 82.8129 320.059C83.6119 320.059 84.468 320.059 84.468 320.059L86.9221 322.285L88.8625 325.595L91.0883 327.25C91.0883 327.25 92.1727 329.191 92.1727 329.99C92.1156 330.618 90.7459 333.129 90.7459 333.129Z" fill="#043A7B"/>
<path d="M88.803 325.367L86.8626 322.057L84.4085 319.831C84.4085 319.831 83.6095 319.831 82.7534 319.831C81.9544 319.831 79.7286 320.63 79.7286 320.63L74.7633 321.714L70.8824 319.488C70.8824 319.488 68.6566 319.774 68.143 320.573C67.5723 321.372 65.1182 323.883 65.1182 323.883L63.7484 325.253C63.7484 325.253 62.6641 326.908 62.6641 327.707C62.6641 328.563 62.6641 329.362 63.4631 330.731C64.2621 332.101 64.2621 332.101 64.2621 332.101L66.7162 333.186L69.741 333.985L71.6814 335.925L73.3365 337.865L75.7906 337.58L79.3861 337.865L83.267 336.781L84.9221 337.58L87.1479 337.865C87.1479 337.865 86.8626 337.066 87.9469 336.781C89.0313 336.496 89.8874 334.841 89.8874 334.841L90.6864 332.9C90.6864 332.9 92.0561 330.446 92.0561 329.59C92.0561 328.734 90.9717 326.851 90.9717 326.851L88.803 325.367Z" fill="#69BAD4"/>
<path d="M278.109 323.483L277.025 322.114L274 321.543L271.546 321.828L270.176 322.627L267.437 323.712C267.437 323.712 266.866 323.141 266.352 323.997C265.782 324.796 264.983 326.223 263.613 327.022C262.243 327.821 263.042 328.677 260.588 328.962C258.134 329.248 258.134 329.248 258.134 329.248C258.134 329.248 257.05 330.332 256.194 331.188C255.395 331.987 253.968 333.642 253.968 333.642C253.968 333.642 253.397 333.928 251.742 334.213C250.087 334.498 249.516 334.213 248.432 334.784C247.347 335.354 244.836 335.868 244.836 335.868C244.836 335.868 243.466 336.724 242.61 338.094C241.811 339.464 243.409 338.379 241.811 339.464C240.156 340.548 238.787 339.749 238.216 340.548C237.645 341.404 238.216 339.977 237.645 341.404C237.074 342.774 238.444 343.059 238.444 343.858C238.444 344.657 238.73 346.084 238.73 346.084C238.73 346.084 238.159 347.454 237.645 348.538C237.474 348.823 237.189 349.451 236.789 350.193H237.873H240.442H244.494L247.462 349.451L249.687 348.367L250.03 352.419L252.598 352.761L255.166 352.419L258.134 353.503L258.876 350.536L261.844 350.193L264.811 347.625C269.206 346.54 271.032 343.23 271.032 343.23L273.258 337.694L274.342 335.469L276.568 331.816L278.395 329.248L280.278 328.392C279.65 327.65 279.136 327.022 279.136 327.022L278.109 323.483Z" fill="#69BAD4"/>
<path d="M289.695 295.062L285.015 294.491L283.075 295.861L280.335 296.431C280.335 296.431 280.05 296.146 279.536 295.347C278.966 294.548 277.596 292.322 277.596 292.322L276.511 290.096C276.511 290.096 275.941 290.382 273.487 289.526C271.033 288.727 271.032 288.727 271.032 288.727L268.807 288.156C268.807 288.156 268.236 287.585 267.437 288.156C266.638 288.727 264.983 289.811 264.983 289.811C264.983 289.811 263.899 290.096 263.042 291.752C262.243 293.407 261.958 295.062 261.958 295.062L259.732 295.347L258.077 297.573C258.077 297.573 258.876 300.883 258.077 301.168C257.278 301.454 255.623 302.253 255.623 302.253C255.623 302.253 255.052 304.479 255.338 305.278C255.623 306.077 259.219 308.302 259.219 308.302L261.673 308.588L263.328 310.814C263.328 310.814 265.554 311.613 265.782 312.469C266.067 313.268 266.581 314.124 267.722 315.208C268.807 316.292 269.377 316.007 269.948 316.863C270.519 317.662 271.889 318.518 271.889 318.518C271.889 318.518 272.688 319.888 272.688 320.744C272.688 320.915 272.745 321.258 272.802 321.714L274.057 321.6L277.082 322.171L278.166 323.541L278.966 327.136C278.966 327.136 279.536 327.764 280.107 328.506L282.276 327.536L284.102 324.568L284.444 322.342L284.787 319.374L285.871 316.464L288.097 313.895H289.581L292.549 310.585L293.291 305.049L294.032 299.171V297.687L294.318 297.059L292.72 296.774L289.695 295.062Z" fill="#DCF193"/>
<path d="M252.485 294.776C250.83 294.49 250.259 294.776 250.259 294.776L248.318 296.146C248.318 296.146 245.864 297.515 245.008 297.515C244.209 297.515 242.782 299.17 242.782 299.17L239.758 300.255H235.648C235.648 300.255 232.909 299.684 232.338 298.885C231.768 298.086 229.313 298.6 229.313 298.6L227.088 297.744L223.777 299.113L222.122 297.744L220.753 294.719L219.383 292.265L217.728 288.669L215.502 291.979C215.502 291.979 211.621 293.064 210.822 293.064C210.023 293.064 208.083 293.634 208.083 293.634H205.343L203.117 293.064C203.117 293.064 199.807 291.979 199.008 291.409C198.209 290.838 194.614 290.838 193.758 290.838C192.959 290.838 191.304 290.838 191.304 290.838L188.849 289.468L190.505 287.014L191.874 284.275L192.445 282.049L191.646 279.309L188.907 277.94C188.907 277.94 187.822 276.855 187.251 275.485C186.681 274.116 186.167 273.83 185.882 272.175C185.596 270.52 184.797 271.091 184.797 271.091H182.572L177.036 270.52L175.095 268.294L172.869 267.495L171.214 266.126L167.562 261.902C167.447 262.074 167.276 262.302 167.048 262.53C165.964 263.9 165.108 264.984 164.309 265.555C163.452 266.126 162.083 266.925 162.083 266.925L158.487 268.865H156.033C156.033 268.865 153.807 270.806 153.294 271.605C152.723 272.404 151.353 274.059 150.554 275.485C149.755 276.855 148.328 278.796 148.328 278.796L145.589 286.5L145.018 289.525L143.078 293.121L142.507 296.146C142.507 296.146 143.078 296.431 143.877 298.086C144.676 299.741 144.961 298.885 145.247 300.825C145.532 302.766 145.532 303.279 145.532 304.136C145.532 304.935 145.817 306.361 145.817 306.361L146.616 308.587L145.247 310.813C145.247 310.813 142.792 310.528 141.651 311.612C140.567 312.696 140.281 316.577 140.281 316.577C140.281 316.577 141.366 317.376 140.567 318.232C140.452 318.346 140.395 318.461 140.338 318.575L141.366 320.458C141.366 320.458 140.795 322.399 140.795 323.198C140.795 324.054 141.366 325.423 141.366 327.307C141.366 329.247 141.08 329.761 141.366 330.617C141.651 331.416 143.591 333.356 143.591 333.356L146.046 334.155C146.046 334.155 146.845 335.525 146.845 337.466C146.845 339.406 149.299 342.716 149.299 342.716C149.299 342.716 150.954 342.431 151.524 344.086C152.095 345.741 152.894 346.026 152.894 347.681C152.894 349.337 153.18 351.277 153.18 351.277C153.18 351.277 153.18 351.277 152.095 352.932C151.011 354.587 148.214 354.872 148.214 354.872L145.475 357.098L145.132 359.609L145.475 359.381L147.301 360.466L150.269 362.691L152.495 362.349L153.579 358.696L157.974 357.612H159.8L163.11 356.528L165.336 355.044L170.13 354.701C170.13 354.701 172.356 355.044 172.698 353.217C173.041 351.391 174.182 349.165 174.182 349.165H175.666L176.75 352.076V355.386L175.666 360.18L177.492 362.006L179.318 363.833L183.371 364.175H185.596L188.564 362.349H191.132L194.1 363.833L197.068 361.607L197.81 364.175L195.242 365.659L194.899 367.885C194.899 367.885 195.983 368.627 197.467 368.627C198.951 368.627 201.862 368.627 201.862 368.627L201.12 371.195L197.068 373.021L196.725 374.505C196.725 374.505 199.693 375.247 200.036 377.073C200.378 378.9 202.261 380.726 202.261 380.726L205.914 380.384C205.914 380.384 206.656 378.557 206.656 377.416C206.656 376.332 206.656 373.364 206.656 373.364L208.882 370.796L209.224 369.312L207.398 367.086L205.172 364.518V361.607C205.172 361.607 204.83 359.781 205.914 358.639C206.998 357.555 209.567 356.413 209.567 356.413L210.651 354.587L210.309 351.619L209.51 348.709L213.904 347.624C213.904 347.624 216.13 346.882 217.214 347.624C218.299 348.366 219.782 350.592 219.782 350.592L222.008 348.766L220.924 343.972L221.666 341.404C221.666 341.404 223.15 341.404 224.234 342.145C225.318 342.887 228.286 345.113 228.286 345.113C228.286 345.113 230.512 345.456 230.854 346.597C231.197 347.681 234.907 350.25 234.907 350.25H236.79C237.189 349.508 237.532 348.88 237.646 348.595C238.217 347.51 238.73 346.14 238.73 346.14C238.73 346.14 238.445 344.771 238.445 343.915C238.445 343.116 237.075 342.83 237.646 341.461C238.217 340.091 237.646 341.461 238.217 340.605C238.787 339.806 240.157 340.605 241.812 339.52C243.467 338.436 241.812 339.52 242.611 338.15C243.41 336.781 244.837 335.925 244.837 335.925C244.837 335.925 247.291 335.354 248.433 334.84C249.517 334.27 250.088 334.555 251.743 334.27C253.398 333.984 253.969 333.699 253.969 333.699C253.969 333.699 255.338 332.044 256.194 331.245C256.993 330.446 258.135 329.304 258.135 329.304C258.135 329.304 258.135 329.304 260.589 329.019C263.043 328.734 262.244 327.935 263.614 327.078C264.983 326.222 265.84 324.853 266.353 324.054C266.924 323.198 267.438 323.768 267.438 323.768L270.177 322.684L271.547 321.885L272.745 321.771C272.688 321.314 272.631 320.972 272.631 320.801C272.631 320.002 271.832 318.575 271.832 318.575C271.832 318.575 270.462 317.776 269.892 316.92C269.321 316.121 268.807 316.349 267.666 315.265C266.581 314.18 266.011 313.324 265.725 312.525C265.44 311.669 263.271 310.87 263.271 310.87L261.616 308.644L259.162 308.359C259.162 308.359 255.567 306.133 255.281 305.334C254.996 304.535 255.567 302.309 255.567 302.309C255.567 302.309 257.222 301.51 258.021 301.225C258.82 300.94 258.021 297.629 258.021 297.629L258.877 296.488C258.648 296.431 258.42 296.317 258.306 296.203C257.45 295.632 254.14 295.061 252.485 294.776Z" fill="#176ECC"/>
<path d="M220.01 284.904L222.236 283.819L225.261 283.534L226.631 286.559L229.37 286.844L231.824 285.76C231.824 285.76 232.11 283.306 232.11 282.45C232.11 281.651 233.194 279.139 233.194 279.139C233.194 279.139 233.765 278.055 233.993 277.199C234.278 276.4 234.278 275.829 234.278 274.973C234.278 274.174 234.278 273.033 234.278 273.033L235.077 271.378C235.077 271.378 235.077 271.378 237.303 271.378C239.529 271.378 239.529 270.008 239.529 270.008L238.958 268.353L237.589 266.127L238.388 264.187V261.961C238.388 261.961 237.817 259.735 237.303 258.936C236.732 258.08 233.993 257.852 233.993 257.852H228.457L224.576 260.077L221.551 262.531L220.467 264.986L219.383 267.211L216.928 266.926L216.643 264.187L215.273 263.388L211.678 263.958L209.224 266.412L208.139 267.782L209.509 270.008L213.39 270.807L215.33 271.891V274.117L213.39 275.201L210.08 275.772L208.71 279.368L210.365 282.678L210.936 284.618L209.852 285.988L208.482 287.072L206.541 285.703H205.457L205.742 287.643L206.541 289.584L207.911 290.953L208.196 293.693C208.196 293.693 210.137 293.122 210.936 293.122C211.735 293.122 215.616 292.038 215.616 292.038L217.842 288.727L218.241 289.584L218.698 287.643L220.01 284.904Z" fill="#130088"/>
<path d="M303.967 257.222L302.483 258.706L300.999 260.932L298.773 263.158L296.548 263.9C296.548 263.9 293.637 264.242 292.895 263.158C292.153 262.073 292.153 262.073 292.153 262.073L290.669 258.763L292.495 256.937L293.237 253.627C293.237 253.627 293.237 251.058 292.495 249.575C291.753 248.091 290.669 245.18 290.669 245.18C290.669 245.18 290.669 244.838 290.669 243.354C290.669 241.87 290.669 241.128 290.669 239.302C290.669 237.475 290.669 238.56 291.012 235.649C291.354 232.681 292.495 231.254 292.495 230.113C292.495 229.029 294.322 226.803 294.322 226.803L296.148 222.751L297.232 219.441C297.232 219.441 298.317 217.215 298.317 215.046C298.317 212.82 297.974 210.651 297.232 209.168C296.49 207.684 296.49 207.684 296.49 207.684C296.49 207.684 295.749 205.857 297.232 202.148C298.716 198.495 300.885 195.527 300.885 195.527L301.627 192.56L301.284 188.907L299.801 184.113C299.801 184.113 297.575 180.46 297.575 179.319C297.575 178.235 297.232 173.783 297.232 171.614C297.232 169.388 299.059 166.078 299.059 164.994C299.059 163.91 299.401 159.115 299.059 158.031C298.716 156.947 297.232 155.463 296.833 154.379C296.548 153.522 295.806 151.81 295.349 150.555L291.696 152.153L287.302 153.237L285.076 156.205L283.25 159.515C283.25 159.515 281.766 159.173 279.94 158.031C278.113 156.947 277.714 154.379 277.714 154.379L273.319 154.036L270.351 155.862H267.384C267.384 155.862 264.816 155.12 263.731 154.778C262.647 154.436 261.505 154.036 261.505 154.036L259.679 154.379L257.453 155.862L256.369 157.346L254.143 156.604L253.401 154.036L250.433 152.552H248.95L245.982 154.379L245.639 156.604L243.071 156.947L239.019 155.463L237.535 153.637C237.535 153.637 237.478 153.637 237.421 153.637L236.222 155.12L232.627 156.49H230.686L230.401 158.431L228.461 160.656H225.436L224.351 161.741L223.781 163.396L221.327 164.195L219.957 166.649L219.386 168.875C219.386 168.875 218.016 170.245 218.016 171.329C218.016 172.413 219.386 174.354 219.386 174.354V176.294L217.446 177.093H215.22L213.565 177.379L211.624 176.808L210.255 175.153L208.029 173.783L206.659 171.843L204.205 171.557L202.55 172.356L201.18 174.297L199.811 176.522L198.155 175.723L196.786 174.354L194.332 174.068L191.878 175.723L189.937 176.294L187.711 176.579L186.342 179.319L187.711 182.058L187.997 184.798L186.342 185.083L184.116 183.428L181.376 182.344L179.436 183.713L177.781 185.083L175.041 185.369L174.756 187.024C174.756 187.024 175.84 188.108 175.84 188.964C175.84 189.763 176.696 191.704 176.696 191.704L176.126 193.929L174.185 193.644L173.101 191.989L171.446 191.19L170.076 192.845L167.337 193.929C167.337 193.929 165.967 195.014 166.766 195.584C167.565 196.155 168.421 195.87 168.706 196.669C168.992 197.468 170.361 198.324 170.361 198.324L171.731 201.063V203.289C171.731 203.289 171.16 205.23 171.16 206.029C171.16 206.828 171.959 207.113 171.959 208.254C171.959 209.339 172.53 211.565 171.674 211.85C170.875 212.135 170.875 212.135 170.875 212.135V215.731L172.245 217.671L170.59 218.756L168.364 222.066C168.364 222.066 167.28 222.865 167.793 224.52C168.364 226.175 169.163 226.46 170.019 226.46C170.818 226.46 172.245 226.46 173.044 226.46C173.843 226.46 175.783 227.83 175.783 227.83C175.783 227.83 179.379 229.2 180.178 228.629C180.977 228.058 179.379 226.689 180.977 228.058C182.632 229.428 184.002 231.939 184.002 231.939L182.917 234.964L179.607 235.535C179.607 235.535 177.381 235.535 177.381 236.334C177.381 237.133 177.381 239.929 177.381 239.929V241.584L176.297 244.895L172.987 248.205L169.391 250.431L167.508 250.259L167.165 251.515L169.106 254.54L169.905 255.909L170.19 259.22L167.736 260.875C167.736 260.875 167.736 261.046 167.108 261.902L170.761 266.125L172.416 267.495L174.642 268.294L176.582 270.52L182.118 271.091H184.344C184.344 271.091 185.143 270.52 185.428 272.175C185.714 273.83 186.227 274.115 186.798 275.485C187.369 276.855 188.453 277.939 188.453 277.939L191.193 279.309L191.992 282.048L191.421 284.274L190.051 287.014L188.396 289.468L190.85 290.838C190.85 290.838 192.505 290.838 193.304 290.838C194.16 290.838 197.699 290.838 198.555 291.408C199.354 291.979 202.664 293.063 202.664 293.063L204.89 293.634H207.629L207.344 290.895L205.974 289.525L205.175 287.584L204.89 285.644H205.974L207.915 287.014L209.284 285.929L210.369 284.56L209.798 282.619L208.143 279.309L209.513 275.713L212.823 275.143L214.763 274.058V271.833L212.823 270.748L208.942 269.949L207.572 267.723L208.657 266.354L211.111 263.9L214.706 263.329L216.076 264.128L216.361 266.867L218.815 267.153L219.9 264.927L220.984 262.473L224.009 260.019L227.89 257.793H233.426C233.426 257.793 236.165 258.078 236.736 258.877C237.307 259.676 237.82 261.902 237.82 261.902V264.128L237.021 266.068L238.391 268.294L238.962 269.949C238.962 269.949 238.962 271.319 236.736 271.319C234.51 271.319 234.51 271.319 234.51 271.319L233.711 272.974C233.711 272.974 233.711 274.058 233.711 274.914C233.711 275.713 233.711 276.284 233.426 277.14C233.141 277.939 232.627 279.081 232.627 279.081C232.627 279.081 231.543 281.535 231.543 282.391C231.543 283.19 231.257 285.701 231.257 285.701L228.803 286.785L226.064 286.5L224.694 283.475L221.669 283.761L219.443 284.845L218.074 287.584L217.617 289.525L218.873 292.264L220.242 294.718L221.612 297.743L223.267 299.113L226.577 297.743L228.803 298.599C228.803 298.599 231.257 298.029 231.828 298.885C232.399 299.741 235.138 300.254 235.138 300.254H239.247L242.272 299.17C242.272 299.17 243.642 297.515 244.498 297.515C245.297 297.515 247.808 296.145 247.808 296.145L249.749 294.775C249.749 294.775 250.319 294.49 251.974 294.775C253.629 295.061 256.94 295.575 257.739 296.145C257.853 296.259 258.081 296.316 258.309 296.431L259.108 295.346L261.334 295.061C261.334 295.061 261.619 293.406 262.418 291.751C263.217 290.096 264.359 289.81 264.359 289.81C264.359 289.81 266.014 288.726 266.813 288.155C267.612 287.584 268.183 288.155 268.183 288.155L270.409 288.726C270.409 288.726 270.409 288.726 272.863 289.525C275.317 290.381 275.887 290.096 275.887 290.096L276.972 292.321C276.972 292.321 278.342 294.547 278.912 295.346C279.483 296.145 279.711 296.431 279.711 296.431L282.451 295.86L284.391 294.49L289.071 295.061L292.096 296.716L293.694 297.001L297.461 289.182L298.545 283.304L299.287 277.768L300.029 274.8L301.113 273.316L303.682 268.522L305.165 265.212L305.508 260.818L303.967 257.222Z" fill="#96EACC"/>
<path d="M28.7076 383.637L27.6233 386.205L25.055 388.031L22.8292 388.374C22.8292 388.374 22.4868 388.716 20.261 389.858C18.0352 390.942 16.9508 390.942 16.2089 392.083C15.4669 393.168 14.3826 392.825 13.9831 394.652C13.6406 396.478 13.6406 397.962 13.6406 397.962C13.6406 397.962 13.9831 399.788 14.725 400.93C15.4669 402.014 12.4992 400.587 15.4669 402.014C18.4347 403.498 18.4347 403.84 21.0029 403.498C23.5711 403.098 26.8813 402.356 26.8813 402.356C26.8813 402.356 27.6233 401.272 29.1071 401.272C30.591 401.272 33.1592 401.614 33.5017 400.188C33.8441 398.704 33.5017 398.361 34.2436 397.22C34.9855 396.135 36.0699 392.825 36.0699 392.825L34.9855 388.773L32.7597 386.205L28.7076 383.637Z" fill="#043A7B"/>
<path d="M21.0012 325.141L17.691 325.426L15.2369 327.652C15.2369 327.652 13.8672 329.022 13.8672 329.878C13.8672 330.677 14.9516 333.188 14.9516 333.188L17.691 333.473L20.1451 332.674L21.5148 329.649L22.3138 327.709L21.0012 325.141Z" fill="#043A7B"/>
<path d="M33.9592 325.367L31.2197 327.308C31.2197 327.308 30.9344 328.392 29.85 329.248C28.7656 330.047 26.5398 330.332 26.5398 330.332L25.1701 330.047L24.3711 331.988C24.3711 331.988 25.1701 333.357 26.0262 333.928C26.8252 334.499 28.252 334.213 28.4803 335.012C28.7656 335.811 29.85 337.466 29.85 337.466L31.2197 337.752L32.5895 336.382L34.2445 334.727L35.8996 333.643L37.5547 333.072L38.9244 331.702L39.2098 329.476L38.9244 326.737L35.6143 325.938L33.9592 325.367Z" fill="#043A7B"/>
<path d="M22.3701 334.215L20.4297 335.014V337.525L22.0848 339.18L23.2262 340.835L25.1096 341.92L25.6803 340.835L25.9657 338.324V336.441L22.3701 334.215Z" fill="#043A7B"/>
<path d="M19.6332 340.832L19.0625 343.286L20.7176 344.428L21.802 343.286V341.631L20.7176 340.832H19.6332Z" fill="#043A7B"/>
<path d="M32.8719 349.621H35.0977L36.182 350.705L36.4674 352.361L37.0381 354.016V355.671L35.0977 357.897L32.6436 356.241C32.6436 356.241 31.8446 355.956 30.9885 355.956C30.1895 355.956 26.3086 354.586 26.3086 354.586L26.8793 353.217H29.3334L31.2739 352.418L32.8719 349.621Z" fill="#043A7B"/>
<path d="M12.4432 345.512L8.84766 347.738V351.333C8.84766 351.333 10.2174 353.559 11.0735 352.988C11.8725 352.417 13.0139 352.417 13.8129 352.189C14.6119 351.904 16.267 349.963 16.267 349.963L15.9816 346.653L12.4432 345.512Z" fill="#043A7B"/>
<path d="M18.2641 351.277L16.609 352.362L14.3832 354.017L13.8125 356.471C13.8125 356.471 15.7529 357.555 16.552 357.555C17.351 357.555 19.006 355.9 19.006 355.9L20.3758 353.96V352.875L19.5768 351.506L18.2641 351.277Z" fill="#043A7B"/>
<path d="M17.4085 361.207C17.4085 361.207 14.6691 362.006 14.9544 362.862C15.2398 363.661 16.8949 364.803 16.8949 364.803L18.8353 366.458L21.0611 367.827C21.0611 367.827 21.8601 366.971 22.1455 366.172C22.4309 365.373 21.3465 362.862 21.3465 362.862L17.4085 361.207Z" fill="#043A7B"/>
<path d="M6.1067 357.098L4.16625 358.753C4.16625 358.753 0.28536 358.182 0.28536 359.323C0.28536 360.408 0 362.919 0 362.919H2.73945C2.73945 362.919 4.6799 361.835 5.47891 361.835C6.27791 361.835 8.50372 360.979 8.50372 360.979L7.70471 357.668L6.1067 357.098Z" fill="#043A7B"/>
<path d="M5.59163 364.234L2.56681 366.46L1.99609 370.056L4.2219 371.425C4.2219 371.425 7.24671 371.996 7.24671 370.341C7.24671 368.686 8.04572 365.376 8.04572 365.376L5.59163 364.234Z" fill="#043A7B"/>
<path d="M18.5479 370.852C18.5479 370.852 16.3221 371.651 16.0938 373.306C15.8084 374.961 17.1782 377.187 17.1782 377.187H19.9176L23.2278 373.876L21.8581 371.422L18.5479 370.852Z" fill="#043A7B"/>
<path d="M11.9267 374.734C11.9267 374.734 10.2717 376.104 10.557 376.96C10.8424 377.759 10.8424 380.841 10.8424 380.841L9.47266 383.581C9.47266 383.581 10.0434 386.605 10.557 385.806C11.1277 385.007 12.4975 383.581 12.4975 383.581C12.4975 383.581 14.9516 382.496 14.9516 381.64C14.9516 380.841 14.1526 378.045 14.1526 378.045L13.5818 375.819L11.9267 374.734Z" fill="#043A7B"/>
<path d="M60.4391 402.586L57.1289 403.956V407.551C57.1289 407.551 57.9279 410.005 58.784 410.861C59.583 411.66 60.1537 412.802 61.5234 413.087C62.8932 413.373 65.918 413.087 65.918 413.087C65.918 413.087 65.3473 411.717 66.717 411.717C68.0867 411.717 68.3721 411.432 69.1711 412.003C69.9701 412.574 71.3969 413.087 72.1959 413.087C72.9949 413.087 74.1363 412.003 74.1363 411.147C74.1363 410.348 73.052 408.407 73.052 408.407L69.1711 408.693L64.7765 407.837L63.1215 404.526L60.4391 402.586Z" fill="#043A7B"/>
<path d="M69.5131 400.359L67.2873 401.729L66.4883 404.469C66.4883 404.469 66.7736 405.553 68.4287 405.553C70.0838 405.553 72.8233 404.183 72.8233 404.183L71.4535 401.729L69.5131 400.359Z" fill="#043A7B"/>
<path d="M75.8495 403.098C75.8495 403.098 74.7651 405.323 75.2787 406.122C75.8495 406.921 76.3631 408.348 78.0182 408.348C79.6733 408.348 81.3284 408.063 81.3284 407.264C81.3284 406.465 81.043 404.239 81.043 404.239L77.4475 403.668L75.8495 403.098Z" fill="#043A7B"/>
<path d="M86.0631 406.695L85.207 408.636L86.8621 411.09L89.8869 411.375L92.1127 409.72L90.743 408.35L87.9465 407.494L86.0631 406.695Z" fill="#043A7B"/>
<path d="M101.757 396.48L97.6479 397.279C97.6479 397.279 95.7074 397.279 95.4221 398.078C95.1367 398.877 95.1367 398.649 95.1367 400.304C95.1367 401.959 95.1367 401.959 95.1367 401.959L98.1615 402.758C98.1615 402.758 101.186 402.758 102.042 402.758C102.841 402.758 103.983 402.188 103.983 402.188L105.353 399.448L105.067 397.793L101.757 396.48Z" fill="#043A7B"/>
<path d="M124.073 394.023L122.703 395.679L123.274 398.418L126.013 400.073L126.812 397.847L125.443 395.393L124.073 394.023Z" fill="#043A7B"/>
<path d="M150.555 382.152C150.555 382.152 147.53 382.723 147.245 383.522C146.959 384.321 146.16 384.606 146.16 385.976C146.16 387.346 146.16 389.001 146.16 389.001L148.9 391.74H151.639L152.438 388.716V385.976L152.723 383.522L150.555 382.152Z" fill="#043A7B"/>
<path d="M142.566 390.43L139.484 391.286V393.74L141.139 394.311L143.365 393.455L143.651 391.514L142.566 390.43Z" fill="#043A7B"/>
<path d="M162.083 359.039L159.344 360.694C159.344 360.694 156.604 362.064 156.033 362.92C155.463 363.719 155.234 366.23 155.234 366.23L155.52 368.97L157.46 371.424L156.661 375.305L157.46 378.329C157.46 378.329 158.83 379.128 159.914 378.9C160.999 378.615 162.654 378.101 162.654 378.101L165.108 374.791C165.108 374.791 166.192 376.731 166.192 377.53C166.192 378.329 166.991 379.471 166.991 379.471L169.445 380.042C169.445 380.042 172.185 381.411 173.041 381.411C173.84 381.411 174.125 379.756 174.125 379.756L174.924 377.017V373.707V371.252L172.698 370.682L168.818 370.111L166.078 368.741L163.624 366.287V364.632L164.708 362.406L164.423 359.096H162.083V359.039Z" fill="#176ECC"/>
<path d="M172.301 361.207C172.301 361.207 169.276 361.778 168.991 362.577C168.705 363.376 167.336 365.602 168.192 366.172C168.991 366.743 171.217 367.827 171.217 367.827C171.217 367.827 174.527 368.398 175.326 368.626C176.125 368.912 177.552 366.172 177.552 366.172L174.241 364.232V362.577L172.301 361.207Z" fill="#176ECC"/>
<path d="M220.524 365.888L216.415 364.519C216.415 364.519 213.39 364.804 212.534 365.318C211.735 365.888 210.309 367.543 210.309 368.342C210.309 369.141 211.165 372.452 211.165 372.452L213.619 374.677L216.358 372.737L218.584 372.166C218.584 372.166 219.668 375.476 218.869 375.762C218.07 376.047 216.13 376.561 216.13 376.561V378.216L217.785 379.015V381.754L216.701 384.208L218.926 385.863L221.666 385.064L222.465 381.469L223.549 377.873L225.49 375.648L227.716 378.387H229.371L230.455 376.161L229.656 374.221V372.28L231.596 370.911L232.167 369.541L231.882 368.171L229.142 369.256L227.487 367.886L229.428 365.66L230.227 363.72L228.857 360.98L228.058 358.754L229.142 356.529L228.058 353.789C228.058 353.789 226.403 354.36 226.118 355.444C225.832 356.528 225.033 357.67 225.033 357.67L223.378 356.871L221.438 356.3L221.152 359.896L221.723 361.265L219.783 362.064L220.524 365.888Z" fill="#176ECC"/>
<path d="M240.385 352.648C240.385 352.648 236.504 353.219 236.504 354.018C236.504 354.817 237.874 357.614 237.874 357.614L240.613 357.328L241.184 354.589L240.385 352.648Z" fill="#176ECC"/>
<path d="M208.941 375.819C208.941 375.819 208.941 378.273 208.941 379.129C208.941 379.985 211.395 379.129 211.395 379.129V376.104L210.026 375.02L208.941 375.819Z" fill="#176ECC"/>
<path d="M55.1887 205.516L52.4492 207.171L53.5336 209.625L57.1291 209.111V206.315L55.1887 205.516Z" fill="#176ECC"/>
<path d="M147.758 394.539L145.304 395.909C145.304 395.909 144.733 397.564 145.589 398.135C146.388 398.705 148.328 400.075 148.328 400.075L151.353 401.159L151.924 398.934L151.125 396.708L147.758 394.539Z" fill="#043A7B"/>
<path d="M54.6402 440.253L50.5881 442.821L45.4516 442.479L41.0571 445.447C41.0571 445.447 39.9727 446.931 38.8313 447.273C37.7469 447.615 35.8636 449.499 35.8636 449.499L32.211 452.809L28.5583 455.035L27.8164 459.087V463.139L30.7842 468.675L34.8362 470.501L38.4889 470.159L39.9727 467.591C39.9727 467.591 43.6253 467.933 44.7668 467.933C45.8511 467.933 46.9926 467.591 52.871 468.275C58.7494 469.017 63.5434 469.017 63.5434 469.017L67.1961 467.933C67.1961 467.933 70.5062 466.849 72.3325 466.849C74.1588 466.849 78.5534 466.849 78.5534 466.849L83.3474 464.623L86.6576 462.397L88.4839 459.429L91.0521 457.603L92.1365 452.809V445.846L88.4839 440.31L80.0372 437L77.8114 438.084L71.5906 438.826H66.4541L62.402 439.568L54.6402 440.253Z" fill="#DCF193"/>
<g filter="url(#filter0_d_1093_145175)">
<rect x="105.816" y="78" width="34" height="18" rx="9" fill="white" fill-opacity="0.9" shape-rendering="crispEdges"/>
<path d="M118.483 86.28H121.255V87.028H118.483V86.28ZM116.085 83.772H116.833V85.543C116.833 87.776 115.656 89.91 114.083 90.757L113.5 90.031C114.963 89.305 116.085 87.391 116.085 85.543V83.772ZM116.261 83.772H116.998V85.543C116.998 87.358 118.12 89.162 119.561 89.844L119.022 90.581C117.416 89.767 116.261 87.721 116.261 85.543V83.772ZM120.804 82.903H121.706V92.869H120.804V82.903ZM127.117 87.589H128.019V89.118H127.117V87.589ZM127.579 83.035C129.768 83.035 131.077 83.64 131.077 84.751C131.077 85.862 129.768 86.478 127.579 86.478C125.379 86.478 124.081 85.862 124.081 84.751C124.081 83.64 125.379 83.035 127.579 83.035ZM127.579 83.728C125.951 83.728 125.016 84.102 125.016 84.751C125.016 85.411 125.951 85.785 127.579 85.785C129.196 85.785 130.131 85.411 130.131 84.751C130.131 84.102 129.196 83.728 127.579 83.728ZM123.08 87.116H132.067V87.864H123.08V87.116ZM124.169 88.777H130.923V91.021H125.093V92.231H124.191V90.361H130.021V89.481H124.169V88.777ZM124.191 92.033H131.22V92.748H124.191V92.033Z" fill="#222222"/>
</g>
<g filter="url(#filter1_d_1093_145175)">
<rect x="57.125" y="75" width="34" height="18" rx="9" fill="white" fill-opacity="0.9" shape-rendering="crispEdges"/>
<path d="M72.0579 79.925H72.9819V87.185H72.0579V79.925ZM66.5909 88.89H73.2789V89.638H66.5909V88.89ZM66.5909 86.437H67.4929V89.143H66.5909V86.437ZM67.6469 80.607C69.1319 80.607 70.2319 81.619 70.2319 83.06C70.2319 84.49 69.1319 85.513 67.6469 85.513C66.1619 85.513 65.0509 84.49 65.0509 83.06C65.0509 81.619 66.1619 80.607 67.6469 80.607ZM67.6469 81.399C66.6789 81.399 65.9419 82.081 65.9419 83.06C65.9419 84.028 66.6789 84.71 67.6469 84.71C68.6149 84.71 69.3519 84.028 69.3519 83.06C69.3519 82.081 68.6149 81.399 67.6469 81.399ZM76.875 81.784H77.623V82.279C77.623 84.072 76.534 85.546 74.873 86.129L74.422 85.414C75.896 84.908 76.875 83.676 76.875 82.279V81.784ZM77.029 81.784H77.788V82.279C77.788 83.599 78.8 84.765 80.274 85.227L79.823 85.953C78.162 85.403 77.029 83.995 77.029 82.279V81.784ZM74.675 81.245H79.977V81.982H74.675V81.245ZM76.875 79.98H77.788V81.52H76.875V79.98ZM79.647 82.972H82.155V83.731H79.647V82.972ZM81.66 79.925H82.573V87.339H81.66V79.925ZM76.226 88.89H82.848V89.638H76.226V88.89ZM76.226 86.679H77.139V89.297H76.226V86.679Z" fill="#222222"/>
</g>
<g filter="url(#filter2_d_1093_145175)">
<rect x="92.125" y="173" width="34" height="18" rx="9" fill="white" fill-opacity="0.9" shape-rendering="crispEdges"/>
<path d="M103.747 181.467H105.65V182.226H103.747V181.467ZM101.888 178.849H102.603V180.741C102.603 182.82 101.734 184.833 100.282 185.724L99.7099 185.031C101.074 184.228 101.888 182.446 101.888 180.741V178.849ZM102.064 178.849H102.768V180.708C102.768 182.303 103.516 183.997 104.825 184.789L104.297 185.504C102.867 184.624 102.064 182.644 102.064 180.708V178.849ZM107.399 177.914H108.279V187.858H107.399V177.914ZM105.386 178.123H106.244V187.363H105.386V178.123ZM113.426 181.445H114.328V183.293H113.426V181.445ZM109.389 182.864H118.376V183.601H109.389V182.864ZM113.877 184.415C116.011 184.415 117.287 185.031 117.287 186.131C117.287 187.231 116.011 187.836 113.877 187.836C111.743 187.836 110.467 187.231 110.467 186.131C110.467 185.031 111.743 184.415 113.877 184.415ZM113.877 185.119C112.315 185.119 111.391 185.482 111.391 186.131C111.391 186.78 112.315 187.132 113.877 187.132C115.45 187.132 116.363 186.78 116.363 186.131C116.363 185.482 115.45 185.119 113.877 185.119ZM113.294 178.728H114.108V179.025C114.108 180.62 112.282 181.698 110.214 181.951L109.884 181.214C111.677 181.038 113.294 180.147 113.294 179.025V178.728ZM113.679 178.728H114.482V179.025C114.482 180.147 116.099 181.038 117.892 181.214L117.562 181.951C115.505 181.698 113.679 180.62 113.679 179.025V178.728ZM110.214 178.365H117.573V179.102H110.214V178.365Z" fill="#222222"/>
</g>
<g filter="url(#filter3_d_1093_145175)">
<rect x="129.125" y="202" width="34" height="18" rx="9" fill="white" fill-opacity="0.9" shape-rendering="crispEdges"/>
<path d="M144.388 206.914H145.268V216.858H144.388V206.914ZM142.705 210.896H144.619V211.655H142.705V210.896ZM142.133 207.134H142.991V216.352H142.133V207.134ZM137.183 213.646H137.832C139.284 213.646 140.274 213.591 141.429 213.349L141.517 214.108C140.329 214.361 139.328 214.405 137.832 214.405H137.183V213.646ZM137.183 208.124H140.879V208.872H138.085V213.987H137.183V208.124ZM151.669 209.653H154.177V210.401H151.669V209.653ZM153.66 206.925H154.573V214.207H153.66V206.925ZM148.226 215.89H154.848V216.638H148.226V215.89ZM148.226 213.569H149.139V216.275H148.226V213.569ZM148.93 208.157H149.678V208.96C149.678 210.764 148.556 212.326 146.895 212.942L146.422 212.216C147.907 211.688 148.93 210.368 148.93 208.96V208.157ZM149.106 208.157H149.843V208.949C149.843 210.236 150.811 211.49 152.252 211.996L151.79 212.711C150.173 212.128 149.106 210.632 149.106 208.949V208.157ZM146.708 207.728H152.021V208.465H146.708V207.728Z" fill="#222222"/>
</g>
<g filter="url(#filter4_d_1093_145175)">
<rect x="68.125" y="196" width="34" height="18" rx="9" fill="white" fill-opacity="0.9" shape-rendering="crispEdges"/>
<path d="M79.8679 206.304H80.7589V207.8H79.8679V206.304ZM75.8199 205.82H84.8069V206.557H75.8199V205.82ZM79.8679 200.881H80.7699V202.223H79.8679V200.881ZM79.8239 202.333H80.6269V202.498C80.6269 204.126 78.8009 205.072 76.6229 205.292L76.3479 204.588C78.2729 204.423 79.8239 203.631 79.8239 202.498V202.333ZM80.0109 202.333H80.8139V202.498C80.8139 203.631 82.3649 204.423 84.2899 204.588L84.0149 205.292C81.8369 205.072 80.0109 204.126 80.0109 202.498V202.333ZM76.7439 201.882H83.8939V202.608H76.7439V201.882ZM80.3079 207.547C82.4529 207.547 83.7179 208.13 83.7179 209.197C83.7179 210.264 82.4529 210.836 80.3079 210.836C78.1629 210.836 76.8979 210.264 76.8979 209.197C76.8979 208.13 78.1629 207.547 80.3079 207.547ZM80.3079 208.24C78.7349 208.24 77.8219 208.57 77.8219 209.197C77.8219 209.802 78.7349 210.143 80.3079 210.143C81.8809 210.143 82.7939 209.802 82.7939 209.197C82.7939 208.57 81.8809 208.24 80.3079 208.24ZM92.198 200.914H93.111V206.535H92.198V200.914ZM92.869 203.191H94.585V203.95H92.869V203.191ZM86.841 207.074H93.111V210.726H86.841V207.074ZM92.22 207.811H87.743V209.978H92.22V207.811ZM85.873 201.409H86.786V205.391H85.873V201.409ZM85.873 205.017H86.654C88.084 205.017 89.569 204.918 91.197 204.588L91.307 205.336C89.624 205.688 88.139 205.787 86.654 205.787H85.873V205.017Z" fill="#222222"/>
</g>
<g filter="url(#filter5_d_1093_145175)">
<rect x="95.125" y="264" width="34" height="18" rx="9" fill="white" fill-opacity="0.9" shape-rendering="crispEdges"/>
<path d="M108.1 271.653H110.608V272.401H108.1V271.653ZM110.091 268.925H111.004V276.207H110.091V268.925ZM104.657 277.89H111.279V278.638H104.657V277.89ZM104.657 275.569H105.57V278.275H104.657V275.569ZM105.361 270.157H106.109V270.96C106.109 272.764 104.987 274.326 103.326 274.942L102.853 274.216C104.338 273.688 105.361 272.368 105.361 270.96V270.157ZM105.537 270.157H106.274V270.949C106.274 272.236 107.242 273.49 108.683 273.996L108.221 274.711C106.604 274.128 105.537 272.632 105.537 270.949V270.157ZM103.139 269.728H108.452V270.465H103.139V269.728ZM116.426 274.271H117.328V275.987H116.426V274.271ZM112.389 273.776H121.376V274.524H112.389V273.776ZM113.39 275.679H120.265V278.858H119.352V276.416H113.39V275.679ZM113.588 269.145H114.49V270.267H119.297V269.145H120.21V272.863H113.588V269.145ZM114.49 270.982V272.137H119.297V270.982H114.49Z" fill="#222222"/>
</g>
<g filter="url(#filter6_d_1093_145175)">
<rect x="47.8164" y="313" width="34" height="18" rx="9" fill="white" fill-opacity="0.9" shape-rendering="crispEdges"/>
<path d="M56.0503 318.53H60.4503V319.278H56.0503V318.53ZM57.5463 320.686H58.4483V323.062H57.5463V320.686ZM60.0873 318.53H60.9783V319.069C60.9783 319.696 60.9783 320.587 60.7253 321.764L59.8343 321.687C60.0873 320.521 60.0873 319.696 60.0873 319.069V318.53ZM62.3423 317.914H63.2553V324.118H62.3423V317.914ZM62.8373 320.62H64.6743V321.39H62.8373V320.62ZM55.5553 323.436L55.4453 322.677C57.2493 322.677 59.6583 322.644 61.6713 322.38L61.7373 323.051C59.6803 323.392 57.3263 323.436 55.5553 323.436ZM60.0433 324.239C62.0893 324.239 63.3543 324.899 63.3543 326.032C63.3543 327.176 62.0893 327.836 60.0433 327.836C57.9973 327.836 56.7543 327.176 56.7543 326.032C56.7543 324.899 57.9973 324.239 60.0433 324.239ZM60.0433 324.954C58.5693 324.954 57.6673 325.35 57.6673 326.032C57.6673 326.714 58.5693 327.11 60.0433 327.11C61.5283 327.11 62.4193 326.714 62.4193 326.032C62.4193 325.35 61.5283 324.954 60.0433 324.954ZM69.0734 318.893H69.8654V319.311C69.8654 321.093 67.9734 322.402 65.9714 322.743L65.6194 322.017C67.3684 321.764 69.0734 320.62 69.0734 319.311V318.893ZM69.3044 318.893H70.0854V319.311C70.0854 320.62 71.8014 321.764 73.5394 322.017L73.1984 322.743C71.1854 322.402 69.3044 321.093 69.3044 319.311V318.893ZM69.1064 324.063H70.0084V327.858H69.1064V324.063ZM65.0914 323.579H74.0784V324.327H65.0914V323.579ZM65.9274 318.53H73.2094V319.267H65.9274V318.53Z" fill="#222222"/>
</g>
<g filter="url(#filter7_d_1093_145175)">
<rect x="61.8164" y="349" width="34" height="18" rx="9" fill="white" fill-opacity="0.9" shape-rendering="crispEdges"/>
<path d="M74.7913 356.653H77.2993V357.401H74.7913V356.653ZM76.7823 353.925H77.6953V361.207H76.7823V353.925ZM71.3483 362.89H77.9703V363.638H71.3483V362.89ZM71.3483 360.569H72.2613V363.275H71.3483V360.569ZM72.0523 355.157H72.8003V355.96C72.8003 357.764 71.6783 359.326 70.0173 359.942L69.5443 359.216C71.0293 358.688 72.0523 357.368 72.0523 355.96V355.157ZM72.2283 355.157H72.9653V355.949C72.9653 357.236 73.9333 358.49 75.3743 358.996L74.9123 359.711C73.2953 359.128 72.2283 357.632 72.2283 355.949V355.157ZM69.8303 354.728H75.1433V355.465H69.8303V354.728ZM85.8894 353.914H86.8024V359.535H85.8894V353.914ZM86.5604 356.191H88.2764V356.95H86.5604V356.191ZM80.5324 360.074H86.8024V363.726H80.5324V360.074ZM85.9114 360.811H81.4344V362.978H85.9114V360.811ZM79.5644 354.409H80.4774V358.391H79.5644V354.409ZM79.5644 358.017H80.3454C81.7754 358.017 83.2604 357.918 84.8884 357.588L84.9984 358.336C83.3154 358.688 81.8304 358.787 80.3454 358.787H79.5644V358.017Z" fill="#222222"/>
</g>
<g filter="url(#filter8_d_1093_145175)">
<rect x="121.816" y="111" width="34" height="18" rx="9" fill="white" fill-opacity="0.9" shape-rendering="crispEdges"/>
<path d="M134.274 117.74H136.936V118.488H134.274V117.74ZM134.186 119.808H136.87V120.556H134.186V119.808ZM136.782 115.914H137.695V121.876H136.782V115.914ZM133.669 116.662H134.648C134.648 119.225 132.877 121.018 130.017 121.876L129.643 121.139C132.184 120.402 133.669 118.939 133.669 117.058V116.662ZM130.16 116.662H134.296V117.41H130.16V116.662ZM134.461 121.986C136.474 121.986 137.75 122.701 137.75 123.9C137.75 125.099 136.474 125.814 134.461 125.814C132.448 125.814 131.172 125.099 131.172 123.9C131.172 122.701 132.448 121.986 134.461 121.986ZM134.461 122.701C133.009 122.701 132.074 123.152 132.074 123.9C132.074 124.648 133.009 125.088 134.461 125.088C135.924 125.088 136.859 124.648 136.859 123.9C136.859 123.152 135.924 122.701 134.461 122.701ZM146.329 115.914H147.242V125.858H146.329V115.914ZM143.414 116.981H144.316C144.316 119.863 143.018 122.382 139.696 124.01L139.212 123.273C142.083 121.887 143.414 119.775 143.414 117.135V116.981ZM139.663 116.981H143.81V117.729H139.663V116.981Z" fill="#222222"/>
</g>
<g filter="url(#filter9_d_1093_145175)">
<rect x="198.125" y="71" width="34" height="18" rx="9" fill="white" fill-opacity="0.9" shape-rendering="crispEdges"/>
<path d="M212.629 75.914H213.542V81.865H212.629V75.914ZM213.289 78.477H215.016V79.247H213.289V78.477ZM209.879 76.64H210.858C210.858 79.192 209.087 81.051 206.216 81.898L205.831 81.161C208.361 80.413 209.879 78.917 209.879 77.058V76.64ZM206.271 76.64H210.396V77.399H206.271V76.64ZM210.429 81.986C212.398 81.986 213.652 82.712 213.652 83.911C213.652 85.11 212.398 85.836 210.429 85.836C208.449 85.836 207.184 85.11 207.184 83.911C207.184 82.712 208.449 81.986 210.429 81.986ZM210.429 82.712C208.999 82.712 208.086 83.163 208.086 83.911C208.086 84.659 208.999 85.11 210.429 85.11C211.859 85.11 212.772 84.659 212.772 83.911C212.772 83.163 211.859 82.712 210.429 82.712ZM218.216 80.919H219.129V83.13H218.216V80.919ZM222.627 75.914H223.54V83.482H222.627V75.914ZM216.753 84.89H223.782V85.638H216.753V84.89ZM216.753 82.745H217.666V85.099H216.753V82.745ZM215.466 81.26L215.345 80.512C217.182 80.512 219.646 80.49 221.758 80.215L221.824 80.886C219.679 81.227 217.27 81.26 215.466 81.26ZM220.603 81.788H222.858V82.459H220.603V81.788ZM218.579 76.321C220.031 76.321 221.021 77.003 221.021 78.048C221.021 79.104 220.031 79.786 218.579 79.786C217.116 79.786 216.126 79.104 216.126 78.048C216.126 77.003 217.116 76.321 218.579 76.321ZM218.579 77.003C217.644 77.003 216.995 77.41 216.995 78.048C216.995 78.686 217.644 79.093 218.579 79.093C219.503 79.093 220.152 78.686 220.152 78.048C220.152 77.41 219.503 77.003 218.579 77.003Z" fill="#222222"/>
</g>
<g filter="url(#filter10_d_1093_145175)">
<rect x="181.816" y="313" width="34" height="18" rx="9" fill="white" fill-opacity="0.9" shape-rendering="crispEdges"/>
<path d="M194.274 319.74H196.936V320.488H194.274V319.74ZM194.186 321.808H196.87V322.556H194.186V321.808ZM196.782 317.914H197.695V323.876H196.782V317.914ZM193.669 318.662H194.648C194.648 321.225 192.877 323.018 190.017 323.876L189.643 323.139C192.184 322.402 193.669 320.939 193.669 319.058V318.662ZM190.16 318.662H194.296V319.41H190.16V318.662ZM194.461 323.986C196.474 323.986 197.75 324.701 197.75 325.9C197.75 327.099 196.474 327.814 194.461 327.814C192.448 327.814 191.172 327.099 191.172 325.9C191.172 324.701 192.448 323.986 194.461 323.986ZM194.461 324.701C193.009 324.701 192.074 325.152 192.074 325.9C192.074 326.648 193.009 327.088 194.461 327.088C195.924 327.088 196.859 326.648 196.859 325.9C196.859 325.152 195.924 324.701 194.461 324.701ZM205.889 317.914H206.802V323.535H205.889V317.914ZM206.56 320.191H208.276V320.95H206.56V320.191ZM200.532 324.074H206.802V327.726H200.532V324.074ZM205.911 324.811H201.434V326.978H205.911V324.811ZM199.564 318.409H200.477V322.391H199.564V318.409ZM199.564 322.017H200.345C201.775 322.017 203.26 321.918 204.888 321.588L204.998 322.336C203.315 322.688 201.83 322.787 200.345 322.787H199.564V322.017Z" fill="#222222"/>
</g>
<g filter="url(#filter11_d_1093_145175)">
<rect x="153.816" y="155" width="34" height="18" rx="9" fill="white" fill-opacity="0.9" shape-rendering="crispEdges"/>
<path d="M165.559 165.304H166.45V166.8H165.559V165.304ZM161.511 164.82H170.498V165.557H161.511V164.82ZM165.559 159.881H166.461V161.223H165.559V159.881ZM165.515 161.333H166.318V161.498C166.318 163.126 164.492 164.072 162.314 164.292L162.039 163.588C163.964 163.423 165.515 162.631 165.515 161.498V161.333ZM165.702 161.333H166.505V161.498C166.505 162.631 168.056 163.423 169.981 163.588L169.706 164.292C167.528 164.072 165.702 163.126 165.702 161.498V161.333ZM162.435 160.882H169.585V161.608H162.435V160.882ZM165.999 166.547C168.144 166.547 169.409 167.13 169.409 168.197C169.409 169.264 168.144 169.836 165.999 169.836C163.854 169.836 162.589 169.264 162.589 168.197C162.589 167.13 163.854 166.547 165.999 166.547ZM165.999 167.24C164.426 167.24 163.513 167.57 163.513 168.197C163.513 168.802 164.426 169.143 165.999 169.143C167.572 169.143 168.485 168.802 168.485 168.197C168.485 167.57 167.572 167.24 165.999 167.24ZM173.566 161.608H174.314V162.037C174.314 163.764 173.214 165.216 171.553 165.777L171.113 165.062C172.576 164.589 173.566 163.379 173.566 162.037V161.608ZM173.731 161.608H174.479V162.037C174.479 163.269 175.502 164.38 176.965 164.809L176.547 165.524C174.875 165.007 173.731 163.665 173.731 162.037V161.608ZM171.366 161.113H176.668V161.85H171.366V161.113ZM173.566 159.87H174.479V161.377H173.566V159.87ZM176.371 162.741H178.615V163.5H176.371V162.741ZM178.351 159.914H179.264V165.931H178.351V159.914ZM175.997 166.195C178.054 166.195 179.308 166.866 179.308 168.021C179.308 169.165 178.054 169.836 175.997 169.836C173.929 169.836 172.675 169.165 172.675 168.021C172.675 166.866 173.929 166.195 175.997 166.195ZM175.997 166.91C174.49 166.91 173.588 167.317 173.588 168.021C173.588 168.714 174.49 169.121 175.997 169.121C177.493 169.121 178.406 168.714 178.406 168.021C178.406 167.317 177.493 166.91 175.997 166.91Z" fill="#222222"/>
</g>
<g filter="url(#filter12_d_1093_145175)">
<rect x="228.125" y="198" width="34" height="18" rx="9" fill="white" fill-opacity="0.9" shape-rendering="crispEdges"/>
<path d="M240.583 204.74H243.245V205.488H240.583V204.74ZM240.495 206.808H243.179V207.556H240.495V206.808ZM243.091 202.914H244.004V208.876H243.091V202.914ZM239.978 203.662H240.957C240.957 206.225 239.186 208.018 236.326 208.876L235.952 208.139C238.493 207.402 239.978 205.939 239.978 204.058V203.662ZM236.469 203.662H240.605V204.41H236.469V203.662ZM240.77 208.986C242.783 208.986 244.059 209.701 244.059 210.9C244.059 212.099 242.783 212.814 240.77 212.814C238.757 212.814 237.481 212.099 237.481 210.9C237.481 209.701 238.757 208.986 240.77 208.986ZM240.77 209.701C239.318 209.701 238.383 210.152 238.383 210.9C238.383 211.648 239.318 212.088 240.77 212.088C242.233 212.088 243.168 211.648 243.168 210.9C243.168 210.152 242.233 209.701 240.77 209.701ZM249.426 208.271H250.328V209.987H249.426V208.271ZM245.389 207.776H254.376V208.524H245.389V207.776ZM246.39 209.679H253.265V212.858H252.352V210.416H246.39V209.679ZM246.588 203.145H247.49V204.267H252.297V203.145H253.21V206.863H246.588V203.145ZM247.49 204.982V206.137H252.297V204.982H247.49Z" fill="#222222"/>
</g>
<g filter="url(#filter13_d_1093_145175)">
<rect x="198.816" y="254" width="34" height="18" rx="9" fill="white" fill-opacity="0.9" shape-rendering="crispEdges"/>
<path d="M214.079 258.914H214.959V268.858H214.079V258.914ZM212.396 262.896H214.31V263.655H212.396V262.896ZM211.824 259.134H212.682V268.352H211.824V259.134ZM206.874 265.646H207.523C208.975 265.646 209.965 265.591 211.12 265.349L211.208 266.108C210.02 266.361 209.019 266.405 207.523 266.405H206.874V265.646ZM206.874 260.124H210.57V260.872H207.776V265.987H206.874V260.124ZM217.213 259.563H223.428V260.3H217.213V259.563ZM216.091 263.831H225.078V264.579H216.091V263.831ZM220.106 264.326H221.019V268.869H220.106V264.326ZM222.999 259.563H223.89V260.421C223.89 261.455 223.89 262.621 223.516 264.304L222.614 264.183C222.999 262.577 222.999 261.422 222.999 260.421V259.563Z" fill="#222222"/>
</g>
<g filter="url(#filter14_d_1093_145175)">
<rect x="269.816" y="293" width="34" height="18" rx="9" fill="white" fill-opacity="0.9" shape-rendering="crispEdges"/>
<path d="M281.548 302.589H282.45V304.118H281.548V302.589ZM282.01 298.035C284.199 298.035 285.508 298.64 285.508 299.751C285.508 300.862 284.199 301.478 282.01 301.478C279.81 301.478 278.512 300.862 278.512 299.751C278.512 298.64 279.81 298.035 282.01 298.035ZM282.01 298.728C280.382 298.728 279.447 299.102 279.447 299.751C279.447 300.411 280.382 300.785 282.01 300.785C283.627 300.785 284.562 300.411 284.562 299.751C284.562 299.102 283.627 298.728 282.01 298.728ZM277.511 302.116H286.498V302.864H277.511V302.116ZM278.6 303.777H285.354V306.021H279.524V307.231H278.622V305.361H284.452V304.481H278.6V303.777ZM278.622 307.033H285.651V307.748H278.622V307.033ZM289.533 298.519H290.281V299.74C290.281 301.687 289.203 303.238 287.531 303.887L287.047 303.161C288.565 302.622 289.533 301.28 289.533 299.74V298.519ZM289.687 298.519H290.435V299.773C290.435 301.126 291.425 302.402 292.877 302.919L292.426 303.634C290.787 303.04 289.687 301.522 289.687 299.773V298.519ZM293.889 297.903H294.802V305.251H293.889V297.903ZM294.516 300.961H296.276V301.72H294.516V300.961ZM288.631 306.89H295.242V307.638H288.631V306.89ZM288.631 304.558H289.544V307.253H288.631V304.558Z" fill="#222222"/>
</g>
<g filter="url(#filter15_d_1093_145175)">
<rect x="234.816" y="326" width="34" height="18" rx="9" fill="white" fill-opacity="0.9" shape-rendering="crispEdges"/>
<path d="M242.511 336.799H251.531V337.547H242.511V336.799ZM246.537 337.151H247.439V340.858H246.537V337.151ZM243.644 331.31H244.557V332.674H249.474V331.31H250.376V335.611H243.644V331.31ZM244.557 333.411V334.874H249.474V333.411H244.557ZM254.533 331.519H255.281V332.74C255.281 334.687 254.203 336.238 252.531 336.887L252.047 336.161C253.565 335.622 254.533 334.28 254.533 332.74V331.519ZM254.687 331.519H255.435V332.773C255.435 334.126 256.425 335.402 257.877 335.919L257.426 336.634C255.787 336.04 254.687 334.522 254.687 332.773V331.519ZM258.889 330.903H259.802V338.251H258.889V330.903ZM259.516 333.961H261.276V334.72H259.516V333.961ZM253.631 339.89H260.242V340.638H253.631V339.89ZM253.631 337.558H254.544V340.253H253.631V337.558Z" fill="#222222"/>
</g>
<g filter="url(#filter16_d_1093_145175)">
<rect x="51.125" y="436" width="34" height="18" rx="9" fill="white" fill-opacity="0.9" shape-rendering="crispEdges"/>
<path d="M66.3879 440.914H67.2679V450.858H66.3879V440.914ZM62.7689 444.478H64.6719V445.237H62.7689V444.478ZM64.3969 441.145H65.2549V450.352H64.3969V441.145ZM60.8549 442.454H61.5589V443.719C61.5589 445.897 60.7229 447.954 59.2599 448.878L58.6989 448.196C60.0849 447.36 60.8549 445.545 60.8549 443.719V442.454ZM61.0419 442.454H61.7459V443.719C61.7459 445.446 62.4939 447.173 63.8579 447.965L63.2969 448.636C61.8449 447.756 61.0419 445.798 61.0419 443.719V442.454ZM58.9739 442.069H63.5169V442.828H58.9739V442.069ZM72.382 441.893H73.174V442.311C73.174 444.093 71.282 445.402 69.28 445.743L68.928 445.017C70.677 444.764 72.382 443.62 72.382 442.311V441.893ZM72.613 441.893H73.394V442.311C73.394 443.62 75.11 444.764 76.848 445.017L76.507 445.743C74.494 445.402 72.613 444.093 72.613 442.311V441.893ZM72.415 447.063H73.317V450.858H72.415V447.063ZM68.4 446.579H77.387V447.327H68.4V446.579ZM69.236 441.53H76.518V442.267H69.236V441.53Z" fill="#222222"/>
</g>
<defs>
<filter id="filter0_d_1093_145175" x="101.816" y="78" width="42" height="26" filterUnits="userSpaceOnUse" color-interpolation-filters="sRGB">
<feFlood flood-opacity="0" result="BackgroundImageFix"/>
<feColorMatrix in="SourceAlpha" type="matrix" values="0 0 0 0 0 0 0 0 0 0 0 0 0 0 0 0 0 0 127 0" result="hardAlpha"/>
<feOffset dy="4"/>
<feGaussianBlur stdDeviation="2"/>
<feComposite in2="hardAlpha" operator="out"/>
<feColorMatrix type="matrix" values="0 0 0 0 0 0 0 0 0 0 0 0 0 0 0 0 0 0 0.08 0"/>
<feBlend mode="normal" in2="BackgroundImageFix" result="effect1_dropShadow_1093_145175"/>
<feBlend mode="normal" in="SourceGraphic" in2="effect1_dropShadow_1093_145175" result="shape"/>
</filter>
<filter id="filter1_d_1093_145175" x="53.125" y="75" width="42" height="26" filterUnits="userSpaceOnUse" color-interpolation-filters="sRGB">
<feFlood flood-opacity="0" result="BackgroundImageFix"/>
<feColorMatrix in="SourceAlpha" type="matrix" values="0 0 0 0 0 0 0 0 0 0 0 0 0 0 0 0 0 0 127 0" result="hardAlpha"/>
<feOffset dy="4"/>
<feGaussianBlur stdDeviation="2"/>
<feComposite in2="hardAlpha" operator="out"/>
<feColorMatrix type="matrix" values="0 0 0 0 0 0 0 0 0 0 0 0 0 0 0 0 0 0 0.08 0"/>
<feBlend mode="normal" in2="BackgroundImageFix" result="effect1_dropShadow_1093_145175"/>
<feBlend mode="normal" in="SourceGraphic" in2="effect1_dropShadow_1093_145175" result="shape"/>
</filter>
<filter id="filter2_d_1093_145175" x="88.125" y="173" width="42" height="26" filterUnits="userSpaceOnUse" color-interpolation-filters="sRGB">
<feFlood flood-opacity="0" result="BackgroundImageFix"/>
<feColorMatrix in="SourceAlpha" type="matrix" values="0 0 0 0 0 0 0 0 0 0 0 0 0 0 0 0 0 0 127 0" result="hardAlpha"/>
<feOffset dy="4"/>
<feGaussianBlur stdDeviation="2"/>
<feComposite in2="hardAlpha" operator="out"/>
<feColorMatrix type="matrix" values="0 0 0 0 0 0 0 0 0 0 0 0 0 0 0 0 0 0 0.08 0"/>
<feBlend mode="normal" in2="BackgroundImageFix" result="effect1_dropShadow_1093_145175"/>
<feBlend mode="normal" in="SourceGraphic" in2="effect1_dropShadow_1093_145175" result="shape"/>
</filter>
<filter id="filter3_d_1093_145175" x="125.125" y="202" width="42" height="26" filterUnits="userSpaceOnUse" color-interpolation-filters="sRGB">
<feFlood flood-opacity="0" result="BackgroundImageFix"/>
<feColorMatrix in="SourceAlpha" type="matrix" values="0 0 0 0 0 0 0 0 0 0 0 0 0 0 0 0 0 0 127 0" result="hardAlpha"/>
<feOffset dy="4"/>
<feGaussianBlur stdDeviation="2"/>
<feComposite in2="hardAlpha" operator="out"/>
<feColorMatrix type="matrix" values="0 0 0 0 0 0 0 0 0 0 0 0 0 0 0 0 0 0 0.08 0"/>
<feBlend mode="normal" in2="BackgroundImageFix" result="effect1_dropShadow_1093_145175"/>
<feBlend mode="normal" in="SourceGraphic" in2="effect1_dropShadow_1093_145175" result="shape"/>
</filter>
<filter id="filter4_d_1093_145175" x="64.125" y="196" width="42" height="26" filterUnits="userSpaceOnUse" color-interpolation-filters="sRGB">
<feFlood flood-opacity="0" result="BackgroundImageFix"/>
<feColorMatrix in="SourceAlpha" type="matrix" values="0 0 0 0 0 0 0 0 0 0 0 0 0 0 0 0 0 0 127 0" result="hardAlpha"/>
<feOffset dy="4"/>
<feGaussianBlur stdDeviation="2"/>
<feComposite in2="hardAlpha" operator="out"/>
<feColorMatrix type="matrix" values="0 0 0 0 0 0 0 0 0 0 0 0 0 0 0 0 0 0 0.08 0"/>
<feBlend mode="normal" in2="BackgroundImageFix" result="effect1_dropShadow_1093_145175"/>
<feBlend mode="normal" in="SourceGraphic" in2="effect1_dropShadow_1093_145175" result="shape"/>
</filter>
<filter id="filter5_d_1093_145175" x="91.125" y="264" width="42" height="26" filterUnits="userSpaceOnUse" color-interpolation-filters="sRGB">
<feFlood flood-opacity="0" result="BackgroundImageFix"/>
<feColorMatrix in="SourceAlpha" type="matrix" values="0 0 0 0 0 0 0 0 0 0 0 0 0 0 0 0 0 0 127 0" result="hardAlpha"/>
<feOffset dy="4"/>
<feGaussianBlur stdDeviation="2"/>
<feComposite in2="hardAlpha" operator="out"/>
<feColorMatrix type="matrix" values="0 0 0 0 0 0 0 0 0 0 0 0 0 0 0 0 0 0 0.08 0"/>
<feBlend mode="normal" in2="BackgroundImageFix" result="effect1_dropShadow_1093_145175"/>
<feBlend mode="normal" in="SourceGraphic" in2="effect1_dropShadow_1093_145175" result="shape"/>
</filter>
<filter id="filter6_d_1093_145175" x="43.8164" y="313" width="42" height="26" filterUnits="userSpaceOnUse" color-interpolation-filters="sRGB">
<feFlood flood-opacity="0" result="BackgroundImageFix"/>
<feColorMatrix in="SourceAlpha" type="matrix" values="0 0 0 0 0 0 0 0 0 0 0 0 0 0 0 0 0 0 127 0" result="hardAlpha"/>
<feOffset dy="4"/>
<feGaussianBlur stdDeviation="2"/>
<feComposite in2="hardAlpha" operator="out"/>
<feColorMatrix type="matrix" values="0 0 0 0 0 0 0 0 0 0 0 0 0 0 0 0 0 0 0.08 0"/>
<feBlend mode="normal" in2="BackgroundImageFix" result="effect1_dropShadow_1093_145175"/>
<feBlend mode="normal" in="SourceGraphic" in2="effect1_dropShadow_1093_145175" result="shape"/>
</filter>
<filter id="filter7_d_1093_145175" x="57.8164" y="349" width="42" height="26" filterUnits="userSpaceOnUse" color-interpolation-filters="sRGB">
<feFlood flood-opacity="0" result="BackgroundImageFix"/>
<feColorMatrix in="SourceAlpha" type="matrix" values="0 0 0 0 0 0 0 0 0 0 0 0 0 0 0 0 0 0 127 0" result="hardAlpha"/>
<feOffset dy="4"/>
<feGaussianBlur stdDeviation="2"/>
<feComposite in2="hardAlpha" operator="out"/>
<feColorMatrix type="matrix" values="0 0 0 0 0 0 0 0 0 0 0 0 0 0 0 0 0 0 0.08 0"/>
<feBlend mode="normal" in2="BackgroundImageFix" result="effect1_dropShadow_1093_145175"/>
<feBlend mode="normal" in="SourceGraphic" in2="effect1_dropShadow_1093_145175" result="shape"/>
</filter>
<filter id="filter8_d_1093_145175" x="117.816" y="111" width="42" height="26" filterUnits="userSpaceOnUse" color-interpolation-filters="sRGB">
<feFlood flood-opacity="0" result="BackgroundImageFix"/>
<feColorMatrix in="SourceAlpha" type="matrix" values="0 0 0 0 0 0 0 0 0 0 0 0 0 0 0 0 0 0 127 0" result="hardAlpha"/>
<feOffset dy="4"/>
<feGaussianBlur stdDeviation="2"/>
<feComposite in2="hardAlpha" operator="out"/>
<feColorMatrix type="matrix" values="0 0 0 0 0 0 0 0 0 0 0 0 0 0 0 0 0 0 0.08 0"/>
<feBlend mode="normal" in2="BackgroundImageFix" result="effect1_dropShadow_1093_145175"/>
<feBlend mode="normal" in="SourceGraphic" in2="effect1_dropShadow_1093_145175" result="shape"/>
</filter>
<filter id="filter9_d_1093_145175" x="194.125" y="71" width="42" height="26" filterUnits="userSpaceOnUse" color-interpolation-filters="sRGB">
<feFlood flood-opacity="0" result="BackgroundImageFix"/>
<feColorMatrix in="SourceAlpha" type="matrix" values="0 0 0 0 0 0 0 0 0 0 0 0 0 0 0 0 0 0 127 0" result="hardAlpha"/>
<feOffset dy="4"/>
<feGaussianBlur stdDeviation="2"/>
<feComposite in2="hardAlpha" operator="out"/>
<feColorMatrix type="matrix" values="0 0 0 0 0 0 0 0 0 0 0 0 0 0 0 0 0 0 0.08 0"/>
<feBlend mode="normal" in2="BackgroundImageFix" result="effect1_dropShadow_1093_145175"/>
<feBlend mode="normal" in="SourceGraphic" in2="effect1_dropShadow_1093_145175" result="shape"/>
</filter>
<filter id="filter10_d_1093_145175" x="177.816" y="313" width="42" height="26" filterUnits="userSpaceOnUse" color-interpolation-filters="sRGB">
<feFlood flood-opacity="0" result="BackgroundImageFix"/>
<feColorMatrix in="SourceAlpha" type="matrix" values="0 0 0 0 0 0 0 0 0 0 0 0 0 0 0 0 0 0 127 0" result="hardAlpha"/>
<feOffset dy="4"/>
<feGaussianBlur stdDeviation="2"/>
<feComposite in2="hardAlpha" operator="out"/>
<feColorMatrix type="matrix" values="0 0 0 0 0 0 0 0 0 0 0 0 0 0 0 0 0 0 0.08 0"/>
<feBlend mode="normal" in2="BackgroundImageFix" result="effect1_dropShadow_1093_145175"/>
<feBlend mode="normal" in="SourceGraphic" in2="effect1_dropShadow_1093_145175" result="shape"/>
</filter>
<filter id="filter11_d_1093_145175" x="149.816" y="155" width="42" height="26" filterUnits="userSpaceOnUse" color-interpolation-filters="sRGB">
<feFlood flood-opacity="0" result="BackgroundImageFix"/>
<feColorMatrix in="SourceAlpha" type="matrix" values="0 0 0 0 0 0 0 0 0 0 0 0 0 0 0 0 0 0 127 0" result="hardAlpha"/>
<feOffset dy="4"/>
<feGaussianBlur stdDeviation="2"/>
<feComposite in2="hardAlpha" operator="out"/>
<feColorMatrix type="matrix" values="0 0 0 0 0 0 0 0 0 0 0 0 0 0 0 0 0 0 0.08 0"/>
<feBlend mode="normal" in2="BackgroundImageFix" result="effect1_dropShadow_1093_145175"/>
<feBlend mode="normal" in="SourceGraphic" in2="effect1_dropShadow_1093_145175" result="shape"/>
</filter>
<filter id="filter12_d_1093_145175" x="224.125" y="198" width="42" height="26" filterUnits="userSpaceOnUse" color-interpolation-filters="sRGB">
<feFlood flood-opacity="0" result="BackgroundImageFix"/>
<feColorMatrix in="SourceAlpha" type="matrix" values="0 0 0 0 0 0 0 0 0 0 0 0 0 0 0 0 0 0 127 0" result="hardAlpha"/>
<feOffset dy="4"/>
<feGaussianBlur stdDeviation="2"/>
<feComposite in2="hardAlpha" operator="out"/>
<feColorMatrix type="matrix" values="0 0 0 0 0 0 0 0 0 0 0 0 0 0 0 0 0 0 0.08 0"/>
<feBlend mode="normal" in2="BackgroundImageFix" result="effect1_dropShadow_1093_145175"/>
<feBlend mode="normal" in="SourceGraphic" in2="effect1_dropShadow_1093_145175" result="shape"/>
</filter>
<filter id="filter13_d_1093_145175" x="194.816" y="254" width="42" height="26" filterUnits="userSpaceOnUse" color-interpolation-filters="sRGB">
<feFlood flood-opacity="0" result="BackgroundImageFix"/>
<feColorMatrix in="SourceAlpha" type="matrix" values="0 0 0 0 0 0 0 0 0 0 0 0 0 0 0 0 0 0 127 0" result="hardAlpha"/>
<feOffset dy="4"/>
<feGaussianBlur stdDeviation="2"/>
<feComposite in2="hardAlpha" operator="out"/>
<feColorMatrix type="matrix" values="0 0 0 0 0 0 0 0 0 0 0 0 0 0 0 0 0 0 0.08 0"/>
<feBlend mode="normal" in2="BackgroundImageFix" result="effect1_dropShadow_1093_145175"/>
<feBlend mode="normal" in="SourceGraphic" in2="effect1_dropShadow_1093_145175" result="shape"/>
</filter>
<filter id="filter14_d_1093_145175" x="265.816" y="293" width="42" height="26" filterUnits="userSpaceOnUse" color-interpolation-filters="sRGB">
<feFlood flood-opacity="0" result="BackgroundImageFix"/>
<feColorMatrix in="SourceAlpha" type="matrix" values="0 0 0 0 0 0 0 0 0 0 0 0 0 0 0 0 0 0 127 0" result="hardAlpha"/>
<feOffset dy="4"/>
<feGaussianBlur stdDeviation="2"/>
<feComposite in2="hardAlpha" operator="out"/>
<feColorMatrix type="matrix" values="0 0 0 0 0 0 0 0 0 0 0 0 0 0 0 0 0 0 0.08 0"/>
<feBlend mode="normal" in2="BackgroundImageFix" result="effect1_dropShadow_1093_145175"/>
<feBlend mode="normal" in="SourceGraphic" in2="effect1_dropShadow_1093_145175" result="shape"/>
</filter>
<filter id="filter15_d_1093_145175" x="230.816" y="326" width="42" height="26" filterUnits="userSpaceOnUse" color-interpolation-filters="sRGB">
<feFlood flood-opacity="0" result="BackgroundImageFix"/>
<feColorMatrix in="SourceAlpha" type="matrix" values="0 0 0 0 0 0 0 0 0 0 0 0 0 0 0 0 0 0 127 0" result="hardAlpha"/>
<feOffset dy="4"/>
<feGaussianBlur stdDeviation="2"/>
<feComposite in2="hardAlpha" operator="out"/>
<feColorMatrix type="matrix" values="0 0 0 0 0 0 0 0 0 0 0 0 0 0 0 0 0 0 0.08 0"/>
<feBlend mode="normal" in2="BackgroundImageFix" result="effect1_dropShadow_1093_145175"/>
<feBlend mode="normal" in="SourceGraphic" in2="effect1_dropShadow_1093_145175" result="shape"/>
</filter>
<filter id="filter16_d_1093_145175" x="47.125" y="436" width="42" height="26" filterUnits="userSpaceOnUse" color-interpolation-filters="sRGB">
<feFlood flood-opacity="0" result="BackgroundImageFix"/>
<feColorMatrix in="SourceAlpha" type="matrix" values="0 0 0 0 0 0 0 0 0 0 0 0 0 0 0 0 0 0 127 0" result="hardAlpha"/>
<feOffset dy="4"/>
<feGaussianBlur stdDeviation="2"/>
<feComposite in2="hardAlpha" operator="out"/>
<feColorMatrix type="matrix" values="0 0 0 0 0 0 0 0 0 0 0 0 0 0 0 0 0 0 0.08 0"/>
<feBlend mode="normal" in2="BackgroundImageFix" result="effect1_dropShadow_1093_145175"/>
<feBlend mode="normal" in="SourceGraphic" in2="effect1_dropShadow_1093_145175" result="shape"/>
</filter>
</defs>
</svg>
