<svg width="234" height="210" viewBox="0 0 234 210" fill="none" xmlns="http://www.w3.org/2000/svg">
<circle cx="26" cy="9" r="40" fill="#FDDEF6"/>
<circle cx="118.5" cy="101.5" r="52.5" fill="#DCE2FF"/>
<circle cx="40.5" cy="174.5" r="23.5" fill="white" fill-opacity="0.71"/>
<path d="M226.941 83.5626L232.362 141.376C232.633 144.285 230.504 146.862 227.603 147.134L153.001 154.157C150.098 154.43 147.526 152.296 147.254 149.389L141.834 91.5757C141.562 88.6693 143.692 86.0923 146.595 85.8199L221.197 78.7969C224.1 78.5245 226.672 80.6586 226.944 83.5626H226.941Z" fill="#DFDBFF"/>
<path d="M228.556 83.0899L233.976 140.904C234.248 143.812 232.118 146.389 229.217 146.662L154.615 153.685C151.712 153.957 149.14 151.823 148.868 148.917L143.448 91.103C143.176 88.1967 145.306 85.6196 148.209 85.3472L222.811 78.3242C225.714 78.0518 228.286 80.186 228.558 83.0899H228.556Z" fill="white"/>
<path d="M228.556 83.0899L229.371 91.7923L144.264 99.8054L143.448 91.103C143.176 88.1967 145.306 85.6196 148.209 85.3472L222.811 78.3242C225.714 78.0518 228.286 80.186 228.558 83.0899H228.556Z" fill="#7667D0"/>
<path d="M151.105 94.6667C152.22 94.6667 153.123 93.7611 153.123 92.6439C153.123 91.5267 152.22 90.6211 151.105 90.6211C149.99 90.6211 149.086 91.5267 149.086 92.6439C149.086 93.7611 149.99 94.6667 151.105 94.6667Z" fill="#E4D4E3"/>
<path d="M151.105 94.6667C152.22 94.6667 153.123 93.7611 153.123 92.6439C153.123 91.5267 152.22 90.6211 151.105 90.6211C149.99 90.6211 149.086 91.5267 149.086 92.6439C149.086 93.7611 149.99 94.6667 151.105 94.6667Z" fill="#E4D4E3"/>
<path d="M151.632 94.6667C152.747 94.6667 153.651 93.7611 153.651 92.6439C153.651 91.5267 152.747 90.6211 151.632 90.6211C150.517 90.6211 149.613 91.5267 149.613 92.6439C149.613 93.7611 150.517 94.6667 151.632 94.6667Z" fill="white"/>
<path d="M157.232 94.0886C158.347 94.0886 159.25 93.183 159.25 92.0658C159.25 90.9486 158.347 90.043 157.232 90.043C156.117 90.043 155.213 90.9486 155.213 92.0658C155.213 93.183 156.117 94.0886 157.232 94.0886Z" fill="#E4D4E3"/>
<path d="M157.232 94.0886C158.347 94.0886 159.25 93.183 159.25 92.0658C159.25 90.9486 158.347 90.043 157.232 90.043C156.117 90.043 155.213 90.9486 155.213 92.0658C155.213 93.183 156.117 94.0886 157.232 94.0886Z" fill="#E4D4E3"/>
<path d="M157.759 94.0886C158.874 94.0886 159.778 93.183 159.778 92.0658C159.778 90.9486 158.874 90.043 157.759 90.043C156.644 90.043 155.74 90.9486 155.74 92.0658C155.74 93.183 156.644 94.0886 157.759 94.0886Z" fill="white"/>
<path d="M163.361 93.5105C164.476 93.5105 165.38 92.6048 165.38 91.4877C165.38 90.3705 164.476 89.4648 163.361 89.4648C162.247 89.4648 161.343 90.3705 161.343 91.4877C161.343 92.6048 162.247 93.5105 163.361 93.5105Z" fill="#E4D4E3"/>
<path d="M163.361 93.5105C164.476 93.5105 165.38 92.6048 165.38 91.4877C165.38 90.3705 164.476 89.4648 163.361 89.4648C162.247 89.4648 161.343 90.3705 161.343 91.4877C161.343 92.6048 162.247 93.5105 163.361 93.5105Z" fill="#E4D4E3"/>
<path d="M163.889 93.5105C165.004 93.5105 165.908 92.6048 165.908 91.4877C165.908 90.3705 165.004 89.4648 163.889 89.4648C162.774 89.4648 161.87 90.3705 161.87 91.4877C161.87 92.6048 162.774 93.5105 163.889 93.5105Z" fill="white"/>
<path d="M221.036 82.7963L180.671 86.5982C178.774 86.777 177.38 88.4634 177.558 90.3649L177.559 90.3673C177.737 92.2688 179.42 93.6654 181.318 93.4867L221.682 89.6847C223.579 89.506 224.973 87.8196 224.795 85.9181L224.795 85.9157C224.616 84.0142 222.933 82.6176 221.036 82.7963Z" fill="#DFDBFF"/>
<path d="M222.02 82.7026L181.656 86.5045C179.758 86.6832 178.364 88.3696 178.543 90.2712L178.543 90.2735C178.721 92.175 180.404 93.5716 182.302 93.3929L222.666 89.591C224.564 89.4122 225.958 87.7258 225.779 85.8243L225.779 85.8219C225.601 83.9204 223.918 82.5238 222.02 82.7026Z" fill="white"/>
<path d="M170.735 101.436L148.892 103.493C147.571 103.618 146.6 104.793 146.724 106.117L150.614 147.589C150.739 148.914 151.911 149.887 153.233 149.762L175.075 147.705C176.397 147.58 177.368 146.405 177.244 145.081L173.353 103.609C173.229 102.284 172.057 101.311 170.735 101.436Z" fill="#7C6EC9"/>
<path d="M171.666 101.35L149.823 103.407C148.501 103.532 147.53 104.707 147.655 106.031L151.545 147.503C151.669 148.828 152.842 149.801 154.164 149.676L176.006 147.619C177.328 147.494 178.299 146.32 178.175 144.995L174.284 103.523C174.16 102.198 172.988 101.226 171.666 101.35Z" fill="#9282ED"/>
<path d="M167.405 107.298L152.072 108.743C151.02 108.842 150.248 109.776 150.347 110.829C150.446 111.882 151.378 112.655 152.43 112.556L167.762 111.112C168.814 111.013 169.586 110.079 169.488 109.026C169.389 107.973 168.456 107.199 167.405 107.298Z" fill="#6E64BD"/>
<path d="M168.389 117.783L153.056 119.227C152.005 119.326 151.232 120.26 151.331 121.313C151.43 122.366 152.362 123.139 153.414 123.04L168.747 121.596C169.798 121.497 170.571 120.563 170.472 119.51C170.373 118.457 169.441 117.684 168.389 117.783Z" fill="#6E64BD"/>
<path d="M169.372 128.271L154.039 129.715C152.987 129.814 152.215 130.748 152.314 131.801C152.412 132.854 153.345 133.628 154.396 133.528L169.729 132.084C170.781 131.985 171.553 131.051 171.454 129.998C171.356 128.945 170.423 128.172 169.372 128.271Z" fill="#6E64BD"/>
<path d="M170.356 138.755L155.023 140.2C153.972 140.299 153.199 141.233 153.298 142.286C153.397 143.339 154.329 144.112 155.381 144.013L170.714 142.569C171.765 142.47 172.537 141.536 172.439 140.483C172.34 139.43 171.407 138.656 170.356 138.755Z" fill="#6E64BD"/>
<path d="M168.417 107.205L153.085 108.649C152.033 108.748 151.261 109.682 151.36 110.735C151.458 111.788 152.391 112.561 153.442 112.462L168.775 111.018C169.827 110.919 170.599 109.985 170.5 108.932C170.401 107.879 169.469 107.106 168.417 107.205Z" fill="url(#paint0_linear_894_120713)"/>
<path d="M169.4 117.689L154.067 119.133C153.016 119.232 152.243 120.166 152.342 121.219C152.441 122.272 153.373 123.045 154.425 122.946L169.758 121.502C170.809 121.403 171.581 120.469 171.483 119.416C171.384 118.363 170.451 117.59 169.4 117.689Z" fill="url(#paint1_linear_894_120713)"/>
<path d="M170.384 128.177L155.051 129.621C154 129.72 153.228 130.654 153.326 131.707C153.425 132.76 154.358 133.534 155.409 133.435L170.742 131.991C171.793 131.891 172.566 130.958 172.467 129.905C172.368 128.852 171.436 128.078 170.384 128.177Z" fill="url(#paint2_linear_894_120713)"/>
<path d="M171.369 138.662L156.036 140.106C154.984 140.205 154.212 141.139 154.311 142.192C154.409 143.245 155.342 144.018 156.393 143.919L171.726 142.475C172.778 142.376 173.55 141.442 173.451 140.389C173.353 139.336 172.42 138.563 171.369 138.662Z" fill="url(#paint3_linear_894_120713)"/>
<path d="M223.635 109.717L182.176 113.622C180.646 113.766 179.523 115.126 179.667 116.658L182.253 144.231C182.397 145.764 183.754 146.89 185.284 146.746L226.742 142.841C228.272 142.697 229.396 141.337 229.252 139.804L226.665 112.232C226.521 110.699 225.165 109.573 223.635 109.717Z" fill="#9A92D9"/>
<path d="M222.676 96.1561L180.392 100.139C179.374 100.235 178.626 101.139 178.722 102.159L179.409 109.486C179.505 110.506 180.408 111.255 181.425 111.159L223.71 107.176C224.728 107.08 225.475 106.176 225.379 105.156L224.692 97.8291C224.596 96.8093 223.694 96.0603 222.676 96.1561Z" fill="#9A92D9"/>
<path d="M224.565 109.627L183.107 113.532C181.577 113.676 180.453 115.036 180.597 116.569L183.184 144.141C183.328 145.674 184.684 146.8 186.214 146.656L227.673 142.751C229.203 142.607 230.326 141.247 230.182 139.714L227.596 112.142C227.452 110.609 226.095 109.483 224.565 109.627Z" fill="url(#paint4_linear_894_120713)"/>
<path d="M223.607 96.0663L181.322 100.049C180.305 100.145 179.557 101.049 179.653 102.069L180.34 109.396C180.436 110.416 181.338 111.165 182.356 111.069L224.641 107.086C225.658 106.99 226.406 106.086 226.31 105.066L225.623 97.7392C225.527 96.7194 224.625 95.9704 223.607 96.0663Z" fill="url(#paint5_linear_894_120713)"/>
<path d="M197.658 128.992L197.259 129.029C196.779 129.074 196.344 128.622 196.287 128.018L194.238 106.17C194.181 105.566 194.526 105.04 195.003 104.995L195.403 104.957C194.923 105.002 194.58 105.528 194.637 106.132L196.686 127.98C196.743 128.584 197.178 129.037 197.658 128.992Z" fill="url(#paint6_linear_894_120713)"/>
<path d="M219.986 102.63L195.51 104.936C194.972 104.986 194.577 105.464 194.628 106.004L196.699 128.089C196.75 128.628 197.227 129.024 197.765 128.973L222.241 126.668C222.779 126.617 223.175 126.139 223.124 125.6L221.052 103.515C221.002 102.976 220.525 102.579 219.986 102.63Z" fill="url(#paint7_linear_894_120713)" stroke="white" stroke-width="0.9" stroke-miterlimit="10" stroke-linecap="round"/>
<path d="M198.974 140.79L198.575 140.828C198.095 140.873 197.691 140.747 197.672 140.548L196.996 133.328C196.977 133.13 197.353 132.931 197.83 132.886L198.23 132.848C197.75 132.893 197.376 133.092 197.395 133.291L198.071 140.51C198.09 140.709 198.494 140.835 198.974 140.79Z" fill="url(#paint8_linear_894_120713)"/>
<path d="M223.222 130.482L197.931 132.865C197.618 132.894 197.388 133.172 197.418 133.486L198.056 140.292C198.085 140.606 198.363 140.837 198.677 140.807L223.967 138.425C224.28 138.395 224.51 138.117 224.481 137.803L223.842 130.997C223.813 130.683 223.535 130.453 223.222 130.482Z" fill="url(#paint9_linear_894_120713)" stroke="white" stroke-width="0.52" stroke-miterlimit="10" stroke-linecap="round"/>
<path d="M168.382 137.023L165.664 138.214L173.54 143.762L172.796 136.27L168.382 137.023Z" fill="url(#paint10_linear_894_120713)"/>
<path d="M165.763 118.605C167.529 118.605 168.961 117.325 168.961 115.746C168.961 114.167 167.529 112.887 165.763 112.887C163.996 112.887 162.564 114.167 162.564 115.746C162.564 117.325 163.996 118.605 165.763 118.605Z" fill="url(#paint11_radial_894_120713)"/>
<path d="M167.607 116.991C165.844 115.712 165.841 113.043 163.666 113.043C161.492 113.043 159.726 114.812 159.726 116.991C159.726 117.16 159.74 117.323 159.759 117.487H159.757C159.837 118.474 159.643 119.13 158.97 119.86C158.556 120.305 158.017 120.613 157.575 121.03C156.899 121.667 156.473 122.565 156.402 123.491C156.334 124.42 156.762 126.914 158.303 127.267C158.303 127.267 169.749 124.862 169.746 124.727C169.746 124.671 173.706 121.421 167.607 116.991Z" fill="url(#paint12_radial_894_120713)"/>
<path d="M167.607 116.991C165.844 115.712 165.841 113.043 163.666 113.043C161.492 113.043 159.726 114.812 159.726 116.991C159.726 117.16 159.74 117.323 159.759 117.487H159.757C159.837 118.474 159.643 119.13 158.97 119.86C158.556 120.305 158.017 120.613 157.575 121.03C156.899 121.667 156.473 122.565 156.402 123.491C156.334 124.42 156.762 126.914 158.303 127.267C158.303 127.267 169.749 124.862 169.746 124.727C169.746 124.671 173.706 121.421 167.607 116.991Z" fill="url(#paint13_radial_894_120713)"/>
<path d="M189.411 111.027C189.158 111.192 188.953 111.328 188.78 111.439C188.638 111.491 188.36 111.59 188.088 111.685C187.712 111.818 187.303 111.621 187.168 111.247C187.1 111.055 187.116 110.842 187.211 110.662L187.636 109.864C187.662 109.854 187.688 109.845 187.712 109.831C188.012 109.726 189.662 109.333 189.95 109.288C190.078 109.286 190.203 109.227 190.288 109.118C190.44 108.923 190.407 108.644 190.213 108.49C190.019 108.336 189.995 108.343 188.733 108.641C188.572 108.679 188.367 108.729 188.161 108.781L189.317 107.081C189.456 106.877 189.402 106.6 189.199 106.46C188.995 106.323 188.719 106.375 188.579 106.578L187.561 108.08L188.537 106.171C188.648 105.951 188.563 105.683 188.343 105.569C188.123 105.456 187.856 105.543 187.743 105.764L187.05 107.121L187.282 106.278C187.348 106.041 187.208 105.794 186.972 105.728C186.733 105.662 186.49 105.801 186.424 106.038L185.823 108.215C185.192 109.028 182.871 112.014 182.842 112.083C178.526 115.063 171.806 119.641 167.579 122.628L167.312 122.822L167.241 122.875C166.676 123.277 166.222 123.905 166.005 124.552C164.981 128.18 169.279 130.101 171.416 127.884C171.375 127.925 171.335 127.958 171.297 127.986L171.319 127.965C171.319 127.965 171.338 127.948 171.371 127.917C171.385 127.906 171.416 127.877 171.449 127.849C171.442 127.856 171.437 127.863 171.43 127.868C171.439 127.858 171.451 127.849 171.46 127.837C171.512 127.792 171.564 127.747 171.564 127.747C173.42 126.174 176.5 123.628 178.403 122.055C178.405 122.05 185.835 114.925 185.835 114.923L188.837 112.848C188.837 112.848 188.837 112.839 188.837 112.824C189.057 112.675 189.579 112.332 190.057 112.022C190.331 111.842 190.409 111.474 190.232 111.197C190.052 110.922 189.686 110.844 189.409 111.022L189.411 111.027ZM187.875 109.658C187.887 109.636 187.896 109.613 187.903 109.589C187.896 109.613 187.884 109.636 187.875 109.658Z" fill="#F7A59C"/>
<path d="M189.411 111.027C189.158 111.192 188.953 111.328 188.78 111.439C188.638 111.491 188.36 111.59 188.088 111.685C187.712 111.818 187.303 111.621 187.168 111.247C187.1 111.055 187.116 110.842 187.211 110.662L187.636 109.864C187.662 109.854 187.688 109.845 187.712 109.831C188.012 109.726 189.662 109.333 189.95 109.288C190.078 109.286 190.203 109.227 190.288 109.118C190.44 108.923 190.407 108.644 190.213 108.49C190.019 108.336 189.995 108.343 188.733 108.641C188.572 108.679 188.367 108.729 188.161 108.781L189.317 107.081C189.456 106.877 189.402 106.6 189.199 106.46C188.995 106.323 188.719 106.375 188.579 106.578L187.561 108.08L188.537 106.171C188.648 105.951 188.563 105.683 188.343 105.569C188.123 105.456 187.856 105.543 187.743 105.764L187.05 107.121L187.282 106.278C187.348 106.041 187.208 105.794 186.972 105.728C186.733 105.662 186.49 105.801 186.424 106.038L185.823 108.215C185.192 109.028 182.871 112.014 182.842 112.083C178.526 115.063 171.806 119.641 167.579 122.628L167.312 122.822L167.241 122.875C166.676 123.277 166.222 123.905 166.005 124.552C164.981 128.18 169.279 130.101 171.416 127.884C171.375 127.925 171.335 127.958 171.297 127.986L171.319 127.965C171.319 127.965 171.338 127.948 171.371 127.917C171.385 127.906 171.416 127.877 171.449 127.849C171.442 127.856 171.437 127.863 171.43 127.868C171.439 127.858 171.451 127.849 171.46 127.837C171.512 127.792 171.564 127.747 171.564 127.747C173.42 126.174 176.5 123.628 178.403 122.055C178.405 122.05 185.835 114.925 185.835 114.923L188.837 112.848C188.837 112.848 188.837 112.839 188.837 112.824C189.057 112.675 189.579 112.332 190.057 112.022C190.331 111.842 190.409 111.474 190.232 111.197C190.052 110.922 189.686 110.844 189.409 111.022L189.411 111.027ZM187.875 109.658C187.887 109.636 187.896 109.613 187.903 109.589C187.896 109.613 187.884 109.636 187.875 109.658Z" fill="url(#paint14_linear_894_120713)"/>
<path d="M177.601 115.691C174.103 118.096 170.318 120.696 167.581 122.632L167.314 122.826L167.243 122.878C166.678 123.281 166.224 123.908 166.007 124.555C164.983 128.184 169.281 130.105 171.417 127.888C171.377 127.928 171.337 127.961 171.299 127.989L171.321 127.968C171.321 127.968 171.339 127.951 171.373 127.921C171.387 127.909 171.417 127.88 171.451 127.852C171.443 127.859 171.439 127.866 171.432 127.871C171.441 127.861 171.453 127.852 171.462 127.84C171.514 127.795 171.566 127.75 171.566 127.75C173.422 126.177 176.502 123.631 178.405 122.058C178.405 122.058 179.384 121.118 180.629 119.924L177.601 115.691Z" fill="url(#paint15_linear_894_120713)"/>
<path d="M160.393 138.262C165.95 139.131 171.273 139.063 172.819 136.273L172.427 130.99L172.907 129.666C173.573 127.824 173.039 125.751 171.55 124.481C171.493 124.434 171.46 124.408 171.46 124.408L170.543 120.668L168.51 121.741L163.69 122.52L159.471 124.254L161.083 133.804L160.393 138.265V138.262Z" fill="#FFF0FD"/>
<path d="M167.151 121.537C167.151 121.537 167.023 123.231 166.983 123.768C166.442 124.657 162.906 123.965 162.724 122.977L163.201 119.41L167.151 121.54V121.537Z" fill="url(#paint16_linear_894_120713)"/>
<g style="mix-blend-mode:multiply">
<path d="M167.04 123.007C167.09 122.334 167.151 121.536 167.151 121.536L166.314 121.086L163.038 120.941C163.038 120.941 164.232 122.881 167.04 123.007Z" fill="#D48994"/>
</g>
<path d="M163.578 120.538C163.769 120.092 163.41 119.509 162.775 119.236C162.141 118.962 161.471 119.102 161.28 119.548C161.089 119.994 161.448 120.577 162.082 120.85C162.717 121.124 163.386 120.984 163.578 120.538Z" fill="url(#paint17_radial_894_120713)"/>
<path d="M167.744 121.952L167.992 121.806C169.711 120.794 169.673 118.651 168.664 116.931L167.678 115.247C166.548 113.776 164.877 113.406 163.158 114.418L162.91 114.565C161.192 115.576 160.837 117.09 161.846 118.809L162.688 120.384C163.409 121.952 166.026 122.964 167.744 121.952Z" fill="url(#paint18_radial_894_120713)"/>
<path d="M168.339 117.513C168.498 117.439 168.537 117.187 168.426 116.95C168.316 116.713 168.098 116.581 167.939 116.655C167.781 116.729 167.742 116.981 167.852 117.218C167.963 117.455 168.181 117.588 168.339 117.513Z" fill="#171B2C"/>
<path d="M168.007 117.052C168.042 117.034 168.053 116.984 168.031 116.94C168.009 116.895 167.963 116.873 167.928 116.89C167.893 116.908 167.882 116.958 167.904 117.003C167.926 117.047 167.972 117.069 168.007 117.052Z" fill="#DEE3F8"/>
<path d="M166.041 118.638C166.2 118.564 166.239 118.312 166.128 118.075C166.018 117.838 165.8 117.706 165.642 117.78C165.483 117.854 165.444 118.106 165.554 118.343C165.665 118.58 165.883 118.713 166.041 118.638Z" fill="#171B2C"/>
<path d="M165.71 118.177C165.745 118.159 165.755 118.109 165.733 118.065C165.711 118.02 165.665 117.998 165.63 118.015C165.595 118.033 165.584 118.083 165.606 118.128C165.628 118.172 165.674 118.194 165.71 118.177Z" fill="#DEE3F8"/>
<path d="M167.877 115.848C167.716 115.855 167.56 115.902 167.426 115.987C167.397 116.006 167.374 116.035 167.364 116.068C167.355 116.101 167.359 116.144 167.378 116.172C167.416 116.231 167.499 116.262 167.563 116.222C167.6 116.198 167.641 116.177 167.681 116.16L167.648 116.175C167.709 116.148 167.773 116.132 167.842 116.122L167.806 116.127C167.83 116.125 167.856 116.122 167.879 116.12C167.95 116.118 168.019 116.061 168.014 115.985C168.012 115.914 167.955 115.848 167.879 115.85L167.877 115.848Z" fill="#8D4F81"/>
<path d="M165.137 117.476C165.152 117.452 165.168 117.429 165.185 117.405L165.163 117.433C165.204 117.381 165.248 117.336 165.3 117.296L165.272 117.317C165.324 117.277 165.381 117.246 165.44 117.22L165.407 117.234C165.407 117.234 165.43 117.225 165.44 117.22C165.473 117.208 165.501 117.189 165.52 117.159C165.537 117.13 165.544 117.088 165.534 117.054C165.513 116.99 165.44 116.934 165.369 116.96C165.175 117.031 165.01 117.161 164.901 117.339C164.863 117.4 164.887 117.49 164.951 117.523C165.014 117.556 165.097 117.54 165.135 117.474L165.137 117.476Z" fill="#8D4F81"/>
<g style="mix-blend-mode:multiply">
<path d="M167.702 117.666C167.702 117.666 167.461 118.413 167.749 118.602C168.038 118.794 168.39 118.304 168.39 118.304L167.702 117.664V117.666Z" fill="#FFA5B2"/>
</g>
<path d="M167.694 117.762C167.654 117.663 167.744 117.561 167.848 117.592C168.136 117.677 168.564 117.85 168.486 118.113C168.425 118.319 168.302 118.435 168.198 118.501C168.115 118.553 168.009 118.518 167.971 118.428L167.694 117.764V117.762Z" fill="url(#paint19_radial_894_120713)"/>
<g style="mix-blend-mode:multiply">
<path d="M166.594 119.637C166.594 119.637 167.419 120.023 168.029 119.637" stroke="#D48994" stroke-width="0.82" stroke-miterlimit="10" stroke-linecap="round"/>
</g>
<path d="M165.326 113.586C165.92 115.531 163.516 119.716 162.1 119.256C160.568 117.819 160.544 114.254 165.326 113.586Z" fill="url(#paint20_radial_894_120713)"/>
<path d="M165.382 113.587C166.477 113.973 166.148 116.122 165.401 116.726C165.321 116.79 165.207 116.695 165.252 116.605C165.423 115.904 165.408 115.134 165.363 114.423C165.349 114.182 165.345 113.985 165.271 113.746C165.231 113.665 165.295 113.566 165.385 113.589L165.382 113.587Z" fill="url(#paint21_radial_894_120713)"/>
<path d="M162.7 137.62C161.398 137.62 160.204 136.756 159.84 135.436L157.719 127.741C157.282 126.156 158.211 124.519 159.79 124.081C161.372 123.643 163.007 124.574 163.442 126.158L165.563 133.854C166 135.439 165.071 137.075 163.492 137.514C163.227 137.587 162.962 137.622 162.7 137.622V137.62Z" fill="url(#paint22_linear_894_120713)"/>
<path d="M175.041 123.942L173.973 124.669C173.978 124.548 173.973 124.432 173.956 124.316L175.526 123.392C175.739 123.267 175.81 122.995 175.684 122.781C175.559 122.568 175.287 122.497 175.074 122.623L173.63 123.473C173.604 123.435 173.576 123.397 173.547 123.359L175.136 122.452C175.349 122.329 175.424 122.057 175.301 121.843C175.179 121.63 174.909 121.554 174.694 121.678L172.836 122.741C172.774 122.706 172.708 122.672 172.642 122.642L174.098 121.865C174.316 121.749 174.398 121.479 174.283 121.261C174.167 121.043 173.897 120.96 173.68 121.076C173.68 121.076 170.638 122.765 170.46 122.836C170.515 122.611 170.675 122.215 170.675 122.215C170.801 121.699 170.068 121.431 169.836 121.917L169.066 123.556C169.023 123.658 169.004 123.755 169.007 123.842C168.983 123.878 168.969 123.899 168.969 123.899L160.785 131.993C158.762 133.994 160.291 138.149 163.036 137.417C166.413 136.517 168.17 132.396 169.207 130.979C170.307 129.518 171.749 127.249 172.98 126.42C172.994 126.412 173.009 126.408 173.023 126.398L175.545 124.681C175.748 124.544 175.8 124.264 175.663 124.06C175.526 123.857 175.249 123.802 175.044 123.942H175.041Z" fill="#F7A59C"/>
<path d="M175.041 123.942L173.973 124.669C173.978 124.548 173.973 124.432 173.956 124.316L175.526 123.392C175.739 123.267 175.81 122.995 175.684 122.781C175.559 122.568 175.287 122.497 175.074 122.623L173.63 123.473C173.604 123.435 173.576 123.397 173.547 123.359L175.136 122.452C175.349 122.329 175.424 122.057 175.301 121.843C175.179 121.63 174.909 121.554 174.694 121.678L172.836 122.741C172.774 122.706 172.708 122.672 172.642 122.642L174.098 121.865C174.316 121.749 174.398 121.479 174.283 121.261C174.167 121.043 173.897 120.96 173.68 121.076C173.68 121.076 170.638 122.765 170.46 122.836C170.515 122.611 170.675 122.215 170.675 122.215C170.801 121.699 170.068 121.431 169.836 121.917L169.066 123.556C169.023 123.658 169.004 123.755 169.007 123.842C168.983 123.878 168.969 123.899 168.969 123.899L160.785 131.993C158.762 133.994 160.291 138.149 163.036 137.417C166.413 136.517 168.17 132.396 169.207 130.979C170.307 129.518 171.749 127.249 172.98 126.42C172.994 126.412 173.009 126.408 173.023 126.398L175.545 124.681C175.748 124.544 175.8 124.264 175.663 124.06C175.526 123.857 175.249 123.802 175.044 123.942H175.041Z" fill="url(#paint23_linear_894_120713)"/>
<path d="M166.865 181.397C166.777 181.774 166.418 182.025 165.914 182.025H154.979C154.476 182.025 153.975 181.516 153.987 180.893L156.301 173.02L161.934 174.273C161.092 175.644 160.189 176.426 161.191 177.236C162.645 178.411 164.65 179.446 166.477 180.497C166.784 180.675 166.947 181.035 166.865 181.395V181.397Z" fill="url(#paint24_linear_894_120713)"/>
<path d="M165.914 182.026H154.979C154.476 182.026 153.975 181.517 153.987 180.894L154.849 177.836C154.849 177.836 157.303 180.273 160.404 179.039L162.331 177.997C163.596 178.871 165.052 179.683 166.479 180.503C166.787 180.678 166.947 181.038 166.867 181.398C166.78 181.777 166.423 182.028 165.917 182.028L165.914 182.026Z" fill="url(#paint25_linear_894_120713)"/>
<path d="M154.181 172.905L162.159 146.891L171.363 149.868L162.657 175.648C162.22 177.993 153.368 175.428 154.181 172.905Z" fill="url(#paint26_linear_894_120713)"/>
<path d="M160.544 152.154L168.404 158.627L171.363 149.868L162.158 146.891L160.544 152.154Z" fill="url(#paint27_linear_894_120713)"/>
<path d="M179.765 175.97C179.678 176.347 179.318 176.598 178.933 176.598H167.998C167.376 176.598 166.877 176.089 166.887 175.466L169.078 169.018L174.952 168.848C174.489 170.411 173.208 171.001 174.21 171.811C175.664 172.986 177.55 174.021 179.377 175.072C179.685 175.25 179.848 175.61 179.765 175.97Z" fill="url(#paint28_linear_894_120713)"/>
<path d="M178.935 176.6H168C167.378 176.6 166.877 176.091 166.889 175.468L167.889 172.41C167.889 172.41 170.321 174.847 173.425 173.613L175.233 172.571C176.498 173.445 177.954 174.258 179.382 175.077C179.689 175.253 179.85 175.613 179.769 175.973C179.682 176.352 179.325 176.603 178.937 176.603L178.935 176.6Z" fill="url(#paint29_linear_894_120713)"/>
<path d="M184.017 155.65C184.017 155.015 183.871 154.347 183.629 153.781C183.358 153.144 183.121 152.857 182.856 152.492C182.14 151.606 181.405 150.939 180.623 150.178C178.292 147.987 175.926 145.865 173.541 143.762L172.796 136.27L160.369 138.259C160.369 138.259 159.18 143.086 159.381 145.301C159.743 149.276 165.414 150.285 165.414 150.285C167.565 152.04 171.668 155.204 173.647 156.931C172.037 161.114 170.451 164.745 169.068 168.324L177.32 171.688C178.89 168.005 181.419 162.77 182.961 159.143C183.102 158.812 183.469 157.959 183.606 157.637C183.606 157.637 183.859 157.019 183.906 156.706C183.991 156.363 184.022 155.825 184.015 155.65H184.017Z" fill="#D13771"/>
<path style="mix-blend-mode:multiply" opacity="0.74" d="M173.65 156.933C173.65 156.933 174.836 156.263 174.799 155.754C174.761 155.245 172.929 156.322 172.929 156.322L173.647 156.933H173.65Z" fill="url(#paint30_linear_894_120713)"/>
<path d="M109.477 206.498H103.324C102.178 206.498 101.357 205.449 101.693 204.409L104.052 197.106L103.863 195.91H109.855L109.744 199.288L110.86 204.92C111.023 205.742 110.359 206.498 109.48 206.498H109.477Z" fill="url(#paint31_linear_894_120713)"/>
<path d="M109.477 206.497H103.326C102.18 206.497 101.359 205.446 101.695 204.408L102.551 201.758C104.993 203.819 108.588 202.717 110.283 202.009L110.86 204.922C111.023 205.742 110.358 206.5 109.477 206.5V206.497Z" fill="url(#paint32_linear_894_120713)"/>
<path d="M122.79 144.533C122.294 142.634 121.833 141.203 121.429 140.402L102.792 140.483C96.4028 149.633 102.322 198.37 102.322 198.37H110.186L113.224 159.522L115.375 150.699L122.79 144.531V144.533Z" fill="#463D83"/>
<path d="M122.79 144.533C122.294 142.634 121.833 141.203 121.429 140.402L102.792 140.483C96.4028 149.633 102.322 198.37 102.322 198.37H110.186L113.224 159.522L115.375 150.699L122.79 144.531V144.533Z" fill="url(#paint33_linear_894_120713)"/>
<path d="M140.304 205.606C140.195 206.054 139.741 206.355 139.256 206.355H125.504C124.724 206.355 124.092 205.748 124.107 205.009L124.201 199.535L123.504 197.259L130.413 196.918C130.695 198.377 132.054 199.696 133.316 200.66C135.146 202.058 137.517 203.29 139.817 204.54C140.204 204.753 140.408 205.182 140.304 205.608V205.606Z" fill="url(#paint34_linear_894_120713)"/>
<path d="M139.257 206.352H125.502C124.722 206.352 124.091 205.746 124.105 205.005L124.166 201.527C124.166 201.527 128.423 204.265 132.326 202.797L134.6 201.556C136.189 202.596 138.023 203.56 139.819 204.538C140.205 204.746 140.41 205.175 140.306 205.601C140.198 206.051 139.746 206.352 139.259 206.352H139.257Z" fill="url(#paint35_linear_894_120713)"/>
<path d="M132.106 197.782C132.106 197.782 126.445 158.496 122.788 144.535L115.373 150.703L113.222 159.526L122.781 197.784H132.106V197.782Z" fill="#463D83"/>
<path d="M132.106 197.782C132.106 197.782 126.445 158.496 122.788 144.535L115.373 150.703L113.222 159.526L122.781 197.784H132.106V197.782Z" fill="url(#paint36_linear_894_120713)"/>
<path d="M132.106 197.782C132.106 197.782 126.445 158.496 122.788 144.535L115.373 150.703L113.222 159.526L122.781 197.784H132.106V197.782Z" fill="url(#paint37_linear_894_120713)"/>
<path d="M110.535 110.402C109.147 109.497 105.597 112.495 104.694 113.886C103.791 115.276 104.183 117.138 105.571 118.045C106.958 118.95 108.816 118.557 109.722 117.166C110.625 115.776 111.925 111.309 110.535 110.404V110.402Z" fill="#D13771"/>
<path d="M110.535 110.402C109.147 109.497 105.597 112.495 104.694 113.886C103.791 115.276 104.183 117.138 105.571 118.045C106.958 118.95 108.816 118.557 109.722 117.166C110.625 115.776 111.925 111.309 110.535 110.404V110.402Z" fill="url(#paint38_radial_894_120713)"/>
<path d="M110.535 110.402C109.147 109.497 105.597 112.495 104.694 113.886C103.791 115.276 104.183 117.138 105.571 118.045C106.958 118.95 108.816 118.557 109.722 117.166C110.625 115.776 111.925 111.309 110.535 110.404V110.402Z" fill="url(#paint39_radial_894_120713)"/>
<path d="M124.956 122.042C125.535 125.152 125.851 128.307 126.052 131.462C126.114 132.516 126.156 133.575 126.145 134.638C125.991 139.16 119.805 139.946 118.49 135.673C118.197 134.65 117.959 133.62 117.739 132.585C117.301 130.521 116.945 128.439 116.656 126.35C116.512 125.306 116.384 124.261 116.306 123.207C116.127 120.794 117.933 118.693 120.339 118.513C122.57 118.344 124.537 119.889 124.956 122.037V122.042Z" fill="#7667D0"/>
<path d="M102.793 140.482C109.877 141.59 116.347 141.898 121.429 140.401L121.472 134.311L123.268 129.11C124.235 127.357 121.302 118.711 121.302 118.711L114.461 115.836L108.891 116.404L101.535 119.799L103.8 135.309L102.793 140.479V140.482Z" fill="url(#paint40_linear_894_120713)"/>
<path d="M108.017 123.195C108.045 127.757 107.773 132.324 107.121 136.843C106.324 141.149 100.268 140.92 99.7551 136.618C99.3792 132.068 99.3863 127.492 99.6936 122.942C100.124 117.754 107.906 118.029 108.019 123.197L108.017 123.195Z" fill="url(#paint41_linear_894_120713)"/>
<path d="M119.356 116.066H130.764V136.29C130.764 136.695 130.435 137.022 130.033 137.022H117.392C116.987 137.022 116.661 136.692 116.661 136.29V118.767C116.661 117.277 117.869 116.066 119.356 116.066Z" fill="url(#paint42_linear_894_120713)"/>
<path d="M134.081 118.834V127.119H125.325C123.85 127.119 122.654 125.921 122.654 124.443V118.765C122.654 117.273 121.446 116.062 119.959 116.062H131.317C132.844 116.062 134.081 117.304 134.081 118.831V118.834Z" fill="url(#paint43_linear_894_120713)"/>
<path d="M129.452 119.426C128.213 119.426 127.206 120.432 127.206 121.676V123.749V124.421C127.206 125.911 125.999 127.121 124.512 127.121H127.206H139.257C140.508 127.121 141.522 126.105 141.522 124.852V119.426H129.45H129.452Z" fill="url(#paint44_linear_894_120713)"/>
<path d="M141.703 119.426H131.168H128.927C129.222 119.426 129.506 119.483 129.764 119.589C130.589 119.923 131.087 120.771 131.087 121.659V122.308H144.313V122.041C144.313 120.596 143.145 119.426 141.703 119.426Z" fill="url(#paint45_linear_894_120713)"/>
<path d="M129.246 135.584C128.974 135.584 128.717 135.413 128.62 135.141C128.497 134.795 128.676 134.413 129.022 134.29L131.501 133.402C131.846 133.279 132.227 133.459 132.35 133.805C132.473 134.151 132.293 134.532 131.948 134.655L129.468 135.543C129.395 135.569 129.319 135.581 129.244 135.581L129.246 135.584Z" fill="#E7918D"/>
<path d="M127.4 133.99C127.095 133.99 126.821 133.779 126.753 133.469C126.672 133.109 126.899 132.753 127.256 132.673L130.641 131.915C130.998 131.834 131.355 132.059 131.435 132.419C131.516 132.779 131.289 133.135 130.932 133.215L127.547 133.973C127.497 133.985 127.45 133.99 127.4 133.99Z" fill="#E7918D"/>
<path d="M126.322 132.315C125.994 132.315 125.71 132.071 125.665 131.737C125.616 131.373 125.871 131.039 126.235 130.989L130.041 130.475C130.402 130.425 130.738 130.681 130.788 131.046C130.837 131.411 130.582 131.745 130.218 131.794L126.412 132.308C126.382 132.313 126.353 132.315 126.322 132.315Z" fill="#E7918D"/>
<path d="M126.781 130.498C126.424 130.498 126.128 130.213 126.117 129.853C126.105 129.486 126.393 129.178 126.76 129.166L130.322 129.055C130.695 129.043 130.996 129.332 131.007 129.699C131.019 130.066 130.731 130.374 130.364 130.386L126.802 130.498C126.802 130.498 126.788 130.498 126.781 130.498Z" fill="#E7918D"/>
<path d="M135.158 131.5C135.061 130.617 134.522 129.847 133.745 129.468C133.688 129.413 133.608 129.34 133.574 129.304C132.894 128.665 132.192 128.037 131.423 127.504C130.814 127.092 130.064 127.85 130.497 128.459C130.636 128.655 130.785 128.84 130.936 129.025C129.823 129.025 128.97 129.172 128.97 129.172L130.617 134.193L131.75 134.738L133.355 134.248C134.539 133.888 135.298 132.732 135.163 131.5H135.158Z" fill="url(#paint46_linear_894_120713)"/>
<path d="M116.43 119.73L111.246 116.523L111.948 113.683C111.998 113.534 112.156 113.453 112.305 113.496L116.347 116.606C116.555 116.746 116.669 116.989 116.64 117.238L116.428 119.728L116.43 119.73Z" fill="url(#paint47_linear_894_120713)"/>
<path d="M106.204 107.613C106.204 111.213 108.991 113.307 112.227 113.307C115.463 113.307 118.68 111.244 118.68 107.644C118.68 104.043 116.059 101.578 112.825 101.5C108.225 101.388 106.206 104.01 106.206 107.611L106.204 107.613Z" fill="#D13771"/>
<path d="M106.204 107.613C106.204 111.213 108.991 113.307 112.227 113.307C115.463 113.307 118.68 111.244 118.68 107.644C118.68 104.043 116.059 101.578 112.825 101.5C108.225 101.388 106.206 104.01 106.206 107.611L106.204 107.613Z" fill="url(#paint48_radial_894_120713)"/>
<path d="M106.264 107.613C106.264 111.213 109.051 113.307 112.287 113.307C115.523 113.307 118.74 111.244 118.74 107.644C118.74 104.043 116.119 101.578 112.885 101.5C108.285 101.388 106.266 104.01 106.266 107.611L106.264 107.613Z" fill="url(#paint49_radial_894_120713)"/>
<path d="M115.095 114.835L114.894 116.668C114.894 116.668 114.638 118.729 114.615 118.89C114.135 119.004 109.036 117.459 108.485 117.083L109.372 111.223L115.095 114.837V114.835Z" fill="url(#paint50_linear_894_120713)"/>
<g style="mix-blend-mode:multiply">
<path d="M114.893 116.667L115.094 114.834L113.452 113.796L110.234 113.5C110.762 115.016 112.962 116.949 114.794 117.47C114.849 117.034 114.893 116.665 114.893 116.665V116.667Z" fill="#D48994"/>
</g>
<path d="M112.922 120.148L107.738 116.941L108.44 114.101C108.49 113.952 108.648 113.871 108.797 113.914L112.877 117.336C113.085 117.476 113.199 117.72 113.17 117.969L112.922 120.143V120.148Z" fill="url(#paint51_linear_894_120713)"/>
<path d="M110.245 111.219C110.784 110.821 110.764 109.875 110.198 109.104C109.633 108.334 108.737 108.031 108.198 108.429C107.658 108.826 107.679 109.773 108.244 110.544C108.809 111.314 109.705 111.616 110.245 111.219Z" fill="url(#paint52_radial_894_120713)"/>
<path d="M114.225 115.838H114.622C117.376 115.838 118.829 113.256 118.829 110.497V107.797C118.829 105.037 116.598 103.5 113.842 103.5H113.445C110.691 103.5 109.275 106.203 109.388 107.953L109.291 110.421C109.055 112.797 111.471 115.838 114.225 115.838Z" fill="url(#paint53_radial_894_120713)"/>
<path d="M115.296 103.299C116.499 108.934 109.332 109.401 109.332 109.401C109.332 109.401 107.937 102.446 115.296 103.299Z" fill="url(#paint54_radial_894_120713)"/>
<path d="M115.271 103.215C115.271 103.215 116.33 107.96 118.829 107.995C119.77 106.882 118.101 103.168 115.271 103.215Z" fill="#A92473"/>
<path d="M115.271 103.215C115.271 103.215 116.33 107.96 118.829 107.995C119.77 106.882 118.101 103.168 115.271 103.215Z" fill="url(#paint55_radial_894_120713)"/>
<g style="mix-blend-mode:multiply">
<path d="M116.073 110.801C116.073 110.801 115.309 111.324 115.525 111.826C115.74 112.329 116.446 112.044 116.446 112.044L116.073 110.801Z" fill="#D48994"/>
</g>
<path d="M118.193 110.415C118.205 110.057 118.019 109.76 117.777 109.752C117.536 109.744 117.331 110.028 117.319 110.386C117.307 110.745 117.494 111.042 117.735 111.049C117.976 111.057 118.181 110.773 118.193 110.415Z" fill="url(#paint56_radial_894_120713)"/>
<path d="M118.018 110.184C118.021 110.117 117.981 110.059 117.928 110.056C117.874 110.053 117.828 110.106 117.824 110.174C117.82 110.242 117.861 110.299 117.914 110.302C117.968 110.305 118.014 110.252 118.018 110.184Z" fill="white"/>
<path d="M115.995 110.915C116.014 110.768 116.196 110.709 116.297 110.818C116.583 111.123 116.971 111.63 116.695 111.886C116.477 112.087 116.248 112.142 116.08 112.147C115.948 112.151 115.844 112.033 115.86 111.9L115.995 110.915Z" fill="url(#paint57_radial_894_120713)"/>
<path d="M113.281 110.17C113.671 109.921 114.08 109.883 114.51 110.054" stroke="#272525" stroke-width="1.13" stroke-linecap="round" stroke-linejoin="round"/>
<g style="mix-blend-mode:multiply">
<path d="M114.551 112.496C114.551 112.496 115.045 113.429 116.499 113.294" stroke="#D48994" stroke-width="1.13" stroke-miterlimit="10" stroke-linecap="round"/>
</g>
<path d="M112.251 118.179C109.579 118.52 106.956 123.111 106.956 123.111C106.667 123.485 106.388 123.864 106.114 124.245C103.786 127.585 101.72 131.112 100.32 134.942C98.9634 139.184 104.53 141.991 107.109 138.303C108.594 136.024 109.702 133.559 110.714 131.043C111.636 128.686 112.442 126.311 112.917 123.805C112.917 123.805 114.87 124.098 115.68 124.079L117.323 118.657C117.323 118.657 114.922 117.836 112.251 118.177V118.179Z" fill="url(#paint58_linear_894_120713)"/>
<path d="M112.251 118.179C109.579 118.52 106.956 123.111 106.956 123.111C106.667 123.485 106.388 123.864 106.114 124.245C103.786 127.585 101.72 131.112 100.32 134.942C98.9634 139.184 104.53 141.991 107.109 138.303C108.594 136.024 109.702 133.559 110.714 131.043C111.636 128.686 112.442 126.311 112.917 123.805C112.917 123.805 114.87 124.098 115.68 124.079L117.323 118.657C117.323 118.657 114.922 117.836 112.251 118.177V118.179Z" fill="url(#paint59_linear_894_120713)"/>
<path d="M117.094 124.366C117.077 124.366 117.063 124.361 117.046 124.359L115.33 124.074C114.959 124.013 114.706 123.695 114.765 123.369C114.824 123.042 115.174 122.824 115.548 122.885L117.262 123.17C117.633 123.231 117.886 123.549 117.827 123.876C117.77 124.191 117.446 124.401 117.091 124.366H117.094Z" fill="#FDE0DE"/>
<path d="M118.276 123.166C118.226 123.166 118.176 123.161 118.127 123.149L115.772 122.654C115.404 122.576 115.172 122.23 115.252 121.88C115.333 121.529 115.699 121.309 116.068 121.387L118.422 121.882C118.791 121.96 119.023 122.306 118.942 122.656C118.871 122.96 118.59 123.166 118.276 123.166Z" fill="#FDE0DE"/>
<path d="M119.207 120.412C119.153 120.412 119.098 120.405 119.044 120.393L116.642 119.801C116.276 119.711 115.728 119.303 115.817 118.936C115.907 118.569 116.141 118.361 116.508 118.451L119.37 119.064C119.737 119.154 119.961 119.526 119.869 119.893C119.793 120.206 119.514 120.414 119.207 120.414V120.412Z" fill="#FDE0DE"/>
<path d="M119.208 121.906C119.151 121.906 119.094 121.899 119.037 121.887L116.636 121.328C116.269 121.243 116.049 120.904 116.144 120.573C116.239 120.241 116.61 120.04 116.976 120.125L119.378 120.684C119.744 120.769 119.964 121.108 119.869 121.44C119.791 121.722 119.512 121.909 119.208 121.909V121.906Z" fill="#FDE0DE"/>
<path d="M75.2662 154.084H75.2733C70.7655 139.96 63.0877 131.099 54.2825 124.109C54.2825 124.112 54.2825 124.116 54.2825 124.119C54.2825 124.119 54.2801 124.116 54.2777 124.114C54.2777 124.116 54.2777 124.121 54.2777 124.124C54.2777 124.124 54.2754 124.121 54.273 124.119C54.273 124.121 54.273 124.126 54.273 124.128C54.273 124.128 54.2706 124.126 54.2683 124.124C54.2683 124.126 54.2683 124.131 54.2683 124.133C54.2683 124.133 54.2659 124.131 54.2635 124.128C54.2635 124.131 54.2635 124.135 54.2635 124.138C54.2635 124.138 54.2612 124.135 54.2588 124.133C54.2588 124.135 54.2588 124.14 54.2588 124.143C54.2588 124.143 54.2564 124.14 54.2541 124.138C54.2541 124.14 54.2541 124.145 54.2541 124.147C54.2541 124.147 54.2517 124.145 54.2494 124.143C54.2494 124.145 54.2494 124.15 54.2494 124.152C54.2494 124.152 54.247 124.15 54.2446 124.147C54.2446 124.15 54.2446 124.154 54.2446 124.157C54.2446 124.157 54.2423 124.154 54.2399 124.152C54.2399 124.154 54.2399 124.159 54.2399 124.161C54.2399 124.161 54.2375 124.159 54.2352 124.157C54.2352 124.159 54.2352 124.164 54.2352 124.166C54.2352 124.166 54.2328 124.164 54.2304 124.161C54.2304 124.164 54.2304 124.169 54.2304 124.171C54.2304 124.171 54.2281 124.169 54.2257 124.166C54.2257 124.169 54.2257 124.173 54.2257 124.176C54.2257 124.176 54.2234 124.173 54.221 124.171C54.221 124.173 54.221 124.178 54.221 124.18C54.221 124.18 54.2186 124.178 54.2163 124.176C54.2163 124.178 54.2163 124.183 54.2163 124.185C54.2163 124.185 54.2139 124.183 54.2115 124.18C54.2115 124.183 54.2115 124.188 54.2115 124.19C54.2115 124.19 54.2092 124.188 54.2068 124.185C54.2068 124.188 54.2068 124.192 54.2068 124.195C54.2068 124.195 54.2044 124.192 54.2021 124.19C54.2021 124.192 54.2021 124.197 54.2021 124.199C54.2021 124.199 54.1997 124.197 54.1974 124.195C54.1974 124.197 54.1974 124.202 54.1974 124.204C54.1974 124.204 54.195 124.202 54.1926 124.199C54.1926 124.202 54.1926 124.206 54.1926 124.209C54.1926 124.209 54.1903 124.206 54.1879 124.204C54.1879 124.206 54.1879 124.211 54.1879 124.214C54.1879 124.214 54.1855 124.211 54.1832 124.209C54.1832 124.211 54.1832 124.216 54.1832 124.218C54.1832 124.218 54.1808 124.216 54.1784 124.214C54.1784 124.216 54.1784 124.221 54.1784 124.223C54.1784 124.223 54.1761 124.221 54.1737 124.218C54.1737 124.221 54.1737 124.225 54.1737 124.228C54.1737 124.228 54.1714 124.225 54.169 124.223C54.169 124.225 54.169 124.23 54.169 124.233C54.169 124.233 54.1666 124.23 54.1643 124.228C54.1643 124.23 54.1643 124.235 54.1643 124.237C54.1643 124.237 54.1619 124.235 54.1595 124.233C54.1595 124.235 54.1595 124.24 54.1595 124.242C54.1595 124.242 54.1572 124.24 54.1548 124.237C54.1548 124.24 54.1548 124.244 54.1548 124.247C54.1548 124.247 54.1524 124.244 54.1501 124.242C54.1501 124.244 54.1501 124.249 54.1501 124.251C54.1501 124.251 54.1477 124.249 54.1453 124.247C54.1453 124.249 54.1453 124.254 54.1453 124.256C54.1453 124.256 54.143 124.254 54.1406 124.251C54.1406 124.254 54.1406 124.259 54.1406 124.261C54.1406 124.261 54.1383 124.259 54.1359 124.256C54.1359 124.259 54.1359 124.263 54.1359 124.266C54.1359 124.266 54.1335 124.263 54.1312 124.261C54.1312 124.263 54.1312 124.268 54.1312 124.27C54.1312 124.27 54.1288 124.268 54.1264 124.266C54.1264 124.268 54.1264 124.273 54.1264 124.275C54.1264 124.275 54.1241 124.273 54.1217 124.27C54.1217 124.273 54.1217 124.278 54.1217 124.28C54.1217 124.28 54.1193 124.278 54.117 124.275C54.117 124.278 54.117 124.282 54.117 124.285C54.117 124.285 54.1146 124.282 54.1123 124.28C54.1123 124.282 54.1123 124.287 54.1123 124.289C54.1123 124.289 54.1099 124.287 54.1075 124.285C54.1075 124.287 54.1075 124.292 54.1075 124.294C54.1075 124.294 54.1052 124.292 54.1028 124.289C54.1028 124.292 54.1028 124.297 54.1028 124.299C54.1028 124.299 54.1004 124.296 54.0981 124.294C54.0981 124.296 54.0981 124.301 54.0981 124.304C54.0981 124.304 54.0957 124.301 54.0933 124.299C54.0933 124.301 54.0933 124.306 54.0933 124.308C54.0933 124.308 54.091 124.306 54.0886 124.304C54.0886 124.306 54.0886 124.311 54.0886 124.313C54.0886 124.313 54.0863 124.311 54.0839 124.308C54.0839 124.311 54.0839 124.315 54.0839 124.318C54.0839 124.318 54.0815 124.315 54.0792 124.313C54.0792 124.315 54.0792 124.32 54.0792 124.323C54.0792 124.323 54.0768 124.32 54.0744 124.318C54.0744 124.32 54.0744 124.325 54.0744 124.327C54.0744 124.327 54.0721 124.325 54.0697 124.323C54.0697 124.325 54.0697 124.33 54.0697 124.332C54.0697 124.332 54.0673 124.33 54.065 124.327C54.065 124.33 54.065 124.334 54.065 124.337C54.065 124.337 54.0626 124.334 54.0603 124.332C54.0603 124.334 54.0603 124.339 54.0603 124.342C54.0603 124.342 54.0579 124.339 54.0555 124.337C54.0555 124.339 54.0555 124.344 54.0555 124.346C54.0555 124.346 54.0532 124.344 54.0508 124.342C54.0508 124.344 54.0508 124.349 54.0508 124.351C54.0508 124.351 54.0484 124.349 54.0461 124.346C54.0461 124.349 54.0461 124.353 54.0461 124.356C54.0461 124.356 54.0437 124.353 54.0413 124.351C54.0413 124.353 54.0413 124.358 54.0413 124.36C54.0413 124.36 54.039 124.358 54.0366 124.356C54.0366 124.358 54.0366 124.363 54.0366 124.365C54.0366 124.365 54.0342 124.363 54.0319 124.36C54.0319 124.363 54.0319 124.368 54.0319 124.37C54.0319 124.37 54.0295 124.368 54.0272 124.365C54.0272 124.368 54.0272 124.372 54.0272 124.375C54.0272 124.375 54.0248 124.372 54.0224 124.37C54.0224 124.372 54.0224 124.377 54.0224 124.379C54.0224 124.379 54.0201 124.377 54.0177 124.375C54.0177 124.377 54.0177 124.382 54.0177 124.384C54.0177 124.384 54.0153 124.382 54.013 124.379C54.013 124.382 54.013 124.387 54.013 124.389C54.013 124.389 54.0106 124.387 54.0082 124.384C54.0082 124.387 54.0082 124.391 54.0082 124.394C54.0082 124.394 54.0059 124.391 54.0035 124.389C54.0035 124.391 54.0035 124.396 54.0035 124.398C54.0035 124.398 54.0012 124.396 53.9988 124.394C53.9988 124.396 53.9988 124.401 53.9988 124.403C53.9988 124.403 53.9964 124.401 53.9941 124.398C53.9941 124.401 53.9941 124.405 53.9941 124.408C53.9941 124.408 53.9917 124.405 53.9893 124.403C53.9893 124.405 53.9893 124.41 53.9893 124.413C53.9893 124.413 53.987 124.41 53.9846 124.408C53.9846 124.41 53.9846 124.415 53.9846 124.417C53.9846 124.417 53.9822 124.415 53.9799 124.413C53.9799 124.415 53.9799 124.42 53.9799 124.422C53.9799 124.422 53.9775 124.42 53.9752 124.417C53.9752 124.42 53.9752 124.424 53.9752 124.427C53.9752 124.427 53.9728 124.424 53.9704 124.422C53.9704 124.424 53.9704 124.429 53.9704 124.432C53.9704 124.432 53.9681 124.429 53.9657 124.427C53.9657 124.429 53.9657 124.434 53.9657 124.436C53.9657 124.436 53.9633 124.434 53.961 124.432C53.961 124.434 53.961 124.439 53.961 124.441C53.961 124.441 53.9586 124.439 53.9562 124.436C53.9562 124.439 53.9562 124.443 53.9562 124.446C53.9562 124.446 53.9539 124.443 53.9515 124.441C53.9515 124.443 53.9515 124.448 53.9515 124.45C53.9515 124.45 53.9492 124.448 53.9468 124.446C53.9468 124.448 53.9468 124.453 53.9468 124.455C53.9468 124.455 53.9444 124.453 53.9421 124.45C53.9421 124.453 53.9421 124.458 53.9421 124.46C53.9421 124.46 53.9397 124.458 53.9373 124.455C53.9373 124.458 53.9373 124.462 53.9373 124.465C53.9373 124.465 53.935 124.462 53.9326 124.46C53.9326 124.462 53.9326 124.467 53.9326 124.469C53.9326 124.469 53.9302 124.467 53.9279 124.465C53.9279 124.467 53.9279 124.472 53.9279 124.474C53.9279 124.474 53.9255 124.472 53.9231 124.469C53.9231 124.472 53.9231 124.477 53.9231 124.479C53.9231 124.479 53.9208 124.477 53.9184 124.474C53.9184 124.477 53.9184 124.481 53.9184 124.484C53.9184 124.484 53.9161 124.481 53.9137 124.479C53.9137 124.481 53.9137 124.486 53.9137 124.488C53.9137 124.488 53.9113 124.486 53.909 124.484C53.909 124.486 53.909 124.491 53.909 124.493C53.909 124.493 53.9066 124.491 53.9042 124.488C53.9042 124.491 53.9042 124.495 53.9042 124.498C53.9042 124.498 53.9019 124.495 53.8995 124.493C53.8995 124.495 53.8995 124.5 53.8995 124.503C53.8995 124.503 53.8971 124.5 53.8948 124.498C53.8948 124.5 53.8948 124.505 53.8948 124.507C53.8948 124.507 53.8924 124.505 53.8901 124.503C53.8901 124.505 53.8901 124.51 53.8901 124.512C53.8901 124.512 53.8877 124.51 53.8853 124.507C53.8853 124.51 53.8853 124.514 53.8853 124.517C53.8853 124.517 53.883 124.514 53.8806 124.512C53.8806 124.514 53.8806 124.519 53.8806 124.522C53.8806 124.522 53.8782 124.519 53.8759 124.517C53.8759 124.519 53.8759 124.524 53.8759 124.526C53.8759 124.526 53.8735 124.524 53.8711 124.522C53.8711 124.524 53.8711 124.529 53.8711 124.531C53.8711 124.531 53.8688 124.529 53.8664 124.526C53.8664 124.529 53.8664 124.533 53.8664 124.536C53.8664 124.536 53.8641 124.533 53.8617 124.531C53.8617 124.533 53.8617 124.538 53.8617 124.54C53.8617 124.54 53.8593 124.538 53.857 124.536C53.857 124.538 53.857 124.543 53.857 124.545C53.857 124.545 53.8546 124.543 53.8522 124.54C53.8522 124.543 53.8522 124.548 53.8522 124.55C53.8522 124.55 53.8499 124.548 53.8475 124.545C53.8475 124.548 53.8475 124.552 53.8475 124.555C53.8475 124.555 53.8451 124.552 53.8428 124.55C53.8428 124.552 53.8428 124.557 53.8428 124.559C53.8428 124.559 53.8404 124.557 53.8381 124.555C53.8381 124.557 53.8381 124.562 53.8381 124.564C53.8381 124.564 53.8357 124.562 53.8333 124.559C53.8333 124.562 53.8333 124.567 53.8333 124.569C53.8333 124.569 53.831 124.567 53.8286 124.564C53.8286 124.567 53.8286 124.571 53.8286 124.574C53.8286 124.574 53.8262 124.571 53.8239 124.569C53.8239 124.571 53.8239 124.576 53.8239 124.578C53.8239 124.578 53.8215 124.576 53.8191 124.574C53.8191 124.576 53.8191 124.581 53.8191 124.583C53.8191 124.583 53.8168 124.581 53.8144 124.578C53.8144 124.581 53.8144 124.585 53.8144 124.588C53.8144 124.588 53.812 124.585 53.8097 124.583C53.8097 124.585 53.8097 124.59 53.8097 124.593C53.8097 124.593 53.8073 124.59 53.805 124.588C53.3086 135.242 57.2751 145.448 66.442 155.136L74.7958 154.563C74.7958 154.563 74.7958 154.561 74.7958 154.558H74.8029V154.553H74.81V154.549H74.8171V154.544H74.8242V154.539H74.8313V154.535H74.8384V154.53H74.8455V154.525H74.8525V154.52H74.8596V154.516H74.8667V154.511H74.8738V154.506H74.8809V154.501H74.888V154.497H74.8951V154.492H74.9022V154.487H74.9093V154.482H74.9164V154.478H74.9235V154.473H74.9306V154.468H74.9376V154.463H74.9447V154.459H74.9518V154.454H74.9589V154.449H74.966V154.444H74.9731V154.44H74.9802V154.435H74.9873V154.43H74.9944V154.426H75.0015V154.421H75.0086V154.416H75.0157V154.411H75.0227V154.407H75.0298V154.402H75.0369V154.397H75.044V154.392H75.0511V154.388H75.0582V154.383H75.0653V154.378H75.0724V154.373H75.0795V154.369H75.0866V154.364H75.0937V154.359H75.1007V154.354H75.1078V154.35H75.1149V154.345H75.122V154.34H75.1291V154.336H75.1362V154.331H75.1433V154.326H75.1504V154.321H75.1575V154.317H75.1646V154.312H75.1717V154.307H75.1788V154.302H75.1858V154.298H75.1929V154.293H75.2V154.288H75.2071V154.283H75.2142V154.279H75.2213V154.274H75.2284V154.269H75.2355V154.264H75.2426V154.26H75.2497V154.255H75.2568V154.25H75.2639V154.246H75.2709V154.241H75.278V154.236H75.2851V154.231H75.2922V154.227H75.2993V154.222H75.3064V154.217H75.3135V154.212H75.3206V154.208H75.3277V154.203H75.3348V154.198H75.3419V154.193H75.349V154.189H75.356V154.184H75.3631V154.179H75.3702V154.174H75.3773V154.17H75.3844V154.165H75.3915V154.16H75.3986V154.156H75.4057V154.151H75.4128V154.146H75.4199V154.141H75.427V154.137H75.4341V154.132H75.4411V154.127H75.4482V154.122H75.4553V154.118H75.4624V154.113H75.4695V154.108H75.4766V154.103H75.4837V154.099H75.4908V154.094H75.4979V154.089H75.505V154.084H75.2662Z" fill="#B6DDED"/>
<path d="M66.9195 154.658C57.7526 144.97 53.7861 134.764 54.2825 124.109C63.0854 131.102 70.7655 139.96 75.2733 154.084L66.9195 154.658Z" fill="url(#paint60_linear_894_120713)"/>
<g style="mix-blend-mode:multiply" opacity="0.61">
<path d="M60.9932 147.27C62.6502 149.764 64.6216 152.227 66.9217 154.655L71.4035 154.347C69.3517 150.202 65.475 147.971 60.9955 147.27H60.9932Z" fill="#A6A8AA"/>
</g>
<g style="mix-blend-mode:multiply" opacity="0.61">
<path d="M75.2729 154.085L71.9565 154.312C71.2024 152.022 71.1693 148.647 71.6326 145.027C73.0013 147.789 74.2257 150.795 75.2753 154.085H75.2729Z" fill="#A6A8AA"/>
</g>
<path d="M75.0954 156.863C69.531 153.396 74.7338 130.382 80.4188 126.824C85.1252 138.423 83.6572 150.297 77.0905 156.863H75.0954Z" fill="url(#paint61_linear_894_120713)"/>
<path d="M70.4838 158.723L69.6281 152.784C59.2154 144.12 48.6467 148.514 38 159.293H38.0095C38.0095 159.293 38.0024 159.298 38 159.303H38.0095C38.0095 159.303 38.0024 159.308 38 159.312H38.0095C38.0095 159.312 38.0024 159.317 38 159.322H38.0095C38.0095 159.322 38.0024 159.327 38 159.331H38.0095C38.0095 159.331 38.0024 159.336 38 159.341H38.0095C38.0095 159.341 38.0024 159.346 38 159.35H38.0095C38.0095 159.35 38.0024 159.355 38 159.36H38.0095C38.0095 159.36 38.0024 159.364 38 159.369H38.0095C38.0095 159.369 38.0024 159.374 38 159.379H38.0095C38.0095 159.379 38.0024 159.383 38 159.388H38.0095C38.0095 159.388 38.0024 159.393 38 159.398H38.0095C38.0095 159.398 38.0024 159.402 38 159.407H38.0095C38.0095 159.407 38.0024 159.412 38 159.417H38.0095C38.0095 159.417 38.0024 159.421 38 159.426H38.0095C38.0095 159.426 38.0024 159.431 38 159.436H38.0095C38.0095 159.436 38.0024 159.44 38 159.445H38.0095C38.0095 159.445 38.0024 159.45 38 159.455H38.0095C38.0095 159.455 38.0024 159.459 38 159.464H38.0095C38.0095 159.464 38.0024 159.469 38 159.473H38.0095C38.0095 159.473 38.0024 159.478 38 159.483H38.0095C38.0095 159.483 38.0024 159.488 38 159.492H38.0095C38.0095 159.492 38.0024 159.497 38 159.502H38.0095C38.0095 159.502 38.0024 159.507 38 159.511H38.0095C38.0095 159.511 38.0024 159.516 38 159.521H38.0095C38.0095 159.521 38.0024 159.526 38 159.53H38.0095C38.0095 159.53 38.0024 159.535 38 159.54H38.0095C38.0095 159.54 38.0024 159.545 38 159.549H38.0095C38.0095 159.549 38.0024 159.554 38 159.559H38.0095C38.0095 159.559 38.0024 159.563 38 159.568H38.0095C38.0095 159.568 38.0024 159.573 38 159.578H38.0095C38.0095 159.578 38.0024 159.582 38 159.587H38.0095C38.0095 159.587 38.0024 159.592 38 159.597H38.0095C38.0095 159.597 38.0024 159.601 38 159.606H38.0095C38.0095 159.606 38.0024 159.611 38 159.616H38.0095C38.0095 159.616 38.0024 159.62 38 159.625H38.0095C38.0095 159.625 38.0024 159.63 38 159.635H38.0095C38.0095 159.635 38.0024 159.639 38 159.644H38.0095C38.0095 159.644 38.0024 159.649 38 159.653H38.0095C38.0095 159.653 38.0024 159.658 38 159.663H38.0095C38.0095 159.663 38.0024 159.668 38 159.672H38.0095C38.0095 159.672 38.0024 159.677 38 159.682H38.0095C38.0095 159.682 38.0024 159.687 38 159.691H38.0095C38.0095 159.691 38.0024 159.696 38 159.701H38.0095C38.0095 159.701 38.0024 159.706 38 159.71H38.0095C38.0095 159.71 38.0024 159.715 38 159.72H38.0095C38.0095 159.72 38.0024 159.725 38 159.729H38.0095C38.0095 159.729 38.0024 159.734 38 159.739H38.0095C38.0095 159.739 38.0024 159.743 38 159.748H38.0095C38.0095 159.748 38.0024 159.753 38 159.758H38.0095C38.0095 159.758 38.0024 159.762 38 159.767H38.0095C38.0095 159.767 38.0024 159.772 38 159.777H38.0095C38.0095 159.777 38.0024 159.781 38 159.786H38.0095C38.0095 159.786 38.0024 159.791 38 159.796H38.0095C38.0095 159.796 38.0024 159.8 38 159.805H38.0095C38.0095 159.805 38.0024 159.81 38 159.815H38.0095C38.0095 159.815 38.0024 159.819 38 159.824H38.0095C38.0095 159.824 38.0024 159.829 38 159.833H38.0095C38.0095 159.833 38.0024 159.838 38 159.843H38.0095C38.0095 159.843 38.0024 159.848 38 159.852H38.0095C38.0095 159.852 38.0024 159.857 38 159.862H38.0095C38.0095 159.862 38.0024 159.867 38 159.871H38.0095C38.0095 159.871 38.0024 159.876 38 159.881H38.0095C38.0095 159.881 38.0024 159.886 38 159.89H38.0095C38.0095 159.89 38.0024 159.895 38 159.9H38.0095C38.0095 159.9 38.0024 159.905 38 159.909H38.0095C38.0095 159.909 38.0024 159.914 38 159.919H38.0095C38.0095 159.919 38.0024 159.923 38 159.928H38.0095C38.0095 159.928 38.0024 159.933 38 159.938H38.0095C38.0095 159.938 38.0024 159.942 38 159.947H38.0095C38.0095 159.947 38.0024 159.952 38 159.957H38.0095C38.0095 159.957 38.0024 159.961 38 159.966H38.0095C38.0095 159.966 38.0024 159.971 38 159.976H38.0095C38.0095 159.976 38.0024 159.98 38 159.985H38.0095C38.0095 159.985 38.0024 159.99 38 159.995H38.0095C38.0095 159.995 38.0024 159.999 38 160.004H38.0095C38.0095 160.004 38.0024 160.009 38 160.014H38.0095C38.0095 160.014 38.0024 160.018 38 160.023H38.0095C38.0095 160.023 38.0024 160.028 38 160.032H38.0095C38.0095 160.032 38.0024 160.037 38 160.042H38.0095C38.0095 160.042 38.0024 160.047 38 160.051H38.0095C38.0095 160.051 38.0024 160.056 38 160.061H38.0095C38.0095 160.061 38.0024 160.066 38 160.07H38.0095C38.0095 160.07 38.0024 160.075 38 160.08H38.0095C38.0095 160.08 38.0024 160.085 38 160.089H38.0095C38.0095 160.089 38.0024 160.094 38 160.099H38.0095C38.0095 160.099 38.0024 160.104 38 160.108H38.0095C38.0095 160.108 38.0024 160.113 38 160.118H38.0095C38.0095 160.118 38.0024 160.122 38 160.127H38.0095C38.0095 160.127 38.0024 160.132 38 160.137H38.0095C38.0095 160.137 38.0024 160.141 38 160.146H38.0095C38.0095 160.146 38.0024 160.151 38 160.156H38.0095C38.0095 160.156 38.0024 160.16 38 160.165H38.0095C38.0095 160.165 38.0024 160.17 38 160.175H38.0095C38.0095 160.175 38.0024 160.179 38 160.184H38.0095C38.0095 160.184 38.0024 160.189 38 160.194H38.0095C38.0095 160.194 38.0024 160.198 38 160.203H38.0095C38.0095 160.203 38.0024 160.208 38 160.212H38.0095C38.0095 160.212 38.0024 160.217 38 160.222H38.0095C38.0095 160.222 38.0024 160.227 38 160.231H38.0095C38.0095 160.231 38.0024 160.236 38 160.241H38.0095C38.0095 160.241 38.0024 160.246 38 160.25L70.4838 159.677V159.668V159.658V159.649V159.639V159.63V159.62V159.611V159.601V159.592V159.582V159.573V159.563V159.554V159.545V159.535V159.526V159.516V159.507V159.497V159.488V159.478V159.469V159.459V159.45V159.44V159.431V159.421V159.412V159.402V159.393V159.383V159.374V159.365V159.355V159.346V159.336V159.327V159.317V159.308V159.298V159.289V159.279V159.27V159.26V159.251V159.241V159.232V159.222V159.213V159.203V159.194V159.184V159.175V159.166V159.156V159.147V159.137V159.128V159.118V159.109V159.099V159.09V159.08V159.071V159.061V159.052V159.042V159.033V159.023V159.014V159.004V158.995V158.986V158.976V158.967V158.957V158.948V158.938V158.929V158.919V158.91V158.9V158.891V158.881V158.872V158.862V158.853V158.843V158.834V158.824V158.815V158.805V158.796V158.787V158.777V158.768V158.758V158.749V158.739V158.73V158.72V158.723Z" fill="#B6DDED"/>
<path d="M69.6281 152.784C59.213 144.12 48.6443 148.514 38 159.296L70.4838 158.722L69.6281 152.784Z" fill="url(#paint62_linear_894_120713)"/>
<path d="M78.3718 152.863H63.8011C63.2476 152.863 62.7988 153.313 62.7988 153.868V173.004C62.7988 173.558 63.2476 174.008 63.8011 174.008H78.3718C78.9253 174.008 79.374 173.558 79.374 173.004V153.868C79.374 153.313 78.9253 152.863 78.3718 152.863Z" fill="url(#paint63_linear_894_120713)"/>
<defs>
<linearGradient id="paint0_linear_894_120713" x1="151.35" y1="109.84" x2="170.506" y2="109.84" gradientUnits="userSpaceOnUse">
<stop stop-color="#B3AAFD"/>
<stop offset="1" stop-color="#DAD5FE"/>
</linearGradient>
<linearGradient id="paint1_linear_894_120713" x1="152.332" y1="120.325" x2="171.488" y2="120.325" gradientUnits="userSpaceOnUse">
<stop stop-color="#B3AAFD"/>
<stop offset="1" stop-color="#DAD5FE"/>
</linearGradient>
<linearGradient id="paint2_linear_894_120713" x1="153.316" y1="130.81" x2="172.472" y2="130.81" gradientUnits="userSpaceOnUse">
<stop stop-color="#B3AAFD"/>
<stop offset="1" stop-color="#DAD5FE"/>
</linearGradient>
<linearGradient id="paint3_linear_894_120713" x1="154.3" y1="141.296" x2="173.456" y2="141.296" gradientUnits="userSpaceOnUse">
<stop stop-color="#B3AAFD"/>
<stop offset="1" stop-color="#DAD5FE"/>
</linearGradient>
<linearGradient id="paint4_linear_894_120713" x1="180.585" y1="128.147" x2="230.193" y2="128.147" gradientUnits="userSpaceOnUse">
<stop stop-color="#B3AAFD"/>
<stop offset="1" stop-color="#DAD5FE"/>
</linearGradient>
<linearGradient id="paint5_linear_894_120713" x1="179.644" y1="103.575" x2="226.318" y2="103.575" gradientUnits="userSpaceOnUse">
<stop stop-color="#B3AAFD"/>
<stop offset="1" stop-color="#DAD5FE"/>
</linearGradient>
<linearGradient id="paint6_linear_894_120713" x1="195.263" y1="117.086" x2="196.534" y2="116.967" gradientUnits="userSpaceOnUse">
<stop stop-color="white"/>
<stop offset="0.17" stop-color="#FAFAFC"/>
<stop offset="0.35" stop-color="#EEEEF5"/>
<stop offset="0.54" stop-color="#D9D9EA"/>
<stop offset="0.73" stop-color="#BCBBDA"/>
<stop offset="0.94" stop-color="#B2CBFE"/>
</linearGradient>
<linearGradient id="paint7_linear_894_120713" x1="195.666" y1="117.047" x2="222.092" y2="114.568" gradientUnits="userSpaceOnUse">
<stop stop-color="white" stop-opacity="0.6"/>
<stop offset="0.13" stop-color="#FBFCFE" stop-opacity="0.55"/>
<stop offset="1" stop-color="#E4EDFB" stop-opacity="0.2"/>
</linearGradient>
<linearGradient id="paint8_linear_894_120713" x1="197.33" y1="136.895" x2="198.598" y2="136.776" gradientUnits="userSpaceOnUse">
<stop stop-color="white"/>
<stop offset="0.17" stop-color="#FAFAFC"/>
<stop offset="0.35" stop-color="#EEEEF5"/>
<stop offset="0.54" stop-color="#D9D9EA"/>
<stop offset="0.73" stop-color="#BCBBDA"/>
<stop offset="0.94" stop-color="#B2CBFE"/>
</linearGradient>
<linearGradient id="paint9_linear_894_120713" x1="197.731" y1="136.856" x2="224.157" y2="134.377" gradientUnits="userSpaceOnUse">
<stop stop-color="white" stop-opacity="0.6"/>
<stop offset="0.13" stop-color="#FBFCFE" stop-opacity="0.55"/>
<stop offset="1" stop-color="#E4EDFB" stop-opacity="0.2"/>
</linearGradient>
<linearGradient id="paint10_linear_894_120713" x1="175.117" y1="138.164" x2="170.054" y2="140.747" gradientUnits="userSpaceOnUse">
<stop offset="0.27" stop-color="#FC6679"/>
<stop offset="1" stop-color="#FC6679" stop-opacity="0"/>
</linearGradient>
<radialGradient id="paint11_radial_894_120713" cx="0" cy="0" r="1" gradientUnits="userSpaceOnUse" gradientTransform="translate(168.611 113.822) scale(5.97577 5.98792)">
<stop offset="0.06" stop-color="#C7508F"/>
<stop offset="0.19" stop-color="#BB4F8C"/>
<stop offset="0.44" stop-color="#9C4F84"/>
<stop offset="0.54" stop-color="#8D4F81"/>
</radialGradient>
<radialGradient id="paint12_radial_894_120713" cx="0" cy="0" r="1" gradientUnits="userSpaceOnUse" gradientTransform="translate(164.272 113.457) scale(11.2708 11.2937)">
<stop stop-color="#B5528E"/>
<stop offset="0.77" stop-color="#964F84"/>
<stop offset="1" stop-color="#8D4F81"/>
</radialGradient>
<radialGradient id="paint13_radial_894_120713" cx="0" cy="0" r="1" gradientUnits="userSpaceOnUse" gradientTransform="translate(166.361 112.474) scale(16.2561 16.2891)">
<stop offset="0.13" stop-color="#B5528E" stop-opacity="0"/>
<stop offset="0.43" stop-color="#B3518D" stop-opacity="0.02"/>
<stop offset="0.55" stop-color="#B04F8B" stop-opacity="0.08"/>
<stop offset="0.64" stop-color="#AA4B87" stop-opacity="0.18"/>
<stop offset="0.72" stop-color="#A14582" stop-opacity="0.32"/>
<stop offset="0.78" stop-color="#953E7B" stop-opacity="0.51"/>
<stop offset="0.84" stop-color="#873572" stop-opacity="0.74"/>
<stop offset="0.89" stop-color="#782C69"/>
</radialGradient>
<linearGradient id="paint14_linear_894_120713" x1="176.987" y1="116.036" x2="180.685" y2="120.15" gradientUnits="userSpaceOnUse">
<stop stop-color="#FDE0DE"/>
<stop offset="0.13" stop-color="#FCDBD9"/>
<stop offset="0.27" stop-color="#FBCFCC"/>
<stop offset="0.42" stop-color="#F8BBB6"/>
<stop offset="0.57" stop-color="#F59E98"/>
<stop offset="0.59" stop-color="#F59B94"/>
<stop offset="0.75" stop-color="#F2837F"/>
<stop offset="0.97" stop-color="#F59F97"/>
</linearGradient>
<linearGradient id="paint15_linear_894_120713" x1="171.599" y1="120.05" x2="174.286" y2="125.145" gradientUnits="userSpaceOnUse">
<stop offset="0.22" stop-color="#FFF0FD"/>
<stop offset="0.45" stop-color="#FCE8F6"/>
<stop offset="0.78" stop-color="#F5D5E6"/>
<stop offset="1" stop-color="#F0C5D8"/>
</linearGradient>
<linearGradient id="paint16_linear_894_120713" x1="162.695" y1="121.419" x2="168.498" y2="122.927" gradientUnits="userSpaceOnUse">
<stop stop-color="#F59F97"/>
<stop offset="0.18" stop-color="#E26C67"/>
<stop offset="0.61" stop-color="#F59B94"/>
<stop offset="0.78" stop-color="#F9BFBB"/>
<stop offset="0.92" stop-color="#FBD7D4"/>
<stop offset="1" stop-color="#FDE0DE"/>
</linearGradient>
<radialGradient id="paint17_radial_894_120713" cx="0" cy="0" r="1" gradientUnits="userSpaceOnUse" gradientTransform="translate(162.433 120.03) scale(1.08027 1.08247)">
<stop offset="0.11" stop-color="#E87B76"/>
<stop offset="0.63" stop-color="#D56767"/>
<stop offset="1" stop-color="#E8B7B3"/>
</radialGradient>
<radialGradient id="paint18_radial_894_120713" cx="0" cy="0" r="1" gradientUnits="userSpaceOnUse" gradientTransform="translate(167.215 117.374) scale(5.37063 5.38154)">
<stop offset="0.08" stop-color="#FDE0DE"/>
<stop offset="0.21" stop-color="#FCDBD9"/>
<stop offset="0.35" stop-color="#FBCFCC"/>
<stop offset="0.5" stop-color="#F8BBB6"/>
<stop offset="0.64" stop-color="#F59E98"/>
<stop offset="0.66" stop-color="#F59B94"/>
<stop offset="0.88" stop-color="#E26C67"/>
<stop offset="0.97" stop-color="#F59F97"/>
</radialGradient>
<radialGradient id="paint19_radial_894_120713" cx="0" cy="0" r="1" gradientUnits="userSpaceOnUse" gradientTransform="translate(168.302 117.809) rotate(149.529) scale(0.766277 0.767036)">
<stop offset="0.32" stop-color="#FFE8EB"/>
<stop offset="0.36" stop-color="#FFE1E5"/>
<stop offset="0.51" stop-color="#FFCCD3"/>
<stop offset="0.61" stop-color="#FFC5CD"/>
<stop offset="0.79" stop-color="#FFA5B2"/>
<stop offset="1" stop-color="#FFC8CF"/>
</radialGradient>
<radialGradient id="paint20_radial_894_120713" cx="0" cy="0" r="1" gradientUnits="userSpaceOnUse" gradientTransform="translate(165.196 113.332) scale(5.7654 5.7771)">
<stop offset="0.08" stop-color="#B5528E"/>
<stop offset="0.31" stop-color="#B04F8B"/>
<stop offset="0.56" stop-color="#A34984"/>
<stop offset="0.82" stop-color="#8D3F77"/>
<stop offset="1" stop-color="#7A366D"/>
</radialGradient>
<radialGradient id="paint21_radial_894_120713" cx="0" cy="0" r="1" gradientUnits="userSpaceOnUse" gradientTransform="translate(166.054 113.511) scale(2.78932 2.79499)">
<stop offset="0.41" stop-color="#B5528E"/>
<stop offset="1" stop-color="#7A3F6F"/>
</radialGradient>
<linearGradient id="paint22_linear_894_120713" x1="164.794" y1="129.28" x2="159.647" y2="131.747" gradientUnits="userSpaceOnUse">
<stop offset="0.19" stop-color="#FFF0FD"/>
<stop offset="0.44" stop-color="#FDEBF9"/>
<stop offset="0.69" stop-color="#F9DFEE"/>
<stop offset="0.94" stop-color="#F2CBDD"/>
<stop offset="1" stop-color="#F0C5D8"/>
</linearGradient>
<linearGradient id="paint23_linear_894_120713" x1="169.446" y1="131.143" x2="166.368" y2="127.174" gradientUnits="userSpaceOnUse">
<stop stop-color="#DE7F73"/>
<stop offset="0.1" stop-color="#DF8378" stop-opacity="0.95"/>
<stop offset="0.26" stop-color="#E39086" stop-opacity="0.82"/>
<stop offset="0.48" stop-color="#EAA49C" stop-opacity="0.61"/>
<stop offset="0.74" stop-color="#F3C0BB" stop-opacity="0.32"/>
<stop offset="1" stop-color="#FDE0DE" stop-opacity="0"/>
</linearGradient>
<linearGradient id="paint24_linear_894_120713" x1="154.963" y1="177.229" x2="164.57" y2="179.789" gradientUnits="userSpaceOnUse">
<stop stop-color="#F59F97"/>
<stop offset="0.04" stop-color="#E28781"/>
<stop offset="0.09" stop-color="#D2726D"/>
<stop offset="0.12" stop-color="#CC6B66"/>
<stop offset="0.18" stop-color="#D3736E"/>
<stop offset="0.27" stop-color="#E78B84"/>
<stop offset="0.32" stop-color="#F59B94"/>
<stop offset="0.5" stop-color="#F9BFBB"/>
<stop offset="0.64" stop-color="#FBD7D4"/>
<stop offset="0.73" stop-color="#FDE0DE"/>
</linearGradient>
<linearGradient id="paint25_linear_894_120713" x1="153.984" y1="179.93" x2="166.886" y2="179.93" gradientUnits="userSpaceOnUse">
<stop stop-color="#3E4580"/>
<stop offset="0.03" stop-color="#363D73"/>
<stop offset="0.09" stop-color="#2B315F"/>
<stop offset="0.16" stop-color="#232851"/>
<stop offset="0.24" stop-color="#1F2349"/>
<stop offset="0.39" stop-color="#1E2247"/>
<stop offset="0.48" stop-color="#22264E"/>
<stop offset="0.63" stop-color="#2D3262"/>
<stop offset="0.8" stop-color="#3F4584"/>
<stop offset="1" stop-color="#5961B3"/>
</linearGradient>
<linearGradient id="paint26_linear_894_120713" x1="157.781" y1="160.001" x2="167.105" y2="164.09" gradientUnits="userSpaceOnUse">
<stop stop-color="#A92473"/>
<stop offset="0.05" stop-color="#AF2772"/>
<stop offset="0.21" stop-color="#C22F71"/>
<stop offset="0.39" stop-color="#CD3571"/>
<stop offset="0.58" stop-color="#D13771"/>
<stop offset="0.7" stop-color="#CB3471"/>
<stop offset="0.85" stop-color="#BC2D72"/>
<stop offset="0.93" stop-color="#B12873"/>
</linearGradient>
<linearGradient id="paint27_linear_894_120713" x1="166.832" y1="150.351" x2="163.97" y2="154.778" gradientUnits="userSpaceOnUse">
<stop stop-color="#7E1A55"/>
<stop offset="0.15" stop-color="#7F1A55" stop-opacity="0.96"/>
<stop offset="0.34" stop-color="#821B58" stop-opacity="0.83"/>
<stop offset="0.55" stop-color="#871C5B" stop-opacity="0.62"/>
<stop offset="0.78" stop-color="#8F1D60" stop-opacity="0.34"/>
<stop offset="1" stop-color="#982067" stop-opacity="0"/>
</linearGradient>
<linearGradient id="paint28_linear_894_120713" x1="167.962" y1="171.636" x2="180.512" y2="175.607" gradientUnits="userSpaceOnUse">
<stop stop-color="#F59F97"/>
<stop offset="0.04" stop-color="#E28781"/>
<stop offset="0.09" stop-color="#D2726D"/>
<stop offset="0.12" stop-color="#CC6B66"/>
<stop offset="0.18" stop-color="#D3736E"/>
<stop offset="0.27" stop-color="#E78B84"/>
<stop offset="0.32" stop-color="#F59B94"/>
<stop offset="0.5" stop-color="#F9BFBB"/>
<stop offset="0.64" stop-color="#FBD7D4"/>
<stop offset="0.73" stop-color="#FDE0DE"/>
</linearGradient>
<linearGradient id="paint29_linear_894_120713" x1="166.887" y1="174.504" x2="179.788" y2="174.504" gradientUnits="userSpaceOnUse">
<stop stop-color="#3E4580"/>
<stop offset="0.03" stop-color="#363D73"/>
<stop offset="0.09" stop-color="#2B315F"/>
<stop offset="0.16" stop-color="#232851"/>
<stop offset="0.24" stop-color="#1F2349"/>
<stop offset="0.39" stop-color="#1E2247"/>
<stop offset="0.48" stop-color="#22264E"/>
<stop offset="0.63" stop-color="#2D3262"/>
<stop offset="0.8" stop-color="#3F4584"/>
<stop offset="1" stop-color="#5961B3"/>
</linearGradient>
<linearGradient id="paint30_linear_894_120713" x1="174.756" y1="155.1" x2="172.815" y2="157.361" gradientUnits="userSpaceOnUse">
<stop stop-color="#A92473"/>
<stop offset="1" stop-color="#A92473" stop-opacity="0"/>
</linearGradient>
<linearGradient id="paint31_linear_894_120713" x1="101.655" y1="200.782" x2="110.886" y2="201.573" gradientUnits="userSpaceOnUse">
<stop stop-color="#F59F97"/>
<stop offset="0.37" stop-color="#CC6B66"/>
<stop offset="0.69" stop-color="#F59B94"/>
<stop offset="0.83" stop-color="#F9BFBB"/>
<stop offset="0.93" stop-color="#FBD7D4"/>
<stop offset="1" stop-color="#FDE0DE"/>
</linearGradient>
<linearGradient id="paint32_linear_894_120713" x1="101.617" y1="204.126" x2="110.883" y2="204.126" gradientUnits="userSpaceOnUse">
<stop offset="0.02" stop-color="#353C7E"/>
<stop offset="0.06" stop-color="#2A356C"/>
<stop offset="0.11" stop-color="#222F5F"/>
<stop offset="0.17" stop-color="#1E2C57"/>
<stop offset="0.29" stop-color="#1D2C55"/>
<stop offset="0.44" stop-color="#273462"/>
<stop offset="0.72" stop-color="#414A85"/>
<stop offset="1" stop-color="#6063AD"/>
</linearGradient>
<linearGradient id="paint33_linear_894_120713" x1="101.383" y1="169.387" x2="112.467" y2="169.387" gradientUnits="userSpaceOnUse">
<stop offset="0.15" stop-color="#24204D"/>
<stop offset="0.22" stop-color="#252150" stop-opacity="0.88"/>
<stop offset="0.51" stop-color="#2C275E" stop-opacity="0.4"/>
<stop offset="0.75" stop-color="#302A66" stop-opacity="0.11"/>
<stop offset="0.9" stop-color="#322C6A" stop-opacity="0"/>
</linearGradient>
<linearGradient id="paint34_linear_894_120713" x1="124.681" y1="202.994" x2="132.717" y2="201.583" gradientUnits="userSpaceOnUse">
<stop stop-color="#F59F97"/>
<stop offset="0.25" stop-color="#CC6B66"/>
<stop offset="0.55" stop-color="#F59B94"/>
<stop offset="0.71" stop-color="#F9BFBB"/>
<stop offset="0.84" stop-color="#FBD7D4"/>
<stop offset="0.93" stop-color="#FDE0DE"/>
</linearGradient>
<linearGradient id="paint35_linear_894_120713" x1="126.714" y1="206.873" x2="134.908" y2="202.229" gradientUnits="userSpaceOnUse">
<stop offset="0.02" stop-color="#353C7E"/>
<stop offset="0.06" stop-color="#2A356C"/>
<stop offset="0.11" stop-color="#222F5F"/>
<stop offset="0.17" stop-color="#1E2C57"/>
<stop offset="0.29" stop-color="#1D2C55"/>
<stop offset="0.44" stop-color="#273462"/>
<stop offset="0.72" stop-color="#414A85"/>
<stop offset="1" stop-color="#6063AD"/>
</linearGradient>
<linearGradient id="paint36_linear_894_120713" x1="115.427" y1="173.539" x2="127.983" y2="171.062" gradientUnits="userSpaceOnUse">
<stop stop-color="#342F5C" stop-opacity="0.3"/>
<stop offset="0.02" stop-color="#322D5A" stop-opacity="0.38"/>
<stop offset="0.15" stop-color="#2D2854" stop-opacity="0.72"/>
<stop offset="0.27" stop-color="#2A2550" stop-opacity="0.93"/>
<stop offset="0.36" stop-color="#29244F"/>
<stop offset="0.99" stop-color="#342F5C" stop-opacity="0"/>
</linearGradient>
<linearGradient id="paint37_linear_894_120713" x1="131.917" y1="170.593" x2="121.655" y2="171.885" gradientUnits="userSpaceOnUse">
<stop offset="0.3" stop-color="#B3AAFD" stop-opacity="0.3"/>
<stop offset="0.42" stop-color="#B3AAFD" stop-opacity="0.19"/>
<stop offset="0.56" stop-color="#B3AAFD" stop-opacity="0.08"/>
<stop offset="0.69" stop-color="#B3AAFD" stop-opacity="0.02"/>
<stop offset="0.79" stop-color="#B3AAFD" stop-opacity="0"/>
</linearGradient>
<radialGradient id="paint38_radial_894_120713" cx="0" cy="0" r="1" gradientUnits="userSpaceOnUse" gradientTransform="translate(109.863 111.292) scale(7.65646 7.67201)">
<stop offset="0.25" stop-color="#871D5B"/>
<stop offset="0.35" stop-color="#8C1E5F" stop-opacity="0.83"/>
<stop offset="0.56" stop-color="#982067" stop-opacity="0.47"/>
<stop offset="0.75" stop-color="#A1226D" stop-opacity="0.22"/>
<stop offset="0.9" stop-color="#A72371" stop-opacity="0.06"/>
<stop offset="1" stop-color="#A92473" stop-opacity="0"/>
</radialGradient>
<radialGradient id="paint39_radial_894_120713" cx="0" cy="0" r="1" gradientUnits="userSpaceOnUse" gradientTransform="translate(103.97 111.316) scale(3.70886 3.71639)">
<stop offset="0.14" stop-color="#FC6679"/>
<stop offset="0.22" stop-color="#FB6579" stop-opacity="0.97"/>
<stop offset="0.33" stop-color="#FB6579" stop-opacity="0.9"/>
<stop offset="0.46" stop-color="#FB6579" stop-opacity="0.78"/>
<stop offset="0.6" stop-color="#FA6479" stop-opacity="0.61"/>
<stop offset="0.76" stop-color="#FA6479" stop-opacity="0.4"/>
<stop offset="0.92" stop-color="#F96379" stop-opacity="0.14"/>
<stop offset="1" stop-color="#F96379" stop-opacity="0"/>
</radialGradient>
<linearGradient id="paint40_linear_894_120713" x1="115.82" y1="115.54" x2="111.018" y2="131.599" gradientUnits="userSpaceOnUse">
<stop offset="0.05" stop-color="#B3AAFD"/>
<stop offset="0.41" stop-color="#A99EF8"/>
<stop offset="1" stop-color="#9282ED"/>
</linearGradient>
<linearGradient id="paint41_linear_894_120713" x1="100.027" y1="134.032" x2="108.881" y2="122.706" gradientUnits="userSpaceOnUse">
<stop stop-color="#7667D0"/>
<stop offset="0.03" stop-color="#7868D2"/>
<stop offset="0.48" stop-color="#9282ED"/>
<stop offset="1" stop-color="#B3AAFD"/>
</linearGradient>
<linearGradient id="paint42_linear_894_120713" x1="123.287" y1="137.036" x2="124.227" y2="116.012" gradientUnits="userSpaceOnUse">
<stop stop-color="#6063AD"/>
<stop offset="0.11" stop-color="#52569E"/>
<stop offset="0.31" stop-color="#42478C"/>
<stop offset="0.51" stop-color="#383E81"/>
<stop offset="0.75" stop-color="#353C7E"/>
</linearGradient>
<linearGradient id="paint43_linear_894_120713" x1="127.02" y1="116.1" x2="127.02" y2="127.47" gradientUnits="userSpaceOnUse">
<stop offset="0.14" stop-color="white"/>
<stop offset="0.27" stop-color="#F4F3FD"/>
<stop offset="0.5" stop-color="#DAD4F8"/>
<stop offset="0.81" stop-color="#AFA3F1"/>
<stop offset="1" stop-color="#9282ED"/>
</linearGradient>
<linearGradient id="paint44_linear_894_120713" x1="133.019" y1="127.32" x2="133.019" y2="119.333" gradientUnits="userSpaceOnUse">
<stop stop-color="#6063AD"/>
<stop offset="0.75" stop-color="#353C7E"/>
</linearGradient>
<linearGradient id="paint45_linear_894_120713" x1="136.526" y1="118.58" x2="136.776" y2="124.265" gradientUnits="userSpaceOnUse">
<stop offset="0.14" stop-color="white"/>
<stop offset="0.27" stop-color="#F4F3FD"/>
<stop offset="0.5" stop-color="#DAD4F8"/>
<stop offset="0.81" stop-color="#AFA3F1"/>
<stop offset="1" stop-color="#9282ED"/>
</linearGradient>
<linearGradient id="paint46_linear_894_120713" x1="128.967" y1="131.062" x2="135.175" y2="131.062" gradientUnits="userSpaceOnUse">
<stop offset="0.31" stop-color="#E7918D"/>
<stop offset="0.5" stop-color="#E8A19D"/>
<stop offset="0.86" stop-color="#ECCAC9"/>
<stop offset="0.92" stop-color="#EDD1D0"/>
</linearGradient>
<linearGradient id="paint47_linear_894_120713" x1="114.726" y1="115.497" x2="113.561" y2="118.12" gradientUnits="userSpaceOnUse">
<stop stop-color="white"/>
<stop offset="0.03" stop-color="#FCFDFE"/>
<stop offset="0.37" stop-color="#E5F1F9"/>
<stop offset="0.68" stop-color="#D6EAF6"/>
<stop offset="0.95" stop-color="#D2E8F6"/>
</linearGradient>
<radialGradient id="paint48_radial_894_120713" cx="0" cy="0" r="1" gradientUnits="userSpaceOnUse" gradientTransform="translate(108.178 110.936) scale(7.98267 7.99888)">
<stop offset="0.18" stop-color="#8F1E61"/>
<stop offset="1" stop-color="#A92473" stop-opacity="0"/>
</radialGradient>
<radialGradient id="paint49_radial_894_120713" cx="0" cy="0" r="1" gradientUnits="userSpaceOnUse" gradientTransform="translate(114.882 102.411) scale(4.69694 4.70648)">
<stop stop-color="#FC6679"/>
<stop offset="1" stop-color="#FC6679" stop-opacity="0"/>
</radialGradient>
<linearGradient id="paint50_linear_894_120713" x1="108.485" y1="115.06" x2="115.095" y2="115.06" gradientUnits="userSpaceOnUse">
<stop stop-color="#F59F97"/>
<stop offset="0.18" stop-color="#E26C67"/>
<stop offset="0.61" stop-color="#F59B94"/>
<stop offset="0.78" stop-color="#F9BFBB"/>
<stop offset="0.92" stop-color="#FBD7D4"/>
<stop offset="1" stop-color="#FDE0DE"/>
</linearGradient>
<linearGradient id="paint51_linear_894_120713" x1="111.182" y1="116.237" x2="109.881" y2="118.526" gradientUnits="userSpaceOnUse">
<stop stop-color="white"/>
<stop offset="0.04" stop-color="#F7FBFD"/>
<stop offset="0.14" stop-color="#E6F2FA"/>
<stop offset="0.27" stop-color="#DAECF7"/>
<stop offset="0.45" stop-color="#D3E8F6"/>
<stop offset="0.95" stop-color="#D2E8F6"/>
</linearGradient>
<radialGradient id="paint52_radial_894_120713" cx="0" cy="0" r="1" gradientUnits="userSpaceOnUse" gradientTransform="translate(109.436 110.311) rotate(-117.173) scale(2.16165 1.51137)">
<stop offset="0.11" stop-color="#E87B76"/>
<stop offset="0.63" stop-color="#D56767"/>
<stop offset="1" stop-color="#E8B7B3"/>
</radialGradient>
<radialGradient id="paint53_radial_894_120713" cx="0" cy="0" r="1" gradientUnits="userSpaceOnUse" gradientTransform="translate(116.931 108.531) scale(8.7391 8.75685)">
<stop offset="0.08" stop-color="#FDE0DE"/>
<stop offset="0.23" stop-color="#FCDBD9"/>
<stop offset="0.39" stop-color="#FBCFCC"/>
<stop offset="0.56" stop-color="#F8BBB6"/>
<stop offset="0.73" stop-color="#F59E98"/>
<stop offset="0.75" stop-color="#F59B94"/>
<stop offset="0.88" stop-color="#E26C67"/>
<stop offset="0.97" stop-color="#F59F97"/>
</radialGradient>
<radialGradient id="paint54_radial_894_120713" cx="0" cy="0" r="1" gradientUnits="userSpaceOnUse" gradientTransform="translate(115.187 102.532) scale(8.66817 8.68578)">
<stop offset="0.14" stop-color="#FC6679"/>
<stop offset="0.27" stop-color="#F55F77"/>
<stop offset="0.45" stop-color="#E54D74"/>
<stop offset="0.61" stop-color="#D13771"/>
<stop offset="1" stop-color="#A92473"/>
</radialGradient>
<radialGradient id="paint55_radial_894_120713" cx="0" cy="0" r="1" gradientUnits="userSpaceOnUse" gradientTransform="translate(115.236 103.13) scale(6.76767 6.78141)">
<stop offset="0.11" stop-color="#FC6679"/>
<stop offset="0.9" stop-color="#FC6679" stop-opacity="0"/>
</radialGradient>
<radialGradient id="paint56_radial_894_120713" cx="0" cy="0" r="1" gradientUnits="userSpaceOnUse" gradientTransform="translate(117.77 110.206) rotate(118.072) scale(0.674756 0.444838)">
<stop stop-color="#D0D1D3"/>
<stop offset="0.28" stop-color="#6D6E70"/>
<stop offset="0.69" stop-color="#171B2C"/>
</radialGradient>
<radialGradient id="paint57_radial_894_120713" cx="0" cy="0" r="1" gradientUnits="userSpaceOnUse" gradientTransform="translate(116.475 111.107) scale(1.34029 1.34302)">
<stop stop-color="#FDE0DE"/>
<stop offset="0.13" stop-color="#FBD7D4"/>
<stop offset="0.34" stop-color="#F9BFBB"/>
<stop offset="0.6" stop-color="#F59B94"/>
<stop offset="1" stop-color="#E26C67"/>
</radialGradient>
<linearGradient id="paint58_linear_894_120713" x1="100.112" y1="129.056" x2="117.323" y2="129.056" gradientUnits="userSpaceOnUse">
<stop offset="0.31" stop-color="#ED9489"/>
<stop offset="0.46" stop-color="#F0A399"/>
<stop offset="0.76" stop-color="#F8C9C5"/>
<stop offset="0.92" stop-color="#FDE0DE"/>
</linearGradient>
<linearGradient id="paint59_linear_894_120713" x1="103.1" y1="126.583" x2="110.739" y2="129.493" gradientUnits="userSpaceOnUse">
<stop offset="0.05" stop-color="#E5958C" stop-opacity="0.49"/>
<stop offset="0.09" stop-color="#E39187" stop-opacity="0.58"/>
<stop offset="0.19" stop-color="#E1897E" stop-opacity="0.76"/>
<stop offset="0.28" stop-color="#DF8378" stop-opacity="0.89"/>
<stop offset="0.36" stop-color="#DE8074" stop-opacity="0.97"/>
<stop offset="0.42" stop-color="#DE7F73"/>
<stop offset="0.47" stop-color="#DE8276" stop-opacity="0.97"/>
<stop offset="0.56" stop-color="#E18A7F" stop-opacity="0.88"/>
<stop offset="0.65" stop-color="#E6988E" stop-opacity="0.74"/>
<stop offset="0.76" stop-color="#ECABA3" stop-opacity="0.54"/>
<stop offset="0.88" stop-color="#F4C3BF" stop-opacity="0.29"/>
<stop offset="1" stop-color="#FDE0DE" stop-opacity="0"/>
</linearGradient>
<linearGradient id="paint60_linear_894_120713" x1="70.7679" y1="156.425" x2="60.4152" y2="134.055" gradientUnits="userSpaceOnUse">
<stop stop-color="#9282ED"/>
<stop offset="0.35" stop-color="#65C4ED"/>
<stop offset="1" stop-color="#9CD5ED"/>
</linearGradient>
<linearGradient id="paint61_linear_894_120713" x1="77.4002" y1="138.409" x2="78.7767" y2="154.371" gradientUnits="userSpaceOnUse">
<stop stop-color="#9CD5ED"/>
<stop offset="0.65" stop-color="#65C4ED"/>
<stop offset="1" stop-color="#9282ED"/>
</linearGradient>
<linearGradient id="paint62_linear_894_120713" x1="38" y1="153.744" x2="70.4838" y2="153.744" gradientUnits="userSpaceOnUse">
<stop stop-color="#9CD5ED"/>
<stop offset="0.65" stop-color="#65C4ED"/>
<stop offset="1" stop-color="#9282ED"/>
</linearGradient>
<linearGradient id="paint63_linear_894_120713" x1="62.7988" y1="163.437" x2="79.374" y2="163.437" gradientUnits="userSpaceOnUse">
<stop stop-color="#7667D0"/>
<stop offset="0.17" stop-color="#8E81E1"/>
<stop offset="0.37" stop-color="#A297F0"/>
<stop offset="0.55" stop-color="#AEA5F9"/>
<stop offset="0.72" stop-color="#B3AAFD"/>
<stop offset="0.83" stop-color="#B0A7FB"/>
<stop offset="0.9" stop-color="#A99EF8"/>
<stop offset="0.96" stop-color="#9D8FF2"/>
<stop offset="1" stop-color="#9282ED"/>
</linearGradient>
</defs>
</svg>
