<svg width="52" height="63" viewBox="0 0 52 63" fill="none" xmlns="http://www.w3.org/2000/svg">
<path d="M26.4061 1.91381C26.9108 1.68951 27.1381 1.09855 26.9138 0.593861C26.6895 0.0891773 26.0985 -0.138116 25.5939 0.0861885L26.4061 1.91381ZM1 32.1111L2 32.1112V32.1111H1ZM9.16347 51L8.53094 51.7745L8.53094 51.7745L9.16347 51ZM25.5416 61.8887C26.0324 62.1419 26.6356 61.9492 26.8887 61.4584C27.1419 60.9676 26.9492 60.3644 26.4584 60.1113L25.5416 61.8887ZM26.4061 0.0861885C25.9015 -0.138116 25.3105 0.0891773 25.0862 0.593861C24.8619 1.09855 25.0892 1.68951 25.5939 1.91381L26.4061 0.0861885ZM51 32.1111L50 32.1111L50 32.1112L51 32.1111ZM42.8365 51L43.4691 51.7745L43.4691 51.7745L42.8365 51ZM25.5416 60.1113C25.0508 60.3644 24.8581 60.9676 25.1113 61.4584C25.3644 61.9492 25.9676 62.1419 26.4584 61.8887L25.5416 60.1113ZM2.18772 11.5832L1.78159 10.6694L2.18772 11.5832ZM25.5939 0.0861885L1.78159 10.6694L2.59386 12.497L26.4061 1.91381L25.5939 0.0861885ZM1.93346e-08 13.4109V32.1111H2V13.4109H1.93346e-08ZM2.01767e-08 32.1111C-0.000210809 37.2483 1.66558 46.1678 8.53094 51.7745L9.79601 50.2255C3.60013 45.1655 1.9998 36.974 2 32.1112L2.01767e-08 32.1111ZM8.53094 51.7745C15.1673 57.1942 22.3854 60.2608 25.5416 61.8887L26.4584 60.1113C23.152 58.4059 16.2209 55.4724 9.796 50.2255L8.53094 51.7745ZM25.5939 1.91381L49.4061 12.497L50.2184 10.6694L26.4061 0.0861885L25.5939 1.91381ZM50 13.4109V32.1111H52V13.4109H50ZM50 32.1112C50.0002 36.974 48.3999 45.1655 42.204 50.2255L43.4691 51.7745C50.3344 46.1678 52.0002 37.2483 52 32.1111L50 32.1112ZM42.204 50.2255C35.7791 55.4724 28.848 58.4059 25.5416 60.1113L26.4584 61.8887C29.6146 60.2608 36.8327 57.1942 43.4691 51.7745L42.204 50.2255ZM49.4061 12.497C49.7673 12.6575 50 13.0157 50 13.4109H52C52 12.2253 51.3018 11.1509 50.2184 10.6694L49.4061 12.497ZM1.78159 10.6694C0.698202 11.1509 1.93346e-08 12.2253 1.93346e-08 13.4109H2C2 13.0157 2.23273 12.6575 2.59386 12.497L1.78159 10.6694Z" fill="#2F2E7C"/>
<path fill-rule="evenodd" clip-rule="evenodd" d="M18.1008 20.0008C18.1008 16.5766 20.8766 13.8008 24.3008 13.8008H28.7008C32.1249 13.8008 34.9008 16.5766 34.9008 20.0008V23.9109H36.5C37.6046 23.9109 38.5 24.8064 38.5 25.9109V42.6538C38.5 43.7584 37.6046 44.6538 36.5 44.6538H16.5C15.3954 44.6538 14.5 43.7584 14.5 42.6538V25.9109C14.5 24.8064 15.3954 23.9109 16.5 23.9109H18.1008V20.0008ZM32.5008 20.0008V23.9109H20.5008V20.0008C20.5008 17.9021 22.2021 16.2008 24.3008 16.2008H28.7008C30.7995 16.2008 32.5008 17.9021 32.5008 20.0008ZM16.9 26.3109V42.2538H36.1V26.3109H16.9ZM28.5 32.4578C28.5 33.1981 28.0978 33.8444 27.5 34.1902V36.7996C27.5 37.3519 27.0523 37.7996 26.5 37.7996C25.9477 37.7996 25.5 37.3519 25.5 36.7996V34.1902C24.9022 33.8444 24.5 33.1981 24.5 32.4578C24.5 31.3532 25.3954 30.4578 26.5 30.4578C27.6046 30.4578 28.5 31.3532 28.5 32.4578Z" fill="url(#paint0_linear_987_134010)"/>
<defs>
<linearGradient id="paint0_linear_987_134010" x1="19.5" y1="15.3106" x2="37.1641" y2="43.39" gradientUnits="userSpaceOnUse">
<stop stop-color="#4A45EE"/>
<stop offset="0.505208" stop-color="#12A0FF"/>
<stop offset="0.963542" stop-color="#00B0A6"/>
</linearGradient>
</defs>
</svg>
