<svg width="52" height="52" viewBox="0 0 52 52" fill="none" xmlns="http://www.w3.org/2000/svg">
<path fill-rule="evenodd" clip-rule="evenodd" d="M7 0C3.13401 0 0 3.13401 0 7V11.9368C0 12.4891 0.447715 12.9368 1 12.9368C1.55228 12.9368 2 12.4891 2 11.9368V7C2 4.23858 4.23858 2 7 2H12.9784C13.5307 2 13.9784 1.55228 13.9784 1C13.9784 0.447715 13.5307 0 12.9784 0H7ZM44.9971 0C48.8631 0 51.9971 3.13401 51.9971 7V11.9368C51.9971 12.4891 51.5494 12.9368 50.9971 12.9368C50.4448 12.9368 49.9971 12.4891 49.9971 11.9368V7C49.9971 4.23858 47.7586 2 44.9971 2H39.0187C38.4664 2 38.0187 1.55228 38.0187 1C38.0187 0.447715 38.4664 0 39.0187 0H44.9971ZM0 44.9981C0 48.8641 3.13401 51.9981 7 51.9981H12.9784C13.5307 51.9981 13.9784 51.5504 13.9784 50.9981C13.9784 50.4458 13.5307 49.9981 12.9784 49.9981H7C4.23858 49.9981 2 47.7595 2 44.9981V40.0613C2 39.509 1.55228 39.0613 1 39.0613C0.447715 39.0613 0 39.509 0 40.0613V44.9981ZM44.9971 51.9981C48.8631 51.9981 51.9971 48.8641 51.9971 44.9981V40.0613C51.9971 39.509 51.5494 39.0613 50.9971 39.0613C50.4448 39.0613 49.9971 39.509 49.9971 40.0613V44.9981C49.9971 47.7595 47.7586 49.9981 44.9971 49.9981H39.0187C38.4664 49.9981 38.0187 50.4458 38.0187 50.9981C38.0187 51.5504 38.4664 51.9981 39.0187 51.9981H44.9971Z" fill="#2F2E7C"/>
<path d="M18.1853 12.6474C20.4363 11.2761 23.6509 10.5471 26.9992 10.6582C30.3427 10.7703 33.6797 11.7159 36.1898 13.5375C36.4426 13.7208 36.7578 13.7962 37.0662 13.7471C37.3746 13.698 37.6509 13.5284 37.8342 13.2756C38.0176 13.0229 38.093 12.7076 38.0439 12.3992C37.9948 12.0908 37.8252 11.8145 37.5724 11.6312C34.5962 9.47244 30.7722 8.42887 27.0783 8.30549C23.3909 8.18211 19.6942 8.97138 16.9609 10.6375C16.8238 10.7153 16.7036 10.8199 16.6077 10.945C16.5117 11.0701 16.4418 11.2133 16.4023 11.3659C16.3627 11.5185 16.3541 11.6776 16.3772 11.8336C16.4002 11.9896 16.4544 12.1394 16.5364 12.274C16.6184 12.4087 16.7267 12.5255 16.8548 12.6175C16.9828 12.7096 17.128 12.7749 17.2818 12.8098C17.4356 12.8446 17.5948 12.8482 17.75 12.8203C17.9053 12.7924 18.0533 12.7336 18.1853 12.6474ZM28.0719 13.7663C27.9184 13.7482 27.7628 13.7604 27.6139 13.8024C27.4651 13.8443 27.326 13.9152 27.2046 14.0109C27.0831 14.1067 26.9817 14.2254 26.9062 14.3603C26.8306 14.4952 26.7824 14.6436 26.7642 14.7972C26.746 14.9508 26.7582 15.1064 26.8002 15.2552C26.8422 15.404 26.913 15.5431 27.0088 15.6646C27.1045 15.786 27.2232 15.8874 27.3581 15.963C27.493 16.0385 27.6415 16.0868 27.795 16.105C35.1688 16.9809 39.9675 22.6753 41.3728 30.6829C41.4315 30.986 41.6068 31.2538 41.861 31.4289C42.1153 31.6039 42.4281 31.6721 42.7321 31.6187C43.0361 31.5654 43.307 31.3948 43.4865 31.1437C43.6659 30.8925 43.7396 30.581 43.6916 30.2761C42.162 21.5592 36.7643 14.7986 28.0719 13.7663ZM21.7597 23.2602C18.1646 26.1376 16.1067 32.3679 20.0408 40.3172C20.1769 40.5966 20.1969 40.9185 20.0965 41.2127C19.9962 41.5069 19.7835 41.7495 19.505 41.8875C19.2265 42.0255 18.9047 42.0478 18.6098 41.9494C18.315 41.8511 18.071 41.6402 17.931 41.3626C13.6136 32.6401 15.6517 25.1317 20.2885 21.4217C22.5857 19.5832 25.4894 18.7233 28.4185 19.1829C31.3571 19.6444 34.2062 21.417 36.4346 24.6278C36.5259 24.7546 36.591 24.8983 36.6261 25.0506C36.6613 25.2028 36.6657 25.3606 36.6393 25.5146C36.6129 25.6685 36.556 25.8157 36.4721 25.9476C36.3882 26.0794 36.2789 26.1931 36.1506 26.2823C36.0223 26.3714 35.8775 26.4341 35.7247 26.4667C35.5719 26.4993 35.4141 26.5012 35.2606 26.4722C35.107 26.4432 34.9608 26.384 34.8304 26.2979C34.7 26.2118 34.588 26.1007 34.501 25.9709C32.5853 23.2112 30.2702 21.8578 28.0531 21.5093C25.8247 21.1589 23.5793 21.8041 21.7597 23.2602ZM26.1656 42.2009C23.7554 37.3315 23.0198 33.2156 23.4578 30.4908C23.6744 29.1402 24.1642 28.2181 24.7792 27.6643C25.3735 27.1303 26.2014 26.8336 27.3514 26.9419C28.8801 27.087 29.5959 27.5899 30.0376 28.1899C30.5481 28.8831 30.8174 29.8569 31.1245 31.2443L31.2168 31.6653C31.7866 34.2874 32.5401 37.7468 36.1954 40.3821C36.4487 40.5647 36.7642 40.6392 37.0724 40.5893C37.3806 40.5393 37.6563 40.3689 37.8389 40.1156C38.0215 39.8623 38.096 39.5468 38.0461 39.2386C37.9961 38.9304 37.8257 38.6547 37.5724 38.4721C34.6621 36.3736 34.0781 33.7176 33.498 31.0748L33.4226 30.7357C33.1306 29.4152 32.784 27.9478 31.9335 26.794C31.0143 25.5461 29.6232 24.7926 27.5737 24.5986C25.8689 24.4366 24.3592 24.8764 23.2063 25.9125C22.0752 26.9297 21.4074 28.4084 21.1324 30.1178C20.588 33.5132 21.5308 38.1443 24.0559 43.2454C24.1994 43.5164 24.4429 43.7207 24.7347 43.8149C25.0265 43.9091 25.3435 43.8858 25.6184 43.7498C25.8932 43.6139 26.1042 43.376 26.2064 43.0869C26.3086 42.7978 26.294 42.4793 26.1656 42.2009ZM15.1601 13.6901C15.3666 13.9241 15.4717 14.2307 15.4523 14.5422C15.4329 14.8538 15.2905 15.1449 15.0565 15.3515C13.5533 16.6786 12.5389 18.0141 11.5311 19.7659C11.454 19.9 11.3511 20.0175 11.2285 20.1117C11.106 20.206 10.966 20.2752 10.8167 20.3154C10.6673 20.3556 10.5115 20.366 10.3582 20.346C10.2048 20.3259 10.0569 20.2759 9.92293 20.1987C9.78891 20.1215 9.67141 20.0187 9.57714 19.8961C9.48286 19.7735 9.41365 19.6336 9.37346 19.4843C9.33328 19.3349 9.3229 19.1791 9.34292 19.0258C9.36294 18.8724 9.41297 18.7245 9.49015 18.5905C10.5978 16.6663 11.7657 15.1151 13.4987 13.5865C13.7328 13.3799 14.0393 13.2748 14.3508 13.2943C14.6624 13.3137 14.9535 13.4561 15.1601 13.6901ZM38.2807 30.2996C38.2283 29.9952 38.0583 29.7235 37.8074 29.5432C37.5565 29.363 37.2448 29.2885 36.9396 29.336C36.6343 29.3834 36.3599 29.549 36.1756 29.7969C35.9913 30.0448 35.9118 30.3553 35.9543 30.6613C36.4346 33.7477 38.0311 35.6974 39.9619 37.0875C40.0874 37.1778 40.2295 37.2425 40.3801 37.2779C40.5306 37.3133 40.6866 37.3186 40.8392 37.2937C40.9919 37.2688 41.1381 37.214 41.2695 37.1326C41.401 37.0512 41.5151 36.9447 41.6054 36.8191C41.6957 36.6936 41.7604 36.5515 41.7958 36.4009C41.8311 36.2504 41.8365 36.0944 41.8116 35.9418C41.7867 35.7891 41.7319 35.6429 41.6505 35.5115C41.5691 35.38 41.4625 35.2659 41.337 35.1756C39.8065 34.0736 38.6452 32.6382 38.2807 30.2996ZM26.905 30.2478C27.0592 30.2363 27.2142 30.2552 27.3612 30.3036C27.5081 30.3519 27.644 30.4288 27.7612 30.5297C27.8785 30.6307 27.9746 30.7537 28.0443 30.8918C28.1139 31.03 28.1556 31.1805 28.1671 31.3347C28.4543 35.1728 29.8596 38.424 32.1172 41.0075C32.2222 41.1234 32.3031 41.259 32.3552 41.4065C32.4072 41.554 32.4294 41.7104 32.4203 41.8665C32.4112 42.0227 32.3711 42.1754 32.3023 42.3159C32.2336 42.4564 32.1375 42.5818 32.0197 42.6847C31.902 42.7876 31.7649 42.8661 31.6165 42.9154C31.4681 42.9648 31.3113 42.9841 31.1554 42.9722C30.9994 42.9603 30.8474 42.9174 30.7082 42.8461C30.569 42.7748 30.4454 42.6765 30.3446 42.5569C27.7432 39.5806 26.144 35.8443 25.819 31.5099C25.8075 31.3557 25.8264 31.2008 25.8747 31.0539C25.923 30.907 25.9998 30.7711 26.1006 30.6539C26.2015 30.5368 26.3244 30.4406 26.4624 30.3709C26.6004 30.3012 26.7508 30.2594 26.905 30.2478ZM23.211 16.4968C23.3536 16.4368 23.4829 16.3493 23.5917 16.2393C23.7004 16.1294 23.7864 15.9991 23.8448 15.8558C23.9032 15.7126 23.9328 15.5593 23.9319 15.4047C23.931 15.25 23.8997 15.097 23.8397 14.9545C23.7797 14.8119 23.6923 14.6826 23.5823 14.5739C23.4723 14.4651 23.342 14.3791 23.1988 14.3207C23.0556 14.2624 22.9023 14.2328 22.7476 14.2336C22.593 14.2345 22.44 14.2658 22.2974 14.3258C13.8472 17.8794 9.63425 25.8296 10.7541 35.3263C10.7722 35.4798 10.8203 35.6283 10.8957 35.7633C10.9712 35.8982 11.0725 36.017 11.1938 36.1128C11.3152 36.2086 11.4542 36.2796 11.603 36.3217C11.7518 36.3638 11.9074 36.3761 12.0609 36.3581C12.2145 36.34 12.363 36.2919 12.4979 36.2164C12.6329 36.141 12.7517 36.0397 12.8475 35.9184C12.9433 35.797 13.0143 35.658 13.0563 35.5092C13.0984 35.3604 13.1108 35.2048 13.0927 35.0513C12.0821 26.4804 15.8307 19.6002 23.211 16.4949V16.4968Z" fill="url(#paint0_linear_985_133233)"/>
<defs>
<linearGradient id="paint0_linear_985_133233" x1="26.5195" y1="8.29297" x2="26.5195" y2="43.8718" gradientUnits="userSpaceOnUse">
<stop stop-color="#4F35EC"/>
<stop offset="0.5" stop-color="#2DA7FF"/>
<stop offset="1" stop-color="#03CD9D"/>
</linearGradient>
</defs>
</svg>
