<svg width="18" height="18" viewBox="0 0 18 18" fill="none" xmlns="http://www.w3.org/2000/svg">
<path d="M15.8813 9.88125C15.9199 9.6 15.9391 9.30938 15.9391 9C15.9391 8.7 15.9199 8.4 15.8717 8.11875L17.8281 6.6375C17.9124 6.56991 17.97 6.47597 17.9911 6.37169C18.0122 6.26741 17.9955 6.15925 17.9438 6.06563L16.0933 2.95313C16.0389 2.85897 15.9519 2.7866 15.8478 2.74885C15.7437 2.7111 15.6293 2.7104 15.5247 2.74688L13.2213 3.64688C12.7394 3.29063 12.2286 2.99063 11.66 2.76563L11.313 0.384378C11.296 0.277062 11.2399 0.179259 11.155 0.10873C11.0701 0.0382013 10.9621 -0.000376411 10.8504 2.76881e-06H7.14956C6.91826 2.76881e-06 6.73514 0.159378 6.69659 0.384378L6.34964 2.76563C5.78101 2.99063 5.26058 3.3 4.78833 3.64688L2.48493 2.74688C2.2729 2.67188 2.03195 2.74688 1.9163 2.95313L0.0755046 6.06563C-0.0401476 6.2625 -0.00159703 6.50625 0.191157 6.6375L2.14761 8.11875C2.09942 8.4 2.06087 8.70938 2.06087 9C2.06087 9.29063 2.08014 9.6 2.12833 9.88125L0.171881 11.3625C0.0875747 11.4301 0.0299699 11.524 0.0088816 11.6283C-0.0122067 11.7326 0.00452613 11.8408 0.0562292 11.9344L1.90666 15.0469C2.02232 15.2531 2.26326 15.3188 2.47529 15.2531L4.77869 14.3531C5.26058 14.7094 5.77138 15.0094 6.34 15.2344L6.68696 17.6156C6.73514 17.8406 6.91826 18 7.14956 18H10.8504C11.0817 18 11.2745 17.8406 11.3034 17.6156L11.6504 15.2344C12.219 15.0094 12.7394 14.7094 13.2117 14.3531L15.5151 15.2531C15.7271 15.3281 15.968 15.2531 16.0837 15.0469L17.9341 11.9344C18.0498 11.7281 18.0016 11.4938 17.8185 11.3625L15.8813 9.88125ZM9 12.375C7.09174 12.375 5.53043 10.8563 5.53043 9C5.53043 7.14375 7.09174 5.625 9 5.625C10.9083 5.625 12.4696 7.14375 12.4696 9C12.4696 10.8563 10.9083 12.375 9 12.375Z" fill="#4E16ED"/>
</svg>
