<svg width="500" height="100" viewBox="0 0 500 100" fill="none" xmlns="http://www.w3.org/2000/svg">
<path fill-rule="evenodd" clip-rule="evenodd" d="M453.231 26.8177C452.951 26.5174 452.515 26.4191 452.133 26.5697C451.751 26.7203 451.5 27.0893 451.5 27.5V35H428C427.448 35 427 35.4478 427 36V52C427 52.5523 427.448 53 428 53H433.5C434.052 53 434.5 52.5523 434.5 52C434.5 51.4478 434.052 51 433.5 51H429V37H452.5C453.052 37 453.5 36.5523 453.5 36V30.0371L465.173 42.5433L461.226 47.3668C460.876 47.7942 460.939 48.4243 461.367 48.774C461.794 49.1237 462.424 49.0607 462.774 48.6333L467.274 43.1333C467.591 42.7458 467.573 42.1837 467.231 41.8177L453.231 26.8177ZM446.083 42.8225C446.362 42.5195 446.798 42.4187 447.182 42.5685C447.566 42.7183 447.818 43.0881 447.818 43.5V50.5H471C471.553 50.5 472 50.9478 472 51.5V65.5C472 66.0523 471.553 66.5 471 66.5H447.818V73.5C447.818 73.912 447.566 74.2818 447.182 74.4316C446.798 74.5814 446.362 74.4805 446.083 74.1776L432.265 59.1776C431.912 58.7947 431.912 58.2054 432.265 57.8225L446.083 42.8225ZM445.818 51.5V46.0615L434.36 58.5L445.818 70.9385V65.5C445.818 64.9478 446.266 64.5 446.818 64.5H470V52.5H446.818C446.266 52.5 445.818 52.0523 445.818 51.5Z" fill="#222222"/>
<g clip-path="url(#clip0_1105_152514)">
<path fill-rule="evenodd" clip-rule="evenodd" d="M360.579 31.157C357.455 28.0328 352.389 28.0328 349.265 31.157L348.293 32.1289L349.708 33.5431L350.679 32.5712C353.023 30.2281 356.822 30.2281 359.165 32.5712L368.772 42.1783C371.115 44.5215 371.115 48.3205 368.772 50.6636L354.912 64.5238L354.913 64.5251L348.99 70.4483C348.034 71.4044 346.484 71.4044 345.527 70.4483C344.571 69.4921 344.571 67.9419 345.527 66.9858L353.539 58.9742L353.539 58.9741L353.539 58.974L352.125 57.5598L344.113 65.5714C343.157 66.5276 341.607 66.5276 340.651 65.5714C339.702 64.6222 339.695 63.0876 340.63 62.1299L340.651 62.1088L348.663 54.0972L347.249 52.683L347.248 52.6833L347.248 52.6832L339.237 60.6948L339.216 60.7155C338.258 61.6507 336.724 61.6437 335.775 60.6946C334.819 59.7385 334.819 58.1883 335.775 57.2322L343.786 49.2205L343.785 49.2189L343.785 49.2184L342.371 47.8042L334.359 55.8158C333.403 56.7719 331.853 56.7719 330.897 55.8158C329.941 54.8597 329.941 53.3095 330.897 52.3534L336.819 46.4312L336.819 46.4314L336.819 46.4312L336.82 46.4309L336.82 46.4304L336.821 46.4299L336.821 46.4292L336.822 46.4284L336.823 46.4275L336.824 46.4265L336.825 46.4253L336.827 46.4241L336.828 46.4227L336.829 46.4212L336.831 46.4195L336.833 46.4178L336.835 46.4159L336.837 46.4139L336.839 46.4118L336.841 46.4096L336.843 46.4073L336.846 46.4049L336.848 46.4023L336.851 46.3996L336.854 46.3968L336.857 46.3939L336.86 46.3909L336.863 46.3878L336.866 46.3845L336.869 46.3812L336.873 46.3777L336.877 46.3741L336.88 46.3704L336.884 46.3666L336.888 46.3627L336.892 46.3586L336.896 46.3545L336.9 46.3502L336.905 46.3459L336.909 46.3414L336.914 46.3368L336.919 46.3321L336.923 46.3273L336.928 46.3224L336.933 46.3174L336.938 46.3123L336.944 46.3071L336.949 46.3017L336.954 46.2963L336.96 46.2907L336.966 46.2851L336.971 46.2793L336.977 46.2734L336.983 46.2675L336.989 46.2614L336.995 46.2552L337.002 46.2489L337.008 46.2425L337.015 46.236L337.021 46.2294L337.028 46.2227L337.035 46.2159L337.042 46.209L337.049 46.202L337.056 46.1949L337.063 46.1877L337.07 46.1804L337.078 46.173L337.085 46.1655L337.093 46.1579L337.1 46.1502L337.108 46.1424L337.116 46.1345L337.124 46.1265L337.132 46.1184L337.14 46.1102L337.149 46.102L337.157 46.0936L337.166 46.0851L337.174 46.0765L337.183 46.0678L337.192 46.0591L337.2 46.0502L337.209 46.0412L337.218 46.0322L337.228 46.0231L337.237 46.0138L337.246 46.0045L337.256 45.9951L337.265 45.9855L337.275 45.9759L337.284 45.9662L337.294 45.9564L337.304 45.9466L337.314 45.9366L337.324 45.9265L337.334 45.9164L337.345 45.9061L337.355 45.8958L337.365 45.8854L337.376 45.8749L337.386 45.8643L337.397 45.8536L337.408 45.8428L337.419 45.8319L337.43 45.821L337.441 45.81L337.452 45.7988L337.463 45.7876L337.474 45.7763L337.486 45.765L337.497 45.7535L337.509 45.742L337.52 45.7303L337.532 45.7186L337.544 45.7068L337.556 45.6949L337.568 45.683L337.58 45.6709L337.592 45.6588L337.604 45.6466L337.616 45.6343L337.629 45.6219L337.641 45.6095L337.654 45.5969L337.666 45.5843L337.679 45.5716L337.692 45.5589L337.705 45.546L337.718 45.5331L337.731 45.5201L337.744 45.507L337.757 45.4938L337.77 45.4806L337.783 45.4673L337.797 45.4539L337.81 45.4404L337.824 45.4269L337.837 45.4133L337.851 45.3996L337.865 45.3858L337.879 45.3719L337.893 45.358L337.907 45.344L337.921 45.33L337.935 45.3158L337.949 45.3016L337.963 45.2873L337.978 45.273L337.992 45.2586L338.007 45.2441L338.021 45.2295L338.036 45.2149L338.051 45.2001L338.065 45.1854L338.08 45.1705L338.095 45.1556L338.11 45.1406L338.125 45.1256L338.14 45.1104L338.155 45.0952L338.171 45.08L338.186 45.0647L338.201 45.0493L338.217 45.0338L338.232 45.0183L338.248 45.0027L338.264 44.987L338.279 44.9713L338.295 44.9555L338.311 44.9397L338.327 44.9237L338.343 44.9078L338.359 44.8917L338.375 44.8756L338.391 44.8595L338.407 44.8432L338.424 44.8269L338.44 44.8106L338.456 44.7942L338.473 44.7777L338.49 44.7612L338.506 44.7446L338.523 44.7279L338.539 44.7112L338.556 44.6944L338.573 44.6776L338.59 44.6607L338.607 44.6437L338.624 44.6267L338.641 44.6097L338.658 44.5925L338.675 44.5754L338.693 44.5581L338.71 44.5408L338.727 44.5235L338.745 44.5061L338.762 44.4886L338.78 44.4711L338.797 44.4535L338.815 44.4359L338.832 44.4183L338.85 44.4005L338.868 44.3827L338.886 44.3649L338.904 44.347L338.922 44.3291L338.94 44.3111L338.958 44.2931L338.976 44.275L338.994 44.2568L339.012 44.2386L339.03 44.2204L339.049 44.2021L339.067 44.1838L339.085 44.1654L339.104 44.1469L339.122 44.1284L339.141 44.1099L339.159 44.0913L339.178 44.0727L339.197 44.054L339.215 44.0353L339.234 44.0165L339.253 43.9977L339.272 43.9789L339.291 43.96L339.31 43.941L339.329 43.922L339.348 43.903L339.367 43.8839L339.386 43.8648L339.405 43.8456L339.424 43.8264L339.443 43.8072L339.463 43.7879L339.482 43.7686L339.501 43.7492L339.521 43.7298L339.54 43.7103L339.56 43.6908L339.579 43.6713L339.599 43.6517L339.619 43.6321L339.638 43.6124L339.658 43.5927L339.678 43.573L339.697 43.5532L339.717 43.5334L339.737 43.5136L339.757 43.4937L339.777 43.4738L339.797 43.4539L339.817 43.4339L339.837 43.4138L339.857 43.3938L339.877 43.3737L339.897 43.3536L339.917 43.3334L339.937 43.3132L339.958 43.293L339.978 43.2727L339.998 43.2524L340.019 43.2321L340.039 43.2118L340.059 43.1914L340.08 43.171L340.1 43.1505L340.121 43.13L340.141 43.1095L340.162 43.089L340.182 43.0684L340.203 43.0478L340.223 43.0272L340.244 43.0065L340.265 42.9859L340.286 42.9651L340.306 42.9444L340.327 42.9236L340.348 42.9029L340.369 42.882L340.389 42.8612L340.41 42.8403L340.431 42.8194L340.452 42.7985L340.473 42.7776L340.494 42.7566L340.515 42.7356L340.536 42.7146L340.557 42.6935L340.578 42.6725L340.599 42.6514L340.62 42.6303L340.641 42.6092L340.663 42.588L340.684 42.5669L340.705 42.5457L340.726 42.5244L340.747 42.5032L340.769 42.482L340.79 42.4607L340.811 42.4394L340.833 42.4181L340.854 42.3968L340.875 42.3754L340.897 42.3541L340.918 42.3327L340.939 42.3113L340.961 42.2899L340.982 42.2684L341.004 42.247L341.025 42.2255L341.047 42.2041L341.068 42.1826L341.09 42.1611L341.111 42.1395L341.133 42.118L341.154 42.0965L341.176 42.0749L341.197 42.0533L341.219 42.0317L341.241 42.0102L341.262 41.9885L341.284 41.9669L341.305 41.9453L341.327 41.9236L341.349 41.902L341.37 41.8803L341.392 41.8587L341.414 41.837L341.435 41.8153L341.457 41.7936L341.479 41.7719L341.5 41.7502L341.522 41.7284L341.544 41.7067L341.566 41.685L341.587 41.6632L341.609 41.6415L341.631 41.6197L341.653 41.598L341.674 41.5762L341.696 41.5544L341.718 41.5326L341.74 41.5109L341.762 41.4891L341.783 41.4673L341.805 41.4455L341.827 41.4237L341.849 41.4019L341.871 41.3801L341.892 41.3583L341.914 41.3365L341.936 41.3147L341.958 41.2929L341.98 41.2711L342.001 41.2493L342.023 41.2275L342.045 41.2057L342.067 41.1839L342.089 41.1621L342.11 41.1403L342.132 41.1185L342.154 41.0967L342.176 41.0749L342.198 41.0531L342.219 41.0314L342.241 41.0096L342.263 40.9878L342.285 40.966L342.306 40.9443L342.328 40.9225L342.35 40.9007L342.372 40.879L342.393 40.8573L342.415 40.8355L342.437 40.8138L342.459 40.7921L342.48 40.7704L342.502 40.7486L342.524 40.7269L342.545 40.7053L342.567 40.6836L342.589 40.6619L342.61 40.6402L342.632 40.6186L342.654 40.5969L342.675 40.5753L342.697 40.5537L342.719 40.5321L342.74 40.5105L342.762 40.4889L342.783 40.4673L342.805 40.4458L342.826 40.4242L342.848 40.4027L342.869 40.3812L342.891 40.3597L342.912 40.3382L342.934 40.3167L342.955 40.2953L342.977 40.2738L342.998 40.2524L343.02 40.231L343.041 40.2096L343.062 40.1882L343.084 40.1668L343.105 40.1455L343.126 40.1242L343.148 40.1029L343.169 40.0816L343.19 40.0603L343.212 40.0391L343.233 40.0178L343.254 39.9966L343.275 39.9754L343.296 39.9543L343.318 39.9331L343.339 39.912L343.36 39.8909L343.381 39.8698L343.402 39.8487L343.423 39.8277L343.444 39.8067L343.465 39.7857L343.486 39.7647L343.507 39.7438L343.528 39.7229L343.549 39.702L343.57 39.6811L343.59 39.6603L343.611 39.6395L343.632 39.6187L343.653 39.5979L343.673 39.5772L343.694 39.5565L343.715 39.5358L343.736 39.5151L343.756 39.4945L343.777 39.4739L343.797 39.4533L343.818 39.4328L343.838 39.4123L343.859 39.3918L343.879 39.3714L343.9 39.351L343.92 39.3306L343.94 39.3102L343.961 39.2899L343.981 39.2696L344.001 39.2494L344.022 39.2291L344.042 39.2089L344.062 39.1888L344.082 39.1687L344.102 39.1486L344.122 39.1285L344.142 39.1085L344.162 39.0885L344.182 39.0686L344.202 39.0487L344.222 39.0288L344.242 39.0089L344.262 38.9891L344.281 38.9694L344.301 38.9497L344.321 38.93L344.34 38.9103L344.36 38.8907L344.38 38.8711L344.399 38.8516L344.419 38.8321L344.438 38.8127L344.457 38.7932L344.477 38.7739L344.496 38.7545L344.515 38.7353L344.535 38.716L344.554 38.6968L344.573 38.6776L344.592 38.6585L344.611 38.6394L344.63 38.6204L344.649 38.6014L344.668 38.5825L344.687 38.5636L344.706 38.5447L344.725 38.5259L344.744 38.5072L344.762 38.4884L344.781 38.4698L344.8 38.4511L344.818 38.4326L344.837 38.414L344.855 38.3956L344.874 38.3771L344.892 38.3587L344.91 38.3404L344.929 38.3221L344.947 38.3039L344.965 38.2857L344.983 38.2676L345.001 38.2495L345.019 38.2314L345.037 38.2134L345.055 38.1955L345.073 38.1776L345.091 38.1598L345.109 38.142L345.126 38.1243L345.144 38.1066L345.162 38.089L345.179 38.0715L343.765 36.6572L343.747 36.6748L343.73 36.6924L343.712 36.7101L343.694 36.7278L343.677 36.7456L343.659 36.7634L343.641 36.7813L343.623 36.7992L343.605 36.8172L343.587 36.8353L343.569 36.8533L343.551 36.8715L343.533 36.8897L343.514 36.9079L343.496 36.9262L343.478 36.9445L343.459 36.9629L343.441 36.9813L343.422 36.9998L343.404 37.0184L343.385 37.0369L343.367 37.0556L343.348 37.0742L343.329 37.0929L343.311 37.1117L343.292 37.1305L343.273 37.1494L343.254 37.1683L343.235 37.1872L343.216 37.2062L343.197 37.2252L343.178 37.2443L343.159 37.2634L343.14 37.2826L343.12 37.3018L343.101 37.321L343.082 37.3403L343.063 37.3597L343.043 37.379L343.024 37.3984L343.004 37.4179L342.985 37.4374L342.965 37.4569L342.946 37.4765L342.926 37.4961L342.906 37.5158L342.887 37.5354L342.867 37.5552L342.847 37.5749L342.827 37.5947L342.808 37.6146L342.788 37.6344L342.768 37.6544L342.748 37.6743L342.728 37.6943L342.708 37.7143L342.688 37.7344L342.668 37.7545L342.648 37.7746L342.628 37.7947L342.607 37.8149L342.587 37.8351L342.567 37.8554L342.547 37.8757L342.526 37.896L342.506 37.9164L342.485 37.9367L342.465 37.9572L342.445 37.9776L342.424 37.9981L342.404 38.0186L342.383 38.0391L342.363 38.0597L342.342 38.0803L342.321 38.1009L342.301 38.1216L342.28 38.1422L342.259 38.163L342.239 38.1837L342.218 38.2045L342.197 38.2252L342.176 38.2461L342.155 38.2669L342.134 38.2878L342.114 38.3087L342.093 38.3296L342.072 38.3505L342.051 38.3715L342.03 38.3925L342.009 38.4135L341.988 38.4345L341.967 38.4556L341.946 38.4767L341.924 38.4978L341.903 38.5189L341.882 38.54L341.861 38.5612L341.84 38.5824L341.819 38.6036L341.797 38.6248L341.776 38.6461L341.755 38.6674L341.734 38.6886L341.712 38.71L341.691 38.7313L341.67 38.7526L341.648 38.774L341.627 38.7954L341.605 38.8168L341.584 38.8382L341.563 38.8596L341.541 38.881L341.52 38.9025L341.498 38.924L341.477 38.9455L341.455 38.967L341.434 38.9885L341.412 39.01L341.391 39.0316L341.369 39.0531L341.348 39.0747L341.326 39.0963L341.304 39.1179L341.283 39.1395L341.261 39.1611L341.239 39.1827L341.218 39.2044L341.196 39.226L341.175 39.2477L341.153 39.2694L341.131 39.291L341.109 39.3127L341.088 39.3344L341.066 39.3561L341.044 39.3779L341.023 39.3996L341.001 39.4213L340.979 39.443L340.957 39.4648L340.936 39.4865L340.914 39.5083L340.892 39.5301L340.87 39.5518L340.849 39.5736L340.827 39.5954L340.805 39.6171L340.783 39.6389L340.762 39.6607L340.74 39.6825L340.718 39.7043L340.696 39.7261L340.674 39.7479L340.653 39.7697L340.631 39.7915L340.609 39.8133L340.587 39.8351L340.565 39.8569L340.544 39.8787L340.522 39.9005L340.5 39.9223L340.478 39.9441L340.456 39.9659L340.435 39.9877L340.413 40.0095L340.391 40.0313L340.369 40.0531L340.347 40.0749L340.326 40.0967L340.304 40.1184L340.282 40.1402L340.26 40.162L340.238 40.1838L340.217 40.2055L340.195 40.2273L340.173 40.249L340.151 40.2708L340.13 40.2925L340.108 40.3142L340.086 40.336L340.065 40.3577L340.043 40.3794L340.021 40.4011L339.999 40.4228L339.978 40.4444L339.956 40.4661L339.934 40.4878L339.913 40.5094L339.891 40.5311L339.87 40.5527L339.848 40.5743L339.826 40.5959L339.805 40.6175L339.783 40.6391L339.762 40.6607L339.74 40.6823L339.718 40.7038L339.697 40.7253L339.675 40.7469L339.654 40.7684L339.632 40.7898L339.611 40.8113L339.589 40.8328L339.568 40.8542L339.547 40.8757L339.525 40.8971L339.504 40.9185L339.482 40.9398L339.461 40.9612L339.44 40.9826L339.418 41.0039L339.397 41.0252L339.376 41.0465L339.354 41.0678L339.333 41.089L339.312 41.1102L339.291 41.1314L339.27 41.1526L339.248 41.1738L339.227 41.195L339.206 41.2161L339.185 41.2372L339.164 41.2583L339.143 41.2793L339.122 41.3004L339.101 41.3214L339.08 41.3424L339.059 41.3633L339.038 41.3843L339.017 41.4052L338.996 41.4261L338.975 41.447L338.954 41.4678L338.934 41.4886L338.913 41.5094L338.892 41.5302L338.871 41.5509L338.851 41.5716L338.83 41.5923L338.809 41.613L338.789 41.6336L338.768 41.6542L338.747 41.6748L338.727 41.6953L338.706 41.7158L338.686 41.7363L338.665 41.7567L338.645 41.7772L338.625 41.7976L338.604 41.8179L338.584 41.8382L338.564 41.8585L338.543 41.8788L338.523 41.899L338.503 41.9192L338.483 41.9394L338.463 41.9595L338.443 41.9796L338.423 41.9996L338.403 42.0197L338.383 42.0396L338.363 42.0596L338.343 42.0795L338.323 42.0994L338.303 42.1192L338.283 42.139L338.263 42.1588L338.244 42.1785L338.224 42.1982L338.204 42.2179L338.185 42.2375L338.165 42.2571L338.146 42.2766L338.126 42.2961L338.107 42.3155L338.087 42.335L338.068 42.3543L338.049 42.3737L338.029 42.393L338.01 42.4122L337.991 42.4314L337.972 42.4506L337.953 42.4697L337.933 42.4888L337.914 42.5078L337.895 42.5268L337.876 42.5458L337.858 42.5647L337.839 42.5835L337.82 42.6023L337.801 42.6211L337.782 42.6398L337.764 42.6585L337.745 42.6771L337.727 42.6957L337.708 42.7142L337.69 42.7327L337.671 42.7512L337.653 42.7695L337.634 42.7879L337.616 42.8062L337.598 42.8244L337.58 42.8426L337.561 42.8608L337.543 42.8788L337.525 42.8969L337.507 42.9149L337.495 42.9277L337.494 42.9275L329.483 50.9391C327.746 52.6763 327.746 55.4928 329.483 57.23C330.467 58.2138 331.797 58.6405 333.081 58.5099C332.95 59.7943 333.376 61.1247 334.361 62.1088C335.344 63.0922 336.673 63.5189 337.957 63.389C337.826 64.6727 338.253 66.0021 339.237 66.9856C340.22 67.9691 341.549 68.3958 342.833 68.2657C342.703 69.5494 343.13 70.8789 344.113 71.8625C345.85 73.5996 348.667 73.5996 350.404 71.8625L358.416 63.8508L358.414 63.8495L370.186 52.0778C373.31 48.9536 373.31 43.8883 370.186 40.7641L360.579 31.157Z" fill="#222222"/>
<path fill-rule="evenodd" clip-rule="evenodd" d="M343.441 36.3112C343.05 35.9207 342.417 35.9207 342.027 36.3112C341.636 36.7017 341.636 37.3349 342.027 37.7254L350.038 45.7371C351.775 47.4742 354.592 47.4742 356.329 45.7371C358.066 43.9999 358.066 41.1834 356.329 39.4462L349.014 32.1312L348.998 32.1474C345.456 29.0654 340.079 29.2166 336.717 32.5959L329.767 39.5816C328.089 41.2681 327.147 43.5502 327.147 45.9292L327.147 48.0435C327.147 48.5958 327.595 49.0435 328.147 49.0435C328.699 49.0435 329.147 48.5958 329.147 48.0435V45.9292C329.147 44.0789 329.88 42.3039 331.185 40.9922L338.134 34.0065C340.866 31.2608 345.308 31.2551 348.047 33.9937L352.129 38.0755C352.139 38.0861 352.15 38.0964 352.161 38.1064L354.915 40.8604C355.871 41.8165 355.871 43.3667 354.915 44.3228C353.959 45.279 352.408 45.279 351.452 44.3228L343.441 36.3112Z" fill="#222222"/>
</g>
<path fill-rule="evenodd" clip-rule="evenodd" d="M229 32.9C229 31.0323 230.532 29.5 232.4 29.5H250C250.902 29.5 251.767 29.8582 252.404 30.4958C253.042 31.1335 253.4 31.9983 253.4 32.9V43.9C253.4 44.8017 253.042 45.6665 252.404 46.3042C251.767 46.9418 250.902 47.3 250 47.3H236.8C236.535 47.3 236.28 47.4054 236.093 47.5929L229 54.6858V32.9ZM232.4 27.5C229.428 27.5 227 29.9277 227 32.9V57.1C227 57.5045 227.244 57.8691 227.617 58.0239C227.991 58.1787 228.421 58.0931 228.707 57.8071L237.214 49.3H250C251.432 49.3 252.806 48.7311 253.818 47.7184C254.831 46.7057 255.4 45.3322 255.4 43.9V32.9C255.4 31.4678 254.831 30.0943 253.818 29.0816C252.806 28.0689 251.432 27.5 250 27.5H232.4ZM259.01 42.9C258.457 42.9 258.01 43.3477 258.01 43.9C258.01 44.4523 258.457 44.9 259.01 44.9H267.6C268.502 44.9 269.367 45.2582 270.004 45.8958C270.642 46.5335 271 47.3983 271 48.3V70.0858L263.907 62.9929C263.72 62.8054 263.465 62.7 263.2 62.7H250C249.098 62.7 248.233 62.3418 247.596 61.7042C246.958 61.0665 246.6 60.2017 246.6 59.3V52.9095C246.6 52.3572 246.152 51.9095 245.6 51.9095C245.048 51.9095 244.6 52.3572 244.6 52.9095V59.3C244.6 60.7322 245.169 62.1057 246.182 63.1184C247.194 64.1311 248.568 64.7 250 64.7H262.786L271.293 73.2071C271.579 73.4931 272.009 73.5787 272.383 73.4239C272.756 73.2691 273 72.9045 273 72.5V48.3C273 46.8678 272.431 45.4943 271.418 44.4816C270.406 43.4689 269.032 42.9 267.6 42.9H259.01ZM234.5 39C234.5 38.4477 234.948 38 235.5 38H236.5C237.052 38 237.5 38.4477 237.5 39C237.5 39.5523 237.052 40 236.5 40H235.5C234.948 40 234.5 39.5523 234.5 39ZM239.5 39C239.5 38.4477 239.948 38 240.5 38H241.5C242.052 38 242.5 38.4477 242.5 39C242.5 39.5523 242.052 40 241.5 40H240.5C239.948 40 239.5 39.5523 239.5 39ZM245.5 38C244.948 38 244.5 38.4477 244.5 39C244.5 39.5523 244.948 40 245.5 40H246.5C247.052 40 247.5 39.5523 247.5 39C247.5 38.4477 247.052 38 246.5 38H245.5ZM252.5 55C252.5 54.4477 252.948 54 253.5 54H254.5C255.052 54 255.5 54.4477 255.5 55C255.5 55.5523 255.052 56 254.5 56H253.5C252.948 56 252.5 55.5523 252.5 55ZM257.5 55C257.5 54.4477 257.948 54 258.5 54H259.5C260.052 54 260.5 54.4477 260.5 55C260.5 55.5523 260.052 56 259.5 56H258.5C257.948 56 257.5 55.5523 257.5 55ZM263.5 54C262.948 54 262.5 54.4477 262.5 55C262.5 55.5523 262.948 56 263.5 56H264.5C265.052 56 265.5 55.5523 265.5 55C265.5 54.4477 265.052 54 264.5 54H263.5Z" fill="#222222"/>
<path d="M150 39.9444C150 37.7048 149.073 35.557 147.423 33.9733C145.772 32.3897 143.534 31.5 141.2 31.5H128V63.1667H143.4C145.15 63.1667 146.829 63.8339 148.067 65.0217C149.305 66.2094 150 67.8203 150 69.5M150 39.9444V69.5M150 39.9444C150 37.7048 150.927 35.557 152.577 33.9733C154.228 32.3897 156.466 31.5 158.8 31.5H172V63.1667H156.6C154.85 63.1667 153.171 63.8339 151.933 65.0217C150.695 66.2094 150 67.8203 150 69.5M136.8 42.0556H141.2M136.8 50.5H141.2M158.8 42.0556H163.2M158.8 50.5H163.2" stroke="#222222" stroke-width="2" stroke-linecap="round" stroke-linejoin="round"/>
<path fill-rule="evenodd" clip-rule="evenodd" d="M41 28.5C40.4477 28.5 40 28.9477 40 29.5V33.0395C38.8007 33.3705 37.6618 33.8467 36.6035 34.4476L34.1004 31.9445C33.9128 31.7569 33.6585 31.6516 33.3933 31.6516C33.1281 31.6516 32.8737 31.7569 32.6862 31.9445L28.4435 36.1871C28.053 36.5776 28.053 37.2108 28.4435 37.6013L30.9469 40.1047C30.3463 41.1627 29.8704 42.3012 29.5395 43.5H26C25.4477 43.5 25 43.9477 25 44.5V50.5C25 51.0523 25.4477 51.5 26 51.5H29.5395C29.8705 52.699 30.3464 53.8376 30.9472 54.8957L28.4437 57.3991C28.2562 57.5867 28.1508 57.841 28.1508 58.1062C28.1508 58.3715 28.2562 58.6258 28.4437 58.8133L32.6864 63.056C33.0769 63.4465 33.7101 63.4465 34.1006 63.056L36.6039 60.5526C37.6621 61.1535 38.8009 61.6295 40 61.9605V65.5C40 66.0523 40.4477 66.5 41 66.5H47C47.5523 66.5 48 66.0523 48 65.5V61.9605C48.4617 61.8331 48.9145 61.6841 49.3572 61.5148L48.6428 59.6467C48.0441 59.8757 47.4242 60.0617 46.7867 60.2008C46.3274 60.3011 46 60.7077 46 61.1778V64.5H42V61.1778C42 60.7077 41.6726 60.3011 41.2133 60.2008C39.6887 59.868 38.2639 59.2674 36.9903 58.4503C36.5947 58.1965 36.0757 58.2525 35.7433 58.5849L33.3935 60.9347L30.5651 58.1062L32.9149 55.7564C33.2473 55.424 33.3033 54.905 33.0495 54.5093C32.2325 53.2358 31.632 51.8111 31.2992 50.2867C31.1989 49.8274 30.7923 49.5 30.3222 49.5H27V45.5H30.3222C30.7923 45.5 31.1989 45.1726 31.2992 44.7133C31.632 43.189 32.2324 41.7645 33.0492 40.491C33.303 40.0954 33.247 39.5764 32.9146 39.244L30.5649 36.8942L33.3933 34.0658L35.7429 36.4154C36.0753 36.7478 36.5943 36.8038 36.99 36.5499C38.2637 35.7327 39.6886 35.132 41.2133 34.7992C41.6726 34.6989 42 34.2923 42 33.8222V30.5H46V33.8222C46 34.2923 46.3274 34.6989 46.7867 34.7992C48.3111 35.132 49.7358 35.7325 51.0093 36.5495C51.405 36.8033 51.924 36.7473 52.2564 36.4149L54.6067 34.0646L57.4351 36.893L55.0849 39.2433C54.7525 39.5757 54.6965 40.0947 54.9503 40.4903C55.7674 41.7639 56.368 43.1888 56.7008 44.7133C56.8011 45.1726 57.2077 45.5 57.6778 45.5H61V47.5H63V44.5C63 43.9477 62.5523 43.5 62 43.5H58.4605C58.1295 42.3009 57.6535 41.1621 57.0526 40.1039L59.5564 37.6001C59.744 37.4126 59.8493 37.1582 59.8493 36.893C59.8493 36.6278 59.744 36.3735 59.5564 36.1859L55.3138 31.9433C54.9233 31.5528 54.2901 31.5528 53.8996 31.9433L51.3957 34.4472C50.3376 33.8464 49.199 33.3705 48 33.0395V29.5C48 28.9477 47.5523 28.5 47 28.5H41ZM38 47.5C38 44.1863 40.6863 41.5 44 41.5C47.3137 41.5 50 44.1863 50 47.5C50 50.8137 47.3137 53.5 44 53.5C40.6863 53.5 38 50.8137 38 47.5ZM44 39.5C39.5817 39.5 36 43.0817 36 47.5C36 51.9183 39.5817 55.5 44 55.5C48.4183 55.5 52 51.9183 52 47.5C52 43.0817 48.4183 39.5 44 39.5ZM69 58.5C69 63.1944 65.1944 67 60.5 67C55.8056 67 52 63.1944 52 58.5C52 53.8056 55.8056 50 60.5 50C65.1944 50 69 53.8056 69 58.5ZM71 58.5C71 61.059 70.0846 63.4041 68.5634 65.2259C68.6604 65.2732 68.7514 65.3372 68.8321 65.4179L73.7071 70.2929C74.0976 70.6834 74.0976 71.3166 73.7071 71.7071C73.3166 72.0976 72.6834 72.0976 72.2929 71.7071L67.4179 66.8321C67.3372 66.7514 67.2732 66.6604 67.2259 66.5634C65.4041 68.0846 63.059 69 60.5 69C54.701 69 50 64.299 50 58.5C50 52.701 54.701 48 60.5 48C66.299 48 71 52.701 71 58.5ZM61 55C61 54.4477 60.5523 54 60 54C59.4477 54 59 54.4477 59 55V62C59 62.5523 59.4477 63 60 63C60.5523 63 61 62.5523 61 62V55ZM57 58C57 57.4477 56.5523 57 56 57C55.4477 57 55 57.4477 55 58V62C55 62.5523 55.4477 63 56 63C56.5523 63 57 62.5523 57 62V58ZM64 58C64.5523 58 65 58.4477 65 59V62C65 62.5523 64.5523 63 64 63C63.4477 63 63 62.5523 63 62V59C63 58.4477 63.4477 58 64 58Z" fill="#222222"/>
<defs>
<clipPath id="clip0_1105_152514">
<rect width="50" height="50" fill="white" transform="translate(325 25.5)"/>
</clipPath>
</defs>
</svg>
