<svg width="60" height="40" viewBox="0 0 60 40" fill="none" xmlns="http://www.w3.org/2000/svg">
<path d="M37 38.5H23C22.7239 38.5 22.5 38.2761 22.5 38V24C22.5 23.7239 22.7239 23.5 23 23.5H34.8783C35.0032 23.5 35.1236 23.5468 35.2158 23.631L37.3375 25.5716C37.441 25.6663 37.5 25.8002 37.5 25.9406V38C37.5 38.2761 37.2761 38.5 37 38.5Z" stroke="#4E16ED"/>
<path d="M33 38V33C33 32.4477 32.5523 32 32 32H28C27.4477 32 27 32.4477 27 33V38" stroke="#4E16ED"/>
<path d="M33 24V26C33 26.5523 32.5523 27 32 27H28C27.4477 27 27 26.5523 27 26V24" stroke="#4E16ED"/>
<path fill-rule="evenodd" clip-rule="evenodd" d="M0.5 18.2857C0.223858 18.2857 0 18.0619 0 17.7857V2.5C0 2.22386 0.223858 2 0.5 2H13.3571C13.6333 2 13.8571 2.22386 13.8571 2.5V7.07136H12.8571V3H1V17.2857H12.8571V11.3571H13.8571V17.7857C13.8571 18.0619 13.6333 18.2857 13.3571 18.2857H0.5ZM3.35693 8H8.35693V7H3.35693V8ZM10.3569 10.8569H3.35693V9.85693H10.3569V10.8569ZM3.35693 13.8569H8.35693V12.8569H3.35693V13.8569Z" fill="#747474"/>
<path fill-rule="evenodd" clip-rule="evenodd" d="M15.5717 5.86484L16.4717 4.96484L17.8859 6.37906L16.9859 7.27905L15.5717 5.86484ZM14.8646 6.57195L9.41465 12.0219L9.17118 13.6796L10.8289 13.4361L16.2788 7.98616L14.8646 6.57195ZM15.7646 4.25774C16.1551 3.86721 16.7883 3.86721 17.1788 4.25774L18.5931 5.67195C18.9836 6.06247 18.9836 6.69564 18.5931 7.08616L11.536 14.1432C11.3839 14.2953 11.1869 14.3943 10.9742 14.4255L9.3165 14.669C8.65366 14.7663 8.08444 14.1971 8.1818 13.5343L8.42527 11.8766C8.45651 11.6639 8.5555 11.4669 8.70754 11.3148L15.7646 4.25774Z" fill="#747474"/>
<path d="M37 18.5H23C22.7239 18.5 22.5 18.2761 22.5 18V4C22.5 3.72386 22.7239 3.5 23 3.5H34.8783C35.0032 3.5 35.1236 3.54675 35.2158 3.63105L37.3375 5.57161C37.441 5.66633 37.5 5.80022 37.5 5.94056V18C37.5 18.2761 37.2761 18.5 37 18.5Z" stroke="#747474"/>
<path d="M33 18V13C33 12.4477 32.5523 12 32 12H28C27.4477 12 27 12.4477 27 13V18" stroke="#747474"/>
<path d="M33 4V6C33 6.55228 32.5523 7 32 7H28C27.4477 7 27 6.55228 27 6V4" stroke="#747474"/>
<path d="M45 25.5H55C55.2761 25.5 55.5 25.7239 55.5 26V38C55.5 38.2761 55.2761 38.5 55 38.5H50H45C44.7239 38.5 44.5 38.2761 44.5 38V26C44.5 25.7239 44.7239 25.5 45 25.5Z" stroke="#4E16ED"/>
<path d="M42 25.5C42 25.2239 42.2239 25 42.5 25H57.5C57.7761 25 58 25.2239 58 25.5V25.5C58 25.7761 57.7761 26 57.5 26H42.5C42.2239 26 42 25.7761 42 25.5V25.5Z" fill="#4E16ED"/>
<path d="M53 25V23C53 22.4477 52.5523 22 52 22H48C47.4477 22 47 22.4477 47 23V25" stroke="#4E16ED"/>
<path d="M48 29.5V35.5" stroke="#4E16ED" stroke-linecap="round"/>
<path d="M52 29.5V35.5" stroke="#4E16ED" stroke-linecap="round"/>
<path fill-rule="evenodd" clip-rule="evenodd" d="M0.5 38.2857C0.223858 38.2857 0 38.0619 0 37.7857V22.5C0 22.2239 0.223858 22 0.5 22H13.3571C13.6333 22 13.8571 22.2239 13.8571 22.5V27.0714H12.8571V23H1V37.2857H12.8571V31.3571H13.8571V37.7857C13.8571 38.0619 13.6333 38.2857 13.3571 38.2857H0.5ZM3.35693 28H8.35693V27H3.35693V28ZM10.3569 30.8569H3.35693V29.8569H10.3569V30.8569ZM3.35693 33.8569H8.35693V32.8569H3.35693V33.8569Z" fill="#4E16ED"/>
<path fill-rule="evenodd" clip-rule="evenodd" d="M15.5717 25.8648L16.4717 24.9648L17.8859 26.3791L16.9859 27.2791L15.5717 25.8648ZM14.8646 26.5719L9.41465 32.0219L9.17118 33.6796L10.8289 33.4361L16.2788 27.9862L14.8646 26.5719ZM15.7646 24.2577C16.1551 23.8672 16.7883 23.8672 17.1788 24.2577L18.5931 25.672C18.9836 26.0625 18.9836 26.6956 18.5931 27.0862L11.536 34.1432C11.3839 34.2953 11.1869 34.3943 10.9742 34.4255L9.3165 34.669C8.65366 34.7663 8.08444 34.1971 8.1818 33.5343L8.42527 31.8766C8.45651 31.6639 8.5555 31.4669 8.70754 31.3148L15.7646 24.2577Z" fill="#4E16ED"/>
<path d="M45 5.5H55C55.2761 5.5 55.5 5.72386 55.5 6V18C55.5 18.2761 55.2761 18.5 55 18.5H50H45C44.7239 18.5 44.5 18.2761 44.5 18V6C44.5 5.72386 44.7239 5.5 45 5.5Z" stroke="#747474"/>
<path d="M42 5.5C42 5.22386 42.2239 5 42.5 5H57.5C57.7761 5 58 5.22386 58 5.5V5.5C58 5.77614 57.7761 6 57.5 6H42.5C42.2239 6 42 5.77614 42 5.5V5.5Z" fill="#747474"/>
<path d="M53 5V3C53 2.44772 52.5523 2 52 2H48C47.4477 2 47 2.44772 47 3V5" stroke="#747474"/>
<path d="M48 9.5V15.5" stroke="#747474" stroke-linecap="round"/>
<path d="M52 9.5V15.5" stroke="#747474" stroke-linecap="round"/>
</svg>
