<svg width="170" height="54" viewBox="0 0 170 54" fill="none" xmlns="http://www.w3.org/2000/svg">
<path fill-rule="evenodd" clip-rule="evenodd" d="M139.499 5C139.499 4.44772 139.051 4 138.499 4C137.947 4 137.499 4.44772 137.499 5V8C137.499 8.55228 137.947 9 138.499 9C139.051 9 139.499 8.55228 139.499 8V5ZM119 24.5C118.448 24.5 118 24.9477 118 25.5C118 26.0523 118.448 26.5 119 26.5H122C122.552 26.5 123 26.0523 123 25.5C123 24.9477 122.552 24.5 122 24.5H119ZM123.793 10.7322C124.184 10.3417 124.817 10.3417 125.207 10.7322L127.329 12.8535C127.719 13.2441 127.719 13.8772 127.329 14.2678C126.938 14.6583 126.305 14.6583 125.914 14.2678L123.793 12.1465C123.403 11.7559 123.403 11.1227 123.793 10.7322ZM153.207 35.7322C152.817 35.3417 152.183 35.3417 151.793 35.7322C151.402 36.1227 151.402 36.7559 151.793 37.1465L153.914 39.2678C154.305 39.6583 154.938 39.6583 155.328 39.2678C155.719 38.8772 155.719 38.2441 155.328 37.8535L153.207 35.7322ZM126.207 35.7322C125.817 35.3417 125.183 35.3417 124.793 35.7322L122.672 37.8535C122.281 38.2441 122.281 38.8772 122.672 39.2678C123.062 39.6583 123.695 39.6583 124.086 39.2678L126.207 37.1465C126.598 36.7559 126.598 36.1227 126.207 35.7322ZM139.496 11C140.399 11 141.283 11.0797 142.142 11.2325L141.067 13.0937C140.553 13.0319 140.029 13 139.496 13C132.317 13 126.496 18.8205 126.496 26.0005C126.496 30.9886 129.305 35.3238 133.436 37.5054C134.391 38.0093 135.067 39.0145 135.067 40.1892V41.5H138.5V30.874C136.775 30.4301 135.5 28.8639 135.5 27C135.5 24.7909 137.291 23 139.5 23C141.709 23 143.5 24.7909 143.5 27C143.5 28.8637 142.225 30.4297 140.5 30.8739V41.5H143.867V43.5H135.067V47.0014H143.924V40.1898C143.924 39.015 144.601 38.0098 145.556 37.5058C149.031 35.6711 151.571 32.31 152.29 28.3244C152.309 28.2167 152.327 28.1086 152.344 28H154.364C154.334 28.228 154.298 28.4545 154.258 28.6792C153.428 33.2848 150.495 37.1597 146.49 39.2745C146.148 39.4547 145.924 39.8038 145.924 40.1898V48.0014C145.924 48.5536 145.477 49.0014 144.924 49.0014H134.067C133.515 49.0014 133.067 48.5536 133.067 48.0014V40.1892C133.067 39.8032 132.844 39.4542 132.502 39.2739C127.741 36.7598 124.496 31.7591 124.496 26.0005C124.496 17.716 131.212 11 139.496 11ZM152.785 19.036C153.24 19.9025 153.613 20.8189 153.893 21.775C152.604 20.8138 151.769 19.277 151.769 17.5453C151.769 17.4891 151.77 17.4331 151.772 17.3774C152.144 17.9061 152.483 18.46 152.785 19.036ZM133.591 50.5C133.038 50.5 132.591 50.9477 132.591 51.5C132.591 52.0523 133.038 52.5 133.591 52.5H145.591C146.143 52.5 146.591 52.0523 146.591 51.5C146.591 50.9477 146.143 50.5 145.591 50.5H133.591ZM139.5 29C140.604 29 141.5 28.1046 141.5 27C141.5 25.8954 140.604 25 139.5 25C138.395 25 137.5 25.8954 137.5 27C137.5 28.1046 138.395 29 139.5 29Z" fill="#EE2A7B"/>
<path d="M159.904 4H160.904C160.904 3.44772 160.457 3 159.904 3V4ZM152.874 4V3C152.322 3 151.874 3.44772 151.874 4H152.874ZM159.904 6.64794H158.904C158.904 7.02974 159.122 7.37822 159.465 7.54609L159.904 6.64794ZM161.413 7.58671L160.802 8.37809C161.123 8.62607 161.562 8.65556 161.913 8.45274L161.413 7.58671ZM163.766 6.22849L164.632 5.72849C164.355 5.2502 163.744 5.08632 163.266 5.36247L163.766 6.22849ZM167.281 12.3168L167.781 13.1828C168.01 13.0502 168.178 12.8318 168.247 12.5756C168.315 12.3194 168.279 12.0465 168.147 11.8168L167.281 12.3168ZM164.798 13.7503L164.298 12.8842C163.961 13.0789 163.767 13.4517 163.802 13.8396L164.798 13.7503ZM164.798 15.3405L163.802 15.2512C163.767 15.6391 163.961 16.0118 164.298 16.2066L164.798 15.3405ZM167.28 16.7736L168.146 17.2736C168.422 16.7953 168.258 16.1837 167.78 15.9076L167.28 16.7736ZM163.765 22.8619L163.265 23.728C163.495 23.8606 163.768 23.8965 164.024 23.8279C164.28 23.7592 164.498 23.5916 164.631 23.3619L163.765 22.8619ZM161.413 21.504L161.913 20.638C161.562 20.4351 161.123 20.4646 160.802 20.7126L161.413 21.504ZM159.904 22.4426L159.465 21.5445C159.122 21.7123 158.904 22.0608 158.904 22.4426H159.904ZM159.904 25.0905V26.0905C160.457 26.0905 160.904 25.6428 160.904 25.0905H159.904ZM152.874 25.0905H151.874C151.874 25.6428 152.322 26.0905 152.874 26.0905V25.0905ZM152.874 22.7433H153.874C153.874 22.3304 153.62 21.9599 153.235 21.8108L152.874 22.7433ZM150.981 21.7275L151.558 20.9108C151.239 20.6857 150.819 20.6664 150.481 20.8615L150.981 21.7275ZM149.016 22.862L148.15 23.362C148.426 23.8403 149.037 24.0042 149.516 23.7281L149.016 22.862ZM145.501 16.7737L145.001 15.9077C144.522 16.1839 144.358 16.7955 144.635 17.2737L145.501 16.7737ZM147.335 15.7147L147.835 16.5807C148.186 16.3782 148.38 15.9843 148.326 15.5829L147.335 15.7147ZM147.335 13.3761L148.326 13.5079C148.38 13.1065 148.186 12.7125 147.835 12.5101L147.335 13.3761ZM145.5 12.3167L144.634 11.8167C144.501 12.0464 144.465 12.3193 144.534 12.5755C144.603 12.8317 144.77 13.0501 145 13.1827L145.5 12.3167ZM149.015 6.22837L149.515 5.36234C149.285 5.22973 149.012 5.1938 148.756 5.26244C148.5 5.33109 148.282 5.49868 148.149 5.72837L149.015 6.22837ZM150.981 7.36317L150.481 8.22919C150.819 8.42427 151.239 8.40502 151.558 8.17989L150.981 7.36317ZM152.874 6.34721L153.235 7.27977C153.62 7.13069 153.874 6.76019 153.874 6.34721H152.874ZM159.904 3H152.874V5H159.904V3ZM160.904 6.64794V4H158.904V6.64794H160.904ZM162.024 6.79533C161.504 6.39311 160.941 6.04203 160.344 5.74979L159.465 7.54609C159.939 7.7784 160.387 8.05772 160.802 8.37809L162.024 6.79533ZM163.266 5.36247L160.913 6.72069L161.913 8.45274L164.266 7.09452L163.266 5.36247ZM168.147 11.8168L164.632 5.72849L162.9 6.72849L166.415 12.8168L168.147 11.8168ZM165.298 14.6163L167.781 13.1828L166.781 11.4508L164.298 12.8842L165.298 14.6163ZM165.833 14.5453C165.833 14.2474 165.82 13.9525 165.794 13.6609L163.802 13.8396C163.823 14.0718 163.833 14.3072 163.833 14.5453H165.833ZM165.794 15.4299C165.82 15.1383 165.833 14.8432 165.833 14.5453H163.833C163.833 14.7835 163.823 15.0189 163.802 15.2512L165.794 15.4299ZM167.78 15.9076L165.298 14.4745L164.298 16.2066L166.78 17.6396L167.78 15.9076ZM164.631 23.3619L168.146 17.2736L166.414 16.2736L162.899 22.3619L164.631 23.3619ZM160.913 22.37L163.265 23.728L164.265 21.9959L161.913 20.638L160.913 22.37ZM160.344 23.3408C160.941 23.0485 161.504 22.6975 162.024 22.2954L160.802 20.7126C160.387 21.0329 159.939 21.3122 159.465 21.5445L160.344 23.3408ZM160.904 25.0905V22.4426H158.904V25.0905H160.904ZM152.874 26.0905H159.904V24.0905H152.874V26.0905ZM151.874 22.7433V25.0905H153.874V22.7433H151.874ZM150.404 22.5443C151.053 23.0027 151.76 23.3844 152.513 23.6759L153.235 21.8108C152.637 21.5793 152.075 21.2758 151.558 20.9108L150.404 22.5443ZM149.516 23.7281L151.481 22.5935L150.481 20.8615L148.516 21.996L149.516 23.7281ZM144.635 17.2737L148.15 23.362L149.882 22.362L146.367 16.2737L144.635 17.2737ZM146.835 14.8487L145.001 15.9077L146.001 17.6398L147.835 16.5807L146.835 14.8487ZM146.258 14.5453C146.258 14.986 146.287 15.4203 146.344 15.8465L148.326 15.5829C148.281 15.2439 148.258 14.8976 148.258 14.5453H146.258ZM146.344 13.2443C146.287 13.6704 146.258 14.1047 146.258 14.5453H148.258C148.258 14.1931 148.281 13.8468 148.326 13.5079L146.344 13.2443ZM145 13.1827L146.835 14.2421L147.835 12.5101L146 11.4506L145 13.1827ZM148.149 5.72837L144.634 11.8167L146.366 12.8167L149.881 6.72837L148.149 5.72837ZM151.481 6.49714L149.515 5.36234L148.515 7.09439L150.481 8.22919L151.481 6.49714ZM152.513 5.41464C151.76 5.70615 151.053 6.08792 150.404 6.54644L151.558 8.17989C152.074 7.81482 152.637 7.51132 153.235 7.27977L152.513 5.41464ZM151.874 4V6.34721H153.874V4H151.874ZM160.318 14.5453C160.318 16.905 158.405 18.8179 156.045 18.8179V20.8179C159.509 20.8179 162.318 18.0096 162.318 14.5453H160.318ZM156.045 10.2727C158.405 10.2727 160.318 12.1856 160.318 14.5453H162.318C162.318 11.081 159.509 8.27268 156.045 8.27268V10.2727ZM151.772 14.5453C151.772 12.1856 153.685 10.2727 156.045 10.2727V8.27268C152.581 8.27268 149.772 11.081 149.772 14.5453H151.772ZM156.045 18.8179C153.685 18.8179 151.772 16.905 151.772 14.5453H149.772C149.772 18.0096 152.581 20.8179 156.045 20.8179V18.8179Z" fill="#EE2A7B"/>
<path d="M62.89 25.2971L107.247 5.12429M107.247 5.12429L98.9543 2M107.247 5.12429L104.161 13.4171M108.214 52.1814H98.5714V25.1814C98.5714 24.6699 98.7746 24.1794 99.1363 23.8177C99.498 23.456 99.9885 23.2529 100.5 23.2529H106.286C106.797 23.2529 107.288 23.456 107.649 23.8177C108.011 24.1794 108.214 24.6699 108.214 25.1814V52.1814ZM89.9286 52.1814H80.2857V30.9671C80.2857 30.4557 80.4889 29.9651 80.8506 29.6034C81.2123 29.2418 81.7028 29.0386 82.2143 29.0386H88C88.5115 29.0386 89.002 29.2418 89.3637 29.6034C89.7254 29.9651 89.9286 30.4557 89.9286 30.9671V52.1814ZM71.6429 52.1814H62V36.7529C62 36.2414 62.2032 35.7508 62.5649 35.3892C62.9265 35.0275 63.4171 34.8243 63.9286 34.8243H69.7143C70.2258 34.8243 70.7163 35.0275 71.078 35.3892C71.4397 35.7508 71.6429 36.2414 71.6429 36.7529V52.1814Z" stroke="#407AEC" stroke-width="2" stroke-linecap="round" stroke-linejoin="round"/>
<path d="M11.3902 50.9582C11.3902 50.9582 11.3902 46.6162 11.3902 45.9214C11.3902 44.9662 3.26727 35.3267 3.26727 35.3267C3.26727 35.3267 2.74892 34.632 2.5761 34.1109C2.40328 33.5899 2.23037 32.775 2.23045 32.0267C2.23054 31.2785 2.00003 19.9268 2 18.711C1.99996 17.09 3.29568 16.0479 4.82279 16.0479C6.03255 16.0479 7.24237 17.2636 7.24237 18.1321C7.24237 19.0005 7.24237 29.0741 7.24237 29.2478C7.24237 30.2899 7.76061 30.9846 7.76061 30.9846L8.34734 31.6436M13.6368 37.5846L8.34734 31.6436M8.34734 31.6436C8.34734 31.6436 7.8184 29.8004 8.34734 28.7425C8.87629 27.6846 9.40523 27.4204 9.93418 27.1557C10.4631 26.891 11.8351 26.9408 12.5789 27.6846C13.1078 28.2136 22.6289 37.5846 22.6289 37.5846C22.6289 37.5846 23.6867 38.6272 23.6867 39.8504C23.6867 40.2735 23.6867 47.0793 23.6867 50.9582" stroke="#4E16ED" stroke-width="2" stroke-linecap="round"/>
<path d="M42.6098 50.9582C42.6098 50.9582 42.6098 46.6162 42.6098 45.9214C42.6098 44.9662 50.7327 35.3267 50.7327 35.3267C50.7327 35.3267 51.2511 34.632 51.4239 34.1109C51.5967 33.5899 51.7696 32.775 51.7695 32.0267C51.7695 31.2785 52 19.9268 52 18.711C52 17.09 50.7043 16.0479 49.1772 16.0479C47.9675 16.0479 46.7576 17.2636 46.7576 18.1321C46.7576 19.0005 46.7576 29.0741 46.7576 29.2478C46.7576 30.2899 46.2394 30.9846 46.2394 30.9846L45.6527 31.6436M40.3632 37.5846L45.6527 31.6436M45.6527 31.6436C45.6527 31.6436 46.1816 29.8004 45.6527 28.7425C45.1237 27.6846 44.5948 27.4204 44.0658 27.1557C43.5369 26.891 42.1649 26.9408 41.4211 27.6846C40.8922 28.2136 31.3711 37.5846 31.3711 37.5846C31.3711 37.5846 30.3133 38.6272 30.3133 39.8504C30.3133 40.2735 30.3133 47.0793 30.3133 50.9582" stroke="#4E16ED" stroke-width="2" stroke-linecap="round"/>
<path fill-rule="evenodd" clip-rule="evenodd" d="M17.4534 7.61446C17.4534 6.17053 18.6239 5 20.0679 5C21.5118 5 22.6823 6.17053 22.6823 7.61446C22.6823 9.04923 21.5266 10.2141 20.0953 10.2288L20.0732 10.2285L20.0322 10.2287C18.6047 10.2096 17.4534 9.04646 17.4534 7.61446ZM17.0292 11.0872C16.0633 10.2414 15.4534 8.99916 15.4534 7.61446C15.4534 5.06596 17.5194 3 20.0679 3C22.554 3 24.5809 4.96604 24.6786 7.42817C25.4224 6.91487 26.3243 6.61428 27.2964 6.61428C28.2748 6.61428 29.1821 6.91877 29.9286 7.43817C30.0213 4.97137 32.0503 3 34.5398 3C37.0883 3 39.1542 5.06596 39.1542 7.61446C39.1542 8.99916 38.5443 10.2414 37.5785 11.0872C39.2435 12.1111 40.3537 13.9498 40.3537 16.0478V19.6623C40.3537 20.2146 39.906 20.6623 39.3537 20.6623C38.8014 20.6623 38.3537 20.2146 38.3537 19.6623V16.0478C38.3537 13.9527 36.6668 12.2516 34.5771 12.2288L34.5398 12.2289C33.5614 12.2289 32.6541 11.9244 31.9076 11.405C31.8583 12.7166 31.2617 13.888 30.3395 14.6977C32.008 15.7208 33.121 17.5615 33.121 19.6621V22.0717C33.121 22.624 32.6733 23.0717 32.121 23.0717C31.5687 23.0717 31.121 22.624 31.121 22.0717V19.6621C31.121 17.5654 29.4314 15.8633 27.3395 15.843L27.2964 15.8432L27.2592 15.843C25.1695 15.8659 23.4825 17.567 23.4825 19.6621V22.0717C23.4825 22.624 23.0347 23.0717 22.4825 23.0717C21.9302 23.0717 21.4825 22.624 21.4825 22.0717V19.6621C21.4825 17.5641 22.5927 15.7254 24.2577 14.7015C23.3354 13.8938 22.7376 12.7246 22.6856 11.415C21.9418 11.9283 21.04 12.2289 20.0679 12.2289L20.0306 12.2288C17.9409 12.2516 16.2539 13.9527 16.2539 16.0478V19.6623C16.2539 20.2146 15.8062 20.6623 15.2539 20.6623C14.7016 20.6623 14.2539 20.2146 14.2539 19.6623V16.0478C14.2539 13.9498 15.3641 12.1111 17.0292 11.0872ZM37.1542 7.61446C37.1542 6.17053 35.9837 5 34.5398 5C33.0959 5 31.9253 6.17053 31.9253 7.61446C31.9253 9.04923 33.0811 10.2141 34.5123 10.2288L34.5345 10.2285L34.5755 10.2287C36.003 10.2096 37.1542 9.04646 37.1542 7.61446ZM27.2964 8.61428C25.8525 8.61428 24.682 9.78481 24.682 11.2287C24.682 12.6608 25.8333 13.8239 27.2608 13.843L27.3017 13.8428L27.3354 13.8429C28.7613 13.8221 29.9109 12.6597 29.9109 11.2287C29.9109 9.78481 28.7403 8.61428 27.2964 8.61428Z" fill="#4E16ED"/>
</svg>
