<?xml version="1.0" encoding="utf-8"?>
<!-- Generator: Adobe Illustrator 28.1.0, SVG Export Plug-In . SVG Version: 6.00 Build 0)  -->
<svg version="1.1" id="레이어_1" xmlns="http://www.w3.org/2000/svg" xmlns:xlink="http://www.w3.org/1999/xlink" x="0px"
	 y="0px" viewBox="0 0 82.3 40" style="enable-background:new 0 0 82.3 40;" xml:space="preserve">
<style type="text/css">
	.st0{fill:none;stroke:#4E16ED;}
	.st1{fill-rule:evenodd;clip-rule:evenodd;fill:#747474;}
	.st2{fill:none;stroke:#747474;}
	.st3{fill:#4E16ED;}
	.st4{fill:none;stroke:#4E16ED;stroke-linecap:round;}
	.st5{fill-rule:evenodd;clip-rule:evenodd;fill:#4E16ED;}
	.st6{fill:#747474;}
	.st7{fill:none;stroke:#747474;stroke-linecap:round;}
</style>
<path class="st0" d="M37,38.5H23c-0.3,0-0.5-0.2-0.5-0.5V24c0-0.3,0.2-0.5,0.5-0.5h11.9c0.1,0,0.2,0,0.3,0.1l2.1,1.9
	c0.1,0.1,0.2,0.2,0.2,0.4V38C37.5,38.3,37.3,38.5,37,38.5z"/>
<path class="st0" d="M33,38v-5c0-0.6-0.4-1-1-1h-4c-0.6,0-1,0.4-1,1v5"/>
<path class="st0" d="M33,24v2c0,0.6-0.4,1-1,1h-4c-0.6,0-1-0.4-1-1v-2"/>
<path class="st1" d="M0.5,18.3c-0.3,0-0.5-0.2-0.5-0.5V2.5C0,2.2,0.2,2,0.5,2h12.9c0.3,0,0.5,0.2,0.5,0.5v4.6h-1V3H1v14.3h11.9v-5.9
	h1v6.4c0,0.3-0.2,0.5-0.5,0.5H0.5z M3.4,8h5V7h-5V8z M10.4,10.9h-7v-1h7V10.9z M3.4,13.9h5v-1h-5V13.9z"/>
<path class="st1" d="M15.6,5.9L16.5,5l1.4,1.4L17,7.3L15.6,5.9z M14.9,6.6L9.4,12l-0.2,1.7l1.7-0.2L16.3,8L14.9,6.6z M15.8,4.3
	c0.4-0.4,1-0.4,1.4,0l1.4,1.4c0.4,0.4,0.4,1,0,1.4l-7.1,7.1c-0.2,0.2-0.3,0.3-0.6,0.3l-1.7,0.2c-0.7,0.1-1.2-0.5-1.1-1.1l0.2-1.7
	c0-0.2,0.1-0.4,0.3-0.6L15.8,4.3z"/>
<path class="st2" d="M37,18.5H23c-0.3,0-0.5-0.2-0.5-0.5V4c0-0.3,0.2-0.5,0.5-0.5h11.9c0.1,0,0.2,0,0.3,0.1l2.1,1.9
	c0.1,0.1,0.2,0.2,0.2,0.4V18C37.5,18.3,37.3,18.5,37,18.5z"/>
<path class="st2" d="M33,18v-5c0-0.6-0.4-1-1-1h-4c-0.6,0-1,0.4-1,1v5"/>
<path class="st2" d="M33,4v2c0,0.6-0.4,1-1,1h-4c-0.6,0-1-0.4-1-1V4"/>
<path class="st0" d="M45,25.5h10c0.3,0,0.5,0.2,0.5,0.5v12c0,0.3-0.2,0.5-0.5,0.5h-5h-5c-0.3,0-0.5-0.2-0.5-0.5V26
	C44.5,25.7,44.7,25.5,45,25.5z"/>
<path class="st3" d="M42,25.5c0-0.3,0.2-0.5,0.5-0.5h15c0.3,0,0.5,0.2,0.5,0.5l0,0c0,0.3-0.2,0.5-0.5,0.5h-15
	C42.2,26,42,25.8,42,25.5L42,25.5z"/>
<path class="st0" d="M53,25v-2c0-0.6-0.4-1-1-1h-4c-0.6,0-1,0.4-1,1v2"/>
<path class="st4" d="M48,29.5v6"/>
<path class="st4" d="M52,29.5v6"/>
<path class="st5" d="M0.5,38.3c-0.3,0-0.5-0.2-0.5-0.5V22.5C0,22.2,0.2,22,0.5,22h12.9c0.3,0,0.5,0.2,0.5,0.5v4.6h-1V23H1v14.3h11.9
	v-5.9h1v6.4c0,0.3-0.2,0.5-0.5,0.5H0.5z M3.4,28h5v-1h-5V28z M10.4,30.9h-7v-1h7V30.9z M3.4,33.9h5v-1h-5V33.9z"/>
<path class="st5" d="M15.6,25.9l0.9-0.9l1.4,1.4L17,27.3L15.6,25.9z M14.9,26.6L9.4,32l-0.2,1.7l1.7-0.2l5.4-5.4L14.9,26.6z
	 M15.8,24.3c0.4-0.4,1-0.4,1.4,0l1.4,1.4c0.4,0.4,0.4,1,0,1.4l-7.1,7.1c-0.2,0.2-0.3,0.3-0.6,0.3l-1.7,0.2c-0.7,0.1-1.2-0.5-1.1-1.1
	l0.2-1.7c0-0.2,0.1-0.4,0.3-0.6L15.8,24.3z"/>
<path class="st1" d="M62.5,18.3c-0.3,0-0.5-0.2-0.5-0.5V2.5C62,2.2,62.2,2,62.5,2h12.9c0.3,0,0.5,0.2,0.5,0.5v4.6h-1V3H63v14.3h11.9
	v-5.9h1v6.4c0,0.3-0.2,0.5-0.5,0.5H62.5z"/>
<path class="st1" d="M77.6,5.9L78.5,5l1.4,1.4L79,7.3L77.6,5.9z M76.9,6.6L71.4,12l-0.2,1.7l1.7-0.2L78.3,8L76.9,6.6z M77.8,4.3
	c0.4-0.4,1-0.4,1.4,0l1.4,1.4c0.4,0.4,0.4,1,0,1.4l-7.1,7.1c-0.2,0.2-0.3,0.3-0.6,0.3l-1.7,0.2c-0.7,0.1-1.2-0.5-1.1-1.1l0.2-1.7
	c0-0.2,0.1-0.4,0.3-0.6L77.8,4.3z"/>
<path class="st5" d="M62.5,38.3c-0.3,0-0.5-0.2-0.5-0.5V22.5c0-0.3,0.2-0.5,0.5-0.5h12.9c0.3,0,0.5,0.2,0.5,0.5v4.6h-1V23H63v14.3
	h11.9v-5.9h1v6.4c0,0.3-0.2,0.5-0.5,0.5H62.5z"/>
<path class="st5" d="M77.6,25.9l0.9-0.9l1.4,1.4L79,27.3L77.6,25.9z M76.9,26.6L71.4,32l-0.2,1.7l1.7-0.2l5.4-5.4L76.9,26.6z
	 M77.8,24.3c0.4-0.4,1-0.4,1.4,0l1.4,1.4c0.4,0.4,0.4,1,0,1.4l-7.1,7.1c-0.2,0.2-0.3,0.3-0.6,0.3l-1.7,0.2c-0.7,0.1-1.2-0.5-1.1-1.1
	l0.2-1.7c0-0.2,0.1-0.4,0.3-0.6L77.8,24.3z"/>
<path class="st2" d="M45,5.5h10c0.3,0,0.5,0.2,0.5,0.5v12c0,0.3-0.2,0.5-0.5,0.5h-5h-5c-0.3,0-0.5-0.2-0.5-0.5V6
	C44.5,5.7,44.7,5.5,45,5.5z"/>
<path class="st6" d="M42,5.5C42,5.2,42.2,5,42.5,5h15C57.8,5,58,5.2,58,5.5l0,0C58,5.8,57.8,6,57.5,6h-15C42.2,6,42,5.8,42,5.5
	L42,5.5z"/>
<path class="st2" d="M53,5V3c0-0.6-0.4-1-1-1h-4c-0.6,0-1,0.4-1,1v2"/>
<path class="st7" d="M48,9.5v6"/>
<path class="st7" d="M52,9.5v6"/>
<g>
	<rect x="67.3" y="4.4" transform="matrix(0.7071 -0.7071 0.7071 0.7071 14.294 50.2729)" class="st1" width="1" height="7"/>
	<rect x="64.3" y="7.4" transform="matrix(0.7071 -0.7071 0.7071 0.7071 14.294 50.2729)" class="st1" width="7" height="1"/>
</g>
<g>
	
		<rect x="67.3" y="24.5" transform="matrix(0.7071 -0.7071 0.7071 0.7071 6.848238e-02 56.1653)" class="st5" width="1" height="7"/>
	
		<rect x="64.3" y="27.5" transform="matrix(0.7071 -0.7071 0.7071 0.7071 6.848238e-02 56.1653)" class="st5" width="7" height="1"/>
</g>
</svg>
