<svg width="42" height="16" viewBox="0 0 42 16" fill="none" xmlns="http://www.w3.org/2000/svg">
<circle cx="34" cy="8" r="7.5" stroke="#407AEC"/>
<rect x="33.1113" y="3.55566" width="2" height="6" fill="#407AEC"/>
<path d="M33.1113 10.6665H35.1113V12.6665H33.1113V10.6665Z" fill="#407AEC"/>
<g clip-path="url(#clip0_664_73328)">
<path d="M1.58929 11.8036L0.803571 11.2321L1.92857 9.375L0 8.57143L0.303571 7.66072L2.33929 8.16072L2.51786 6H3.48214L3.66071 8.14286L5.69643 7.66072L6 8.57143L4.05357 9.375L5.19643 11.2321L4.41071 11.8036L3 10.1071L1.58929 11.8036Z" fill="#EE2A7B"/>
<path d="M16 15.5C20.1421 15.5 23.5 12.1421 23.5 8C23.5 3.85786 20.1421 0.5 16 0.5C11.8579 0.5 8.5 3.85786 8.5 8C8.5 12.1421 11.8579 15.5 16 15.5Z" stroke="#EE2A7B"/>
<path d="M17.1113 3.55566H15.1113V9.55566H17.1113V3.55566Z" fill="#EE2A7B"/>
<path d="M15.1113 10.6665H17.1113V12.6665H15.1113V10.6665Z" fill="#EE2A7B"/>
</g>
<defs>
<clipPath id="clip0_664_73328">
<rect width="24" height="16" fill="white"/>
</clipPath>
</defs>
</svg>
