<svg width="210" height="70" viewBox="0 0 210 70" fill="none" xmlns="http://www.w3.org/2000/svg">
<g clip-path="url(#clip0_879_113083)">
<path fill-rule="evenodd" clip-rule="evenodd" d="M143.536 23.668C143.536 23.208 143.799 22.7883 144.212 22.5868L174.826 7.66695C175.159 7.50489 175.547 7.50489 175.88 7.66693L206.493 22.5849C206.906 22.7864 207.169 23.2061 207.169 23.6661C207.169 24.1261 206.906 24.5458 206.493 24.7473L175.879 39.6672C175.546 39.8292 175.158 39.8292 174.825 39.6672L144.212 24.7492C143.799 24.5477 143.536 24.128 143.536 23.668ZM147.484 23.6679L175.352 37.248L203.221 23.6662L175.353 10.0861L147.484 23.6679Z" fill="white"/>
<path d="M159.566 30.8867C156.328 34.5041 154.36 39.2811 154.36 44.5179L174.805 54.1399L195.25 44.5179C195.25 39.2811 193.281 34.5041 190.044 30.8867" stroke="white" stroke-width="2"/>
<path d="M148.346 26.0742V49.5278" stroke="white" stroke-width="2"/>
<path d="M147.333 48.7227H149.36C151.569 48.7227 153.36 50.5135 153.36 52.7227V63.5611H143.333V52.7227C143.333 50.5135 145.124 48.7227 147.333 48.7227Z" stroke="white" stroke-width="2"/>
</g>
<mask id="path-5-inside-1_879_113083" fill="white">
<rect x="77" y="17.5" width="57.1667" height="43.1667" rx="1"/>
</mask>
<rect x="77" y="17.5" width="57.1667" height="43.1667" rx="1" stroke="white" stroke-width="4" mask="url(#path-5-inside-1_879_113083)"/>
<path d="M96.6665 10.332H113.333L113.333 18.832H96.6665V10.332Z" stroke="white" stroke-width="2"/>
<mask id="path-7-inside-2_879_113083" fill="white">
<rect x="98" y="35" width="14" height="11.6667" rx="1"/>
</mask>
<rect x="98" y="35" width="14" height="11.6667" rx="1" stroke="white" stroke-width="4" mask="url(#path-7-inside-2_879_113083)"/>
<path d="M110.833 40.832L133 40.832" stroke="white" stroke-width="2"/>
<path d="M77 40.832L99.1667 40.832" stroke="white" stroke-width="2"/>
<path d="M15.1665 26.832H29.1665" stroke="white" stroke-width="2" stroke-linecap="round"/>
<path d="M15.1665 36.1641H33.8332" stroke="white" stroke-width="2" stroke-linecap="round"/>
<path d="M15.1665 45.5H34.9998" stroke="white" stroke-width="2" stroke-linecap="round"/>
<path d="M51.3333 38.3396V19.2419C51.3333 18.9592 51.2137 18.6898 51.0041 18.5002L41.1514 9.59033C40.9675 9.42408 40.7285 9.33203 40.4806 9.33203H8C7.44772 9.33203 7 9.77975 7 10.332V57.332C7 57.8843 7.44771 58.332 8 58.332H50.3333C50.8856 58.332 51.3333 57.8843 51.3333 57.332V51.2525" stroke="white" stroke-width="2"/>
<path d="M40.8335 10.5V18.8333C40.8335 19.3856 41.2812 19.8333 41.8335 19.8333H50.1668" stroke="white" stroke-width="2"/>
<path d="M65.7726 53.9642L59.232 59.8132L41.9467 40.4845L40.9915 32.835L48.4872 34.6354L65.7726 53.9642Z" stroke="white" stroke-width="2"/>
<path d="M60.8009 48.5564L54.115 54.692" stroke="white" stroke-width="2"/>
<path d="M48.6852 35.2751L41.9993 41.4108" stroke="white" stroke-width="2"/>
<defs>
<clipPath id="clip0_879_113083">
<rect width="70" height="70" fill="white" transform="translate(140)"/>
</clipPath>
</defs>
</svg>
