<svg width="252" height="18" viewBox="0 0 252 18" fill="none" xmlns="http://www.w3.org/2000/svg">
<rect x="38.5" y="3.5" width="13" height="11" stroke="#407AEC"/>
<path fill-rule="evenodd" clip-rule="evenodd" d="M44.5 6C44.7761 6 45 5.77614 45 5.5C45 5.22386 44.7761 5 44.5 5C44.2239 5 44 5.22386 44 5.5C44 5.77614 44.2239 6 44.5 6ZM47 5.5C47 5.77614 46.7761 6 46.5 6C46.2239 6 46 5.77614 46 5.5C46 5.22386 46.2239 5 46.5 5C46.7761 5 47 5.22386 47 5.5ZM49 5.5C49 5.77614 48.7761 6 48.5 6C48.2239 6 48 5.77614 48 5.5C48 5.22386 48.2239 5 48.5 5C48.7761 5 49 5.22386 49 5.5Z" fill="#407AEC"/>
<path d="M39 7.5H51.5" stroke="#407AEC"/>
<path d="M92.5 4.5H105.5V14.5H92.5V4.5Z" stroke="#407AEC"/>
<path d="M93 5C93.4 5.4 97.1667 9.16667 99 11L105 5" stroke="#407AEC" stroke-linejoin="round"/>
<path d="M93 14C93.3084 13.6916 95.6181 11.3819 97.5 9.5M105 14L100.5 9.5" stroke="#407AEC" stroke-linejoin="round"/>
<path fill-rule="evenodd" clip-rule="evenodd" d="M77 4H75V13H77V4ZM74 3V14H78V3H74Z" fill="#407AEC"/>
<path d="M76.5 13.5H78.5V14.5C78.5 15.0523 78.0523 15.5 77.5 15.5C76.9477 15.5 76.5 15.0523 76.5 14.5V13.5Z" stroke="#407AEC"/>
<rect x="79.5" y="2.5" width="6" height="3" stroke="#407AEC"/>
<path fill-rule="evenodd" clip-rule="evenodd" d="M80 7H81V8H80V7ZM82 7H83V8H82V7ZM85 7H84V8H85V7ZM80 9H81V10H80V9ZM82 9H83V10H82V9ZM85 9H84V10H85V9Z" fill="#407AEC"/>
<path fill-rule="evenodd" clip-rule="evenodd" d="M81 11H80V12H81V11ZM83 11H82V12H83V11ZM84 11H85V12H84V11Z" fill="#407AEC"/>
<path fill-rule="evenodd" clip-rule="evenodd" d="M77 4H78H79V5L78 5V13H87V5H86V4H87H88V5V13V14L77 14V13V5V4Z" fill="#407AEC"/>
<path d="M58.9782 1.42735L60.0893 1.09271C60.595 0.940129 61.139 0.976811 61.6197 1.19591C62.1004 1.41501 62.4849 1.80154 62.7015 2.28337L63.3928 3.82138C63.5791 4.23571 63.631 4.69797 63.5412 5.14329C63.4515 5.58861 63.2245 5.99465 62.8922 6.30442L61.6842 7.43083C61.6692 7.44477 61.657 7.46133 61.648 7.47968C61.5215 7.73803 61.7136 8.42806 62.3153 9.4708C62.9939 10.6461 63.518 11.1106 63.7609 11.0389L65.3465 10.5537C65.7807 10.4211 66.2455 10.4277 66.6758 10.5726C67.1061 10.7174 67.4803 10.9933 67.7459 11.3615L68.7284 12.7222C69.0368 13.1494 69.1797 13.6741 69.1305 14.1987C69.0812 14.7234 68.8432 15.2123 68.4607 15.5747L67.6154 16.3745C67.3214 16.6529 66.9645 16.8561 66.575 16.9667C66.1855 17.0773 65.775 17.092 65.3786 17.0096C63.0247 16.5197 60.9158 14.6243 59.0338 11.3649C57.1511 8.10346 56.5641 5.32593 57.3204 3.04166C57.447 2.65924 57.6638 2.3129 57.9525 2.03193C58.2412 1.75095 58.5925 1.54358 58.9782 1.42735ZM59.2687 2.38844C59.0373 2.45815 58.826 2.58254 58.6528 2.7511C58.4796 2.91967 58.3495 3.12745 58.2735 3.3569C57.6216 5.32526 58.1497 7.8257 59.9032 10.8629C61.6554 13.8981 63.5548 15.6048 65.5827 16.0264C65.8207 16.0759 66.0671 16.0671 66.3009 16.0006C66.5347 15.9342 66.7489 15.8122 66.9253 15.6449L67.77 14.8458C67.976 14.6507 68.1043 14.3875 68.1309 14.105C68.1575 13.8225 68.0806 13.5399 67.9145 13.3098L66.932 11.9485C66.789 11.7503 66.5876 11.6017 66.356 11.5237C66.1243 11.4457 65.8741 11.4421 65.6403 11.5135L64.0507 12C63.1713 12.2617 62.3441 11.5289 61.4459 9.9721C60.6849 8.65495 60.4212 7.70323 60.7465 7.03863C60.8094 6.91012 60.8951 6.79434 60.9995 6.69662L62.2075 5.57022C62.3865 5.40342 62.5088 5.18476 62.5572 4.94492C62.6055 4.70509 62.5776 4.45613 62.4773 4.23299L61.7859 2.69564C61.6693 2.43614 61.4622 2.22795 61.2033 2.10996C60.9444 1.99197 60.6514 1.97224 60.3791 2.05447L59.268 2.38911L59.2687 2.38844Z" fill="#407AEC"/>
<path fill-rule="evenodd" clip-rule="evenodd" d="M27 17.04L27.631 16.329C28.347 15.509 28.991 14.731 29.564 13.991L30.037 13.367C32.012 10.706 33 8.594 33 7.033C33 3.701 30.314 1 27 1C23.686 1 21 3.701 21 7.033C21 8.594 21.988 10.706 23.963 13.367L24.436 13.991C25.2534 15.0384 26.1087 16.0547 27 17.04Z" stroke="#407AEC" stroke-linecap="round" stroke-linejoin="round"/>
<path d="M27 9.49988C28.3807 9.49988 29.5 8.38059 29.5 6.99988C29.5 5.61917 28.3807 4.49988 27 4.49988C25.6193 4.49988 24.5 5.61917 24.5 6.99988C24.5 8.38059 25.6193 9.49988 27 9.49988Z" stroke="#407AEC" stroke-linecap="round" stroke-linejoin="round"/>
<rect x="7" y="5" width="1" height="1" fill="#4E16ED"/>
<rect x="9" y="5" width="1" height="1" fill="#4E16ED"/>
<rect x="11" y="5" width="1" height="1" fill="#4E16ED"/>
<rect x="11" y="7" width="1" height="1" fill="#4E16ED"/>
<rect x="7" y="7" width="1" height="1" fill="#4E16ED"/>
<rect x="9" y="7" width="1" height="1" fill="#4E16ED"/>
<rect x="11" y="9" width="1" height="1" fill="#4E16ED"/>
<rect x="7" y="9" width="1" height="1" fill="#4E16ED"/>
<rect x="9" y="9" width="1" height="1" fill="#4E16ED"/>
<rect x="4.5" y="2.5" width="10" height="13" stroke="#4E16ED"/>
<rect x="8.5" y="12.5" width="2" height="3" stroke="#4E16ED"/>
<path d="M159.96 8.47767C159.939 8.43158 159.445 7.3355 158.347 6.23708C156.883 4.7735 155.035 4 153 4C150.965 4 149.117 4.7735 147.653 6.23708C146.555 7.3355 146.058 8.43333 146.04 8.47767C146.014 8.53735 146 8.60193 146 8.66725C146 8.73256 146.014 8.79715 146.04 8.85683C146.061 8.90292 146.555 9.99842 147.653 11.0968C149.117 12.5598 150.965 13.3333 153 13.3333C155.035 13.3333 156.883 12.5598 158.347 11.0968C159.445 9.99842 159.939 8.90292 159.96 8.85683C159.986 8.79715 160 8.73256 160 8.66725C160 8.60193 159.986 8.53735 159.96 8.47767ZM153 12.4C151.204 12.4 149.636 11.7472 148.337 10.4604C147.805 9.93057 147.351 9.32639 146.992 8.66667C147.351 8.00688 147.805 7.40269 148.337 6.87292C149.636 5.58608 151.204 4.93333 153 4.93333C154.796 4.93333 156.364 5.58608 157.663 6.87292C158.196 7.40256 158.651 8.00675 159.011 8.66667C158.591 9.45183 156.758 12.4 153 12.4ZM153 5.86667C152.446 5.86667 151.905 6.03088 151.444 6.33855C150.984 6.64622 150.625 7.08352 150.413 7.59515C150.201 8.10679 150.146 8.66977 150.254 9.21292C150.362 9.75607 150.629 10.255 151.02 10.6466C151.412 11.0382 151.911 11.3048 152.454 11.4129C152.997 11.5209 153.56 11.4655 154.072 11.2535C154.583 11.0416 155.02 10.6827 155.328 10.2223C155.636 9.76181 155.8 9.22045 155.8 8.66667C155.799 7.9243 155.504 7.21255 154.979 6.68762C154.454 6.16269 153.742 5.86744 153 5.86667ZM153 10.5333C152.631 10.5333 152.27 10.4239 151.963 10.2187C151.656 10.0136 151.417 9.7221 151.275 9.38101C151.134 9.03992 151.097 8.6646 151.169 8.3025C151.241 7.9404 151.419 7.60779 151.68 7.34673C151.941 7.08568 152.274 6.90789 152.636 6.83587C152.998 6.76384 153.373 6.80081 153.714 6.94209C154.055 7.08337 154.347 7.32263 154.552 7.6296C154.757 7.93657 154.867 8.29747 154.867 8.66667C154.867 9.16174 154.67 9.63653 154.32 9.9866C153.97 10.3367 153.495 10.5333 153 10.5333Z" fill="#407AEC"/>
<path fill-rule="evenodd" clip-rule="evenodd" d="M109.5 3.5H121.5V7.5H120.5V4.5H110.5V12.5H115.5V13.5H109.5V3.5Z" fill="#407AEC"/>
<path fill-rule="evenodd" clip-rule="evenodd" d="M121.5 6.5H110V5.5H121.5V6.5Z" fill="#407AEC"/>
<path d="M112 2H113V4H112V2Z" fill="#407AEC"/>
<path d="M118 2H119V4H118V2Z" fill="#407AEC"/>
<path d="M112 8H113V9H112V8Z" fill="#407AEC"/>
<path d="M114 8H115V9H114V8Z" fill="#407AEC"/>
<path d="M112 10H113V11H112V10Z" fill="#407AEC"/>
<path d="M116 8H117V9H116V8Z" fill="#407AEC"/>
<path d="M122.621 7.96443L124.035 9.37864L118.557 14.857L116.907 15.0927L117.143 13.4428L122.621 7.96443Z" stroke="#407AEC"/>
<circle cx="169" cy="5" r="2.5" stroke="#407AEC"/>
<path d="M176.621 8.96443L178.035 10.3786L173.557 14.857L171.907 15.0927L172.143 13.4428L176.621 8.96443Z" stroke="#407AEC"/>
<path fill-rule="evenodd" clip-rule="evenodd" d="M171.794 9.13742C171.073 8.43366 170.087 8 169 8C166.791 8 165 9.79086 165 12V14H169V15H164V12C164 9.23858 166.239 7 169 7C170.435 7 171.729 7.60455 172.641 8.57286L171.794 9.13742Z" fill="#407AEC"/>
<path d="M184.245 8.05591C184.2 8.10165 184.147 8.13798 184.088 8.16278C184.029 8.18759 183.965 8.20036 183.901 8.20036C183.837 8.20036 183.774 8.18759 183.714 8.16278C183.655 8.13798 183.602 8.10165 183.557 8.05591C183.466 7.96297 183.414 7.83787 183.414 7.70756C183.414 7.57724 183.466 7.45214 183.557 7.35921L187.814 3.05897C188.774 2.31356 189.74 1.95567 190.701 2.00438C191.912 2.0665 192.856 2.52814 193.656 3.28556C194.472 4.05779 195 5.15968 195 6.4952C195 7.52015 194.702 8.42226 194.073 9.22274L188.071 15.4063C187.464 15.9039 186.789 16.1446 186.066 16.1157C185.149 16.0776 184.466 15.7811 183.959 15.2792C183.364 14.6926 183 13.9719 183 13.0027C183 12.2319 183.266 11.5204 183.815 10.8526L189.098 5.45897C189.522 5.0072 189.936 4.73897 190.36 4.67403C190.642 4.6295 190.931 4.65479 191.202 4.74768C191.473 4.84057 191.717 4.99825 191.912 5.20697C192.288 5.60438 192.449 6.09991 192.392 6.66391C192.354 7.04862 192.196 7.40297 191.907 7.7425L187.05 12.7176C187.006 12.7635 186.952 12.8 186.894 12.8251C186.835 12.8502 186.771 12.8634 186.707 12.8638C186.643 12.8642 186.58 12.8518 186.521 12.8274C186.462 12.8031 186.408 12.7672 186.363 12.7218C186.271 12.6294 186.219 12.5046 186.218 12.3743C186.217 12.244 186.268 12.1186 186.359 12.0251L191.192 7.07544C191.333 6.90956 191.407 6.74226 191.425 6.56438C191.453 6.28203 191.385 6.07379 191.209 5.88815C191.121 5.79307 191.01 5.7214 190.887 5.67953C190.763 5.63766 190.632 5.62688 190.504 5.64815C190.332 5.67426 190.092 5.83026 189.796 6.14509L184.535 11.5147C184.156 11.9771 183.973 12.4677 183.973 13.0034C183.973 13.6769 184.216 14.159 184.638 14.5747C184.973 14.9065 185.428 15.1041 186.106 15.1324C186.586 15.1514 187.031 14.9926 187.417 14.6792L193.345 8.57332C193.8 7.98956 194.027 7.30273 194.027 6.49591C194.027 5.44979 193.62 4.60132 192.991 4.00556C192.349 3.39709 191.615 3.0385 190.652 2.98909C189.941 2.95238 189.195 3.22909 188.452 3.79803L184.245 8.05591Z" fill="#407AEC"/>
<path d="M210.5 4.5C210.5 6.15685 209.157 7.5 207.5 7.5C205.843 7.5 204.5 6.15685 204.5 4.5C204.5 2.84315 205.843 1.5 207.5 1.5C209.157 1.5 210.5 2.84315 210.5 4.5Z" stroke="#407AEC"/>
<path d="M207 10H208V11H207V10Z" fill="#407AEC"/>
<path d="M207 12H208V16H207V12Z" fill="#407AEC"/>
<path d="M213 17V12C213 9.79086 211.209 8 209 8H206C203.791 8 202 9.79086 202 12V17" stroke="#407AEC"/>
<path fill-rule="evenodd" clip-rule="evenodd" d="M140.5 7.5H129V6.5H140.5V7.5Z" fill="#EE2A7B"/>
<path d="M131.5 3H132.5V5H131.5V3Z" fill="#EE2A7B"/>
<path d="M137.5 3H138.5V5H137.5V3Z" fill="#EE2A7B"/>
<rect x="131.5" y="9" width="1" height="1" fill="#EE2A7B"/>
<rect x="133.5" y="9" width="1" height="1" fill="#EE2A7B"/>
<rect x="135.5" y="9" width="1" height="1" fill="#EE2A7B"/>
<rect x="131.5" y="11" width="1" height="1" fill="#EE2A7B"/>
<path fill-rule="evenodd" clip-rule="evenodd" d="M141 4.5H129V14.5H135.468C135.312 14.1857 135.191 13.8506 135.112 13.5H130V5.5H140V8.02746C140.347 8.06579 140.682 8.14352 141 8.25606V4.5Z" fill="#EE2A7B"/>
<circle cx="139.5" cy="12.5" r="3" stroke="#EE2A7B"/>
<path d="M139.5 11V13H141" stroke="#EE2A7B"/>
<path fill-rule="evenodd" clip-rule="evenodd" d="M230.97 14.964C230.97 14.7956 230.903 14.6341 230.784 14.5151C230.665 14.396 230.504 14.329 230.335 14.3289H219.728C219.56 14.329 219.399 14.396 219.28 14.5151C219.161 14.6341 219.094 14.7956 219.094 14.964V15.7718C219.094 15.8552 219.11 15.9378 219.142 16.0148C219.174 16.0919 219.221 16.1619 219.28 16.2208C219.338 16.2798 219.408 16.3265 219.485 16.3584C219.563 16.3903 219.645 16.4067 219.728 16.4067H230.335C230.419 16.4068 230.501 16.3904 230.578 16.3585C230.655 16.3266 230.725 16.2798 230.784 16.2209C230.843 16.1619 230.89 16.0919 230.922 16.0149C230.954 15.9378 230.97 15.8552 230.97 15.7718V14.964ZM219.735 6.28948L219.731 6.28593C219.609 6.17908 219.451 6.12038 219.289 6.11981C219.111 6.11998 218.94 6.18981 218.813 6.31435C218.686 6.43888 218.612 6.60824 218.608 6.78618H218.592L219.751 12.8881H219.773C219.805 13.2343 220.093 13.5069 220.448 13.5069C220.451 13.5069 220.453 13.5062 220.456 13.506L229.608 13.5069V13.491C229.61 13.491 229.613 13.4918 229.615 13.4918C229.965 13.4918 230.25 13.2272 230.289 12.8881H230.297L231.456 6.91286C231.477 6.81355 231.476 6.7108 231.452 6.61209C231.429 6.51339 231.383 6.42122 231.319 6.34233C231.255 6.26343 231.175 6.19979 231.083 6.15606C230.991 6.11233 230.891 6.0896 230.79 6.08954C230.628 6.08954 230.481 6.1484 230.364 6.24252L230.362 6.24064L230.343 6.25963C230.32 6.2798 230.298 6.30156 230.278 6.32475L228.842 7.76079L225.534 4.45252L225.527 4.45899C225.464 4.39103 225.387 4.33683 225.302 4.29974C225.217 4.26266 225.125 4.24348 225.032 4.24341C224.939 4.2435 224.847 4.26276 224.761 4.29999C224.676 4.33723 224.599 4.39163 224.536 4.45983L224.529 4.45252L221.213 7.76768L219.801 6.35543C219.78 6.33205 219.758 6.31003 219.735 6.28948ZM229.826 8.04128V8.06111H229.806L229.826 8.04128Z" fill="#C7CEE3"/>
<path d="M219.261 5.19145C219.957 5.19145 220.522 4.62691 220.522 3.93051C220.522 3.2341 219.957 2.66956 219.261 2.66956C218.565 2.66956 218 3.2341 218 3.93051C218 4.62691 218.565 5.19145 219.261 5.19145Z" fill="#C7CEE3"/>
<path d="M230.739 5.19145C231.436 5.19145 232 4.62691 232 3.93051C232 3.2341 231.436 2.66956 230.739 2.66956C230.043 2.66956 229.479 3.2341 229.479 3.93051C229.479 4.62691 230.043 5.19145 230.739 5.19145Z" fill="#C7CEE3"/>
<path d="M225.105 3.5219C225.801 3.5219 226.366 2.95735 226.366 2.26095C226.366 1.56455 225.801 1 225.105 1C224.408 1 223.844 1.56455 223.844 2.26095C223.844 2.95735 224.408 3.5219 225.105 3.5219Z" fill="#C7CEE3"/>
<path fill-rule="evenodd" clip-rule="evenodd" d="M248.97 14.964C248.97 14.7956 248.903 14.6341 248.784 14.5151C248.665 14.396 248.504 14.329 248.335 14.3289H237.728C237.56 14.329 237.399 14.396 237.28 14.5151C237.161 14.6341 237.094 14.7956 237.094 14.964V15.7718C237.094 15.8552 237.11 15.9378 237.142 16.0148C237.174 16.0919 237.221 16.1619 237.28 16.2208C237.338 16.2798 237.408 16.3265 237.485 16.3584C237.563 16.3903 237.645 16.4067 237.728 16.4067H248.335C248.419 16.4068 248.501 16.3904 248.578 16.3585C248.655 16.3266 248.725 16.2798 248.784 16.2209C248.843 16.1619 248.89 16.0919 248.922 16.0149C248.954 15.9378 248.97 15.8552 248.97 15.7718V14.964ZM237.735 6.28948L237.731 6.28593C237.609 6.17908 237.451 6.12038 237.289 6.11981C237.111 6.11998 236.94 6.18981 236.813 6.31435C236.686 6.43888 236.612 6.60824 236.608 6.78618H236.592L237.751 12.8881H237.773C237.805 13.2343 238.093 13.5069 238.448 13.5069C238.451 13.5069 238.453 13.5062 238.456 13.506L247.608 13.5069V13.491C247.61 13.491 247.613 13.4918 247.615 13.4918C247.965 13.4918 248.25 13.2272 248.289 12.8881H248.297L249.456 6.91286C249.477 6.81355 249.476 6.7108 249.452 6.61209C249.429 6.51339 249.383 6.42122 249.319 6.34233C249.255 6.26343 249.175 6.19979 249.083 6.15606C248.991 6.11233 248.891 6.0896 248.79 6.08954C248.628 6.08954 248.481 6.1484 248.364 6.24252L248.362 6.24064L248.343 6.25963C248.32 6.2798 248.298 6.30156 248.278 6.32475L246.842 7.76079L243.534 4.45252L243.527 4.45899C243.464 4.39103 243.387 4.33683 243.302 4.29974C243.217 4.26266 243.125 4.24348 243.032 4.24341C242.939 4.2435 242.847 4.26276 242.761 4.29999C242.676 4.33723 242.599 4.39163 242.536 4.45983L242.529 4.45252L239.213 7.76768L237.801 6.35543C237.78 6.33205 237.758 6.31003 237.735 6.28948ZM247.826 8.04128V8.06111H247.806L247.826 8.04128Z" fill="#FFA945"/>
<path d="M237.261 5.19145C237.957 5.19145 238.522 4.62691 238.522 3.93051C238.522 3.2341 237.957 2.66956 237.261 2.66956C236.565 2.66956 236 3.2341 236 3.93051C236 4.62691 236.565 5.19145 237.261 5.19145Z" fill="#FFA945"/>
<path d="M248.739 5.19145C249.436 5.19145 250 4.62691 250 3.93051C250 3.2341 249.436 2.66956 248.739 2.66956C248.043 2.66956 247.479 3.2341 247.479 3.93051C247.479 4.62691 248.043 5.19145 248.739 5.19145Z" fill="#FFA945"/>
<path d="M243.105 3.5219C243.801 3.5219 244.366 2.95735 244.366 2.26095C244.366 1.56455 243.801 1 243.105 1C242.408 1 241.844 1.56455 241.844 2.26095C241.844 2.95735 242.408 3.5219 243.105 3.5219Z" fill="#FFA945"/>
</svg>
