<svg width="232" height="116" viewBox="0 0 232 116" fill="none" xmlns="http://www.w3.org/2000/svg">
<path fill-rule="evenodd" clip-rule="evenodd" d="M87.15 72.3946C87.3666 72.2695 87.6334 72.2695 87.85 72.3946L96.872 77.6034C97.3094 77.2278 97.8782 77.0008 98.5 77.0008C99.8807 77.0008 101 78.1201 101 79.5008C101 80.4466 100.475 81.2698 99.7 81.6945V92.9194C99.7 93.1695 99.5666 93.4005 99.35 93.5256L89.9602 98.9468C89.7495 100.114 88.7282 101 87.5 101C86.2718 101 85.2505 100.114 85.0398 98.9468L75.65 93.5256C75.4334 93.4005 75.3 93.1695 75.3 92.9194V81.9929C74.0128 81.891 73 80.8142 73 79.5008C73 78.1201 74.1193 77.0008 75.5 77.0008C76.307 77.0008 77.0246 77.3831 77.4817 77.9765L87.15 72.3946ZM85.2341 97.4424C85.6325 96.5903 86.4973 96 87.5 96C88.5027 96 89.3675 96.5903 89.7659 97.4424L98.3 92.5152V81.9929C97.0128 81.891 96 80.8142 96 79.5008C96 79.2494 96.0371 79.0067 96.1061 78.7778L87.5 73.8091L77.9919 79.2986C77.9973 79.3653 78 79.4327 78 79.5008C78 80.4466 77.4747 81.2698 76.7 81.6945V92.5152L85.2341 97.4424ZM98.5 80.6008C99.1075 80.6008 99.6 80.1083 99.6 79.5008C99.6 78.8933 99.1075 78.4008 98.5 78.4008C97.8925 78.4008 97.4 78.8933 97.4 79.5008C97.4 80.1083 97.8925 80.6008 98.5 80.6008ZM76.6 79.5008C76.6 80.1083 76.1075 80.6008 75.5 80.6008C74.8925 80.6008 74.4 80.1083 74.4 79.5008C74.4 78.8933 74.8925 78.4008 75.5 78.4008C76.1075 78.4008 76.6 78.8933 76.6 79.5008ZM88.1123 79.4018C87.8896 79.2671 87.6105 79.2671 87.3877 79.4018L82.5416 82.3331C82.4011 82.3756 82.2794 82.4611 82.1915 82.5742C82.0745 82.6979 82.005 82.8618 82.0003 83.0362C81.9977 83.1281 82.0133 83.2181 82.0448 83.3017V89.4112C82.0448 89.6437 82.1603 89.8611 82.353 89.9913L87.1404 93.224C87.3345 93.4824 87.6733 93.5685 87.9601 93.4536C87.9987 93.4411 88.0366 93.4251 88.0732 93.4057C88.1468 93.3666 88.2115 93.3155 88.2654 93.2555L93.1176 89.649C93.2953 89.5169 93.4 89.3086 93.4 89.0872V83.4159C93.4678 83.3031 93.5035 83.1718 93.4997 83.0362C93.4932 82.7981 93.3661 82.5796 93.1623 82.4564L88.1123 79.4018ZM92 84.4486L88.4448 86.8742V91.3778L92 88.7353V84.4486ZM87.0448 86.867L83.4448 84.4109V89.0392L87.0448 91.4702V86.867ZM87.75 85.6534L83.994 83.0908L87.75 80.8189L91.506 83.0908L87.75 85.6534ZM88.6 98.5C88.6 99.1075 88.1075 99.6 87.5 99.6C86.8925 99.6 86.4 99.1075 86.4 98.5C86.4 97.8925 86.8925 97.4 87.5 97.4C88.1075 97.4 88.6 97.8925 88.6 98.5Z" fill="#064FE0"/>
<path fill-rule="evenodd" clip-rule="evenodd" d="M28.7666 76.908H28.7695L28.7695 81.1512C28.7695 81.3972 28.6404 81.6251 28.4294 81.7516L22.2447 85.4581C22.0232 85.5909 21.7466 85.5909 21.525 85.4581L15.3404 81.7516C15.1294 81.6252 15.0003 81.3972 15.0002 81.1512L15.0001 76.9834C15 76.974 15 76.9646 15.0001 76.9551L15.0001 76.9076H15.0027C15.0235 76.6721 15.1621 76.4617 15.3729 76.3503L21.5575 73.0811C21.7622 72.973 22.0071 72.973 22.2118 73.0811L28.3964 76.3503C28.6072 76.4618 28.746 76.6723 28.7666 76.908ZM22.2445 81.2761L27.3695 78.2046L27.3695 80.7546L21.8849 84.0416L16.4002 80.7546L16.4002 78.2049L21.5248 81.2761C21.7463 81.4088 22.0229 81.4088 22.2445 81.2761ZM17.1255 77.0074L21.8846 74.4918L26.6437 77.0074L21.8846 79.8596L17.1255 77.0074ZM43.9741 81.9598H43.9771L43.9771 86.2753C43.9771 86.5213 43.8479 86.7492 43.6369 86.8757L37.3469 90.6453C37.1254 90.7781 36.8488 90.7781 36.6272 90.6453L30.3372 86.8757C30.1262 86.7492 29.9971 86.5213 29.9971 86.2753L29.997 82.0352L29.9968 82.0246L29.997 82.0068L29.997 81.9594H29.9995C30.0203 81.7239 30.159 81.5135 30.3697 81.4021L36.6597 78.0772C36.8644 77.969 37.1093 77.969 37.3139 78.0772L43.6039 81.4021C43.8148 81.5136 43.9535 81.7241 43.9741 81.9598ZM37.3467 86.391L42.5771 83.2564L42.5771 85.8787L36.9871 89.2288L31.3971 85.8787L31.397 83.2567L36.627 86.391C36.8485 86.5238 37.1251 86.5238 37.3467 86.391ZM32.1224 82.0592L36.9868 79.4879L41.8513 82.0592L36.9868 84.9745L32.1224 82.0592ZM33.9771 92.9598H33.9741C33.9535 92.7241 33.8148 92.5136 33.6039 92.4021L27.3139 89.0772C27.1093 88.969 26.8644 88.969 26.6597 89.0772L20.3697 92.4021C20.159 92.5135 20.0203 92.7239 19.9995 92.9594H19.997L19.997 93.0068C19.9968 93.0163 19.9968 93.0258 19.997 93.0352L19.9971 97.2753C19.9971 97.5213 20.1262 97.7492 20.3372 97.8757L26.6272 101.645C26.8488 101.778 27.1254 101.778 27.3469 101.645L33.6369 97.8757C33.8479 97.7492 33.9771 97.5213 33.9771 97.2753L33.9771 92.9598ZM32.5771 94.2564L27.3467 97.391C27.1251 97.5238 26.8485 97.5238 26.627 97.391L21.397 94.2567L21.3971 96.8787L26.9871 100.229L32.5771 96.8787L32.5771 94.2564ZM26.9868 90.4879L22.1224 93.0592L26.9868 95.9745L31.8513 93.0592L26.9868 90.4879Z" fill="#064FE0"/>
<path fill-rule="evenodd" clip-rule="evenodd" d="M189.301 17.0008C189.301 16.0619 190.062 15.3008 191.001 15.3008H210.001C210.94 15.3008 211.701 16.0619 211.701 17.0008V30.5008C211.701 30.8874 211.387 31.2008 211.001 31.2008C210.614 31.2008 210.301 30.8874 210.301 30.5008V17.0008C210.301 16.8351 210.166 16.7008 210.001 16.7008H191.001C190.835 16.7008 190.701 16.8351 190.701 17.0008V41.0008C190.701 41.1665 190.835 41.3008 191.001 41.3008H210.001C210.166 41.3008 210.301 41.1665 210.301 41.0008V37.7508C210.301 37.3642 210.614 37.0508 211.001 37.0508C211.387 37.0508 211.701 37.3642 211.701 37.7508V41.0008C211.701 41.9397 210.94 42.7008 210.001 42.7008H191.001C190.062 42.7008 189.301 41.9397 189.301 41.0008V17.0008ZM193.801 33.5008C193.801 33.1142 194.114 32.8008 194.501 32.8008H204.501C204.887 32.8008 205.201 33.1142 205.201 33.5008C205.201 33.8874 204.887 34.2008 204.501 34.2008H194.501C194.114 34.2008 193.801 33.8874 193.801 33.5008ZM194.501 36.8008C194.114 36.8008 193.801 37.1142 193.801 37.5008C193.801 37.8874 194.114 38.2008 194.501 38.2008H201.501C201.887 38.2008 202.201 37.8874 202.201 37.5008C202.201 37.1142 201.887 36.8008 201.501 36.8008H194.501ZM217.472 28.4828C217.758 28.7429 217.779 29.1856 217.519 29.4717L211.61 35.9717C211.482 36.1123 211.302 36.1949 211.112 36.2005C210.922 36.2061 210.738 36.1342 210.602 36.0013L206.511 32.0013C206.235 31.731 206.23 31.2878 206.5 31.0114C206.771 30.735 207.214 30.73 207.49 31.0003L211.062 34.4928L216.483 28.5299C216.743 28.2438 217.186 28.2228 217.472 28.4828ZM200.582 19.4678C200.325 19.2487 199.948 19.2447 199.686 19.4584L195.345 23.0008H195.301V23.0366L193.558 24.4584C193.259 24.7028 193.214 25.1438 193.458 25.4433C193.703 25.7429 194.144 25.7875 194.443 25.5431L195.301 24.8435V29.0008C195.301 29.3874 195.614 29.7008 196.001 29.7008H204.001C204.387 29.7008 204.701 29.3874 204.701 29.0008V24.8133L205.547 25.5338C205.841 25.7844 206.283 25.7489 206.534 25.4546C206.784 25.1602 206.749 24.7184 206.455 24.4678L200.582 19.4678ZM196.701 28.3008V23.7011L200.119 20.912L203.301 23.6212V28.3008H200.955C200.985 28.2061 201.001 28.1053 201.001 28.0008V26.0008C201.001 25.4485 200.553 25.0008 200.001 25.0008C199.448 25.0008 199.001 25.4485 199.001 26.0008V28.0008C199.001 28.1053 199.017 28.2061 199.047 28.3008H196.701Z" fill="#4E16ED"/>
<path fill-rule="evenodd" clip-rule="evenodd" d="M135.883 15.8785C136.255 15.5061 136.76 15.2969 137.287 15.2969H152.715C153.242 15.2969 153.747 15.5061 154.119 15.8785C154.492 16.2509 154.701 16.7559 154.701 17.2826V24.3H156.556C157.784 24.3 158.701 25.3506 158.701 26.5455V40.4545C158.701 41.6494 157.784 42.7 156.556 42.7H153.596C153.583 42.7007 153.57 42.7011 153.556 42.7011H141.89C141.877 42.7011 141.863 42.7007 141.85 42.7H133.445C132.217 42.7 131.301 41.6494 131.301 40.4545V26.5455C131.301 25.3506 132.217 24.3 133.445 24.3H135.301V17.2826C135.301 16.7559 135.51 16.2509 135.883 15.8785ZM152.856 41.3H142.59V36.4789H152.856V41.3ZM154.256 41.3V35.7789C154.256 35.3923 153.943 35.0789 153.556 35.0789H141.89C141.503 35.0789 141.19 35.3923 141.19 35.7789V41.3H133.445C133.078 41.3 132.701 40.9668 132.701 40.4545V26.5455C132.701 26.0332 133.078 25.7 133.445 25.7H156.556C156.924 25.7 157.301 26.0332 157.301 26.5455V40.4545C157.301 40.9668 156.924 41.3 156.556 41.3H154.256ZM153.301 17.2826V24.3H136.701V17.2826C136.701 17.1272 136.763 16.9783 136.873 16.8684C136.982 16.7586 137.131 16.6969 137.287 16.6969H152.715C152.871 16.6969 153.02 16.7586 153.129 16.8684C153.239 16.9783 153.301 17.1272 153.301 17.2826ZM135.668 28.8566C135.281 28.8566 134.968 29.17 134.968 29.5566C134.968 29.9432 135.281 30.2566 135.668 30.2566H138.001C138.387 30.2566 138.701 29.9432 138.701 29.5566C138.701 29.17 138.387 28.8566 138.001 28.8566H135.668Z" fill="#4E16ED"/>
<path fill-rule="evenodd" clip-rule="evenodd" d="M73.234 22.2274C77.032 18.8392 81.9437 16.9668 87.0333 16.9668C92.1229 16.9668 97.0347 18.8392 100.833 22.2274C101.121 22.4847 101.146 22.9272 100.889 23.2157C100.632 23.5042 100.189 23.5294 99.9007 23.2721C96.3592 20.1128 91.7792 18.3668 87.0333 18.3668C82.2875 18.3668 77.7075 20.1128 74.166 23.2721C73.8775 23.5294 73.435 23.5042 73.1776 23.2157C72.9203 22.9272 72.9455 22.4847 73.234 22.2274ZM76.9952 26.9313C79.7177 24.3856 83.3057 22.9694 87.033 22.9694C90.7603 22.9694 94.3484 24.3856 97.0709 26.9313C97.3533 27.1954 97.3681 27.6384 97.1041 27.9207C96.84 28.2031 96.3971 28.218 96.1147 27.9539C93.6515 25.6507 90.4053 24.3694 87.033 24.3694C83.6608 24.3694 80.4145 25.6507 77.9514 27.9539C77.669 28.218 77.226 28.2031 76.962 27.9207C76.6979 27.6384 76.7128 27.1954 76.9952 26.9313ZM81.2554 31.1652C82.8475 29.7501 84.9036 28.9684 87.0337 28.9684C89.1639 28.9684 91.2199 29.7501 92.8121 31.1652C93.101 31.422 93.1271 31.8645 92.8702 32.1534C92.6134 32.4424 92.1709 32.4684 91.882 32.2116C90.5461 31.0242 88.821 30.3684 87.0337 30.3684C85.2464 30.3684 83.5213 31.0242 82.1855 32.2116C81.8965 32.4684 81.4541 32.4424 81.1972 32.1534C80.9404 31.8645 80.9664 31.422 81.2554 31.1652ZM85.7968 38.6437C86.1627 38.8882 86.593 39.0188 87.0332 39.0188C87.6234 39.0188 88.1895 38.7843 88.6068 38.3669C89.0242 37.9496 89.2586 37.3835 89.2586 36.7933C89.2586 36.3531 89.1281 35.9229 88.8836 35.5569C88.639 35.1909 88.2915 34.9057 87.8848 34.7372C87.4782 34.5688 87.0307 34.5247 86.599 34.6106C86.1673 34.6965 85.7708 34.9084 85.4595 35.2197C85.1483 35.5309 84.9363 35.9274 84.8505 36.3591C84.7646 36.7908 84.8087 37.2383 84.9771 37.6449C85.1455 38.0516 85.4308 38.3992 85.7968 38.6437Z" fill="#4E16ED"/>
<path fill-rule="evenodd" clip-rule="evenodd" d="M36.6524 16.3668C36.0803 16.3668 35.5316 16.5941 35.1271 16.9986C34.7225 17.4032 34.4952 17.9518 34.4952 18.5239V30.7239C34.4952 30.974 34.3618 31.2051 34.1452 31.3301C33.1893 31.8821 32.4422 32.734 32.0198 33.7538C31.5974 34.7736 31.5233 35.9042 31.809 36.9704C32.0946 38.0366 32.7242 38.9788 33.5999 39.6507C34.4756 40.3227 35.5486 40.6869 36.6524 40.6869C37.7562 40.6869 38.8292 40.3227 39.7049 39.6507C40.5806 38.9788 41.2101 38.0366 41.4958 36.9704C41.7815 35.9042 41.7074 34.7736 41.285 33.7538C40.8626 32.734 40.1155 31.8821 39.1595 31.3301C38.9429 31.2051 38.8095 30.974 38.8095 30.7239V18.5239C38.8095 17.9518 38.5823 17.4032 38.1777 16.9986C37.7732 16.5941 37.2245 16.3668 36.6524 16.3668ZM34.1371 16.0087C34.8042 15.3416 35.709 14.9668 36.6524 14.9668C37.5958 14.9668 38.5006 15.3416 39.1677 16.0087C39.8348 16.6758 40.2095 17.5805 40.2095 18.5239V30.3351C41.2648 31.0383 42.0908 32.0407 42.5784 33.218C43.1188 34.5225 43.2136 35.9689 42.8481 37.3328C42.4827 38.6967 41.6774 39.9019 40.5571 40.7614C39.4369 41.621 38.0644 42.0869 36.6524 42.0869C35.2404 42.0869 33.8678 41.621 32.7476 40.7614C31.6274 39.9019 30.8221 38.6967 30.4567 37.3328C30.0912 35.9689 30.186 34.5225 30.7264 33.218C31.214 32.0407 32.04 31.0383 33.0952 30.3351V18.5239C33.0952 17.5805 33.47 16.6758 34.1371 16.0087ZM37.3042 26.0965C37.3042 25.7099 36.9908 25.3965 36.6042 25.3965C36.2176 25.3965 35.9042 25.7099 35.9042 26.0965V32.8495C34.6647 33.1617 33.7471 34.2838 33.7471 35.6203C33.7471 37.1982 35.0263 38.4774 36.6042 38.4774C38.1822 38.4774 39.4614 37.1982 39.4614 35.6203C39.4614 34.2838 38.5438 33.1617 37.3042 32.8495V26.0965ZM25.7333 17.3818C25.7333 16.9952 25.4199 16.6818 25.0333 16.6818C24.6467 16.6818 24.3333 16.9952 24.3333 17.3818V22.3585L21.5283 19.5535C21.2549 19.2802 20.8117 19.2802 20.5384 19.5535C20.265 19.8269 20.265 20.2701 20.5384 20.5435L24.3333 24.3384V27.3485H21.3233L17.5283 23.5535C17.2549 23.2802 16.8117 23.2802 16.5384 23.5535C16.265 23.8269 16.265 24.2701 16.5384 24.5435L19.3434 27.3485H15.7C15.3134 27.3485 15 27.6619 15 28.0485C15 28.4351 15.3134 28.7485 15.7 28.7485H19.3434L16.5384 31.5535C16.265 31.8269 16.265 32.2701 16.5384 32.5435C16.8117 32.8168 17.2549 32.8168 17.5283 32.5435L21.3233 28.7485H24.3333V31.7585L20.5384 35.5535C20.265 35.8269 20.265 36.2701 20.5384 36.5435C20.8117 36.8168 21.2549 36.8168 21.5283 36.5435L24.3333 33.7384V38.7152C24.3333 39.1018 24.6467 39.4152 25.0333 39.4152C25.4199 39.4152 25.7333 39.1018 25.7333 38.7152V33.7384L26.5384 34.5435C26.8117 34.8168 27.2549 34.8168 27.5283 34.5435C27.8017 34.2701 27.8017 33.8269 27.5283 33.5535L25.7333 31.7585V28.7485H29.0333C29.4199 28.7485 29.7333 28.4351 29.7333 28.0485C29.7333 27.6619 29.4199 27.3485 29.0333 27.3485H25.7333V24.3384L29.5283 20.5435C29.8017 20.2701 29.8017 19.8269 29.5283 19.5535C29.2549 19.2802 28.8117 19.2802 28.5384 19.5535L25.7333 22.3585V17.3818Z" fill="#4E16ED"/>
</svg>
