<svg width="46" height="46" viewBox="0 0 46 46" fill="none" xmlns="http://www.w3.org/2000/svg">
<path d="M25.65 41.79H23.15V8.04004H3.5V41.79H1V5.54004H25.65V41.79Z" fill="#407AEC"/>
<path d="M45.6796 41.7802H43.1796V25.1802H30.3496V41.7802H27.8496V22.6802H45.6796V41.7802Z" fill="#407AEC"/>
<path d="M11.6502 12.2998H6.91016V14.7998H11.6502V12.2998Z" fill="#407AEC"/>
<path d="M20.2104 12.2998H15.4004V14.7998H20.2104V12.2998Z" fill="#407AEC"/>
<path d="M20.2009 18.9502H15.4609V21.4502H20.2009V18.9502Z" fill="#407AEC"/>
<path d="M11.7202 18.9502H6.91016V21.4502H11.7202V18.9502Z" fill="#407AEC"/>
<path d="M20.2009 24.9302H15.4609V27.4302H20.2009V24.9302Z" fill="#407AEC"/>
<path d="M11.7202 24.9302H6.91016V27.4302H11.7202V24.9302Z" fill="#407AEC"/>
<path d="M11.6502 31.5801H6.91016V34.0801H11.6502V31.5801Z" fill="#407AEC"/>
<path d="M20.2104 31.5801H15.4004V34.0801H20.2104V31.5801Z" fill="#407AEC"/>
<path d="M41.2494 27.1201H38.1094V29.6201H41.2494V27.1201Z" fill="#407AEC"/>
<path d="M35.6197 27.1201H32.4297V29.6201H35.6197V27.1201Z" fill="#407AEC"/>
<path d="M41.2494 31.5298H38.1094V34.0298H41.2494V31.5298Z" fill="#407AEC"/>
<path d="M35.6197 31.5298H32.4297V34.0298H35.6197V31.5298Z" fill="#407AEC"/>
<path d="M35.5795 36.4302H32.4395V38.9302H35.5795V36.4302Z" fill="#407AEC"/>
<path d="M41.2505 36.4302H38.0605V38.9302H41.2505V36.4302Z" fill="#407AEC"/>
<path d="M36.7603 40.54H8.07031V43.04H36.7603V40.54Z" fill="#407AEC"/>
<path d="M14.5801 0H12.0801V6.49H14.5801V0Z" fill="#407AEC"/>
</svg>
