<svg width="60" height="40" viewBox="0 0 60 40" fill="none" xmlns="http://www.w3.org/2000/svg">
<path d="M45 25L55 35" stroke="#4E16ED" stroke-width="2" stroke-linecap="round"/>
<path d="M55 25L45 35" stroke="#4E16ED" stroke-width="2" stroke-linecap="round"/>
<path d="M45 5L55 15" stroke="#747474" stroke-linecap="round"/>
<path d="M55 5L45 15" stroke="#747474" stroke-linecap="round"/>
<path d="M17.1901 32.4192C17.1901 35.0562 15.0528 37.1938 12.4164 37.1938C9.77995 37.1938 7.64258 35.0562 7.64258 32.4192C7.64258 29.7821 9.77995 27.6445 12.4164 27.6445C15.0528 27.6445 17.1901 29.7821 17.1901 32.4192Z" stroke="#4E16ED"/>
<path d="M15.9346 35.9336L18.5715 38.5709" stroke="#4E16ED" stroke-linecap="round" stroke-linejoin="bevel"/>
<path d="M14.2859 27.8583V21.4297H1.42871V35.7154H9.28586" stroke="#4E16ED" stroke-linejoin="round"/>
<path d="M4.28613 26.4297H8.57185" stroke="#4E16ED"/>
<path d="M4.28613 29.2852H8.99613" stroke="#4E16ED"/>
<path d="M22 12V17H38V12" stroke="#747474"/>
<path d="M25 8.5L30 12.5M30 12.5L35 8.5M30 12.5V1" stroke="#747474"/>
<path d="M17.1901 12.4192C17.1901 15.0562 15.0528 17.1938 12.4164 17.1938C9.77995 17.1938 7.64258 15.0562 7.64258 12.4192C7.64258 9.78214 9.77995 7.64453 12.4164 7.64453C15.0528 7.64453 17.1901 9.78214 17.1901 12.4192Z" stroke="#747474"/>
<path d="M15.9346 15.9336L18.5715 18.5709" stroke="#747474" stroke-linecap="round" stroke-linejoin="bevel"/>
<path d="M14.2859 7.85826V1.42969H1.42871V15.7154H9.28586" stroke="#747474" stroke-linejoin="round"/>
<path d="M4.28613 6.42969H8.57185" stroke="#747474"/>
<path d="M4.28613 9.28516H9.00049" stroke="#747474"/>
<path d="M22 32V37H38V32" stroke="#4E16ED"/>
<path d="M25 28.5L30 32.5M30 32.5L35 28.5M30 32.5V21" stroke="#4E16ED"/>
</svg>
