<svg width="72" height="18" viewBox="0 0 72 18" fill="none" xmlns="http://www.w3.org/2000/svg">
<path d="M22.9782 1.42735L24.0893 1.09271C24.595 0.940129 25.139 0.976811 25.6197 1.19591C26.1004 1.41501 26.4849 1.80154 26.7015 2.28337L27.3928 3.82138C27.5791 4.23571 27.631 4.69797 27.5412 5.14329C27.4515 5.58861 27.2245 5.99465 26.8922 6.30442L25.6842 7.43083C25.6692 7.44477 25.657 7.46133 25.648 7.47968C25.5215 7.73803 25.7136 8.42806 26.3153 9.4708C26.9939 10.6461 27.518 11.1106 27.7609 11.0389L29.3465 10.5537C29.7807 10.4211 30.2455 10.4277 30.6758 10.5726C31.1061 10.7174 31.4803 10.9933 31.7459 11.3615L32.7284 12.7222C33.0368 13.1494 33.1797 13.6741 33.1305 14.1987C33.0812 14.7234 32.8432 15.2123 32.4607 15.5747L31.6154 16.3745C31.3214 16.6529 30.9645 16.8561 30.575 16.9667C30.1855 17.0773 29.775 17.092 29.3786 17.0096C27.0247 16.5197 24.9158 14.6243 23.0338 11.3649C21.1511 8.10346 20.5641 5.32593 21.3204 3.04166C21.447 2.65924 21.6638 2.3129 21.9525 2.03193C22.2412 1.75095 22.5925 1.54358 22.9782 1.42735ZM23.2687 2.38844C23.0373 2.45815 22.826 2.58254 22.6528 2.7511C22.4796 2.91967 22.3495 3.12745 22.2735 3.3569C21.6216 5.32526 22.1497 7.8257 23.9032 10.8629C25.6554 13.8981 27.5548 15.6048 29.5827 16.0264C29.8207 16.0759 30.0671 16.0671 30.3009 16.0006C30.5347 15.9342 30.7489 15.8122 30.9253 15.6449L31.77 14.8458C31.976 14.6507 32.1043 14.3875 32.1309 14.105C32.1575 13.8225 32.0806 13.5399 31.9145 13.3098L30.932 11.9485C30.789 11.7503 30.5876 11.6017 30.356 11.5237C30.1243 11.4457 29.8741 11.4421 29.6403 11.5135L28.0507 12C27.1713 12.2617 26.3441 11.5289 25.4459 9.9721C24.6849 8.65495 24.4212 7.70323 24.7465 7.03863C24.8094 6.91012 24.8951 6.79434 24.9995 6.69662L26.2075 5.57022C26.3865 5.40342 26.5088 5.18476 26.5572 4.94492C26.6055 4.70509 26.5776 4.45613 26.4773 4.23299L25.7859 2.69564C25.6693 2.43614 25.4622 2.22795 25.2033 2.10996C24.9444 1.99197 24.6514 1.97224 24.3791 2.05447L23.2687 2.38844Z" fill="#4E16ED"/>
<path d="M8 5H7V6H8V5Z" fill="#4E16ED"/>
<path d="M10 5H9V6H10V5Z" fill="#4E16ED"/>
<path d="M12 5H11V6H12V5Z" fill="#4E16ED"/>
<path d="M12 7H11V8H12V7Z" fill="#4E16ED"/>
<path d="M8 7H7V8H8V7Z" fill="#4E16ED"/>
<path d="M10 7H9V8H10V7Z" fill="#4E16ED"/>
<path d="M12 9H11V10H12V9Z" fill="#4E16ED"/>
<path d="M8 9H7V10H8V9Z" fill="#4E16ED"/>
<path d="M10 9H9V10H10V9Z" fill="#4E16ED"/>
<path d="M14.5 2.5H4.5V15.5H14.5V2.5Z" stroke="#4E16ED"/>
<path d="M10.5 12.5H8.5V15.5H10.5V12.5Z" stroke="#4E16ED"/>
<path d="M48.5 4.5C48.5 6.15685 47.1569 7.5 45.5 7.5C43.8431 7.5 42.5 6.15685 42.5 4.5C42.5 2.84315 43.8431 1.5 45.5 1.5C47.1569 1.5 48.5 2.84315 48.5 4.5Z" stroke="#4E16ED"/>
<path d="M45 10H46V11H45V10Z" fill="#4E16ED"/>
<path d="M45 12H46V16H45V12Z" fill="#4E16ED"/>
<path d="M51 17V12C51 9.79086 49.2091 8 47 8H44C41.7909 8 40 9.79086 40 12V17" stroke="#4E16ED"/>
<path d="M56.5 4.5H69.5V14.5H56.5V4.5Z" stroke="#4E16ED"/>
<path d="M57 5C57.4 5.4 61.1667 9.16667 63 11L69 5" stroke="#4E16ED" stroke-linejoin="round"/>
<path d="M57 14C57.3084 13.6916 59.6181 11.3819 61.5 9.5M69 14L64.5 9.5" stroke="#4E16ED" stroke-linejoin="round"/>
</svg>
