<svg width="60" height="40" viewBox="0 0 60 40" fill="none" xmlns="http://www.w3.org/2000/svg">
<path d="M54.9617 33.0145C53.1261 32.3458 52.5392 31.7813 52.5392 30.5727C52.5392 29.8473 53.1407 29.3773 53.3457 28.7556C53.5508 28.134 53.6694 27.398 53.768 26.8627C53.8665 26.3273 53.9057 26.1202 53.9593 25.5498C54.0249 24.8379 53.5483 23 51 23C48.4525 23 47.9744 24.8379 48.0414 25.5498C48.095 26.1202 48.1344 26.3273 48.2328 26.8627C48.3311 27.398 48.4486 28.134 48.6535 28.7556C48.8584 29.3773 49.4607 29.8473 49.4607 30.5727C49.4607 31.7813 48.8739 32.3457 47.0383 33.0145C45.196 33.6847 44 34.3456 44 34.8125V37H58V34.8125C58 34.3463 56.8033 33.6854 54.9617 33.0145Z" fill="#4E16ED"/>
<path d="M54.9617 13.0145C53.1261 12.3458 52.5392 11.7813 52.5392 10.5727C52.5392 9.84734 53.1407 9.37727 53.3457 8.75564C53.5508 8.13401 53.6694 7.39803 53.768 6.86266C53.8665 6.32729 53.9057 6.12021 53.9593 5.54978C54.0249 4.83787 53.5483 3 51 3C48.4525 3 47.9744 4.83787 48.0414 5.54978C48.095 6.12021 48.1344 6.32731 48.2328 6.86266C48.3311 7.39802 48.4486 8.13396 48.6535 8.75564C48.8584 9.37731 49.4607 9.84734 49.4607 10.5727C49.4607 11.7813 48.8739 12.3457 47.0383 13.0145C45.196 13.6847 44 14.3456 44 14.8125V17H58V14.8125C58 14.3463 56.8033 13.6854 54.9617 13.0145Z" fill="#C7CEE3"/>
<path fill-rule="evenodd" clip-rule="evenodd" d="M14.3298 29.1148C14.3298 30.2794 14.8952 30.8233 16.6639 31.4676C18.4384 32.1141 19.5914 32.7509 19.5914 33.2V35.3078H16.0463C15.8673 34.8691 14.7651 34.2867 13.1445 33.6963C11.3758 33.052 10.8104 32.5081 10.8104 31.3435C10.8104 30.9187 11.0245 30.5848 11.2368 30.2537C11.3738 30.0401 11.51 29.8277 11.5875 29.5928C11.7592 29.0723 11.868 28.4685 11.9559 27.9807C11.9691 27.9072 11.9819 27.8364 11.9943 27.7688L11.9999 27.7387C12.0908 27.245 12.1281 27.0427 12.1787 26.5038C12.2357 25.8849 11.8674 24.3827 9.99121 24.0951C10.016 23.3223 10.5846 21.8184 12.8467 21.8184C15.3021 21.8184 15.7613 23.5892 15.6981 24.2752C15.6475 24.814 15.6102 25.0163 15.5193 25.51L15.5137 25.5401C15.5013 25.6077 15.4885 25.6786 15.4753 25.752C15.3874 26.2398 15.2786 26.8436 15.1069 27.3641C15.0294 27.599 14.8932 27.8114 14.7562 28.025C14.5439 28.3561 14.3298 28.69 14.3298 29.1148Z" fill="#4E16ED"/>
<path d="M11.9711 33.8133C10.2024 33.169 9.63697 32.6251 9.63697 31.4605C9.63697 30.7617 10.2165 30.3087 10.4141 29.7098C10.6116 29.1108 10.7259 28.4017 10.8209 27.8858C10.9159 27.37 10.9536 27.1705 11.0053 26.6209C11.0684 25.9349 10.6092 24.1641 8.15388 24.1641C5.69925 24.1641 5.23858 25.9349 5.30317 26.6209C5.35483 27.1705 5.39278 27.37 5.48757 27.8858C5.58236 28.4017 5.69553 29.1108 5.89296 29.7098C6.09037 30.3088 6.67073 30.7617 6.67073 31.4605C6.67073 32.6251 6.10532 33.169 4.33664 33.8133C2.56152 34.4591 1.40918 35.0959 1.40918 35.5457V37.6535H14.8986V35.5457C14.8986 35.0966 13.7455 34.4598 11.9711 33.8133Z" fill="#4E16ED"/>
<path d="M31.0003 2.5C35.5837 2.5 39.3337 5.48333 39.3337 9.16667C39.3337 12.85 35.5837 15.8333 31.0003 15.8333C29.967 15.8333 28.9753 15.6833 28.0587 15.4167C25.6253 17.5 22.667 17.5 22.667 17.5C24.6087 15.5583 24.917 14.25 24.9587 13.75C23.542 12.5583 22.667 10.9417 22.667 9.16667C22.667 5.48333 26.417 2.5 31.0003 2.5Z" fill="#BFBFBF"/>
<path d="M31.0003 22.5C35.5837 22.5 39.3337 25.4833 39.3337 29.1667C39.3337 32.85 35.5837 35.8333 31.0003 35.8333C29.967 35.8333 28.9753 35.6833 28.0587 35.4167C25.6253 37.5 22.667 37.5 22.667 37.5C24.6087 35.5583 24.917 34.25 24.9587 33.75C23.542 32.5583 22.667 30.9417 22.667 29.1667C22.667 25.4833 26.417 22.5 31.0003 22.5Z" fill="#4E16ED"/>
<path fill-rule="evenodd" clip-rule="evenodd" d="M14.3298 9.11483C14.3298 10.2794 14.8952 10.8233 16.6639 11.4676C18.4384 12.1141 19.5914 12.7509 19.5914 13.2V15.3078H16.0463C15.8673 14.8691 14.7651 14.2867 13.1445 13.6963C11.3758 13.052 10.8104 12.5081 10.8104 11.3435C10.8104 10.9187 11.0245 10.5848 11.2368 10.2537C11.3738 10.0401 11.51 9.82766 11.5875 9.59278C11.7592 9.07225 11.868 8.46851 11.9559 7.98074C11.9691 7.90725 11.9819 7.83638 11.9943 7.76884L11.9999 7.73873C12.0908 7.245 12.1281 7.04265 12.1787 6.50384C12.2357 5.88492 11.8674 4.38273 9.99121 4.0951C10.016 3.32231 10.5846 1.81836 12.8467 1.81836C15.3021 1.81836 15.7613 3.5892 15.6981 4.27515C15.6475 4.81396 15.6102 5.0163 15.5193 5.51004L15.5137 5.54014C15.5013 5.60769 15.4885 5.67855 15.4753 5.75205C15.3874 6.23981 15.2786 6.84356 15.1069 7.36409C15.0294 7.59897 14.8932 7.8114 14.7562 8.025C14.5439 8.3561 14.3298 8.69003 14.3298 9.11483Z" fill="#BFBFBF"/>
<path d="M11.9711 13.8133C10.2024 13.169 9.63697 12.6251 9.63697 11.4605C9.63697 10.7617 10.2165 10.3087 10.4141 9.70979C10.6116 9.11083 10.7259 8.40169 10.8209 7.88584C10.9159 7.37 10.9536 7.17048 11.0053 6.62085C11.0684 5.93491 10.6092 4.16406 8.15388 4.16406C5.69925 4.16406 5.23858 5.93491 5.30317 6.62085C5.35483 7.17048 5.39278 7.37002 5.48757 7.88584C5.58236 8.40168 5.69553 9.11078 5.89296 9.70979C6.09037 10.3088 6.67073 10.7617 6.67073 11.4605C6.67073 12.6251 6.10532 13.169 4.33664 13.8133C2.56152 14.4591 1.40918 15.0959 1.40918 15.5457V17.6535H14.8986V15.5457C14.8986 15.0966 13.7455 14.4598 11.9711 13.8133Z" fill="#BFBFBF"/>
</svg>
