<svg width="90" height="18" viewBox="0 0 90 18" fill="none" xmlns="http://www.w3.org/2000/svg">
<path d="M84.5014 1.24693C84.3192 1.08773 84.0854 1 83.8434 1H75C74.4477 1 74 1.44772 74 2V15.7095C74 16.2618 74.4477 16.7095 75 16.7095H87C87.5523 16.7095 88 16.2618 88 15.7095V4.75779C88 4.46916 87.8753 4.19461 87.6579 4.00471L84.5014 1.24693Z" fill="#187B22"/>
<path d="M84.5 1.19922V3.99922H87.6L84.5 1.19922Z" fill="#74C49D"/>
<path d="M77.2803 12.0879C76.9111 12.0879 76.5801 12.0293 76.2871 11.9121C75.9941 11.792 75.7451 11.6265 75.54 11.4155C75.3379 11.2046 75.1826 10.96 75.0742 10.6816C74.9658 10.4004 74.9116 10.1016 74.9116 9.78516V9.60938C74.9116 9.24902 74.9629 8.91943 75.0654 8.62061C75.168 8.32178 75.3145 8.0625 75.5049 7.84277C75.6982 7.62305 75.9326 7.45459 76.208 7.3374C76.4834 7.21729 76.7939 7.15723 77.1396 7.15723C77.4766 7.15723 77.7754 7.21289 78.0361 7.32422C78.2969 7.43555 78.5151 7.59375 78.6909 7.79883C78.8696 8.00391 79.0044 8.25 79.0952 8.53711C79.186 8.82129 79.2314 9.1377 79.2314 9.48633V10.0137H75.4521V9.16992H77.9878V9.07324C77.9878 8.89746 77.9556 8.74072 77.8911 8.60303C77.8296 8.4624 77.7358 8.35107 77.6099 8.26904C77.4839 8.18701 77.3228 8.146 77.1265 8.146C76.9595 8.146 76.8159 8.18262 76.6958 8.25586C76.5757 8.3291 76.4775 8.43164 76.4014 8.56348C76.3281 8.69531 76.2725 8.85059 76.2344 9.0293C76.1992 9.20508 76.1816 9.39844 76.1816 9.60938V9.78516C76.1816 9.97559 76.208 10.1514 76.2607 10.3125C76.3164 10.4736 76.394 10.6128 76.4937 10.73C76.5962 10.8472 76.7192 10.938 76.8628 11.0024C77.0093 11.0669 77.1748 11.0991 77.3594 11.0991C77.5879 11.0991 77.8003 11.0552 77.9966 10.9673C78.1958 10.8765 78.3672 10.7402 78.5107 10.5586L79.126 11.2266C79.0264 11.3701 78.8901 11.5078 78.7173 11.6396C78.5474 11.7715 78.3423 11.8799 78.1021 11.9648C77.8618 12.0469 77.5879 12.0879 77.2803 12.0879ZM82.2812 7.24512V8.1416H79.5127V7.24512H82.2812ZM80.1982 6.07178H81.4639V10.5674C81.4639 10.7051 81.4814 10.8105 81.5166 10.8838C81.5547 10.957 81.6104 11.0083 81.6836 11.0376C81.7568 11.064 81.8491 11.0771 81.9604 11.0771C82.0396 11.0771 82.1099 11.0742 82.1714 11.0684C82.2358 11.0596 82.29 11.0508 82.334 11.042L82.3384 11.9736C82.23 12.0088 82.1128 12.0366 81.9868 12.0571C81.8608 12.0776 81.7217 12.0879 81.5693 12.0879C81.291 12.0879 81.0479 12.0425 80.8398 11.9517C80.6348 11.8579 80.4766 11.7085 80.3652 11.5034C80.2539 11.2983 80.1982 11.0288 80.1982 10.6948V6.07178ZM84.9663 11.0991C85.1216 11.0991 85.2593 11.0698 85.3794 11.0112C85.4995 10.9497 85.5933 10.8647 85.6606 10.7563C85.731 10.645 85.7676 10.5146 85.7705 10.3652H86.9614C86.9585 10.6992 86.8691 10.9966 86.6934 11.2573C86.5176 11.5151 86.2817 11.7188 85.9858 11.8682C85.6899 12.0146 85.3589 12.0879 84.9927 12.0879C84.6235 12.0879 84.3013 12.0264 84.0259 11.9033C83.7534 11.7803 83.5264 11.6104 83.3447 11.3936C83.1631 11.1738 83.0269 10.9189 82.936 10.6289C82.8452 10.3359 82.7998 10.0225 82.7998 9.68848V9.56104C82.7998 9.22412 82.8452 8.91064 82.936 8.62061C83.0269 8.32764 83.1631 8.07275 83.3447 7.85596C83.5264 7.63623 83.7534 7.46484 84.0259 7.3418C84.2983 7.21875 84.6177 7.15723 84.9839 7.15723C85.3735 7.15723 85.7148 7.23193 86.0078 7.38135C86.3037 7.53076 86.5352 7.74463 86.7021 8.02295C86.8721 8.29834 86.9585 8.625 86.9614 9.00293H85.7705C85.7676 8.84473 85.7339 8.70117 85.6694 8.57227C85.6079 8.44336 85.5171 8.34082 85.397 8.26465C85.2798 8.18555 85.1348 8.146 84.9619 8.146C84.7773 8.146 84.6265 8.18555 84.5093 8.26465C84.3921 8.34082 84.3013 8.44629 84.2368 8.58105C84.1724 8.71289 84.127 8.86377 84.1006 9.03369C84.0771 9.20068 84.0654 9.37646 84.0654 9.56104V9.68848C84.0654 9.87305 84.0771 10.0503 84.1006 10.2202C84.124 10.3901 84.168 10.541 84.2324 10.6729C84.2998 10.8047 84.3921 10.9087 84.5093 10.9849C84.6265 11.061 84.7788 11.0991 84.9663 11.0991Z" fill="white"/>
<path d="M48 1.5L51.75 5.25V15.744C51.7508 15.8426 51.7321 15.9403 51.6951 16.0316C51.6581 16.123 51.6035 16.2061 51.5343 16.2764C51.4651 16.3466 51.3828 16.4025 51.292 16.4408C51.2013 16.4792 51.1038 16.4993 51.0052 16.5H38.9947C38.7978 16.4986 38.6093 16.4198 38.4699 16.2806C38.3306 16.1414 38.2516 15.953 38.25 15.756V2.244C38.25 1.833 38.5852 1.5 38.9985 1.5H48Z" fill="white"/>
<path d="M48 1.5L51.75 5.25V15.744C51.7508 15.8426 51.7321 15.9403 51.6951 16.0316C51.6581 16.123 51.6035 16.2061 51.5343 16.2764C51.4651 16.3466 51.3828 16.4025 51.292 16.4408C51.2013 16.4792 51.1038 16.4993 51.0052 16.5H38.9947C38.7978 16.4986 38.6093 16.4198 38.4699 16.2806C38.3306 16.1414 38.2516 15.953 38.25 15.756V2.244C38.25 1.833 38.5852 1.5 38.9985 1.5H48ZM42.9997 11.0002H42V13.5H48V12.5002L42.9997 12.4995V11.0002ZM45 10.7497C44.9015 10.7497 44.804 10.7691 44.713 10.8068C44.622 10.8445 44.5393 10.8998 44.4697 10.9694C44.4 11.0391 44.3448 11.1217 44.3071 11.2127C44.2694 11.3037 44.25 11.4013 44.25 11.4997C44.25 11.5982 44.2694 11.6958 44.3071 11.7868C44.3448 11.8778 44.4 11.9604 44.4697 12.0301C44.5393 12.0997 44.622 12.155 44.713 12.1927C44.804 12.2304 44.9015 12.2497 45 12.2497C45.1989 12.2497 45.3897 12.1707 45.5303 12.0301C45.671 11.8894 45.75 11.6987 45.75 11.4997C45.75 11.3008 45.671 11.1101 45.5303 10.9694C45.3897 10.8288 45.1989 10.7497 45 10.7497ZM45 6.75C44.5027 6.75 44.0258 6.94754 43.6742 7.29917C43.3225 7.65081 43.125 8.12772 43.125 8.625C43.125 9.12228 43.3225 9.59919 43.6742 9.95082C44.0258 10.3025 44.5027 10.5 45 10.5C45.4973 10.5 45.9742 10.3025 46.3258 9.95082C46.6775 9.59919 46.875 9.12228 46.875 8.625C46.875 8.12772 46.6775 7.65081 46.3258 7.29917C45.9742 6.94754 45.4973 6.75 45 6.75ZM45 7.74975C45.2321 7.74975 45.4548 7.84196 45.6189 8.0061C45.783 8.17025 45.8752 8.39287 45.8752 8.625C45.8752 8.85713 45.783 9.07975 45.6189 9.24389C45.4548 9.40804 45.2321 9.50025 45 9.50025C44.7679 9.50025 44.5452 9.40804 44.3811 9.24389C44.217 9.07975 44.1247 8.85713 44.1247 8.625C44.1247 8.39287 44.217 8.17025 44.3811 8.0061C44.5452 7.84196 44.7679 7.74975 45 7.74975ZM45.5002 4.5H44.4997V5.49975H42V6.50025H48V5.49975H45.4995L45.5002 4.5Z" fill="#01B4FF"/>
<path d="M66.5014 1.24693C66.3192 1.08773 66.0854 1 65.8434 1H57C56.4477 1 56 1.44772 56 2V15.7095C56 16.2618 56.4477 16.7095 57 16.7095H69C69.5523 16.7095 70 16.2618 70 15.7095V4.75779C70 4.46916 69.8753 4.19461 69.6579 4.00471L66.5014 1.24693Z" fill="#254494"/>
<path d="M66.5 1.19922V3.99922H69.6L66.5 1.19922Z" fill="#8BB4F2"/>
<path d="M61.541 12.0859V13H57.5098V12.0859H61.541ZM61.4824 7.96484L58.0293 13H57.2051V12.3281L60.6855 7.3125H61.4824V7.96484ZM61.0801 7.3125V8.23047H57.209V7.3125H61.0801ZM63.5332 7.3125V13H62.3652V7.3125H63.5332ZM66.8457 10.9727H65.3965V10.0586H66.8457C67.0697 10.0586 67.252 10.0221 67.3926 9.94922C67.5332 9.8737 67.6361 9.76953 67.7012 9.63672C67.7663 9.50391 67.7988 9.35417 67.7988 9.1875C67.7988 9.01823 67.7663 8.86068 67.7012 8.71484C67.6361 8.56901 67.5332 8.45182 67.3926 8.36328C67.252 8.27474 67.0697 8.23047 66.8457 8.23047H65.8027V13H64.6309V7.3125H66.8457C67.291 7.3125 67.6725 7.39323 67.9902 7.55469C68.3105 7.71354 68.5553 7.93359 68.7246 8.21484C68.8939 8.49609 68.9785 8.81771 68.9785 9.17969C68.9785 9.54688 68.8939 9.86458 68.7246 10.1328C68.5553 10.401 68.3105 10.6081 67.9902 10.7539C67.6725 10.8997 67.291 10.9727 66.8457 10.9727Z" fill="white"/>
<rect x="62" y="1" width="1" height="2" fill="white"/>
<rect x="62" y="4" width="1" height="2" fill="white"/>
<path d="M30.5014 1.24693C30.3192 1.08773 30.0854 1 29.8434 1H21C20.4477 1 20 1.44772 20 2V15.7095C20 16.2618 20.4477 16.7095 21 16.7095H33C33.5523 16.7095 34 16.2618 34 15.7095V4.75779C34 4.46916 33.8753 4.19461 33.6579 4.00471L30.5014 1.24693Z" fill="#467ED1"/>
<path d="M30.5 1.19922V3.99922H33.6L30.5 1.19922Z" fill="#8BB4F2"/>
<path d="M22.79 9H21.8613L21.8672 8.31445H22.79C23.0205 8.31445 23.2148 8.2627 23.373 8.15918C23.5312 8.05371 23.6504 7.90039 23.7305 7.69922C23.8125 7.49805 23.8535 7.25488 23.8535 6.96973V6.76172C23.8535 6.54297 23.8301 6.35059 23.7832 6.18457C23.7383 6.01855 23.6709 5.87891 23.5811 5.76562C23.4912 5.65234 23.3809 5.56738 23.25 5.51074C23.1191 5.45215 22.9688 5.42285 22.7988 5.42285H21.8438V4.73438H22.7988C23.084 4.73438 23.3447 4.7832 23.5811 4.88086C23.8193 4.97656 24.0254 5.11426 24.1992 5.29395C24.373 5.47363 24.5068 5.68848 24.6006 5.93848C24.6963 6.18652 24.7441 6.46289 24.7441 6.76758V6.96973C24.7441 7.27246 24.6963 7.54883 24.6006 7.79883C24.5068 8.04883 24.373 8.26367 24.1992 8.44336C24.0273 8.62109 23.8213 8.75879 23.5811 8.85645C23.3428 8.95215 23.0791 9 22.79 9ZM22.3594 4.73438V9H21.4805V4.73438H22.3594ZM28.5867 6.76758V6.96973C28.5867 7.29395 28.5428 7.58496 28.4549 7.84277C28.367 8.10059 28.243 8.32031 28.0828 8.50195C27.9227 8.68164 27.7313 8.81934 27.5086 8.91504C27.2879 9.01074 27.0428 9.05859 26.7732 9.05859C26.5057 9.05859 26.2605 9.01074 26.0379 8.91504C25.8172 8.81934 25.6258 8.68164 25.4637 8.50195C25.3016 8.32031 25.1756 8.10059 25.0857 7.84277C24.9979 7.58496 24.9539 7.29395 24.9539 6.96973V6.76758C24.9539 6.44141 24.9979 6.15039 25.0857 5.89453C25.1736 5.63672 25.2977 5.41699 25.4578 5.23535C25.6199 5.05371 25.8113 4.91504 26.032 4.81934C26.2547 4.72363 26.4998 4.67578 26.7674 4.67578C27.0369 4.67578 27.282 4.72363 27.5027 4.81934C27.7254 4.91504 27.9168 5.05371 28.077 5.23535C28.2391 5.41699 28.3641 5.63672 28.452 5.89453C28.5418 6.15039 28.5867 6.44141 28.5867 6.76758ZM27.699 6.96973V6.76172C27.699 6.53516 27.6785 6.33594 27.6375 6.16406C27.5965 5.99219 27.5359 5.84766 27.4559 5.73047C27.3758 5.61328 27.2781 5.52539 27.1629 5.4668C27.0477 5.40625 26.9158 5.37598 26.7674 5.37598C26.6189 5.37598 26.4871 5.40625 26.3719 5.4668C26.2586 5.52539 26.1619 5.61328 26.0818 5.73047C26.0037 5.84766 25.9441 5.99219 25.9031 6.16406C25.8621 6.33594 25.8416 6.53516 25.8416 6.76172V6.96973C25.8416 7.19434 25.8621 7.39355 25.9031 7.56738C25.9441 7.73926 26.0047 7.88477 26.0848 8.00391C26.1648 8.12109 26.2625 8.20996 26.3777 8.27051C26.493 8.33105 26.6248 8.36133 26.7732 8.36133C26.9217 8.36133 27.0535 8.33105 27.1688 8.27051C27.284 8.20996 27.3807 8.12109 27.4588 8.00391C27.5369 7.88477 27.5965 7.73926 27.6375 7.56738C27.6785 7.39355 27.699 7.19434 27.699 6.96973ZM31.3922 7.58496H32.2682C32.2506 7.87207 32.1715 8.12695 32.0309 8.34961C31.8922 8.57227 31.6979 8.74609 31.4479 8.87109C31.1998 8.99609 30.901 9.05859 30.5514 9.05859C30.2779 9.05859 30.0328 9.01172 29.816 8.91797C29.5992 8.82227 29.4137 8.68555 29.2594 8.50781C29.107 8.33008 28.9908 8.11523 28.9107 7.86328C28.8307 7.61133 28.7906 7.3291 28.7906 7.0166V6.7207C28.7906 6.4082 28.8316 6.12598 28.9137 5.87402C28.9977 5.62012 29.1168 5.4043 29.2711 5.22656C29.4273 5.04883 29.6139 4.91211 29.8307 4.81641C30.0475 4.7207 30.2896 4.67285 30.5572 4.67285C30.9127 4.67285 31.2125 4.7373 31.4566 4.86621C31.7027 4.99512 31.8932 5.17285 32.0279 5.39941C32.1646 5.62598 32.2467 5.88379 32.274 6.17285H31.3951C31.3854 6.00098 31.3512 5.85547 31.2926 5.73633C31.234 5.61523 31.1451 5.52441 31.026 5.46387C30.9088 5.40137 30.7525 5.37012 30.5572 5.37012C30.4107 5.37012 30.2828 5.39746 30.1734 5.45215C30.0641 5.50684 29.9723 5.58984 29.898 5.70117C29.8238 5.8125 29.7682 5.95312 29.7311 6.12305C29.6959 6.29102 29.6783 6.48828 29.6783 6.71484V7.0166C29.6783 7.2373 29.6949 7.43164 29.7281 7.59961C29.7613 7.76562 29.8121 7.90625 29.8805 8.02148C29.9508 8.13477 30.0406 8.2207 30.15 8.2793C30.2613 8.33594 30.3951 8.36426 30.5514 8.36426C30.735 8.36426 30.8863 8.33496 31.0055 8.27637C31.1246 8.21777 31.2154 8.13086 31.2779 8.01562C31.3424 7.90039 31.3805 7.75684 31.3922 7.58496Z" fill="white"/>
<rect x="21.5" y="11" width="8" height="1" fill="white"/>
<rect x="21.5" y="13" width="5" height="1" fill="white"/>
<path d="M13.556 1.16406L16.6857 4.42656V16.8331H4.99414V16.8736H16.7256V4.46763L13.556 1.16406Z" fill="#909090"/>
<path d="M13.517 1.125H4.9541V16.8345H16.6856V4.42856L13.517 1.125Z" fill="#F4F4F4"/>
<path d="M4.86879 1.96875H1.27441V7.80875H12.5807V1.96875H4.86879Z" fill="#7A7B7C"/>
<path d="M12.641 7.73844H1.34766V1.89844H12.641V7.73844Z" fill="#DD2025"/>
<path d="M12.2514 13.3951C12.2514 13.3951 14.0446 13.0699 14.0446 13.6825C14.0446 14.2951 12.9337 14.0459 12.2514 13.3951ZM10.9256 13.4417C10.6407 13.5047 10.363 13.5969 10.097 13.7168L10.322 13.2106C10.547 12.7043 10.7805 12.0141 10.7805 12.0141C11.0489 12.466 11.3613 12.8903 11.7131 13.2809C11.4478 13.3204 11.1849 13.3745 10.9256 13.4429V13.4417ZM10.2157 9.7855C10.2157 9.25169 10.3884 9.106 10.5228 9.106C10.6573 9.106 10.8086 9.17069 10.8136 9.63419C10.7698 10.1003 10.6723 10.5597 10.5228 11.0033C10.3181 10.6308 10.2122 10.2122 10.2151 9.78719L10.2157 9.7855ZM7.60064 15.7007C7.05052 15.3717 8.75433 14.3586 9.06314 14.326C9.06146 14.3266 8.17664 16.045 7.60064 15.7007ZM14.5683 13.7551C14.5627 13.6988 14.5121 13.0761 13.404 13.1026C12.9421 13.0951 12.4804 13.1277 12.0241 13.1999C11.5822 12.7546 11.2016 12.2524 10.8924 11.7064C11.0872 11.1436 11.2051 10.5571 11.2428 9.96269C11.2265 9.28769 11.0651 8.90069 10.5476 8.90631C10.0301 8.91194 9.95471 9.36475 10.0228 10.0386C10.0894 10.4915 10.2152 10.9336 10.3968 11.3537C10.3968 11.3537 10.1578 12.0979 9.84164 12.8382C9.52552 13.5784 9.30952 13.9666 9.30952 13.9666C8.7598 14.1455 8.24231 14.4114 7.77671 14.7541C7.31321 15.1855 7.12477 15.5168 7.36889 15.8481C7.57927 16.1339 8.31558 16.1986 8.97371 15.3362C9.32339 14.8909 9.64285 14.4226 9.92996 13.9345C9.92996 13.9345 10.9335 13.6594 11.2456 13.5841C11.5578 13.5087 11.9353 13.4491 11.9353 13.4491C11.9353 13.4491 12.8516 14.371 13.7353 14.3384C14.619 14.3057 14.5762 13.8102 14.5706 13.7562" fill="#DD2025"/>
<path d="M13.4746 1.16797V4.47153H16.6432L13.4746 1.16797Z" fill="#909090"/>
<path d="M13.5176 1.125V4.42856H16.6861L13.5176 1.125Z" fill="#F4F4F4"/>
<path d="M4.07961 3.01251H3V6.9774H3.85245V5.6409L4.04078 5.65164C4.22298 5.6485 4.40346 5.61587 4.57522 5.555C4.7258 5.50318 4.86432 5.42141 4.98245 5.31462C5.10173 5.2126 5.19562 5.08421 5.25668 4.93961C5.33953 4.69882 5.36912 4.44292 5.34342 4.18959C5.33826 4.00861 5.30653 3.82938 5.24925 3.65763C5.19711 3.53365 5.11972 3.42188 5.02202 3.32945C4.92432 3.23701 4.80845 3.16592 4.68178 3.12072C4.57175 3.08068 4.45803 3.05163 4.34228 3.03398C4.25508 3.02053 4.16784 3.01335 4.07961 3.01251ZM3.92266 4.9074H3.84915V3.68489H4.0094C4.07976 3.67981 4.15036 3.69061 4.21598 3.71649C4.28161 3.74237 4.34058 3.78267 4.38854 3.8344C4.48792 3.9674 4.54102 4.12929 4.5397 4.29532C4.5397 4.49852 4.5397 4.68272 4.35632 4.8124C4.22422 4.88506 4.07384 4.91778 3.92349 4.90657M6.95498 3.00177C6.86329 3.00177 6.77408 3.00838 6.71131 3.01086L6.51719 3.01581H5.8729V6.9807H6.63118C6.92097 6.98865 7.20949 6.93953 7.48033 6.83615C7.69833 6.74969 7.89136 6.6103 8.04202 6.43058C8.18853 6.24923 8.29368 6.03808 8.35013 5.81189C8.41502 5.55571 8.44667 5.29225 8.44429 5.02799C8.46032 4.71589 8.43617 4.40302 8.37243 4.09707C8.31195 3.87187 8.19869 3.66431 8.04202 3.4916C7.91911 3.35214 7.76864 3.23964 7.6001 3.16119C7.45537 3.09421 7.30312 3.04485 7.14662 3.01416C7.08438 3.00388 7.02136 2.99918 6.95829 3.00012M6.80795 6.25216H6.72535V3.72123H6.73609C6.90638 3.70164 7.07868 3.73237 7.2317 3.80962C7.34376 3.8991 7.43507 4.01183 7.49933 4.14002C7.56868 4.27494 7.60865 4.42302 7.61662 4.57451C7.62406 4.75623 7.61662 4.90492 7.61662 5.02799C7.61999 5.16977 7.61086 5.31157 7.58936 5.45174C7.56391 5.59566 7.51684 5.7349 7.44977 5.86475C7.37385 5.98548 7.27128 6.08721 7.14992 6.16212C7.04801 6.22803 6.92733 6.25879 6.8063 6.24968M11 3.01581H8.99277V6.9807H9.84192V5.40796H10.9157V4.67115H9.84192V3.75262H10.9983V3.01581" fill="white"/>
</svg>
