<svg width="270" height="60" viewBox="0 0 270 60" fill="none" xmlns="http://www.w3.org/2000/svg">
<mask id="path-2-inside-1_720_88121" fill="white">
<rect x="15" y="22" width="30" height="22" rx="1"/>
</mask>
<rect x="15" y="22" width="30" height="22" rx="1" stroke="#4E16ED" stroke-width="4" mask="url(#path-2-inside-1_720_88121)"/>
<path d="M25 17H35V23H25V17Z" stroke="#4E16ED" stroke-width="2"/>
<mask id="path-4-inside-2_720_88121" fill="white">
<rect x="26" y="30" width="8" height="8" rx="1"/>
</mask>
<rect x="26" y="30" width="8" height="8" rx="1" stroke="#4E16ED" stroke-width="4" mask="url(#path-4-inside-2_720_88121)"/>
<path d="M16.5 33.5H26" stroke="#4E16ED" stroke-width="2"/>
<path d="M33.5 33.5H43" stroke="#4E16ED" stroke-width="2"/>
<g clip-path="url(#clip0_720_88121)">
<path d="M113.912 40.026H111.735V37.8498H112.823V33.4975H108.471V34.5856H106.295V32.4094C106.295 32.1208 106.41 31.8441 106.614 31.64C106.818 31.436 107.094 31.3213 107.383 31.3213H113.912C114.2 31.3213 114.477 31.436 114.681 31.64C114.885 31.8441 115 32.1208 115 32.4094V38.9379C115 39.2265 114.885 39.5033 114.681 39.7073C114.477 39.9114 114.2 40.026 113.912 40.026Z" fill="#2149A6"/>
<path d="M108.472 45.4665H101.943C101.654 45.4665 101.378 45.3518 101.174 45.1478C100.97 44.9437 100.855 44.667 100.855 44.3784V37.8499C100.855 37.5613 100.97 37.2845 101.174 37.0805C101.378 36.8764 101.654 36.7618 101.943 36.7618H108.472C108.76 36.7618 109.037 36.8764 109.241 37.0805C109.445 37.2845 109.56 37.5613 109.56 37.8499V44.3784C109.56 44.667 109.445 44.9437 109.241 45.1478C109.037 45.3518 108.76 45.4665 108.472 45.4665ZM103.031 43.2903H107.383V38.9379H103.031V43.2903ZM98.6787 34.4311C97.8925 34.2262 97.1795 33.8049 96.6207 33.2152C96.0618 32.6254 95.6796 31.8908 95.5173 31.0947C95.355 30.2986 95.4191 29.473 95.7025 28.7115C95.9858 27.9501 96.477 27.2833 97.1203 26.787C97.7635 26.2907 98.5331 25.9846 99.3415 25.9037C100.15 25.8227 100.965 25.97 101.694 26.329C102.423 26.6879 103.036 27.244 103.465 27.9341C103.894 28.6242 104.12 29.4208 104.119 30.2332H106.295C106.297 28.9883 105.942 27.7689 105.273 26.7189C104.604 25.6688 103.649 24.832 102.52 24.307C101.391 23.782 100.136 23.5907 98.9016 23.7557C97.6676 23.9207 96.5065 24.4351 95.5552 25.2382C94.6039 26.0414 93.9021 27.0998 93.5325 28.2887C93.163 29.4775 93.1411 30.7473 93.4694 31.9482C93.7977 33.1491 94.4625 34.2311 95.3855 35.0667C96.3085 35.9022 97.4511 36.4563 98.6787 36.6638V34.4311Z" fill="#2149A6"/>
<path d="M113.792 27.5674L111.279 29.7762L109.734 28.2312L112.356 25.9244L109.788 21.485L106.045 22.7472C105.168 22.0174 104.175 21.4399 103.107 21.0389L102.335 17.1762H97.1991L96.4266 21.0389C95.35 21.4287 94.3515 22.0072 93.4779 22.7472L89.7457 21.485L87.1778 25.9244L90.1374 28.5249C89.9361 29.6513 89.9361 30.8043 90.1374 31.9307L87.1778 34.5421L89.7457 38.9815L93.4887 37.7193C94.3655 38.4491 95.3586 39.0266 96.4266 39.4276L97.1991 43.2903H98.6789V45.4665H97.1991C96.6959 45.4661 96.2084 45.2913 95.8196 44.9719C95.4307 44.6525 95.1646 44.2082 95.0665 43.7147L94.5115 40.9727C94.0189 40.7324 93.5427 40.4598 93.0861 40.1566L90.4421 41.0488C90.2172 41.122 89.9822 41.1587 89.7457 41.1576C89.3635 41.1603 88.9875 41.0608 88.6566 40.8695C88.3257 40.6782 88.0518 40.4021 87.8633 40.0696L85.2954 35.6302C85.0415 35.1938 84.9471 34.6828 85.0285 34.1846C85.1099 33.6863 85.3619 33.2319 85.7415 32.8991L87.8307 31.0711C87.8089 30.7882 87.798 30.5161 87.798 30.2332C87.798 29.9503 87.8198 29.6783 87.8416 29.4063L85.7415 27.5674C85.3619 27.2346 85.1099 26.7802 85.0285 26.2819C84.9471 25.7837 85.0415 25.2726 85.2954 24.8363L87.8633 20.3969C88.0518 20.0644 88.3257 19.7882 88.6566 19.5969C88.9875 19.4057 89.3635 19.3062 89.7457 19.3088C89.9822 19.3077 90.2172 19.3445 90.4421 19.4176L93.0753 20.3099C93.5356 20.0066 94.0154 19.734 94.5115 19.4938L95.0665 16.7518C95.1646 16.2583 95.4307 15.814 95.8196 15.4946C96.2084 15.1752 96.6959 15.0004 97.1991 15H102.335C102.838 15.0004 103.326 15.1752 103.714 15.4946C104.103 15.814 104.369 16.2583 104.468 16.7518L105.022 19.4938C105.515 19.7341 105.991 20.0067 106.448 20.3099L109.092 19.4176C109.317 19.3445 109.552 19.3077 109.788 19.3088C110.171 19.3062 110.547 19.4057 110.877 19.5969C111.208 19.7882 111.482 20.0644 111.671 20.3969L114.239 24.8363C114.493 25.2726 114.587 25.7837 114.506 26.2819C114.424 26.7802 114.172 27.2346 113.792 27.5674Z" fill="#2149A6"/>
</g>
<g clip-path="url(#clip1_720_88121)">
<rect x="163" y="26.5" width="2" height="2" fill="#1A7B58"/>
<rect x="171" y="26.5" width="2" height="2" fill="#1A7B58"/>
<rect x="167" y="26.5" width="2" height="2" fill="#1A7B58"/>
<rect x="159" y="30.5" width="2" height="2" fill="#1A7B58"/>
<rect x="167" y="30.5" width="2" height="2" fill="#1A7B58"/>
<rect x="163" y="30.5" width="2" height="2" fill="#1A7B58"/>
<rect x="159" y="34.5" width="2" height="2" fill="#1A7B58"/>
<rect x="167" y="34.5" width="2" height="2" fill="#1A7B58"/>
<rect x="163" y="34.5" width="2" height="2" fill="#1A7B58"/>
<path d="M168 39.5H156V18.5H178V29.8182" stroke="#1A7B58" stroke-width="2" stroke-linejoin="round"/>
<path d="M156 23H178" stroke="#1A7B58" stroke-width="2"/>
<circle cx="175.5" cy="36" r="7.5" stroke="#1A7B58" stroke-width="2"/>
<path d="M175 32V37H179.5" stroke="#1A7B58" stroke-width="2"/>
<path d="M160.5 15V21" stroke="#1A7B58" stroke-width="2"/>
<path d="M173.5 15V21" stroke="#1A7B58" stroke-width="2"/>
</g>
<g clip-path="url(#clip2_720_88121)">
<path d="M249.328 17.9145C250.308 18.6825 250.983 19.923 251.259 21.222C251.292 21.2326 251.325 21.2456 251.356 21.261L254.424 22.68C254.595 22.7587 254.741 22.8849 254.843 23.0436C254.945 23.2023 254.999 23.3868 255 23.5755V42.126C254.999 42.2801 254.962 42.4318 254.893 42.5693C254.823 42.7068 254.722 42.8263 254.599 42.9185C254.475 43.0106 254.332 43.0729 254.181 43.1004C254.029 43.1279 253.873 43.1199 253.725 43.077L245.222 40.677L235.111 43.464C234.929 43.5141 234.736 43.512 234.555 43.458L225.711 40.8255C225.507 40.7655 225.327 40.6411 225.199 40.4708C225.071 40.3006 225.001 40.0936 225 39.8805V20.997C225 20.337 225.642 19.863 226.283 20.049L234.836 22.5405L239.182 21.21C239.242 21.1923 239.304 21.1798 239.365 21.1725C239.533 20.1885 240.003 19.2435 240.791 18.3225C241.725 17.2275 243.364 16.5855 244.962 16.509C246.619 16.4295 247.885 16.7835 249.327 17.913L249.328 17.9145ZM226.999 22.3215V39.144L234.305 41.3175V24.447L226.999 22.3215ZM239.313 23.2425L236.304 24.162V41.0805L243.902 38.9895V34.047C243.902 33.501 244.35 33.0585 244.902 33.0585C245.454 33.0585 245.901 33.501 245.901 34.0485V38.814L253 40.8165V24.204L251.321 23.424C251.292 23.589 251.256 23.751 251.211 23.9085C250.885 25.0586 250.338 26.1342 249.6 27.075L245.885 31.7145C245.787 31.8365 245.662 31.934 245.52 31.9992C245.377 32.0644 245.222 32.0955 245.066 32.0902C244.91 32.0848 244.757 32.043 244.619 31.9681C244.482 31.8933 244.364 31.7874 244.275 31.659L240.802 26.6295C240.229 25.8285 239.827 25.1145 239.601 24.4755C239.459 24.0767 239.362 23.663 239.313 23.2425ZM245.058 18.486C243.969 18.5385 242.85 18.9765 242.318 19.599C241.677 20.349 241.362 21.051 241.299 21.762C241.224 22.6185 241.275 23.223 241.488 23.8215C241.645 24.264 241.959 24.825 242.444 25.5015L245.16 29.4345L248.025 25.857C248.603 25.1183 249.031 24.2741 249.286 23.3715C249.646 22.1115 249.104 20.2605 248.087 19.4655C247.044 18.648 246.256 18.4275 245.059 18.486H245.058ZM245.265 19.5315C246.921 19.5315 248.265 20.859 248.265 22.497C248.263 22.8887 248.184 23.2762 248.032 23.6373C247.88 23.9983 247.658 24.3259 247.379 24.6013C247.101 24.8767 246.771 25.0945 246.408 25.2423C246.045 25.39 245.657 25.4649 245.265 25.4625C243.609 25.4625 242.265 24.135 242.265 22.497C242.265 20.859 243.609 19.5315 245.265 19.5315ZM245.265 21.5085C245.134 21.5077 245.005 21.5327 244.884 21.5819C244.763 21.6312 244.653 21.7037 244.56 21.7955C244.467 21.8873 244.393 21.9965 244.342 22.1169C244.292 22.2372 244.265 22.3664 244.264 22.497C244.264 23.043 244.713 23.4855 245.265 23.4855C245.396 23.4861 245.525 23.461 245.646 23.4115C245.767 23.3621 245.877 23.2893 245.97 23.1974C246.062 23.1055 246.136 22.9962 246.187 22.8757C246.237 22.7553 246.263 22.6261 246.264 22.4955C246.262 22.2323 246.156 21.9806 245.968 21.7955C245.781 21.6105 245.528 21.5073 245.265 21.5085Z" fill="#DE5508"/>
</g>
<defs>
<clipPath id="clip0_720_88121">
<rect width="30" height="30" fill="white" transform="translate(85 15)"/>
</clipPath>
<clipPath id="clip1_720_88121">
<rect width="30" height="30" fill="white" transform="translate(155 15)"/>
</clipPath>
<clipPath id="clip2_720_88121">
<rect width="30" height="30" fill="white" transform="translate(225 15)"/>
</clipPath>
</defs>
</svg>
