<svg width="257" height="114" viewBox="0 0 257 114" fill="none" xmlns="http://www.w3.org/2000/svg">
<circle cx="24.9998" cy="20.1741" r="2.65217" stroke="#4E16ED" stroke-width="2"/>
<path d="M32.826 38.9566V33.7392C32.826 29.4169 29.3221 25.9131 24.9999 25.9131V25.9131C20.6777 25.9131 17.1738 29.4169 17.1738 33.7392V38.9566" stroke="#4E16ED" stroke-width="2"/>
<g filter="url(#filter0_d_616_68386)">
<circle cx="74.9998" cy="20.1741" r="2.65217" stroke="#4E16ED" stroke-width="2"/>
<path d="M82.826 38.9566V33.7392C82.826 29.4169 79.3221 25.9131 74.9999 25.9131V25.9131C70.6777 25.9131 67.1738 29.4169 67.1738 33.7392V38.9566" stroke="#4E16ED" stroke-width="2"/>
</g>
<g filter="url(#filter1_d_616_68386)">
<path fill-rule="evenodd" clip-rule="evenodd" d="M122.391 28.7061H122.386H122.381H122.375H122.37H122.365H122.359H122.354H122.348H122.343H122.337H122.331H122.326H122.32H122.314H122.308H122.302H122.296H122.29H122.284H122.278H122.272H122.266H122.26H122.254H122.248H122.241H122.235H122.229H122.222H122.216H122.209H122.203H122.196H122.19H122.183H122.176H122.17H122.163H122.156H122.149H122.142H122.136H122.129H122.122H122.115H122.108H122.101H122.094H122.086H122.079H122.072H122.065H122.057H122.05H122.043H122.035H122.028H122.021H122.013H122.006H121.998H121.991H121.983H121.975H121.968H121.96H121.952H121.944H121.937H121.929H121.921H121.913H121.905H121.897H121.889H121.881H121.873H121.865H121.857H121.849H121.841H121.833H121.824H121.816H121.808H121.8H121.791H121.783H121.775H121.766H121.758H121.749H121.741H121.732H121.724H121.715H121.707H121.698H121.689H121.681H121.672H121.663H121.655H121.646H121.637H121.628H121.619H121.61H121.602H121.593H121.584H121.575H121.566H121.557H121.548H121.539H121.53H121.521H121.512H121.502H121.493H121.484H121.475H121.466H121.456H121.447H121.438H121.429H121.419H121.41H121.401H121.391H121.382H121.373H121.363H121.354H121.344H121.335H121.325H121.316H121.306H121.297H121.287H121.277H121.268H121.258H121.249H121.239H121.229H121.22H121.21H121.2H121.191H121.181H121.171H121.161H121.151H121.142H121.132H121.122H121.112H121.102H121.093H121.083H121.073H121.063H121.053H121.043H121.033H121.023H121.013H121.003H120.993H120.983H120.973H120.963H120.953H120.943H120.933H120.923H120.913H120.903H120.893H120.883H120.873H120.862H120.852H120.842H120.832H120.822H120.812H120.802H120.791H120.781H120.771H120.761H120.751H120.74H120.73H120.72H120.71H120.7H120.689H120.679H120.669H120.659H120.648H120.638H120.628H120.618H120.607H120.597H120.587H120.577H120.566H120.556H120.546H120.535H120.525H120.515H120.505H120.494H120.484H120.474H120.463H120.453H120.443H120.432H120.422H120.412H120.401H120.391H120.381H120.371H120.36H120.35H120.34H120.329H120.319H120.309H120.298H120.288H120.278H120.268H120.257H120.247H120.237H120.226H120.216H120.206H120.196H120.185H120.175H120.165H120.155H120.144H120.134H120.124H120.114H120.103H120.093H120.083H120.073H120.063H120.052H120.042H120.032H120.022H120.012H120.001H119.991H119.981H119.971H119.961H119.951H119.941H119.931H119.92H119.91H119.9H119.89H119.88H119.87H119.86H119.85H119.84H119.83H119.82H119.81H119.8H119.79H119.78H119.77H119.76H119.75H119.74H119.731H119.721H119.711H119.701H119.691H119.681H119.672H119.662H119.652H119.642H119.632H119.623H119.613H119.603H119.594H119.584H119.574H119.565H119.555H119.545H119.536H119.526H119.517H119.507H119.498H119.488H119.479H119.469H119.46H119.45H119.441H119.431H119.422H119.413H119.403H119.394H119.385H119.375H119.366H119.357H119.348H119.338H119.329H119.32H119.311H119.302H119.293H119.283H119.274H119.265H119.256H119.247H119.238H119.229H119.221H119.212H119.203H119.194H119.185H119.176H119.167H119.159H119.15H119.141H119.133H119.124H119.115H119.107H119.098H119.089H119.081H119.072H119.064H119.055H119.047H119.039H119.03H119.022H119.014H119.005H118.997H118.989H118.981H118.972H118.964H118.956H118.948H118.94H118.932H118.924H118.916H118.908H118.9H118.892H118.884H118.877H118.869H118.861H118.853H118.846H118.838H118.83H118.823H118.815H118.808H118.8H118.793H118.785H118.778H118.77H118.763H118.756H118.748H118.741H118.734H118.727H118.72H118.713H118.705H118.698H118.691H118.685H118.678H118.671H118.664H118.657H118.65H118.644H118.637H118.63H118.624H118.617H118.61H118.604H118.597H118.591H118.585H118.578H118.572H118.566H118.559H118.553H118.547H118.541H118.535H118.529H118.523H118.517H118.511H118.505H118.499H118.493H118.488H118.482H118.476H118.471H118.465H118.459H118.454H118.448H118.443H118.438H118.432H118.427H118.422H118.417H118.412H118.406H118.401H118.396H118.391H118.386H118.382H118.377H118.372H118.367H118.362H118.358H118.353H118.349H118.344H118.34H118.335H118.331H118.327H118.322H118.318H118.314H118.31H118.306H118.302H118.298H118.294H118.29H118.286H118.282H118.279H118.275H118.271H118.268H118.264H118.261H118.257H118.254H118.25H118.247H118.244H118.241H118.238H118.235H118.232H118.229H118.226H118.223H118.22H118.217V29.0434H116.739H116.043H114.043V31.0434V36.4347V38.4347H116.043H116.739H118.739V37.5247C120.735 37.9897 125.562 39.2113 127.35 39.8332L127.677 39.9472L128.005 39.8336L135.24 37.3293L136.105 37.0299L135.883 36.1418C135.764 35.666 135.539 35.1301 135.234 34.6658C134.945 34.2274 134.487 33.704 133.838 33.4878C133.621 33.4156 133.356 33.3849 133.145 33.3665C132.906 33.3457 132.621 33.3324 132.313 33.3243C131.944 33.3146 131.525 33.312 131.083 33.3144C131.048 33.2203 131.004 33.125 130.951 33.0296C130.649 32.4902 130.12 32.11 129.441 31.8384C129.001 31.6623 128.246 31.2667 127.353 30.7988L127.353 30.7987C126.952 30.5886 126.523 30.3639 126.082 30.138C125.4 29.788 124.705 29.4444 124.102 29.1865C123.8 29.0577 123.506 28.9435 123.238 28.86C122.989 28.7823 122.685 28.7061 122.391 28.7061ZM118.739 35.4735C120.354 35.8333 125.425 37.0999 127.673 37.8322L133.578 35.7883L133.563 35.7654C133.476 35.6337 133.392 35.5344 133.319 35.4673C133.262 35.4154 133.225 35.3947 133.212 35.388L133.202 35.3864C133.177 35.3823 133.106 35.3708 132.971 35.359C132.789 35.343 132.549 35.3312 132.261 35.3236C131.685 35.3085 130.961 35.3116 130.201 35.3254C129.003 35.3471 127.743 35.3948 126.891 35.4354L126.69 35.4449L126.502 35.3763L123.441 34.2632L124.124 32.3837L126.997 33.4283C127.301 33.4144 127.647 33.4 128.016 33.3863C127.519 33.1445 126.911 32.826 126.288 32.4997L126.288 32.4995C125.914 32.3034 125.534 32.1044 125.17 31.9176C124.496 31.572 123.852 31.2547 123.316 31.0256C123.047 30.9109 122.822 30.8251 122.643 30.7695C122.488 30.7212 122.412 30.7096 122.394 30.7069C122.389 30.7061 122.388 30.7061 122.391 30.7061H122.386H122.381H122.375H122.37H122.365H122.359H122.354H122.348H122.343H122.337H122.331H122.326H122.32H122.314H122.308H122.302H122.296H122.29H122.284H122.278H122.272H122.266H122.26H122.254H122.248H122.241H122.235H122.229H122.222H122.216H122.209H122.203H122.196H122.19H122.183H122.176H122.17H122.163H122.156H122.149H122.142H122.136H122.129H122.122H122.115H122.108H122.101H122.094H122.086H122.079H122.072H122.065H122.057H122.05H122.043H122.035H122.028H122.021H122.013H122.006H121.998H121.991H121.983H121.975H121.968H121.96H121.952H121.944H121.937H121.929H121.921H121.913H121.905H121.897H121.889H121.881H121.873H121.865H121.857H121.849H121.841H121.833H121.824H121.816H121.808H121.8H121.791H121.783H121.775H121.766H121.758H121.749H121.741H121.732H121.724H121.715H121.707H121.698H121.689H121.681H121.672H121.663H121.655H121.646H121.637H121.628H121.619H121.61H121.602H121.593H121.584H121.575H121.566H121.557H121.548H121.539H121.53H121.521H121.512H121.502H121.493H121.484H121.475H121.466H121.456H121.447H121.438H121.429H121.419H121.41H121.401H121.391H121.382H121.373H121.363H121.354H121.344H121.335H121.325H121.316H121.306H121.297H121.287H121.277H121.268H121.258H121.249H121.239H121.229H121.22H121.21H121.2H121.191H121.181H121.171H121.161H121.151H121.142H121.132H121.122H121.112H121.102H121.093H121.083H121.073H121.063H121.053H121.043H121.033H121.023H121.013H121.003H120.993H120.983H120.973H120.963H120.953H120.943H120.933H120.923H120.913H120.903H120.893H120.883H120.873H120.862H120.852H120.842H120.832H120.822H120.812H120.802H120.791H120.781H120.771H120.761H120.751H120.74H120.73H120.72H120.71H120.7H120.689H120.679H120.669H120.659H120.648H120.638H120.628H120.618H120.607H120.597H120.587H120.577H120.566H120.556H120.546H120.535H120.525H120.515H120.505H120.494H120.484H120.474H120.463H120.453H120.443H120.432H120.422H120.412H120.401H120.391H120.381H120.371H120.36H120.35H120.34H120.329H120.319H120.309H120.298H120.288H120.278H120.268H120.257H120.247H120.237H120.226H120.216H120.206H120.196H120.185H120.175H120.165H120.155H120.144H120.134H120.124H120.114H120.103H120.093H120.083H120.073H120.063H120.052H120.042H120.032H120.022H120.012H120.001H119.991H119.981H119.971H119.961H119.951H119.941H119.931H119.92H119.91H119.9H119.89H119.88H119.87H119.86H119.85H119.84H119.83H119.82H119.81H119.8H119.79H119.78H119.77H119.76H119.75H119.74H119.731H119.721H119.711H119.701H119.691H119.681H119.672H119.662H119.652H119.642H119.632H119.623H119.613H119.603H119.594H119.584H119.574H119.565H119.555H119.545H119.536H119.526H119.517H119.507H119.498H119.488H119.479H119.469H119.46H119.45H119.441H119.431H119.422H119.413H119.403H119.394H119.385H119.375H119.366H119.357H119.348H119.338H119.329H119.32H119.311H119.302H119.293H119.283H119.274H119.265H119.256H119.247H119.238H119.229H119.221H119.212H119.203H119.194H119.185H119.176H119.167H119.159H119.15H119.141H119.133H119.124H119.115H119.107H119.098H119.089H119.081H119.072H119.064H119.055H119.047H119.039H119.03H119.022H119.014H119.005H118.997H118.989H118.981H118.972H118.964H118.956H118.948H118.94H118.932H118.924H118.916H118.908H118.9H118.892H118.884H118.877H118.869H118.861H118.853H118.846H118.838H118.83H118.823H118.815H118.808H118.8H118.793H118.785H118.778H118.77H118.763H118.756H118.748H118.741H118.739V31.0434V35.4735ZM116.043 31.0434H116.739V36.4347H116.043V31.0434Z" fill="#4E16ED"/>
<path fill-rule="evenodd" clip-rule="evenodd" d="M121.348 17.6089H120.348V18.6089V27.4785V28.4785H121.348H123.957V26.4785H122.348V19.6089H130.783V31.1306H132.783V18.6089V17.6089H131.783H121.348ZM123.435 22.7393H125.522V20.7393H123.435V22.7393ZM125.522 25.348H123.435V23.348H125.522V25.348ZM127.609 22.7393H129.696V20.7393H127.609V22.7393ZM129.696 25.348H127.609V23.348H129.696V25.348ZM127.609 27.9567H129.696V25.9567H127.609V27.9567Z" fill="#4E16ED"/>
</g>
<g filter="url(#filter2_d_616_68386)">
<circle cx="175" cy="20.1741" r="2.65217" stroke="#4E16ED" stroke-width="2"/>
<path d="M182.826 38.9566V33.7392C182.826 29.4169 179.322 25.9131 175 25.9131V25.9131C170.678 25.9131 167.174 29.4169 167.174 33.7392V38.9566" stroke="#4E16ED" stroke-width="2"/>
<path d="M175 28.522V30.0872" stroke="#4E16ED" stroke-width="2"/>
<path d="M175 31.1309L175 36.3483" stroke="#4E16ED" stroke-width="2"/>
</g>
<g filter="url(#filter3_d_616_68386)">
<g clip-path="url(#clip0_616_68386)">
<path d="M216.652 23.3042H218.739" stroke="#4E16ED" stroke-width="2"/>
<path d="M229.696 30.6089H231.783" stroke="#4E16ED" stroke-width="2"/>
<path d="M232.826 30.6089H234.913" stroke="#4E16ED" stroke-width="2"/>
<path d="M229.696 33.2173H231.783" stroke="#4E16ED" stroke-width="2"/>
<path d="M232.826 33.2173H234.913" stroke="#4E16ED" stroke-width="2"/>
<path d="M229.696 35.8262H231.783" stroke="#4E16ED" stroke-width="2"/>
<path d="M217.174 37.9131H232.304" stroke="#4E16ED" stroke-width="2"/>
<path d="M232.826 35.8262H234.913" stroke="#4E16ED" stroke-width="2"/>
<path d="M216.652 26.4346H218.739" stroke="#4E16ED" stroke-width="2"/>
<path d="M220.826 23.3042H222.913" stroke="#4E16ED" stroke-width="2"/>
<path d="M219.782 16L219.782 19.6522" stroke="#4E16ED" stroke-width="2"/>
<path d="M220.826 26.4346H222.913" stroke="#4E16ED" stroke-width="2"/>
<path d="M216.652 29.5654H218.739" stroke="#4E16ED" stroke-width="2"/>
<path d="M220.826 29.5654H222.913" stroke="#4E16ED" stroke-width="2"/>
<path d="M216.652 32.6958H218.739" stroke="#4E16ED" stroke-width="2"/>
<path d="M220.826 32.6958H222.913" stroke="#4E16ED" stroke-width="2"/>
<path d="M225.522 37.9132V19.6523H214.043V37.9132" stroke="#4E16ED" stroke-width="2"/>
<path d="M236.478 37.9133V28.522H228.13V37.9133" stroke="#4E16ED" stroke-width="2"/>
</g>
</g>
<circle cx="24.9998" cy="70.1741" r="2.65217" stroke="white" stroke-width="2"/>
<path d="M32.826 88.9566V83.7392C32.826 79.4169 29.3221 75.9131 24.9999 75.9131V75.9131C20.6777 75.9131 17.1738 79.4169 17.1738 83.7392V88.9566" stroke="white" stroke-width="2"/>
<g filter="url(#filter4_d_616_68386)">
<circle cx="74.9998" cy="70.1741" r="2.65217" stroke="white" stroke-width="2"/>
<path d="M82.826 88.9566V83.7392C82.826 79.4169 79.3221 75.9131 74.9999 75.9131V75.9131C70.6777 75.9131 67.1738 79.4169 67.1738 83.7392V88.9566" stroke="white" stroke-width="2"/>
</g>
<g filter="url(#filter5_d_616_68386)">
<path fill-rule="evenodd" clip-rule="evenodd" d="M122.391 78.7061H122.386H122.381H122.375H122.37H122.365H122.359H122.354H122.348H122.343H122.337H122.331H122.326H122.32H122.314H122.308H122.302H122.296H122.29H122.284H122.278H122.272H122.266H122.26H122.254H122.248H122.241H122.235H122.229H122.222H122.216H122.209H122.203H122.196H122.19H122.183H122.176H122.17H122.163H122.156H122.149H122.142H122.136H122.129H122.122H122.115H122.108H122.101H122.094H122.086H122.079H122.072H122.065H122.057H122.05H122.043H122.035H122.028H122.021H122.013H122.006H121.998H121.991H121.983H121.975H121.968H121.96H121.952H121.944H121.937H121.929H121.921H121.913H121.905H121.897H121.889H121.881H121.873H121.865H121.857H121.849H121.841H121.833H121.824H121.816H121.808H121.8H121.791H121.783H121.775H121.766H121.758H121.749H121.741H121.732H121.724H121.715H121.707H121.698H121.689H121.681H121.672H121.663H121.655H121.646H121.637H121.628H121.619H121.61H121.602H121.593H121.584H121.575H121.566H121.557H121.548H121.539H121.53H121.521H121.512H121.502H121.493H121.484H121.475H121.466H121.456H121.447H121.438H121.429H121.419H121.41H121.401H121.391H121.382H121.373H121.363H121.354H121.344H121.335H121.325H121.316H121.306H121.297H121.287H121.277H121.268H121.258H121.249H121.239H121.229H121.22H121.21H121.2H121.191H121.181H121.171H121.161H121.151H121.142H121.132H121.122H121.112H121.102H121.093H121.083H121.073H121.063H121.053H121.043H121.033H121.023H121.013H121.003H120.993H120.983H120.973H120.963H120.953H120.943H120.933H120.923H120.913H120.903H120.893H120.883H120.873H120.862H120.852H120.842H120.832H120.822H120.812H120.802H120.791H120.781H120.771H120.761H120.751H120.74H120.73H120.72H120.71H120.7H120.689H120.679H120.669H120.659H120.648H120.638H120.628H120.618H120.607H120.597H120.587H120.577H120.566H120.556H120.546H120.535H120.525H120.515H120.505H120.494H120.484H120.474H120.463H120.453H120.443H120.432H120.422H120.412H120.401H120.391H120.381H120.371H120.36H120.35H120.34H120.329H120.319H120.309H120.298H120.288H120.278H120.268H120.257H120.247H120.237H120.226H120.216H120.206H120.196H120.185H120.175H120.165H120.155H120.144H120.134H120.124H120.114H120.103H120.093H120.083H120.073H120.063H120.052H120.042H120.032H120.022H120.012H120.001H119.991H119.981H119.971H119.961H119.951H119.941H119.931H119.92H119.91H119.9H119.89H119.88H119.87H119.86H119.85H119.84H119.83H119.82H119.81H119.8H119.79H119.78H119.77H119.76H119.75H119.74H119.731H119.721H119.711H119.701H119.691H119.681H119.672H119.662H119.652H119.642H119.632H119.623H119.613H119.603H119.594H119.584H119.574H119.565H119.555H119.545H119.536H119.526H119.517H119.507H119.498H119.488H119.479H119.469H119.46H119.45H119.441H119.431H119.422H119.413H119.403H119.394H119.385H119.375H119.366H119.357H119.348H119.338H119.329H119.32H119.311H119.302H119.293H119.283H119.274H119.265H119.256H119.247H119.238H119.229H119.221H119.212H119.203H119.194H119.185H119.176H119.167H119.159H119.15H119.141H119.133H119.124H119.115H119.107H119.098H119.089H119.081H119.072H119.064H119.055H119.047H119.039H119.03H119.022H119.014H119.005H118.997H118.989H118.981H118.972H118.964H118.956H118.948H118.94H118.932H118.924H118.916H118.908H118.9H118.892H118.884H118.877H118.869H118.861H118.853H118.846H118.838H118.83H118.823H118.815H118.808H118.8H118.793H118.785H118.778H118.77H118.763H118.756H118.748H118.741H118.734H118.727H118.72H118.713H118.705H118.698H118.691H118.685H118.678H118.671H118.664H118.657H118.65H118.644H118.637H118.63H118.624H118.617H118.61H118.604H118.597H118.591H118.585H118.578H118.572H118.566H118.559H118.553H118.547H118.541H118.535H118.529H118.523H118.517H118.511H118.505H118.499H118.493H118.488H118.482H118.476H118.471H118.465H118.459H118.454H118.448H118.443H118.438H118.432H118.427H118.422H118.417H118.412H118.406H118.401H118.396H118.391H118.386H118.382H118.377H118.372H118.367H118.362H118.358H118.353H118.349H118.344H118.34H118.335H118.331H118.327H118.322H118.318H118.314H118.31H118.306H118.302H118.298H118.294H118.29H118.286H118.282H118.279H118.275H118.271H118.268H118.264H118.261H118.257H118.254H118.25H118.247H118.244H118.241H118.238H118.235H118.232H118.229H118.226H118.223H118.22H118.217V79.0434H116.739H116.043H114.043V81.0434V86.4347V88.4347H116.043H116.739H118.739V87.5247C120.735 87.9897 125.562 89.2113 127.35 89.8332L127.677 89.9472L128.005 89.8336L135.24 87.3293L136.105 87.0299L135.883 86.1418C135.764 85.666 135.539 85.1301 135.234 84.6658C134.945 84.2274 134.487 83.704 133.838 83.4878C133.621 83.4156 133.356 83.3849 133.145 83.3665C132.906 83.3457 132.621 83.3324 132.313 83.3243C131.944 83.3146 131.525 83.312 131.083 83.3144C131.048 83.2203 131.004 83.125 130.951 83.0296C130.649 82.4902 130.12 82.11 129.441 81.8384C129.001 81.6623 128.246 81.2667 127.353 80.7988L127.353 80.7987C126.952 80.5886 126.523 80.3639 126.082 80.138C125.4 79.788 124.705 79.4444 124.102 79.1865C123.8 79.0577 123.506 78.9435 123.238 78.86C122.989 78.7823 122.685 78.7061 122.391 78.7061ZM118.739 85.4735C120.354 85.8333 125.425 87.0999 127.673 87.8322L133.578 85.7883L133.563 85.7654C133.476 85.6337 133.392 85.5344 133.319 85.4673C133.262 85.4154 133.225 85.3947 133.212 85.388L133.202 85.3864C133.177 85.3823 133.106 85.3708 132.971 85.359C132.789 85.343 132.549 85.3312 132.261 85.3236C131.685 85.3085 130.961 85.3116 130.201 85.3254C129.003 85.3471 127.743 85.3948 126.891 85.4354L126.69 85.4449L126.502 85.3763L123.441 84.2632L124.124 82.3837L126.997 83.4283C127.301 83.4144 127.647 83.4 128.016 83.3863C127.519 83.1445 126.911 82.826 126.288 82.4997L126.288 82.4995C125.914 82.3034 125.534 82.1044 125.17 81.9176C124.496 81.572 123.852 81.2547 123.316 81.0256C123.047 80.9109 122.822 80.8251 122.643 80.7695C122.488 80.7212 122.412 80.7096 122.394 80.7069C122.389 80.7061 122.388 80.7061 122.391 80.7061H122.386H122.381H122.375H122.37H122.365H122.359H122.354H122.348H122.343H122.337H122.331H122.326H122.32H122.314H122.308H122.302H122.296H122.29H122.284H122.278H122.272H122.266H122.26H122.254H122.248H122.241H122.235H122.229H122.222H122.216H122.209H122.203H122.196H122.19H122.183H122.176H122.17H122.163H122.156H122.149H122.142H122.136H122.129H122.122H122.115H122.108H122.101H122.094H122.086H122.079H122.072H122.065H122.057H122.05H122.043H122.035H122.028H122.021H122.013H122.006H121.998H121.991H121.983H121.975H121.968H121.96H121.952H121.944H121.937H121.929H121.921H121.913H121.905H121.897H121.889H121.881H121.873H121.865H121.857H121.849H121.841H121.833H121.824H121.816H121.808H121.8H121.791H121.783H121.775H121.766H121.758H121.749H121.741H121.732H121.724H121.715H121.707H121.698H121.689H121.681H121.672H121.663H121.655H121.646H121.637H121.628H121.619H121.61H121.602H121.593H121.584H121.575H121.566H121.557H121.548H121.539H121.53H121.521H121.512H121.502H121.493H121.484H121.475H121.466H121.456H121.447H121.438H121.429H121.419H121.41H121.401H121.391H121.382H121.373H121.363H121.354H121.344H121.335H121.325H121.316H121.306H121.297H121.287H121.277H121.268H121.258H121.249H121.239H121.229H121.22H121.21H121.2H121.191H121.181H121.171H121.161H121.151H121.142H121.132H121.122H121.112H121.102H121.093H121.083H121.073H121.063H121.053H121.043H121.033H121.023H121.013H121.003H120.993H120.983H120.973H120.963H120.953H120.943H120.933H120.923H120.913H120.903H120.893H120.883H120.873H120.862H120.852H120.842H120.832H120.822H120.812H120.802H120.791H120.781H120.771H120.761H120.751H120.74H120.73H120.72H120.71H120.7H120.689H120.679H120.669H120.659H120.648H120.638H120.628H120.618H120.607H120.597H120.587H120.577H120.566H120.556H120.546H120.535H120.525H120.515H120.505H120.494H120.484H120.474H120.463H120.453H120.443H120.432H120.422H120.412H120.401H120.391H120.381H120.371H120.36H120.35H120.34H120.329H120.319H120.309H120.298H120.288H120.278H120.268H120.257H120.247H120.237H120.226H120.216H120.206H120.196H120.185H120.175H120.165H120.155H120.144H120.134H120.124H120.114H120.103H120.093H120.083H120.073H120.063H120.052H120.042H120.032H120.022H120.012H120.001H119.991H119.981H119.971H119.961H119.951H119.941H119.931H119.92H119.91H119.9H119.89H119.88H119.87H119.86H119.85H119.84H119.83H119.82H119.81H119.8H119.79H119.78H119.77H119.76H119.75H119.74H119.731H119.721H119.711H119.701H119.691H119.681H119.672H119.662H119.652H119.642H119.632H119.623H119.613H119.603H119.594H119.584H119.574H119.565H119.555H119.545H119.536H119.526H119.517H119.507H119.498H119.488H119.479H119.469H119.46H119.45H119.441H119.431H119.422H119.413H119.403H119.394H119.385H119.375H119.366H119.357H119.348H119.338H119.329H119.32H119.311H119.302H119.293H119.283H119.274H119.265H119.256H119.247H119.238H119.229H119.221H119.212H119.203H119.194H119.185H119.176H119.167H119.159H119.15H119.141H119.133H119.124H119.115H119.107H119.098H119.089H119.081H119.072H119.064H119.055H119.047H119.039H119.03H119.022H119.014H119.005H118.997H118.989H118.981H118.972H118.964H118.956H118.948H118.94H118.932H118.924H118.916H118.908H118.9H118.892H118.884H118.877H118.869H118.861H118.853H118.846H118.838H118.83H118.823H118.815H118.808H118.8H118.793H118.785H118.778H118.77H118.763H118.756H118.748H118.741H118.739V81.0434V85.4735ZM116.043 81.0434H116.739V86.4347H116.043V81.0434Z" fill="white"/>
<path fill-rule="evenodd" clip-rule="evenodd" d="M121.348 67.6089H120.348V68.6089V77.4785V78.4785H121.348H123.957V76.4785H122.348V69.6089H130.783V81.1306H132.783V68.6089V67.6089H131.783H121.348ZM123.435 72.7393H125.522V70.7393H123.435V72.7393ZM125.522 75.348H123.435V73.348H125.522V75.348ZM127.609 72.7393H129.696V70.7393H127.609V72.7393ZM129.696 75.348H127.609V73.348H129.696V75.348ZM127.609 77.9567H129.696V75.9567H127.609V77.9567Z" fill="white"/>
</g>
<g filter="url(#filter6_d_616_68386)">
<circle cx="175" cy="70.1741" r="2.65217" stroke="white" stroke-width="2"/>
<path d="M182.826 88.9566V83.7392C182.826 79.4169 179.322 75.9131 175 75.9131V75.9131C170.678 75.9131 167.174 79.4169 167.174 83.7392V88.9566" stroke="white" stroke-width="2"/>
<path d="M175 78.522V80.0872" stroke="white" stroke-width="2"/>
<path d="M175 81.1309L175 86.3483" stroke="white" stroke-width="2"/>
</g>
<g filter="url(#filter7_d_616_68386)">
<g clip-path="url(#clip1_616_68386)">
<path d="M216.652 73.3042H218.739" stroke="white" stroke-width="2"/>
<path d="M229.696 80.6089H231.783" stroke="white" stroke-width="2"/>
<path d="M232.826 80.6089H234.913" stroke="white" stroke-width="2"/>
<path d="M229.696 83.2173H231.783" stroke="white" stroke-width="2"/>
<path d="M232.826 83.2173H234.913" stroke="white" stroke-width="2"/>
<path d="M229.696 85.8262H231.783" stroke="white" stroke-width="2"/>
<path d="M217.174 87.9131H232.304" stroke="white" stroke-width="2"/>
<path d="M232.826 85.8262H234.913" stroke="white" stroke-width="2"/>
<path d="M216.652 76.4346H218.739" stroke="white" stroke-width="2"/>
<path d="M220.826 73.3042H222.913" stroke="white" stroke-width="2"/>
<path d="M219.782 66L219.782 69.6522" stroke="white" stroke-width="2"/>
<path d="M220.826 76.4346H222.913" stroke="white" stroke-width="2"/>
<path d="M216.652 79.5654H218.739" stroke="white" stroke-width="2"/>
<path d="M220.826 79.5654H222.913" stroke="white" stroke-width="2"/>
<path d="M216.652 82.6958H218.739" stroke="white" stroke-width="2"/>
<path d="M220.826 82.6958H222.913" stroke="white" stroke-width="2"/>
<path d="M225.522 87.9132V69.6523H214.043V87.9132" stroke="white" stroke-width="2"/>
<path d="M236.478 87.9133V78.522H228.13V87.9133" stroke="white" stroke-width="2"/>
</g>
</g>
<defs>
<filter id="filter0_d_616_68386" x="30" y="-13" width="90" height="90" filterUnits="userSpaceOnUse" color-interpolation-filters="sRGB">
<feFlood flood-opacity="0" result="BackgroundImageFix"/>
<feColorMatrix in="SourceAlpha" type="matrix" values="0 0 0 0 0 0 0 0 0 0 0 0 0 0 0 0 0 0 127 0" result="hardAlpha"/>
<feOffset dy="4"/>
<feGaussianBlur stdDeviation="10"/>
<feComposite in2="hardAlpha" operator="out"/>
<feColorMatrix type="matrix" values="0 0 0 0 0 0 0 0 0 0 0 0 0 0 0 0 0 0 0.15 0"/>
<feBlend mode="normal" in2="BackgroundImageFix" result="effect1_dropShadow_616_68386"/>
<feBlend mode="normal" in="SourceGraphic" in2="effect1_dropShadow_616_68386" result="shape"/>
</filter>
<filter id="filter1_d_616_68386" x="80" y="-13" width="90" height="90" filterUnits="userSpaceOnUse" color-interpolation-filters="sRGB">
<feFlood flood-opacity="0" result="BackgroundImageFix"/>
<feColorMatrix in="SourceAlpha" type="matrix" values="0 0 0 0 0 0 0 0 0 0 0 0 0 0 0 0 0 0 127 0" result="hardAlpha"/>
<feOffset dy="4"/>
<feGaussianBlur stdDeviation="10"/>
<feComposite in2="hardAlpha" operator="out"/>
<feColorMatrix type="matrix" values="0 0 0 0 0 0 0 0 0 0 0 0 0 0 0 0 0 0 0.15 0"/>
<feBlend mode="normal" in2="BackgroundImageFix" result="effect1_dropShadow_616_68386"/>
<feBlend mode="normal" in="SourceGraphic" in2="effect1_dropShadow_616_68386" result="shape"/>
</filter>
<filter id="filter2_d_616_68386" x="130" y="-13" width="90" height="90" filterUnits="userSpaceOnUse" color-interpolation-filters="sRGB">
<feFlood flood-opacity="0" result="BackgroundImageFix"/>
<feColorMatrix in="SourceAlpha" type="matrix" values="0 0 0 0 0 0 0 0 0 0 0 0 0 0 0 0 0 0 127 0" result="hardAlpha"/>
<feOffset dy="4"/>
<feGaussianBlur stdDeviation="10"/>
<feComposite in2="hardAlpha" operator="out"/>
<feColorMatrix type="matrix" values="0 0 0 0 0 0 0 0 0 0 0 0 0 0 0 0 0 0 0.15 0"/>
<feBlend mode="normal" in2="BackgroundImageFix" result="effect1_dropShadow_616_68386"/>
<feBlend mode="normal" in="SourceGraphic" in2="effect1_dropShadow_616_68386" result="shape"/>
</filter>
<filter id="filter3_d_616_68386" x="180" y="-13" width="90" height="90" filterUnits="userSpaceOnUse" color-interpolation-filters="sRGB">
<feFlood flood-opacity="0" result="BackgroundImageFix"/>
<feColorMatrix in="SourceAlpha" type="matrix" values="0 0 0 0 0 0 0 0 0 0 0 0 0 0 0 0 0 0 127 0" result="hardAlpha"/>
<feOffset dy="4"/>
<feGaussianBlur stdDeviation="10"/>
<feComposite in2="hardAlpha" operator="out"/>
<feColorMatrix type="matrix" values="0 0 0 0 0 0 0 0 0 0 0 0 0 0 0 0 0 0 0.15 0"/>
<feBlend mode="normal" in2="BackgroundImageFix" result="effect1_dropShadow_616_68386"/>
<feBlend mode="normal" in="SourceGraphic" in2="effect1_dropShadow_616_68386" result="shape"/>
</filter>
<filter id="filter4_d_616_68386" x="30" y="37" width="90" height="90" filterUnits="userSpaceOnUse" color-interpolation-filters="sRGB">
<feFlood flood-opacity="0" result="BackgroundImageFix"/>
<feColorMatrix in="SourceAlpha" type="matrix" values="0 0 0 0 0 0 0 0 0 0 0 0 0 0 0 0 0 0 127 0" result="hardAlpha"/>
<feOffset dy="4"/>
<feGaussianBlur stdDeviation="10"/>
<feComposite in2="hardAlpha" operator="out"/>
<feColorMatrix type="matrix" values="0 0 0 0 0 0 0 0 0 0 0 0 0 0 0 0 0 0 0.15 0"/>
<feBlend mode="normal" in2="BackgroundImageFix" result="effect1_dropShadow_616_68386"/>
<feBlend mode="normal" in="SourceGraphic" in2="effect1_dropShadow_616_68386" result="shape"/>
</filter>
<filter id="filter5_d_616_68386" x="80" y="37" width="90" height="90" filterUnits="userSpaceOnUse" color-interpolation-filters="sRGB">
<feFlood flood-opacity="0" result="BackgroundImageFix"/>
<feColorMatrix in="SourceAlpha" type="matrix" values="0 0 0 0 0 0 0 0 0 0 0 0 0 0 0 0 0 0 127 0" result="hardAlpha"/>
<feOffset dy="4"/>
<feGaussianBlur stdDeviation="10"/>
<feComposite in2="hardAlpha" operator="out"/>
<feColorMatrix type="matrix" values="0 0 0 0 0 0 0 0 0 0 0 0 0 0 0 0 0 0 0.15 0"/>
<feBlend mode="normal" in2="BackgroundImageFix" result="effect1_dropShadow_616_68386"/>
<feBlend mode="normal" in="SourceGraphic" in2="effect1_dropShadow_616_68386" result="shape"/>
</filter>
<filter id="filter6_d_616_68386" x="130" y="37" width="90" height="90" filterUnits="userSpaceOnUse" color-interpolation-filters="sRGB">
<feFlood flood-opacity="0" result="BackgroundImageFix"/>
<feColorMatrix in="SourceAlpha" type="matrix" values="0 0 0 0 0 0 0 0 0 0 0 0 0 0 0 0 0 0 127 0" result="hardAlpha"/>
<feOffset dy="4"/>
<feGaussianBlur stdDeviation="10"/>
<feComposite in2="hardAlpha" operator="out"/>
<feColorMatrix type="matrix" values="0 0 0 0 0 0 0 0 0 0 0 0 0 0 0 0 0 0 0.15 0"/>
<feBlend mode="normal" in2="BackgroundImageFix" result="effect1_dropShadow_616_68386"/>
<feBlend mode="normal" in="SourceGraphic" in2="effect1_dropShadow_616_68386" result="shape"/>
</filter>
<filter id="filter7_d_616_68386" x="180" y="37" width="90" height="90" filterUnits="userSpaceOnUse" color-interpolation-filters="sRGB">
<feFlood flood-opacity="0" result="BackgroundImageFix"/>
<feColorMatrix in="SourceAlpha" type="matrix" values="0 0 0 0 0 0 0 0 0 0 0 0 0 0 0 0 0 0 127 0" result="hardAlpha"/>
<feOffset dy="4"/>
<feGaussianBlur stdDeviation="10"/>
<feComposite in2="hardAlpha" operator="out"/>
<feColorMatrix type="matrix" values="0 0 0 0 0 0 0 0 0 0 0 0 0 0 0 0 0 0 0.15 0"/>
<feBlend mode="normal" in2="BackgroundImageFix" result="effect1_dropShadow_616_68386"/>
<feBlend mode="normal" in="SourceGraphic" in2="effect1_dropShadow_616_68386" result="shape"/>
</filter>
<clipPath id="clip0_616_68386">
<rect width="24" height="24" fill="white" transform="translate(213 16)"/>
</clipPath>
<clipPath id="clip1_616_68386">
<rect width="24" height="24" fill="white" transform="translate(213 66)"/>
</clipPath>
</defs>
</svg>
