<svg width="48" height="48" viewBox="0 0 48 48" fill="none" xmlns="http://www.w3.org/2000/svg">
<path d="M30 5.40039H34" stroke="#4E16ED" stroke-width="2"/>
<path d="M30 10.6797H34" stroke="#4E16ED" stroke-width="2"/>
<path d="M38 5.40039H42" stroke="#4E16ED" stroke-width="2"/>
<path d="M38 10.6797H42" stroke="#4E16ED" stroke-width="2"/>
<path d="M30 15.9609H34" stroke="#4E16ED" stroke-width="2"/>
<path d="M38 15.9609H42" stroke="#4E16ED" stroke-width="2"/>
<path d="M30 21.2402H34" stroke="#4E16ED" stroke-width="2"/>
<path d="M38 21.2402H42" stroke="#4E16ED" stroke-width="2"/>
<path d="M46 23V3C46 1.89543 45.1046 1 44 1H28C26.8954 1 26 1.89543 26 3V23" stroke="#4E16ED" stroke-width="2" stroke-linecap="round"/>
<path d="M30 29.4004H34" stroke="white" stroke-width="2"/>
<path d="M30 34.6797H34" stroke="white" stroke-width="2"/>
<path d="M38 29.4004H42" stroke="white" stroke-width="2"/>
<path d="M38 34.6797H42" stroke="white" stroke-width="2"/>
<path d="M30 39.9609H34" stroke="white" stroke-width="2"/>
<path d="M38 39.9609H42" stroke="white" stroke-width="2"/>
<path d="M30 45.2402H34" stroke="white" stroke-width="2"/>
<path d="M38 45.2402H42" stroke="white" stroke-width="2"/>
<path d="M46 47V27C46 25.8954 45.1046 25 44 25H28C26.8954 25 26 25.8954 26 27V47" stroke="white" stroke-width="2" stroke-linecap="round"/>
<circle cx="12" cy="5" r="4" stroke="#4E16ED" stroke-width="2"/>
<path d="M21 23V18C21 15.2386 18.7614 13 16 13H8C5.23858 13 3 15.2386 3 18V23" stroke="#4E16ED" stroke-width="2" stroke-linecap="round"/>
<circle cx="12" cy="29" r="4" stroke="white" stroke-width="2"/>
<path d="M21 47V42C21 39.2386 18.7614 37 16 37H8C5.23858 37 3 39.2386 3 42V47" stroke="white" stroke-width="2" stroke-linecap="round"/>
</svg>
