<svg width="270" height="54" viewBox="0 0 270 54" fill="none" xmlns="http://www.w3.org/2000/svg">
<mask id="path-1-inside-1_525_57149" fill="white">
<path fill-rule="evenodd" clip-rule="evenodd" d="M248.285 37.6959C248.387 37.067 248.788 36.5335 249.329 36.1969C252.734 34.0793 255 30.3043 255 26C255 19.3726 249.627 14 243 14C236.373 14 231 19.3726 231 26C231 30.3043 233.266 34.0793 236.671 36.1969C237.212 36.5335 237.613 37.067 237.715 37.6959L238.442 42.1772C238.599 43.1456 239.435 43.8571 240.416 43.8571H245.584C246.565 43.8571 247.401 43.1456 247.558 42.1772L248.285 37.6959Z"/>
</mask>
<path d="M236.671 36.1969L235.614 37.8952L236.671 36.1969ZM247.558 42.1772L245.584 41.8571L247.558 42.1772ZM248.285 37.6959L250.259 38.0161L248.285 37.6959ZM253 26C253 29.5847 251.115 32.7307 248.273 34.4987L250.386 37.8952C254.352 35.4278 257 31.0239 257 26H253ZM243 16C248.523 16 253 20.4772 253 26H257C257 18.268 250.732 12 243 12V16ZM233 26C233 20.4772 237.477 16 243 16V12C235.268 12 229 18.268 229 26H233ZM237.727 34.4987C234.885 32.7307 233 29.5847 233 26H229C229 31.0239 231.648 35.4278 235.614 37.8952L237.727 34.4987ZM240.416 41.8571L239.689 37.3758L235.741 38.0161L236.468 42.4974L240.416 41.8571ZM245.584 41.8571H240.416V45.8571H245.584V41.8571ZM246.311 37.3758L245.584 41.8571L249.532 42.4974L250.259 38.0161L246.311 37.3758ZM236.468 42.4974C236.782 44.4341 238.454 45.8571 240.416 45.8571V41.8571L240.416 41.8571L236.468 42.4974ZM235.614 37.8952C235.673 37.9318 235.709 37.9704 235.728 37.9963C235.745 38.02 235.743 38.0267 235.741 38.0161L239.689 37.3758C239.481 36.0901 238.679 35.091 237.727 34.4987L235.614 37.8952ZM245.584 45.8571C247.546 45.8571 249.218 44.4341 249.532 42.4974L245.584 41.8571L245.584 41.8571V45.8571ZM248.273 34.4987C247.321 35.091 246.519 36.0901 246.311 37.3758L250.259 38.0161C250.257 38.0267 250.255 38.02 250.272 37.9963C250.291 37.9704 250.327 37.9318 250.386 37.8952L248.273 34.4987Z" fill="white" mask="url(#path-1-inside-1_525_57149)"/>
<path d="M243 7V3" stroke="white" stroke-width="2" stroke-linecap="round"/>
<path d="M221 26H225" stroke="white" stroke-width="2" stroke-linecap="round"/>
<path d="M261 26H265" stroke="white" stroke-width="2" stroke-linecap="round"/>
<path d="M227.443 41.5564L230.272 38.728" stroke="white" stroke-width="2" stroke-linecap="round"/>
<path d="M255.728 13.2721L258.556 10.4437" stroke="white" stroke-width="2" stroke-linecap="round"/>
<path d="M227.443 10.4438L230.272 13.2723" stroke="white" stroke-width="2" stroke-linecap="round"/>
<path d="M255.728 38.728L258.556 41.5565" stroke="white" stroke-width="2" stroke-linecap="round"/>
<path d="M240 48H246" stroke="white" stroke-width="2" stroke-linecap="round"/>
<path d="M175.5 36.54C176 36.04 180 32.29 181.5 31.54C183 30.79 190 31.04 192.5 31.04C195 31.04 196.117 32.0061 196.5 33.54C196.883 35.0739 196 36.54 194.5 37.54M175.5 36.54V47.04M175.5 36.54H169.5C168.5 36.54 168 37.64 168.001 38.04C168.001 38.44 168 43.04 168 45.54C168 46.04 168.5 47.04 169.5 47.04C170.5 47.04 175.5 47.04 175.5 47.04M194.5 37.54L203 35.04C206 34.04 207.5 35.04 208 36.04C208.5 37.04 208.265 39.3633 206.5 40.54C205 41.5401 201.5 43.54 200.5 44.04C199.5 44.54 190 47.04 189 47.04C188 47.04 175.5 47.04 175.5 47.04M194.5 37.54C194.5 37.54 193 37.9567 192.5 38.04C192 38.1234 187 38.54 187 38.54" stroke="white" stroke-width="2" stroke-linecap="round" stroke-linejoin="round"/>
<path d="M187.062 11.1617C187.213 11.5734 187.616 11.8382 188.054 11.8145C188.492 11.7908 188.864 11.4842 188.97 11.0585C189.417 9.27202 190.279 8.19814 191.239 7.61288C192.21 7.02094 193.382 6.86775 194.547 7.10974C196.911 7.60129 199 9.65229 199 12.416C199 13.7783 198.377 15.253 197.309 16.7583C196.25 18.2521 194.816 19.6848 193.349 20.942C191.887 22.1953 190.42 23.2504 189.317 23.9934C188.772 24.3597 188.318 24.6487 188 24.8465C187.682 24.6487 187.228 24.3597 186.683 23.9934C185.58 23.2504 184.113 22.1953 182.651 20.942C181.184 19.6848 179.75 18.2521 178.691 16.7583C177.623 15.253 177 13.7783 177 12.416C177 9.61713 178.925 7.69851 181.143 7.26188C183.292 6.83892 185.825 7.80433 187.062 11.1617Z" stroke="white" stroke-width="2" stroke-linejoin="round"/>
<path d="M134.611 42.8981C132.214 45.2872 128.907 46.7641 125.255 46.7641C117.934 46.7641 112 40.8298 112 33.5094C112 27.4037 116.128 22.2622 121.746 20.7241" stroke="white" stroke-width="2"/>
<ellipse cx="144.745" cy="33.5095" rx="13.2546" ry="13.2546" stroke="white" stroke-width="2"/>
<path d="M148.642 20.2546C148.642 12.9343 142.707 7 135.387 7C128.067 7 122.132 12.9343 122.132 20.2546C122.132 26.2182 126.071 31.262 131.489 32.9267" stroke="white" stroke-width="2"/>
<rect x="59.9995" y="14.7857" width="42" height="32" rx="1" stroke="white" stroke-width="2" stroke-linejoin="round"/>
<path d="M60.981 30H74.981" stroke="white" stroke-width="2" stroke-linecap="square" stroke-linejoin="round"/>
<path d="M87.5083 30H101.508" stroke="white" stroke-width="2" stroke-linecap="square" stroke-linejoin="round"/>
<rect x="75.9995" y="25" width="10" height="10" rx="1" stroke="white" stroke-width="2" stroke-linejoin="round"/>
<path d="M87.9995 15V9.99997C87.9995 8.8954 87.1041 7.99997 85.9995 7.99997H75.9995C74.8949 7.99997 73.9995 8.8954 73.9995 9.99997V15" stroke="white" stroke-width="2" stroke-linejoin="round"/>
<path d="M13.7939 46.9756C13.7939 46.9756 13.7939 43.3717 13.7939 42.795C13.7939 42.0022 7.05183 34.0015 7.05183 34.0015C7.05183 34.0015 6.6216 33.4248 6.47816 32.9924C6.33472 32.5599 6.1912 31.8835 6.19127 31.2625C6.19134 30.6414 6.00002 21.2195 6 20.2104C5.99997 18.8649 7.07541 18 8.34292 18C9.34702 18 10.3512 19.0091 10.3512 19.7299C10.3512 20.4507 10.3512 28.8118 10.3512 28.956C10.3512 29.8209 10.7813 30.3975 10.7813 30.3975L11.2683 30.9445M15.6585 35.8755L11.2683 30.9445M11.2683 30.9445C11.2683 30.9445 10.8293 29.4146 11.2683 28.5366C11.7073 27.6585 12.1463 27.4392 12.5854 27.2195C13.0244 26.9998 14.1631 27.0412 14.7805 27.6585C15.2195 28.0976 23.122 35.8755 23.122 35.8755C23.122 35.8755 24 36.7409 24 37.7561C24 38.1073 24 43.7561 24 46.9756" stroke="white" stroke-width="2" stroke-linecap="round"/>
<path d="M39.7061 46.9756C39.7061 46.9756 39.7061 43.3717 39.7061 42.795C39.7061 42.0022 46.4482 34.0015 46.4482 34.0015C46.4482 34.0015 46.8784 33.4248 47.0218 32.9924C47.1653 32.5599 47.3088 31.8835 47.3087 31.2625C47.3087 30.6414 47.5 21.2195 47.5 20.2104C47.5 18.8649 46.4246 18 45.1571 18C44.153 18 43.1488 19.0091 43.1488 19.7299C43.1488 20.4507 43.1488 28.8118 43.1488 28.956C43.1488 29.8209 42.7187 30.3975 42.7187 30.3975L42.2317 30.9445M37.8415 35.8755L42.2317 30.9445M42.2317 30.9445C42.2317 30.9445 42.6707 29.4146 42.2317 28.5366C41.7927 27.6585 41.3537 27.4392 40.9146 27.2195C40.4756 26.9998 39.3369 27.0412 38.7195 27.6585C38.2805 28.0976 30.378 35.8755 30.378 35.8755C30.378 35.8755 29.5 36.7409 29.5 37.7561C29.5 38.1073 29.5 43.7561 29.5 46.9756" stroke="white" stroke-width="2" stroke-linecap="round"/>
<path fill-rule="evenodd" clip-rule="evenodd" d="M19 11C19 9.89543 19.8954 9 21 9C22.1046 9 23 9.89543 23 11C23 12.1046 22.1046 13 21 13C19.8954 13 19 12.1046 19 11ZM23.0251 14.4503C22.4311 14.7996 21.7389 15 21 15C19.3431 15 18 16.3431 18 18V21C18 21.5523 17.5523 22 17 22C16.4477 22 16 21.5523 16 21V18C16 16.2759 16.8726 14.7557 18.2002 13.8568C17.4595 13.1308 17 12.1191 17 11C17 8.79086 18.7909 7 21 7C23.0569 7 24.7512 8.55257 24.9749 10.5498C25.5689 10.2004 26.2611 10 27 10C27.7389 10 28.4311 10.2004 29.0251 10.5498C29.2488 8.55257 30.9431 7 33 7C35.2091 7 37 8.79086 37 11C37 12.1191 36.5405 13.1308 35.7998 13.8568C37.1274 14.7557 38 16.2759 38 18V21C38 21.5523 37.5523 22 37 22C36.4477 22 36 21.5523 36 21V18C36 16.3431 34.6569 15 33 15C32.2611 15 31.5689 14.7996 30.9749 14.4503C30.8698 15.389 30.4397 16.2296 29.7998 16.8568C31.1274 17.7557 32 19.2759 32 21V23C32 23.5523 31.5523 24 31 24C30.4477 24 30 23.5523 30 23V21C30 19.3431 28.6569 18 27 18C25.3431 18 24 19.3431 24 21V23C24 23.5523 23.5523 24 23 24C22.4477 24 22 23.5523 22 23V21C22 19.2759 22.8726 17.7557 24.2002 16.8568C23.5603 16.2296 23.1302 15.389 23.0251 14.4503ZM35 11C35 9.89543 34.1046 9 33 9C31.8954 9 31 9.89543 31 11C31 12.1046 31.8954 13 33 13C34.1046 13 35 12.1046 35 11ZM27 12C25.8954 12 25 12.8954 25 14C25 15.1046 25.8954 16 27 16C28.1046 16 29 15.1046 29 14C29 12.8954 28.1046 12 27 12Z" fill="white"/>
</svg>
