<svg width="300" height="100" viewBox="0 0 300 100" fill="none" xmlns="http://www.w3.org/2000/svg">
<circle cx="50" cy="50" r="38" fill="#EEE7FF"/>
<circle cx="9.5" cy="9.5" r="9.5" fill="#EEE7FF"/>
<circle cx="5.5" cy="35.5" r="3" stroke="#875EFF"/>
<circle cx="88.5" cy="14.5" r="5" stroke="#875EFF"/>
<path fill-rule="evenodd" clip-rule="evenodd" d="M61.7361 25.3506C61.885 24.7341 62.0701 24.1139 62.2987 23.4837L61.3586 23.1427C61.1172 23.8083 60.9215 24.464 60.7641 25.1157L61.7361 25.3506ZM63.0606 21.6837C63.1998 21.396 63.3489 21.105 63.5085 20.8103C63.6495 20.5497 63.7983 20.2977 63.9543 20.0541L63.1123 19.5147C62.9429 19.7791 62.7818 20.0521 62.6291 20.3341C62.4624 20.6419 62.3064 20.9464 62.1604 21.2482L63.0606 21.6837ZM61.2079 29.2271C61.2396 28.5655 61.2943 27.9159 61.38 27.2708L60.3887 27.1391C60.2988 27.816 60.2419 28.4939 60.209 29.1792L61.2079 29.2271ZM65.0063 18.6554C65.3938 18.2137 65.8115 17.8051 66.2567 17.4273L65.6096 16.6649C65.1283 17.0733 64.6755 17.5161 64.2546 17.9959L65.0063 18.6554ZM61.2206 33.197C61.1961 32.5127 61.178 31.851 61.173 31.2051L60.1731 31.2128C60.1782 31.8717 60.1966 32.5435 60.2212 33.2327L61.2206 33.197ZM67.6725 16.3834C68.1633 16.0691 68.6787 15.7822 69.2163 15.5207L68.7788 14.6214C68.2087 14.8988 67.659 15.2045 67.1333 15.5412L67.6725 16.3834ZM61.3409 36.2046C61.328 35.8638 61.3145 35.5289 61.3009 35.1995L60.3017 35.2408C60.3153 35.5696 60.3288 35.9032 60.3416 36.2423L61.3409 36.2046ZM70.8519 14.8254C71.4017 14.622 71.9691 14.4399 72.5518 14.2773L72.2829 13.3141C71.6761 13.4835 71.0826 13.6739 70.5051 13.8874L70.8519 14.8254ZM74.2951 13.8557C74.8749 13.7355 75.4661 13.6313 76.0669 13.5414L75.919 12.5524C75.3014 12.6448 74.6916 12.7522 74.092 12.8765L74.2951 13.8557ZM78.2561 12.2743L78.0068 10.9389L81.3289 12.3863L78.7528 14.9348L78.4405 13.2617C78.2454 13.2791 78.051 13.2976 77.8573 13.3175L77.7555 12.3227C77.9219 12.3056 78.0889 12.2895 78.2561 12.2743Z" fill="#875EFF"/>
<path fill-rule="evenodd" clip-rule="evenodd" d="M24.6325 42.1314C24.0229 41.9565 23.4111 41.7453 22.7912 41.4902L22.4106 42.4149C23.0654 42.6844 23.7121 42.9077 24.3566 43.0926L24.6325 42.1314ZM21.0252 40.6525C20.7436 40.5012 20.4592 40.34 20.1715 40.168C19.9172 40.016 19.6718 39.8567 19.435 39.6905L18.8603 40.5089C19.1172 40.6893 19.3832 40.8619 19.6585 41.0264C19.9589 41.206 20.2566 41.3748 20.5519 41.5334L21.0252 40.6525ZM28.4831 42.8237C27.8235 42.7639 27.1768 42.6817 26.5359 42.5687L26.3623 43.5535C27.0348 43.6721 27.7097 43.7577 28.3929 43.8196L28.4831 42.8237ZM18.0822 38.5801C17.6573 38.1742 17.2668 37.7396 16.9082 37.2787L16.119 37.8929C16.5067 38.391 16.9299 38.8622 17.3913 39.3031L18.0822 38.5801ZM32.45 42.9795C31.7653 42.9749 31.1034 42.9649 30.4579 42.9425L30.4232 43.9419C31.0816 43.9647 31.7536 43.9748 32.4432 43.9795L32.45 42.9795ZM15.9253 35.8198C15.6321 35.3162 15.3674 34.7891 15.1289 34.2409L14.2119 34.6398C14.4649 35.2212 14.747 35.7833 15.0611 36.3229L15.9253 35.8198ZM35.46 42.9869C35.119 42.9853 34.7838 42.9846 34.4541 42.9843L34.4529 43.9843C34.7821 43.9846 35.116 43.9853 35.4553 43.9869L35.46 42.9869ZM14.5036 32.5772C14.3238 32.0192 14.166 31.4447 14.0282 30.8556L13.0545 31.0833C13.198 31.6968 13.363 32.2979 13.5518 32.8839L14.5036 32.5772ZM13.681 29.096C13.5855 28.5116 13.5064 27.9165 13.4422 27.3125L12.4478 27.4182C12.5138 28.0392 12.5953 28.653 12.6941 29.2573L13.681 29.096ZM12.2691 25.0714L10.9243 25.2638L12.5114 22.0062L14.9483 24.6881L13.2635 24.9291C13.2725 25.1248 13.2828 25.3198 13.2944 25.5142L12.2961 25.5737C12.2862 25.4066 12.2772 25.2392 12.2691 25.0714Z" fill="#875EFF"/>
<path d="M21.8109 70.5533L19.8123 77.3248C19.4854 78.4323 18.0823 78.7706 17.2866 77.9338L12.4216 72.8172C11.6259 71.9804 12.0345 70.596 13.1571 70.3254L20.0207 68.6705C21.1432 68.3998 22.1378 69.4458 21.8109 70.5533Z" stroke="#D49DFF"/>
<path d="M65 49.5V35.4353C65.0001 35.2576 64.9652 35.0818 64.8973 34.9177C64.8293 34.7536 64.7297 34.6045 64.604 34.479L57.521 27.396C57.2681 27.1428 56.9249 27.0003 56.567 27H30.35C29.992 27 29.6486 27.1422 29.3954 27.3954C29.1422 27.6486 29 27.992 29 28.35V70.65C29 71.0081 29.1422 71.3514 29.3954 71.6046C29.6486 71.8578 29.992 72 30.35 72H44.75M38 45H56M38 36H47M38 54H44.75M66.125 68.625L71 73.5" stroke="#4E16ED" stroke-width="2" stroke-linecap="round" stroke-linejoin="round"/>
<path d="M56 27V34.65C56 35.008 56.1422 35.3514 56.3954 35.6046C56.6486 35.8578 56.992 36 57.35 36H65" stroke="#4E16ED" stroke-width="2" stroke-linecap="round" stroke-linejoin="round"/>
<path d="M54 60.5L54 64.5" stroke="#4E16ED" stroke-width="2" stroke-linecap="round"/>
<path d="M58 57.5L58 64.5" stroke="#4E16ED" stroke-width="2" stroke-linecap="round"/>
<path d="M62 61.5L62 64.5" stroke="#4E16ED" stroke-width="2" stroke-linecap="round"/>
<circle cx="58.5" cy="61" r="9.5" stroke="#4E16ED" stroke-width="2"/>
<g clip-path="url(#clip0_978_200187)">
<g clip-path="url(#clip1_978_200187)">
<path d="M188 50.5C188 71.4868 170.987 88.5 150 88.5C129.013 88.5 112 71.4868 112 50.5C112 29.5132 129.013 12.5 150 12.5C170.987 12.5 188 29.5132 188 50.5Z" fill="#E1F6FF"/>
<circle cx="190.471" cy="20.5195" r="9" fill="#E1F6FF"/>
<circle cx="107.971" cy="80.0195" r="7" stroke="#4FAFE4"/>
<circle cx="153.471" cy="18.5195" r="2.5" stroke="#4FAFE4"/>
<path d="M134.946 96.1609L141.038 88.712L144.443 97.7127L134.946 96.1609Z" stroke="#4FAFE4"/>
<path d="M122.448 70.8683C116.832 66.681 112.404 60.7851 110.045 53.6263C103.945 35.1068 114.013 15.1485 132.533 9.04829C151.052 2.94806 171.01 13.0159 177.11 31.5353C178.366 35.3479 178.937 39.2214 178.89 43.0225" stroke="#407AEC" stroke-dasharray="4 4"/>
<path d="M128 63.8333V32.9167C128 31.7453 128.465 30.6219 129.294 29.7936C130.122 28.9653 131.245 28.5 132.417 28.5H162.008C162.36 28.5 162.697 28.6396 162.945 28.8881C163.194 29.1366 163.333 29.4736 163.333 29.825V37.375V44.375M132.417 59.4167H149.167M132.417 68.25H147.875" stroke="#407AEC" stroke-width="2" stroke-linecap="round"/>
<path d="M132.417 68.2513C131.245 68.2513 130.122 67.786 129.294 66.9577C128.465 66.1294 128 65.006 128 63.8346C128 62.6633 128.465 61.5399 129.294 60.7116C130.122 59.8833 131.245 59.418 132.417 59.418" stroke="#407AEC" stroke-width="2" stroke-linecap="round" stroke-linejoin="round"/>
<path d="M139.042 37.332H152.292" stroke="#407AEC" stroke-width="2" stroke-linecap="round"/>
<circle cx="162.167" cy="53.375" r="5" stroke="#407AEC" stroke-width="2"/>
<path d="M171.167 71.675V66.375C171.167 61.9567 167.585 58.375 163.167 58.375H161.167C156.749 58.375 153.167 61.9567 153.167 66.375V71.675" stroke="#407AEC" stroke-width="2" stroke-linecap="round"/>
</g>
</g>
<g clip-path="url(#clip2_978_200187)">
<g clip-path="url(#clip3_978_200187)">
<path d="M286 50C286 70.9868 268.987 88 248 88C227.013 88 210 70.9868 210 50C210 29.0132 227.013 12 248 12C268.987 12 286 29.0132 286 50Z" fill="#FFE7FA"/>
<circle cx="278.5" cy="90.5" r="9.5" fill="#FFE7FA"/>
<circle cx="290.5" cy="45.5" r="7" stroke="#FF71CF"/>
<circle cx="270.5" cy="4.5" r="4" stroke="#FF71CF"/>
<path d="M205.332 82.4061L206.593 83.4209C207.099 83.8283 207.81 83.8633 208.354 83.5077L209.709 82.6218C210.114 82.3567 210.622 82.7653 210.45 83.218L209.875 84.7311C209.644 85.3385 209.83 86.0255 210.336 86.4329L211.597 87.4478C211.975 87.7514 211.743 88.3605 211.259 88.3367L209.643 88.257C208.993 88.225 208.398 88.6146 208.167 89.222L207.591 90.7351C207.419 91.1878 206.768 91.1557 206.641 90.6883L206.218 89.1259C206.047 88.4988 205.493 88.0525 204.844 88.0205L203.227 87.9408C202.743 87.917 202.572 87.288 202.978 87.0229L204.333 86.137C204.877 85.7814 205.13 85.116 204.96 84.4889L204.536 82.9265C204.409 82.4591 204.954 82.1024 205.332 82.4061Z" stroke="#FF71CF"/>
<path d="M204.436 51.5983C205.73 66.9468 220.842 73.0897 227.253 67.0226C236.681 58.1003 234.188 43.7812 226.384 43.1846C220 42.6965 217.041 50.9921 222.446 56.5633C226.597 60.8418 235.055 64.7036 245.43 63.9271" stroke="#EE2A7B" stroke-dasharray="2 2"/>
<path d="M230.333 33.7227C228.388 33.7227 226.523 34.4953 225.148 35.8706C223.773 37.2458 223 39.1111 223 41.056C223 43.001 223.773 44.8662 225.148 46.2415C226.523 47.6168 228.388 48.3894 230.333 48.3894M249.889 33.7227V60.6117C249.889 61.26 250.147 61.8818 250.605 62.3402C251.063 62.7986 251.685 63.0562 252.333 63.0562" stroke="#EE2A7B" stroke-width="2" stroke-linecap="round" stroke-linejoin="round"/>
<path d="M257.125 48.392H245L233.942 57.6076C233.62 57.8752 233.229 58.0457 232.815 58.0991C232.4 58.1525 231.978 58.0866 231.6 57.9091C231.221 57.7316 230.901 57.4498 230.677 57.0968C230.452 56.7438 230.333 56.3342 230.334 55.916V26.2011C230.333 25.7829 230.452 25.3733 230.677 25.0203C230.901 24.6674 231.221 24.3856 231.6 24.2081C231.978 24.0305 232.4 23.9646 232.815 24.018C233.229 24.0714 233.62 24.2419 233.942 24.5096L245 33.7252H261.556C262.204 33.7252 262.826 33.9827 263.285 34.4412C263.743 34.8996 264 35.5213 264 36.1697V41.0586" stroke="#EE2A7B" stroke-width="2" stroke-linecap="round" stroke-linejoin="round"/>
<rect x="261.438" y="44.4609" width="10.375" height="18.625" rx="5.1875" stroke="#EE2A7B" stroke-width="2"/>
<path d="M261.125 53.4609H272.125" stroke="#EE2A7B" stroke-width="2"/>
<path d="M255.625 56.5234V56.5234C255.625 62.2534 260.271 66.8984 266 66.8984H267.25C272.98 66.8984 277.625 62.2534 277.625 56.5234V56.5234" stroke="#EE2A7B" stroke-width="2" stroke-linecap="round"/>
<path d="M266.625 67.2422V71.2422" stroke="#EE2A7B" stroke-width="2" stroke-linecap="round"/>
<path d="M259.625 75.4609C259.625 73.2518 261.416 71.4609 263.625 71.4609H269.625C271.835 71.4609 273.625 73.2518 273.625 75.4609V76.4609H259.625V75.4609Z" stroke="#EE2A7B" stroke-width="2" stroke-linejoin="round"/>
</g>
</g>
<defs>
<clipPath id="clip0_978_200187">
<rect width="100" height="100" fill="white" transform="translate(100)"/>
</clipPath>
<clipPath id="clip1_978_200187">
<rect width="100" height="100" fill="white" transform="translate(100)"/>
</clipPath>
<clipPath id="clip2_978_200187">
<rect width="100" height="100" fill="white" transform="translate(200)"/>
</clipPath>
<clipPath id="clip3_978_200187">
<rect width="100" height="100" fill="white" transform="translate(200)"/>
</clipPath>
</defs>
</svg>
