<svg width="60" height="60" viewBox="0 0 60 60" fill="none" xmlns="http://www.w3.org/2000/svg">
<path d="M35 15.5V7C35 4.79086 33.2091 3 31 3H14.5971C13.5717 3 12.5855 3.39377 11.8421 4.1L4.245 11.3172C3.45008 12.0724 3 13.1208 3 14.2172V38C3 40.2091 4.79086 42 7 42H14.5" stroke="#407AEC" stroke-width="2" stroke-linecap="round"/>
<path d="M14 4V10C14 11.6569 12.6569 13 11 13H4" stroke="#407AEC" stroke-width="2"/>
<circle cx="29" cy="32" r="14" stroke="#407AEC" stroke-width="2"/>
<path d="M30.1768 35.3916H27.7812C27.7884 34.7256 27.8457 34.167 27.9531 33.7158C28.0605 33.2575 28.2396 32.8421 28.4902 32.4697C28.748 32.0973 29.0882 31.7035 29.5107 31.2881C29.8402 30.973 30.1374 30.6758 30.4023 30.3965C30.6673 30.11 30.8786 29.8092 31.0361 29.4941C31.1937 29.1719 31.2725 28.8031 31.2725 28.3877C31.2725 27.9365 31.1973 27.5534 31.0469 27.2383C30.8965 26.9232 30.6745 26.6833 30.3809 26.5186C30.0944 26.3538 29.7363 26.2715 29.3066 26.2715C28.9486 26.2715 28.612 26.3431 28.2969 26.4863C27.9818 26.6224 27.7275 26.8372 27.5342 27.1309C27.3408 27.4173 27.237 27.7969 27.2227 28.2695H24.6338C24.6481 27.3672 24.863 26.6081 25.2783 25.9922C25.6937 25.3763 26.2523 24.9144 26.9541 24.6064C27.6559 24.2985 28.4401 24.1445 29.3066 24.1445C30.2663 24.1445 31.0863 24.3092 31.7666 24.6387C32.4469 24.9609 32.9661 25.4336 33.3242 26.0566C33.6895 26.6725 33.8721 27.4173 33.8721 28.291C33.8721 28.9212 33.7467 29.4941 33.4961 30.0098C33.2454 30.5182 32.9196 30.9945 32.5186 31.4385C32.1175 31.8753 31.6842 32.3122 31.2188 32.749C30.8177 33.1143 30.5456 33.5117 30.4023 33.9414C30.2591 34.3639 30.1839 34.8473 30.1768 35.3916ZM27.5664 38.7432C27.5664 38.3564 27.6989 38.0306 27.9639 37.7656C28.2288 37.4935 28.5905 37.3574 29.0488 37.3574C29.5072 37.3574 29.8688 37.4935 30.1338 37.7656C30.3988 38.0306 30.5312 38.3564 30.5312 38.7432C30.5312 39.1299 30.3988 39.4593 30.1338 39.7314C29.8688 39.9964 29.5072 40.1289 29.0488 40.1289C28.5905 40.1289 28.2288 39.9964 27.9639 39.7314C27.6989 39.4593 27.5664 39.1299 27.5664 38.7432Z" fill="#407AEC"/>
<path d="M39.9238 41.1738L42.9238 44.1738" stroke="#407AEC" stroke-width="2"/>
<rect x="41.4142" y="46.6562" width="6" height="13.0923" rx="3" transform="rotate(-45 41.4142 46.6562)" stroke="#407AEC" stroke-width="2"/>
</svg>
