<svg width="190" height="185" viewBox="0 0 190 185" fill="none" xmlns="http://www.w3.org/2000/svg">
<g clip-path="url(#clip0_483_55643)">
<path d="M63.0793 155.307C63.041 155.011 62.9845 154.722 62.9129 154.438C63.5082 154.736 64.1079 155.026 64.7131 155.307H63.0793ZM8.08796 58.9339C8.46576 58.9339 8.82469 58.7101 8.98003 58.3386C10.3237 55.1188 11.8715 51.9407 13.5807 48.8913C13.8426 48.4247 13.6767 47.8333 13.2123 47.5704C12.748 47.3076 12.1583 47.473 11.8964 47.9402C10.1517 51.0542 8.57061 54.3008 7.19756 57.5885C6.99118 58.0825 7.22308 58.651 7.71516 58.8582C7.8372 58.9094 7.96369 58.9339 8.08796 58.9339ZM2.11422 99.4869C1.99384 97.5635 1.93281 95.6067 1.93281 93.6721C1.93281 92.109 1.9722 90.5258 2.05098 88.966C2.07816 88.4308 1.66763 87.9753 1.1345 87.9486C0.598595 87.9241 0.148123 88.3334 0.120939 88.868C0.0410528 90.4601 0 92.0761 0 93.6715C0 95.6468 0.062134 97.6437 0.184738 99.6078C0.216914 100.122 0.641866 100.517 1.14837 100.517C1.16834 100.517 1.18887 100.516 1.20939 100.515C1.74197 100.482 2.1464 100.021 2.11311 99.4864L2.11422 99.4869ZM3.36744 109.925C3.27368 109.398 2.76996 109.047 2.2457 109.141C1.72033 109.236 1.37083 109.74 1.46514 110.267C2.09203 113.78 2.93084 117.293 3.95882 120.709C4.08476 121.128 4.4681 121.399 4.88307 121.399C4.97571 121.399 5.07002 121.385 5.16322 121.357C5.67417 121.202 5.9632 120.661 5.80842 120.148C4.80263 116.804 3.98157 113.364 3.368 109.925H3.36744ZM2.06651 79.3076C2.12088 79.3165 2.17413 79.321 2.22684 79.321C2.69062 79.321 3.10004 78.9846 3.17882 78.5102C3.75134 75.0637 4.53079 71.6133 5.49608 68.2548C5.64365 67.7403 5.34852 67.2023 4.83536 67.0542C4.32275 66.9061 3.78685 67.2024 3.63872 67.7175C2.6529 71.1472 1.85681 74.6711 1.27208 78.1916C1.18387 78.7201 1.54004 79.2196 2.06596 79.3076H2.06651ZM9.41053 130.02C9.1986 129.529 8.62941 129.303 8.14011 129.516C7.6508 129.729 7.42557 130.3 7.63804 130.792C9.05215 134.066 10.6721 137.292 12.4518 140.381C12.631 140.692 12.9555 140.866 13.2889 140.866C13.4531 140.866 13.6195 140.824 13.7721 140.735C14.2337 140.467 14.3918 139.874 14.1249 139.41C12.3813 136.385 10.7947 133.226 9.41053 130.021V130.02ZM148.711 166.12C145.953 168.258 143.044 170.256 140.065 172.059C139.608 172.336 139.461 172.932 139.737 173.391C139.918 173.693 140.238 173.86 140.564 173.86C140.735 173.86 140.907 173.815 141.062 173.72C144.105 171.878 147.076 169.838 149.892 167.655C150.314 167.328 150.391 166.719 150.066 166.295C149.74 165.871 149.134 165.792 148.711 166.12V166.12ZM130.798 176.963C127.628 178.413 124.342 179.69 121.03 180.761C120.523 180.925 120.244 181.472 120.407 181.981C120.539 182.392 120.918 182.654 121.327 182.654C121.425 182.654 121.524 182.639 121.623 182.607C125.005 181.513 128.362 180.209 131.599 178.729C132.085 178.506 132.299 177.932 132.078 177.444C131.857 176.956 131.285 176.742 130.798 176.963ZM178.179 60.9142C178.326 61.3001 178.692 61.5373 179.081 61.5373C179.196 61.5373 179.313 61.5167 179.427 61.4727C179.925 61.2806 180.174 60.7198 179.983 60.2197C178.711 56.8924 177.231 53.6008 175.581 50.4361C175.334 49.9616 174.749 49.7784 174.278 50.0262C173.804 50.2746 173.622 50.8604 173.869 51.3354C175.484 54.4338 176.934 57.657 178.179 60.9147V60.9142ZM168.489 42.3152C168.676 42.5914 168.98 42.7401 169.289 42.7401C169.476 42.7401 169.665 42.6855 169.831 42.5719C170.272 42.2707 170.386 41.6676 170.086 41.2249C168.09 38.2768 165.9 35.41 163.577 32.7053C163.23 32.2999 162.619 32.2537 162.215 32.604C161.811 32.9537 161.765 33.5662 162.114 33.9722C164.389 36.6212 166.534 39.4284 168.489 42.3158V42.3152ZM128.537 9.3841C131.741 10.7445 134.903 12.3088 137.935 14.0334C138.086 14.1192 138.249 14.1598 138.411 14.1598C138.747 14.1598 139.074 13.9827 139.252 13.6681C139.515 13.202 139.352 12.6101 138.887 12.3461C135.791 10.5847 132.561 8.98705 129.289 7.59766C128.798 7.38883 128.231 7.62049 128.023 8.11332C127.815 8.60671 128.045 9.17583 128.536 9.3841H128.537ZM183.362 81.2466C183.428 81.7333 183.842 82.0864 184.318 82.0864C184.361 82.0864 184.405 82.0836 184.449 82.0775C184.977 82.0057 185.348 81.5167 185.276 80.986C184.798 77.4443 184.108 73.8987 183.228 70.4467C183.096 69.9277 182.571 69.6142 182.053 69.7478C181.536 69.8803 181.224 70.4088 181.356 70.9278C182.218 74.3075 182.893 77.7796 183.362 81.2472V81.2466ZM146.737 19.7363C149.548 21.7962 152.272 24.0426 154.832 26.4127C155.017 26.5847 155.252 26.6694 155.486 26.6694C155.747 26.6694 156.006 26.5641 156.197 26.357C156.558 25.9633 156.534 25.3496 156.141 24.9865C153.528 22.5664 150.747 20.2726 147.876 18.1693C147.443 17.8536 146.84 17.9482 146.526 18.3809C146.211 18.8136 146.306 19.42 146.737 19.7363ZM40.6195 55.3326C39.9283 54.4823 39.5061 53.49 39.3336 52.4648C38.9869 50.4043 39.6653 48.2108 41.3086 46.7652L41.9704 46.2289L38.3106 43.2162C38.0981 43.287 37.8801 43.346 37.656 43.3822C37.4352 43.4178 37.2144 43.4356 36.9947 43.4356C36.1004 43.4356 35.2327 43.1422 34.4988 42.5825L22.4043 33.3607C21.9927 33.0467 21.9 32.4636 22.1935 32.0371L43.9421 0.438526C44.2411 0.00528078 44.8269 -0.109435 45.2668 0.178468L57.8839 8.47362C57.9022 8.48587 57.9211 8.49923 57.9388 8.5126C58.4836 8.92802 58.9014 9.45872 59.1932 10.0484C68.445 10.0223 75.0512 10.612 79.187 11.8427C83.6562 10.3609 87.7915 9.93039 92.6723 10.3731C94.6428 10.5507 97.5864 11.0068 99.2285 11.3109C99.5348 10.1871 100.24 9.25379 101.234 8.67576L114.831 0.147283C115.054 0.00750829 115.325 -0.0353708 115.58 0.0297831C115.835 0.0943802 116.053 0.261441 116.183 0.491429L136.802 36.9715C137.064 37.4342 136.904 38.0223 136.446 38.289L134.045 39.6857L122.891 46.1766C122.225 46.5641 121.485 46.7618 120.73 46.7618C120.318 46.7618 119.903 46.7034 119.494 46.5848C119.233 46.5096 118.983 46.4093 118.744 46.2913L115.154 48.1072C115.017 48.1768 114.868 48.2108 114.719 48.2108C114.55 48.2108 114.388 48.1535 114.239 48.0666C114.565 49.9293 114.18 51.9419 113.022 53.5623C111.953 55.0592 110.415 55.9987 108.694 56.208C108.245 56.2626 107.797 56.2648 107.358 56.2164C108.088 58.3526 107.806 60.864 106.417 62.8098C105.347 64.3061 103.81 65.2449 102.089 65.4543C100.922 65.5963 99.7722 65.3847 98.7448 64.854C98.777 65.1007 98.7969 65.3508 98.8041 65.603C98.8496 67.1934 98.3736 68.7699 97.466 70.0424C96.3965 71.5393 94.8597 72.4781 93.1383 72.6875C91.5023 72.8863 89.9012 72.3918 88.6258 71.2965L87.9118 70.6833C87.9279 70.8526 87.9396 71.0236 87.944 71.1957C87.9889 72.7738 87.6611 73.8325 86.7346 75.101C86.3535 75.6234 84.9383 77.3535 82.7436 77.6815C82.5051 77.7172 82.2682 77.735 82.0324 77.735C80.9367 77.735 79.871 77.3508 78.8558 76.5879L75.0235 73.4332L73.1894 74.8972C73.1472 74.9312 73.1018 74.9612 73.0546 74.9874C72.1853 75.4685 71.2361 75.7008 70.2946 75.7008C68.592 75.7008 66.9117 74.9434 65.7611 73.5306C64.8884 72.4592 64.3963 71.0999 64.3747 69.7033C64.373 69.5858 64.3836 69.4705 64.388 69.3541L63.8394 69.8363C62.7642 70.7814 61.4278 71.287 60.0314 71.2876C59.8705 71.2876 59.708 71.2809 59.546 71.267C57.9632 71.1344 56.5281 70.3693 55.5051 69.113C54.633 68.0427 54.1415 66.6833 54.1198 65.2867C54.1165 65.0874 54.1276 64.8897 54.1426 64.6931C53.3326 65.113 52.4405 65.3368 51.5202 65.3368C51.3593 65.3368 51.1973 65.3302 51.0348 65.3162C49.452 65.1837 48.0168 64.4191 46.9938 63.1628C45.6624 61.5256 45.3129 59.3655 45.8749 57.4543C45.6346 57.485 45.3928 57.5061 45.1481 57.5061C44.9856 57.5061 44.8236 57.4994 44.6599 57.4855C43.0772 57.353 41.6425 56.5878 40.6195 55.3315V55.3326ZM42.1169 54.1059C42.8042 54.9506 43.7651 55.4652 44.8208 55.5537C45.8632 55.6428 46.8807 55.3015 47.6817 54.597L47.7023 54.5798C47.7023 54.5798 47.7034 54.5781 47.7039 54.5775L51.3615 51.5559L53.6277 49.6837C54.5403 48.8774 55.0524 47.6974 55.033 46.4439C55.0185 45.4827 54.6807 44.5488 54.0826 43.8138C52.9043 42.3653 50.8999 41.9427 49.2883 42.7919L42.5518 48.2492C40.8942 49.7082 40.685 52.3467 42.1158 54.1059H42.1169ZM37.3492 41.4677C37.9744 41.3669 38.5259 41.0077 38.9036 40.4569L57.2842 13.6135C58.0631 12.4759 57.8423 10.8966 56.7949 10.0763L44.9967 2.32019L24.3088 32.3773L35.6677 41.0389C36.157 41.412 36.7534 41.564 37.3492 41.4682V41.4677ZM40.0304 42.1231L43.5071 44.9849L48.145 41.2265C48.1888 41.1909 48.236 41.1597 48.2853 41.1319C50.7257 39.7803 53.7953 40.3912 55.58 42.5875C56.4526 43.659 56.9447 45.0183 56.9663 46.4149C56.968 46.5319 56.9575 46.6471 56.953 46.763L57.5 46.2818C58.7 45.2277 60.2217 44.7192 61.7956 44.8518C63.3783 44.9849 64.8124 45.7494 65.8337 47.0052C66.7069 48.0772 67.1996 49.4365 67.2207 50.8326C67.224 51.0325 67.2129 51.2307 67.1979 51.4273C68.1521 50.9328 69.2195 50.7095 70.3052 50.8008C71.8885 50.9334 73.3237 51.6979 74.3472 52.9542C76.0736 55.0776 76.1508 58.0808 74.7239 60.2799C76.3055 60.4135 77.7379 61.1781 78.7604 62.4339C80.8419 64.9916 80.5329 68.834 78.0714 70.9996L76.5685 72.1992L80.0463 75.062C80.818 75.6406 81.6396 75.8851 82.4574 75.7631C83.6135 75.5905 84.6193 74.7151 85.1746 73.9539C85.8481 73.0311 86.0439 72.3996 86.0118 71.2502C85.9707 69.8191 85.3727 68.5043 84.3702 67.6423C84.358 67.6322 84.3502 67.62 84.3386 67.6094C84.3341 67.605 84.328 67.6039 84.323 67.5988L82.7569 66.0613C82.3758 65.6871 82.3686 65.0729 82.742 64.6898C83.1159 64.3072 83.7261 64.2994 84.1083 64.6742L85.6512 66.1888L89.8807 69.8213C90.7406 70.5597 91.8146 70.8933 92.9059 70.7607C94.0836 70.6176 95.1455 69.9611 95.895 68.9114C96.5579 67.982 96.9052 66.8259 96.8725 65.657C96.8314 64.227 96.2339 62.9128 95.2326 62.0507H95.232L88.2541 56.0744C87.8486 55.7269 87.7998 55.1149 88.1465 54.7073C88.4927 54.3002 89.1024 54.2512 89.5085 54.5992L96.4863 60.575C96.4863 60.575 96.4869 60.575 96.4869 60.5756L98.8313 62.5881C99.6912 63.3265 100.766 63.6607 101.856 63.5276C103.034 63.3844 104.096 62.7279 104.846 61.6782C106.381 59.5303 106.085 56.4564 104.188 54.822L95.1116 47.4073C94.6978 47.0692 94.6356 46.4583 94.9724 46.0429C95.308 45.6275 95.9177 45.5646 96.3316 45.9031L105.42 53.3279C105.424 53.3307 105.425 53.3346 105.429 53.3374C105.432 53.3396 105.435 53.3407 105.438 53.3429C106.296 54.0802 107.369 54.4144 108.46 54.2818C109.639 54.1387 110.701 53.4816 111.452 52.4313C112.988 50.2813 112.691 47.2029 110.788 45.5696L107.54 42.8225C107.508 42.7958 107.478 42.7668 107.451 42.7362C107.309 42.5809 107.162 42.4205 107.018 42.2623L85.0137 24.4814L66.3569 33.7661C62.9079 35.7898 58.4592 34.636 56.4232 31.1834C56.4177 31.1733 56.4121 31.1633 56.406 31.1527C55.428 29.4799 55.1528 27.5253 55.6338 25.6453C56.1164 23.7564 57.3025 22.1693 58.9746 21.1758C58.999 21.1614 59.0245 21.1474 59.05 21.1352L75.2321 13.3774C75.4806 13.2672 75.7247 13.1653 75.9694 13.0617C72.1115 12.3416 66.6642 11.9802 59.6681 11.9847C59.6925 12.928 59.4389 13.8875 58.8753 14.7111L40.4947 41.5545C40.3538 41.76 40.1957 41.9471 40.0287 42.1225L40.0304 42.1231ZM76.0398 15.141L59.9244 22.8671C58.7155 23.5977 57.8573 24.7543 57.5072 26.1281C57.1527 27.5153 57.3574 28.9576 58.0847 30.1899C58.0897 30.1988 58.0953 30.2083 58.1003 30.2178C59.6054 32.7448 62.879 33.579 65.4066 32.0788C65.4271 32.0666 65.4482 32.0554 65.4693 32.0443L84.7108 22.4689C85.0481 22.3007 85.4531 22.3453 85.7455 22.5825L114.841 46.0942L117.115 44.9442C116.992 44.7827 116.875 44.6157 116.771 44.4369L99.6962 14.8726C99.4044 14.3675 99.2141 13.8235 99.1237 13.2655C97.6846 12.9904 94.5896 12.4942 92.4987 12.3054C86.4939 11.7614 81.8793 12.5566 76.0393 15.1416L76.0398 15.141ZM101.07 11.8934C100.906 12.5688 101.012 13.2811 101.369 13.8992L118.444 43.4641C118.801 44.0822 119.364 44.5288 120.03 44.7209C120.681 44.9091 121.354 44.8301 121.924 44.4987L134.649 37.0929L115 2.32799L102.23 10.3364C101.633 10.6844 101.23 11.2312 101.069 11.8922L101.07 11.8934ZM72.0544 73.3268L76.8348 69.5117C78.4869 68.0571 78.6955 65.4192 77.2653 63.6612C76.5763 62.8148 75.6154 62.3002 74.5591 62.2122C74.4515 62.2033 74.3444 62.1989 74.2385 62.1989C73.3098 62.1989 72.4194 62.5374 71.7004 63.1695C71.6921 63.1773 71.6832 63.1845 71.6749 63.1918L67.6994 66.4456L67.6978 66.4472C66.8046 67.2324 66.2887 68.4158 66.3081 69.6737C66.3225 70.6349 66.6603 71.5688 67.2584 72.3038C68.4389 73.7534 70.445 74.176 72.0549 73.3263L72.0544 73.3268ZM62.5667 68.3779L66.4501 64.9654L72.4088 60.0443C74.0732 58.5798 74.2829 55.9413 72.8516 54.1821C72.1636 53.3374 71.2022 52.8228 70.1454 52.7343C70.0378 52.7254 69.9307 52.7209 69.8242 52.7209C68.8955 52.7209 68.0045 53.0595 67.2856 53.691L65.1464 55.5715L65.1458 55.5721L65.1392 55.5782C65.1358 55.581 65.1331 55.5838 65.1292 55.5866L57.4501 62.0218C56.5492 62.8136 56.0338 63.9987 56.0532 65.2578C56.0676 66.2195 56.4049 67.1528 57.0018 67.8862C57.6909 68.7321 58.6512 69.2461 59.7074 69.3346C60.7476 69.4209 61.7656 69.0823 62.5678 68.3779H62.5667ZM54.0549 62.4283L56.1941 60.5477L63.8909 54.0981C64.793 53.3062 65.3089 52.1223 65.2895 50.8632C65.2751 49.902 64.9372 48.9682 64.3392 48.2331C63.6513 47.3883 62.691 46.8738 61.6358 46.7852C61.5282 46.7763 61.4206 46.7719 61.3135 46.7719C60.3843 46.7719 59.4933 47.1104 58.7732 47.7419L54.8915 51.1539C54.8837 51.1606 54.8765 51.1667 54.8688 51.1734L48.9327 56.0766C47.2684 57.5401 47.0593 60.178 48.4906 61.9377C49.1785 62.7825 50.1399 63.297 51.1962 63.385C52.2375 63.4735 53.2544 63.1322 54.0549 62.4283ZM189.759 99.9876C189.752 100.01 189.744 100.033 189.735 100.054L178.757 127.039C177.687 129.716 176.308 131.713 174.542 133.139C173.542 133.947 172.945 135.275 172.945 136.692V149.453L175.465 153.834C175.732 154.298 175.573 154.891 175.111 155.158C174.65 155.425 174.058 155.268 173.792 154.803L173.754 154.739L162.844 135.771C161.796 133.948 161.594 131.802 162.292 129.882C162.934 128.116 163.076 126.068 162.728 123.62L158.805 94.7719C158.629 93.9962 158.163 93.3358 157.492 92.9092C156.81 92.4748 155.993 92.3317 155.193 92.5055C154.402 92.6786 153.725 93.1514 153.286 93.8364C152.847 94.5213 152.7 95.336 152.873 96.1296C152.883 96.1791 152.891 96.2292 152.893 96.2794L153.601 108.319C153.653 109.223 153.11 110.003 152.248 110.262C151.389 110.521 150.508 110.169 150.057 109.386L134.838 82.925C134.533 82.3943 134.012 82.0179 133.373 81.8648C132.602 81.6799 131.751 81.8419 131.039 82.308C129.806 83.1172 129.371 84.6742 130.048 85.8525L142.838 108.09C143.105 108.554 142.947 109.147 142.485 109.415C142.333 109.503 142.166 109.545 142.002 109.545C141.669 109.545 141.344 109.371 141.165 109.06L128.375 86.8226L126.687 83.8884C126.383 83.36 125.865 82.9841 125.228 82.8309C124.456 82.6455 123.602 82.8064 122.887 83.2731C121.676 84.0672 121.232 85.6571 121.897 86.8165L123.575 89.7322C123.575 89.7322 123.577 89.7356 123.578 89.7372L136.255 111.777C136.522 112.241 136.364 112.834 135.901 113.102C135.749 113.19 135.583 113.232 135.419 113.232C135.085 113.232 134.76 113.058 134.582 112.747L121.905 90.7073L121.902 90.7029C121.597 90.1755 121.079 89.8018 120.444 89.6498C119.671 89.4644 118.821 89.6275 118.11 90.0948C116.893 90.8877 116.449 92.4754 117.115 93.6348L120.461 99.4508L131.472 118.596C131.739 119.06 131.581 119.653 131.119 119.921C130.967 120.009 130.8 120.051 130.636 120.051C130.303 120.051 129.978 119.877 129.799 119.566L118.788 100.421C118.788 100.421 118.787 100.421 118.787 100.421L118.786 100.419C118.542 99.9959 118.126 99.6958 117.615 99.5733C116.991 99.424 116.297 99.5566 115.716 99.9391C114.728 100.583 114.364 101.868 114.904 102.805L127.258 124.284C127.6 124.88 127.953 125.503 128.316 126.143C131.803 132.298 136.142 139.959 141.589 141.604C143.263 142.11 144.708 143.299 145.659 144.952L156.122 163.144C156.135 163.166 156.142 163.189 156.152 163.212C156.369 163.665 156.209 164.214 155.768 164.469C155.616 164.557 155.45 164.6 155.286 164.6C154.952 164.6 154.627 164.426 154.448 164.115L143.985 145.922C143.281 144.699 142.232 143.825 141.031 143.462C140.548 143.316 140.078 143.121 139.615 142.903C134.143 140.335 130.007 133.054 126.636 127.102C126.275 126.466 125.925 125.847 125.584 125.254L113.23 103.776C112.167 101.929 112.795 99.5304 114.659 98.3147C115.412 97.8197 116.295 97.5707 117.15 97.5752L115.442 94.6054C114.249 92.5327 114.958 89.8375 117.054 88.4704C117.988 87.8578 119.087 87.5721 120.148 87.649C119.065 85.598 119.786 82.9902 121.831 81.6487C122.99 80.8913 124.391 80.6357 125.678 80.9454C126.751 81.2038 127.649 81.8252 128.23 82.7073C128.596 81.9143 129.19 81.2049 129.982 80.6853C131.135 79.928 132.533 79.6707 133.821 79.9786C134.982 80.2565 135.937 80.9587 136.51 81.9555L143.978 94.9395V84.2827C143.978 82.1477 145.719 80.3863 147.943 80.2721C148.841 80.2209 149.721 80.4386 150.464 80.8813V77.4521C150.464 75.0615 152.419 73.0851 154.914 72.9526C155.895 72.8958 156.854 73.138 157.677 73.6053C157.786 73.6676 157.903 73.72 158.007 73.7907C158.091 71.4769 160.012 69.5796 162.45 69.4399C163.832 69.3669 165.172 69.848 166.13 70.7602C166.932 71.5237 167.399 72.5138 167.461 73.5713C168.175 73.0673 169.044 72.7493 169.992 72.6948C171.362 72.6162 172.699 73.0946 173.659 74.0051C174.529 74.8304 175.008 75.9185 175.008 77.0695V107.63L180.305 96.9014C180.713 95.6668 181.57 94.66 182.726 94.0591C183.908 93.4454 185.256 93.3313 186.521 93.7384C187.803 94.1493 188.846 95.0348 189.457 96.2304C190.056 97.4031 190.163 98.7374 189.758 99.9876H189.759ZM187.738 97.1152C187.364 96.3824 186.723 95.8394 185.933 95.5861C185.16 95.3371 184.337 95.4068 183.615 95.7821C182.896 96.1557 182.367 96.7872 182.125 97.5596C182.109 97.6086 182.09 97.6571 182.067 97.7033L176.68 108.483C176.277 109.291 175.418 109.696 174.543 109.487C173.667 109.28 173.078 108.533 173.078 107.631V77.0701C173.078 76.4581 172.813 75.8706 172.334 75.4156C171.758 74.8694 170.955 74.5848 170.103 74.6321C168.634 74.7162 167.484 75.835 167.472 77.1832C167.472 77.1909 167.474 77.1976 167.474 77.2054V98.0413C167.474 98.577 167.042 99.0114 166.508 99.0114C165.974 99.0114 165.542 98.577 165.542 98.0413V77.2472C165.541 77.2322 165.537 77.2182 165.537 77.2032V73.8146C165.537 73.2043 165.276 72.6196 164.802 72.168C164.226 71.62 163.404 71.3332 162.559 71.3767C161.116 71.4596 159.938 72.6135 159.938 73.9483V77.319C159.938 77.3274 159.936 77.3357 159.936 77.3441V86.7613C159.936 87.297 159.503 87.7314 158.969 87.7314C158.436 87.7314 158.003 87.297 158.003 86.7613V77.3213C158.003 77.3168 158.004 77.3123 158.004 77.3079C158.001 76.7009 157.74 76.1206 157.269 75.6729C156.693 75.1266 155.87 74.8426 155.022 74.8894C153.573 74.9662 152.398 76.1156 152.398 77.4521V87.6228C152.398 88.1585 151.965 88.5929 151.432 88.5929C150.898 88.5929 150.465 88.1585 150.465 87.6228V84.1674C150.465 83.6785 150.254 83.209 149.872 82.8454C149.403 82.4016 148.733 82.1694 148.048 82.2095C146.868 82.2702 145.912 83.2001 145.912 84.2833V98.2997L151.664 108.301L150.968 96.4659C150.712 95.1901 150.956 93.887 151.66 92.7878C152.378 91.6674 153.487 90.8939 154.783 90.6104C156.08 90.3281 157.411 90.562 158.527 91.2709C159.649 91.9842 160.422 93.0946 160.702 94.3966C160.707 94.4211 160.712 94.4456 160.715 94.4701L164.643 123.352C165.037 126.118 164.861 128.474 164.108 130.546C163.607 131.926 163.756 133.477 164.518 134.801L171.013 146.093V136.692C171.013 134.663 171.858 132.817 173.331 131.628C174.831 130.416 176.021 128.676 176.966 126.311L187.932 99.3561C188.165 98.6099 188.097 97.8152 187.739 97.1152H187.738ZM136.989 61.6559C137.167 61.9672 137.493 62.1409 137.826 62.1409C137.99 62.1409 138.156 62.0992 138.309 62.0106C138.771 61.7428 138.929 61.1497 138.662 60.6858L133.745 52.1362C133.479 51.6718 132.886 51.5142 132.425 51.7809C131.963 52.0488 131.805 52.6418 132.072 53.1057L136.989 61.6554V61.6559ZM151.686 62.0112C151.838 62.0992 152.004 62.1415 152.168 62.1415C152.407 62.1415 152.639 62.0491 152.82 61.8842C152.891 61.8191 152.955 61.745 153.006 61.6565L157.924 53.1068C158.191 52.643 158.033 52.0499 157.571 51.782C157.109 51.5153 156.518 51.6729 156.251 52.1373L151.758 59.9474L151.333 60.6875C151.067 61.1514 151.225 61.7445 151.687 62.0123L151.686 62.0112ZM144.031 59.292C144.031 59.8277 144.464 60.2621 144.997 60.2621C145.531 60.2621 145.964 59.8277 145.964 59.292V49.4192C145.964 48.8835 145.531 48.4492 144.997 48.4492C144.566 48.4492 144.206 48.7343 144.082 49.1252C144.052 49.2188 144.031 49.3162 144.031 49.4192V59.292ZM31.3738 108.571L27.5531 110.55L24.2783 112.246C24.1385 112.318 23.9871 112.354 23.8356 112.354C23.6337 112.354 23.4323 112.291 23.2631 112.166C22.9674 111.947 22.8204 111.58 22.8836 111.217L24.235 103.459L18.5082 97.9606C18.2408 97.7038 18.1431 97.3168 18.2563 96.9632C18.3689 96.6096 18.6735 96.3523 19.0396 96.3L25.4672 95.38L26.9678 95.1651L30.5106 88.0945C30.6748 87.767 31.0082 87.5604 31.3738 87.5604C31.7394 87.5604 32.0728 87.767 32.237 88.0945L35.7798 95.1651L43.7079 96.3C44.0741 96.3523 44.3787 96.6101 44.4913 96.9632C44.6044 97.3168 44.5068 97.7038 44.2394 97.9606L38.5131 103.459L39.8645 111.217C39.9283 111.581 39.7807 111.948 39.485 112.166C39.1888 112.384 38.7955 112.415 38.4698 112.246L31.3738 108.571ZM25.1227 109.626L30.9311 106.618C31.0703 106.546 31.2218 106.51 31.3738 106.51C31.5258 106.51 31.6778 106.546 31.8165 106.618L37.6255 109.626L36.5209 103.281C36.4654 102.963 36.572 102.637 36.8044 102.413L41.4667 97.9366L35.0058 97.0117C34.6924 96.9671 34.4217 96.7711 34.2791 96.4871L31.3732 90.6867L28.4674 96.4871C28.3253 96.7711 28.0541 96.9665 27.7406 97.0117L21.2798 97.9366L25.9426 102.413C26.1756 102.637 26.2816 102.962 26.2261 103.281L25.1216 109.626H25.1227ZM75.3918 96.9621C75.505 97.3157 75.4074 97.7027 75.14 97.9594L69.4137 103.457L70.764 111.217C70.8267 111.579 70.6802 111.947 70.3845 112.165C70.0888 112.384 69.6944 112.414 69.3693 112.245L62.2738 108.571L55.1783 112.245C55.0385 112.318 54.8871 112.353 54.7356 112.353C54.5337 112.353 54.3323 112.29 54.1631 112.165C53.8674 111.947 53.7204 111.579 53.7836 111.217L55.135 103.458L49.4082 97.96C49.1408 97.7033 49.0431 97.3163 49.1563 96.9626C49.2689 96.609 49.5735 96.3518 49.9396 96.2994L57.8678 95.1645L61.4106 88.0939C61.5748 87.7665 61.9082 87.5599 62.2738 87.5599C62.6394 87.5599 62.9728 87.7665 63.137 88.0939L66.6798 95.1645L74.6079 96.2994C74.9741 96.3518 75.2787 96.6096 75.3913 96.9626L75.3918 96.9621ZM72.3683 97.9372L65.9075 97.0122C65.5941 96.9677 65.3234 96.7716 65.1808 96.4876L62.2749 90.6873L59.369 96.4876C59.227 96.7716 58.9557 96.9671 58.6423 97.0122L52.1815 97.9372L56.8443 102.414C57.0773 102.638 57.1832 102.963 57.1278 103.282L56.0232 109.626L61.8316 106.618C61.9709 106.546 62.1223 106.51 62.2744 106.51C62.4264 106.51 62.5784 106.546 62.7171 106.618L68.5255 109.626L67.4215 103.282C67.366 102.963 67.4725 102.638 67.705 102.414L72.3672 97.9377L72.3683 97.9372ZM46.3226 142.719C44.5201 143.651 42.4825 144.188 40.3189 144.188C33.0603 144.188 27.1553 138.26 27.1553 130.974C27.1553 127.186 28.7608 123.775 31.3133 121.363C33.6705 119.136 36.8344 117.76 40.3194 117.76C47.578 117.76 53.4829 123.687 53.4829 130.974C53.4829 136.088 50.5682 140.523 46.3226 142.719V142.719ZM51.5507 130.974C51.5507 124.758 46.5123 119.7 40.3194 119.7C34.1265 119.7 29.0881 124.758 29.0881 130.974C29.0881 137.19 34.1265 142.248 40.3194 142.248C46.5123 142.248 51.5507 137.19 51.5507 130.974ZM104.714 113.017C104.714 120.303 98.808 126.23 91.55 126.23C84.292 126.23 78.3865 120.303 78.3865 113.017C78.3865 105.731 84.292 99.8032 91.55 99.8032C98.808 99.8032 104.714 105.731 104.714 113.017ZM102.781 113.017C102.781 106.8 97.7429 101.743 91.55 101.743C85.3571 101.743 80.3187 106.8 80.3187 113.017C80.3187 119.233 85.3571 124.291 91.55 124.291C97.7429 124.291 102.781 119.233 102.781 113.017ZM114.471 137.505V161.992C114.471 165.678 111.484 168.676 107.813 168.676H107.153V178.318C107.153 182.003 104.167 185.001 100.495 185.001H24.8675C21.196 185.001 18.2091 182.003 18.2091 178.318V155.463C18.2091 151.777 21.196 148.779 24.8675 148.779H55.6776C59.1649 148.779 62.0924 151.192 62.9129 154.44C62.9845 154.724 63.041 155.013 63.0793 155.309H67.8126V137.505C67.8126 133.82 70.7995 130.822 74.4709 130.822H107.811C111.482 130.822 114.469 133.82 114.469 137.505L114.471 137.505ZM105.221 178.317V168.675H95.3768L87.4919 183.061H100.495C103.101 183.061 105.221 180.933 105.221 178.317ZM85.2861 183.061L93.171 168.675H85.8575C82.1861 168.675 79.1992 165.677 79.1992 161.992C79.1992 160.139 79.9554 158.46 81.1736 157.248H61.1975L52.2164 172.335C54.4094 173.429 55.9239 175.696 55.9239 178.317C55.9239 180.17 55.1672 181.849 53.9495 183.061H85.2867H85.2861ZM49.2645 183.061C51.8708 183.061 53.9911 180.933 53.9911 178.317C53.9911 175.701 51.8708 173.573 49.2645 173.573H29.7489C29.2152 173.573 28.7825 173.139 28.7825 172.603C28.7825 172.067 29.2152 171.633 29.7489 171.633H49.2645C49.6268 171.633 49.9796 171.67 50.3263 171.726L59.8201 155.78C59.9943 155.488 60.3094 155.308 60.6489 155.308H61.1282C60.6689 152.704 58.4032 150.718 55.6787 150.718H24.8675C22.2612 150.718 20.1414 152.846 20.1414 155.462V178.317C20.1414 180.933 22.2612 183.061 24.8675 183.061H49.2628H49.2645ZM107.813 166.736C110.419 166.736 112.539 164.608 112.539 161.992V137.504C112.539 134.888 110.419 132.76 107.813 132.76H74.4731C71.8668 132.76 69.7471 134.888 69.7471 137.504V155.308H100.341V144.85C100.341 144.314 100.774 143.88 101.308 143.88C101.841 143.88 102.274 144.314 102.274 144.85V156.278C102.274 156.813 101.841 157.248 101.308 157.248H85.8575C83.2512 157.248 81.1315 159.376 81.1315 161.992C81.1315 164.607 83.2512 166.736 85.8575 166.736H107.813Z" fill="url(#paint0_linear_483_55643)"/>
</g>
<defs>
<linearGradient id="paint0_linear_483_55643" x1="14.4439" y1="30.0262" x2="157.67" y2="172.711" gradientUnits="userSpaceOnUse">
<stop stop-color="#1ED6FF"/>
<stop offset="1" stop-color="#5D4AFF"/>
</linearGradient>
<clipPath id="clip0_483_55643">
<rect width="190" height="185" fill="white"/>
</clipPath>
</defs>
</svg>
