<svg width="120" height="30" viewBox="0 0 120 30" fill="none" xmlns="http://www.w3.org/2000/svg">
<path fill-rule="evenodd" clip-rule="evenodd" d="M105.028 1C101.6 1 98.4765 2.13244 96.6283 3.05768C96.4614 3.14117 96.3058 3.22314 96.1608 3.30208C95.8739 3.45844 95.6295 3.60417 95.4352 3.73244L97.5376 6.82769L98.5274 7.22161C102.395 9.17303 107.582 9.17303 111.451 7.22161L112.574 6.63869L114.562 3.73244C114.151 3.46379 113.722 3.22119 113.28 3.00607C111.441 2.0907 108.392 1 105.029 1H105.028ZM100.139 4.50359C99.3943 4.36429 98.6589 4.17976 97.9369 3.95103C99.6682 3.18216 102.248 2.36622 105.028 2.36622C106.954 2.36622 108.775 2.75787 110.281 3.25426C108.516 3.50246 106.633 3.92371 104.839 4.44211C103.427 4.85046 101.777 4.80644 100.139 4.50359ZM112.253 8.34722L112.066 8.44134C107.811 10.5878 102.167 10.5878 97.9118 8.44134L97.735 8.35178C91.3426 15.3658 86.4621 28.3221 105.028 28.3221C123.594 28.3221 118.595 15.1237 112.253 8.34722ZM104.24 14.6622C103.837 14.6622 103.451 14.8221 103.166 15.1068C102.882 15.3915 102.722 15.7776 102.722 16.1802C102.722 16.5828 102.882 16.9689 103.166 17.2536C103.451 17.5383 103.837 17.6982 104.24 17.6982V14.6622ZM105.758 13.1442V12.3852H104.24V13.1442C103.434 13.1442 102.662 13.464 102.093 14.0334C101.524 14.6028 101.204 15.375 101.204 16.1802C101.204 16.9854 101.524 17.7577 102.093 18.327C102.662 18.8964 103.434 19.2163 104.24 19.2163V22.2523C103.579 22.2523 103.017 21.8311 102.807 21.2405C102.776 21.1439 102.726 21.0545 102.66 20.9776C102.594 20.9007 102.513 20.8379 102.422 20.7929C102.331 20.7478 102.232 20.7215 102.131 20.7154C102.029 20.7092 101.928 20.7235 101.832 20.7573C101.736 20.7911 101.648 20.8438 101.573 20.9122C101.498 20.9806 101.438 21.0633 101.395 21.1555C101.353 21.2477 101.33 21.3474 101.326 21.4489C101.323 21.5503 101.34 21.6513 101.377 21.746C101.586 22.3381 101.974 22.8506 102.487 23.2131C102.999 23.5756 103.612 23.7703 104.24 23.7703V24.5293H105.758V23.7703C106.563 23.7703 107.335 23.4505 107.905 22.8811C108.474 22.3117 108.794 21.5395 108.794 20.7343C108.794 19.9291 108.474 19.1568 107.905 18.5875C107.335 18.0181 106.563 17.6982 105.758 17.6982V14.6622C106.418 14.6622 106.98 15.0834 107.19 15.674C107.221 15.7706 107.271 15.86 107.337 15.9369C107.404 16.0138 107.485 16.0766 107.576 16.1216C107.667 16.1667 107.766 16.193 107.867 16.1991C107.968 16.2052 108.07 16.191 108.165 16.1572C108.261 16.1234 108.349 16.0707 108.424 16.0023C108.499 15.9339 108.559 15.8512 108.602 15.759C108.644 15.6668 108.668 15.5671 108.671 15.4656C108.674 15.3642 108.657 15.2631 108.621 15.1685C108.411 14.5764 108.024 14.0639 107.511 13.7014C106.998 13.3389 106.386 13.1442 105.758 13.1442ZM105.758 19.2163V22.2523C106.16 22.2523 106.546 22.0924 106.831 21.8077C107.116 21.523 107.276 21.1369 107.276 20.7343C107.276 20.3317 107.116 19.9456 106.831 19.6609C106.546 19.3762 106.16 19.2163 105.758 19.2163Z" fill="white"/>
<path d="M78.8556 11.8C80.208 11.8 81.3056 12.8976 81.3056 14.25V20.8986C81.3056 22.5698 80.6417 24.1726 79.46 25.3544C78.2782 26.5361 76.6754 27.2 75.0042 27.2C73.333 27.2 71.7302 26.5361 70.5484 25.3544C69.3667 24.1726 68.7028 22.5698 68.7028 20.8986V14.25C68.7028 12.8976 69.799 11.8 71.1528 11.8H78.8556ZM68.1834 11.8C67.6791 12.4068 67.3758 13.1553 67.3154 13.942L67.3014 14.25V20.8986C67.3014 22.0844 67.5702 23.2072 68.049 24.2096C67.2192 24.4316 66.3494 24.4598 65.507 24.2919C64.6646 24.1241 63.872 23.7648 63.1906 23.2417C62.5093 22.7187 61.9573 22.0459 61.5774 21.2755C61.1976 20.5051 61 19.6576 61 18.7986V14.25C61 13.6351 61.2312 13.0428 61.6478 12.5905C62.0643 12.1382 62.6356 11.859 63.2484 11.8084L63.45 11.8H68.1834ZM81.825 11.8H86.55C87.9024 11.8 89 12.8976 89 14.25V18.8C89.0002 19.6584 88.803 20.5054 88.4237 21.2755C88.0445 22.0456 87.4932 22.7182 86.8126 23.2413C86.132 23.7644 85.3402 24.1241 84.4984 24.2925C83.6567 24.4608 82.7875 24.4334 81.958 24.2124C82.378 23.3332 82.6356 22.3644 82.693 21.3396L82.7056 20.8986V14.25C82.7056 13.319 82.3766 12.465 81.825 11.8ZM75 2C76.1139 2 77.1822 2.4425 77.9698 3.23015C78.7575 4.0178 79.2 5.08609 79.2 6.2C79.2 7.31391 78.7575 8.3822 77.9698 9.16985C77.1822 9.9575 76.1139 10.4 75 10.4C73.8861 10.4 72.8178 9.9575 72.0302 9.16985C71.2425 8.3822 70.8 7.31391 70.8 6.2C70.8 5.08609 71.2425 4.0178 72.0302 3.23015C72.8178 2.4425 73.8861 2 75 2ZM84.1 3.4C85.0283 3.4 85.9185 3.76875 86.5749 4.42513C87.2313 5.0815 87.6 5.97174 87.6 6.9C87.6 7.82826 87.2313 8.7185 86.5749 9.37487C85.9185 10.0313 85.0283 10.4 84.1 10.4C83.1717 10.4 82.2815 10.0313 81.6251 9.37487C80.9687 8.7185 80.6 7.82826 80.6 6.9C80.6 5.97174 80.9687 5.0815 81.6251 4.42513C82.2815 3.76875 83.1717 3.4 84.1 3.4ZM65.9 3.4C66.8283 3.4 67.7185 3.76875 68.3749 4.42513C69.0313 5.0815 69.4 5.97174 69.4 6.9C69.4 7.82826 69.0313 8.7185 68.3749 9.37487C67.7185 10.0313 66.8283 10.4 65.9 10.4C64.9717 10.4 64.0815 10.0313 63.4251 9.37487C62.7687 8.7185 62.4 7.82826 62.4 6.9C62.4 5.97174 62.7687 5.0815 63.4251 4.42513C64.0815 3.76875 64.9717 3.4 65.9 3.4Z" fill="white"/>
<path d="M34.1555 11.5547L34.6695 12.4516C35.1234 13.2445 35.8672 13.8297 36.7477 14.0812L39.9141 14.9836C40.8547 15.2516 41.5 16.1102 41.5 17.0891V19.2711C41.5 19.8727 41.8391 20.4195 42.375 20.6875C42.9109 20.9555 43.25 21.5023 43.25 22.1039V24.2367C43.25 25.0898 44.0648 25.7078 44.8852 25.4727C45.7656 25.2211 46.4492 24.5156 46.6734 23.6242L46.8266 23.0117C47.0562 22.0875 47.6578 21.2945 48.4836 20.8242L48.9266 20.5727C49.7469 20.1078 50.25 19.2328 50.25 18.2922V17.8383C50.25 17.1437 49.9711 16.4766 49.4789 15.9844L49.2656 15.7711C48.7734 15.2789 48.1063 15 47.4117 15H45.0547C44.4477 15 43.8461 14.8414 43.3156 14.5406L41.4289 13.4633C41.1937 13.3266 41.0133 13.1078 40.9258 12.8508C40.7508 12.3258 40.9859 11.757 41.4836 11.5109L41.8063 11.3469C42.1672 11.1664 42.5883 11.1336 42.9711 11.2648L44.2398 11.6859C44.6883 11.8336 45.1805 11.6641 45.4375 11.2758C45.6945 10.893 45.6672 10.3844 45.3719 10.0289L44.6281 9.1375C44.0812 8.48125 44.0867 7.52422 44.6445 6.87891L45.5031 5.87812C45.9844 5.31484 46.0609 4.51094 45.6945 3.87109L45.5633 3.64141C45.3719 3.63047 45.1859 3.625 44.9945 3.625C39.9195 3.625 35.6156 6.95547 34.1555 11.5547ZM56.375 15C56.375 12.9875 55.85 11.0953 54.9313 9.44922L53.5312 10.0125C52.6727 10.357 52.2297 11.3141 52.5195 12.1891L53.4437 14.9617C53.6352 15.5305 54.1 15.9625 54.6797 16.1047L56.2711 16.5039C56.3367 16.0117 56.3695 15.5086 56.3695 15H56.375ZM31 15C31 11.287 32.475 7.72601 35.1005 5.10051C37.726 2.475 41.287 1 45 1C48.713 1 52.274 2.475 54.8995 5.10051C57.525 7.72601 59 11.287 59 15C59 18.713 57.525 22.274 54.8995 24.8995C52.274 27.525 48.713 29 45 29C41.287 29 37.726 27.525 35.1005 24.8995C32.475 22.274 31 18.713 31 15Z" fill="white"/>
<path d="M13.65 19.725V17.025H16.35V19.725H13.65ZM12.3 7.57499H17.7V4.87499H12.3V7.57499ZM4.2 27.825C3.4575 27.825 2.82165 27.5604 2.29245 27.0312C1.76325 26.502 1.4991 25.8666 1.5 25.125V19.725H10.95V21.075C10.95 21.4575 11.0796 21.7783 11.3388 22.0375C11.598 22.2967 11.9184 22.4259 12.3 22.425H17.7C18.0825 22.425 18.4034 22.2954 18.6626 22.0362C18.9218 21.777 19.0509 21.4566 19.05 21.075V19.725H28.5V25.125C28.5 25.8675 28.2354 26.5033 27.7062 27.0325C27.177 27.5617 26.5416 27.8259 25.8 27.825H4.2ZM1.5 17.025V10.275C1.5 9.53249 1.7646 8.89664 2.2938 8.36744C2.823 7.83824 3.4584 7.57409 4.2 7.57499H9.6V4.87499C9.6 4.13249 9.8646 3.49664 10.3938 2.96744C10.923 2.43824 11.5584 2.17409 12.3 2.17499H17.7C18.4425 2.17499 19.0783 2.43959 19.6075 2.96879C20.1367 3.49799 20.4009 4.13339 20.4 4.87499V7.57499H25.8C26.5425 7.57499 27.1783 7.83959 27.7075 8.36879C28.2367 8.89799 28.5009 9.53339 28.5 10.275V17.025H19.05V15.675C19.05 15.2925 18.9204 14.9716 18.6612 14.7124C18.402 14.4532 18.0816 14.3241 17.7 14.325H12.3C11.9175 14.325 11.5967 14.4546 11.3375 14.7138C11.0783 14.973 10.9491 15.2934 10.95 15.675V17.025H1.5Z" fill="white"/>
</svg>
