<svg width="28" height="28" viewBox="0 0 28 28" fill="none" xmlns="http://www.w3.org/2000/svg">
<rect x="16.5" y="5.21289" width="9" height="7.64286" rx="1.5" stroke="#888888"/>
<path d="M24 5.5V4C24 2.34315 22.6569 1 21 1V1C19.3431 1 18 2.34315 18 4V5.5" stroke="#888888"/>
<path d="M22 8.85742C22 9.40971 21.5523 9.85742 21 9.85742C20.4477 9.85742 20 9.40971 20 8.85742C20 8.30514 20.4477 7.85742 21 7.85742C21.5523 7.85742 22 8.30514 22 8.85742Z" fill="#888888"/>
<rect x="16.5" y="19.2129" width="9" height="7.64286" rx="1.5" stroke="#222222"/>
<path d="M24 19.5V18C24 16.3431 22.6569 15 21 15V15C19.3431 15 18 16.3431 18 18V19.5" stroke="#222222"/>
<path d="M22 22.8574C22 23.4097 21.5523 23.8574 21 23.8574C20.4477 23.8574 20 23.4097 20 22.8574C20 22.3051 20.4477 21.8574 21 21.8574C21.5523 21.8574 22 22.3051 22 22.8574Z" fill="#222222"/>
<path d="M12 12.5V10.5C12 8.84315 10.6569 7.5 9 7.5H5C3.34315 7.5 2 8.84315 2 10.5V12.5" stroke="#888888" stroke-linecap="round"/>
<circle cx="7" cy="3.5" r="2.5" stroke="#888888"/>
<path d="M12 26.5V24.5C12 22.8431 10.6569 21.5 9 21.5H5C3.34315 21.5 2 22.8431 2 24.5V26.5" stroke="#222222" stroke-linecap="round"/>
<circle cx="7" cy="17.5" r="2.5" stroke="#222222"/>
</svg>
