<svg width="156" height="33" viewBox="0 0 156 33" fill="none" xmlns="http://www.w3.org/2000/svg">
<path d="M16.4406 20.251C18.1957 21.8505 19.7001 23.5999 19.1485 26.599C18.5969 29.6481 15.7887 31.1476 14.4849 30.6978C13.9834 30.4978 13.5822 29.948 13.8831 29.1482C14.4347 27.6987 15.9893 26.649 17.4936 26.1991C18.3963 25.9492 18.4966 25.4993 18.0453 25.1495C17.6441 24.8495 16.8919 24.5496 15.889 24.5496C13.2312 24.4997 10.4732 27.0489 11.3257 29.948C11.8271 31.6974 13.7327 32.9471 16.0896 32.997C18.7974 33.097 21.9566 31.3975 22.7088 27.8486C23.5112 23.8998 20.8534 20.5009 17.6942 19.3512C15.6382 18.7014 15.7887 19.6512 16.4406 20.251Z" fill="#EE2A7B"/>
<path d="M12.128 0.904111C13.1309 1.00408 16.1397 6.15251 16.8417 6.15251C17.5438 6.15251 23.0598 0.454248 24.0628 0.504233C25.2663 0.604203 24.1631 2.9035 22.5082 5.80262C21.6056 7.35215 21.1543 8.10192 21.1543 8.75172C21.1543 9.50149 24.2633 13.2504 23.6616 13.9501C23.2103 14.5 19.3992 12.4506 18.4965 12.0007C17.8446 11.7008 17.7945 12.1507 17.7945 12.8005C17.7945 13.3003 18.2458 16.3494 17.293 16.2494C14.7356 15.9495 9.82124 0.654187 12.128 0.904111Z" fill="#047BC1"/>
<path d="M31.4843 23.9989C32.1863 25.8484 31.9858 27.7978 32.4371 28.7974C32.8884 29.7472 33.9415 30.0471 34.7438 29.4972C35.5963 28.8474 35.5963 26.4982 35.3957 25.1486C35.1951 23.9489 34.3928 20.2001 32.5374 19.5003C31.384 19.0504 30.0301 19.7502 29.8295 20.55C29.6289 21.3497 28.1245 24.5488 27.5227 24.2988C27.272 24.1989 26.7204 22.2994 26.4697 21.5497C26.1688 20.7999 25.1157 17.301 24.3635 17.251C23.7618 17.201 23.6113 19.0504 23.7618 20.6499C23.8621 21.9995 24.3635 26.5481 25.7676 27.3979C27.1216 28.1976 30.1303 26.6481 31.4843 23.9989Z" fill="#F58220"/>
<path d="M12.8805 19.9011C13.9837 20.201 14.5353 20.8008 14.4851 21.6506C14.4851 22.5503 13.6326 23.2501 12.4291 23.1501C10.9749 23.0002 5.70956 21.2007 3.10196 17.7018C2.04889 16.2522 2.55035 14.9526 3.804 14.1029C6.4116 12.3534 12.2286 11.1038 12.8805 12.3534C13.2315 13.0532 11.0752 13.753 9.32008 14.5028C7.66526 15.2025 6.06058 16.0023 6.06058 16.5021C6.01043 17.1519 9.47052 19.0514 12.8805 19.9011Z" fill="#00AEE6"/>
<path d="M12.0277 19.8013C12.128 18.4517 11.8271 15.0528 11.2253 14.8029C10.7239 14.5529 10.0218 16.5023 9.47021 19.0515" fill="#00AEE6"/>
<path d="M18.6472 2.15527C18.2461 2.80507 17.3434 3.00501 16.6915 2.60513C16.0396 2.20526 15.8391 1.30553 16.2402 0.655733C16.6414 0.00593307 17.544 -0.194006 18.1959 0.205872C18.8478 0.655733 19.0484 1.50547 18.6472 2.15527Z" fill="#047BC1"/>
<path d="M37.903 7.25545C37.7024 8.00522 36.9502 8.50507 36.1981 8.30513C35.4459 8.10519 34.9444 7.35542 35.145 6.60565C35.3456 5.85588 36.0978 5.35604 36.85 5.55597C37.6523 5.75591 38.1036 6.50568 37.903 7.25545Z" fill="#39B54A"/>
<path d="M2.60027 16.3014C2.14896 16.9512 1.29647 17.1511 0.644572 16.7013C-0.00732872 16.2514 -0.207914 15.4017 0.243402 14.7519C0.694718 14.1021 1.5472 13.9021 2.1991 14.352C2.85101 14.7519 3.05159 15.6016 2.60027 16.3014Z" fill="#00AEE6"/>
<path d="M25.4167 15.7524C25.8178 16.4022 26.3694 16.7521 27.2721 17.102C28.4756 17.5519 32.1363 17.4519 34.5934 15.0026C36.85 12.7533 37.1007 9.35437 35.1952 7.35498C32.8885 4.95572 28.3753 5.10567 25.9683 8.10475C24.6143 9.75424 24.8149 11.6037 25.7175 12.4534C26.3193 13.0032 27.2219 13.3531 28.0744 13.4031C28.8266 13.4531 28.8266 13.2532 28.4756 12.9033C27.6732 12.0535 27.7234 10.9539 28.1747 10.1041C29.2779 8.05477 31.8354 7.6049 32.9386 8.85452C34.092 10.1041 33.2395 12.3534 31.033 13.5531C29.1776 14.6028 27.0715 14.2529 25.6172 13.653C25.0656 14.4028 25.1158 15.3025 25.4167 15.7524Z" fill="#39B54A"/>
<path d="M145.021 17.1016H153.999V19.9906H146.938V20.7331H154.269V20.9626C154.269 21.2866 154.174 21.5251 153.985 21.6781C153.805 21.8401 153.513 21.9211 153.108 21.9211H145.048V18.9916H152.109V18.2896H145.021V17.1016ZM150.354 11.5126H146.007V12.6061H149.746V13.7401H146.007V14.9281H150.894V15.2116C150.894 15.5356 150.799 15.7786 150.61 15.9406C150.43 16.0936 150.138 16.1701 149.733 16.1701H144.09V10.2706H150.354V11.5126ZM150.421 12.5386H152.109V10.2031H154.539V10.2841C154.179 10.4281 153.999 10.7251 153.999 11.1751V15.6706C153.999 15.9946 153.904 16.2376 153.715 16.3996C153.535 16.5526 153.243 16.6291 152.838 16.6291H152.109V13.7671H150.421V12.5386Z" fill="#103A6A"/>
<path d="M132.63 16.0105H134.183V11.8255H132.698V10.543H141.662V11.8255H140.177V16.0105H141.729V16.645C141.729 16.888 141.662 17.059 141.527 17.158C141.392 17.248 141.243 17.293 141.081 17.293H138.138V18.8455H142.85V19.5475C142.85 19.7905 142.782 19.9615 142.647 20.0605C142.512 20.1505 142.364 20.1955 142.202 20.1955H131.51V18.8455H136.221V17.293H132.63V16.0105ZM136.1 16.0105H138.26V11.8255H136.1V16.0105Z" fill="#103A6A"/>
<path d="M119.996 12.6331C119.996 12.2461 120.077 11.9041 120.239 11.6071C120.401 11.3101 120.626 11.0626 120.914 10.8646C121.211 10.6666 121.557 10.5181 121.953 10.4191C122.349 10.3201 122.786 10.2706 123.263 10.2706C123.731 10.2706 124.163 10.3201 124.559 10.4191C124.964 10.5181 125.31 10.6666 125.598 10.8646C125.895 11.0626 126.125 11.3101 126.287 11.6071C126.449 11.9041 126.53 12.2461 126.53 12.6331C126.53 13.0291 126.449 13.3756 126.287 13.6726C126.125 13.9606 125.895 14.2036 125.598 14.4016C125.31 14.5996 124.964 14.7481 124.559 14.8471C124.163 14.9461 123.731 14.9956 123.263 14.9956C122.786 14.9956 122.349 14.9461 121.953 14.8471C121.557 14.7481 121.211 14.5996 120.914 14.4016C120.626 14.2036 120.401 13.9561 120.239 13.6591C120.077 13.3621 119.996 13.0201 119.996 12.6331ZM125.517 17.1421H127.947V10.2031H130.377V10.2841C130.017 10.4281 129.837 10.7251 129.837 11.1751V18.4516C129.837 18.7756 129.743 19.0141 129.554 19.1671C129.374 19.3201 129.081 19.3966 128.676 19.3966H127.947V18.4246H125.517V17.1421ZM130.107 20.6386V20.9626C130.107 21.2866 130.013 21.5251 129.824 21.6781C129.644 21.8401 129.351 21.9211 128.946 21.9211H120.752V18.8566H122.669V20.6386H130.107ZM119.361 15.4816H124.572C125.166 15.4816 125.706 15.4501 126.192 15.3871C126.687 15.3241 127.092 15.2341 127.407 15.1171V16.2241C126.759 16.5841 125.859 16.7641 124.707 16.7641H124.073V17.4931C124.073 17.8171 123.978 18.0601 123.789 18.2221C123.609 18.3751 123.317 18.4516 122.912 18.4516H122.25V16.7641H119.361V15.4816ZM121.886 12.6331C121.886 13.0381 122.016 13.3306 122.277 13.5106C122.538 13.6906 122.867 13.7806 123.263 13.7806C123.659 13.7806 123.987 13.6951 124.248 13.5241C124.509 13.3441 124.64 13.0471 124.64 12.6331C124.64 12.2191 124.509 11.9266 124.248 11.7556C123.987 11.5756 123.659 11.4856 123.263 11.4856C122.867 11.4856 122.538 11.5756 122.277 11.7556C122.016 11.9356 121.886 12.2281 121.886 12.6331Z" fill="#103A6A"/>
<path d="M114.354 17.9926C114.246 18.1996 114.098 18.3301 113.909 18.3841C113.729 18.4381 113.508 18.3976 113.247 18.2626C112.824 18.0556 112.41 17.7586 112.005 17.3716C111.6 16.9846 111.245 16.5346 110.939 16.0216C110.615 16.5886 110.237 17.0881 109.805 17.5201C109.382 17.9431 108.941 18.2716 108.482 18.5056C108.212 18.6406 107.982 18.6856 107.793 18.6406C107.604 18.5866 107.442 18.4561 107.307 18.2491L106.997 17.7631C107.519 17.5201 107.964 17.2321 108.333 16.8991C108.702 16.5571 109.004 16.1836 109.238 15.7786C109.472 15.3736 109.643 14.9461 109.751 14.4961C109.859 14.0371 109.913 13.5691 109.913 13.0921V11.8501H107.577V10.5406H114.111V11.8501H111.816V12.8491V13.0381V13.0921C111.816 14.0551 112.055 14.9146 112.532 15.6706C113.018 16.4266 113.711 17.0386 114.611 17.5066L114.354 17.9926ZM115.664 10.2031H118.094V10.2841C117.734 10.4281 117.554 10.7251 117.554 11.1751V21.0301C117.554 21.3541 117.459 21.5926 117.27 21.7456C117.09 21.9076 116.798 21.9886 116.393 21.9886H115.664V10.2031Z" fill="#103A6A"/>
<path d="M95.2261 13.4026C95.2261 12.9616 95.3116 12.5521 95.4826 12.1741C95.6536 11.7961 95.8876 11.4721 96.1846 11.2021C96.4816 10.9321 96.8326 10.7206 97.2376 10.5676C97.6426 10.4146 98.0836 10.3381 98.5606 10.3381C98.9656 10.3381 99.3436 10.3966 99.6946 10.5136C100.046 10.6216 100.361 10.7791 100.64 10.9861C100.928 11.1841 101.171 11.4226 101.369 11.7016C101.567 11.9806 101.711 12.2911 101.801 12.6331H103.515V10.2031H105.945V10.2841C105.585 10.4281 105.405 10.7251 105.405 11.1751V15.7246C105.405 16.0486 105.311 16.2916 105.122 16.4536C104.942 16.6066 104.649 16.6831 104.244 16.6831H103.515V13.8886H101.855C101.801 14.2666 101.675 14.6176 101.477 14.9416C101.288 15.2566 101.049 15.5266 100.761 15.7516C100.473 15.9766 100.14 16.1521 99.7621 16.2781C99.3931 16.4041 98.9926 16.4671 98.5606 16.4671C98.0836 16.4671 97.6426 16.3906 97.2376 16.2376C96.8326 16.0846 96.4816 15.8731 96.1846 15.6031C95.8876 15.3331 95.6536 15.0136 95.4826 14.6446C95.3116 14.2666 95.2261 13.8526 95.2261 13.4026ZM98.3446 18.3976H103.515V17.2231H105.405V20.9626C105.405 21.2866 105.311 21.5251 105.122 21.6781C104.942 21.8401 104.649 21.9211 104.244 21.9211H96.4546V17.2231H98.3446V18.3976ZM97.1161 13.4026C97.1161 14.0146 97.2556 14.4781 97.5346 14.7931C97.8226 15.0991 98.1646 15.2521 98.5606 15.2521C98.9566 15.2521 99.2941 15.0991 99.5731 14.7931C99.8611 14.4781 100.005 14.0146 100.005 13.4026C100.005 12.7906 99.8611 12.3316 99.5731 12.0256C99.2941 11.7106 98.9566 11.5531 98.5606 11.5531C98.1646 11.5531 97.8226 11.7106 97.5346 12.0256C97.2556 12.3316 97.1161 12.7906 97.1161 13.4026ZM103.515 19.6126H98.3446V20.7061H103.515V19.6126Z" fill="#103A6A"/>
<path d="M91.3668 10.2031H93.7968V10.2841C93.4368 10.4281 93.2568 10.7251 93.2568 11.1751V21.0301C93.2568 21.3541 93.1623 21.5926 92.9733 21.7456C92.7933 21.9076 92.5008 21.9886 92.0958 21.9886H91.3668V10.2031ZM83.0913 17.6821C83.8113 17.4391 84.4548 17.1151 85.0218 16.7101C85.5888 16.2961 86.0658 15.8326 86.4528 15.3196C86.8488 14.7976 87.1458 14.2441 87.3438 13.6591C87.5508 13.0741 87.6543 12.4846 87.6543 11.8906H83.3478V10.5406H89.5443V11.7691C89.5443 12.4801 89.4093 13.1866 89.1393 13.8886C88.8693 14.5906 88.5093 15.2431 88.0593 15.8461C87.6183 16.4401 87.1098 16.9711 86.5338 17.4391C85.9578 17.8981 85.3638 18.2446 84.7518 18.4786C84.4098 18.6136 84.1218 18.6721 83.8878 18.6541C83.6628 18.6271 83.4783 18.4696 83.3343 18.1816L83.0913 17.6821Z" fill="#103A6A"/>
<path d="M71.132 10.3381H77.666V11.6206H75.2495V11.9716V12.1471V12.2146C75.2495 12.9706 75.452 13.6186 75.857 14.1586C76.271 14.6986 76.973 15.1486 77.963 15.5086L77.747 16.0081C77.657 16.2061 77.513 16.3456 77.315 16.4266C77.126 16.4986 76.8875 16.4806 76.5995 16.3726C76.1675 16.2196 75.767 16.0081 75.398 15.7381C75.029 15.4591 74.7005 15.1351 74.4125 14.7661C74.1155 15.2251 73.7555 15.6166 73.3325 15.9406C72.9185 16.2556 72.4685 16.4896 71.9825 16.6426C71.6945 16.7416 71.4605 16.7551 71.2805 16.6831C71.1005 16.6021 70.961 16.4581 70.862 16.2511L70.6055 15.7381C71.1725 15.5761 71.6315 15.3736 71.9825 15.1306C72.3425 14.8786 72.6215 14.5996 72.8195 14.2936C73.0265 13.9876 73.166 13.6591 73.238 13.3081C73.31 12.9571 73.346 12.5926 73.346 12.2146V11.6206H71.132V10.3381ZM72.104 17.4256H81.1085V21.0301C81.1085 21.3541 81.014 21.5926 80.825 21.7456C80.645 21.9076 80.3525 21.9886 79.9475 21.9886H79.2185V18.6811H72.104V17.4256ZM77.261 12.5926H79.2185V10.2031H81.6485V10.2841C81.2885 10.4281 81.1085 10.7251 81.1085 11.1751V15.9271C81.1085 16.2511 81.014 16.4941 80.825 16.6561C80.645 16.8091 80.3525 16.8856 79.9475 16.8856H79.2185V13.8481H77.261V12.5926Z" fill="#103A6A"/>
<path d="M58.6191 18.9797H61.5081V17.6297C60.9141 17.4767 60.4461 17.1977 60.1041 16.7927C59.7621 16.3787 59.5911 15.9017 59.5911 15.3617C59.5911 15.0197 59.6586 14.7047 59.7936 14.4167C59.9376 14.1197 60.1356 13.8677 60.3876 13.6607C60.6486 13.4447 60.9591 13.2782 61.3191 13.1612C61.6791 13.0352 62.0796 12.9722 62.5206 12.9722C62.9616 12.9722 63.3621 13.0352 63.7221 13.1612C64.0821 13.2782 64.3881 13.4447 64.6401 13.6607C64.9011 13.8677 65.0991 14.1197 65.2341 14.4167C65.3781 14.7047 65.4501 15.0197 65.4501 15.3617C65.4501 15.9287 65.2656 16.4192 64.8966 16.8332C64.5366 17.2472 64.0371 17.5262 63.3981 17.6702V18.9797H64.5051C65.0091 18.9797 65.5041 18.9527 65.9901 18.8987C66.4761 18.8447 66.8811 18.7682 67.2051 18.6692V10.2047H69.6351V10.2857C69.2751 10.4297 69.0951 10.7267 69.0951 11.1767V21.0317C69.0951 21.3557 69.0006 21.5942 68.8116 21.7472C68.6316 21.9092 68.3391 21.9902 67.9341 21.9902H67.2051V19.8302C66.8811 19.9832 66.4851 20.1047 66.0171 20.1947C65.5581 20.2847 65.0541 20.3297 64.5051 20.3297H58.6191V18.9797ZM59.1186 11.1497H61.5756V9.86719H63.4656V11.1497H65.9226V12.4322H59.1186V11.1497ZM61.4136 15.3617C61.4136 15.6947 61.5036 15.9872 61.6836 16.2392C61.8636 16.4822 62.1426 16.6037 62.5206 16.6037C62.8986 16.6037 63.1776 16.4822 63.3576 16.2392C63.5376 15.9872 63.6276 15.6947 63.6276 15.3617C63.6276 15.0287 63.5376 14.7407 63.3576 14.4977C63.1776 14.2457 62.8986 14.1197 62.5206 14.1197C62.1426 14.1197 61.8636 14.2457 61.6836 14.4977C61.5036 14.7407 61.4136 15.0287 61.4136 15.3617Z" fill="#103A6A"/>
<path d="M54.5167 10.2031H56.9467V10.2841C56.5867 10.4281 56.4067 10.7251 56.4067 11.1751V13.7671H57.9457V15.1171H56.4067V21.0301C56.4067 21.3541 56.3122 21.5926 56.1232 21.7456C55.9432 21.9076 55.6507 21.9886 55.2457 21.9886H54.5167V10.2031ZM53.5582 18.4111C53.4322 18.5731 53.2702 18.6676 53.0722 18.6946C52.8742 18.7216 52.6582 18.6451 52.4242 18.4651C52.0282 18.1771 51.6322 17.7946 51.2362 17.3176C50.8402 16.8406 50.4847 16.3051 50.1697 15.7111C49.8637 16.3321 49.5037 16.9036 49.0897 17.4256C48.6757 17.9476 48.2392 18.3616 47.7802 18.6676C47.5282 18.8386 47.3077 18.9151 47.1187 18.8971C46.9297 18.8701 46.7587 18.7711 46.6057 18.6001L46.2007 18.1276C46.6777 17.7946 47.1007 17.4166 47.4697 16.9936C47.8387 16.5616 48.1447 16.1071 48.3877 15.6301C48.6397 15.1531 48.8287 14.6626 48.9547 14.1586C49.0897 13.6546 49.1572 13.1641 49.1572 12.6871V10.4731H51.0607V12.4441V12.6061V12.6871C51.0607 13.1911 51.1282 13.6861 51.2632 14.1721C51.4072 14.6491 51.6052 15.1081 51.8572 15.5491C52.1182 15.9901 52.4242 16.4041 52.7752 16.7911C53.1262 17.1781 53.5177 17.5246 53.9497 17.8306L53.5582 18.4111Z" fill="#103A6A"/>
</svg>
