<svg width="80" height="80" viewBox="0 0 80 80" fill="none" xmlns="http://www.w3.org/2000/svg">
<g opacity="0.2">
<path d="M46.3915 34.2461H25.7097C24.8949 34.2461 24.2344 34.9066 24.2344 35.7215V50.4929C24.2344 51.3077 24.8949 51.9682 25.7097 51.9682H46.3915C47.2063 51.9682 47.8668 51.3077 47.8668 50.4929V35.7215C47.8668 34.9066 47.2063 34.2461 46.3915 34.2461Z" fill="#0055FF"/>
</g>
<path d="M48.6013 60.8316C55.5371 60.8316 61.1597 55.209 61.1597 48.2732C61.1597 41.3374 55.5371 35.7148 48.6013 35.7148C41.6655 35.7148 36.043 41.3374 36.043 48.2732C36.043 55.209 41.6655 60.8316 48.6013 60.8316Z" fill="white"/>
<path d="M34.5677 52.2166H24.2313C22.8609 52.2166 21.5466 51.6728 20.5768 50.7047C19.607 49.7365 19.0609 48.4231 19.0586 47.0528V23.9447C19.0586 23.7491 19.1363 23.5614 19.2747 23.4231C19.413 23.2848 19.6006 23.207 19.7963 23.207H32.8079C33.353 23.2066 33.8914 23.3267 34.3846 23.5587C34.8778 23.7907 35.3137 24.1289 35.6609 24.5491L38.4161 27.882H55.2494C55.4451 27.882 55.6327 27.9597 55.771 28.098C55.9094 28.2364 55.9871 28.424 55.9871 28.6197V33.5523C55.9871 33.748 55.9094 33.9356 55.771 34.074C55.6327 34.2123 55.4451 34.29 55.2494 34.29C55.0538 34.29 54.8661 34.2123 54.7278 34.074C54.5895 33.9356 54.5117 33.748 54.5117 33.5523V29.3129H38.0694C37.9607 29.3137 37.8533 29.2902 37.7548 29.244C37.6564 29.1979 37.5696 29.1303 37.5006 29.0463L34.5232 25.4467C34.3151 25.1932 34.0533 24.9892 33.7566 24.8493C33.4599 24.7094 33.1359 24.6372 32.8079 24.638H20.534V47.0528C20.5293 47.5409 20.6215 48.0251 20.8053 48.4773C20.9891 48.9295 21.2608 49.3407 21.6047 49.6871C21.9487 50.0335 22.3579 50.3082 22.8088 50.4952C23.2596 50.6823 23.7431 50.778 24.2313 50.7768H34.5677C34.7633 50.7768 34.951 50.8545 35.0893 50.9928C35.2276 51.1312 35.3054 51.3188 35.3054 51.5144C35.3054 51.7101 35.2276 51.8977 35.0893 52.0361C34.951 52.1744 34.7633 52.2521 34.5677 52.2521V52.2166Z" fill="#0044CC"/>
<path d="M30.8712 28.8191H24.4721C24.2764 28.8191 24.0888 28.7414 23.9504 28.6031C23.8121 28.4647 23.7344 28.2771 23.7344 28.0814C23.7344 27.8858 23.8121 27.6982 23.9504 27.5598C24.0888 27.4215 24.2764 27.3438 24.4721 27.3438H30.8712C31.0669 27.3438 31.2545 27.4215 31.3928 27.5598C31.5312 27.6982 31.6089 27.8858 31.6089 28.0814C31.6089 28.2771 31.5312 28.4647 31.3928 28.6031C31.2545 28.7414 31.0669 28.8191 30.8712 28.8191Z" fill="#0044CC"/>
<path d="M39.0044 79.2944C38.8738 79.2935 38.7455 79.2599 38.6312 79.1967L5.37328 59.9903C5.26016 59.926 5.16604 59.833 5.10049 59.7206C5.03493 59.6082 5.00026 59.4805 5 59.3504V20.9465C5.00026 20.8164 5.03493 20.6887 5.10049 20.5763C5.16604 20.4639 5.26016 20.3709 5.37328 20.3066L38.6312 1.10023C38.743 1.0346 38.8703 1 39 1C39.1297 1 39.257 1.0346 39.3688 1.10023L72.6356 20.3066C72.7465 20.3727 72.8383 20.4664 72.9022 20.5785C72.9661 20.6907 72.9998 20.8175 73 20.9465V59.3504C72.9998 59.4794 72.9661 59.6062 72.9022 59.7184C72.8383 59.8306 72.7465 59.9242 72.6356 59.9903L39.3688 79.2145C39.2557 79.2705 39.1306 79.2979 39.0044 79.2944ZM6.47536 58.9238L39.0044 77.7035L71.5246 58.9238V21.3731L39.0044 2.59336L6.47536 21.3731V58.9238Z" fill="#0044CC"/>
<path d="M47.8846 57.8902C47.5557 57.8902 47.2269 57.8902 46.898 57.8902C45.1933 57.7122 43.5475 57.1661 42.0745 56.2897C40.6014 55.4134 39.3363 54.2276 38.3664 52.8143C37.3966 51.401 36.7452 49.794 36.4573 48.1044C36.1694 46.4147 36.2518 44.6826 36.6989 43.0279C37.1459 41.3732 37.947 39.8354 39.0467 38.5206C40.1463 37.2058 41.5184 36.1455 43.068 35.413C44.6176 34.6804 46.3078 34.2931 48.0217 34.2778C49.7357 34.2625 51.4326 34.6196 52.995 35.3243C53.09 35.3602 53.1766 35.4153 53.2493 35.4862C53.322 35.5571 53.3792 35.6423 53.4175 35.7363C53.4558 35.8304 53.4742 35.9313 53.4717 36.0329C53.4691 36.1344 53.4456 36.2343 53.4027 36.3263C53.3598 36.4183 53.2983 36.5005 53.2221 36.5676C53.1459 36.6348 53.0567 36.6855 52.96 36.7166C52.8634 36.7477 52.7613 36.7585 52.6603 36.7483C52.5592 36.7381 52.4614 36.7072 52.3729 36.6574C50.4488 35.7568 48.2941 35.4709 46.2018 35.8386C44.1095 36.2063 42.1813 37.2097 40.6796 38.7123C39.1779 40.2149 38.1757 42.1438 37.8093 44.2363C37.4429 46.3288 37.7301 48.4834 38.6319 50.4069C39.5337 52.3303 41.0063 53.9292 42.8492 54.9859C44.692 56.0426 46.8158 56.5059 48.9313 56.3126C51.0469 56.1193 53.0515 55.2788 54.6724 53.9056C56.2932 52.5324 57.4516 50.6931 57.9899 48.6381C58.49 46.7468 58.4407 44.7521 57.8477 42.8877C57.8014 42.7053 57.8265 42.512 57.9181 42.3475C58.0096 42.183 58.1606 42.0597 58.3401 42.0029C58.5196 41.9461 58.714 41.9601 58.8836 42.0419C59.0531 42.1238 59.1849 42.2674 59.252 42.4434C59.9247 44.5717 59.971 46.8486 59.3853 49.0025C58.7209 51.5471 57.2318 53.7998 55.1508 55.4079C53.0698 57.0161 50.5145 57.889 47.8846 57.8902Z" fill="#0044CC"/>
<path d="M47.8744 37.5711C47.6788 37.5711 47.4911 37.4934 47.3528 37.355C47.2144 37.2167 47.1367 37.0291 47.1367 36.8334V33.1361C47.1367 32.9405 47.2144 32.7528 47.3528 32.6145C47.4911 32.4762 47.6788 32.3984 47.8744 32.3984C48.07 32.3984 48.2577 32.4762 48.396 32.6145C48.5344 32.7528 48.6121 32.9405 48.6121 33.1361V36.8334C48.6121 37.0291 48.5344 37.2167 48.396 37.355C48.2577 37.4934 48.07 37.5711 47.8744 37.5711Z" fill="#0044CC"/>
<path d="M47.8744 59.738C47.6788 59.738 47.4911 59.6603 47.3528 59.5219C47.2144 59.3836 47.1367 59.196 47.1367 59.0003V55.3119C47.1367 55.1163 47.2144 54.9286 47.3528 54.7903C47.4911 54.6519 47.6788 54.5742 47.8744 54.5742C48.07 54.5742 48.2577 54.6519 48.396 54.7903C48.5344 54.9286 48.6121 55.1163 48.6121 55.3119V59.0003C48.6121 59.196 48.5344 59.3836 48.396 59.5219C48.2577 59.6603 48.07 59.738 47.8744 59.738Z" fill="#0044CC"/>
<path d="M60.8061 46.8113H57.1088C57.0119 46.8113 56.916 46.7922 56.8265 46.7551C56.737 46.7181 56.6557 46.6637 56.5872 46.5952C56.5187 46.5267 56.4643 46.4454 56.4272 46.3559C56.3902 46.2664 56.3711 46.1705 56.3711 46.0736C56.3711 45.9767 56.3902 45.8808 56.4272 45.7913C56.4643 45.7018 56.5187 45.6205 56.5872 45.552C56.6557 45.4835 56.737 45.4292 56.8265 45.3921C56.916 45.355 57.0119 45.3359 57.1088 45.3359H60.8061C61.0017 45.3359 61.1893 45.4137 61.3277 45.552C61.466 45.6903 61.5438 45.878 61.5438 46.0736C61.5438 46.2693 61.466 46.4569 61.3277 46.5952C61.1893 46.7336 61.0017 46.8113 60.8061 46.8113Z" fill="#0044CC"/>
<path d="M38.6331 46.8113H34.9447C34.7491 46.8113 34.5614 46.7336 34.4231 46.5952C34.2847 46.4569 34.207 46.2693 34.207 46.0736C34.207 45.878 34.2847 45.6903 34.4231 45.552C34.5614 45.4137 34.7491 45.3359 34.9447 45.3359H38.6331C38.73 45.3359 38.8259 45.355 38.9154 45.3921C39.0049 45.4292 39.0862 45.4835 39.1547 45.552C39.2232 45.6205 39.2776 45.7018 39.3146 45.7913C39.3517 45.8808 39.3708 45.9767 39.3708 46.0736C39.3708 46.1705 39.3517 46.2664 39.3146 46.3559C39.2776 46.4454 39.2232 46.5267 39.1547 46.5952C39.0862 46.6637 39.0049 46.7181 38.9154 46.7551C38.8259 46.7922 38.73 46.8113 38.6331 46.8113Z" fill="#0044CC"/>
<g opacity="0.8">
<path d="M47.8646 51.7175C46.7449 51.7175 45.6503 51.3855 44.7193 50.7634C43.7882 50.1413 43.0626 49.2571 42.6341 48.2226C42.2056 47.1881 42.0935 46.0497 42.3119 44.9515C42.5304 43.8533 43.0696 42.8445 43.8613 42.0527C44.6531 41.261 45.6619 40.7218 46.7601 40.5033C47.8583 40.2849 48.9967 40.397 50.0312 40.8255C51.0657 41.254 51.9499 41.9796 52.572 42.9107C53.1941 43.8417 53.5261 44.9363 53.5261 46.056C53.5261 47.5575 52.9296 48.9976 51.8679 50.0593C50.8061 51.121 49.3661 51.7175 47.8646 51.7175ZM47.8646 41.8699C47.0367 41.8699 46.2273 42.1154 45.5389 42.5754C44.8505 43.0354 44.314 43.6891 43.9971 44.4541C43.6803 45.219 43.5974 46.0607 43.7589 46.8727C43.9204 47.6847 44.3191 48.4306 44.9046 49.016C45.49 49.6015 46.2359 50.0002 47.0479 50.1617C47.86 50.3232 48.7017 50.2403 49.4666 49.9235C50.2315 49.6066 50.8853 49.0701 51.3452 48.3817C51.8052 47.6933 52.0507 46.884 52.0507 46.056C52.0437 44.9496 51.5998 43.8908 50.8158 43.11C50.0318 42.3293 48.971 41.89 47.8646 41.8877V41.8699Z" fill="#FF6B00"/>
</g>
</svg>
