<svg width="80" height="80" viewBox="0 0 80 80" fill="none" xmlns="http://www.w3.org/2000/svg">
<path d="M19.332 23.8984V47.051C19.332 48.2296 19.8002 49.3599 20.6336 50.1933C21.467 51.0266 22.5973 51.4948 23.7759 51.4948H54.7763V28.5556H37.5874L34.61 25.0005C34.3344 24.6637 33.9871 24.3924 33.5936 24.2064C33.2001 24.0204 32.7701 23.9243 32.3348 23.9251L19.332 23.8984Z" fill="white"/>
<path d="M54.7774 52.2166H23.7771C22.4083 52.2142 21.0962 51.6694 20.1283 50.7015C19.1604 49.7337 18.6156 48.4216 18.6133 47.0528V23.9447C18.6133 23.7491 18.691 23.5614 18.8293 23.4231C18.9677 23.2848 19.1553 23.207 19.351 23.207H32.3359C32.8809 23.2072 33.4191 23.3276 33.9122 23.5596C34.4054 23.7915 34.8413 24.1294 35.1889 24.5491L37.9441 27.882H54.7774C54.9731 27.882 55.1607 27.9597 55.2991 28.098C55.4374 28.2364 55.5151 28.424 55.5151 28.6197V51.4789C55.5151 51.6745 55.4374 51.8622 55.2991 52.0005C55.1607 52.1389 54.9731 52.2166 54.7774 52.2166ZM20.062 24.6646V47.0528C20.0572 47.5424 20.15 48.0281 20.335 48.4814C20.5199 48.9348 20.7932 49.3468 21.139 49.6934C21.4848 50.0401 21.8962 50.3144 22.3491 50.5004C22.802 50.6864 23.2874 50.7803 23.7771 50.7768H54.0398V29.3129H37.5975C37.4876 29.3131 37.379 29.2894 37.2792 29.2434C37.1794 29.1973 37.0909 29.1301 37.0198 29.0463L34.0424 25.4467C33.8365 25.193 33.5763 24.9886 33.281 24.8486C32.9857 24.7086 32.6627 24.6367 32.3359 24.638L20.062 24.6646Z" fill="#0044CC"/>
<path d="M30.3986 28.8191H23.9994C23.8038 28.8191 23.6161 28.7414 23.4778 28.6031C23.3394 28.4647 23.2617 28.2771 23.2617 28.0814C23.2617 27.8858 23.3394 27.6982 23.4778 27.5598C23.6161 27.4215 23.8038 27.3438 23.9994 27.3438H30.3986C30.5942 27.3438 30.7818 27.4215 30.9202 27.5598C31.0585 27.6982 31.1362 27.8858 31.1362 28.0814C31.1362 28.2771 31.0585 28.4647 30.9202 28.6031C30.7818 28.7414 30.5942 28.8191 30.3986 28.8191Z" fill="#0044CC"/>
<g opacity="0.2">
<path d="M45.9071 34.25H25.2254C24.4105 34.25 23.75 34.9105 23.75 35.7254V50.4968C23.75 51.3116 24.4105 51.9721 25.2254 51.9721H45.9071C46.7219 51.9721 47.3825 51.3116 47.3825 50.4968V35.7254C47.3825 34.9105 46.7219 34.25 45.9071 34.25Z" fill="#0055FF"/>
</g>
<path d="M40.0044 79.2944C39.8738 79.2935 39.7455 79.2599 39.6312 79.1967L6.37328 59.9903C6.26016 59.926 6.16604 59.833 6.10049 59.7206C6.03493 59.6082 6.00026 59.4805 6 59.3504V20.9465C6.00026 20.8164 6.03493 20.6887 6.10049 20.5763C6.16604 20.4639 6.26016 20.3709 6.37328 20.3066L39.6312 1.10023C39.743 1.0346 39.8703 1 40 1C40.1297 1 40.257 1.0346 40.3688 1.10023L73.6356 20.3066C73.7465 20.3727 73.8383 20.4664 73.9022 20.5785C73.9661 20.6907 73.9998 20.8175 74 20.9465V59.3504C73.9998 59.4795 73.9661 59.6063 73.9022 59.7184C73.8383 59.8306 73.7465 59.9242 73.6356 59.9903L40.3688 79.2145C40.2557 79.2705 40.1306 79.2979 40.0044 79.2944ZM7.47536 58.9238L40.0044 77.7036L72.5246 58.9238V21.3731L40.0044 2.59336L7.47536 21.3731V58.9238Z" fill="#0044CC"/>
<path fill-rule="evenodd" clip-rule="evenodd" d="M46.3066 32.9961L51.1238 33.1027L51.0793 34.9425C52.615 35.2057 54.0885 35.7511 55.4254 36.5512L57.3363 34.7736L60.6692 38.2487L59.025 39.813C60.1748 41.3224 60.9678 43.0726 61.3447 44.9323H63.3711L63.2644 49.7495H61.3802C61.0785 51.3311 60.475 52.8399 59.6027 54.1933L61.3802 56.0509L57.8873 59.3749L56.2609 57.6773C54.5536 58.8891 52.5769 59.6669 50.5016 59.9437L50.4394 62.0234L45.6312 61.9079V59.6859C43.8184 59.2204 42.129 58.3651 40.6807 57.1796L39.312 58.4772L35.9702 55.0021L37.6678 53.4379C36.9327 52.1143 36.442 50.6692 36.2191 49.1718L34.3438 49.1273L34.4504 44.3102L36.4679 44.3546C36.9259 42.6182 37.7502 41 38.8854 39.6086L37.33 37.9821L40.8229 34.667L42.5471 36.4445C43.7122 35.7708 44.9789 35.2905 46.2977 35.0225L46.3066 32.9961Z" fill="white"/>
<path d="M51.1237 33.1338H51.8613C51.8637 32.9373 51.7886 32.7478 51.6521 32.6064C51.5157 32.4649 51.329 32.383 51.1326 32.3783L51.1237 33.1338ZM46.3065 33.0005V32.2628C46.2096 32.2604 46.1132 32.2772 46.0228 32.3121C45.9324 32.347 45.8498 32.3994 45.7796 32.4662C45.7095 32.5331 45.6532 32.6131 45.614 32.7017C45.5747 32.7903 45.5534 32.8858 45.5511 32.9827L46.3065 33.0005ZM51.0792 34.9469H50.3415C50.3365 35.123 50.3947 35.2951 50.5056 35.432C50.6164 35.5689 50.7726 35.6617 50.9459 35.6935L51.0792 34.9469ZM55.4253 36.5556L55.052 37.1866C55.19 37.2713 55.3522 37.3077 55.5132 37.29C55.6741 37.2723 55.8246 37.2015 55.9408 37.0888L55.4253 36.5556ZM57.3362 34.778L57.8695 34.2714C57.7286 34.1357 57.5407 34.0598 57.3451 34.0598C57.1495 34.0598 56.9615 34.1357 56.8207 34.2714L57.3362 34.778ZM60.6691 38.2531L61.1757 38.7864C61.2474 38.7208 61.3049 38.6412 61.3446 38.5526C61.3844 38.4639 61.4055 38.3681 61.4068 38.2709C61.4097 38.1742 61.393 38.078 61.3579 37.9879C61.3228 37.8978 61.2699 37.8157 61.2024 37.7465L60.6691 38.2531ZM59.0249 39.8174L58.5183 39.2752C58.385 39.4005 58.303 39.5708 58.2883 39.7531C58.2735 39.9354 58.3269 40.1166 58.4383 40.2617L59.0249 39.8174ZM61.3446 44.9367L60.6246 45.0878C60.6614 45.2489 60.75 45.3935 60.8768 45.4995C61.0036 45.6054 61.1617 45.6669 61.3268 45.6744L61.3446 44.9367ZM63.371 44.9367H64.1086C64.1122 44.8395 64.0963 44.7426 64.0618 44.6517C64.0273 44.5607 63.975 44.4776 63.9079 44.4072C63.8408 44.3368 63.7603 44.2805 63.6712 44.2417C63.582 44.2029 63.486 44.1824 63.3887 44.1812L63.371 44.9367ZM63.2643 49.7538V50.4915C63.4601 50.4916 63.6483 50.4157 63.7893 50.2798C63.9302 50.1438 64.0128 49.9584 64.0198 49.7627L63.2643 49.7538ZM61.3801 49.7538V49.0162C61.2036 49.0055 61.0297 49.0619 60.8929 49.1739C60.7562 49.2859 60.6667 49.4454 60.6424 49.6205L61.3801 49.7538ZM59.6026 54.1977L58.9804 53.7978C58.896 53.9352 58.859 54.0966 58.8751 54.2571C58.8911 54.4176 58.9593 54.5685 59.0693 54.6865L59.6026 54.1977ZM61.3801 56.0552L61.8867 56.5885C61.9588 56.5233 62.0166 56.4438 62.0564 56.355C62.0962 56.2663 62.1171 56.1703 62.1178 56.073C62.1202 55.8757 62.0471 55.6849 61.9134 55.5398L61.3801 56.0552ZM57.8872 59.3793L57.354 59.8859C57.4218 59.9549 57.5027 60.0098 57.592 60.0472C57.6813 60.0847 57.7771 60.1039 57.8739 60.1039C57.9707 60.1039 58.0665 60.0847 58.1558 60.0472C58.2451 60.0098 58.326 59.9549 58.3938 59.8859L57.8872 59.3793ZM56.2608 57.6817L56.794 57.1662C56.6704 57.0403 56.5061 56.9624 56.3304 56.9461C56.1547 56.9298 55.9789 56.9763 55.8342 57.0773L56.2608 57.6817ZM50.5015 59.9481L50.4393 59.2548C50.2626 59.2746 50.0994 59.3591 49.9812 59.492C49.8631 59.6249 49.7983 59.7969 49.7994 59.9747L50.5015 59.9481ZM50.4393 62.0278V62.7655C50.6343 62.7679 50.8225 62.694 50.9637 62.5594C51.1049 62.4249 51.1878 62.2405 51.1948 62.0456L50.4393 62.0278ZM45.6311 61.9123H44.8934C44.8891 62.1099 44.9625 62.3014 45.0978 62.4455C45.2336 62.5846 45.4189 62.6645 45.6133 62.6677L45.6311 61.9123ZM45.6311 59.6903H46.3776C46.3801 59.5245 46.326 59.3628 46.2242 59.232C46.1224 59.1011 45.979 59.0088 45.8177 58.9704L45.6311 59.6903ZM40.6806 57.184L41.1516 56.6063C41.0177 56.4851 40.8435 56.418 40.6628 56.418C40.4822 56.418 40.308 56.4851 40.174 56.6063L40.6806 57.184ZM39.3119 58.4816L38.7786 58.9971C38.9168 59.1344 39.1037 59.2115 39.2985 59.2115C39.4934 59.2115 39.6803 59.1344 39.8185 58.9971L39.3119 58.4816ZM35.9701 55.0065L35.4635 54.4821C35.3219 54.617 35.2389 54.8021 35.2324 54.9976C35.2342 55.1941 35.3068 55.3835 35.4368 55.5309L35.9701 55.0065ZM37.6677 53.4422L38.1743 53.9755C38.2927 53.8638 38.3709 53.7161 38.3966 53.5553C38.4223 53.3946 38.3942 53.2298 38.3165 53.0867L37.6677 53.4422ZM36.219 49.1761L36.9477 49.0695C36.921 48.8981 36.8354 48.7413 36.7057 48.6262C36.5759 48.511 36.4101 48.4446 36.2367 48.4385L36.219 49.1761ZM34.3436 49.1317H33.606C33.6024 49.2289 33.6183 49.3258 33.6528 49.4167C33.6873 49.5077 33.7396 49.5908 33.8067 49.6612C33.8738 49.7316 33.9543 49.7878 34.0434 49.8267C34.1326 49.8655 34.2286 49.886 34.3259 49.8872L34.3436 49.1317ZM34.4503 44.3146V43.5769C34.2538 43.5745 34.0643 43.6496 33.9229 43.7861C33.7814 43.9225 33.6995 44.1092 33.6948 44.3057L34.4503 44.3146ZM36.4678 44.359V45.0967C36.6355 45.1029 36.8001 45.0504 36.9332 44.9481C37.0662 44.8459 37.1594 44.7004 37.1966 44.5367L36.4678 44.359ZM38.8853 39.6129L39.4719 40.0662C39.5798 39.9249 39.6338 39.7496 39.624 39.572C39.6142 39.3944 39.5414 39.2261 39.4185 39.0975L38.8853 39.6129ZM37.3299 37.9865L36.8233 37.4532C36.7543 37.5211 36.6994 37.602 36.662 37.6912C36.6245 37.7805 36.6052 37.8764 36.6052 37.9732C36.6052 38.07 36.6245 38.1658 36.662 38.2551C36.6994 38.3443 36.7543 38.4253 36.8233 38.4931L37.3299 37.9865ZM40.8228 34.6714L41.3561 34.1559C41.2163 34.018 41.028 33.9407 40.8317 33.9407C40.6354 33.9407 40.447 34.018 40.3073 34.1559L40.8228 34.6714ZM42.547 36.4489L42.0137 36.9555C42.1257 37.0739 42.274 37.1513 42.4351 37.1755C42.5962 37.1996 42.7608 37.1691 42.9025 37.0888L42.547 36.4489ZM46.2976 35.0269L46.4398 35.7468C46.6033 35.7131 46.7507 35.6257 46.8587 35.4984C46.9666 35.3712 47.0288 35.2114 47.0353 35.0447L46.2976 35.0269ZM51.1681 32.3606L46.3598 32.2539V33.7293L51.177 33.8359L51.1681 32.3606ZM51.8525 34.9558L51.8969 33.116H50.4127V34.9469L51.8525 34.9558ZM55.7719 35.9601C54.3577 35.1063 52.7962 34.5246 51.1681 34.2448L50.9459 35.6668C52.3962 35.9175 53.788 36.4326 55.052 37.1866L55.7719 35.9601ZM56.7851 34.2448L54.8832 36.0223L55.9053 37.0888L57.8072 35.3113L56.7851 34.2448ZM61.1668 37.7465L57.8339 34.2714L56.7674 35.2935L60.1003 38.7686L61.1668 37.7465ZM59.4959 40.3506L61.1401 38.7864L60.1269 37.7199L58.4827 39.2752L59.4959 40.3506ZM62.0378 44.7945C61.6364 42.8248 60.7948 40.9714 59.5759 39.373L58.4027 40.2617C59.4886 41.6835 60.2363 43.3339 60.5891 45.0878L62.0378 44.7945ZM61.2912 45.6833L63.3176 45.7277V44.2523H61.2912V45.6833ZM62.5977 44.9722L62.4911 49.7716H63.9664L64.0731 44.9634L62.5977 44.9722ZM63.2465 49.0695H61.3623V50.5449H63.2465V49.0695ZM60.2158 54.6421C61.1464 53.1934 61.7892 51.579 62.1089 49.8872L60.6602 49.6205C60.3777 51.1229 59.8073 52.5564 58.9804 53.8422L60.2158 54.6421ZM61.9134 55.5842L60.1358 53.7267L59.0693 54.7576L60.8468 56.6241L61.9134 55.5842ZM58.3583 59.957L61.8512 56.6329L60.8824 55.5753L57.3895 58.8815L58.3583 59.957ZM55.7719 58.2416L57.3984 59.9303L58.4383 58.9082L56.8118 57.2106L55.7719 58.2416ZM50.6348 60.7124C52.8088 60.4261 54.8785 59.6079 56.6607 58.3305L55.7719 57.1218C54.1936 58.2546 52.3635 58.9867 50.4393 59.2548L50.6348 60.7124ZM51.2392 62.0456V60.0014H49.7638L49.7105 62.0367L51.2392 62.0456ZM45.6666 62.6499L50.4838 62.7655V61.2901L45.6755 61.1746L45.6666 62.6499ZM44.9645 59.6637L44.9111 61.8767H46.3865L46.4398 59.6637H44.9645ZM40.2718 57.7261C41.7982 58.996 43.5901 59.9072 45.5155 60.3925L45.8799 58.9793C44.1675 58.5404 42.5738 57.7269 41.2139 56.5974L40.2718 57.7261ZM39.8807 58.9971L41.2494 57.6995L40.2362 56.6329L38.8853 57.9483L39.8807 58.9971ZM35.499 55.5131L38.8853 58.9971L39.9518 57.9661L36.61 54.491L35.499 55.5131ZM37.1611 52.909L35.5257 54.4643L36.5389 55.522L38.1743 53.9755L37.1611 52.909ZM35.5168 49.265C35.7427 50.8535 36.2514 52.3887 37.0188 53.7978L38.3165 53.0867C37.6264 51.8357 37.1744 50.4676 36.9833 49.0517L35.5168 49.265ZM36.2723 48.3762H34.397V49.8516L36.219 49.8872L36.2723 48.3762ZM35.1169 49.0873L35.2235 44.2701H33.7482L33.6415 49.0784L35.1169 49.0873ZM34.4414 45.0522H36.4678V43.5769L34.4503 43.5324L34.4414 45.0522ZM38.2454 39.1508C37.0701 40.6319 36.2246 42.347 35.7657 44.1812L37.1966 44.5367C37.6124 42.9159 38.3666 41.4014 39.4096 40.0929L38.2454 39.1508ZM36.7344 38.4931L38.3253 40.1107L39.383 39.0886L37.8276 37.4443L36.7344 38.4931ZM40.2895 34.1381L36.7878 37.4443L37.801 38.5109L41.2938 35.1957L40.2895 34.1381ZM43.0625 35.9156L41.3383 34.1381L40.2718 35.1602L41.996 36.9377L43.0625 35.9156ZM46.1288 34.2803C44.7342 34.5707 43.3938 35.0775 42.156 35.7823L42.8936 37.0711C43.9994 36.4367 45.1996 35.9836 46.4487 35.729L46.1288 34.2803ZM45.5688 33.0005L45.5244 35.018H46.9998V33.0005H45.5688Z" fill="#0044CC"/>
<g opacity="0.8">
<path d="M47.587 45.5093L46.0494 50.4865H44.4141L46.7338 44.1762H47.7736L47.587 45.5093ZM48.8579 50.4865L47.3115 45.5093L47.1159 44.1762H48.1647L50.4933 50.4865H48.8579ZM48.7957 48.1046V49.2688H45.5606V48.1046H48.7957ZM52.573 44.1406V50.4509H51.0532V44.1406H52.573Z" fill="#FF6B00"/>
</g>
</svg>
