<svg width="80" height="80" viewBox="0 0 80 80" fill="none" xmlns="http://www.w3.org/2000/svg">
<g opacity="0.2">
<path d="M16.8555 36.7859V29.9528L22.5831 23.9118L23.6015 23.0414C23.8653 22.8066 24.2059 22.6766 24.559 22.6758H48.6532V56.9195C48.6532 58.4547 48.0434 59.9271 46.9578 61.0126C45.8722 62.0982 44.3999 62.708 42.8647 62.708H16.8555V36.7859Z" fill="#0055FF"/>
</g>
<path d="M22.6328 34.0606V27.8543L27.8555 22.353L28.726 21.5609C28.9898 21.3261 29.3304 21.1961 29.6835 21.1953H51.5668V51.8528C51.5668 53.3865 50.9581 54.8575 49.8744 55.9428C48.7907 57.0281 47.3206 57.639 45.7869 57.6413H22.6328V34.0606Z" fill="white"/>
<path d="M73.2775 74H6.72248C6.53087 74 6.3471 73.9239 6.21161 73.7884C6.07612 73.6529 6 73.4691 6 73.2775V6.72248C6 6.53087 6.07612 6.3471 6.21161 6.21161C6.3471 6.07612 6.53087 6 6.72248 6H73.2775C73.4691 6 73.6529 6.07612 73.7884 6.21161C73.9239 6.3471 74 6.53087 74 6.72248V73.2775C73.9977 73.4684 73.9209 73.6509 73.7859 73.7859C73.6509 73.9209 73.4684 73.9977 73.2775 74ZM7.44496 72.5463H72.5463V7.44496H7.44496V72.5463Z" fill="#0044CC"/>
<path d="M30.9455 21.1873V20.4648H30.223V21.1873H30.9455ZM22.6326 27.8463L22.1104 27.3501L21.9102 27.5504V27.8463H22.6326ZM51.5666 21.1873H52.2978C52.2955 20.9949 52.2174 20.8112 52.0806 20.6759C51.9437 20.5407 51.759 20.4648 51.5666 20.4648V21.1873ZM30.9455 28.238V28.9605C31.1371 28.9605 31.3209 28.8844 31.4564 28.7489C31.5918 28.6134 31.668 28.4296 31.668 28.238H30.9455ZM26.1058 27.5155C25.9141 27.5155 25.7304 27.5917 25.5949 27.7271C25.4594 27.8626 25.3833 28.0464 25.3833 28.238C25.3833 28.4296 25.4594 28.6134 25.5949 28.7489C25.7304 28.8844 25.9141 28.9605 26.1058 28.9605V27.5155ZM28.3689 22.8412C28.4366 22.7747 28.4903 22.6955 28.527 22.6081C28.5637 22.5206 28.5825 22.4268 28.5825 22.332C28.5825 22.2372 28.5637 22.1433 28.527 22.0559C28.4903 21.9684 28.4366 21.8892 28.3689 21.8228C28.2321 21.6877 28.0476 21.612 27.8554 21.612C27.6631 21.612 27.4786 21.6877 27.3418 21.8228L28.3689 22.8412ZM22.6326 57.6594H21.9102C21.9102 57.851 21.9863 58.0348 22.1218 58.1703C22.2573 58.3058 22.441 58.3819 22.6326 58.3819V57.6594ZM21.9102 27.8463V34.0527H23.3551V27.8463H21.9102ZM52.2978 29.2303V21.1873H50.8441V29.2303H52.2978ZM51.5666 20.4648H30.9455V21.9098H51.5666V20.4648ZM30.223 21.1873V28.238H31.668V21.1873H30.223ZM30.9455 27.5155H26.1058V28.9605H30.9455V27.5155ZM23.1636 28.3338L28.3863 22.8412L27.3331 21.8576L22.1104 27.3501L23.1636 28.3338ZM50.8441 29.2042V51.8361H52.2978V29.2042H50.8441ZM45.7868 56.8847H22.6326V58.3297H45.7868V56.8847ZM23.3551 57.6072V34.0527H21.9102V57.6333L23.3551 57.6072ZM50.8441 51.8187C50.8441 53.1607 50.3116 54.448 49.3634 55.3978C48.4152 56.3476 47.1288 56.8824 45.7868 56.8847V58.3297C47.5129 58.3274 49.1676 57.6406 50.3882 56.4201C51.6087 55.1995 52.2955 53.5448 52.2978 51.8187H50.8441Z" fill="#0044CC"/>
<g opacity="0.6">
<path d="M38.5543 34.9293H30.5897C30.3981 34.9293 30.2143 34.8532 30.0788 34.7177C29.9433 34.5822 29.8672 34.3985 29.8672 34.2069C29.8672 34.0152 29.9433 33.8315 30.0788 33.696C30.2143 33.5605 30.3981 33.4844 30.5897 33.4844H38.5543C38.746 33.4844 38.9297 33.5605 39.0652 33.696C39.2007 33.8315 39.2768 34.0152 39.2768 34.2069C39.2768 34.3985 39.2007 34.5822 39.0652 34.7177C38.9297 34.8532 38.746 34.9293 38.5543 34.9293Z" fill="#FF6B00"/>
</g>
<g opacity="0.6">
<path d="M38.5543 43.6051H30.5897C30.3981 43.6051 30.2143 43.529 30.0788 43.3935C29.9433 43.258 29.8672 43.0742 29.8672 42.8826C29.8672 42.691 29.9433 42.5073 30.0788 42.3718C30.2143 42.2363 30.3981 42.1602 30.5897 42.1602H38.5543C38.746 42.1602 38.9297 42.2363 39.0652 42.3718C39.2007 42.5073 39.2768 42.691 39.2768 42.8826C39.2768 43.0742 39.2007 43.258 39.0652 43.3935C38.9297 43.529 38.746 43.6051 38.5543 43.6051Z" fill="#FF6B00"/>
</g>
<g opacity="0.6">
<path d="M42.1667 39.2848H30.5897C30.3981 39.2848 30.2143 39.2087 30.0788 39.0732C29.9433 38.9377 29.8672 38.7539 29.8672 38.5623C29.8672 38.3707 29.9433 38.1869 30.0788 38.0515C30.2143 37.916 30.3981 37.8398 30.5897 37.8398H42.1667C42.3583 37.8398 42.5421 37.916 42.6776 38.0515C42.8131 38.1869 42.8892 38.3707 42.8892 38.5623C42.8892 38.7539 42.8131 38.9377 42.6776 39.0732C42.5421 39.2087 42.3583 39.2848 42.1667 39.2848Z" fill="#FF6B00"/>
</g>
<path d="M58.4175 28.2545C58.7635 27.896 59.1768 27.6094 59.6338 27.411C60.0907 27.2125 60.5824 27.1062 61.0805 27.0982C61.5786 27.0901 62.0734 27.1804 62.5365 27.3638C62.9997 27.5473 63.4221 27.8204 63.7795 28.1674C64.5008 28.8659 64.9152 29.8222 64.9315 30.8261C64.9478 31.83 64.5648 32.7992 63.8666 33.5207L52.6029 45.1761C50.6112 47.2323 48.0749 48.6786 45.2911 49.3456L42.6797 49.9549L43.202 47.3436C43.7714 44.5375 45.1304 41.9525 47.119 39.8925L58.4175 28.2545Z" fill="white"/>
<path d="M42.7233 50.6644C42.6158 50.6638 42.5097 50.6395 42.4127 50.5933C42.3157 50.547 42.23 50.48 42.1619 50.3969C42.0937 50.3137 42.0447 50.2166 42.0184 50.1124C41.992 50.0082 41.989 49.8995 42.0095 49.794L42.5318 47.1826C43.1301 44.2342 44.5551 41.517 46.6403 39.3485L57.904 27.7627C58.7363 26.9027 59.8758 26.408 61.0725 26.3874C62.2783 26.3667 63.444 26.8199 64.3193 27.6496C64.7481 28.0557 65.0908 28.544 65.3271 29.0853C65.5633 29.6267 65.6883 30.21 65.6946 30.8006C65.708 31.3943 65.6033 31.9847 65.3867 32.5376C65.17 33.0905 64.8456 33.5948 64.4324 34.0213L53.1252 45.668C51.038 47.818 48.3806 49.3279 45.4652 50.0203L42.8538 50.6296L42.7233 50.6644ZM61.1421 27.8236H61.0899C60.6874 27.8269 60.2896 27.911 59.9203 28.071C59.5509 28.231 59.2175 28.4636 58.9398 28.755L47.6762 40.4017C45.7856 42.3646 44.4934 44.8253 43.9506 47.4959L43.6546 48.9757L45.1692 48.6537C47.8213 48.0214 50.2375 46.6442 52.1329 44.6844L63.3443 32.9855C63.7724 32.5544 64.0626 32.0058 64.1781 31.4095C64.2937 30.8131 64.2294 30.1958 63.9934 29.6361C63.7573 29.0764 63.3603 28.5994 62.8526 28.2659C62.3449 27.9323 61.7495 27.7572 61.1421 27.7627V27.8236Z" fill="#0044CC"/>
</svg>
