<svg width="80" height="80" viewBox="0 0 80 80" fill="none" xmlns="http://www.w3.org/2000/svg">
<path d="M39.0044 79.2944C38.8738 79.2935 38.7455 79.2599 38.6312 79.1967L5.37328 59.9903C5.26016 59.926 5.16604 59.833 5.10049 59.7206C5.03493 59.6082 5.00026 59.4805 5 59.3504V20.9465C5.00026 20.8164 5.03493 20.6887 5.10049 20.5763C5.16604 20.4639 5.26016 20.3709 5.37328 20.3066L38.6312 1.10023C38.743 1.0346 38.8703 1 39 1C39.1297 1 39.257 1.0346 39.3688 1.10023L72.6356 20.3066C72.7465 20.3727 72.8383 20.4664 72.9022 20.5785C72.9661 20.6907 72.9998 20.8175 73 20.9465V59.3504C72.9998 59.4794 72.9661 59.6062 72.9022 59.7184C72.8383 59.8306 72.7465 59.9242 72.6356 59.9903L39.3688 79.2145C39.2557 79.2705 39.1306 79.2979 39.0044 79.2944ZM6.47536 58.9238L39.0044 77.7035L71.5246 58.9238V21.3731L39.0044 2.59336L6.47536 21.3731V58.9238Z" fill="#0044CC"/>
<g opacity="0.2">
<path fill-rule="evenodd" clip-rule="evenodd" d="M19.263 28.4202C19.232 27.6148 19.3638 26.8113 19.6507 26.058C19.9375 25.3046 20.3734 24.617 20.9323 24.0361C21.4912 23.4553 22.1616 22.9932 22.9033 22.6775C23.645 22.3619 24.4428 22.1992 25.2489 22.1992C26.055 22.1992 26.8528 22.3619 27.5945 22.6775C28.3362 22.9932 29.0066 23.4553 29.5655 24.0361C30.1244 24.617 30.5603 25.3046 30.8472 26.058C31.134 26.8113 31.2658 27.6148 31.2348 28.4202V29.309C31.6049 29.3993 31.9347 29.6096 32.1726 29.907C32.4106 30.2045 32.5434 30.5724 32.5502 30.9532C32.5318 31.4122 32.3364 31.8463 32.0051 32.1644C31.6737 32.4826 31.232 32.6601 30.7726 32.6597H30.7282C30.2389 33.6788 29.4716 34.5389 28.5148 35.1409C27.5579 35.7429 26.4505 36.0623 25.32 36.0623C24.1895 36.0623 23.0821 35.7429 22.1252 35.1409C21.1684 34.5389 20.4011 33.6788 19.9118 32.6597H19.8674C19.408 32.6601 18.9663 32.4826 18.635 32.1644C18.3036 31.8463 18.1082 31.4122 18.0898 30.9532C18.099 30.579 18.2296 30.2179 18.4621 29.9244C18.6946 29.631 19.0163 29.4212 19.3786 29.3268L19.263 28.4202Z" fill="#0055FF"/>
</g>
<path d="M25.255 36.7966C24.0579 36.7948 22.8828 36.4745 21.8504 35.8684C20.8179 35.2624 19.9654 34.3926 19.3802 33.3482C18.7962 33.2681 18.2599 32.9825 17.8674 32.5428C17.4749 32.103 17.2518 31.5378 17.2383 30.9485C17.2398 30.5108 17.3606 30.0817 17.5876 29.7074C17.8147 29.3332 18.1394 29.0279 18.527 28.8243V28.4155C18.527 26.6311 19.2358 24.9198 20.4976 23.6581C21.7593 22.3963 23.4706 21.6875 25.255 21.6875C27.0394 21.6875 28.7507 22.3963 30.0124 23.6581C31.2742 24.9198 31.983 26.6311 31.983 28.4155V28.8243C32.3683 29.0298 32.6907 29.3358 32.9161 29.7098C33.1414 30.0838 33.2612 30.5119 33.2629 30.9485C33.2514 31.5394 33.0293 32.1067 32.6366 32.5483C32.2439 32.9899 31.7064 33.2767 31.1209 33.3571C30.5346 34.3979 29.6828 35.2646 28.6523 35.8688C27.6219 36.4731 26.4496 36.7932 25.255 36.7966ZM25.255 23.1629C23.8626 23.1652 22.528 23.7194 21.5434 24.7039C20.5589 25.6885 20.0047 27.0231 20.0024 28.4155V29.8731L19.4691 30.0242C19.2667 30.0744 19.0854 30.1875 18.9513 30.3472C18.8171 30.5068 18.7371 30.7049 18.7225 30.913C18.7386 31.1826 18.8607 31.4349 19.0622 31.6148C19.2637 31.7946 19.5282 31.8874 19.7979 31.8728H20.2601L20.509 32.2994C20.9384 33.1924 21.6113 33.9459 22.4502 34.4733C23.289 35.0006 24.2597 35.2804 25.2506 35.2804C26.2414 35.2804 27.2121 35.0006 28.051 34.4733C28.8898 33.9459 29.5627 33.1924 29.9922 32.2994L30.1966 31.8728H30.6587C30.7961 31.885 30.9345 31.8697 31.0659 31.8279C31.1973 31.786 31.319 31.7185 31.424 31.6292C31.5291 31.5399 31.6153 31.4305 31.6777 31.3076C31.7401 31.1846 31.7774 31.0505 31.7875 30.913C31.7711 30.7042 31.6892 30.5059 31.5536 30.3463C31.4179 30.1868 31.2354 30.074 31.032 30.0242L30.4988 29.8731V28.4155C30.4988 27.024 29.9466 25.6893 28.9634 24.7045C27.9803 23.7197 26.6466 23.1652 25.255 23.1629Z" fill="#0044CC"/>
<g opacity="0.2">
<path d="M14.4111 43.2965L14.34 44.2475L13.8867 52.4331H37.5192V51.5443L37.0659 44.2919V44.0075C36.9998 42.9293 36.683 41.8813 36.1406 40.9471C35.5983 40.0129 34.8453 39.2181 33.9418 38.6261C33.0382 38.034 32.0089 37.6611 30.9358 37.5369C29.8627 37.4126 28.7754 37.5406 27.7605 37.9105L27.5205 37.9905C26.0812 38.5126 24.5007 38.4905 23.0766 37.9283C22.1564 37.5506 21.1597 37.3964 20.1683 37.4785C19.1769 37.5605 18.2191 37.8764 17.3735 38.4003C16.5278 38.9242 15.8184 39.6411 15.3035 40.4922C14.7885 41.3433 14.4827 42.3043 14.4111 43.2965Z" fill="#0055FF"/>
</g>
<path d="M37.5195 53.1592H13.887C13.7871 53.1588 13.6883 53.1381 13.5967 53.0984C13.505 53.0587 13.4224 53.0007 13.3538 52.9281C13.2842 52.8549 13.2302 52.7683 13.195 52.6736C13.1599 52.5788 13.1444 52.478 13.1493 52.3771L13.6737 43.2405C13.7498 42.1361 14.086 41.0654 14.6547 40.1158C15.2234 39.1661 16.0086 38.3643 16.9463 37.7759C17.8839 37.1875 18.9474 36.8291 20.0499 36.7301C21.1524 36.631 22.2627 36.794 23.2902 37.2057C24.5492 37.7031 25.9467 37.722 27.2186 37.2591L27.4586 37.1791C28.5832 36.7614 29.7902 36.6134 30.9824 36.7469C32.1747 36.8804 33.319 37.2917 34.3234 37.9477C35.3278 38.6038 36.1643 39.4863 36.7657 40.5244C37.3671 41.5625 37.7166 42.7272 37.7861 43.9248L38.2572 52.4215C38.2572 52.6172 38.1795 52.8048 38.0411 52.9431C37.9028 53.0815 37.7151 53.1592 37.5195 53.1592ZM14.6691 51.6572H36.7818V51.4794L36.3108 43.9871C36.2481 43.0247 35.9625 42.09 35.4767 41.2569C34.9908 40.4239 34.3179 39.7151 33.5111 39.1867C32.7043 38.6584 31.7857 38.3248 30.8278 38.2123C29.87 38.0999 28.8991 38.2117 27.9919 38.5389L27.7608 38.6278C26.1477 39.2173 24.3749 39.1984 22.7748 38.5744C21.9631 38.2506 21.0865 38.1229 20.2162 38.2016C19.3459 38.2803 18.5064 38.5632 17.766 39.0274C17.0256 39.4916 16.4051 40.1238 15.9551 40.8729C15.505 41.6219 15.238 42.4666 15.1757 43.3383L15.1046 44.2892L14.6691 51.6572Z" fill="#0044CC"/>
<path fill-rule="evenodd" clip-rule="evenodd" d="M45.882 28.4161C45.882 26.8274 46.5131 25.3037 47.6365 24.1803C48.7599 23.0569 50.2836 22.4258 51.8723 22.4258C53.461 22.4258 54.9847 23.0569 56.1081 24.1803C57.2315 25.3037 57.8626 26.8274 57.8626 28.4161V29.3049C58.2239 29.3997 58.5445 29.6098 58.7755 29.9033C59.0065 30.1969 59.1353 30.5579 59.1425 30.9313C59.1241 31.3903 58.9287 31.8244 58.5973 32.1425C58.266 32.4607 57.8243 32.6381 57.3649 32.6378H57.3205C56.8312 33.6569 56.0639 34.517 55.1071 35.119C54.1502 35.721 53.0428 36.0404 51.9123 36.0404C50.7818 36.0404 49.6744 35.721 48.7175 35.119C47.7607 34.517 46.9934 33.6569 46.5041 32.6378C46.0447 32.6381 45.6031 32.4607 45.2717 32.1425C44.9403 31.8244 44.7449 31.3903 44.7266 30.9313C44.7305 30.577 44.8435 30.2324 45.0502 29.9445C45.257 29.6567 45.5474 29.4396 45.882 29.3227V28.4161Z" fill="white"/>
<path d="M51.8399 36.7966C50.6429 36.7939 49.4682 36.4732 48.4359 35.8672C47.4037 35.2613 46.551 34.392 45.9651 33.3482C45.382 33.2678 44.8467 32.982 44.4557 32.542C44.0646 32.1021 43.8435 31.537 43.832 30.9485C43.8336 30.5119 43.9535 30.0838 44.1788 29.7098C44.4042 29.3358 44.7266 29.0298 45.1119 28.8243V28.4155C45.1119 26.6311 45.8207 24.9198 47.0825 23.6581C48.3442 22.3963 50.0555 21.6875 51.8399 21.6875C53.6243 21.6875 55.3355 22.3963 56.5973 23.6581C57.859 24.9198 58.5679 26.6311 58.5679 28.4155V28.8243C58.9554 29.0279 59.2802 29.3332 59.5073 29.7074C59.7343 30.0817 59.8551 30.5108 59.8566 30.9485C59.8434 31.5388 59.6206 32.1052 59.2283 32.5464C58.8359 32.9877 58.2994 33.275 57.7147 33.3571C57.1269 34.3986 56.2736 35.2656 55.2415 35.8699C54.2095 36.4741 53.0358 36.7939 51.8399 36.7966ZM51.8399 23.1629C50.4483 23.1652 49.1146 23.7197 48.1314 24.7045C47.1483 25.6893 46.5961 27.024 46.5961 28.4155V29.8731L46.0629 30.0242C45.8594 30.074 45.6769 30.1868 45.5413 30.3463C45.4057 30.5059 45.3238 30.7042 45.3074 30.913C45.3257 31.1834 45.4497 31.4357 45.6526 31.6153C45.8556 31.795 46.1211 31.8875 46.3917 31.8728H46.8539L47.1027 32.2994C47.5322 33.1924 48.2051 33.9459 49.0439 34.4733C49.8828 35.0006 50.8535 35.2804 51.8443 35.2804C52.8352 35.2804 53.8059 35.0006 54.6447 34.4733C55.4836 33.9459 56.1564 33.1924 56.5859 32.2994L56.7814 31.8728H57.2525C57.3894 31.885 57.5273 31.8696 57.6582 31.8277C57.789 31.7858 57.9102 31.7181 58.0145 31.6287C58.1188 31.5392 58.2042 31.4298 58.2657 31.3069C58.3272 31.184 58.3634 31.0501 58.3724 30.913C58.3565 30.7053 58.2759 30.5079 58.142 30.3485C58.0081 30.1891 57.8275 30.0756 57.6258 30.0242L57.0925 29.8731V28.4155C57.0902 27.0231 56.536 25.6885 55.5515 24.7039C54.5669 23.7194 53.2322 23.1652 51.8399 23.1629Z" fill="#0044CC"/>
<path d="M40.4813 53.1644H40.4368C40.3399 53.1587 40.2451 53.134 40.1577 53.0915C40.0704 53.0491 39.9922 52.9899 39.9278 52.9172C39.8634 52.8446 39.814 52.7599 39.7824 52.6681C39.7508 52.5763 39.7376 52.4792 39.7436 52.3822L40.268 43.2457C40.3441 42.1413 40.6802 41.0706 41.2489 40.1209C41.8177 39.1712 42.6029 38.3695 43.5405 37.7811C44.4782 37.1927 45.5416 36.8343 46.6441 36.7352C47.7467 36.6361 48.857 36.7991 49.8845 37.2109C51.1644 37.7264 52.5907 37.7454 53.884 37.2642L54.1151 37.1842C55.2363 36.7805 56.4361 36.6433 57.6196 36.7835C58.803 36.9237 59.9376 37.3374 60.9335 37.9918C61.9294 38.6463 62.7593 39.5236 63.3576 40.5542C63.9559 41.5849 64.306 42.7406 64.3804 43.93L64.8514 51.929C64.8632 52.1246 64.7968 52.3169 64.6668 52.4636C64.5368 52.6103 64.3538 52.6993 64.1582 52.7111C63.9625 52.7229 63.7702 52.6565 63.6236 52.5265C63.4769 52.3964 63.3879 52.2135 63.3761 52.0178L62.905 44.0189C62.8424 43.0565 62.5568 42.1219 62.0709 41.2888C61.585 40.4557 60.9121 39.747 60.1053 39.2186C59.2985 38.6902 58.3799 38.3566 57.4221 38.2442C56.4642 38.1317 55.4933 38.2435 54.5861 38.5707L54.355 38.6596C52.7272 39.2447 50.9419 39.2162 49.3335 38.5796C48.5241 38.2488 47.6471 38.1172 46.7763 38.1961C45.9055 38.275 45.0664 38.562 44.3297 39.0329C43.5864 39.4943 42.9635 40.1258 42.5123 40.8752C42.0611 41.6247 41.7945 42.4707 41.7345 43.3434L41.6722 44.2944L41.219 52.4622C41.2098 52.6517 41.1281 52.8303 40.9907 52.961C40.8534 53.0918 40.6709 53.1646 40.4813 53.1644Z" fill="#0044CC"/>
<path d="M55.1967 47.2676C55.1998 47.5977 55.1332 47.9248 55.0012 48.2274C54.874 48.5219 54.6932 48.7901 54.468 49.0184C54.2385 49.2423 53.9705 49.4229 53.6769 49.5517C53.3743 49.6837 53.0472 49.7503 52.7171 49.7472H49.4375V48.103H52.7526C52.8616 48.0969 52.9693 48.076 53.0726 48.0408C53.1683 47.9973 53.2556 47.9371 53.3303 47.863C53.4121 47.7896 53.4759 47.6984 53.517 47.5964C53.5573 47.4945 53.5783 47.386 53.5792 47.2764C53.5773 47.1641 53.5563 47.0529 53.517 46.9476C53.4755 46.8509 53.4115 46.7656 53.3303 46.6987C53.2613 46.6139 53.1729 46.5469 53.0726 46.5032C52.9688 46.4711 52.8612 46.4532 52.7526 46.4499H50.4596V44.779H52.7171C52.8263 44.7846 52.9355 44.7664 53.037 44.7257C53.1328 44.6821 53.2201 44.6219 53.2948 44.5479C53.3729 44.4713 53.4361 44.3809 53.4814 44.2813C53.5207 44.176 53.5418 44.0648 53.5436 43.9524C53.5428 43.8429 53.5217 43.7344 53.4814 43.6325C53.4404 43.5305 53.3765 43.4393 53.2948 43.3658C53.2224 43.289 53.1345 43.2285 53.037 43.1881C52.9361 43.1446 52.827 43.1234 52.7171 43.1259H49.4375V41.4728H52.7526C53.0828 41.4697 53.4099 41.5363 53.7125 41.6683C54.0036 41.7977 54.271 41.9749 54.5035 42.1927C54.7271 42.4257 54.9076 42.6966 55.0368 42.9926C55.1695 43.295 55.2362 43.6222 55.2323 43.9524C55.2331 44.2567 55.1758 44.5584 55.0634 44.8412C54.9573 45.124 54.7973 45.3836 54.5924 45.6055C54.9998 46.0638 55.2272 46.6544 55.2323 47.2676H55.1967Z" fill="#0044CC"/>
<g opacity="0.8">
<path d="M49.8642 57.6578C49.9319 57.5901 49.9856 57.5098 50.0223 57.4213C50.0589 57.3329 50.0778 57.2381 50.0778 57.1423C50.0778 57.0466 50.0589 56.9518 50.0223 56.8633C49.9856 56.7749 49.9319 56.6945 49.8642 56.6268L45.1626 51.9075C45.0207 51.7737 44.8331 51.6992 44.6382 51.6992C44.4432 51.6992 44.2557 51.7737 44.1138 51.9075C43.978 52.0483 43.9022 52.2362 43.9022 52.4318C43.9022 52.6274 43.978 52.8154 44.1138 52.9562L48.291 57.1423L44.1049 61.3196C44.0242 61.3857 43.9584 61.4682 43.9119 61.5616C43.8654 61.6551 43.8393 61.7573 43.8352 61.8616C43.8312 61.9659 43.8493 62.0699 43.8884 62.1666C43.9275 62.2634 43.9867 62.3508 44.062 62.423C44.1374 62.4952 44.2272 62.5505 44.3256 62.5854C44.4239 62.6204 44.5286 62.634 44.6326 62.6255C44.7366 62.617 44.8376 62.5865 44.929 62.536C45.0204 62.4855 45.1 62.4163 45.1626 62.3328L49.8642 57.6578ZM13.8867 56.4047C13.6898 56.4047 13.5011 56.4828 13.3619 56.622C13.2227 56.7612 13.1445 56.95 13.1445 57.1468C13.1445 57.3436 13.2227 57.5324 13.3619 57.6715C13.5011 57.8107 13.6898 57.8889 13.8867 57.8889V56.4047ZM49.3398 56.4047H13.8867V57.8889H49.3398V56.4047Z" fill="#FF6B00"/>
</g>
</svg>
