<svg width="80" height="80" viewBox="0 0 80 80" fill="none" xmlns="http://www.w3.org/2000/svg">
<g opacity="0.2">
<path d="M38.524 34.2422H31.1392C30.3245 34.2422 29.6641 34.9026 29.6641 35.7174V54.9212C29.6641 55.7359 30.3245 56.3964 31.1392 56.3964H38.524C39.3387 56.3964 39.9991 55.7359 39.9991 54.9212V35.7174C39.9991 34.9026 39.3387 34.2422 38.524 34.2422Z" fill="#0055FF"/>
</g>
<path d="M40 79.2842C39.8722 79.2834 39.7467 79.2497 39.6357 79.1865L6.37324 59.9826C6.26012 59.9183 6.16602 59.8253 6.10047 59.7129C6.03492 59.6006 6.00026 59.4729 6 59.3428V20.9439C6.00026 20.8138 6.03492 20.6861 6.10047 20.5737C6.16602 20.4614 6.26012 20.3683 6.37324 20.3041L39.6357 1.10021C39.7475 1.03459 39.8748 1 40.0044 1C40.1341 1 40.2614 1.03459 40.3732 1.10021L73.6357 20.3041C73.7465 20.3701 73.8384 20.4638 73.9022 20.576C73.9661 20.6881 73.9998 20.8149 74 20.9439V59.3428C73.9998 59.4718 73.9661 59.5986 73.9022 59.7107C73.8384 59.8229 73.7465 59.9165 73.6357 59.9826L40.3732 79.2042C40.257 79.2603 40.129 79.2877 40 79.2842ZM7.47517 58.9162L40 77.6935L72.5248 58.9162V21.3705L40 2.59316L7.47517 21.3705V58.9162Z" fill="#0044CC"/>
<g opacity="0.9">
<path d="M45.8385 27.7549C45.6746 27.7548 45.5154 27.7008 45.3853 27.6012C45.2553 27.5016 45.1615 27.362 45.1186 27.2039L44.6921 25.5599C44.5698 25.0823 44.2921 24.6589 43.9028 24.3564C43.5135 24.054 43.0346 23.8896 42.5415 23.8892H37.5206C37.0303 23.8869 36.5533 24.0495 36.1665 24.3509C35.7797 24.6523 35.5055 25.075 35.3879 25.551L34.9524 27.2039C34.8907 27.3783 34.7657 27.5231 34.6022 27.6096C34.4388 27.6962 34.2487 27.7181 34.0698 27.6712C33.8909 27.6242 33.7362 27.5118 33.6363 27.3561C33.5364 27.2004 33.4987 27.0129 33.5306 26.8307L33.9571 25.1867C34.154 24.3935 34.6112 23.6892 35.2556 23.1865C35.9001 22.6839 36.6945 22.4119 37.5117 22.4141H42.5327C43.3476 22.421 44.1375 22.6965 44.7801 23.1977C45.4227 23.6989 45.8821 24.398 46.0873 25.1867L46.5138 26.8307C46.5377 26.9241 46.5429 27.0213 46.529 27.1166C46.5151 27.212 46.4823 27.3037 46.4328 27.3863C46.3832 27.469 46.3177 27.541 46.2401 27.5981C46.1625 27.6553 46.0743 27.6965 45.9806 27.7194L45.8385 27.7549Z" fill="#FF6B00"/>
</g>
<path d="M46.96 57.4665H33.1236C32.1887 57.4756 31.2855 57.1275 30.5985 56.4933C29.9115 55.8592 29.4924 54.9867 29.4268 54.054L27.7117 31.6776C27.7027 31.4729 27.7727 31.2725 27.9072 31.1178C27.9768 31.0441 28.0609 30.9855 28.1542 30.9458C28.2474 30.906 28.3479 30.8859 28.4493 30.8867H51.6255C51.7268 30.8859 51.8273 30.906 51.9206 30.9458C52.0138 30.9855 52.0979 31.0441 52.1675 31.1178C52.2375 31.1922 52.2911 31.2805 52.3248 31.3769C52.3585 31.4734 52.3715 31.5758 52.363 31.6776L50.5857 54.054C50.513 54.9715 50.1016 55.8291 49.4314 56.4599C48.7612 57.0907 47.8802 57.4495 46.96 57.4665ZM29.2491 32.3619L30.8842 53.9385C30.9227 54.4995 31.1742 55.0246 31.5873 55.4062C32.0003 55.7878 32.5435 55.9971 33.1059 55.9913H46.96C47.5199 55.9947 48.0599 55.7841 48.4696 55.4025C48.8792 55.0209 49.1276 54.4972 49.1639 53.9385L50.8257 32.3619H29.2491Z" fill="#0044CC"/>
<path d="M53.2945 30.3307C53.0989 30.3307 52.9113 30.253 52.773 30.1147C52.6347 29.9763 52.557 29.7887 52.557 29.5931V28.8466C52.557 28.651 52.4793 28.4634 52.3409 28.3251C52.2026 28.1868 52.015 28.1091 51.8194 28.1091H28.2167C28.0218 28.1114 27.8355 28.1898 27.6977 28.3276C27.5598 28.4655 27.4814 28.6517 27.4791 28.8466V29.5931C27.4791 29.7887 27.4014 29.9763 27.263 30.1147C27.1247 30.253 26.9371 30.3307 26.7415 30.3307C26.5459 30.3307 26.3583 30.253 26.2199 30.1147C26.0816 29.9763 26.0039 29.7887 26.0039 29.5931V28.8466C26.0039 28.259 26.2367 27.6952 26.6515 27.2788C27.0662 26.8625 27.629 26.6274 28.2167 26.625H51.8549C52.4411 26.6273 53.0025 26.8612 53.417 27.2757C53.8315 27.6902 54.0653 28.2516 54.0677 28.8378V29.5842C54.069 29.6849 54.0497 29.7848 54.011 29.8777C53.9723 29.9706 53.9149 30.0547 53.8425 30.1246C53.7701 30.1945 53.6841 30.2489 53.5898 30.2843C53.4956 30.3198 53.3951 30.3356 53.2945 30.3307Z" fill="#0044CC"/>
<path d="M39.7688 48.0375C39.5732 48.0375 39.3856 47.9598 39.2473 47.8215C39.109 47.6832 39.0312 47.4956 39.0312 47.2999V39.1243C39.0312 39.0274 39.0503 38.9315 39.0874 38.842C39.1245 38.7526 39.1788 38.6712 39.2473 38.6028C39.3158 38.5343 39.3971 38.4799 39.4866 38.4429C39.5761 38.4058 39.672 38.3867 39.7688 38.3867C39.8657 38.3867 39.9616 38.4058 40.0511 38.4429C40.1406 38.4799 40.2219 38.5343 40.2904 38.6028C40.3589 38.6712 40.4132 38.7526 40.4503 38.842C40.4873 38.9315 40.5064 39.0274 40.5064 39.1243V47.2999C40.5064 47.4956 40.4287 47.6832 40.2904 47.8215C40.1521 47.9598 39.9645 48.0375 39.7688 48.0375Z" fill="#0044CC"/>
<path d="M34.4368 49.9657C34.2412 49.9657 34.0536 49.888 33.9153 49.7497C33.7769 49.6113 33.6992 49.4237 33.6992 49.2281V37.1868C33.6992 36.9912 33.7769 36.8036 33.9153 36.6653C34.0536 36.5269 34.2412 36.4492 34.4368 36.4492C34.6324 36.4492 34.82 36.5269 34.9584 36.6653C35.0967 36.8036 35.1744 36.9912 35.1744 37.1868V49.2281C35.1744 49.4237 35.0967 49.6113 34.9584 49.7497C34.82 49.888 34.6324 49.9657 34.4368 49.9657Z" fill="#0044CC"/>
<path d="M45.1009 49.9657C44.9052 49.9657 44.7176 49.888 44.5793 49.7497C44.441 49.6113 44.3633 49.4237 44.3633 49.2281V37.1868C44.3633 36.9912 44.441 36.8036 44.5793 36.6653C44.7176 36.5269 44.9052 36.4492 45.1009 36.4492C45.2973 36.4492 45.4858 36.5266 45.6256 36.6647C45.7653 36.8028 45.845 36.9904 45.8473 37.1868V49.2281C45.845 49.4245 45.7653 49.6121 45.6256 49.7502C45.4858 49.8883 45.2973 49.9657 45.1009 49.9657Z" fill="#0044CC"/>
</svg>
