<svg width="80" height="80" viewBox="0 0 80 80" fill="none" xmlns="http://www.w3.org/2000/svg">
<g opacity="0.2">
<path d="M16.8789 36.7626V29.9626L22.578 23.9398L23.6141 23.0331C23.8732 22.7741 24.197 22.6445 24.5856 22.6445H26.0103H48.677V31.4521V56.9036C48.677 60.0769 46.0865 62.6674 42.9132 62.6674H16.8789V36.7626Z" fill="#0055FF"/>
</g>
<path d="M22.6445 34.0361V27.8189L27.8255 22.3142L28.7321 21.537C28.9912 21.278 29.315 21.1484 29.7036 21.1484H30.9341H51.5283V29.1789V51.7808C51.5283 54.9541 48.9379 57.5446 45.7645 57.5446H22.6445V34.0361Z" fill="white"/>
<path d="M73.2876 74H6.71238C6.32381 74 6 73.6762 6 73.2876V6.71238C6 6.32381 6.32381 6 6.71238 6H73.2876C73.6762 6 74 6.32381 74 6.71238V73.2876C74 73.6762 73.6762 74 73.2876 74ZM7.42476 72.5752H72.5105V7.42476H7.42476V72.5752Z" fill="#0044CC"/>
<path d="M30.9316 21.2185V20.5062H30.2192V21.2185H30.9316ZM22.6421 27.8243L22.124 27.3709L21.9297 27.5652V27.8243H22.6421ZM50.8783 32.0985C50.8783 32.4871 51.2021 32.8109 51.5906 32.8109C51.9792 32.8109 52.303 32.4871 52.303 32.0985H50.8783ZM51.5906 21.2185H52.303C52.303 20.83 51.9792 20.5062 51.5906 20.5062V21.2185ZM30.9316 28.2128V28.9252C31.3202 28.9252 31.644 28.6014 31.644 28.2128H30.9316ZM26.1392 27.5005C25.7506 27.5005 25.4268 27.8243 25.4268 28.2128C25.4268 28.6014 25.7506 28.9252 26.1392 28.9252V27.5005ZM28.3411 22.8376C28.6002 22.5785 28.6002 22.1252 28.3411 21.8014C28.0821 21.5424 27.564 21.5424 27.3049 21.8014L28.3411 22.8376ZM22.6421 57.6147H21.9297C21.9297 58.0033 22.2535 58.3271 22.6421 58.3271V57.6147ZM49.3887 58.3271C49.7773 58.3271 50.1011 58.0033 50.1011 57.6147C50.1011 57.2262 49.7773 56.9024 49.3887 56.9024V58.3271ZM21.9297 27.8243V34.0414H23.3544V27.8243H21.9297ZM52.303 32.0985V21.2185H50.8783V32.1633H52.303V32.0985ZM51.5906 20.4414H30.9316V21.8662H51.5259V20.4414H51.5906ZM30.2192 21.2185V28.2776H31.644V21.2185H30.2192ZM30.9316 27.5005H26.0744V28.9252H30.9316V27.5005ZM23.1602 28.3424L28.3411 22.8376L27.3049 21.8662L22.124 27.3709L23.1602 28.3424ZM23.3544 57.6147V34.0414H21.9297V57.6147H23.3544ZM22.6421 58.3271H49.3887V56.9024H22.6421V58.3271Z" fill="#0044CC"/>
<g opacity="0.9">
<g opacity="0.8">
<path d="M27.1139 39.0296C26.8549 39.0296 26.6606 38.9001 26.4663 38.7058C26.272 38.382 26.4015 37.9287 26.7253 37.7344L32.3596 34.3668C32.5539 34.2373 32.7482 34.2373 32.9425 34.302C33.1368 34.3668 33.2663 34.4963 33.3958 34.6258L34.3025 36.2449L39.613 32.942C39.9368 32.7477 40.3901 32.8125 40.5844 33.2011C40.7787 33.5249 40.7139 33.9782 40.3253 34.1725L34.432 37.8639C34.2377 37.9935 34.0434 37.9935 33.8491 37.9287C33.6549 37.8639 33.5253 37.7344 33.3958 37.6049L32.4244 35.9858L27.4377 38.9649C27.373 39.0296 27.2434 39.0296 27.1139 39.0296Z" fill="#FF6B00"/>
</g>
</g>
<path d="M51.8522 54.0552C51.0103 54.0552 50.2332 53.9257 49.3913 53.7314C46.9951 53.0838 44.9227 51.5295 43.6922 49.3276C41.1017 44.859 42.656 39.0952 47.1246 36.5047C51.5932 33.9142 57.357 35.4685 59.9475 39.9371C62.5379 44.4057 60.9836 50.1695 56.5151 52.76C55.0903 53.6019 53.536 54.0552 51.8522 54.0552ZM47.9017 37.7352C44.0808 39.9371 42.7856 44.7942 44.9875 48.6152C46.0237 50.4285 47.7722 51.7885 49.8446 52.3066C51.917 52.8247 54.0541 52.5657 55.8675 51.5295C59.6884 49.3276 60.9836 44.4704 58.7817 40.6495C56.5798 36.8285 51.6579 35.5333 47.9017 37.7352Z" fill="#0044CC"/>
<path d="M58.7823 57.3576C58.5233 57.3576 58.2642 57.228 58.1347 56.969L55.9975 53.2776C55.8032 52.9537 55.9328 52.5004 56.2566 52.3061C56.5804 52.1118 57.0337 52.2414 57.228 52.5652L59.4299 56.3214C59.6242 56.6452 59.4947 57.0985 59.1709 57.2928C59.0413 57.3576 58.9118 57.3576 58.7823 57.3576Z" fill="#0044CC"/>
<path d="M56.841 57.2925C56.3229 56.3858 56.6467 55.2849 57.5534 54.7668C58.4601 54.2487 59.561 54.5725 60.0791 55.4792L61.9572 58.7173C62.4753 59.6239 62.1515 60.7249 61.2448 61.243C60.3382 61.7611 59.2372 61.4373 58.7191 60.5306L56.841 57.2925Z" fill="white"/>
<path d="M60.2724 62.1486C59.3657 62.1486 58.5238 61.6953 58.0057 60.8534L56.1276 57.6153C55.4152 56.3848 55.8686 54.8305 57.099 54.0534C58.3295 53.341 59.9486 53.7943 60.6609 55.0248L62.539 58.2629C63.2514 59.4934 62.7981 61.0477 61.5676 61.8248C61.179 62.0839 60.7257 62.1486 60.2724 62.1486ZM58.3943 55.2191C58.2 55.2191 58.0057 55.2839 57.8114 55.3486C57.2933 55.6724 57.099 56.3848 57.4228 56.9029L59.3009 60.141C59.6247 60.6591 60.3371 60.8534 60.8552 60.5296C61.3733 60.2058 61.5676 59.4934 61.2438 58.9753L59.3657 55.7372C59.2362 55.4134 58.8476 55.2191 58.3943 55.2191Z" fill="#0044CC"/>
<g opacity="0.9">
<g opacity="0.8">
<path d="M29.1186 55.9221C28.7301 55.9221 28.4062 55.5983 28.4062 55.2097V50.0288C28.4062 49.6402 28.7301 49.3164 29.1186 49.3164C29.5072 49.3164 29.831 49.6402 29.831 50.0288V55.2097C29.8958 55.5983 29.572 55.9221 29.1186 55.9221Z" fill="#FF6B00"/>
</g>
</g>
<g opacity="0.9">
<g opacity="0.8">
<path d="M32.7475 55.9376C32.359 55.9376 32.0352 55.6138 32.0352 55.2252V44.3452C32.0352 43.9566 32.359 43.6328 32.7475 43.6328C33.1361 43.6328 33.4599 43.9566 33.4599 44.3452V55.2252C33.4599 55.6138 33.1361 55.9376 32.7475 55.9376Z" fill="#FF6B00"/>
</g>
</g>
<g opacity="0.9">
<g opacity="0.8">
<path d="M36.3725 55.9388C35.984 55.9388 35.6602 55.615 35.6602 55.2264V47.7788C35.6602 47.3902 35.984 47.0664 36.3725 47.0664C36.7611 47.0664 37.0849 47.3902 37.0849 47.7788V55.2264C37.0849 55.615 36.7611 55.9388 36.3725 55.9388Z" fill="#FF6B00"/>
</g>
</g>
</svg>
