<svg width="80" height="80" viewBox="0 0 80 80" fill="none" xmlns="http://www.w3.org/2000/svg">
<g opacity="0.2">
<path d="M16.8555 36.7859V29.9528L22.5831 23.9118L23.6015 23.0414C23.8653 22.8066 24.2059 22.6766 24.559 22.6758H48.6532V56.9195C48.6532 58.4547 48.0434 59.9271 46.9578 61.0126C45.8722 62.0982 44.3999 62.708 42.8647 62.708H16.8555V36.7859Z" fill="#0055FF"/>
</g>
<path d="M22.6328 34.0567V27.8504L27.8555 22.3491L28.726 21.557C28.9898 21.3222 29.3304 21.1922 29.6835 21.1914H51.5668V51.8489C51.5668 53.3826 50.9581 54.8536 49.8744 55.9389C48.7907 57.0242 47.3206 57.6351 45.7869 57.6374H22.6328V34.0567Z" fill="white"/>
<path d="M73.2775 74H6.72248C6.53087 74 6.3471 73.9239 6.21161 73.7884C6.07612 73.6529 6 73.4691 6 73.2775V6.72248C6 6.53087 6.07612 6.3471 6.21161 6.21161C6.3471 6.07612 6.53087 6 6.72248 6H73.2775C73.4691 6 73.6529 6.07612 73.7884 6.21161C73.9239 6.3471 74 6.53087 74 6.72248V73.2775C73.9977 73.4684 73.9209 73.6509 73.7859 73.7859C73.6509 73.9209 73.4684 73.9977 73.2775 74ZM7.44496 72.5463H72.5463V7.44496H7.44496V72.5463Z" fill="#0044CC"/>
<path d="M30.9455 21.1873V20.4648H30.223V21.1873H30.9455ZM22.6326 27.8463L22.1104 27.3501L21.9102 27.5504V27.8463H22.6326ZM51.5666 21.1873H52.2978C52.2955 20.9949 52.2174 20.8112 52.0806 20.6759C51.9437 20.5407 51.759 20.4648 51.5666 20.4648V21.1873ZM30.9455 28.238V28.9605C31.1371 28.9605 31.3209 28.8844 31.4564 28.7489C31.5918 28.6134 31.668 28.4296 31.668 28.238H30.9455ZM26.1058 27.5155C25.9141 27.5155 25.7304 27.5917 25.5949 27.7271C25.4594 27.8626 25.3833 28.0464 25.3833 28.238C25.3833 28.4296 25.4594 28.6134 25.5949 28.7489C25.7304 28.8844 25.9141 28.9605 26.1058 28.9605V27.5155ZM28.3689 22.8412C28.4366 22.7747 28.4903 22.6955 28.527 22.6081C28.5637 22.5206 28.5825 22.4268 28.5825 22.332C28.5825 22.2372 28.5637 22.1433 28.527 22.0559C28.4903 21.9684 28.4366 21.8892 28.3689 21.8228C28.2321 21.6877 28.0476 21.612 27.8554 21.612C27.6631 21.612 27.4786 21.6877 27.3418 21.8228L28.3689 22.8412ZM22.6326 57.6594H21.9102C21.9102 57.851 21.9863 58.0348 22.1218 58.1703C22.2573 58.3058 22.441 58.3819 22.6326 58.3819V57.6594ZM37.0996 58.3819C37.292 58.3819 37.4767 58.3061 37.6136 58.1708C37.7505 58.0356 37.8285 57.8518 37.8308 57.6594C37.8308 57.5638 37.8118 57.4691 37.775 57.3809C37.7381 57.2927 37.6841 57.2126 37.6161 57.1454C37.5481 57.0782 37.4674 57.0252 37.3788 56.9894C37.2901 56.9536 37.1952 56.9358 37.0996 56.9369V58.3819ZM50.8441 37.8304C50.8637 38.0095 50.9488 38.175 51.0829 38.2952C51.217 38.4155 51.3908 38.482 51.5709 38.482C51.7511 38.482 51.9249 38.4155 52.059 38.2952C52.1931 38.175 52.2781 38.0095 52.2978 37.8304H50.8441ZM21.9102 27.8463V34.0527H23.3551V27.8463H21.9102ZM51.5666 20.4648H30.9455V21.9098H51.5666V20.4648ZM30.223 21.1873V28.238H31.668V21.1873H30.223ZM30.9455 27.5155H26.1058V28.9605H30.9455V27.5155ZM23.1636 28.3338L28.3863 22.8412L27.3331 21.8576L22.1104 27.3501L23.1636 28.3338ZM23.3551 57.6333V34.0527H21.9102V57.6333H23.3551ZM22.6326 58.3558H37.0996V56.9108H22.6326V58.3558ZM50.8441 21.1873V37.8304H52.2978V21.1873H50.8441Z" fill="#0044CC"/>
<g opacity="0.6">
<path d="M38.5543 34.9371H30.5897C30.3981 34.9371 30.2143 34.861 30.0788 34.7255C29.9433 34.59 29.8672 34.4063 29.8672 34.2147C29.8672 34.0231 29.9433 33.8393 30.0788 33.7038C30.2143 33.5683 30.3981 33.4922 30.5897 33.4922H38.5543C38.7459 33.4922 38.9297 33.5683 39.0652 33.7038C39.2007 33.8393 39.2768 34.0231 39.2768 34.2147C39.2768 34.4063 39.2007 34.59 39.0652 34.7255C38.9297 34.861 38.7459 34.9371 38.5543 34.9371Z" fill="#FF6B00"/>
</g>
<g opacity="0.6">
<path d="M38.5543 43.609H30.5897C30.3981 43.609 30.2143 43.5329 30.0788 43.3974C29.9433 43.2619 29.8672 43.0782 29.8672 42.8865C29.8672 42.6949 29.9433 42.5112 30.0788 42.3757C30.2143 42.2402 30.3981 42.1641 30.5897 42.1641H38.5543C38.7459 42.1641 38.9297 42.2402 39.0652 42.3757C39.2007 42.5112 39.2768 42.6949 39.2768 42.8865C39.2768 43.0782 39.2007 43.2619 39.0652 43.3974C38.9297 43.5329 38.7459 43.609 38.5543 43.609Z" fill="#FF6B00"/>
</g>
<g opacity="0.6">
<path d="M42.1667 39.2731H30.5897C30.3981 39.2731 30.2143 39.197 30.0788 39.0615C29.9433 38.926 29.8672 38.7422 29.8672 38.5506C29.8672 38.359 29.9433 38.1752 30.0788 38.0397C30.2143 37.9042 30.3981 37.8281 30.5897 37.8281H42.1667C42.3583 37.8281 42.5421 37.9042 42.6776 38.0397C42.8131 38.1752 42.8892 38.359 42.8892 38.5506C42.8892 38.7422 42.8131 38.926 42.6776 39.0615C42.5421 39.197 42.3583 39.2731 42.1667 39.2731Z" fill="#FF6B00"/>
</g>
<path d="M41.4026 50.7752H41.2895C41.1913 50.7608 41.0971 50.7263 41.0129 50.674C40.9286 50.6216 40.856 50.5524 40.7997 50.4707C40.7433 50.3891 40.7044 50.2967 40.6853 50.1993C40.6663 50.1019 40.6675 50.0017 40.6888 49.9048C41.0496 47.6405 42.1092 45.5457 43.7194 43.9135C45.3297 42.2813 47.4099 41.1934 49.6691 40.802C51.9282 40.4106 54.2532 40.7353 56.3186 41.7307C58.3841 42.7261 60.0867 44.3424 61.1881 46.3533C61.2793 46.5218 61.2998 46.7197 61.2451 46.9033C61.1904 47.087 61.065 47.2414 60.8965 47.3326C60.7279 47.4238 60.5301 47.4443 60.3464 47.3896C60.1628 47.3349 60.0084 47.2095 59.9172 47.041C59.4831 46.2456 58.9347 45.5183 58.2895 44.8822C56.4958 43.1015 54.0709 42.1022 51.5434 42.1022C49.016 42.1022 46.591 43.1015 44.7974 44.8822C43.356 46.3073 42.4154 48.1612 42.1164 50.1659C42.0894 50.3358 42.0027 50.4905 41.8719 50.6022C41.7411 50.7139 41.5746 50.7753 41.4026 50.7752Z" fill="#0044CC"/>
<path d="M61.2116 47.7123H55.867C55.6754 47.7123 55.4916 47.6362 55.3561 47.5007C55.2207 47.3652 55.1445 47.1815 55.1445 46.9898C55.1445 46.7982 55.2207 46.6145 55.3561 46.479C55.4916 46.3435 55.6754 46.2674 55.867 46.2674H60.4891V41.6365C60.4891 41.4449 60.5652 41.2612 60.7007 41.1257C60.8362 40.9902 61.02 40.9141 61.2116 40.9141C61.4032 40.9141 61.587 40.9902 61.7225 41.1257C61.858 41.2612 61.9341 41.4449 61.9341 41.6365V46.9898C61.9341 47.0847 61.9154 47.1787 61.8791 47.2663C61.8428 47.354 61.7896 47.4336 61.7225 47.5007C61.6554 47.5678 61.5757 47.621 61.4881 47.6573C61.4004 47.6936 61.3065 47.7123 61.2116 47.7123Z" fill="#0044CC"/>
<path d="M51.6028 62.1392C50.1593 62.1431 48.7293 61.8612 47.3953 61.31C46.0612 60.7587 44.8494 59.9489 43.8296 58.9273C43.0909 58.1839 42.4609 57.3399 41.9582 56.4203C41.867 56.2518 41.8465 56.054 41.9011 55.8703C41.9558 55.6867 42.0812 55.5323 42.2498 55.4411C42.4183 55.3499 42.6161 55.3294 42.7998 55.3841C42.9834 55.4388 43.1378 55.5642 43.229 55.7327C43.6737 56.5313 44.2242 57.2662 44.8655 57.9175C46.1186 59.1488 47.6863 60.0116 49.397 60.4114C51.1077 60.8113 52.8954 60.7328 54.5644 60.1845C56.2335 59.6362 57.7195 58.6394 58.8599 57.303C60.0002 55.9666 60.7509 54.3423 61.0298 52.6078C61.0646 52.4239 61.1694 52.2606 61.3221 52.1525C61.4748 52.0443 61.6636 51.9996 61.8486 52.0278C62.0336 52.056 62.2005 52.1549 62.314 52.3037C62.4276 52.4524 62.479 52.6395 62.4574 52.8254C62.06 55.4189 60.7466 57.7843 58.7554 59.493C56.7641 61.2016 54.2266 62.1404 51.6028 62.1392Z" fill="#0044CC"/>
<path d="M41.9343 61.8569C41.7419 61.8569 41.5572 61.781 41.4203 61.6458C41.2835 61.5105 41.2054 61.3268 41.2031 61.1344V55.7811C41.2054 55.5887 41.2835 55.4049 41.4203 55.2697C41.5572 55.1344 41.7419 55.0586 41.9343 55.0586H47.2702C47.4618 55.0586 47.6456 55.1347 47.7811 55.2702C47.9166 55.4057 47.9927 55.5895 47.9927 55.7811C47.9927 55.9727 47.9166 56.1564 47.7811 56.2919C47.6456 56.4274 47.4618 56.5036 47.2702 56.5036H42.6568V61.1344C42.6568 61.326 42.5807 61.5098 42.4452 61.6452C42.3097 61.7807 42.1259 61.8569 41.9343 61.8569Z" fill="#0044CC"/>
</svg>
