<svg width="80" height="80" viewBox="0 0 80 80" fill="none" xmlns="http://www.w3.org/2000/svg">
<path d="M73.2775 74H6.72248C6.53087 74 6.3471 73.9239 6.21161 73.7884C6.07612 73.6529 6 73.4691 6 73.2775V6.72248C6 6.53087 6.07612 6.3471 6.21161 6.21161C6.3471 6.07612 6.53087 6 6.72248 6H73.2775C73.4691 6 73.6529 6.07612 73.7884 6.21161C73.9239 6.3471 74 6.53087 74 6.72248V73.2775C73.9977 73.4684 73.9209 73.6509 73.7859 73.7859C73.6509 73.9209 73.4684 73.9977 73.2775 74ZM7.44496 72.5463H72.5463V7.44496H7.44496V72.5463Z" fill="#0044CC"/>
<g opacity="0.2">
<path d="M18.3008 26.3401L40.0012 15.3984L61.7104 26.3401V43.018C60.9547 47.1178 59.318 51.0046 56.9134 54.4101C54.5088 57.8156 51.3937 60.6585 47.7831 62.7425L40.0186 67.208L31.053 62.3595C27.4999 60.4339 24.4771 57.6611 22.2525 54.2872C20.028 50.9132 18.6706 47.0423 18.3008 43.018V26.3401Z" fill="#0055FF"/>
</g>
<path d="M40.0011 67.9299C39.8795 67.931 39.7597 67.901 39.6529 67.8428L30.7133 62.9944C27.0528 61.0158 23.9381 58.163 21.6464 54.6898C19.3548 51.2167 17.9572 47.2308 17.5782 43.0871V26.3395C17.5768 26.2063 17.6128 26.0753 17.682 25.9615C17.7513 25.8477 17.851 25.7555 17.9699 25.6954L39.6703 14.7537C39.7715 14.7025 39.8833 14.6758 39.9967 14.6758C40.1102 14.6758 40.222 14.7025 40.3232 14.7537L62.0236 25.6954C62.1435 25.7551 62.2445 25.8469 62.3152 25.9607C62.3859 26.0744 62.4236 26.2056 62.424 26.3395V43.0174C61.6683 47.2473 59.9965 51.2606 57.526 54.7762C55.0555 58.2917 51.846 61.2244 48.1225 63.3687L40.358 67.7993C40.2541 67.8763 40.1302 67.9217 40.0011 67.9299ZM19.0579 26.7834V43.0174C19.4229 46.9064 20.7399 50.6458 22.8926 53.9052C25.0453 57.1646 27.9674 59.8437 31.401 61.7061L39.9924 66.363L47.4 62.0891C50.9217 60.065 53.961 57.2992 56.3073 53.9835C58.6536 50.6677 60.2506 46.8813 60.9878 42.8869V26.7834L40.0011 16.2074L19.0579 26.7834Z" fill="#0044CC"/>
<path d="M24.0861 46.5076L21.1875 52.2962L22.6325 54.4636L26.9847 59.5297L35.6893 64.587L40.0416 66.7631L42.9315 65.3095L53.0027 58.8072L58.06 53.7411L57.3549 50.8425L54.465 45.7852L50.1127 42.8865H45.7605L39.2495 43.609L33.4609 42.1641L27.6724 43.609L24.0861 46.5076Z" fill="white"/>
<g opacity="0.8">
<path d="M35.2921 56.5377C34.9155 56.8507 34.4888 57.0979 34.0299 57.2689C33.5648 57.4419 33.0725 57.5304 32.5763 57.53C32.1989 57.5213 31.8242 57.4627 31.4621 57.3559C31.1136 57.2515 30.7778 57.1084 30.4611 56.9294C30.143 56.7482 29.8503 56.5258 29.5906 56.2679C29.3381 56.0056 29.1189 55.7132 28.9378 55.3974C28.752 55.084 28.6086 54.7474 28.5113 54.3964C28.4128 54.0332 28.363 53.6585 28.3633 53.2822C28.3648 52.906 28.4146 52.5316 28.5113 52.168C28.6253 51.8508 28.7742 51.5471 28.9552 51.2628C29.1363 50.9469 29.3556 50.6546 29.608 50.3923C29.8656 50.1344 30.1587 49.9145 30.4785 49.7395C30.7883 49.5487 31.1261 49.4078 31.4795 49.3216C31.8412 49.2138 32.2163 49.1581 32.5937 49.1563C33.0899 49.1559 33.5823 49.2444 34.0474 49.4174C34.5122 49.5876 34.9406 49.8446 35.3095 50.1747L34.4391 51.5761C34.1943 51.3213 33.8974 51.1224 33.5686 50.9929C33.2491 50.8522 32.9037 50.7795 32.5545 50.7795C32.2053 50.7795 31.86 50.8522 31.5404 50.9929C31.2354 51.1221 30.9577 51.3083 30.7222 51.5413C30.4783 51.7898 30.2886 52.0862 30.1651 52.4118C30.033 52.7259 29.9649 53.0633 29.9649 53.4041C29.9623 53.7479 30.0304 54.0887 30.1651 54.4051C30.296 54.714 30.4851 54.9947 30.7222 55.232C30.9577 55.4651 31.2354 55.6512 31.5404 55.7804C31.8604 55.9135 32.2036 55.9815 32.5502 55.9806C32.8993 55.9789 33.2448 55.911 33.5686 55.7804C33.8978 55.6477 34.1946 55.4458 34.4391 55.1885L35.2921 56.5377ZM37.9035 50.8798V54.1178H39.5225C39.7365 54.1173 39.9486 54.079 40.1493 54.0047C40.3438 53.9195 40.5187 53.7951 40.6628 53.6391C40.815 53.4908 40.9358 53.3135 41.0181 53.1176C41.1003 52.9217 41.1423 52.7113 41.1416 52.4988C41.1382 52.0705 40.9662 51.6608 40.6628 51.3585C40.5155 51.2106 40.3412 51.0924 40.1493 51.0103C39.9522 50.9221 39.7384 50.8776 39.5225 50.8798H37.9035ZM37.9035 57.3559H36.2322V49.2607H39.479C39.7727 49.2622 40.0651 49.3002 40.3495 49.3739C40.6203 49.4441 40.8786 49.5557 41.1155 49.7046C41.3585 49.8373 41.5788 50.0077 41.7683 50.2095C42.1873 50.5972 42.4889 51.0949 42.6388 51.6458C42.7261 51.9274 42.7672 52.2214 42.7606 52.5162C42.7628 52.9469 42.6769 53.3734 42.5082 53.7697C42.3443 54.1536 42.1078 54.5024 41.8118 54.7968C41.5212 55.1014 41.1677 55.339 40.776 55.4932C40.3813 55.6678 39.9541 55.7568 39.5225 55.7543H37.86L37.9035 57.3559ZM51.6567 53.3344C51.6569 53.7107 51.6072 54.0854 51.5087 54.4486C51.4113 54.7997 51.2679 55.1363 51.0822 55.4496C50.9071 55.7694 50.6873 56.0625 50.4293 56.3201C50.17 56.5785 49.8773 56.801 49.5589 56.9816C49.2421 57.1607 48.9064 57.3037 48.5579 57.4082C47.8267 57.5939 47.0607 57.5939 46.3295 57.4082C45.981 57.3037 45.6452 57.1607 45.3285 56.9816C45.0101 56.801 44.7173 56.5785 44.458 56.3201C43.9417 55.8061 43.5669 55.1674 43.3699 54.466C43.2715 54.1028 43.2217 53.7282 43.222 53.3518C43.2235 52.9757 43.2732 52.6012 43.3699 52.2377C43.4763 51.8967 43.6224 51.5695 43.8052 51.2628C43.9835 50.9428 44.2062 50.6498 44.4667 50.3923C44.726 50.1339 45.0188 49.9114 45.3372 49.7308C45.6524 49.5509 45.9886 49.4106 46.3382 49.3129C47.0679 49.1155 47.8369 49.1155 48.5666 49.3129C48.9161 49.4106 49.2523 49.5509 49.5676 49.7308C49.8707 49.9146 50.1486 50.137 50.3945 50.3923C50.655 50.6476 50.8752 50.9412 51.0474 51.2628C51.2284 51.5754 51.3716 51.9085 51.4739 52.2551C51.5647 52.6077 51.6115 52.9703 51.6132 53.3344H51.6567ZM50.0463 53.3344C50.0463 52.9936 49.9783 52.6563 49.8461 52.3421C49.7227 52.0165 49.533 51.7201 49.289 51.4717C48.8048 50.9913 48.1518 50.7195 47.4698 50.7144C47.1227 50.7162 46.7794 50.7872 46.4601 50.9233C46.155 51.0525 45.8773 51.2386 45.6418 51.4717C45.3974 51.7181 45.2102 52.0153 45.0934 52.3421C44.9545 52.6544 44.8833 52.9926 44.8845 53.3344C44.8804 53.6793 44.9517 54.021 45.0934 54.3355C45.218 54.6456 45.4046 54.927 45.6418 55.1624C45.8773 55.3954 46.155 55.5815 46.4601 55.7108C46.78 55.8439 47.1233 55.9119 47.4698 55.911C48.1506 55.9081 48.8034 55.6395 49.289 55.1624C49.5261 54.9251 49.7153 54.6443 49.8461 54.3355C49.9659 54.0159 50.0193 53.6753 50.0028 53.3344H50.0463Z" fill="#FF6B00"/>
</g>
<path fill-rule="evenodd" clip-rule="evenodd" d="M32.855 31.2441C32.855 29.3487 33.6079 27.531 34.9481 26.1908C36.2884 24.8506 38.1061 24.0977 40.0014 24.0977C41.8968 24.0977 43.7145 24.8506 45.0547 26.1908C46.3949 27.531 47.1479 29.3487 47.1479 31.2441V32.3235C47.5738 32.4399 47.9507 32.691 48.2221 33.0393C48.4935 33.3876 48.645 33.8144 48.6538 34.2559C48.6356 34.8131 48.3972 35.3404 47.9909 35.7222C47.5847 36.104 47.0436 36.3092 46.4863 36.2927H46.4254C45.8428 37.5105 44.9275 38.5386 43.7854 39.2582C42.6433 39.9779 41.3209 40.3598 39.971 40.3598C38.621 40.3598 37.2986 39.9779 36.1565 39.2582C35.0144 38.5386 34.0992 37.5105 33.5165 36.2927H33.4643C33.1881 36.302 32.9127 36.2566 32.6541 36.1592C32.3955 36.0617 32.1586 35.9141 31.9572 35.7248C31.7558 35.5355 31.5938 35.3083 31.4805 35.0562C31.3671 34.8042 31.3047 34.5322 31.2969 34.2559C31.3054 33.8095 31.4597 33.3781 31.7364 33.0276C32.013 32.6771 32.3967 32.4268 32.8289 32.3148L32.855 31.2441Z" fill="white"/>
<path d="M39.9995 41.081C38.5874 41.077 37.202 40.6956 35.9868 39.9763C34.7716 39.257 33.7708 38.2259 33.0881 36.9898C32.412 36.9123 31.7867 36.5929 31.3276 36.0906C30.8684 35.5883 30.6064 34.9369 30.5898 34.2566C30.594 33.7504 30.7386 33.2554 31.0075 32.8266C31.2765 32.3978 31.6593 32.0521 32.1131 31.828V31.2448C32.1131 30.2103 32.3169 29.1859 32.7128 28.2302C33.1087 27.2744 33.6889 26.406 34.4204 25.6745C35.1519 24.943 36.0204 24.3627 36.9761 23.9668C37.9319 23.5709 38.9563 23.3672 39.9908 23.3672C41.0253 23.3672 42.0496 23.5709 43.0054 23.9668C43.9612 24.3627 44.8296 24.943 45.5611 25.6745C46.2926 26.406 46.8729 27.2744 47.2687 28.2302C47.6646 29.1859 47.8684 30.2103 47.8684 31.2448V31.8367C48.3233 32.0604 48.7073 32.4057 48.9777 32.8344C49.2482 33.2631 49.3945 33.7584 49.4004 34.2653C49.3841 34.9443 49.1233 35.5946 48.666 36.0967C48.2086 36.5988 47.5854 36.9191 46.9109 36.9985C46.2284 38.2342 45.2274 39.2645 44.012 39.9824C42.7966 40.7004 41.4111 41.0797 39.9995 41.081ZM39.9995 24.8121C38.2949 24.8145 36.661 25.4932 35.4565 26.6993C34.252 27.9054 33.5755 29.5403 33.5755 31.2448V32.8726L33.0445 33.0205C32.7648 33.0906 32.5157 33.2501 32.335 33.4748C32.1543 33.6995 32.0519 33.9771 32.0435 34.2653C32.0502 34.4479 32.093 34.6273 32.1694 34.7932C32.2458 34.9592 32.3543 35.1083 32.4886 35.2321C32.6229 35.3559 32.7804 35.4519 32.952 35.5146C33.1237 35.5772 33.306 35.6053 33.4885 35.5971H33.9411L34.1935 36.0149C34.72 37.1063 35.5437 38.0271 36.5699 38.6714C37.5962 39.3157 38.7834 39.6576 39.9951 39.6576C41.2069 39.6576 42.3941 39.3157 43.4203 38.6714C44.4465 38.0271 45.2702 37.1063 45.7967 36.0149L46.0404 35.5971H46.4931C46.6783 35.6101 46.8644 35.5864 47.0404 35.5273C47.2165 35.4682 47.3792 35.3749 47.5191 35.2528C47.659 35.1307 47.7735 34.9821 47.8558 34.8156C47.9382 34.6491 47.9868 34.468 47.999 34.2827C47.9998 33.9796 47.8965 33.6854 47.7063 33.4493C47.5162 33.2132 47.2507 33.0495 46.9544 32.9857L46.4234 32.8377V31.2448C46.4234 29.5403 45.7469 27.9054 44.5424 26.6993C43.3379 25.4932 41.704 24.8145 39.9995 24.8121Z" fill="#0044CC"/>
<path d="M58.0787 53.0014C57.9059 52.9993 57.7394 52.9362 57.6087 52.823C57.4781 52.7099 57.3917 52.5541 57.365 52.3834V52.2267C57.1374 50.7155 56.5853 49.2715 55.7467 47.994C54.908 46.7165 53.8026 45.6357 52.5066 44.826C51.2105 44.0162 49.7545 43.4968 48.2386 43.3033C46.7227 43.1097 45.1828 43.2468 43.7249 43.7049C41.3083 44.4509 38.7195 44.4266 36.3173 43.6353C34.8233 43.1371 33.2369 42.9786 31.6738 43.1714C30.1107 43.3641 28.6103 43.9032 27.282 44.7495C25.968 45.5812 24.8563 46.6958 24.0281 48.012C23.1998 49.3282 22.6759 50.8127 22.4945 52.3572C22.4645 52.5512 22.3587 52.7252 22.2003 52.8411C22.042 52.957 21.8441 53.0053 21.6502 52.9753C21.4562 52.9453 21.2822 52.8394 21.1663 52.6811C21.0504 52.5227 21.0021 52.3248 21.0321 52.1309C21.251 50.3676 21.8589 48.6748 22.8118 47.1751C23.7648 45.6754 25.0391 44.4061 26.5426 43.459C28.0461 42.5119 29.7412 41.9107 31.5054 41.6989C33.2696 41.487 35.0589 41.6697 36.7439 42.2338C38.8568 42.9355 41.1361 42.9598 43.2636 42.3035C44.9207 41.7812 46.6713 41.624 48.3949 41.8428C50.1186 42.0617 51.7744 42.6513 53.2484 43.5711C54.7224 44.4909 55.9797 45.7191 56.9338 47.1712C57.8878 48.6233 58.516 50.2649 58.7751 51.983V52.1396C58.7964 52.2372 58.7973 52.3381 58.7777 52.4359C58.7581 52.5338 58.7185 52.6266 58.6612 52.7084C58.604 52.7902 58.5304 52.8592 58.4451 52.9111C58.3598 52.9631 58.2647 52.9968 58.1658 53.0101L58.0787 53.0014Z" fill="#0044CC"/>
<path d="M40.0011 67.9299C39.8795 67.931 39.7597 67.901 39.6529 67.8428L30.7133 62.9944C27.0528 61.0158 23.9381 58.163 21.6464 54.6898C19.3548 51.2167 17.9572 47.2308 17.5782 43.0871V26.3395C17.5768 26.2063 17.6128 26.0753 17.682 25.9615C17.7513 25.8477 17.851 25.7555 17.9699 25.6954L39.6703 14.7537C39.7715 14.7025 39.8833 14.6758 39.9967 14.6758C40.1102 14.6758 40.222 14.7025 40.3232 14.7537L62.0236 25.6954C62.1435 25.7551 62.2445 25.8469 62.3152 25.9607C62.3859 26.0744 62.4236 26.2056 62.424 26.3395V43.0174C61.6683 47.2473 59.9965 51.2606 57.526 54.7762C55.0555 58.2917 51.846 61.2244 48.1225 63.3687L40.358 67.7993C40.2541 67.8763 40.1302 67.9217 40.0011 67.9299ZM19.0579 26.7834V43.0174C19.4229 46.9064 20.7399 50.6458 22.8926 53.9052C25.0453 57.1646 27.9674 59.8437 31.401 61.7061L39.9924 66.363L47.4 62.0891C50.9217 60.065 53.961 57.2992 56.3073 53.9835C58.6536 50.6677 60.2506 46.8813 60.9878 42.8869V26.7834L40.0011 16.2074L19.0579 26.7834Z" fill="#0044CC"/>
</svg>
