<svg width="80" height="80" viewBox="0 0 80 80" fill="none" xmlns="http://www.w3.org/2000/svg">
<path d="M73.2775 74H6.72248C6.53087 74 6.3471 73.9239 6.21161 73.7884C6.07612 73.6529 6 73.4691 6 73.2775V6.72248C6 6.53087 6.07612 6.3471 6.21161 6.21161C6.3471 6.07612 6.53087 6 6.72248 6H73.2775C73.4691 6 73.6529 6.07612 73.7884 6.21161C73.9239 6.3471 74 6.53087 74 6.72248V73.2775C73.9977 73.4684 73.9209 73.6509 73.7859 73.7859C73.6509 73.9209 73.4684 73.9977 73.2775 74ZM7.44496 72.5463H72.5463V7.44496H7.44496V72.5463Z" fill="#0044CC"/>
<path d="M40.0018 64.5933C39.8909 64.5908 39.7816 64.5672 39.6797 64.5237L31.4365 60.4587C28.0136 58.7481 25.0818 56.1954 22.9166 53.0404C20.7514 49.8855 19.4238 46.2318 19.0586 42.4228V26.9548C19.0585 26.8196 19.0958 26.687 19.1665 26.5718C19.2372 26.4566 19.3384 26.3632 19.459 26.302L39.7145 16.2047C39.8153 16.1574 39.9252 16.1328 40.0366 16.1328C40.1479 16.1328 40.2579 16.1574 40.3586 16.2047L60.5793 26.302C60.6999 26.3632 60.8012 26.4566 60.8718 26.5718C60.9425 26.687 60.9799 26.8196 60.9797 26.9548V42.3619C60.2842 46.2622 58.703 49.9509 56.3579 53.1441C54.0128 56.3374 50.9663 58.9499 47.4529 60.7807L40.3325 64.515C40.2298 64.5664 40.1166 64.5932 40.0018 64.5933ZM20.4687 27.3988V42.3619C20.8275 45.9196 22.0845 49.3278 24.1218 52.2664C26.159 55.205 28.9096 57.5777 32.1154 59.1617L40.0366 63.0613L46.8261 59.5012C50.1204 57.7779 52.9781 55.3259 55.1819 52.3318C57.3856 49.3376 58.8773 45.8802 59.5435 42.2226V27.4249L40.0018 17.6584L20.4687 27.3988Z" fill="#0044CC"/>
<g opacity="0.1">
<path fill-rule="evenodd" clip-rule="evenodd" d="M54.4665 40.7248C54.4638 41.1845 54.4347 41.6437 54.3794 42.1001C54.0764 41.0723 53.447 40.171 52.5864 39.5324C51.7258 38.8938 50.6808 38.5527 49.6092 38.5606C48.5376 38.5685 47.4977 38.9249 46.6466 39.576C45.7955 40.2271 45.1794 41.1376 44.8915 42.1698H44.7609C44.5064 41.1105 43.8931 40.1719 43.0252 39.5135C42.1573 38.855 41.0882 38.5172 39.9995 38.5574C38.9108 38.5172 37.8418 38.855 36.9739 39.5135C36.1059 40.1719 35.4927 41.1105 35.2381 42.1698H35.1076C34.8569 41.1134 34.2483 40.1764 33.3851 39.5179C32.5219 38.8594 31.4573 38.52 30.3723 38.5574C29.2978 38.5168 28.2419 38.8466 27.3815 39.4916C26.5211 40.1365 25.9083 41.0574 25.6457 42.1001C25.5861 41.6441 25.557 41.1847 25.5587 40.7248C25.5587 33.5348 32.0348 27.668 40.0256 27.668C48.0164 27.668 54.4665 33.5348 54.4665 40.7248Z" fill="#0055FF"/>
</g>
<path d="M54.3819 42.1003L53.6681 42.2396C53.705 42.4106 53.8013 42.5631 53.9399 42.6699C54.0786 42.7766 54.2506 42.8308 54.4254 42.8228C54.5958 42.8155 54.758 42.7474 54.8826 42.6308C55.0071 42.5142 55.0858 42.3569 55.1044 42.1873L54.3819 42.1003ZM44.8939 42.1699V42.8924C45.0624 42.8928 45.2256 42.8336 45.3546 42.7253C45.4837 42.617 45.5702 42.4665 45.599 42.3005L44.8939 42.1699ZM44.7633 42.1699L44.0322 42.3005C44.068 42.4679 44.1601 42.6179 44.2932 42.7256C44.4262 42.8334 44.5922 42.8922 44.7633 42.8924V42.1699ZM35.2406 42.1699V42.8924C35.4095 42.8946 35.5736 42.836 35.703 42.7274C35.8324 42.6188 35.9185 42.4673 35.9456 42.3005L35.2406 42.1699ZM35.11 42.1699L34.4049 42.3005C34.432 42.4673 34.5181 42.6188 34.6475 42.7274C34.7769 42.836 34.941 42.8946 35.11 42.8924V42.1699ZM25.622 42.1003L24.8995 42.1873C24.9198 42.3562 24.999 42.5126 25.1232 42.6288C25.2474 42.745 25.4086 42.8137 25.5785 42.8228C25.7506 42.8317 25.92 42.7773 26.0547 42.6698C26.1894 42.5624 26.2801 42.4093 26.3097 42.2396L25.622 42.1003ZM55.1044 42.1873C55.164 41.7022 55.193 41.2138 55.1914 40.725H53.7464C53.7464 41.1602 53.7464 41.5954 53.6681 42.0306L55.1044 42.1873ZM49.6466 39.28C50.5537 39.2416 51.4468 39.5141 52.1781 40.0522C52.9093 40.5904 53.435 41.362 53.6681 42.2396L55.0869 41.9523C54.793 40.7444 54.0912 39.6751 53.0999 38.9249C52.1087 38.1748 50.8889 37.7898 49.6466 37.8351V39.28ZM45.599 42.3005C45.8212 41.4071 46.3457 40.6182 47.0835 40.0676C47.8213 39.517 48.7269 39.2387 49.6466 39.28V37.8351C48.3888 37.7913 47.155 38.187 46.1574 38.9543C45.1598 39.7216 44.4606 40.8124 44.1801 42.0394L45.599 42.3005ZM44.7285 42.8924H44.8591V41.4474H44.7285V42.8924ZM39.9671 39.28C40.885 39.2378 41.7889 39.5161 42.5242 40.0671C43.2594 40.6182 43.7802 41.4077 43.9973 42.3005L45.4336 42.0394C45.1516 40.8133 44.452 39.7234 43.4547 38.9563C42.4575 38.1893 41.2245 37.7929 39.9671 37.8351V39.28ZM35.9456 42.3005C36.1696 41.4064 36.6958 40.6172 37.4351 40.0668C38.1743 39.5163 39.0812 39.2383 40.002 39.28V37.8351C38.7431 37.7909 37.5081 38.1863 36.509 38.9535C35.5099 39.7207 34.8091 40.8117 34.5268 42.0394L35.9456 42.3005ZM35.0752 42.8924H35.2057V41.4474H35.0752V42.8924ZM30.3747 39.28C31.2955 39.2383 32.2023 39.5163 32.9416 40.0668C33.6809 40.6172 34.2071 41.4064 34.431 42.3005L35.8412 42.0394C35.5622 40.8116 34.8635 39.7198 33.8655 38.9522C32.8675 38.1847 31.6329 37.7896 30.3747 37.8351V39.28ZM26.3358 42.2396C26.5752 41.3623 27.1049 40.592 27.8385 40.0545C28.572 39.517 29.466 39.244 30.3747 39.28V37.8351C29.1339 37.7963 27.9173 38.1838 26.9274 38.9329C25.9376 39.682 25.2342 40.7477 24.9344 41.9523L26.3358 42.2396ZM24.8386 40.725C24.837 41.2138 24.8661 41.7022 24.9257 42.1873L26.3532 42.0132C26.3078 41.5853 26.2846 41.1553 26.2836 40.725H24.8386ZM40.002 26.9805C31.6804 26.9805 24.8125 33.0737 24.8125 40.725H26.2575C26.2575 33.9963 32.3506 28.4254 40.002 28.4254V26.9805ZM55.1914 40.725C55.1914 33.0737 48.3148 26.9805 40.002 26.9805V28.4254C47.6707 28.4254 53.7464 33.9963 53.7464 40.725H55.1914Z" fill="#0044CC"/>
<path d="M39.9998 28.421C39.8082 28.421 39.6244 28.3449 39.489 28.2094C39.3535 28.0739 39.2773 27.8901 39.2773 27.6985V25.5311C39.2773 25.3395 39.3535 25.1557 39.489 25.0202C39.6244 24.8847 39.8082 24.8086 39.9998 24.8086C40.1914 24.8086 40.3752 24.8847 40.5107 25.0202C40.6462 25.1557 40.7223 25.3395 40.7223 25.5311V27.6985C40.7223 27.8901 40.6462 28.0739 40.5107 28.2094C40.3752 28.3449 40.1914 28.421 39.9998 28.421Z" fill="#0044CC"/>
<g opacity="0.8">
<path d="M41.3162 55.1955C41.1246 55.1955 40.9408 55.1194 40.8054 54.9839C40.6699 54.8484 40.5938 54.6647 40.5938 54.4731V48.5975C40.5938 48.4059 40.6699 48.2221 40.8054 48.0866C40.9408 47.9511 41.1246 47.875 41.3162 47.875C41.5078 47.875 41.6916 47.9511 41.8271 48.0866C41.9626 48.2221 42.0387 48.4059 42.0387 48.5975V54.4731C42.0387 54.6647 41.9626 54.8484 41.8271 54.9839C41.6916 55.1194 41.5078 55.1955 41.3162 55.1955Z" fill="#FF6B00"/>
</g>
<g opacity="0.8">
<path d="M41.313 49.32H38.867C38.6754 49.32 38.4916 49.2438 38.3561 49.1083C38.2206 48.9729 38.1445 48.7891 38.1445 48.5975C38.1445 48.4059 38.2206 48.2221 38.3561 48.0866C38.4916 47.9511 38.6754 47.875 38.867 47.875H41.313C41.5046 47.875 41.6884 47.9511 41.8239 48.0866C41.9593 48.2221 42.0355 48.4059 42.0355 48.5975C42.0355 48.7891 41.9593 48.9729 41.8239 49.1083C41.6884 49.2438 41.5046 49.32 41.313 49.32Z" fill="#FF6B00"/>
</g>
<g opacity="0.8">
<path d="M43.759 55.195H38.867C38.6754 55.195 38.4916 55.1188 38.3561 54.9833C38.2206 54.8479 38.1445 54.6641 38.1445 54.4725C38.1445 54.2809 38.2206 54.0971 38.3561 53.9616C38.4916 53.8261 38.6754 53.75 38.867 53.75H43.759C43.9506 53.75 44.1343 53.8261 44.2698 53.9616C44.4053 54.0971 44.4814 54.2809 44.4814 54.4725C44.4814 54.6641 44.4053 54.8479 44.2698 54.9833C44.1343 55.1188 43.9506 55.195 43.759 55.195Z" fill="#FF6B00"/>
</g>
<path d="M40.1824 46.1539C41.0814 46.1539 41.8102 45.4252 41.8102 44.5262C41.8102 43.6272 41.0814 42.8984 40.1824 42.8984C39.2835 42.8984 38.5547 43.6272 38.5547 44.5262C38.5547 45.4252 39.2835 46.1539 40.1824 46.1539Z" fill="white"/>
<g opacity="0.8">
<path d="M40.1823 46.9153C39.7174 46.9153 39.263 46.7775 38.8765 46.5192C38.49 46.261 38.1888 45.8939 38.0109 45.4645C37.833 45.035 37.7865 44.5625 37.8772 44.1066C37.9679 43.6507 38.1917 43.2319 38.5204 42.9032C38.8491 42.5745 39.2679 42.3507 39.7238 42.26C40.1797 42.1693 40.6522 42.2159 41.0817 42.3937C41.5111 42.5716 41.8782 42.8729 42.1364 43.2594C42.3947 43.6459 42.5325 44.1002 42.5325 44.5651C42.5325 45.1884 42.2849 45.7862 41.8441 46.2269C41.4034 46.6677 40.8056 46.9153 40.1823 46.9153ZM40.1823 43.6598C40.0101 43.6598 39.8418 43.7109 39.6987 43.8065C39.5555 43.9021 39.4439 44.0381 39.3781 44.1971C39.3122 44.3562 39.2949 44.5312 39.3285 44.7001C39.3621 44.8689 39.445 45.024 39.5668 45.1458C39.6885 45.2675 39.8436 45.3504 40.0124 45.384C40.1813 45.4176 40.3563 45.4003 40.5154 45.3345C40.6744 45.2686 40.8104 45.157 40.906 45.0139C41.0017 44.8707 41.0527 44.7024 41.0527 44.5303C41.0574 44.4131 41.0384 44.2961 40.9967 44.1864C40.9551 44.0768 40.8917 43.9767 40.8104 43.8921C40.7291 43.8076 40.6316 43.7403 40.5236 43.6944C40.4157 43.6485 40.2996 43.6249 40.1823 43.625V43.6598Z" fill="#FF6B00"/>
</g>
</svg>
