<svg width="80" height="80" viewBox="0 0 80 80" fill="none" xmlns="http://www.w3.org/2000/svg">
<path d="M40.0044 79.2944C39.8738 79.2935 39.7455 79.2599 39.6312 79.1967L6.37328 59.9903C6.26016 59.926 6.16604 59.833 6.10049 59.7206C6.03493 59.6082 6.00026 59.4805 6 59.3504V20.9465C6.00026 20.8164 6.03493 20.6887 6.10049 20.5763C6.16604 20.4639 6.26016 20.3709 6.37328 20.3066L39.6312 1.10023C39.743 1.0346 39.8703 1 40 1C40.1297 1 40.257 1.0346 40.3688 1.10023L73.6356 20.3066C73.7465 20.3727 73.8383 20.4664 73.9022 20.5785C73.9661 20.6907 73.9998 20.8175 74 20.9465V59.3504C73.9998 59.4794 73.9661 59.6062 73.9022 59.7184C73.8383 59.8306 73.7465 59.9242 73.6356 59.9903L40.3688 79.2145C40.2557 79.2705 40.1306 79.2979 40.0044 79.2944ZM7.47536 58.9238L40.0044 77.7035L72.5246 58.9238V21.3731L40.0044 2.59336L7.47536 21.3731V58.9238Z" fill="#0044CC"/>
<g opacity="0.2">
<path fill-rule="evenodd" clip-rule="evenodd" d="M23.5426 26.7734C23.5426 24.8381 24.3113 22.9822 25.6797 21.6138C27.0482 20.2453 28.9041 19.4766 30.8394 19.4766C32.7746 19.4766 34.6306 20.2453 35.999 21.6138C37.3674 22.9822 38.1362 24.8381 38.1362 26.7734V27.8755C38.5775 27.9898 38.9693 28.2455 39.2517 28.6033C39.5342 28.9612 39.6917 29.4016 39.7004 29.8574C39.6819 30.4264 39.4385 30.9648 39.0237 31.3546C38.6089 31.7444 38.0564 31.9539 37.4874 31.9372H37.4252C36.8318 33.181 35.8984 34.2313 34.7329 34.9666C33.5674 35.7019 32.2175 36.0922 30.8394 36.0922C29.4613 36.0922 28.1114 35.7019 26.9459 34.9666C25.7804 34.2313 24.8469 33.181 24.2536 31.9372H24.1914C23.6239 31.9491 23.0747 31.7363 22.6635 31.345C22.2523 30.9538 22.0124 30.4159 21.9961 29.8485C22.0048 29.3927 22.1624 28.9523 22.4448 28.5944C22.7273 28.2366 23.119 27.9809 23.5603 27.8666L23.5426 26.7734Z" fill="#0055FF"/>
</g>
<path d="M30.8864 36.8209C29.4345 36.8265 28.0079 36.4406 26.7567 35.704C25.5054 34.9673 24.4759 33.9071 23.7763 32.6348C23.0876 32.5575 22.4503 32.2329 21.9828 31.7213C21.5154 31.2096 21.2494 30.5458 21.2344 29.8529C21.2363 29.3345 21.384 28.8271 21.6606 28.3886C21.9372 27.9501 22.3316 27.5983 22.7986 27.3732V26.7778C22.7986 25.7215 23.0067 24.6756 23.4109 23.6997C23.8151 22.7238 24.4076 21.8371 25.1545 21.0902C25.9014 20.3433 26.7881 19.7509 27.7639 19.3466C28.7398 18.9424 29.7857 18.7344 30.842 18.7344C31.8983 18.7344 32.9442 18.9424 33.9201 19.3466C34.8959 19.7509 35.7826 20.3433 36.5295 21.0902C37.2764 21.8371 37.8689 22.7238 38.2731 23.6997C38.6774 24.6756 38.8854 25.7215 38.8854 26.7778V27.3821C39.3524 27.6072 39.7468 27.959 40.0234 28.3975C40.3 28.836 40.4477 29.3434 40.4496 29.8618C40.4349 30.5557 40.1692 31.2206 39.7019 31.7337C39.2346 32.2468 38.5972 32.5732 37.9078 32.6526C37.2117 33.9071 36.1947 34.9542 34.961 35.6866C33.7273 36.4191 32.3211 36.8105 30.8864 36.8209ZM30.8864 20.2097C30.0209 20.2051 29.163 20.3715 28.3621 20.6995C27.5611 21.0274 26.8328 21.5105 26.2191 22.1209C25.6055 22.7312 25.1185 23.4569 24.7862 24.2561C24.4539 25.0552 24.2829 25.9122 24.2829 26.7778V28.4309L23.7763 28.5553C23.4883 28.6238 23.2311 28.7856 23.0446 29.0155C22.8582 29.2453 22.7529 29.5304 22.7453 29.8263C22.7488 30.013 22.789 30.1973 22.8637 30.3685C22.9384 30.5397 23.046 30.6945 23.1806 30.8241C23.3151 30.9536 23.4738 31.0554 23.6477 31.1237C23.8216 31.1919 24.0072 31.2252 24.194 31.2216H24.665L24.9228 31.6394C25.4563 32.757 26.2954 33.7007 27.3429 34.3614C28.3904 35.0221 29.6036 35.3727 30.842 35.3727C32.0805 35.3727 33.2936 35.0221 34.3411 34.3614C35.3886 33.7007 36.2277 32.757 36.7612 31.6394L36.9834 31.1861H37.49C37.8634 31.203 38.2283 31.0713 38.5049 30.8197C38.7814 30.5682 38.947 30.2174 38.9654 29.844C38.9616 29.5451 38.8582 29.2559 38.6714 29.0225C38.4846 28.789 38.2253 28.6246 37.9344 28.5553L37.4012 28.3953V26.7778C37.4012 25.045 36.7165 23.3824 35.4963 22.1522C34.2761 20.922 32.6191 20.2238 30.8864 20.2097Z" fill="#0044CC"/>
<g opacity="0.2">
<path d="M15.6066 45.1984L15.5089 46.5138L14.8867 57.7567H47.3891V56.5124L46.7581 46.5404V46.1405C46.6669 44.6578 46.2308 43.2168 45.4847 41.9323C44.7385 40.6478 43.7029 39.5552 42.4601 38.7413C41.2174 37.9275 39.8018 37.415 38.3261 37.2445C36.8505 37.074 35.3553 37.2503 33.9598 37.7593L33.6309 37.8838C31.6316 38.6031 29.4384 38.5683 27.4629 37.786C26.1982 37.2768 24.8311 37.0738 23.4731 37.1936C22.115 37.3134 20.8046 37.7525 19.6486 38.4752C18.4926 39.198 17.5239 40.1837 16.8214 41.3521C16.119 42.5205 15.7027 43.8385 15.6066 45.1984Z" fill="#0055FF"/>
</g>
<path d="M47.3894 58.4955H14.887C14.7871 58.4951 14.6883 58.4744 14.5967 58.4347C14.505 58.395 14.4224 58.337 14.3538 58.2644C14.2842 58.1912 14.2302 58.1046 14.195 58.0099C14.1599 57.9151 14.1444 57.8143 14.1493 57.7134L14.887 45.1461C14.9905 43.6715 15.4411 42.2423 16.2021 40.975C16.9632 39.7077 18.013 38.6384 19.2661 37.8541C20.5191 37.0699 21.9398 36.593 23.4123 36.4624C24.8847 36.3319 26.3672 36.5513 27.7387 37.1027C29.5462 37.8217 31.5552 37.8501 33.3824 37.1827L33.7023 37.0672C35.2053 36.5249 36.8138 36.3396 38.4007 36.5261C39.9876 36.7125 41.5093 37.2656 42.8456 38.1415C44.1819 39.0175 45.2961 40.1922 46.1002 41.573C46.9042 42.9537 47.376 44.5026 47.4783 46.0971L48.1271 56.4691V57.7578C48.1271 57.9535 48.0494 58.1411 47.9111 58.2794C47.7727 58.4178 47.5851 58.4955 47.3894 58.4955ZM15.6691 56.9935H46.6429V56.4957L45.9941 46.186C45.908 44.8184 45.5044 43.4897 44.8152 42.3053C44.126 41.121 43.1703 40.1135 42.0238 39.363C40.8773 38.6125 39.5717 38.1396 38.2105 37.9817C36.8493 37.8239 35.4701 37.9854 34.1823 38.4537L33.8623 38.5781C31.6904 39.3619 29.3068 39.3239 27.161 38.4714C26.0051 38.0095 24.7566 37.8269 23.5169 37.9385C22.2772 38.05 21.0813 38.4525 20.0264 39.1133C18.9716 39.7741 18.0876 40.6745 17.4463 41.7413C16.805 42.8081 16.4245 44.0112 16.3357 45.2528L16.238 46.5682L15.6691 56.9935Z" fill="#0044CC"/>
<path fill-rule="evenodd" clip-rule="evenodd" d="M46.5564 26.1974C46.5564 24.6086 47.1875 23.085 48.3109 21.9616C49.4343 20.8382 50.958 20.207 52.5467 20.207C54.1354 20.207 55.6591 20.8382 56.7825 21.9616C57.9059 23.085 58.537 24.6086 58.537 26.1974V27.0861C58.8998 27.1813 59.2214 27.3928 59.4525 27.6881C59.6837 27.9835 59.8117 28.3465 59.8169 28.7215C59.7963 29.1789 59.5999 29.6107 59.2688 29.927C58.9376 30.2432 58.4972 30.4195 58.0393 30.419H57.986C57.5008 31.4414 56.7355 32.3052 55.7789 32.91C54.8224 33.5148 53.714 33.8359 52.5823 33.8359C51.4506 33.8359 50.3421 33.5148 49.3856 32.91C48.4291 32.3052 47.6638 31.4414 47.1785 30.419H47.1252C46.6673 30.4195 46.2269 30.2432 45.8957 29.927C45.5646 29.6107 45.3683 29.1789 45.3477 28.7215C45.3543 28.3468 45.4829 27.9846 45.7138 27.6895C45.9447 27.3945 46.2654 27.1826 46.6275 27.0861L46.5564 26.1974Z" fill="white"/>
<path d="M52.5469 34.5818C51.3503 34.5772 50.1763 34.2557 49.1444 33.65C48.1124 33.0442 47.2594 32.1759 46.6721 31.1334C46.0897 31.0513 45.5555 30.7649 45.1648 30.3253C44.7741 29.8858 44.5523 29.3216 44.5391 28.7337C44.5407 28.297 44.6605 27.869 44.8858 27.495C45.1112 27.121 45.4336 26.815 45.8189 26.6095V26.2007C45.8189 24.4163 46.5277 22.705 47.7895 21.4432C49.0512 20.1815 50.7625 19.4727 52.5469 19.4727C54.3313 19.4727 56.0426 20.1815 57.3043 21.4432C58.5661 22.705 59.2749 24.4163 59.2749 26.2007V26.6095C59.6602 26.815 59.9826 27.121 60.208 27.495C60.4333 27.869 60.5531 28.297 60.5547 28.7337C60.5443 29.3205 60.326 29.8847 59.9386 30.3257C59.5513 30.7667 59.0201 31.0561 58.4395 31.1422C57.8503 32.1864 56.9941 33.0551 55.9587 33.6595C54.9233 34.2639 53.7458 34.5822 52.5469 34.5818ZM52.5469 20.948C51.1545 20.9504 49.8199 21.5045 48.8353 22.4891C47.8508 23.4736 47.2966 24.8083 47.2943 26.2007V27.6671L46.761 27.8182C46.5586 27.8685 46.3773 27.9815 46.2432 28.1412C46.109 28.3009 46.029 28.499 46.0144 28.707C46.0305 28.9766 46.1526 29.2289 46.3541 29.4088C46.5556 29.5887 46.8201 29.6814 47.0898 29.6669H47.5609L47.8097 30.0846C48.2352 30.9808 48.9061 31.738 49.7446 32.2681C50.5831 32.7983 51.5548 33.0797 52.5469 33.0797C53.539 33.0797 54.5107 32.7983 55.3492 32.2681C56.1877 31.738 56.8586 30.9808 57.2841 30.0846L57.4885 29.6669H57.9506C58.088 29.679 58.2264 29.6637 58.3578 29.6219C58.4891 29.5801 58.6109 29.5125 58.7159 29.4232C58.821 29.3339 58.9072 29.2246 58.9696 29.1016C59.032 28.9787 59.0693 28.8445 59.0794 28.707C59.0649 28.499 58.9848 28.3009 58.8506 28.1412C58.7165 27.9815 58.5352 27.8685 58.3328 27.8182L57.7995 27.6671V26.2007C57.7972 24.8083 57.243 23.4736 56.2585 22.4891C55.2739 21.5045 53.9393 20.9504 52.5469 20.948Z" fill="#0044CC"/>
<path d="M64.8192 50.492C64.6304 50.4945 64.448 50.4236 64.3104 50.2943C64.1728 50.165 64.0908 49.9873 64.0816 49.7987L63.6283 42.0842C63.5827 41.0903 63.3037 40.1212 62.814 39.2552C62.3243 38.3892 61.6375 37.6507 60.8093 37.0994C59.9811 36.5481 59.0347 36.1996 58.0468 36.082C57.0589 35.9645 56.0572 36.0812 55.1227 36.4227C53.4568 37.0046 51.6427 37.0046 49.9767 36.4227L48.6614 35.9961C47.4708 35.5866 46.1667 35.6642 45.033 36.2119C43.8994 36.7595 43.028 37.733 42.6088 38.9201C42.5767 39.0118 42.5269 39.0962 42.4622 39.1685C42.3975 39.2409 42.3191 39.2998 42.2316 39.3419C42.1442 39.384 42.0493 39.4084 41.9523 39.4138C41.8554 39.4193 41.7583 39.4055 41.6667 39.3734C41.5751 39.3413 41.4907 39.2915 41.4183 39.2268C41.346 39.1621 41.2871 39.0837 41.245 38.9962C41.2029 38.9088 41.1784 38.8138 41.173 38.7169C41.1676 38.62 41.1814 38.5229 41.2134 38.4313C41.4819 37.6579 41.9004 36.945 42.4449 36.3336C42.9895 35.7222 43.6493 35.2243 44.3866 34.8685C45.124 34.5126 45.9243 34.3057 46.7417 34.2598C47.5592 34.2139 48.3776 34.3297 49.1502 34.6007L50.4922 35.0629C51.8377 35.5401 53.3063 35.5401 54.6517 35.0629C55.7976 34.6443 57.0257 34.5003 58.2373 34.6423C59.449 34.7843 60.6105 35.2084 61.6286 35.8805C62.6352 36.5419 63.4731 37.4298 64.075 38.4731C64.6769 39.5164 65.0261 40.6861 65.0948 41.8886L65.548 49.7098C65.5578 49.905 65.4907 50.0962 65.3611 50.2424C65.2315 50.3887 65.0497 50.4783 64.8548 50.492H64.8192Z" fill="#0044CC"/>
<path d="M46.6422 48.9942C46.7465 49.0056 46.852 48.9949 46.9518 48.9629C47.0517 48.9308 47.1437 48.878 47.2218 48.808C47.2999 48.738 47.3624 48.6523 47.4052 48.5565C47.448 48.4607 47.4701 48.357 47.4701 48.2521C47.4701 48.1472 47.448 48.0434 47.4052 47.9477C47.3624 47.8519 47.2999 47.7662 47.2218 47.6961C47.1437 47.6261 47.0517 47.5734 46.9518 47.5413C46.852 47.5092 46.7465 47.4985 46.6422 47.5099V48.9942ZM28.8667 47.7321C28.7294 47.8703 28.6523 48.0572 28.6523 48.2521C28.6523 48.4469 28.7294 48.6338 28.8667 48.772L33.5506 53.5003C33.6194 53.5685 33.7011 53.6226 33.7908 53.6593C33.8806 53.696 33.9767 53.7147 34.0736 53.7143C34.1706 53.7139 34.2665 53.6944 34.356 53.6569C34.4454 53.6194 34.5266 53.5647 34.5949 53.4958C34.6631 53.427 34.7172 53.3453 34.7539 53.2556C34.7906 53.1658 34.8093 53.0697 34.8089 52.9727C34.8085 52.8758 34.789 52.7798 34.7515 52.6904C34.714 52.601 34.6593 52.5198 34.5904 52.4515L30.4132 48.2743L34.5904 44.0882C34.6597 44.0196 34.7148 43.9379 34.7524 43.8479C34.7899 43.7579 34.8093 43.6613 34.8093 43.5638C34.8093 43.4663 34.7899 43.3697 34.7524 43.2797C34.7148 43.1897 34.6597 43.108 34.5904 43.0394C34.4501 42.9063 34.264 42.832 34.0705 42.832C33.877 42.832 33.6909 42.9063 33.5506 43.0394L28.8667 47.7321ZM46.6422 47.5099H29.3644V48.9942H46.6422V47.5099Z" fill="#0044CC"/>
<g opacity="0.8">
<path d="M51.8146 40.1055C51.6318 40.1255 51.4628 40.2123 51.34 40.3493C51.2172 40.4862 51.1493 40.6637 51.1493 40.8476C51.1493 41.0315 51.2172 41.209 51.34 41.3459C51.4628 41.4829 51.6318 41.5697 51.8146 41.5897V40.1055ZM48.1262 47.5267C47.9433 47.5468 47.7744 47.6336 47.6516 47.7705C47.5288 47.9075 47.4609 48.0849 47.4609 48.2688C47.4609 48.4528 47.5288 48.6302 47.6516 48.7672C47.7744 48.9041 47.9433 48.9909 48.1262 49.011V47.5267ZM51.8146 41.6253H56.2584V40.1055H51.8146V41.6253ZM56.2584 47.5267H48.1262V48.9932H56.2496L56.2584 47.5267ZM59.2003 44.5493C59.2003 45.3319 58.8894 46.0824 58.336 46.6358C57.7827 47.1892 57.0321 47.5001 56.2496 47.5001V48.9932C57.4281 48.9932 58.5585 48.525 59.3918 47.6916C60.2252 46.8582 60.6934 45.7279 60.6934 44.5493H59.2003ZM56.2496 41.5986C57.0321 41.5986 57.7827 41.9095 58.336 42.4629C58.8894 43.0162 59.2003 43.7668 59.2003 44.5493H60.6756C60.6756 43.3707 60.2074 42.2404 59.3741 41.407C58.5407 40.5737 57.4104 40.1055 56.2318 40.1055L56.2496 41.5986Z" fill="#FF6B00"/>
</g>
</svg>
