<svg width="68" height="246" viewBox="0 0 68 246" fill="none" xmlns="http://www.w3.org/2000/svg">
<rect width="68" height="82" rx="10" fill="white"/>
<g clip-path="url(#clip0_578_59201)">
<rect width="68" height="82" fill="white"/>
<path d="M37.752 41.7383V46.8516C37.752 49.3008 37.5085 51.3919 37.0215 53.125C36.5488 54.8438 35.8613 56.2402 34.959 57.3145C34.0566 58.3887 32.9753 59.1764 31.7148 59.6777C30.4688 60.179 29.0723 60.4297 27.5254 60.4297C26.2936 60.4297 25.1478 60.2721 24.0879 59.957C23.0423 59.6419 22.097 59.1478 21.252 58.4746C20.4069 57.8014 19.6836 56.9349 19.082 55.875C18.4948 54.8008 18.0365 53.5189 17.707 52.0293C17.3919 50.5397 17.2344 48.8138 17.2344 46.8516V41.7383C17.2344 39.2747 17.4779 37.1979 17.9648 35.5078C18.4518 33.8034 19.1465 32.4212 20.0488 31.3613C20.9512 30.2871 22.0254 29.5065 23.2715 29.0195C24.5319 28.5326 25.9355 28.2891 27.4824 28.2891C28.7285 28.2891 29.8743 28.4466 30.9199 28.7617C31.9798 29.0625 32.9251 29.5423 33.7559 30.2012C34.6009 30.86 35.3171 31.7194 35.9043 32.7793C36.5059 33.8249 36.9642 35.0924 37.2793 36.582C37.5944 38.0573 37.752 39.776 37.752 41.7383ZM32.5742 47.582V40.9648C32.5742 39.7188 32.5026 38.623 32.3594 37.6777C32.2161 36.7181 32.0013 35.9089 31.7148 35.25C31.4427 34.5768 31.099 34.0326 30.6836 33.6172C30.2682 33.1875 29.7956 32.8796 29.2656 32.6934C28.7357 32.4928 28.1413 32.3926 27.4824 32.3926C26.6803 32.3926 25.9642 32.5501 25.334 32.8652C24.7038 33.166 24.1738 33.653 23.7441 34.3262C23.3145 34.9993 22.985 35.8874 22.7559 36.9902C22.541 38.0788 22.4336 39.4036 22.4336 40.9648V47.582C22.4336 48.8424 22.5052 49.9525 22.6484 50.9121C22.7917 51.8717 23.0065 52.6953 23.293 53.3828C23.5794 54.056 23.9232 54.6146 24.3242 55.0586C24.7396 55.4883 25.2122 55.8034 25.7422 56.0039C26.2865 56.2044 26.8809 56.3047 27.5254 56.3047C28.3418 56.3047 29.0651 56.1471 29.6953 55.832C30.3255 55.5169 30.8555 55.0156 31.2852 54.3281C31.7148 53.6263 32.0371 52.7168 32.252 51.5996C32.4668 50.4824 32.5742 49.1432 32.5742 47.582ZM54.3078 28.6113V60H49.1301V34.7559L41.4602 37.3555V33.0801L53.6848 28.6113H54.3078Z" fill="#4E16ED"/>
<mask id="mask0_578_59201" style="mask-type:alpha" maskUnits="userSpaceOnUse" x="0" y="0" width="68" height="82">
<rect width="68" height="82" fill="url(#paint0_linear_578_59201)"/>
</mask>
<g mask="url(#mask0_578_59201)">
<g filter="url(#filter0_d_578_59201)">
<path d="M-20 0H40L0 80H-20V0Z" fill="white"/>
</g>
</g>
</g>
<g clip-path="url(#clip1_578_59201)">
<rect width="68" height="82" transform="translate(0 82)" fill="white"/>
<path d="M37.752 123.738V128.852C37.752 131.301 37.5085 133.392 37.0215 135.125C36.5488 136.844 35.8613 138.24 34.959 139.314C34.0566 140.389 32.9753 141.176 31.7148 141.678C30.4688 142.179 29.0723 142.43 27.5254 142.43C26.2936 142.43 25.1478 142.272 24.0879 141.957C23.0423 141.642 22.097 141.148 21.252 140.475C20.4069 139.801 19.6836 138.935 19.082 137.875C18.4948 136.801 18.0365 135.519 17.707 134.029C17.3919 132.54 17.2344 130.814 17.2344 128.852V123.738C17.2344 121.275 17.4779 119.198 17.9648 117.508C18.4518 115.803 19.1465 114.421 20.0488 113.361C20.9512 112.287 22.0254 111.507 23.2715 111.02C24.5319 110.533 25.9355 110.289 27.4824 110.289C28.7285 110.289 29.8743 110.447 30.9199 110.762C31.9798 111.062 32.9251 111.542 33.7559 112.201C34.6009 112.86 35.3171 113.719 35.9043 114.779C36.5059 115.825 36.9642 117.092 37.2793 118.582C37.5944 120.057 37.752 121.776 37.752 123.738ZM32.5742 129.582V122.965C32.5742 121.719 32.5026 120.623 32.3594 119.678C32.2161 118.718 32.0013 117.909 31.7148 117.25C31.4427 116.577 31.099 116.033 30.6836 115.617C30.2682 115.188 29.7956 114.88 29.2656 114.693C28.7357 114.493 28.1413 114.393 27.4824 114.393C26.6803 114.393 25.9642 114.55 25.334 114.865C24.7038 115.166 24.1738 115.653 23.7441 116.326C23.3145 116.999 22.985 117.887 22.7559 118.99C22.541 120.079 22.4336 121.404 22.4336 122.965V129.582C22.4336 130.842 22.5052 131.952 22.6484 132.912C22.7917 133.872 23.0065 134.695 23.293 135.383C23.5794 136.056 23.9232 136.615 24.3242 137.059C24.7396 137.488 25.2122 137.803 25.7422 138.004C26.2865 138.204 26.8809 138.305 27.5254 138.305C28.3418 138.305 29.0651 138.147 29.6953 137.832C30.3255 137.517 30.8555 137.016 31.2852 136.328C31.7148 135.626 32.0371 134.717 32.252 133.6C32.4668 132.482 32.5742 131.143 32.5742 129.582ZM61.1398 137.875V142H40.1711V138.455L50.3547 127.348C51.4719 126.087 52.3527 124.999 52.9973 124.082C53.6418 123.165 54.093 122.342 54.3508 121.611C54.6229 120.867 54.759 120.143 54.759 119.441C54.759 118.453 54.5728 117.587 54.2004 116.842C53.8423 116.083 53.3124 115.488 52.6105 115.059C51.9087 114.615 51.0565 114.393 50.0539 114.393C48.8937 114.393 47.9198 114.643 47.132 115.145C46.3443 115.646 45.7499 116.34 45.3488 117.229C44.9478 118.102 44.7473 119.105 44.7473 120.236H39.5695C39.5695 118.417 39.9849 116.756 40.8156 115.252C41.6464 113.734 42.8495 112.531 44.425 111.643C46.0005 110.74 47.8983 110.289 50.1184 110.289C52.2095 110.289 53.9855 110.64 55.4465 111.342C56.9074 112.044 58.0174 113.039 58.7766 114.328C59.55 115.617 59.9367 117.143 59.9367 118.904C59.9367 119.878 59.7792 120.845 59.4641 121.805C59.149 122.764 58.6978 123.724 58.1105 124.684C57.5376 125.629 56.8573 126.581 56.0695 127.541C55.2818 128.486 54.4152 129.446 53.4699 130.42L46.7023 137.875H61.1398Z" fill="#407AEC"/>
<mask id="mask1_578_59201" style="mask-type:alpha" maskUnits="userSpaceOnUse" x="0" y="82" width="68" height="82">
<rect y="82" width="68" height="82" fill="url(#paint1_linear_578_59201)"/>
</mask>
<g mask="url(#mask1_578_59201)">
<g filter="url(#filter1_d_578_59201)">
<path d="M-20 82H40L0 162H-20V82Z" fill="white"/>
</g>
</g>
</g>
<g clip-path="url(#clip2_578_59201)">
<rect width="68" height="82" transform="translate(0 164)" fill="white"/>
<path d="M37.752 205.738V210.852C37.752 213.301 37.5085 215.392 37.0215 217.125C36.5488 218.844 35.8613 220.24 34.959 221.314C34.0566 222.389 32.9753 223.176 31.7148 223.678C30.4688 224.179 29.0723 224.43 27.5254 224.43C26.2936 224.43 25.1478 224.272 24.0879 223.957C23.0423 223.642 22.097 223.148 21.252 222.475C20.4069 221.801 19.6836 220.935 19.082 219.875C18.4948 218.801 18.0365 217.519 17.707 216.029C17.3919 214.54 17.2344 212.814 17.2344 210.852V205.738C17.2344 203.275 17.4779 201.198 17.9648 199.508C18.4518 197.803 19.1465 196.421 20.0488 195.361C20.9512 194.287 22.0254 193.507 23.2715 193.02C24.5319 192.533 25.9355 192.289 27.4824 192.289C28.7285 192.289 29.8743 192.447 30.9199 192.762C31.9798 193.062 32.9251 193.542 33.7559 194.201C34.6009 194.86 35.3171 195.719 35.9043 196.779C36.5059 197.825 36.9642 199.092 37.2793 200.582C37.5944 202.057 37.752 203.776 37.752 205.738ZM32.5742 211.582V204.965C32.5742 203.719 32.5026 202.623 32.3594 201.678C32.2161 200.718 32.0013 199.909 31.7148 199.25C31.4427 198.577 31.099 198.033 30.6836 197.617C30.2682 197.188 29.7956 196.88 29.2656 196.693C28.7357 196.493 28.1413 196.393 27.4824 196.393C26.6803 196.393 25.9642 196.55 25.334 196.865C24.7038 197.166 24.1738 197.653 23.7441 198.326C23.3145 198.999 22.985 199.887 22.7559 200.99C22.541 202.079 22.4336 203.404 22.4336 204.965V211.582C22.4336 212.842 22.5052 213.952 22.6484 214.912C22.7917 215.872 23.0065 216.695 23.293 217.383C23.5794 218.056 23.9232 218.615 24.3242 219.059C24.7396 219.488 25.2122 219.803 25.7422 220.004C26.2865 220.204 26.8809 220.305 27.5254 220.305C28.3418 220.305 29.0651 220.147 29.6953 219.832C30.3255 219.517 30.8555 219.016 31.2852 218.328C31.7148 217.626 32.0371 216.717 32.252 215.6C32.4668 214.482 32.5742 213.143 32.5742 211.582ZM46.2512 206.018H49.3449C50.548 206.018 51.5435 205.81 52.3312 205.395C53.1333 204.979 53.7277 204.406 54.1145 203.676C54.5012 202.945 54.6945 202.107 54.6945 201.162C54.6945 200.174 54.5155 199.329 54.1574 198.627C53.8137 197.911 53.2837 197.359 52.5676 196.973C51.8658 196.586 50.9706 196.393 49.882 196.393C48.9654 196.393 48.1346 196.579 47.3898 196.951C46.6594 197.309 46.0793 197.825 45.6496 198.498C45.2199 199.157 45.0051 199.945 45.0051 200.861H39.8059C39.8059 199.2 40.2427 197.725 41.1164 196.436C41.9901 195.146 43.1789 194.137 44.6828 193.406C46.201 192.661 47.9055 192.289 49.7961 192.289C51.8156 192.289 53.5773 192.626 55.0812 193.299C56.5995 193.958 57.7811 194.946 58.6262 196.264C59.4712 197.581 59.8937 199.214 59.8937 201.162C59.8937 202.05 59.6861 202.952 59.2707 203.869C58.8553 204.786 58.2395 205.624 57.423 206.383C56.6066 207.128 55.5897 207.736 54.3723 208.209C53.1548 208.667 51.744 208.896 50.1398 208.896H46.2512V206.018ZM46.2512 210.057V207.221H50.1398C51.9732 207.221 53.5344 207.436 54.8234 207.865C56.1268 208.295 57.1867 208.889 58.0031 209.648C58.8195 210.393 59.4139 211.245 59.7863 212.205C60.173 213.165 60.3664 214.182 60.3664 215.256C60.3664 216.717 60.1014 218.02 59.5715 219.166C59.0559 220.298 58.3182 221.257 57.3586 222.045C56.399 222.833 55.2746 223.427 53.9855 223.828C52.7108 224.229 51.3215 224.43 49.8176 224.43C48.4712 224.43 47.1822 224.243 45.9504 223.871C44.7186 223.499 43.6158 222.947 42.6418 222.217C41.6678 221.472 40.8944 220.548 40.3215 219.445C39.7629 218.328 39.4836 217.039 39.4836 215.578H44.6613C44.6613 216.509 44.8762 217.333 45.3059 218.049C45.7499 218.751 46.3658 219.302 47.1535 219.703C47.9556 220.104 48.8723 220.305 49.9035 220.305C50.9921 220.305 51.9302 220.111 52.718 219.725C53.5057 219.338 54.1073 218.765 54.5227 218.006C54.9523 217.247 55.1672 216.33 55.1672 215.256C55.1672 214.038 54.9309 213.05 54.4582 212.291C53.9855 211.532 53.3124 210.973 52.4387 210.615C51.565 210.243 50.5337 210.057 49.3449 210.057H46.2512Z" fill="#EE2A7B"/>
<mask id="mask2_578_59201" style="mask-type:alpha" maskUnits="userSpaceOnUse" x="0" y="164" width="68" height="82">
<rect y="164" width="68" height="82" fill="url(#paint2_linear_578_59201)"/>
</mask>
<g mask="url(#mask2_578_59201)">
<g filter="url(#filter2_d_578_59201)">
<path d="M-20 164H40L0 244H-20V164Z" fill="white"/>
</g>
</g>
</g>
<defs>
<filter id="filter0_d_578_59201" x="-27" y="-5" width="78" height="98" filterUnits="userSpaceOnUse" color-interpolation-filters="sRGB">
<feFlood flood-opacity="0" result="BackgroundImageFix"/>
<feColorMatrix in="SourceAlpha" type="matrix" values="0 0 0 0 0 0 0 0 0 0 0 0 0 0 0 0 0 0 127 0" result="hardAlpha"/>
<feOffset dx="2" dy="4"/>
<feGaussianBlur stdDeviation="4.5"/>
<feComposite in2="hardAlpha" operator="out"/>
<feColorMatrix type="matrix" values="0 0 0 0 0 0 0 0 0 0 0 0 0 0 0 0 0 0 0.23 0"/>
<feBlend mode="normal" in2="BackgroundImageFix" result="effect1_dropShadow_578_59201"/>
<feBlend mode="normal" in="SourceGraphic" in2="effect1_dropShadow_578_59201" result="shape"/>
</filter>
<filter id="filter1_d_578_59201" x="-27" y="77" width="78" height="98" filterUnits="userSpaceOnUse" color-interpolation-filters="sRGB">
<feFlood flood-opacity="0" result="BackgroundImageFix"/>
<feColorMatrix in="SourceAlpha" type="matrix" values="0 0 0 0 0 0 0 0 0 0 0 0 0 0 0 0 0 0 127 0" result="hardAlpha"/>
<feOffset dx="2" dy="4"/>
<feGaussianBlur stdDeviation="4.5"/>
<feComposite in2="hardAlpha" operator="out"/>
<feColorMatrix type="matrix" values="0 0 0 0 0 0 0 0 0 0 0 0 0 0 0 0 0 0 0.23 0"/>
<feBlend mode="normal" in2="BackgroundImageFix" result="effect1_dropShadow_578_59201"/>
<feBlend mode="normal" in="SourceGraphic" in2="effect1_dropShadow_578_59201" result="shape"/>
</filter>
<filter id="filter2_d_578_59201" x="-27" y="159" width="78" height="98" filterUnits="userSpaceOnUse" color-interpolation-filters="sRGB">
<feFlood flood-opacity="0" result="BackgroundImageFix"/>
<feColorMatrix in="SourceAlpha" type="matrix" values="0 0 0 0 0 0 0 0 0 0 0 0 0 0 0 0 0 0 127 0" result="hardAlpha"/>
<feOffset dx="2" dy="4"/>
<feGaussianBlur stdDeviation="4.5"/>
<feComposite in2="hardAlpha" operator="out"/>
<feColorMatrix type="matrix" values="0 0 0 0 0 0 0 0 0 0 0 0 0 0 0 0 0 0 0.23 0"/>
<feBlend mode="normal" in2="BackgroundImageFix" result="effect1_dropShadow_578_59201"/>
<feBlend mode="normal" in="SourceGraphic" in2="effect1_dropShadow_578_59201" result="shape"/>
</filter>
<linearGradient id="paint0_linear_578_59201" x1="34" y1="0" x2="34" y2="82" gradientUnits="userSpaceOnUse">
<stop offset="0.75"/>
<stop offset="1" stop-color="white" stop-opacity="0"/>
</linearGradient>
<linearGradient id="paint1_linear_578_59201" x1="34" y1="82" x2="34" y2="164" gradientUnits="userSpaceOnUse">
<stop offset="0.75"/>
<stop offset="1" stop-color="white" stop-opacity="0"/>
</linearGradient>
<linearGradient id="paint2_linear_578_59201" x1="34" y1="164" x2="34" y2="246" gradientUnits="userSpaceOnUse">
<stop offset="0.75"/>
<stop offset="1" stop-color="white" stop-opacity="0"/>
</linearGradient>
<clipPath id="clip0_578_59201">
<rect width="68" height="82" fill="white"/>
</clipPath>
<clipPath id="clip1_578_59201">
<rect width="68" height="82" fill="white" transform="translate(0 82)"/>
</clipPath>
<clipPath id="clip2_578_59201">
<rect width="68" height="82" fill="white" transform="translate(0 164)"/>
</clipPath>
</defs>
</svg>
