<svg width="69" height="984" viewBox="0 0 69 984" fill="none" xmlns="http://www.w3.org/2000/svg">
<path d="M37.752 697.738V702.852C37.752 705.301 37.5085 707.392 37.0215 709.125C36.5488 710.844 35.8613 712.24 34.959 713.314C34.0566 714.389 32.9753 715.176 31.7148 715.678C30.4688 716.179 29.0723 716.43 27.5254 716.43C26.2936 716.43 25.1478 716.272 24.0879 715.957C23.0423 715.642 22.097 715.148 21.252 714.475C20.4069 713.801 19.6836 712.935 19.082 711.875C18.4948 710.801 18.0365 709.519 17.707 708.029C17.3919 706.54 17.2344 704.814 17.2344 702.852V697.738C17.2344 695.275 17.4779 693.198 17.9648 691.508C18.4518 689.803 19.1465 688.421 20.0488 687.361C20.9512 686.287 22.0254 685.507 23.2715 685.02C24.5319 684.533 25.9355 684.289 27.4824 684.289C28.7285 684.289 29.8743 684.447 30.9199 684.762C31.9798 685.062 32.9251 685.542 33.7559 686.201C34.6009 686.86 35.3171 687.719 35.9043 688.779C36.5059 689.825 36.9642 691.092 37.2793 692.582C37.5944 694.057 37.752 695.776 37.752 697.738ZM32.5742 703.582V696.965C32.5742 695.719 32.5026 694.623 32.3594 693.678C32.2161 692.718 32.0013 691.909 31.7148 691.25C31.4427 690.577 31.099 690.033 30.6836 689.617C30.2682 689.188 29.7956 688.88 29.2656 688.693C28.7357 688.493 28.1413 688.393 27.4824 688.393C26.6803 688.393 25.9642 688.55 25.334 688.865C24.7038 689.166 24.1738 689.653 23.7441 690.326C23.3145 690.999 22.985 691.887 22.7559 692.99C22.541 694.079 22.4336 695.404 22.4336 696.965V703.582C22.4336 704.842 22.5052 705.952 22.6484 706.912C22.7917 707.872 23.0065 708.695 23.293 709.383C23.5794 710.056 23.9232 710.615 24.3242 711.059C24.7396 711.488 25.2122 711.803 25.7422 712.004C26.2865 712.204 26.8809 712.305 27.5254 712.305C28.3418 712.305 29.0651 712.147 29.6953 711.832C30.3255 711.517 30.8555 711.016 31.2852 710.328C31.7148 709.626 32.0371 708.717 32.252 707.6C32.4668 706.482 32.5742 705.143 32.5742 703.582ZM44.3391 711.918H44.7687C46.7453 711.918 48.3924 711.66 49.7102 711.145C51.0422 710.615 52.1021 709.884 52.8898 708.953C53.6776 708.022 54.2434 706.926 54.5871 705.666C54.9309 704.406 55.1027 703.038 55.1027 701.562V696.17C55.1027 694.895 54.9667 693.778 54.6945 692.818C54.4367 691.844 54.0643 691.035 53.5773 690.391C53.1047 689.732 52.5533 689.238 51.923 688.908C51.3072 688.579 50.6411 688.414 49.925 688.414C49.1372 688.414 48.4283 688.593 47.798 688.951C47.1822 689.295 46.6594 689.775 46.2297 690.391C45.8143 690.992 45.4921 691.701 45.2629 692.518C45.048 693.32 44.9406 694.179 44.9406 695.096C44.9406 695.955 45.0409 696.786 45.2414 697.588C45.4562 698.376 45.7714 699.077 46.1867 699.693C46.6021 700.309 47.1249 700.796 47.7551 701.154C48.3853 701.512 49.1229 701.691 49.968 701.691C50.7701 701.691 51.5077 701.541 52.1809 701.24C52.854 700.925 53.4413 700.503 53.9426 699.973C54.4439 699.443 54.8378 698.848 55.1242 698.189C55.4107 697.531 55.5682 696.857 55.5969 696.17L57.5734 696.771C57.5734 697.86 57.3443 698.934 56.8859 699.994C56.4419 701.04 55.8189 701.999 55.0168 702.873C54.229 703.732 53.3052 704.42 52.2453 704.936C51.1997 705.451 50.0611 705.709 48.8293 705.709C47.3397 705.709 46.022 705.43 44.8762 704.871C43.7447 704.298 42.7993 703.525 42.0402 702.551C41.2954 701.577 40.7368 700.46 40.3645 699.199C39.9921 697.939 39.8059 696.614 39.8059 695.225C39.8059 693.721 40.035 692.31 40.4934 690.992C40.9517 689.674 41.6177 688.514 42.4914 687.512C43.3651 686.495 44.425 685.707 45.6711 685.148C46.9315 684.576 48.3566 684.289 49.9465 684.289C51.6366 684.289 53.119 684.618 54.3937 685.277C55.6685 685.936 56.7427 686.846 57.6164 688.006C58.4901 689.166 59.149 690.512 59.593 692.045C60.037 693.577 60.259 695.225 60.259 696.986V698.812C60.259 700.66 60.0943 702.443 59.7648 704.162C59.4354 705.867 58.8983 707.449 58.1535 708.91C57.423 710.357 56.4562 711.632 55.2531 712.734C54.0643 713.823 52.6034 714.675 50.8703 715.291C49.1516 715.893 47.132 716.193 44.8117 716.193H44.3391V711.918Z" fill="#4E16ED"/>
<mask id="mask0_663_70997" style="mask-type:alpha" maskUnits="userSpaceOnUse" x="0" y="656" width="68" height="82">
<rect y="656" width="68" height="82" fill="url(#paint0_linear_663_70997)"/>
</mask>
<g mask="url(#mask0_663_70997)">
<g filter="url(#filter0_d_663_70997)">
<path d="M0 656H40L0 736V736V656Z" fill="white"/>
</g>
</g>
<path d="M37.752 615.738V620.852C37.752 623.301 37.5085 625.392 37.0215 627.125C36.5488 628.844 35.8613 630.24 34.959 631.314C34.0566 632.389 32.9753 633.176 31.7148 633.678C30.4688 634.179 29.0723 634.43 27.5254 634.43C26.2936 634.43 25.1478 634.272 24.0879 633.957C23.0423 633.642 22.097 633.148 21.252 632.475C20.4069 631.801 19.6836 630.935 19.082 629.875C18.4948 628.801 18.0365 627.519 17.707 626.029C17.3919 624.54 17.2344 622.814 17.2344 620.852V615.738C17.2344 613.275 17.4779 611.198 17.9648 609.508C18.4518 607.803 19.1465 606.421 20.0488 605.361C20.9512 604.287 22.0254 603.507 23.2715 603.02C24.5319 602.533 25.9355 602.289 27.4824 602.289C28.7285 602.289 29.8743 602.447 30.9199 602.762C31.9798 603.062 32.9251 603.542 33.7559 604.201C34.6009 604.86 35.3171 605.719 35.9043 606.779C36.5059 607.825 36.9642 609.092 37.2793 610.582C37.5944 612.057 37.752 613.776 37.752 615.738ZM32.5742 621.582V614.965C32.5742 613.719 32.5026 612.623 32.3594 611.678C32.2161 610.718 32.0013 609.909 31.7148 609.25C31.4427 608.577 31.099 608.033 30.6836 607.617C30.2682 607.188 29.7956 606.88 29.2656 606.693C28.7357 606.493 28.1413 606.393 27.4824 606.393C26.6803 606.393 25.9642 606.55 25.334 606.865C24.7038 607.166 24.1738 607.653 23.7441 608.326C23.3145 608.999 22.985 609.887 22.7559 610.99C22.541 612.079 22.4336 613.404 22.4336 614.965V621.582C22.4336 622.842 22.5052 623.952 22.6484 624.912C22.7917 625.872 23.0065 626.695 23.293 627.383C23.5794 628.056 23.9232 628.615 24.3242 629.059C24.7396 629.488 25.2122 629.803 25.7422 630.004C26.2865 630.204 26.8809 630.305 27.5254 630.305C28.3418 630.305 29.0651 630.147 29.6953 629.832C30.3255 629.517 30.8555 629.016 31.2852 628.328C31.7148 627.626 32.0371 626.717 32.252 625.6C32.4668 624.482 32.5742 623.143 32.5742 621.582ZM60.6242 625.471C60.6242 627.419 60.173 629.059 59.2707 630.391C58.3684 631.723 57.1366 632.732 55.5754 633.42C54.0285 634.093 52.2811 634.43 50.3332 634.43C48.3853 634.43 46.6307 634.093 45.0695 633.42C43.5083 632.732 42.2766 631.723 41.3742 630.391C40.4719 629.059 40.0207 627.419 40.0207 625.471C40.0207 624.182 40.2714 623.014 40.7727 621.969C41.274 620.909 41.9829 619.999 42.8996 619.24C43.8306 618.467 44.9191 617.872 46.1652 617.457C47.4257 617.042 48.8007 616.834 50.2902 616.834C52.2668 616.834 54.0357 617.199 55.5969 617.93C57.1581 618.66 58.3827 619.67 59.2707 620.959C60.173 622.248 60.6242 623.752 60.6242 625.471ZM55.425 625.213C55.425 624.167 55.2102 623.251 54.7805 622.463C54.3508 621.675 53.7492 621.066 52.9758 620.637C52.2023 620.207 51.3072 619.992 50.2902 619.992C49.259 619.992 48.3638 620.207 47.6047 620.637C46.8456 621.066 46.2512 621.675 45.8215 622.463C45.4061 623.251 45.1984 624.167 45.1984 625.213C45.1984 626.273 45.4061 627.189 45.8215 627.963C46.2368 628.722 46.8312 629.302 47.6047 629.703C48.3781 630.104 49.2876 630.305 50.3332 630.305C51.3788 630.305 52.2811 630.104 53.0402 629.703C53.7993 629.302 54.3866 628.722 54.802 627.963C55.2173 627.189 55.425 626.273 55.425 625.213ZM59.9152 610.947C59.9152 612.508 59.4999 613.898 58.6691 615.115C57.8527 616.333 56.7212 617.292 55.2746 617.994C53.828 618.682 52.1809 619.025 50.3332 619.025C48.4712 619.025 46.8098 618.682 45.3488 617.994C43.9022 617.292 42.7635 616.333 41.9328 615.115C41.1164 613.898 40.7082 612.508 40.7082 610.947C40.7082 609.085 41.1164 607.517 41.9328 606.242C42.7635 604.953 43.9022 603.972 45.3488 603.299C46.7954 602.626 48.4497 602.289 50.3117 602.289C52.1737 602.289 53.828 602.626 55.2746 603.299C56.7212 603.972 57.8527 604.953 58.6691 606.242C59.4999 607.517 59.9152 609.085 59.9152 610.947ZM54.7375 611.119C54.7375 610.188 54.5513 609.372 54.1789 608.67C53.8208 607.954 53.3124 607.395 52.6535 606.994C51.9947 606.593 51.2141 606.393 50.3117 606.393C49.4094 606.393 48.6288 606.586 47.9699 606.973C47.3111 607.359 46.8026 607.904 46.4445 608.605C46.0865 609.307 45.9074 610.145 45.9074 611.119C45.9074 612.079 46.0865 612.917 46.4445 613.633C46.8026 614.335 47.3111 614.886 47.9699 615.287C48.6431 615.688 49.4309 615.889 50.3332 615.889C51.2355 615.889 52.0161 615.688 52.675 615.287C53.3339 614.886 53.8423 614.335 54.2004 613.633C54.5585 612.917 54.7375 612.079 54.7375 611.119Z" fill="#407AEC"/>
<mask id="mask1_663_70997" style="mask-type:alpha" maskUnits="userSpaceOnUse" x="0" y="574" width="68" height="82">
<rect y="574" width="68" height="82" fill="url(#paint1_linear_663_70997)"/>
</mask>
<g mask="url(#mask1_663_70997)">
<g filter="url(#filter1_d_663_70997)">
<path d="M0 574H40L0 654V654V574Z" fill="white"/>
</g>
</g>
<path d="M31.5 930.611V962H26.3223V936.756L18.6523 939.355V935.08L30.877 930.611H31.5ZM61.1398 957.875V962H40.1711V958.455L50.3547 947.348C51.4719 946.087 52.3527 944.999 52.9973 944.082C53.6418 943.165 54.093 942.342 54.3508 941.611C54.6229 940.867 54.759 940.143 54.759 939.441C54.759 938.453 54.5728 937.587 54.2004 936.842C53.8423 936.083 53.3124 935.488 52.6105 935.059C51.9087 934.615 51.0565 934.393 50.0539 934.393C48.8937 934.393 47.9198 934.643 47.132 935.145C46.3443 935.646 45.7499 936.34 45.3488 937.229C44.9478 938.102 44.7473 939.105 44.7473 940.236H39.5695C39.5695 938.417 39.9849 936.756 40.8156 935.252C41.6464 933.734 42.8495 932.531 44.425 931.643C46.0005 930.74 47.8983 930.289 50.1184 930.289C52.2095 930.289 53.9855 930.64 55.4465 931.342C56.9074 932.044 58.0174 933.039 58.7766 934.328C59.55 935.617 59.9367 937.143 59.9367 938.904C59.9367 939.878 59.7792 940.845 59.4641 941.805C59.149 942.764 58.6978 943.724 58.1105 944.684C57.5376 945.629 56.8573 946.581 56.0695 947.541C55.2818 948.486 54.4152 949.446 53.4699 950.42L46.7023 957.875H61.1398Z" fill="#407AEC"/>
<mask id="mask2_663_70997" style="mask-type:alpha" maskUnits="userSpaceOnUse" x="0" y="902" width="68" height="82">
<rect y="902" width="68" height="82" fill="url(#paint2_linear_663_70997)"/>
</mask>
<g mask="url(#mask2_663_70997)">
<g filter="url(#filter2_d_663_70997)">
<path d="M0 902H40L0 982V982V902Z" fill="white"/>
</g>
</g>
<path d="M31.5 848.611V880H26.3223V854.756L18.6523 857.355V853.08L30.877 848.611H31.5ZM54.3078 848.611V880H49.1301V854.756L41.4602 857.355V853.08L53.6848 848.611H54.3078Z" fill="#4E16ED"/>
<mask id="mask3_663_70997" style="mask-type:alpha" maskUnits="userSpaceOnUse" x="0" y="820" width="68" height="82">
<rect y="820" width="68" height="82" fill="url(#paint3_linear_663_70997)"/>
</mask>
<g mask="url(#mask3_663_70997)">
<g filter="url(#filter3_d_663_70997)">
<path d="M0 820H40L0 900V900V820Z" fill="white"/>
</g>
</g>
<path d="M31.5 766.611V798H26.3223V772.756L18.6523 775.355V771.08L30.877 766.611H31.5ZM60.5598 779.738V784.852C60.5598 787.301 60.3163 789.392 59.8293 791.125C59.3566 792.844 58.6691 794.24 57.7668 795.314C56.8645 796.389 55.7831 797.176 54.5227 797.678C53.2766 798.179 51.8801 798.43 50.3332 798.43C49.1014 798.43 47.9556 798.272 46.8957 797.957C45.8501 797.642 44.9048 797.148 44.0598 796.475C43.2147 795.801 42.4914 794.935 41.8898 793.875C41.3026 792.801 40.8443 791.519 40.5148 790.029C40.1997 788.54 40.0422 786.814 40.0422 784.852V779.738C40.0422 777.275 40.2857 775.198 40.7727 773.508C41.2596 771.803 41.9543 770.421 42.8566 769.361C43.759 768.287 44.8332 767.507 46.0793 767.02C47.3397 766.533 48.7434 766.289 50.2902 766.289C51.5363 766.289 52.6822 766.447 53.7277 766.762C54.7876 767.062 55.7329 767.542 56.5637 768.201C57.4087 768.86 58.1249 769.719 58.7121 770.779C59.3137 771.825 59.772 773.092 60.0871 774.582C60.4022 776.057 60.5598 777.776 60.5598 779.738ZM55.382 785.582V778.965C55.382 777.719 55.3104 776.623 55.1672 775.678C55.024 774.718 54.8091 773.909 54.5227 773.25C54.2505 772.577 53.9068 772.033 53.4914 771.617C53.076 771.188 52.6034 770.88 52.0734 770.693C51.5435 770.493 50.9491 770.393 50.2902 770.393C49.4882 770.393 48.772 770.55 48.1418 770.865C47.5116 771.166 46.9816 771.653 46.552 772.326C46.1223 772.999 45.7928 773.887 45.5637 774.99C45.3488 776.079 45.2414 777.404 45.2414 778.965V785.582C45.2414 786.842 45.313 787.952 45.4562 788.912C45.5995 789.872 45.8143 790.695 46.1008 791.383C46.3872 792.056 46.731 792.615 47.132 793.059C47.5474 793.488 48.0201 793.803 48.55 794.004C49.0943 794.204 49.6887 794.305 50.3332 794.305C51.1496 794.305 51.8729 794.147 52.5031 793.832C53.1333 793.517 53.6633 793.016 54.093 792.328C54.5227 791.626 54.8449 790.717 55.0598 789.6C55.2746 788.482 55.382 787.143 55.382 785.582Z" fill="#407AEC"/>
<mask id="mask4_663_70997" style="mask-type:alpha" maskUnits="userSpaceOnUse" x="0" y="738" width="68" height="82">
<rect y="738" width="68" height="82" fill="url(#paint4_linear_663_70997)"/>
</mask>
<g mask="url(#mask4_663_70997)">
<g filter="url(#filter4_d_663_70997)">
<path d="M0 738H40L0 818V818V738Z" fill="white"/>
</g>
</g>
<g clip-path="url(#clip0_663_70997)">
<path d="M37.752 533.738V538.852C37.752 541.301 37.5085 543.392 37.0215 545.125C36.5488 546.844 35.8613 548.24 34.959 549.314C34.0566 550.389 32.9753 551.176 31.7148 551.678C30.4688 552.179 29.0723 552.43 27.5254 552.43C26.2936 552.43 25.1478 552.272 24.0879 551.957C23.0423 551.642 22.097 551.148 21.252 550.475C20.4069 549.801 19.6836 548.935 19.082 547.875C18.4948 546.801 18.0365 545.519 17.707 544.029C17.3919 542.54 17.2344 540.814 17.2344 538.852V533.738C17.2344 531.275 17.4779 529.198 17.9648 527.508C18.4518 525.803 19.1465 524.421 20.0488 523.361C20.9512 522.287 22.0254 521.507 23.2715 521.02C24.5319 520.533 25.9355 520.289 27.4824 520.289C28.7285 520.289 29.8743 520.447 30.9199 520.762C31.9798 521.062 32.9251 521.542 33.7559 522.201C34.6009 522.86 35.3171 523.719 35.9043 524.779C36.5059 525.825 36.9642 527.092 37.2793 528.582C37.5944 530.057 37.752 531.776 37.752 533.738ZM32.5742 539.582V532.965C32.5742 531.719 32.5026 530.623 32.3594 529.678C32.2161 528.718 32.0013 527.909 31.7148 527.25C31.4427 526.577 31.099 526.033 30.6836 525.617C30.2682 525.188 29.7956 524.88 29.2656 524.693C28.7357 524.493 28.1413 524.393 27.4824 524.393C26.6803 524.393 25.9642 524.55 25.334 524.865C24.7038 525.166 24.1738 525.653 23.7441 526.326C23.3145 526.999 22.985 527.887 22.7559 528.99C22.541 530.079 22.4336 531.404 22.4336 532.965V539.582C22.4336 540.842 22.5052 541.952 22.6484 542.912C22.7917 543.872 23.0065 544.695 23.293 545.383C23.5794 546.056 23.9232 546.615 24.3242 547.059C24.7396 547.488 25.2122 547.803 25.7422 548.004C26.2865 548.204 26.8809 548.305 27.5254 548.305C28.3418 548.305 29.0651 548.147 29.6953 547.832C30.3255 547.517 30.8555 547.016 31.2852 546.328C31.7148 545.626 32.0371 544.717 32.252 543.6C32.4668 542.482 32.5742 541.143 32.5742 539.582ZM60.9465 520.719V523.555L48.4426 552H42.9855L55.468 524.844H39.2687V520.719H60.9465Z" fill="#4E16ED"/>
<mask id="mask5_663_70997" style="mask-type:alpha" maskUnits="userSpaceOnUse" x="0" y="492" width="68" height="82">
<rect y="492" width="68" height="82" fill="url(#paint5_linear_663_70997)"/>
</mask>
<g mask="url(#mask5_663_70997)">
<g filter="url(#filter5_d_663_70997)">
<path d="M0 492H40L0 572V572V492Z" fill="white"/>
</g>
</g>
</g>
<g clip-path="url(#clip1_663_70997)">
<path d="M37.752 451.738V456.852C37.752 459.301 37.5085 461.392 37.0215 463.125C36.5488 464.844 35.8613 466.24 34.959 467.314C34.0566 468.389 32.9753 469.176 31.7148 469.678C30.4688 470.179 29.0723 470.43 27.5254 470.43C26.2936 470.43 25.1478 470.272 24.0879 469.957C23.0423 469.642 22.097 469.148 21.252 468.475C20.4069 467.801 19.6836 466.935 19.082 465.875C18.4948 464.801 18.0365 463.519 17.707 462.029C17.3919 460.54 17.2344 458.814 17.2344 456.852V451.738C17.2344 449.275 17.4779 447.198 17.9648 445.508C18.4518 443.803 19.1465 442.421 20.0488 441.361C20.9512 440.287 22.0254 439.507 23.2715 439.02C24.5319 438.533 25.9355 438.289 27.4824 438.289C28.7285 438.289 29.8743 438.447 30.9199 438.762C31.9798 439.062 32.9251 439.542 33.7559 440.201C34.6009 440.86 35.3171 441.719 35.9043 442.779C36.5059 443.825 36.9642 445.092 37.2793 446.582C37.5944 448.057 37.752 449.776 37.752 451.738ZM32.5742 457.582V450.965C32.5742 449.719 32.5026 448.623 32.3594 447.678C32.2161 446.718 32.0013 445.909 31.7148 445.25C31.4427 444.577 31.099 444.033 30.6836 443.617C30.2682 443.188 29.7956 442.88 29.2656 442.693C28.7357 442.493 28.1413 442.393 27.4824 442.393C26.6803 442.393 25.9642 442.55 25.334 442.865C24.7038 443.166 24.1738 443.653 23.7441 444.326C23.3145 444.999 22.985 445.887 22.7559 446.99C22.541 448.079 22.4336 449.404 22.4336 450.965V457.582C22.4336 458.842 22.5052 459.952 22.6484 460.912C22.7917 461.872 23.0065 462.695 23.293 463.383C23.5794 464.056 23.9232 464.615 24.3242 465.059C24.7396 465.488 25.2122 465.803 25.7422 466.004C26.2865 466.204 26.8809 466.305 27.5254 466.305C28.3418 466.305 29.0651 466.147 29.6953 465.832C30.3255 465.517 30.8555 465.016 31.2852 464.328C31.7148 463.626 32.0371 462.717 32.252 461.6C32.4668 460.482 32.5742 459.143 32.5742 457.582ZM55.8117 438.525H56.4562V442.758H56.091C54.2434 442.758 52.6464 443.044 51.3 443.617C49.968 444.19 48.8723 444.978 48.0129 445.98C47.1535 446.983 46.509 448.158 46.0793 449.504C45.6639 450.836 45.4562 452.254 45.4562 453.758V458.678C45.4562 459.924 45.5923 461.027 45.8645 461.986C46.1366 462.932 46.5161 463.727 47.0031 464.371C47.5044 465.001 48.0773 465.481 48.7219 465.811C49.3664 466.14 50.0611 466.305 50.8059 466.305C51.5793 466.305 52.2811 466.147 52.9113 465.832C53.5415 465.503 54.0786 465.051 54.5227 464.479C54.9667 463.906 55.3033 463.225 55.5324 462.438C55.7616 461.65 55.8762 460.79 55.8762 459.859C55.8762 458.971 55.7616 458.141 55.5324 457.367C55.3176 456.579 54.9953 455.892 54.5656 455.305C54.1359 454.703 53.5988 454.238 52.9543 453.908C52.3241 453.564 51.5936 453.393 50.7629 453.393C49.7316 453.393 48.7935 453.636 47.9484 454.123C47.1177 454.61 46.4445 455.247 45.9289 456.035C45.4276 456.809 45.1555 457.632 45.1125 458.506L43.1359 457.861C43.2505 456.529 43.5441 455.333 44.0168 454.273C44.5038 453.214 45.1411 452.311 45.9289 451.566C46.7167 450.822 47.6262 450.256 48.6574 449.869C49.703 449.468 50.8488 449.268 52.0949 449.268C53.6132 449.268 54.9309 449.554 56.048 450.127C57.1652 450.7 58.0891 451.48 58.8195 452.469C59.5643 453.443 60.1158 454.56 60.4738 455.82C60.8462 457.066 61.0324 458.37 61.0324 459.73C61.0324 461.234 60.8033 462.638 60.3449 463.941C59.8866 465.23 59.2134 466.362 58.3254 467.336C57.4517 468.31 56.3846 469.069 55.1242 469.613C53.8781 470.158 52.4602 470.43 50.8703 470.43C49.1945 470.43 47.6978 470.107 46.3801 469.463C45.0767 468.818 43.9667 467.93 43.05 466.799C42.1477 465.667 41.4602 464.364 40.9875 462.889C40.5148 461.413 40.2785 459.852 40.2785 458.205V456.057C40.2785 453.679 40.5793 451.438 41.1809 449.332C41.7824 447.212 42.7062 445.343 43.9523 443.725C45.2128 442.106 46.8241 440.839 48.7863 439.922C50.7486 438.991 53.0904 438.525 55.8117 438.525Z" fill="#407AEC"/>
<mask id="mask6_663_70997" style="mask-type:alpha" maskUnits="userSpaceOnUse" x="0" y="410" width="68" height="82">
<rect y="410" width="68" height="82" fill="url(#paint6_linear_663_70997)"/>
</mask>
<g mask="url(#mask6_663_70997)">
<g filter="url(#filter6_d_663_70997)">
<path d="M0 410H40L0 490V490V410Z" fill="white"/>
</g>
</g>
</g>
<g clip-path="url(#clip2_663_70997)">
<path d="M37.752 369.738V374.852C37.752 377.301 37.5085 379.392 37.0215 381.125C36.5488 382.844 35.8613 384.24 34.959 385.314C34.0566 386.389 32.9753 387.176 31.7148 387.678C30.4688 388.179 29.0723 388.43 27.5254 388.43C26.2936 388.43 25.1478 388.272 24.0879 387.957C23.0423 387.642 22.097 387.148 21.252 386.475C20.4069 385.801 19.6836 384.935 19.082 383.875C18.4948 382.801 18.0365 381.519 17.707 380.029C17.3919 378.54 17.2344 376.814 17.2344 374.852V369.738C17.2344 367.275 17.4779 365.198 17.9648 363.508C18.4518 361.803 19.1465 360.421 20.0488 359.361C20.9512 358.287 22.0254 357.507 23.2715 357.02C24.5319 356.533 25.9355 356.289 27.4824 356.289C28.7285 356.289 29.8743 356.447 30.9199 356.762C31.9798 357.062 32.9251 357.542 33.7559 358.201C34.6009 358.86 35.3171 359.719 35.9043 360.779C36.5059 361.825 36.9642 363.092 37.2793 364.582C37.5944 366.057 37.752 367.776 37.752 369.738ZM32.5742 375.582V368.965C32.5742 367.719 32.5026 366.623 32.3594 365.678C32.2161 364.718 32.0013 363.909 31.7148 363.25C31.4427 362.577 31.099 362.033 30.6836 361.617C30.2682 361.188 29.7956 360.88 29.2656 360.693C28.7357 360.493 28.1413 360.393 27.4824 360.393C26.6803 360.393 25.9642 360.55 25.334 360.865C24.7038 361.166 24.1738 361.653 23.7441 362.326C23.3145 362.999 22.985 363.887 22.7559 364.99C22.541 366.079 22.4336 367.404 22.4336 368.965V375.582C22.4336 376.842 22.5052 377.952 22.6484 378.912C22.7917 379.872 23.0065 380.695 23.293 381.383C23.5794 382.056 23.9232 382.615 24.3242 383.059C24.7396 383.488 25.2122 383.803 25.7422 384.004C26.2865 384.204 26.8809 384.305 27.5254 384.305C28.3418 384.305 29.0651 384.147 29.6953 383.832C30.3255 383.517 30.8555 383.016 31.2852 382.328C31.7148 381.626 32.0371 380.717 32.252 379.6C32.4668 378.482 32.5742 377.143 32.5742 375.582ZM45.6066 373.455L41.4816 372.445L43.1789 356.719H60.0441V361.102H47.4758L46.6164 368.771C47.1034 368.485 47.7766 368.206 48.6359 367.934C49.4953 367.647 50.4764 367.504 51.5793 367.504C53.0546 367.504 54.3723 367.747 55.5324 368.234C56.7069 368.707 57.7023 369.402 58.5187 370.318C59.3352 371.221 59.9582 372.324 60.3879 373.627C60.8176 374.916 61.0324 376.37 61.0324 377.988C61.0324 379.435 60.8176 380.788 60.3879 382.049C59.9725 383.309 59.3423 384.419 58.4973 385.379C57.6522 386.339 56.5852 387.09 55.2961 387.635C54.0214 388.165 52.5103 388.43 50.7629 388.43C49.4595 388.43 48.2062 388.243 47.0031 387.871C45.8143 387.484 44.7473 386.919 43.802 386.174C42.8566 385.415 42.0975 384.484 41.5246 383.381C40.9517 382.264 40.6223 380.982 40.5363 379.535H45.6066C45.7355 380.552 46.0148 381.419 46.4445 382.135C46.8885 382.837 47.4758 383.374 48.2062 383.746C48.9367 384.118 49.7818 384.305 50.7414 384.305C51.6151 384.305 52.3671 384.154 52.9973 383.854C53.6275 383.538 54.1503 383.094 54.5656 382.521C54.9953 381.934 55.3104 381.247 55.5109 380.459C55.7258 379.671 55.8332 378.798 55.8332 377.838C55.8332 376.921 55.7115 376.083 55.468 375.324C55.2388 374.565 54.8879 373.906 54.4152 373.348C53.9569 372.789 53.3768 372.359 52.675 372.059C51.9732 371.743 51.1639 371.586 50.2473 371.586C49.0155 371.586 48.0702 371.765 47.4113 372.123C46.7668 372.481 46.1652 372.925 45.6066 373.455Z" fill="#4E16ED"/>
<mask id="mask7_663_70997" style="mask-type:alpha" maskUnits="userSpaceOnUse" x="0" y="328" width="68" height="82">
<rect y="328" width="68" height="82" fill="url(#paint7_linear_663_70997)"/>
</mask>
<g mask="url(#mask7_663_70997)">
<g filter="url(#filter7_d_663_70997)">
<path d="M0 328H40L0 408V408V328Z" fill="white"/>
</g>
</g>
</g>
<g clip-path="url(#clip3_663_70997)">
<path d="M37.752 287.738V292.852C37.752 295.301 37.5085 297.392 37.0215 299.125C36.5488 300.844 35.8613 302.24 34.959 303.314C34.0566 304.389 32.9753 305.176 31.7148 305.678C30.4688 306.179 29.0723 306.43 27.5254 306.43C26.2936 306.43 25.1478 306.272 24.0879 305.957C23.0423 305.642 22.097 305.148 21.252 304.475C20.4069 303.801 19.6836 302.935 19.082 301.875C18.4948 300.801 18.0365 299.519 17.707 298.029C17.3919 296.54 17.2344 294.814 17.2344 292.852V287.738C17.2344 285.275 17.4779 283.198 17.9648 281.508C18.4518 279.803 19.1465 278.421 20.0488 277.361C20.9512 276.287 22.0254 275.507 23.2715 275.02C24.5319 274.533 25.9355 274.289 27.4824 274.289C28.7285 274.289 29.8743 274.447 30.9199 274.762C31.9798 275.062 32.9251 275.542 33.7559 276.201C34.6009 276.86 35.3171 277.719 35.9043 278.779C36.5059 279.825 36.9642 281.092 37.2793 282.582C37.5944 284.057 37.752 285.776 37.752 287.738ZM32.5742 293.582V286.965C32.5742 285.719 32.5026 284.623 32.3594 283.678C32.2161 282.718 32.0013 281.909 31.7148 281.25C31.4427 280.577 31.099 280.033 30.6836 279.617C30.2682 279.188 29.7956 278.88 29.2656 278.693C28.7357 278.493 28.1413 278.393 27.4824 278.393C26.6803 278.393 25.9642 278.55 25.334 278.865C24.7038 279.166 24.1738 279.653 23.7441 280.326C23.3145 280.999 22.985 281.887 22.7559 282.99C22.541 284.079 22.4336 285.404 22.4336 286.965V293.582C22.4336 294.842 22.5052 295.952 22.6484 296.912C22.7917 297.872 23.0065 298.695 23.293 299.383C23.5794 300.056 23.9232 300.615 24.3242 301.059C24.7396 301.488 25.2122 301.803 25.7422 302.004C26.2865 302.204 26.8809 302.305 27.5254 302.305C28.3418 302.305 29.0651 302.147 29.6953 301.832C30.3255 301.517 30.8555 301.016 31.2852 300.328C31.7148 299.626 32.0371 298.717 32.252 297.6C32.4668 296.482 32.5742 295.143 32.5742 293.582ZM61.7199 294.85V298.975H39.1613L38.9895 295.859L52.4816 274.719H56.6281L52.1379 282.41L44.382 294.85H61.7199ZM57.8098 274.719V306H52.632V274.719H57.8098Z" fill="#407AEC"/>
<mask id="mask8_663_70997" style="mask-type:alpha" maskUnits="userSpaceOnUse" x="0" y="246" width="68" height="82">
<rect y="246" width="68" height="82" fill="url(#paint8_linear_663_70997)"/>
</mask>
<g mask="url(#mask8_663_70997)">
<g filter="url(#filter8_d_663_70997)">
<path d="M0 246H40L0 326V326V246Z" fill="white"/>
</g>
</g>
</g>
<g clip-path="url(#clip4_663_70997)">
<path d="M37.752 205.738V210.852C37.752 213.301 37.5085 215.392 37.0215 217.125C36.5488 218.844 35.8613 220.24 34.959 221.314C34.0566 222.389 32.9753 223.176 31.7148 223.678C30.4688 224.179 29.0723 224.43 27.5254 224.43C26.2936 224.43 25.1478 224.272 24.0879 223.957C23.0423 223.642 22.097 223.148 21.252 222.475C20.4069 221.801 19.6836 220.935 19.082 219.875C18.4948 218.801 18.0365 217.519 17.707 216.029C17.3919 214.54 17.2344 212.814 17.2344 210.852V205.738C17.2344 203.275 17.4779 201.198 17.9648 199.508C18.4518 197.803 19.1465 196.421 20.0488 195.361C20.9512 194.287 22.0254 193.507 23.2715 193.02C24.5319 192.533 25.9355 192.289 27.4824 192.289C28.7285 192.289 29.8743 192.447 30.9199 192.762C31.9798 193.062 32.9251 193.542 33.7559 194.201C34.6009 194.86 35.3171 195.719 35.9043 196.779C36.5059 197.825 36.9642 199.092 37.2793 200.582C37.5944 202.057 37.752 203.776 37.752 205.738ZM32.5742 211.582V204.965C32.5742 203.719 32.5026 202.623 32.3594 201.678C32.2161 200.718 32.0013 199.909 31.7148 199.25C31.4427 198.577 31.099 198.033 30.6836 197.617C30.2682 197.188 29.7956 196.88 29.2656 196.693C28.7357 196.493 28.1413 196.393 27.4824 196.393C26.6803 196.393 25.9642 196.55 25.334 196.865C24.7038 197.166 24.1738 197.653 23.7441 198.326C23.3145 198.999 22.985 199.887 22.7559 200.99C22.541 202.079 22.4336 203.404 22.4336 204.965V211.582C22.4336 212.842 22.5052 213.952 22.6484 214.912C22.7917 215.872 23.0065 216.695 23.293 217.383C23.5794 218.056 23.9232 218.615 24.3242 219.059C24.7396 219.488 25.2122 219.803 25.7422 220.004C26.2865 220.204 26.8809 220.305 27.5254 220.305C28.3418 220.305 29.0651 220.147 29.6953 219.832C30.3255 219.517 30.8555 219.016 31.2852 218.328C31.7148 217.626 32.0371 216.717 32.252 215.6C32.4668 214.482 32.5742 213.143 32.5742 211.582ZM46.2512 206.018H49.3449C50.548 206.018 51.5435 205.81 52.3312 205.395C53.1333 204.979 53.7277 204.406 54.1145 203.676C54.5012 202.945 54.6945 202.107 54.6945 201.162C54.6945 200.174 54.5155 199.329 54.1574 198.627C53.8137 197.911 53.2837 197.359 52.5676 196.973C51.8658 196.586 50.9706 196.393 49.882 196.393C48.9654 196.393 48.1346 196.579 47.3898 196.951C46.6594 197.309 46.0793 197.825 45.6496 198.498C45.2199 199.157 45.0051 199.945 45.0051 200.861H39.8059C39.8059 199.2 40.2427 197.725 41.1164 196.436C41.9901 195.146 43.1789 194.137 44.6828 193.406C46.201 192.661 47.9055 192.289 49.7961 192.289C51.8156 192.289 53.5773 192.626 55.0812 193.299C56.5995 193.958 57.7811 194.946 58.6262 196.264C59.4712 197.581 59.8937 199.214 59.8937 201.162C59.8937 202.05 59.6861 202.952 59.2707 203.869C58.8553 204.786 58.2395 205.624 57.423 206.383C56.6066 207.128 55.5897 207.736 54.3723 208.209C53.1548 208.667 51.744 208.896 50.1398 208.896H46.2512V206.018ZM46.2512 210.057V207.221H50.1398C51.9732 207.221 53.5344 207.436 54.8234 207.865C56.1268 208.295 57.1867 208.889 58.0031 209.648C58.8195 210.393 59.4139 211.245 59.7863 212.205C60.173 213.165 60.3664 214.182 60.3664 215.256C60.3664 216.717 60.1014 218.02 59.5715 219.166C59.0559 220.298 58.3182 221.257 57.3586 222.045C56.399 222.833 55.2746 223.427 53.9855 223.828C52.7108 224.229 51.3215 224.43 49.8176 224.43C48.4712 224.43 47.1822 224.243 45.9504 223.871C44.7186 223.499 43.6158 222.947 42.6418 222.217C41.6678 221.472 40.8944 220.548 40.3215 219.445C39.7629 218.328 39.4836 217.039 39.4836 215.578H44.6613C44.6613 216.509 44.8762 217.333 45.3059 218.049C45.7499 218.751 46.3658 219.302 47.1535 219.703C47.9556 220.104 48.8723 220.305 49.9035 220.305C50.9921 220.305 51.9302 220.111 52.718 219.725C53.5057 219.338 54.1073 218.765 54.5227 218.006C54.9523 217.247 55.1672 216.33 55.1672 215.256C55.1672 214.038 54.9309 213.05 54.4582 212.291C53.9855 211.532 53.3124 210.973 52.4387 210.615C51.565 210.243 50.5337 210.057 49.3449 210.057H46.2512Z" fill="#4E16ED"/>
<mask id="mask9_663_70997" style="mask-type:alpha" maskUnits="userSpaceOnUse" x="0" y="164" width="68" height="82">
<rect y="164" width="68" height="82" fill="url(#paint9_linear_663_70997)"/>
</mask>
<g mask="url(#mask9_663_70997)">
<g filter="url(#filter9_d_663_70997)">
<path d="M0 164H40L0 244V244V164Z" fill="white"/>
</g>
</g>
</g>
<g clip-path="url(#clip5_663_70997)">
<path d="M37.752 123.738V128.852C37.752 131.301 37.5085 133.392 37.0215 135.125C36.5488 136.844 35.8613 138.24 34.959 139.314C34.0566 140.389 32.9753 141.176 31.7148 141.678C30.4688 142.179 29.0723 142.43 27.5254 142.43C26.2936 142.43 25.1478 142.272 24.0879 141.957C23.0423 141.642 22.097 141.148 21.252 140.475C20.4069 139.801 19.6836 138.935 19.082 137.875C18.4948 136.801 18.0365 135.519 17.707 134.029C17.3919 132.54 17.2344 130.814 17.2344 128.852V123.738C17.2344 121.275 17.4779 119.198 17.9648 117.508C18.4518 115.803 19.1465 114.421 20.0488 113.361C20.9512 112.287 22.0254 111.507 23.2715 111.02C24.5319 110.533 25.9355 110.289 27.4824 110.289C28.7285 110.289 29.8743 110.447 30.9199 110.762C31.9798 111.062 32.9251 111.542 33.7559 112.201C34.6009 112.86 35.3171 113.719 35.9043 114.779C36.5059 115.825 36.9642 117.092 37.2793 118.582C37.5944 120.057 37.752 121.776 37.752 123.738ZM32.5742 129.582V122.965C32.5742 121.719 32.5026 120.623 32.3594 119.678C32.2161 118.718 32.0013 117.909 31.7148 117.25C31.4427 116.577 31.099 116.033 30.6836 115.617C30.2682 115.188 29.7956 114.88 29.2656 114.693C28.7357 114.493 28.1413 114.393 27.4824 114.393C26.6803 114.393 25.9642 114.55 25.334 114.865C24.7038 115.166 24.1738 115.653 23.7441 116.326C23.3145 116.999 22.985 117.887 22.7559 118.99C22.541 120.079 22.4336 121.404 22.4336 122.965V129.582C22.4336 130.842 22.5052 131.952 22.6484 132.912C22.7917 133.872 23.0065 134.695 23.293 135.383C23.5794 136.056 23.9232 136.615 24.3242 137.059C24.7396 137.488 25.2122 137.803 25.7422 138.004C26.2865 138.204 26.8809 138.305 27.5254 138.305C28.3418 138.305 29.0651 138.147 29.6953 137.832C30.3255 137.517 30.8555 137.016 31.2852 136.328C31.7148 135.626 32.0371 134.717 32.252 133.6C32.4668 132.482 32.5742 131.143 32.5742 129.582ZM61.1398 137.875V142H40.1711V138.455L50.3547 127.348C51.4719 126.087 52.3527 124.999 52.9973 124.082C53.6418 123.165 54.093 122.342 54.3508 121.611C54.6229 120.867 54.759 120.143 54.759 119.441C54.759 118.453 54.5728 117.587 54.2004 116.842C53.8423 116.083 53.3124 115.488 52.6105 115.059C51.9087 114.615 51.0565 114.393 50.0539 114.393C48.8937 114.393 47.9198 114.643 47.132 115.145C46.3443 115.646 45.7499 116.34 45.3488 117.229C44.9478 118.102 44.7473 119.105 44.7473 120.236H39.5695C39.5695 118.417 39.9849 116.756 40.8156 115.252C41.6464 113.734 42.8495 112.531 44.425 111.643C46.0005 110.74 47.8983 110.289 50.1184 110.289C52.2095 110.289 53.9855 110.64 55.4465 111.342C56.9074 112.044 58.0174 113.039 58.7766 114.328C59.55 115.617 59.9367 117.143 59.9367 118.904C59.9367 119.878 59.7792 120.845 59.4641 121.805C59.149 122.764 58.6978 123.724 58.1105 124.684C57.5376 125.629 56.8573 126.581 56.0695 127.541C55.2818 128.486 54.4152 129.446 53.4699 130.42L46.7023 137.875H61.1398Z" fill="#407AEC"/>
<mask id="mask10_663_70997" style="mask-type:alpha" maskUnits="userSpaceOnUse" x="0" y="82" width="68" height="82">
<rect y="82" width="68" height="82" fill="url(#paint10_linear_663_70997)"/>
</mask>
<g mask="url(#mask10_663_70997)">
<g filter="url(#filter10_d_663_70997)">
<path d="M0 82H40L0 162V162V82Z" fill="white"/>
</g>
</g>
</g>
<g clip-path="url(#clip6_663_70997)">
<path d="M37.752 41.7383V46.8516C37.752 49.3008 37.5085 51.3919 37.0215 53.125C36.5488 54.8438 35.8613 56.2402 34.959 57.3145C34.0566 58.3887 32.9753 59.1764 31.7148 59.6777C30.4688 60.179 29.0723 60.4297 27.5254 60.4297C26.2936 60.4297 25.1478 60.2721 24.0879 59.957C23.0423 59.6419 22.097 59.1478 21.252 58.4746C20.4069 57.8014 19.6836 56.9349 19.082 55.875C18.4948 54.8008 18.0365 53.5189 17.707 52.0293C17.3919 50.5397 17.2344 48.8138 17.2344 46.8516V41.7383C17.2344 39.2747 17.4779 37.1979 17.9648 35.5078C18.4518 33.8034 19.1465 32.4212 20.0488 31.3613C20.9512 30.2871 22.0254 29.5065 23.2715 29.0195C24.5319 28.5326 25.9355 28.2891 27.4824 28.2891C28.7285 28.2891 29.8743 28.4466 30.9199 28.7617C31.9798 29.0625 32.9251 29.5423 33.7559 30.2012C34.6009 30.86 35.3171 31.7194 35.9043 32.7793C36.5059 33.8249 36.9642 35.0924 37.2793 36.582C37.5944 38.0573 37.752 39.776 37.752 41.7383ZM32.5742 47.582V40.9648C32.5742 39.7188 32.5026 38.623 32.3594 37.6777C32.2161 36.7181 32.0013 35.9089 31.7148 35.25C31.4427 34.5768 31.099 34.0326 30.6836 33.6172C30.2682 33.1875 29.7956 32.8796 29.2656 32.6934C28.7357 32.4928 28.1413 32.3926 27.4824 32.3926C26.6803 32.3926 25.9642 32.5501 25.334 32.8652C24.7038 33.166 24.1738 33.653 23.7441 34.3262C23.3145 34.9993 22.985 35.8874 22.7559 36.9902C22.541 38.0788 22.4336 39.4036 22.4336 40.9648V47.582C22.4336 48.8424 22.5052 49.9525 22.6484 50.9121C22.7917 51.8717 23.0065 52.6953 23.293 53.3828C23.5794 54.056 23.9232 54.6146 24.3242 55.0586C24.7396 55.4883 25.2122 55.8034 25.7422 56.0039C26.2865 56.2044 26.8809 56.3047 27.5254 56.3047C28.3418 56.3047 29.0651 56.1471 29.6953 55.832C30.3255 55.5169 30.8555 55.0156 31.2852 54.3281C31.7148 53.6263 32.0371 52.7168 32.252 51.5996C32.4668 50.4824 32.5742 49.1432 32.5742 47.582ZM54.3078 28.6113V60H49.1301V34.7559L41.4602 37.3555V33.0801L53.6848 28.6113H54.3078Z" fill="#4E16ED"/>
<mask id="mask11_663_70997" style="mask-type:alpha" maskUnits="userSpaceOnUse" x="0" y="0" width="68" height="82">
<rect width="68" height="82" fill="url(#paint11_linear_663_70997)"/>
</mask>
<g mask="url(#mask11_663_70997)">
<g filter="url(#filter11_d_663_70997)">
<path d="M0 0H40L0 80V80V0Z" fill="white"/>
</g>
</g>
</g>
<defs>
<filter id="filter0_d_663_70997" x="-7" y="651" width="58" height="98" filterUnits="userSpaceOnUse" color-interpolation-filters="sRGB">
<feFlood flood-opacity="0" result="BackgroundImageFix"/>
<feColorMatrix in="SourceAlpha" type="matrix" values="0 0 0 0 0 0 0 0 0 0 0 0 0 0 0 0 0 0 127 0" result="hardAlpha"/>
<feOffset dx="2" dy="4"/>
<feGaussianBlur stdDeviation="4.5"/>
<feComposite in2="hardAlpha" operator="out"/>
<feColorMatrix type="matrix" values="0 0 0 0 0 0 0 0 0 0 0 0 0 0 0 0 0 0 0.23 0"/>
<feBlend mode="normal" in2="BackgroundImageFix" result="effect1_dropShadow_663_70997"/>
<feBlend mode="normal" in="SourceGraphic" in2="effect1_dropShadow_663_70997" result="shape"/>
</filter>
<filter id="filter1_d_663_70997" x="-7" y="569" width="58" height="98" filterUnits="userSpaceOnUse" color-interpolation-filters="sRGB">
<feFlood flood-opacity="0" result="BackgroundImageFix"/>
<feColorMatrix in="SourceAlpha" type="matrix" values="0 0 0 0 0 0 0 0 0 0 0 0 0 0 0 0 0 0 127 0" result="hardAlpha"/>
<feOffset dx="2" dy="4"/>
<feGaussianBlur stdDeviation="4.5"/>
<feComposite in2="hardAlpha" operator="out"/>
<feColorMatrix type="matrix" values="0 0 0 0 0 0 0 0 0 0 0 0 0 0 0 0 0 0 0.23 0"/>
<feBlend mode="normal" in2="BackgroundImageFix" result="effect1_dropShadow_663_70997"/>
<feBlend mode="normal" in="SourceGraphic" in2="effect1_dropShadow_663_70997" result="shape"/>
</filter>
<filter id="filter2_d_663_70997" x="-7" y="897" width="58" height="98" filterUnits="userSpaceOnUse" color-interpolation-filters="sRGB">
<feFlood flood-opacity="0" result="BackgroundImageFix"/>
<feColorMatrix in="SourceAlpha" type="matrix" values="0 0 0 0 0 0 0 0 0 0 0 0 0 0 0 0 0 0 127 0" result="hardAlpha"/>
<feOffset dx="2" dy="4"/>
<feGaussianBlur stdDeviation="4.5"/>
<feComposite in2="hardAlpha" operator="out"/>
<feColorMatrix type="matrix" values="0 0 0 0 0 0 0 0 0 0 0 0 0 0 0 0 0 0 0.23 0"/>
<feBlend mode="normal" in2="BackgroundImageFix" result="effect1_dropShadow_663_70997"/>
<feBlend mode="normal" in="SourceGraphic" in2="effect1_dropShadow_663_70997" result="shape"/>
</filter>
<filter id="filter3_d_663_70997" x="-7" y="815" width="58" height="98" filterUnits="userSpaceOnUse" color-interpolation-filters="sRGB">
<feFlood flood-opacity="0" result="BackgroundImageFix"/>
<feColorMatrix in="SourceAlpha" type="matrix" values="0 0 0 0 0 0 0 0 0 0 0 0 0 0 0 0 0 0 127 0" result="hardAlpha"/>
<feOffset dx="2" dy="4"/>
<feGaussianBlur stdDeviation="4.5"/>
<feComposite in2="hardAlpha" operator="out"/>
<feColorMatrix type="matrix" values="0 0 0 0 0 0 0 0 0 0 0 0 0 0 0 0 0 0 0.23 0"/>
<feBlend mode="normal" in2="BackgroundImageFix" result="effect1_dropShadow_663_70997"/>
<feBlend mode="normal" in="SourceGraphic" in2="effect1_dropShadow_663_70997" result="shape"/>
</filter>
<filter id="filter4_d_663_70997" x="-7" y="733" width="58" height="98" filterUnits="userSpaceOnUse" color-interpolation-filters="sRGB">
<feFlood flood-opacity="0" result="BackgroundImageFix"/>
<feColorMatrix in="SourceAlpha" type="matrix" values="0 0 0 0 0 0 0 0 0 0 0 0 0 0 0 0 0 0 127 0" result="hardAlpha"/>
<feOffset dx="2" dy="4"/>
<feGaussianBlur stdDeviation="4.5"/>
<feComposite in2="hardAlpha" operator="out"/>
<feColorMatrix type="matrix" values="0 0 0 0 0 0 0 0 0 0 0 0 0 0 0 0 0 0 0.23 0"/>
<feBlend mode="normal" in2="BackgroundImageFix" result="effect1_dropShadow_663_70997"/>
<feBlend mode="normal" in="SourceGraphic" in2="effect1_dropShadow_663_70997" result="shape"/>
</filter>
<filter id="filter5_d_663_70997" x="-7" y="487" width="58" height="98" filterUnits="userSpaceOnUse" color-interpolation-filters="sRGB">
<feFlood flood-opacity="0" result="BackgroundImageFix"/>
<feColorMatrix in="SourceAlpha" type="matrix" values="0 0 0 0 0 0 0 0 0 0 0 0 0 0 0 0 0 0 127 0" result="hardAlpha"/>
<feOffset dx="2" dy="4"/>
<feGaussianBlur stdDeviation="4.5"/>
<feComposite in2="hardAlpha" operator="out"/>
<feColorMatrix type="matrix" values="0 0 0 0 0 0 0 0 0 0 0 0 0 0 0 0 0 0 0.23 0"/>
<feBlend mode="normal" in2="BackgroundImageFix" result="effect1_dropShadow_663_70997"/>
<feBlend mode="normal" in="SourceGraphic" in2="effect1_dropShadow_663_70997" result="shape"/>
</filter>
<filter id="filter6_d_663_70997" x="-7" y="405" width="58" height="98" filterUnits="userSpaceOnUse" color-interpolation-filters="sRGB">
<feFlood flood-opacity="0" result="BackgroundImageFix"/>
<feColorMatrix in="SourceAlpha" type="matrix" values="0 0 0 0 0 0 0 0 0 0 0 0 0 0 0 0 0 0 127 0" result="hardAlpha"/>
<feOffset dx="2" dy="4"/>
<feGaussianBlur stdDeviation="4.5"/>
<feComposite in2="hardAlpha" operator="out"/>
<feColorMatrix type="matrix" values="0 0 0 0 0 0 0 0 0 0 0 0 0 0 0 0 0 0 0.23 0"/>
<feBlend mode="normal" in2="BackgroundImageFix" result="effect1_dropShadow_663_70997"/>
<feBlend mode="normal" in="SourceGraphic" in2="effect1_dropShadow_663_70997" result="shape"/>
</filter>
<filter id="filter7_d_663_70997" x="-7" y="323" width="58" height="98" filterUnits="userSpaceOnUse" color-interpolation-filters="sRGB">
<feFlood flood-opacity="0" result="BackgroundImageFix"/>
<feColorMatrix in="SourceAlpha" type="matrix" values="0 0 0 0 0 0 0 0 0 0 0 0 0 0 0 0 0 0 127 0" result="hardAlpha"/>
<feOffset dx="2" dy="4"/>
<feGaussianBlur stdDeviation="4.5"/>
<feComposite in2="hardAlpha" operator="out"/>
<feColorMatrix type="matrix" values="0 0 0 0 0 0 0 0 0 0 0 0 0 0 0 0 0 0 0.23 0"/>
<feBlend mode="normal" in2="BackgroundImageFix" result="effect1_dropShadow_663_70997"/>
<feBlend mode="normal" in="SourceGraphic" in2="effect1_dropShadow_663_70997" result="shape"/>
</filter>
<filter id="filter8_d_663_70997" x="-7" y="241" width="58" height="98" filterUnits="userSpaceOnUse" color-interpolation-filters="sRGB">
<feFlood flood-opacity="0" result="BackgroundImageFix"/>
<feColorMatrix in="SourceAlpha" type="matrix" values="0 0 0 0 0 0 0 0 0 0 0 0 0 0 0 0 0 0 127 0" result="hardAlpha"/>
<feOffset dx="2" dy="4"/>
<feGaussianBlur stdDeviation="4.5"/>
<feComposite in2="hardAlpha" operator="out"/>
<feColorMatrix type="matrix" values="0 0 0 0 0 0 0 0 0 0 0 0 0 0 0 0 0 0 0.23 0"/>
<feBlend mode="normal" in2="BackgroundImageFix" result="effect1_dropShadow_663_70997"/>
<feBlend mode="normal" in="SourceGraphic" in2="effect1_dropShadow_663_70997" result="shape"/>
</filter>
<filter id="filter9_d_663_70997" x="-7" y="159" width="58" height="98" filterUnits="userSpaceOnUse" color-interpolation-filters="sRGB">
<feFlood flood-opacity="0" result="BackgroundImageFix"/>
<feColorMatrix in="SourceAlpha" type="matrix" values="0 0 0 0 0 0 0 0 0 0 0 0 0 0 0 0 0 0 127 0" result="hardAlpha"/>
<feOffset dx="2" dy="4"/>
<feGaussianBlur stdDeviation="4.5"/>
<feComposite in2="hardAlpha" operator="out"/>
<feColorMatrix type="matrix" values="0 0 0 0 0 0 0 0 0 0 0 0 0 0 0 0 0 0 0.23 0"/>
<feBlend mode="normal" in2="BackgroundImageFix" result="effect1_dropShadow_663_70997"/>
<feBlend mode="normal" in="SourceGraphic" in2="effect1_dropShadow_663_70997" result="shape"/>
</filter>
<filter id="filter10_d_663_70997" x="-7" y="77" width="58" height="98" filterUnits="userSpaceOnUse" color-interpolation-filters="sRGB">
<feFlood flood-opacity="0" result="BackgroundImageFix"/>
<feColorMatrix in="SourceAlpha" type="matrix" values="0 0 0 0 0 0 0 0 0 0 0 0 0 0 0 0 0 0 127 0" result="hardAlpha"/>
<feOffset dx="2" dy="4"/>
<feGaussianBlur stdDeviation="4.5"/>
<feComposite in2="hardAlpha" operator="out"/>
<feColorMatrix type="matrix" values="0 0 0 0 0 0 0 0 0 0 0 0 0 0 0 0 0 0 0.23 0"/>
<feBlend mode="normal" in2="BackgroundImageFix" result="effect1_dropShadow_663_70997"/>
<feBlend mode="normal" in="SourceGraphic" in2="effect1_dropShadow_663_70997" result="shape"/>
</filter>
<filter id="filter11_d_663_70997" x="-7" y="-5" width="58" height="98" filterUnits="userSpaceOnUse" color-interpolation-filters="sRGB">
<feFlood flood-opacity="0" result="BackgroundImageFix"/>
<feColorMatrix in="SourceAlpha" type="matrix" values="0 0 0 0 0 0 0 0 0 0 0 0 0 0 0 0 0 0 127 0" result="hardAlpha"/>
<feOffset dx="2" dy="4"/>
<feGaussianBlur stdDeviation="4.5"/>
<feComposite in2="hardAlpha" operator="out"/>
<feColorMatrix type="matrix" values="0 0 0 0 0 0 0 0 0 0 0 0 0 0 0 0 0 0 0.23 0"/>
<feBlend mode="normal" in2="BackgroundImageFix" result="effect1_dropShadow_663_70997"/>
<feBlend mode="normal" in="SourceGraphic" in2="effect1_dropShadow_663_70997" result="shape"/>
</filter>
<linearGradient id="paint0_linear_663_70997" x1="34" y1="656" x2="34" y2="738" gradientUnits="userSpaceOnUse">
<stop offset="0.75"/>
<stop offset="1" stop-color="white" stop-opacity="0"/>
</linearGradient>
<linearGradient id="paint1_linear_663_70997" x1="34" y1="574" x2="34" y2="656" gradientUnits="userSpaceOnUse">
<stop offset="0.75"/>
<stop offset="1" stop-color="white" stop-opacity="0"/>
</linearGradient>
<linearGradient id="paint2_linear_663_70997" x1="34" y1="902" x2="34" y2="984" gradientUnits="userSpaceOnUse">
<stop offset="0.75"/>
<stop offset="1" stop-color="white" stop-opacity="0"/>
</linearGradient>
<linearGradient id="paint3_linear_663_70997" x1="34" y1="820" x2="34" y2="902" gradientUnits="userSpaceOnUse">
<stop offset="0.75"/>
<stop offset="1" stop-color="white" stop-opacity="0"/>
</linearGradient>
<linearGradient id="paint4_linear_663_70997" x1="34" y1="738" x2="34" y2="820" gradientUnits="userSpaceOnUse">
<stop offset="0.75"/>
<stop offset="1" stop-color="white" stop-opacity="0"/>
</linearGradient>
<linearGradient id="paint5_linear_663_70997" x1="34" y1="492" x2="34" y2="574" gradientUnits="userSpaceOnUse">
<stop offset="0.75"/>
<stop offset="1" stop-color="white" stop-opacity="0"/>
</linearGradient>
<linearGradient id="paint6_linear_663_70997" x1="34" y1="410" x2="34" y2="492" gradientUnits="userSpaceOnUse">
<stop offset="0.75"/>
<stop offset="1" stop-color="white" stop-opacity="0"/>
</linearGradient>
<linearGradient id="paint7_linear_663_70997" x1="34" y1="328" x2="34" y2="410" gradientUnits="userSpaceOnUse">
<stop offset="0.75"/>
<stop offset="1" stop-color="white" stop-opacity="0"/>
</linearGradient>
<linearGradient id="paint8_linear_663_70997" x1="34" y1="246" x2="34" y2="328" gradientUnits="userSpaceOnUse">
<stop offset="0.75"/>
<stop offset="1" stop-color="white" stop-opacity="0"/>
</linearGradient>
<linearGradient id="paint9_linear_663_70997" x1="34" y1="164" x2="34" y2="246" gradientUnits="userSpaceOnUse">
<stop offset="0.75"/>
<stop offset="1" stop-color="white" stop-opacity="0"/>
</linearGradient>
<linearGradient id="paint10_linear_663_70997" x1="34" y1="82" x2="34" y2="164" gradientUnits="userSpaceOnUse">
<stop offset="0.75"/>
<stop offset="1" stop-color="white" stop-opacity="0"/>
</linearGradient>
<linearGradient id="paint11_linear_663_70997" x1="34" y1="0" x2="34" y2="82" gradientUnits="userSpaceOnUse">
<stop offset="0.75"/>
<stop offset="1" stop-color="white" stop-opacity="0"/>
</linearGradient>
<clipPath id="clip0_663_70997">
<rect width="68" height="82" fill="white" transform="translate(0 492)"/>
</clipPath>
<clipPath id="clip1_663_70997">
<rect width="68" height="82" fill="white" transform="translate(0 410)"/>
</clipPath>
<clipPath id="clip2_663_70997">
<rect width="68" height="82" fill="white" transform="translate(0 328)"/>
</clipPath>
<clipPath id="clip3_663_70997">
<rect width="68" height="82" fill="white" transform="translate(0 246)"/>
</clipPath>
<clipPath id="clip4_663_70997">
<rect width="68" height="82" fill="white" transform="translate(0 164)"/>
</clipPath>
<clipPath id="clip5_663_70997">
<rect width="68" height="82" fill="white" transform="translate(0 82)"/>
</clipPath>
<clipPath id="clip6_663_70997">
<rect width="68" height="82" fill="white"/>
</clipPath>
</defs>
</svg>
