<svg width="210" height="47" viewBox="0 0 210 47" fill="none" xmlns="http://www.w3.org/2000/svg">
<path d="M38.7646 39.8405C30.3285 39.8405 23.4909 41.2398 23.4909 42.9629C23.4909 44.686 30.3285 46.0854 38.7646 46.0854C47.2008 46.0854 54.0384 44.686 54.0384 42.9629C54.0384 41.2398 47.1959 39.8405 38.7646 39.8405Z" fill="url(#paint0_radial_1272_74328)"/>
<path d="M37.181 11.8526C39.1431 6.60368 36.1003 0.981215 30.8215 0.159509C22.5945 -1.12036 18.979 7.84371 21.957 13.1325C25.0148 18.5657 32.3603 20.005 32.4151 28.4461C32.445 33.9789 27.6641 36.4142 24.4968 36.2847C22.6542 36.21 21.3694 35.3734 21.2847 33.7648C20.976 30.224 25.2787 29.5268 25.2787 29.5268C21.7977 29.4421 15.6075 30.2688 14.7559 35.6174C13.7499 41.9321 21.459 44.2129 27.5944 39.8255C33.8294 35.3684 34.8802 28.9142 32.4151 22.6245C31.3544 19.9203 28.6651 16.6285 27.0068 14.5668C25.6871 12.9283 24.6213 10.4881 25.717 8.20725C27.5496 4.38756 33.695 3.7551 35.672 8.32677C36.2597 9.68632 36.2099 11.006 36.1999 11.4542C36.195 11.7929 36.185 12.0668 36.2398 12.2361C36.3892 12.7341 36.9021 12.52 36.9967 12.3058C37.0963 12.0917 37.1063 12.0618 37.186 11.8427L37.181 11.8526Z" fill="url(#paint1_linear_1272_74328)"/>
<path d="M46.8473 0.0947746C44.6859 0.528038 42.0714 2.84874 42.0963 7.31085C42.0963 7.85367 42.2407 7.99809 42.3752 7.88853C42.425 7.84371 42.5146 7.68435 42.5146 7.68435C42.5146 7.68435 43.2019 6.17042 45.1441 5.06485C47.4897 3.7302 48.6002 4.67143 49.9996 3.30192C51.394 1.94735 49.8054 -0.51279 46.8473 0.0947746Z" fill="url(#paint2_linear_1272_74328)"/>
<path d="M50.5524 10.0648C50.5524 10.0648 51.2944 9.48212 50.6968 8.73014C49.6709 7.60465 47.2506 8.88452 46.3393 10.4433C46.3393 10.4433 46.2496 10.5877 46.2845 10.7022C46.3044 10.762 46.3692 10.7919 46.4987 10.8168C47.151 10.9363 47.5046 11.1753 48.2815 11.6285C49.0634 12.0817 50.398 13.1674 51.4687 12.2759C52.4896 11.4293 51.7376 10.0797 50.5624 10.0648H50.5524Z" fill="url(#paint3_linear_1272_74328)"/>
<path d="M21.6433 21.0807L21.6881 21.0458V21.0259L21.6433 21.0807Z" fill="#666666"/>
<path d="M7.93324 16.9472L7.9681 16.8526C7.95316 16.8875 7.9432 16.9173 7.93324 16.9472Z" fill="#666666"/>
<path d="M10.1095 16.8875C10.0498 16.7181 10.0298 16.6285 9.86052 16.5488C9.72605 16.4791 9.53681 16.4193 9.35753 16.4143C9.05873 16.4094 8.65535 16.5588 8.41132 16.7281C8.52089 16.4442 8.63045 16.1504 8.72507 15.8616C8.80475 15.6225 8.94419 15.4383 9.04877 15.2092C9.23303 14.8058 9.42227 14.4273 9.63143 14.0389C9.80574 13.7102 9.99498 13.4213 10.1344 13.0927C10.2639 12.7889 10.5029 12.5947 10.6573 12.2959C10.7121 12.2012 10.8715 12.0917 10.9163 11.9921C10.9611 11.9074 11.2549 11.5887 11.2499 11.509C11.1105 11.4542 10.7171 11.8875 10.6274 11.9771L10.6424 11.9323C10.5926 11.9921 10.4282 12.0917 10.3784 12.1514C10.234 12.3307 10.1095 12.52 9.97008 12.6943C9.80574 12.9084 9.71111 13.0628 9.53183 13.262C9.36251 13.4512 9.12845 13.7699 9.01391 13.999C8.85455 14.3227 8.71511 14.5717 8.52089 14.8705C8.35654 15.1195 8.25694 15.3536 8.13244 15.6126C7.98802 15.9064 7.8436 16.1803 7.77388 16.494C7.70416 16.7978 7.50496 17.0916 7.40038 17.3904C7.3207 17.6145 7.32568 17.8287 7.30078 18.0528C7.26094 18.4064 7.26094 18.7052 7.36552 19.0388C7.47508 19.3775 7.85356 19.6215 8.25196 19.5468C8.63045 19.4721 9.01391 19.1135 9.28781 18.8745C9.8157 18.4113 10.3237 17.51 10.1095 16.8924V16.8875ZM8.69519 18.4263C8.62049 18.5458 8.49598 18.7749 8.32168 18.8048C8.10256 18.8396 8.0428 18.6454 8.0179 18.5109C7.95316 18.1872 8.07268 17.8386 8.18722 17.51L8.22706 17.3904C8.23204 17.3606 8.24698 17.3307 8.26192 17.3008L8.22706 17.3904C8.18722 17.5448 8.25196 17.6345 8.45116 17.6245C8.58065 17.6195 8.76491 17.4851 8.86949 17.5199C9.17327 17.6195 8.79479 18.2769 8.69021 18.4313L8.69519 18.4263Z" fill="#666666"/>
<path d="M22.0616 21.9721C22.1911 21.8675 22.4749 21.7131 22.5447 21.9522C22.5696 22.0269 22.5048 22.1812 22.4749 22.251C22.45 22.3207 22.3405 22.4352 22.3455 22.5049C22.3554 22.5996 22.4849 22.6245 22.5546 22.6095C22.6742 22.5896 22.7489 22.5049 22.8385 22.4203C23.0228 22.241 23.0975 21.997 23.1921 21.7579C23.2568 21.5836 23.2668 21.3396 23.1224 21.2201C22.9979 21.1205 22.7489 21.0807 22.5945 21.0956C22.4451 21.1105 22.2359 21.2201 22.1463 21.3346C22.0267 21.2898 22.0666 21.2699 22.1014 21.1753C22.1214 21.1006 22.1014 21.0508 22.0168 21.0109C21.9321 20.9711 21.7728 20.9761 21.6881 21.0458C21.6632 21.1305 21.6582 21.2201 21.6433 21.3147C21.6084 21.499 21.5437 21.6832 21.4939 21.8625C21.4341 22.0717 21.3096 22.2808 21.205 22.4701C21.5785 22.8635 21.8275 22.1563 22.0616 21.9721Z" fill="#666666"/>
<path d="M6.29979 15.9064C6.05079 15.7171 5.63247 15.6922 5.3237 15.6723H5.21912C5.29382 15.5777 5.36852 15.4831 5.4482 15.3984C5.63247 15.1793 5.74203 14.8407 5.83167 14.5817C5.89143 14.4124 5.96613 14.258 5.98107 14.0787C6.01593 13.7052 5.93625 13.3168 5.69223 13.013C5.50796 12.7839 5.2241 12.5947 4.91036 12.5598C4.83566 12.5548 4.71116 12.5698 4.6265 12.5598C4.53686 12.5598 4.44224 12.5598 4.3526 12.5648C3.85459 12.6196 3.31177 12.9433 3.09763 13.3267C2.96316 13.5707 2.97811 13.9642 3.21715 14.1484C3.35161 14.253 3.60061 14.4024 3.78487 14.3924C3.93427 14.3924 4.09861 14.258 4.04383 14.1036C4.02391 14.0339 3.93427 13.9492 3.89941 13.8795C3.85957 13.7998 3.81475 13.7351 3.80479 13.6454C3.78985 13.4711 4.15837 13.2968 4.34264 13.252C4.58666 13.1923 4.99004 13.3317 5.13944 13.5309C5.19422 13.6106 5.2241 13.76 5.23406 13.8546C5.26394 14.2829 5.08466 14.7411 4.78586 15.0697C4.58666 15.2789 4.41734 15.498 4.21813 15.6823C4.16335 15.7321 4.11355 15.7769 4.05877 15.8217C3.85459 15.8914 3.66535 15.9562 3.46615 16.0558C3.35161 16.1106 3.23707 16.1653 3.13249 16.245C2.97811 16.3596 2.79384 16.3795 2.754 16.5787C2.72412 16.7231 2.79882 16.8277 2.93826 16.8725C3.05281 16.9123 3.13747 16.8825 3.24205 16.8625C3.30679 16.8476 3.34663 16.8625 3.41137 16.8327C3.54085 16.7779 3.66037 16.6733 3.78985 16.6086C3.94423 16.5388 4.10857 16.4791 4.26793 16.4193C4.62152 16.2948 5.10956 16.1653 5.49302 16.245C5.97111 16.3446 5.91135 17.0617 5.82171 17.3904C5.79183 17.495 5.78187 17.6295 5.71713 17.744C5.66235 17.8486 5.56274 17.9283 5.51294 18.0329C5.44322 18.1574 5.3984 18.2868 5.32868 18.4113C5.16932 18.6803 4.97012 18.9293 4.79582 19.1882C4.66136 19.3874 4.4771 19.5468 4.3028 19.7261C4.16335 19.8655 4.03885 20.0448 3.90439 20.1892C3.68029 20.4233 3.42133 20.6275 3.18727 20.8516C3.00301 21.0308 2.84862 21.2251 2.64942 21.3894C2.34066 21.6533 2.07174 21.9521 1.73808 22.1912C1.61855 22.2808 1.46915 22.3356 1.35959 22.4352C1.12055 22.6593 0.866569 22.8635 0.587687 23.0527C0.288885 23.247 0.0100026 23.476 4.25482e-05 23.8296C-0.00493749 24.1683 0.428326 24.233 0.732108 24.3226C1.02593 24.4123 1.31477 24.2529 1.55879 24.0886C1.7829 23.9392 1.97712 23.7549 2.20122 23.6055C2.27094 23.5557 2.35062 23.5308 2.42034 23.476C2.51496 23.3964 2.57472 23.2868 2.66436 23.1972C2.754 23.1075 2.86854 23.0478 2.96316 22.9681C3.09763 22.8535 3.24205 22.749 3.34663 22.6145C3.45121 22.485 3.57571 22.3904 3.68527 22.2609C3.86953 22.0468 4.10857 21.8774 4.29284 21.6583C4.56674 21.3396 4.83566 21.0109 5.08466 20.6723C5.34362 20.3237 5.54781 19.9551 5.79681 19.6065C5.99601 19.3277 6.11553 19.0089 6.27489 18.7151C6.34959 18.5757 6.43425 18.4412 6.50895 18.3018C6.68325 17.9781 6.71313 17.6145 6.75297 17.2659C6.76791 17.1364 6.78783 17.007 6.76293 16.8675C6.69819 16.499 6.63345 16.1554 6.30975 15.9064H6.29979Z" fill="#666666"/>
<path d="M11.3047 21.8077C11.0707 21.8775 10.8217 22.0866 10.5478 22.0567C10.4531 22.0468 10.3436 22.0069 10.2539 21.9721C10.0498 21.8924 10.0448 21.6982 10.0697 21.5438C10.0996 21.3745 10.1992 21.1653 10.2888 21.0159C10.3585 20.8914 10.478 20.7669 10.5776 20.6623C10.7768 20.4482 11.0059 20.254 11.2748 20.0996C11.6284 19.9004 12.1015 19.6265 12.5746 19.6514C12.734 19.6613 12.8635 19.7261 12.9581 19.8556C13.0029 19.9153 13.0627 20.1145 13.1424 20.1095L13.242 20.0846C13.2768 20.0498 13.2918 19.9452 13.3067 19.9004L13.3416 19.8008C13.3465 19.7609 13.3366 19.736 13.3465 19.6962C13.3665 19.6364 13.3665 19.5667 13.3316 19.507C13.3117 19.4721 13.2818 19.4173 13.227 19.3725C13.1125 19.2878 12.9581 19.248 12.8336 19.1882C12.7091 19.1285 12.5199 19.1484 12.3854 19.1534C12.1015 19.1733 11.8127 19.2281 11.5438 19.3127C10.1543 19.751 9.19817 20.8466 8.75495 21.9522C8.66033 22.1862 8.63044 22.485 8.79479 22.7191C8.96411 22.9581 9.29279 23.0029 9.59159 23.0428C9.81071 23.0677 10.1444 23.0527 10.3436 23.0029C10.5029 22.9631 10.6424 22.8984 10.7918 22.8486C10.9312 22.8037 10.996 22.729 11.1354 22.6643C11.3993 22.5298 11.6085 22.3755 11.6782 22.1265C11.6981 22.0418 11.7629 21.9024 11.7081 21.8277C11.6234 21.7131 11.4143 21.7928 11.3097 21.8227L11.3047 21.8077Z" fill="#666666"/>
<path d="M15.4929 22.0368C15.6672 21.8426 15.6672 22.1713 15.6274 22.2908C15.5328 22.5697 15.2639 22.6942 15.478 22.744C15.6075 22.7739 15.8017 22.5896 15.8664 22.5199C16.0059 22.3705 16.0557 22.2211 16.1403 22.0418C16.2101 21.8874 16.2848 21.7529 16.3146 21.5836C16.3395 21.4442 16.3545 21.2898 16.2648 21.1802C16.1652 21.0607 16.0109 21.0956 15.8764 21.1703C15.8216 21.2002 15.7569 21.23 15.7071 21.2749L15.6473 21.3496L15.6125 21.2649C15.5876 21.1802 15.5178 21.1653 15.4431 21.1105C15.2091 20.9611 14.97 21.1603 14.8107 21.3296C14.6414 21.2948 14.7061 20.7719 14.3973 20.996C14.2728 21.0856 14.3177 21.235 14.3376 21.3496C14.3774 21.6185 14.3077 21.8525 14.2031 22.1165C14.1683 22.2211 14.1334 22.3854 14.1583 22.5C14.2181 22.7739 14.472 22.3506 14.5418 22.2609C14.6065 22.1663 14.7061 22.0567 14.7708 21.9621C14.8306 21.8725 14.8057 21.8525 14.9252 21.8376C15.0696 21.8177 15.0647 22.0368 15.0149 22.1663C14.9601 22.3057 14.8356 22.6842 15.1095 22.5348C15.3186 22.4203 15.3585 22.2111 15.5079 22.0468L15.4929 22.0368Z" fill="#666666"/>
<path d="M20.8963 22.4402C20.961 22.3904 21.0009 22.0617 21.0058 21.9771C21.0158 21.7779 21.1303 21.23 20.9013 21.1155L20.8266 21.1454C20.7668 20.8366 20.0746 21.1653 19.9152 21.25C19.5865 21.4292 19.1881 21.8028 19.1084 22.1613C19.0188 22.5547 19.3475 22.7091 19.7011 22.6344C20.0397 22.5647 20.2339 22.3257 20.5228 22.1962C20.6373 22.231 20.7419 22.5498 20.8963 22.4402ZM20.2389 21.9522C20.1592 22.0119 19.8804 22.2211 19.8206 22.0269C19.7807 21.8924 20.0447 21.6982 20.1343 21.6484C20.2688 21.5737 20.458 21.6185 20.5477 21.4641L20.5327 21.4542H20.5576L20.5477 21.4641H20.5527C20.5825 21.5438 20.4829 21.6882 20.4431 21.748C20.3933 21.8227 20.3186 21.8924 20.2389 21.9522Z" fill="#666666"/>
<path d="M18.7001 21.1802C18.5357 21.0757 18.3465 21.0657 18.1573 21.0607L18.217 20.9761C18.2569 20.8864 18.4262 20.6573 18.1622 20.7022C17.9581 20.737 18.0128 20.6872 17.8435 20.7719L17.8136 20.7818C17.6393 20.7968 17.5348 20.9312 17.4302 21.0458C17.1911 21.0657 16.7927 21.1105 16.8176 21.2002C16.8276 21.245 16.982 21.3147 17.0218 21.3346C17.0666 21.3545 17.1115 21.3645 17.1563 21.3695C17.0218 21.5488 16.8923 21.738 16.7927 21.8974C16.7081 22.0269 16.6881 22.0866 16.6035 22.2161C16.5537 22.2958 16.5039 22.3705 16.4541 22.4452C16.4142 22.4551 16.3744 22.4651 16.3495 22.48L16.3943 22.5448C16.3694 22.5846 16.3445 22.6195 16.3296 22.6593C16.2499 22.8237 16.1603 22.978 16.0856 23.1424C15.971 23.4013 15.6573 24.1832 15.6174 24.3127C15.5676 24.4671 15.5029 24.7011 15.4581 24.8555C15.3037 25.4083 15.1892 26.3645 15.1892 26.5139C15.1892 26.6633 15.2041 26.8127 15.219 26.972C15.219 27.0268 15.229 27.2908 15.3186 27.3107C15.4282 27.3306 15.4431 27.0866 15.4431 27.0318C15.4581 26.7429 15.5627 25.9362 15.5975 25.8117C15.6374 25.6573 15.6872 25.4083 15.7419 25.2539C15.8316 25.0049 15.8913 24.7858 15.981 24.5318C16.0905 24.223 16.2001 24.0537 16.3246 23.7499C16.3844 23.6055 16.6383 23.1523 16.6931 23.0278C16.7081 22.988 16.7678 22.8834 16.8525 22.749C16.9023 22.7639 16.9421 22.7739 16.962 22.7788C17.1413 22.8037 17.3256 22.7788 17.4999 22.7539C17.6742 22.7241 17.8585 22.7191 18.0178 22.6195C18.1971 22.5149 18.3913 22.4452 18.5357 22.2908C18.7051 22.1065 18.8694 21.8675 18.9341 21.6185C18.964 21.5089 18.9341 21.4591 18.8794 21.3794C18.8345 21.3097 18.7698 21.2201 18.6951 21.1703L18.7001 21.1802ZM18.1672 22.002C17.9979 22.2111 17.6742 22.3506 17.4152 22.4053C17.2907 22.4302 17.1662 22.4452 17.0417 22.4651C17.221 22.1912 17.4451 21.8775 17.6443 21.6484C17.724 21.5587 17.7937 21.479 17.8634 21.4043C17.9531 21.4143 18.0377 21.4243 18.1124 21.4641C18.227 21.5239 18.2718 21.5587 18.2917 21.6982C18.3017 21.8077 18.232 21.9173 18.1672 21.997V22.002Z" fill="#666666"/>
<path d="M25.5825 20.6424C25.5427 20.6175 25.4779 20.747 25.4182 20.8416C25.2488 21.1155 24.9899 21.6982 24.3176 22.5398C24.2927 22.4502 24.1682 22.3356 24.1283 22.2709C24.0486 22.1414 23.9988 22.0119 23.9839 21.8675C23.959 21.728 23.949 21.5786 23.954 21.4342C23.954 21.3346 23.9341 21.1603 23.8295 21.0906V21.0607C23.7648 21.001 23.6801 21.0209 23.6353 21.0607C23.5457 21.1454 23.5606 21.3346 23.5457 21.4442C23.5208 21.5836 23.4759 21.733 23.4809 21.8775C23.4809 21.9771 23.5208 22.0866 23.5407 22.1862C23.5606 22.2659 23.6004 22.3555 23.6751 22.4153C23.7498 22.485 23.8096 22.5547 23.9042 22.5946C23.9789 22.6245 24.1134 22.6792 24.213 22.6643C24.1184 22.7739 24.0287 22.8884 23.9192 23.0079C23.0228 24.0238 21.2399 25.3585 20.8266 25.6822C20.4132 26.0059 20.4431 26.1204 20.7618 26.22C21.0805 26.3196 21.3246 26.3645 22.6194 25.224C24.5118 23.5707 25.2389 21.997 25.4779 21.5189C25.712 21.0408 25.712 20.7221 25.5875 20.6374L25.5825 20.6424Z" fill="#666666"/>
<path d="M13.5208 21.0906C13.3714 20.747 12.744 21.2201 12.5995 21.3297C12.241 21.6185 11.8027 22.1464 12.1165 22.6444C12.1513 22.6992 12.2061 22.7838 12.2609 22.8237C12.3954 22.9282 12.5597 22.9083 12.7041 22.9033C12.8734 22.8934 13.0428 22.8884 13.1922 22.8137C13.4013 22.7091 13.6005 22.5298 13.6752 22.2958C13.7151 22.1713 13.7499 22.0418 13.7997 21.9223C13.8196 21.8675 13.8396 21.8177 13.8495 21.7629C13.8595 21.6633 13.8495 21.5637 13.8246 21.4691C13.7997 21.3346 13.7001 20.9611 13.5159 21.0956L13.5208 21.0906ZM13.3864 21.753L13.3764 21.8177C13.3266 22.0866 13.1274 22.3755 12.8187 22.3057C12.6842 22.2709 12.6394 22.1763 12.6842 22.0468C12.729 21.9024 12.8784 21.8426 13.0079 21.7729C13.0975 21.7181 13.2669 21.5836 13.3017 21.4791C13.3366 21.5089 13.3565 21.5538 13.3714 21.5936C13.3914 21.6434 13.3914 21.6982 13.3864 21.748V21.753Z" fill="#666666"/>
<path d="M14.0039 14.009C13.8595 13.9443 13.6354 13.8795 13.471 13.9094C13.2868 13.9393 13.1424 13.9443 12.983 14.0339C12.7141 14.1783 12.6195 14.2829 12.2908 14.5867C12.1563 14.7112 11.9123 14.8606 11.728 14.8805C11.7629 14.6564 11.8525 14.2381 12.0019 14.009C12.1115 13.8347 12.1713 13.4861 12.3107 13.3018C12.3904 13.1923 12.4203 13.1076 12.48 13.013C12.9033 12.769 13.3167 12.5399 13.7599 12.3158C14.0089 12.1913 14.1782 12.0817 14.4422 11.9921C14.6613 11.9224 14.8904 11.7879 15.1145 11.7182C15.3087 11.6534 15.5079 11.5787 15.6971 11.514C16.1802 11.3497 16.474 11.3198 16.8475 11.1953C17.1862 11.0857 17.4999 11.0409 17.8634 10.9712C18.0626 10.9313 18.2469 10.8815 18.461 10.8616C18.5806 10.8517 19.4072 10.8317 19.3375 10.7421C19.213 10.5827 18.6802 10.5578 18.5606 10.5529C18.1373 10.5429 17.6493 10.5827 17.3007 10.6126C16.6134 10.6724 16.2001 10.8068 15.5328 10.9861C14.8754 11.1554 14.2031 11.3945 13.5906 11.6734C13.491 11.7182 13.3814 11.758 13.2718 11.7979C13.3814 11.5439 13.3416 11.4692 12.973 11.3895H12.9481C12.739 11.3297 12.5248 11.524 12.4203 11.6933C12.3356 11.8327 12.246 11.9672 12.1613 12.1116C12.1314 12.1714 12.0966 12.2411 12.0667 12.3158C11.9173 12.3855 11.7828 12.4552 11.6334 12.5499C11.3595 12.7192 11.0607 12.8586 10.8366 13.1026C10.7021 13.252 10.4332 13.5259 10.4482 13.76C10.493 13.8945 10.5229 14.0339 10.7121 14.0588C10.8864 14.0787 10.991 13.9293 11.1155 13.8447C11.2599 13.7451 11.3894 13.6355 11.5438 13.5558C11.5139 13.6355 11.484 13.7152 11.4541 13.77C11.3744 13.9542 11.3495 14.0389 11.2848 14.2381C11.1852 14.5518 11.0756 14.6465 11.1005 14.9851C11.1454 15.6574 11.9173 15.7819 12.5099 15.2988C12.6394 15.1943 12.6344 15.0947 12.7788 15C12.9183 14.9154 13.1324 14.8556 13.227 15.0399C13.3565 15.2839 13.1274 15.767 13.0228 15.9911C12.9481 16.1454 12.6444 16.7132 12.3256 17.0667C12.1663 17.2411 12.3655 17.5448 12.7689 17.505C13.0129 17.4801 13.3167 17.0767 13.4212 16.9024C13.6204 16.5687 13.8894 16.2002 14.0089 15.8267C14.1085 15.498 14.1732 15.259 14.233 14.9154C14.2878 14.6166 14.2977 14.1484 13.9939 14.014L14.0039 14.009Z" fill="#666666"/>
<path d="M10.493 17.9681C10.4033 18.1374 10.4432 18.4661 10.8017 18.3964C11.1603 18.3267 11.4691 17.6892 10.8117 17.6643L10.8466 17.8038C10.7968 17.6096 10.5129 17.9333 10.493 17.9731V17.9681Z" fill="#666666"/>
<path d="M10.4681 13.3865L10.4531 13.3068L10.4332 13.262L10.4681 13.3865Z" fill="#666666"/>
<path d="M53.8592 24.8505C52.1709 23.4611 50.3681 24.9551 49.2676 25.8117C48.7198 26.245 48.411 26.1155 48.2267 25.9013C48.0474 25.6872 47.8034 25.2589 47.2905 25.2141C46.0007 25.0896 45.6969 26.2201 44.8353 27.5099C43.5853 29.3774 40.9061 29.9451 39.1083 28.8794C37.7587 28.0776 37.1013 26.8874 36.8125 26.1902C43.1122 25.6673 47.7735 23.6055 48.5106 18.2819C49.2377 13.0429 43.2218 11.3297 38.9688 13.4861C34.6511 15.6723 34.1133 20.5329 34.7607 23.252C35.0545 23.1623 35.5824 23.0478 35.9709 22.9233C36.0007 19.1584 37.3702 17.7689 39.1929 17.0916C42.1262 16.011 44.2029 18.003 42.8134 20.1096C40.6621 23.3665 34.5416 24.228 30.3683 24.9651C27.2707 25.5129 21.8026 26.0258 18.6752 29.4471C19.7808 28.7449 20.976 28.1573 26.3245 27.3904C31.4589 26.6533 32.3553 26.8575 35.5924 26.3844C36.693 29.3874 39.7656 34.9351 47.7686 33.3963C52.9428 32.4003 54.6261 29.6613 54.7805 27.5248C54.8701 26.2649 54.387 25.2739 53.8592 24.8406V24.8505Z" fill="url(#paint4_linear_1272_74328)"/>
<path d="M194.752 25.4327H209.135V30.4171H197.823V31.6982H209.567V32.0942C209.567 32.6532 209.416 33.0647 209.113 33.3286C208.825 33.6081 208.356 33.7479 207.707 33.7479H194.795V28.6935H206.107V27.4824H194.752V25.4327ZM203.295 15.7898H196.331V17.6765H202.322V19.633H196.331V21.6827H204.16V22.1718C204.16 22.7308 204.009 23.1501 203.706 23.4296C203.418 23.6935 202.949 23.8255 202.3 23.8255H193.26V13.6469H203.295V15.7898ZM203.403 17.56H206.107V13.5305H210V13.6702C209.423 13.9187 209.135 14.4311 209.135 15.2075V22.9637C209.135 23.5227 208.983 23.942 208.681 24.2215C208.392 24.4855 207.924 24.6174 207.275 24.6174H206.107V19.6796H203.403V17.56Z" fill="white"/>
<path d="M174.9 23.546H177.387V16.3255H175.008V14.1128H189.369V16.3255H186.99V23.546H189.477V24.6407C189.477 25.06 189.369 25.355 189.153 25.5258C188.937 25.6811 188.699 25.7588 188.439 25.7588H183.724V28.4373H191.273V29.6485C191.273 30.0678 191.164 30.3628 190.948 30.5336C190.732 30.6889 190.494 30.7665 190.234 30.7665H173.105V28.4373H180.653V25.7588H174.9V23.546ZM180.458 23.546H183.919V16.3255H180.458V23.546Z" fill="white"/>
<path d="M147.766 19.0507C147.766 18.2898 147.903 17.5833 148.177 16.9311C148.451 16.2789 148.826 15.7199 149.302 15.2541C149.778 14.7883 150.34 14.4233 150.989 14.1594C151.638 13.8954 152.344 13.7634 153.108 13.7634C153.757 13.7634 154.363 13.8643 154.925 14.0662C155.487 14.2525 155.992 14.5243 156.439 14.8814C156.9 15.223 157.29 15.6345 157.607 16.1159C157.924 16.5973 158.155 17.133 158.299 17.723H161.046V13.5305H164.939V13.6702C164.362 13.9187 164.074 14.4311 164.074 15.2075V23.0569C164.074 23.6159 163.922 24.0351 163.62 24.3147C163.331 24.5786 162.863 24.7106 162.214 24.7106H161.046V19.8892H158.386C158.299 20.5414 158.097 21.1469 157.78 21.706C157.477 22.2494 157.095 22.7153 156.634 23.1035C156.172 23.4917 155.639 23.7945 155.033 24.0119C154.442 24.2292 153.8 24.3379 153.108 24.3379C152.344 24.3379 151.638 24.206 150.989 23.942C150.34 23.678 149.778 23.3131 149.302 22.8473C148.826 22.3814 148.451 21.8302 148.177 21.1935C147.903 20.5414 147.766 19.8271 147.766 19.0507ZM152.762 27.6687H161.046V25.6423H164.074V32.0942C164.074 32.6532 163.922 33.0647 163.62 33.3286C163.331 33.6081 162.863 33.7479 162.214 33.7479H149.734V25.6423H152.762V27.6687ZM150.794 19.0507C150.794 20.1066 151.018 20.9063 151.465 21.4497C151.926 21.9777 152.474 22.2417 153.108 22.2417C153.743 22.2417 154.283 21.9777 154.73 21.4497C155.192 20.9063 155.423 20.1066 155.423 19.0507C155.423 17.9948 155.192 17.2028 154.73 16.6749C154.283 16.1314 153.743 15.8597 153.108 15.8597C152.474 15.8597 151.926 16.1314 151.465 16.6749C151.018 17.2028 150.794 17.9948 150.794 19.0507ZM161.046 29.765H152.762V31.6516H161.046V29.765Z" fill="white"/>
<path d="M141.583 13.5305H145.476V13.6702C144.899 13.9187 144.611 14.4311 144.611 15.2075V32.2106C144.611 32.7696 144.46 33.1811 144.157 33.4451C143.868 33.7246 143.4 33.8643 142.751 33.8643H141.583V13.5305ZM128.325 26.4342C129.478 26.015 130.509 25.456 131.418 24.7572C132.326 24.0429 133.09 23.2432 133.71 22.3581C134.345 21.4575 134.821 20.5025 135.138 19.4932C135.469 18.4839 135.635 17.4668 135.635 16.442H128.736V14.1128H138.663V16.2324C138.663 17.4591 138.447 18.678 138.014 19.8892C137.582 21.1004 137.005 22.2261 136.284 23.2665C135.578 24.2914 134.763 25.2075 133.84 26.015C132.917 26.8069 131.966 27.4047 130.985 27.8084C130.437 28.0414 129.976 28.1423 129.601 28.1112C129.241 28.0647 128.945 27.7929 128.714 27.296L128.325 26.4342Z" fill="white"/>
<path d="M109.165 13.7634H119.633V15.9761H115.761V16.5817V16.8845V17.001C115.761 18.3053 116.086 19.4233 116.735 20.355C117.398 21.2867 118.523 22.0631 120.109 22.6842L119.763 23.546C119.618 23.8876 119.388 24.1283 119.071 24.2681C118.768 24.3923 118.386 24.3612 117.924 24.1749C117.232 23.9109 116.591 23.546 115.999 23.0802C115.408 22.5988 114.882 22.0398 114.42 21.4032C113.945 22.1951 113.368 22.8706 112.69 23.4296C112.027 23.973 111.306 24.3768 110.527 24.6407C110.066 24.8115 109.691 24.8348 109.403 24.7106C109.114 24.5709 108.891 24.3224 108.732 23.9653L108.321 23.0802C109.23 22.8007 109.965 22.4513 110.527 22.032C111.104 21.5973 111.551 21.1159 111.868 20.5879C112.2 20.06 112.423 19.4932 112.539 18.8876C112.654 18.282 112.712 17.6532 112.712 17.001V15.9761H109.165V13.7634ZM110.722 25.9917H125.148V32.2106C125.148 32.7696 124.997 33.1811 124.694 33.4451C124.406 33.7246 123.937 33.8643 123.288 33.8643H122.12V28.1578H110.722V25.9917ZM118.984 17.6532H122.12V13.5305H126.013V13.6702C125.436 13.9187 125.148 14.4311 125.148 15.2075V23.4063C125.148 23.9653 124.997 24.3845 124.694 24.664C124.406 24.928 123.937 25.06 123.288 25.06H122.12V19.8193H118.984V17.6532Z" fill="white"/>
<path d="M89.118 28.6703H93.7464V26.3411C92.7948 26.0771 92.045 25.5958 91.4971 24.897C90.9492 24.1827 90.6752 23.3597 90.6752 22.4281C90.6752 21.838 90.7834 21.2945 90.9997 20.7976C91.2304 20.2852 91.5476 19.8504 91.9513 19.4933C92.3694 19.1206 92.8669 18.8333 93.4436 18.6315C94.0204 18.4141 94.662 18.3054 95.3686 18.3054C96.0751 18.3054 96.7167 18.4141 97.2935 18.6315C97.8702 18.8333 98.3605 19.1206 98.7642 19.4933C99.1823 19.8504 99.4995 20.2852 99.7158 20.7976C99.9465 21.2945 100.062 21.838 100.062 22.4281C100.062 23.4063 99.7663 24.2526 99.1751 24.9669C98.5984 25.6812 97.7981 26.1625 96.7744 26.411V28.6703H98.5479C99.3554 28.6703 100.148 28.6237 100.927 28.5305C101.706 28.4374 102.354 28.3054 102.874 28.1346V13.5305H106.767V13.6703C106.19 13.9187 105.901 14.4312 105.901 15.2076V32.2107C105.901 32.7697 105.75 33.1812 105.447 33.4451C105.159 33.7246 104.69 33.8644 104.041 33.8644H102.874V30.1377C102.354 30.4017 101.72 30.6113 100.97 30.7666C100.235 30.9219 99.4274 30.9995 98.5479 30.9995H89.118V28.6703ZM89.9182 15.161H93.8546V12.9482H96.8825V15.161H100.819V17.3737H89.9182V15.161ZM93.595 22.4281C93.595 23.0026 93.7392 23.5073 94.0276 23.942C94.316 24.3613 94.763 24.5709 95.3686 24.5709C95.9741 24.5709 96.4211 24.3613 96.7095 23.942C96.9979 23.5073 97.1421 23.0026 97.1421 22.4281C97.1421 21.8535 96.9979 21.3566 96.7095 20.9374C96.4211 20.5026 95.9741 20.2852 95.3686 20.2852C94.763 20.2852 94.316 20.5026 94.0276 20.9374C93.7392 21.3566 93.595 21.8535 93.595 22.4281Z" fill="white"/>
<path d="M82.5456 13.5305H86.4386V13.6702C85.8619 13.9187 85.5735 14.4311 85.5735 15.2075V19.6796H88.0391V22.0088H85.5735V32.2106C85.5735 32.7696 85.4221 33.1811 85.1193 33.4451C84.8309 33.7246 84.3623 33.8643 83.7135 33.8643H82.5456V13.5305ZM81.0099 27.692C80.8081 27.9715 80.5485 28.1345 80.2313 28.1811C79.9141 28.2277 79.5681 28.0957 79.1932 27.7852C78.5587 27.2883 77.9243 26.6283 77.2899 25.8053C76.6555 24.9824 76.0859 24.0584 75.5813 23.0336C75.091 24.105 74.5143 25.091 73.851 25.9917C73.1877 26.8923 72.4884 27.6066 71.7531 28.1345C71.3493 28.4296 70.9961 28.5615 70.6933 28.5305C70.3905 28.4839 70.1165 28.3131 69.8714 28.0181L69.2226 27.2029C69.9868 26.6283 70.6644 25.9761 71.2556 25.2463C71.8468 24.501 72.337 23.7168 72.7263 22.8938C73.1301 22.0709 73.4329 21.2246 73.6347 20.355C73.851 19.4855 73.9591 18.6392 73.9591 17.8162V13.9963H77.0087V17.3969V17.6765V17.8162C77.0087 18.6858 77.1169 19.5398 77.3331 20.3783C77.5638 21.2013 77.8811 21.9932 78.2848 22.7541C78.7029 23.515 79.1932 24.2292 79.7555 24.897C80.3178 25.5647 80.9451 26.1625 81.6372 26.6904L81.0099 27.692Z" fill="white"/>
<defs>
<radialGradient id="paint0_radial_1272_74328" cx="0" cy="0" r="1" gradientUnits="userSpaceOnUse" gradientTransform="translate(38.1872 42.6809) scale(15.3069 3.16013)">
<stop stop-color="#D1D1D2"/>
<stop offset="0.1" stop-color="#D1D1D2"/>
<stop offset="0.52" stop-color="#ECECED"/>
<stop offset="0.86" stop-color="white"/>
<stop offset="1" stop-color="white"/>
</radialGradient>
<linearGradient id="paint1_linear_1272_74328" x1="26.8171" y1="4.77599" x2="24.7586" y2="34.2148" gradientUnits="userSpaceOnUse">
<stop stop-color="#9AC717"/>
<stop offset="0.07" stop-color="#9AC717"/>
<stop offset="0.96" stop-color="#00A93A"/>
<stop offset="1" stop-color="#00A93A"/>
</linearGradient>
<linearGradient id="paint2_linear_1272_74328" x1="40.0809" y1="84.1906" x2="43.5849" y2="34.0808" gradientUnits="userSpaceOnUse">
<stop stop-color="#9AC717"/>
<stop offset="0.07" stop-color="#9AC717"/>
<stop offset="0.96" stop-color="#00A93A"/>
<stop offset="1" stop-color="#00A93A"/>
</linearGradient>
<linearGradient id="paint3_linear_1272_74328" x1="25.1878" y1="15.4305" x2="50.9448" y2="10.9213" gradientUnits="userSpaceOnUse">
<stop stop-color="#F5A500"/>
<stop offset="0.25" stop-color="#F5A500"/>
<stop offset="0.33" stop-color="#F39901"/>
<stop offset="0.47" stop-color="#F17A04"/>
<stop offset="0.66" stop-color="#EC480A"/>
<stop offset="0.89" stop-color="#E60411"/>
<stop offset="0.9" stop-color="#E60012"/>
<stop offset="1" stop-color="#E60012"/>
</linearGradient>
<linearGradient id="paint4_linear_1272_74328" x1="24.9572" y1="26.4083" x2="53.8044" y2="21.4566" gradientUnits="userSpaceOnUse">
<stop stop-color="#F5A500"/>
<stop offset="0.25" stop-color="#F5A500"/>
<stop offset="0.33" stop-color="#F39901"/>
<stop offset="0.47" stop-color="#F17A04"/>
<stop offset="0.66" stop-color="#EC480A"/>
<stop offset="0.89" stop-color="#E60411"/>
<stop offset="0.9" stop-color="#E60012"/>
<stop offset="1" stop-color="#E60012"/>
</linearGradient>
</defs>
</svg>
