<svg width="480" height="420" viewBox="0 0 480 420" fill="none" xmlns="http://www.w3.org/2000/svg">
<g clip-path="url(#clip0_949_9130)">
<g opacity="0.05">
<path d="M333.566 6.99744C340.546 2.9678 349.467 5.35813 353.496 12.3377L360.34 24.1914C586.998 416.775 451.993 920.622 59.4092 1147.28L47.5555 1154.12C40.5759 1158.15 31.655 1155.76 27.6254 1148.78L20.7816 1136.93C-205.877 744.346 -70.8715 240.5 321.712 13.8412L333.566 6.99744ZM335.52 39.5632C-42.2162 258.26 -172.18 743.293 45.6003 1121.56C423.337 902.861 553.301 417.829 335.52 39.5632Z" fill="#44AB57" stroke="#44AB57" stroke-width="0.436364"/>
<path d="M326.996 15.6901L355.179 23.2522L54.084 1145.39L25.9012 1137.83L326.996 15.6901Z" fill="#44AB57" stroke="#44AB57" stroke-width="0.436364"/>
</g>
</g>
<defs>
<clipPath id="clip0_949_9130">
<rect width="480" height="420" fill="white"/>
</clipPath>
</defs>
</svg>
