<svg width="165" height="36" viewBox="0 0 165 36" fill="none" xmlns="http://www.w3.org/2000/svg">
<path d="M98.6301 19.867H109.931V23.7607H101.043V24.7614H110.27V25.0707C110.27 25.5074 110.152 25.8288 109.914 26.0351C109.687 26.2534 109.319 26.3626 108.809 26.3626H98.6638V22.4143H107.552V21.4682H98.6301V19.867ZM105.342 12.3345H99.8707V13.8082H104.578V15.3365H99.8707V16.9377H106.022V17.3198C106.022 17.7565 105.903 18.0839 105.665 18.3023C105.439 18.5085 105.071 18.6116 104.561 18.6116H97.4578V10.6605H105.342V12.3345ZM105.427 13.7173H107.552V10.5696H110.611V10.6787C110.157 10.8728 109.931 11.2731 109.931 11.8796V17.9384C109.931 18.3751 109.812 18.7026 109.574 18.921C109.347 19.1271 108.979 19.2302 108.47 19.2302H107.552V15.3729H105.427V13.7173Z" fill="#58595B"/>
<path d="M83.0327 18.3932H84.9867V12.7529H83.1175V11.0244H94.4012V12.7529H92.532V18.3932H94.4861V19.2484C94.4861 19.5759 94.4012 19.8064 94.2315 19.9398C94.0618 20.0611 93.8748 20.1218 93.6705 20.1218H89.9658V22.2141H95.8964V23.1603C95.8964 23.4878 95.8115 23.7183 95.6418 23.8517C95.4721 23.973 95.2851 24.0336 95.0808 24.0336H81.6223V22.2141H87.5529V20.1218H83.0327V18.3932ZM87.3997 18.3932H90.119V12.7529H87.3997V18.3932Z" fill="#58595B"/>
<path d="M61.7124 14.8817C61.7124 14.2874 61.82 13.7355 62.0353 13.226C62.2506 12.7165 62.5453 12.2798 62.9193 11.916C63.2925 11.552 63.7348 11.267 64.2448 11.0608C64.7539 10.8546 65.3094 10.7515 65.9097 10.7515C66.4196 10.7515 66.8958 10.8303 67.3373 10.988C67.7789 11.1336 68.1757 11.3458 68.5269 11.6248C68.8891 11.8917 69.1955 12.2131 69.4446 12.5892C69.6937 12.9652 69.8752 13.3836 69.9883 13.8446H72.1467V10.5696H75.2055V10.6787C74.7521 10.8728 74.5258 11.2731 74.5258 11.8796V18.0112C74.5258 18.4479 74.4064 18.7753 74.1691 18.9937C73.942 19.1999 73.5743 19.303 73.0644 19.303H72.1467V15.5367H70.0567C69.9883 16.0461 69.8296 16.5192 69.5805 16.9559C69.3425 17.3804 69.0423 17.7443 68.6801 18.0475C68.3171 18.3508 67.8983 18.5873 67.4222 18.7571C66.9578 18.927 66.4534 19.0119 65.9097 19.0119C65.3094 19.0119 64.7539 18.9088 64.2448 18.7025C63.7348 18.4964 63.2925 18.2113 62.9193 17.8474C62.5453 17.4835 62.2506 17.0529 62.0353 16.5556C61.82 16.0461 61.7124 15.4881 61.7124 14.8817ZM65.6378 21.6138H72.1467V20.0308H74.5258V25.0707C74.5258 25.5074 74.4064 25.8288 74.1691 26.0351C73.942 26.2534 73.5743 26.3626 73.0644 26.3626H63.2587V20.0308H65.6378V21.6138ZM64.0915 14.8817C64.0915 15.7065 64.2668 16.3312 64.618 16.7557C64.981 17.1682 65.4115 17.3743 65.9097 17.3743C66.4086 17.3743 66.8329 17.1682 67.1841 16.7557C67.5471 16.3312 67.7278 15.7065 67.7278 14.8817C67.7278 14.0568 67.5471 13.4382 67.1841 13.0259C66.8329 12.6013 66.4086 12.389 65.9097 12.389C65.4115 12.389 64.981 12.6013 64.618 13.0259C64.2668 13.4382 64.0915 14.0568 64.0915 14.8817ZM72.1467 23.2512H65.6378V24.725H72.1467V23.2512Z" fill="#58595B"/>
<path d="M56.8548 10.5696H59.9135V10.6787C59.4602 10.8728 59.2339 11.2731 59.2339 11.8796V25.1617C59.2339 25.5984 59.1145 25.9198 58.8772 26.1261C58.6501 26.3444 58.2824 26.4535 57.7725 26.4535H56.8548V10.5696ZM46.4377 20.6494C47.3437 20.3219 48.1537 19.8852 48.868 19.3394C49.5814 18.7814 50.1817 18.1567 50.6688 17.4653C51.1678 16.7618 51.5418 16.0158 51.7908 15.2274C52.0509 14.439 52.1813 13.6445 52.1813 12.8438H46.7607V11.0244H54.5605V12.6801C54.5605 13.6384 54.3908 14.5906 54.0505 15.5367C53.7111 16.4828 53.2578 17.3622 52.6913 18.1749C52.1358 18.9755 51.4962 19.6912 50.771 20.3219C50.0457 20.9406 49.2985 21.4075 48.5277 21.7229C48.0972 21.9048 47.735 21.9837 47.4403 21.9594C47.1567 21.923 46.9249 21.7108 46.7434 21.3226L46.4377 20.6494Z" fill="#58595B"/>
<path d="M31.3836 10.7515H39.6085V12.48H36.5662V12.9531V13.1896V13.2806C36.5662 14.2995 36.8215 15.1728 37.3315 15.9006C37.8524 16.6284 38.7363 17.2349 39.9825 17.7201L39.7106 18.3933C39.5967 18.6601 39.416 18.8481 39.1661 18.9573C38.9288 19.0544 38.6287 19.0301 38.2657 18.8846C37.722 18.6783 37.2175 18.3933 36.7532 18.0293C36.2888 17.6534 35.8755 17.2167 35.5125 16.7193C35.1393 17.338 34.686 17.8656 34.1533 18.3023C33.6323 18.7268 33.0658 19.0422 32.4537 19.2484C32.0915 19.3818 31.7969 19.4 31.5706 19.303C31.3435 19.1938 31.1683 18.9998 31.0434 18.7207L30.7205 18.0293C31.4347 17.811 32.0122 17.5381 32.4537 17.2106C32.9071 16.871 33.2583 16.495 33.5074 16.0825C33.7682 15.6702 33.9435 15.2274 34.0346 14.7543C34.125 14.2813 34.1705 13.79 34.1705 13.2806V12.48H31.3836V10.7515ZM32.607 20.3037H43.9417V25.1617C43.9417 25.5984 43.823 25.9198 43.585 26.1261C43.3579 26.3444 42.9902 26.4535 42.4803 26.4535H41.5625V21.9958H32.607V20.3037ZM39.0985 13.79H41.5625V10.5696H44.6213V10.6787C44.168 10.8728 43.9417 11.2731 43.9417 11.8796V18.2841C43.9417 18.7207 43.823 19.0483 43.585 19.2666C43.3579 19.4728 42.9902 19.576 42.4803 19.576H41.5625V15.4821H39.0985V13.79Z" fill="#58595B"/>
<path d="M15.6321 22.3957H19.2688V20.5762C18.521 20.37 17.9319 19.994 17.5014 19.4482C17.0709 18.8902 16.8557 18.2473 16.8557 17.5196C16.8557 17.0586 16.9406 16.634 17.1106 16.2459C17.2918 15.8456 17.5411 15.506 17.8583 15.227C18.1868 14.9359 18.5777 14.7115 19.0309 14.5538C19.484 14.384 19.9882 14.2991 20.5433 14.2991C21.0984 14.2991 21.6025 14.384 22.0557 14.5538C22.5088 14.7115 22.8941 14.9359 23.2112 15.227C23.5398 15.506 23.7891 15.8456 23.9589 16.2459C24.1403 16.634 24.231 17.0586 24.231 17.5196C24.231 18.2837 23.9986 18.9448 23.5341 19.5028C23.081 20.0608 22.4522 20.4367 21.6478 20.6308V22.3957H23.0413C23.6758 22.3957 24.2986 22.3593 24.9107 22.2865C25.5227 22.2138 26.0319 22.1107 26.4397 21.9773V10.5691H29.4992V10.6783C29.0459 10.8724 28.8188 11.2727 28.8188 11.8792V25.1613C28.8188 25.598 28.7002 25.9195 28.4621 26.1256C28.2358 26.3439 27.8673 26.4531 27.3574 26.4531H26.4397V23.542C26.0319 23.7482 25.5337 23.912 24.9445 24.0333C24.367 24.1546 23.7324 24.2152 23.0413 24.2152H15.6321V22.3957ZM16.2609 11.8428H19.3537V10.1143H21.7328V11.8428H24.8258V13.5713H16.2609V11.8428ZM19.1498 17.5196C19.1498 17.9683 19.2631 18.3626 19.4896 18.7022C19.7162 19.0297 20.0674 19.1934 20.5433 19.1934C21.0191 19.1934 21.3702 19.0297 21.5968 18.7022C21.8234 18.3626 21.9367 17.9683 21.9367 17.5196C21.9367 17.0707 21.8234 16.6826 21.5968 16.3551C21.3702 16.0154 21.0191 15.8456 20.5433 15.8456C20.0674 15.8456 19.7162 16.0154 19.4896 16.3551C19.2631 16.6826 19.1498 17.0707 19.1498 17.5196Z" fill="#58595B"/>
<path d="M10.4681 10.5696H13.5269V10.6787C13.0737 10.8728 12.8471 11.2731 12.8471 11.8796V15.3729H14.7844V17.1924H12.8471V25.1617C12.8471 25.5984 12.7282 25.9198 12.4903 26.1261C12.2637 26.3444 11.8955 26.4535 11.3857 26.4535H10.4681V10.5696ZM9.26154 21.632C9.1029 21.8503 8.89901 21.9776 8.6497 22.014C8.40047 22.0504 8.12861 21.9473 7.83405 21.7047C7.33559 21.3165 6.83706 20.801 6.3386 20.1582C5.84014 19.5153 5.3926 18.7935 4.99612 17.993C4.61089 18.8299 4.15777 19.6002 3.6366 20.3037C3.11551 21.0073 2.56598 21.5652 1.98825 21.9776C1.67105 22.2081 1.39346 22.3112 1.15555 22.287C0.917633 22.2506 0.702348 22.1171 0.509769 21.8866L0 21.2498C0.600444 20.801 1.13292 20.2916 1.59736 19.7215C2.06187 19.1393 2.44703 18.5267 2.75299 17.8838C3.07018 17.2409 3.30809 16.5799 3.46665 15.9006C3.6366 15.2213 3.72161 14.5603 3.72161 13.9174V10.9334H6.11765V13.5899V13.8082V13.9174C6.11765 14.5966 6.20267 15.2638 6.37262 15.9188C6.55388 16.5617 6.80311 17.1803 7.1203 17.7747C7.44889 18.369 7.83405 18.927 8.27586 19.4485C8.71774 19.9701 9.21054 20.4371 9.75434 20.8496L9.26154 21.632Z" fill="#58595B"/>
</svg>
