<svg width="24" height="24" viewBox="0 0 24 24" fill="none" xmlns="http://www.w3.org/2000/svg">
<path d="M19.9961 5.52933V19.6923C19.9961 20.3043 19.7432 20.8913 19.2931 21.3241C18.8431 21.7569 18.2326 22 17.5961 22H6.39609C5.75957 22 5.14912 21.7569 4.69904 21.3241C4.24895 20.8913 3.99609 20.3043 3.99609 19.6923V4.30769C3.99609 3.69565 4.24895 3.10868 4.69904 2.67591C5.14912 2.24313 5.75957 2 6.39609 2H16.1336C16.5578 2.00006 16.9646 2.1621 17.2646 2.45048L19.5276 4.44183C19.8275 4.73028 19.996 5.12144 19.9961 5.52933Z" stroke="#8E8E8E" stroke-width="1.2" stroke-linejoin="round"/>
<path d="M14.7969 3.60156V7.39104C14.7969 7.65904 14.9033 7.91608 15.0929 8.10559C15.2824 8.2951 15.5394 8.40156 15.8074 8.40156H19.5969" stroke="#8E8E8E" stroke-width="1.2" stroke-linecap="round" stroke-linejoin="round"/>
<path d="M16 12.0923L11.8 8.4M11.8 8.4L7.6 12.0923M11.8 8.4L11.8 18" stroke="#222222" stroke-width="1.2" stroke-linecap="round" stroke-linejoin="round"/>
</svg>
