<svg width="20" height="20" viewBox="0 0 20 20" fill="none" xmlns="http://www.w3.org/2000/svg">
<path d="M16.6615 4.60517V16.4077C16.6615 16.9177 16.4507 17.4068 16.0757 17.7675C15.7006 18.1281 15.1919 18.3307 14.6615 18.3307H5.32812C4.79769 18.3307 4.28898 18.1281 3.91391 17.7675C3.53884 17.4068 3.32812 16.9177 3.32812 16.4077V3.58714C3.32812 3.07711 3.53884 2.58797 3.91391 2.22732C4.28898 1.86667 4.79769 1.66406 5.32812 1.66406H13.4427C13.7962 1.66411 14.1352 1.79914 14.3852 2.03946L16.271 3.69892C16.521 3.93929 16.6614 4.26526 16.6615 4.60517Z" stroke="#8E8E8E" stroke-width="1.2" stroke-linejoin="round"/>
<path d="M12.332 2V5.15789C12.332 5.38123 12.4208 5.59543 12.5787 5.75335C12.7366 5.91128 12.9508 6 13.1741 6H16.332" stroke="#8E8E8E" stroke-width="1.2" stroke-linecap="round" stroke-linejoin="round"/>
</svg>
