<svg width="26" height="26" viewBox="0 0 26 26" fill="none" xmlns="http://www.w3.org/2000/svg">
<path fill-rule="evenodd" clip-rule="evenodd" d="M3.99951 12C3.99951 7.58172 7.58123 4 11.9995 4C16.4178 4 19.9995 7.58172 19.9995 12C19.9995 16.4183 16.4178 20 11.9995 20C7.58123 20 3.99951 16.4183 3.99951 12ZM11.9995 1C5.92438 1 0.999512 5.92487 0.999512 12C0.999512 18.0751 5.92438 23 11.9995 23C14.3292 23 16.4898 22.2758 18.2683 21.0401L22.5889 25.3607C23.1747 25.9465 24.1244 25.9465 24.7102 25.3607C25.296 24.7749 25.296 23.8252 24.7102 23.2394L20.4787 19.0079C22.0533 17.1049 22.9995 14.6629 22.9995 12C22.9995 5.92487 18.0746 1 11.9995 1Z" fill="white"/>
</svg>
