<svg width="24" height="24" viewBox="0 0 24 24" fill="none" xmlns="http://www.w3.org/2000/svg">
<path d="M12 13.3896L1.70363 23.686C1.52044 23.8692 1.29539 23.9673 1.02846 23.9804C0.76153 23.9935 0.523389 23.8953 0.314033 23.686C0.104677 23.4766 0 23.245 0 22.9912C0 22.7373 0.104677 22.5057 0.314033 22.2964L10.6104 12L0.314033 1.70363C0.130847 1.52044 0.0327113 1.29539 0.0196266 1.02846C0.00654187 0.76153 0.104677 0.523389 0.314033 0.314033C0.523389 0.104677 0.754988 0 1.00883 0C1.26268 0 1.49428 0.104677 1.70363 0.314033L12 10.6104L22.2964 0.314033C22.4796 0.130847 22.7053 0.0327113 22.9735 0.0196266C23.2391 0.00654187 23.4766 0.104677 23.686 0.314033C23.8953 0.523389 24 0.754988 24 1.00883C24 1.26268 23.8953 1.49428 23.686 1.70363L13.3896 12L23.686 22.2964C23.8692 22.4796 23.9673 22.7053 23.9804 22.9735C23.9935 23.2391 23.8953 23.4766 23.686 23.686C23.4766 23.8953 23.245 24 22.9912 24C22.7373 24 22.5057 23.8953 22.2964 23.686L12 13.3896Z" fill="#666666"/>
</svg>
