<svg width="30" height="30" viewBox="0 0 30 30" fill="none" xmlns="http://www.w3.org/2000/svg">
<path d="M15 16.3896L4.70363 26.686C4.52044 26.8692 4.29539 26.9673 4.02846 26.9804C3.76153 26.9935 3.52339 26.8953 3.31403 26.686C3.10468 26.4766 3 26.245 3 25.9912C3 25.7373 3.10468 25.5057 3.31403 25.2964L13.6104 15L3.31403 4.70363C3.13085 4.52044 3.03271 4.29539 3.01963 4.02846C3.00654 3.76153 3.10468 3.52339 3.31403 3.31403C3.52339 3.10468 3.75499 3 4.00883 3C4.26268 3 4.49428 3.10468 4.70363 3.31403L15 13.6104L25.2964 3.31403C25.4796 3.13085 25.7053 3.03271 25.9735 3.01963C26.2391 3.00654 26.4766 3.10468 26.686 3.31403C26.8953 3.52339 27 3.75499 27 4.00883C27 4.26268 26.8953 4.49428 26.686 4.70363L16.3896 15L26.686 25.2964C26.8692 25.4796 26.9673 25.7053 26.9804 25.9735C26.9935 26.2391 26.8953 26.4766 26.686 26.686C26.4766 26.8953 26.245 27 25.9912 27C25.7373 27 25.5057 26.8953 25.2964 26.686L15 16.3896Z" fill="#222222"/>
</svg>
