<svg width="165" height="36" viewBox="0 0 165 36" fill="none" xmlns="http://www.w3.org/2000/svg">
<path d="M30.4584 31.1217C23.8299 31.1217 18.4575 32.2148 18.4575 33.5608C18.4575 34.9068 23.8299 36 30.4584 36C37.0868 36 42.4592 34.9068 42.4592 33.5608C42.4592 32.2148 37.0829 31.1217 30.4584 31.1217Z" fill="url(#paint0_radial_182_2283)"/>
<path d="M29.214 9.25876C30.7557 5.15852 28.3649 0.766479 24.2172 0.124595C17.7531 -0.875186 14.9124 6.12718 17.2523 10.2586C19.6548 14.5028 25.4263 15.6271 25.4693 22.2209C25.4928 26.5429 21.7365 28.4453 19.2479 28.3441C17.8001 28.2858 16.7906 27.6323 16.724 26.3757C16.4815 23.6098 19.8622 23.0651 19.8622 23.0651C17.1271 22.999 12.2634 23.6447 11.5942 27.8229C10.8038 32.7556 16.861 34.5373 21.6816 31.1101C26.5807 27.6283 27.4062 22.5866 25.4693 17.6733C24.6359 15.5609 22.523 12.9895 21.22 11.379C20.1831 10.0991 19.3457 8.19287 20.2065 6.41116C21.6464 3.42738 26.475 2.93332 28.0284 6.50453C28.4901 7.56655 28.451 8.59743 28.4432 8.94755C28.4393 9.21213 28.4314 9.42609 28.4745 9.55834C28.5919 9.94735 28.9948 9.78011 29.0693 9.61278C29.1475 9.44554 29.1553 9.42218 29.2179 9.25103L29.214 9.25876Z" fill="url(#paint1_linear_182_2283)"/>
<path d="M36.8083 0.0740341C35.11 0.412482 33.0558 2.22532 33.0753 5.71094C33.0753 6.13497 33.1888 6.24778 33.2945 6.1622C33.3336 6.12719 33.404 6.0027 33.404 6.0027C33.404 6.0027 33.944 4.82008 35.47 3.95645C37.313 2.91388 38.1855 3.64913 39.2851 2.57933C40.3807 1.52119 39.1325 -0.400571 36.8083 0.0740341Z" fill="url(#paint2_linear_182_2283)"/>
<path d="M39.7198 7.86219C39.7198 7.86219 40.3028 7.40703 39.8332 6.81961C39.0272 5.94042 37.1256 6.94021 36.4095 8.15786C36.4095 8.15786 36.3391 8.27066 36.3664 8.3601C36.3821 8.40682 36.433 8.43017 36.5347 8.44962C37.0473 8.54297 37.3251 8.72967 37.9355 9.08369C38.5498 9.43771 39.5985 10.2858 40.4397 9.58941C41.2419 8.92808 40.6511 7.87383 39.7276 7.86219H39.7198Z" fill="url(#paint3_linear_182_2283)"/>
<path d="M17.0056 16.4668L17.0402 16.4399V16.4246L17.0056 16.4668Z" fill="#666666"/>
<path d="M6.23364 13.238L6.2607 13.1646C6.2491 13.1916 6.24137 13.2148 6.23364 13.238Z" fill="#666666"/>
<path d="M7.94322 13.1919C7.89631 13.0596 7.88068 12.9896 7.7476 12.9273C7.64195 12.8729 7.49327 12.8262 7.3524 12.8223C7.11763 12.8184 6.80068 12.9351 6.60895 13.0674C6.69503 12.8457 6.78112 12.6161 6.85546 12.3905C6.91807 12.2038 7.02763 12.0598 7.10981 11.8809C7.25458 11.5657 7.40327 11.2701 7.56761 10.9667C7.70456 10.7099 7.85325 10.4843 7.96279 10.2275C8.06454 9.99022 8.2524 9.83852 8.37364 9.60511C8.41669 9.53121 8.54194 9.44559 8.57714 9.36779C8.61234 9.30162 8.84318 9.05267 8.83933 8.99041C8.72972 8.94768 8.42062 9.28608 8.35022 9.35615L8.36193 9.32108C8.3228 9.36779 8.19371 9.44559 8.15458 9.49231C8.04104 9.63229 7.94322 9.78016 7.83368 9.91632C7.70456 10.0836 7.63022 10.2042 7.48935 10.3598C7.35632 10.5077 7.17241 10.7566 7.08242 10.9356C6.9572 11.1884 6.84764 11.3829 6.69503 11.6164C6.56591 11.8109 6.48765 11.9937 6.38983 12.196C6.27636 12.4255 6.16288 12.6394 6.1081 12.8846C6.05332 13.1218 5.8968 13.3514 5.81463 13.5848C5.75203 13.7599 5.75594 13.9271 5.73638 14.1022C5.70507 14.3784 5.70507 14.6118 5.78724 14.8725C5.87333 15.137 6.17071 15.3276 6.48374 15.2692C6.78112 15.2109 7.08242 14.9308 7.29762 14.744C7.71239 14.3823 8.11152 13.6781 7.94322 13.1958V13.1919ZM6.83198 14.3939C6.77329 14.4873 6.67547 14.6662 6.53852 14.6896C6.36635 14.7169 6.3194 14.5651 6.29984 14.4601C6.24897 14.2072 6.34288 13.9349 6.43287 13.6781L6.46418 13.5848C6.46809 13.5614 6.47983 13.5381 6.49157 13.5147L6.46418 13.5848C6.43287 13.7053 6.48374 13.7754 6.64025 13.7676C6.74199 13.7637 6.88676 13.6587 6.96893 13.6859C7.20763 13.7637 6.91024 14.2772 6.82807 14.3978L6.83198 14.3939Z" fill="#666666"/>
<path d="M17.3341 17.1637C17.4358 17.082 17.6589 16.9614 17.7137 17.1481C17.7332 17.2065 17.6823 17.327 17.6589 17.3815C17.6393 17.436 17.5532 17.5254 17.5572 17.5799C17.5649 17.6539 17.6667 17.6733 17.7215 17.6616C17.8154 17.646 17.8741 17.5799 17.9445 17.5138C18.0893 17.3737 18.148 17.1831 18.2223 16.9964C18.2732 16.8602 18.281 16.6696 18.1676 16.5763C18.0698 16.4984 17.8741 16.4674 17.7528 16.479C17.6354 16.4906 17.471 16.5763 17.4006 16.6657C17.3068 16.6307 17.338 16.6152 17.3654 16.5413C17.3811 16.4829 17.3654 16.444 17.2989 16.4128C17.2323 16.3817 17.1072 16.3856 17.0406 16.4401C17.0211 16.5063 17.0171 16.5763 17.0054 16.6501C16.978 16.7941 16.9272 16.938 16.888 17.0781C16.8411 17.2415 16.7432 17.4048 16.6611 17.5527C16.9546 17.86 17.1502 17.3076 17.3341 17.1637Z" fill="#666666"/>
<path d="M4.94984 12.4254C4.75419 12.2776 4.42551 12.2581 4.18291 12.2425H4.10074C4.15944 12.1686 4.21813 12.0947 4.28074 12.0285C4.42551 11.8574 4.5116 11.5929 4.58203 11.3906C4.62898 11.2583 4.68767 11.1377 4.69941 10.9976C4.7268 10.7059 4.6642 10.4025 4.47247 10.1651C4.32769 9.98618 4.10466 9.83839 3.85815 9.81112C3.79945 9.80722 3.70163 9.81894 3.63511 9.81112C3.56467 9.81112 3.49033 9.81112 3.4199 9.81503C3.02861 9.85784 2.6021 10.1107 2.43385 10.4103C2.3282 10.6009 2.33994 10.9082 2.52776 11.0522C2.63341 11.1338 2.82906 11.2505 2.97383 11.2428C3.09122 11.2428 3.22034 11.1377 3.1773 11.0171C3.16165 10.9626 3.09122 10.8965 3.06383 10.842C3.03253 10.7798 2.99731 10.7292 2.98948 10.6592C2.97775 10.5231 3.2673 10.3869 3.41207 10.3519C3.6038 10.3052 3.92075 10.4141 4.03814 10.5697C4.08118 10.632 4.10466 10.7487 4.11248 10.8226C4.13596 11.1571 3.9951 11.5151 3.76032 11.7718C3.6038 11.9352 3.47077 12.1063 3.31425 12.2503C3.27121 12.2892 3.23208 12.3242 3.18904 12.3592C3.02861 12.4137 2.87992 12.4643 2.7234 12.5421C2.63341 12.5849 2.54341 12.6277 2.46124 12.6899C2.33994 12.7794 2.19517 12.7949 2.16386 12.9505C2.14039 13.0633 2.19908 13.145 2.30864 13.18C2.39863 13.2112 2.46515 13.1878 2.54732 13.1723C2.59819 13.1606 2.62949 13.1723 2.68036 13.1489C2.7821 13.1061 2.87601 13.0244 2.97775 12.9739C3.09904 12.9194 3.22817 12.8727 3.35338 12.8261C3.63119 12.7288 4.01466 12.6277 4.31595 12.6899C4.69159 12.7677 4.64463 13.3279 4.5742 13.5847C4.55072 13.6663 4.5429 13.7714 4.49203 13.8608C4.44899 13.9425 4.37073 14.0048 4.3316 14.0865C4.27682 14.1837 4.24161 14.2849 4.18683 14.3822C4.06162 14.5922 3.9051 14.7867 3.76815 14.989C3.6625 15.1446 3.51772 15.2691 3.38077 15.4091C3.27121 15.518 3.17339 15.6581 3.06774 15.7709C2.89166 15.9538 2.68819 16.1133 2.50428 16.2883C2.35951 16.4284 2.23821 16.5801 2.08169 16.7084C1.8391 16.9147 1.62779 17.1481 1.36563 17.3348C1.27172 17.4049 1.15434 17.4476 1.06825 17.5254C0.880436 17.7004 0.680876 17.86 0.461755 18.0078C0.226981 18.1595 0.00785921 18.3385 3.34307e-05 18.6146C-0.00387946 18.8792 0.336542 18.9298 0.575228 18.9998C0.806092 19.0698 1.03304 18.9454 1.22477 18.817C1.40085 18.7002 1.55345 18.5563 1.72953 18.4396C1.78431 18.4007 1.84692 18.3812 1.9017 18.3385C1.97605 18.2762 2.023 18.1906 2.09343 18.1206C2.16386 18.0506 2.25386 18.0039 2.3282 17.9417C2.43385 17.8522 2.54732 17.7705 2.62949 17.6654C2.71166 17.5643 2.80949 17.4904 2.89558 17.3892C3.04035 17.222 3.22817 17.0897 3.37294 16.9186C3.58815 16.6695 3.79945 16.4128 3.9951 16.1483C4.19857 15.876 4.35899 15.5881 4.55464 15.3158C4.71115 15.0979 4.80507 14.849 4.93028 14.6195C4.98897 14.5105 5.05549 14.4054 5.11418 14.2965C5.25113 14.0437 5.27461 13.7597 5.30591 13.4874C5.31765 13.3863 5.3333 13.2851 5.31374 13.1762C5.26287 12.8883 5.21201 12.6199 4.95767 12.4254H4.94984Z" fill="#666666"/>
<path d="M8.88216 17.0354C8.6983 17.0899 8.50266 17.2532 8.28745 17.2299C8.21313 17.2221 8.12701 17.191 8.05661 17.1638C7.89617 17.1015 7.89224 16.9498 7.9118 16.8292C7.9353 16.697 8.01355 16.5335 8.08395 16.4168C8.13872 16.3196 8.23269 16.2223 8.31095 16.1406C8.46746 15.9734 8.64739 15.8217 8.85875 15.7011C9.1365 15.5455 9.50822 15.3315 9.88002 15.3509C10.0052 15.3587 10.1069 15.4093 10.1813 15.5105C10.2165 15.5571 10.2634 15.7127 10.3261 15.7088L10.4043 15.6893C10.4317 15.6622 10.4435 15.5804 10.4552 15.5455L10.4826 15.4676C10.4865 15.4365 10.4787 15.417 10.4865 15.3859C10.5022 15.3392 10.5021 15.2848 10.4747 15.2381C10.4591 15.2109 10.4356 15.1681 10.3925 15.1331C10.3026 15.0669 10.1813 15.0358 10.0834 14.9891C9.98562 14.9425 9.83696 14.958 9.73128 14.9619C9.50822 14.9775 9.28131 15.0203 9.07003 15.0864C7.97835 15.4287 7.22705 16.2846 6.87879 17.1482C6.80445 17.331 6.78097 17.5644 6.9101 17.7473C7.04313 17.934 7.30139 17.969 7.53616 18.0002C7.70833 18.0196 7.9705 18.0079 8.12701 17.969C8.25225 17.9379 8.36178 17.8874 8.47917 17.8485C8.5887 17.8134 8.63961 17.755 8.74914 17.7045C8.95657 17.5994 9.12086 17.4789 9.17563 17.2844C9.19134 17.2182 9.24218 17.1093 9.19912 17.051C9.13265 16.9615 8.96828 17.0237 8.88609 17.0471L8.88216 17.0354Z" fill="#666666"/>
<path d="M12.1727 17.2142C12.3097 17.0625 12.3097 17.3192 12.2783 17.4126C12.204 17.6304 11.9927 17.7277 12.161 17.7666C12.2627 17.79 12.4153 17.646 12.4662 17.5915C12.5757 17.4748 12.6149 17.3581 12.6814 17.2181C12.7362 17.0975 12.7949 16.9925 12.8184 16.8602C12.8379 16.7512 12.8496 16.6306 12.7792 16.5451C12.701 16.4517 12.5797 16.4789 12.474 16.5373C12.4309 16.5606 12.3801 16.584 12.341 16.619L12.294 16.6773L12.2666 16.6112C12.2471 16.5451 12.1923 16.5334 12.1336 16.4907C11.9497 16.3739 11.7619 16.5296 11.6367 16.6618C11.5036 16.6345 11.5545 16.2261 11.3119 16.4011C11.2141 16.4712 11.2493 16.5879 11.2649 16.6773C11.2962 16.8874 11.2414 17.0703 11.1593 17.2764C11.1319 17.3581 11.1045 17.4865 11.1241 17.576C11.171 17.79 11.3706 17.4593 11.4254 17.3892C11.4762 17.3153 11.5545 17.2298 11.6054 17.1558C11.6523 17.0858 11.6327 17.0703 11.7266 17.0586C11.8402 17.043 11.8362 17.2142 11.7971 17.3153C11.754 17.4243 11.6562 17.7199 11.8714 17.6032C12.0358 17.5137 12.0671 17.3503 12.1845 17.222L12.1727 17.2142Z" fill="#666666"/>
<path d="M16.4186 17.5294C16.4695 17.4905 16.5008 17.2337 16.5048 17.1676C16.5125 17.012 16.6026 16.584 16.4226 16.4946L16.3639 16.5179C16.3169 16.2767 15.773 16.5335 15.6478 16.5996C15.3895 16.7396 15.0765 17.0314 15.0139 17.3115C14.9435 17.6188 15.2017 17.7394 15.4796 17.6811C15.7456 17.6266 15.8982 17.4399 16.1252 17.3388C16.2151 17.3659 16.2973 17.615 16.4186 17.5294ZM15.9021 17.1482C15.8395 17.1948 15.6204 17.3582 15.5734 17.2065C15.5422 17.1014 15.7495 16.9497 15.8199 16.9108C15.9256 16.8525 16.0743 16.8875 16.1447 16.7669L16.133 16.7591H16.1526L16.1447 16.7669H16.1487C16.1722 16.8291 16.0939 16.9419 16.0626 16.9886C16.0234 17.047 15.9647 17.1014 15.9021 17.1482Z" fill="#666666"/>
<path d="M14.6931 16.5451C14.564 16.4635 14.4153 16.4557 14.2667 16.4518L14.3136 16.3857C14.3449 16.3156 14.4779 16.1367 14.2706 16.1717C14.1101 16.1989 14.1532 16.16 14.0201 16.2262L13.9967 16.2339C13.8597 16.2456 13.7775 16.3506 13.6954 16.4401C13.5075 16.4557 13.1945 16.4907 13.214 16.5608C13.2219 16.5958 13.3432 16.6502 13.3745 16.6657C13.4097 16.6813 13.445 16.6891 13.4802 16.693C13.3745 16.8331 13.2727 16.9809 13.1945 17.1054C13.128 17.2065 13.1124 17.2532 13.0458 17.3543C13.0067 17.4166 12.9676 17.475 12.9284 17.5333C12.8972 17.541 12.8658 17.5488 12.8462 17.5605L12.8814 17.6111C12.8619 17.6422 12.8423 17.6695 12.8306 17.7006C12.768 17.829 12.6976 17.9495 12.6389 18.0779C12.5488 18.2802 12.3024 18.891 12.2711 18.9921C12.232 19.1127 12.181 19.2955 12.1458 19.4161C12.0245 19.848 11.9346 20.5949 11.9346 20.7116C11.9346 20.8283 11.9463 20.945 11.9581 21.0695C11.9581 21.1123 11.9658 21.3185 12.0363 21.334C12.1224 21.3496 12.1341 21.159 12.1341 21.1162C12.1458 20.8905 12.228 20.2603 12.2554 20.1631C12.2867 20.0425 12.3259 19.848 12.3689 19.7273C12.4393 19.5328 12.4863 19.3617 12.5567 19.1633C12.6428 18.922 12.7288 18.7898 12.8267 18.5525C12.8737 18.4397 13.0732 18.0857 13.1162 17.9884C13.128 17.9573 13.1749 17.8756 13.2414 17.7706C13.2806 17.7823 13.3119 17.7901 13.3276 17.7939C13.4684 17.8133 13.6132 17.7939 13.7501 17.7744C13.8871 17.7512 14.0319 17.7473 14.157 17.6695C14.2979 17.5878 14.4505 17.5333 14.564 17.4127C14.6971 17.2687 14.8262 17.082 14.8771 16.8875C14.9005 16.8019 14.8771 16.763 14.834 16.7007C14.7988 16.6463 14.7479 16.5763 14.6892 16.5374L14.6931 16.5451ZM14.2744 17.1871C14.1414 17.3504 13.8871 17.4594 13.6836 17.5021C13.5858 17.5216 13.4879 17.5333 13.3901 17.5488C13.531 17.3349 13.7071 17.0898 13.8636 16.9109C13.9262 16.8408 13.981 16.7785 14.0358 16.7202C14.1062 16.728 14.1728 16.7358 14.2315 16.7669C14.3214 16.8136 14.3566 16.8408 14.3723 16.9498C14.3801 17.0353 14.3253 17.1209 14.2744 17.1832V17.1871Z" fill="#666666"/>
<path d="M20.1006 16.1249C20.0694 16.1055 20.0184 16.2066 19.9715 16.2805C19.8384 16.4945 19.635 16.9497 19.1068 17.6071C19.0872 17.5371 18.9894 17.4476 18.958 17.397C18.8955 17.2959 18.8564 17.1947 18.8446 17.0819C18.825 16.973 18.8172 16.8563 18.8211 16.7435C18.8211 16.6657 18.8055 16.5296 18.7233 16.475V16.4518C18.6724 16.405 18.6059 16.4206 18.5707 16.4518C18.5003 16.5178 18.512 16.6657 18.5003 16.7513C18.4807 16.8602 18.4455 16.9769 18.4494 17.0897C18.4494 17.1675 18.4807 17.2531 18.4964 17.3309C18.512 17.3931 18.5433 17.4632 18.602 17.5098C18.6607 17.5643 18.7076 17.6188 18.782 17.6499C18.8407 17.6733 18.9463 17.7161 19.0246 17.7043C18.9503 17.79 18.8798 17.8794 18.7937 17.9728C18.0894 18.7664 16.6886 19.8089 16.3638 20.0618C16.039 20.3147 16.0625 20.4042 16.3129 20.482C16.5634 20.5598 16.7551 20.5948 17.7725 19.704C19.2594 18.4124 19.8307 17.1831 20.0184 16.8096C20.2024 16.4361 20.2024 16.1872 20.1046 16.1211L20.1006 16.1249Z" fill="#666666"/>
<path d="M10.6234 16.4752C10.5061 16.2068 10.013 16.5764 9.89957 16.662C9.61781 16.8876 9.27343 17.3 9.51999 17.689C9.54741 17.7318 9.59039 17.7979 9.63345 17.829C9.73913 17.9107 9.86822 17.8951 9.98168 17.8912C10.1148 17.8835 10.2478 17.8796 10.3652 17.8212C10.5295 17.7395 10.686 17.5995 10.7447 17.4167C10.776 17.3194 10.8034 17.2182 10.8425 17.1249C10.8582 17.0821 10.8739 17.0432 10.8816 17.0004C10.8895 16.9226 10.8816 16.8448 10.8621 16.7709C10.8425 16.6658 10.7642 16.3741 10.6195 16.4791L10.6234 16.4752ZM10.5178 16.9927L10.5099 17.0432C10.4708 17.2532 10.3143 17.4789 10.0717 17.4244C9.96604 17.3972 9.93084 17.3233 9.96604 17.2222C10.0012 17.1094 10.1186 17.0626 10.2204 17.0082C10.2909 16.9654 10.4239 16.8603 10.4512 16.7787C10.4786 16.802 10.4943 16.837 10.5061 16.8681C10.5217 16.907 10.5217 16.9498 10.5178 16.9887V16.9927Z" fill="#666666"/>
<path d="M11.0027 10.9432C10.8893 10.8926 10.7132 10.8421 10.5841 10.8654C10.4393 10.8887 10.3258 10.8926 10.2006 10.9626C9.98932 11.0755 9.91499 11.1571 9.65673 11.3945C9.55105 11.4917 9.35933 11.6084 9.21453 11.624C9.24195 11.4489 9.31235 11.1221 9.42973 10.9432C9.51585 10.807 9.56283 10.5347 9.67236 10.3908C9.73499 10.3052 9.75848 10.239 9.80539 10.1651C10.138 9.97454 10.4628 9.79558 10.811 9.62052C11.0067 9.52326 11.1397 9.43773 11.3471 9.36766C11.5193 9.31321 11.6993 9.20814 11.8754 9.1537C12.0279 9.10316 12.1845 9.0448 12.3331 8.99419C12.7127 8.86584 12.9435 8.84248 13.237 8.74523C13.5031 8.65969 13.7496 8.62462 14.0353 8.57017C14.1918 8.53908 14.3365 8.50018 14.5048 8.48464C14.5987 8.47682 15.2483 8.46128 15.1934 8.39121C15.0956 8.26677 14.677 8.24732 14.5831 8.24341C14.2505 8.2356 13.867 8.26677 13.5931 8.29013C13.0531 8.33676 12.7283 8.44183 12.204 8.58189C11.6875 8.71414 11.1593 8.90084 10.678 9.1187C10.5997 9.1537 10.5136 9.18487 10.4276 9.21596C10.5136 9.01754 10.4824 8.95919 10.1928 8.89693H10.1733C10.0089 8.8503 9.84066 9.002 9.75848 9.13425C9.69193 9.24322 9.62153 9.34821 9.55498 9.46101C9.53148 9.50772 9.50414 9.56217 9.48065 9.62052C9.36326 9.67497 9.25758 9.72949 9.1402 9.80339C8.92499 9.93564 8.69022 10.0445 8.51414 10.2352C8.40854 10.3519 8.19718 10.5659 8.20897 10.7487C8.24417 10.8537 8.26766 10.9626 8.41632 10.9821C8.55327 10.9977 8.63546 10.881 8.73328 10.8148C8.84673 10.737 8.94848 10.6514 9.0698 10.5892C9.04631 10.6514 9.02281 10.7137 8.99932 10.7565C8.93678 10.9004 8.91721 10.9665 8.8663 11.1221C8.78804 11.3673 8.70201 11.4412 8.72157 11.7057C8.75677 12.2308 9.36326 12.3281 9.82888 11.9508C9.93063 11.8691 9.9267 11.7913 10.0402 11.7174C10.1498 11.6512 10.318 11.6045 10.3923 11.7485C10.4941 11.9391 10.3141 12.3165 10.232 12.4915C10.1733 12.6121 9.93456 13.0556 9.68415 13.3318C9.55891 13.468 9.71542 13.7053 10.0324 13.6741C10.2241 13.6547 10.4628 13.3395 10.545 13.2034C10.7015 12.9428 10.9128 12.6549 11.0067 12.3632C11.0849 12.1064 11.1358 11.9196 11.1827 11.6512C11.2258 11.4178 11.2336 11.0521 10.995 10.9471L11.0027 10.9432Z" fill="#666666"/>
<path d="M8.24438 14.036C8.17398 14.1683 8.20525 14.425 8.487 14.3705C8.76868 14.3161 9.01131 13.8182 8.49478 13.7987L8.5222 13.9076C8.48308 13.7559 8.26001 14.0088 8.24438 14.0399V14.036Z" fill="#666666"/>
<path d="M8.22501 10.457L8.21337 10.3947L8.19775 10.3597L8.22501 10.457Z" fill="#666666"/>
<path d="M42.3177 19.4122C40.9912 18.3268 39.5748 19.4939 38.71 20.163C38.2796 20.5015 38.037 20.4004 37.8922 20.233C37.7514 20.0658 37.5596 19.7312 37.1566 19.6962C36.1432 19.599 35.9045 20.4821 35.2275 21.4896C34.2453 22.9484 32.1403 23.3919 30.7277 22.5594C29.6673 21.9331 29.1508 21.0033 28.9238 20.4587C33.8736 20.0502 37.5362 18.4396 38.1152 14.2811C38.6865 10.1886 33.9597 8.85029 30.6181 10.5348C27.2257 12.2426 26.803 16.0395 27.3117 18.1635C27.5426 18.0934 27.9573 18.004 28.2626 17.9067C28.286 14.9658 29.3621 13.8803 30.7942 13.3513C33.0989 12.5071 34.7306 14.0632 33.6388 15.7088C31.9485 18.2529 27.1396 18.9259 23.8605 19.5017C21.4267 19.9296 17.1304 20.3303 14.6731 23.0029C15.5418 22.4543 16.4809 21.9953 20.6833 21.3963C24.7175 20.8205 25.4218 20.98 27.9652 20.6104C28.83 22.9562 31.2442 27.2899 37.5322 26.0878C41.5977 25.3098 42.9203 23.1702 43.0416 21.5012C43.112 20.5171 42.7324 19.7429 42.3177 19.4045V19.4122Z" fill="url(#paint4_linear_182_2283)"/>
<path d="M153.019 19.8669H164.32V23.7606H155.432V24.7613H164.66V25.0706C164.66 25.5073 164.541 25.8287 164.303 26.0349C164.077 26.2533 163.708 26.3625 163.198 26.3625H153.053V22.4142H161.941V21.468H153.019V19.8669ZM159.732 12.3343H154.26V13.8081H158.967V15.3364H154.26V16.9375H160.411V17.3197C160.411 17.7564 160.293 18.0838 160.055 18.3022C159.828 18.5084 159.46 18.6115 158.95 18.6115H151.847V10.6604H159.732V12.3343ZM159.817 13.7171H161.941V10.5695H165V10.6786C164.547 10.8727 164.32 11.273 164.32 11.8795V17.9383C164.32 18.375 164.201 18.7025 163.964 18.9208C163.737 19.127 163.369 19.2301 162.859 19.2301H161.941V15.3728H159.817V13.7171Z" fill="#103A6A"/>
<path d="M137.422 18.3931H139.376V12.7528H137.507V11.0243H148.79V12.7528H146.921V18.3931H148.875V19.2483C148.875 19.5758 148.79 19.8062 148.621 19.9397C148.451 20.061 148.264 20.1217 148.06 20.1217H144.355V22.214H150.286V23.1601C150.286 23.4877 150.201 23.7181 150.031 23.8516C149.861 23.9729 149.674 24.0335 149.47 24.0335H136.011V22.214H141.942V20.1217H137.422V18.3931ZM141.789 18.3931H144.508V12.7528H141.789V18.3931Z" fill="#103A6A"/>
<path d="M116.102 14.8815C116.102 14.2872 116.209 13.7353 116.424 13.2259C116.64 12.7164 116.934 12.2797 117.308 11.9159C117.682 11.5519 118.124 11.2669 118.634 11.0607C119.143 10.8545 119.699 10.7514 120.299 10.7514C120.809 10.7514 121.285 10.8302 121.726 10.9879C122.168 11.1335 122.565 11.3457 122.916 11.6247C123.278 11.8916 123.585 12.213 123.834 12.5891C124.083 12.965 124.264 13.3835 124.377 13.8445H126.536V10.5695H129.595V10.6786C129.141 10.8727 128.915 11.273 128.915 11.8795V18.0111C128.915 18.4478 128.796 18.7752 128.558 18.9936C128.331 19.1998 127.964 19.3029 127.454 19.3029H126.536V15.5366H124.446C124.377 16.046 124.219 16.5191 123.97 16.9557C123.732 17.3803 123.431 17.7442 123.069 18.0474C122.706 18.3507 122.287 18.5872 121.811 18.757C121.347 18.9268 120.843 19.0118 120.299 19.0118C119.699 19.0118 119.143 18.9086 118.634 18.7024C118.124 18.4963 117.682 18.2112 117.308 17.8473C116.934 17.4834 116.64 17.0528 116.424 16.5555C116.209 16.046 116.102 15.488 116.102 14.8815ZM120.027 21.6136H126.536V20.0307H128.915V25.0706C128.915 25.5073 128.796 25.8287 128.558 26.0349C128.331 26.2533 127.964 26.3625 127.454 26.3625H117.648V20.0307H120.027V21.6136ZM118.481 14.8815C118.481 15.7064 118.656 16.3311 119.007 16.7556C119.37 17.1681 119.801 17.3742 120.299 17.3742C120.798 17.3742 121.222 17.1681 121.573 16.7556C121.936 16.3311 122.117 15.7064 122.117 14.8815C122.117 14.0567 121.936 13.4381 121.573 13.0257C121.222 12.6012 120.798 12.3889 120.299 12.3889C119.801 12.3889 119.37 12.6012 119.007 13.0257C118.656 13.4381 118.481 14.0567 118.481 14.8815ZM126.536 23.2511H120.027V24.7249H126.536V23.2511Z" fill="#103A6A"/>
<path d="M111.244 10.5695H114.303V10.6786C113.85 10.8727 113.623 11.273 113.623 11.8795V25.1616C113.623 25.5983 113.504 25.9197 113.267 26.1259C113.04 26.3443 112.672 26.4534 112.162 26.4534H111.244V10.5695ZM100.827 20.6493C101.733 20.3218 102.543 19.8851 103.257 19.3393C103.971 18.7813 104.571 18.1566 105.058 17.4652C105.557 16.7617 105.931 16.0157 106.18 15.2273C106.44 14.4389 106.571 13.6443 106.571 12.8437H101.15V11.0243H108.95V12.68C108.95 13.6382 108.78 14.5905 108.44 15.5366C108.101 16.4827 107.647 17.3621 107.081 18.1748C106.525 18.9754 105.886 19.6911 105.16 20.3218C104.435 20.9404 103.688 21.4074 102.917 21.7228C102.487 21.9047 102.124 21.9836 101.83 21.9593C101.546 21.9229 101.314 21.7107 101.133 21.3225L100.827 20.6493Z" fill="#103A6A"/>
<path d="M85.7728 10.7514H93.9976V12.4799H90.9553V12.9529V13.1895V13.2805C90.9553 14.2993 91.2107 15.1727 91.7206 15.9005C92.2416 16.6283 93.1255 17.2348 94.3716 17.72L94.0998 18.3932C93.9858 18.66 93.8051 18.848 93.5553 18.9572C93.318 19.0543 93.0178 19.03 92.6548 18.8844C92.1111 18.6782 91.6067 18.3932 91.1423 18.0292C90.678 17.6532 90.2647 17.2166 89.9017 16.7192C89.5285 17.3379 89.0751 17.8655 88.5424 18.3022C88.0215 18.7267 87.455 19.0421 86.8429 19.2483C86.4807 19.3817 86.186 19.3999 85.9598 19.3029C85.7327 19.1937 85.5575 18.9997 85.4326 18.7206L85.1096 18.0292C85.8238 17.8109 86.4013 17.538 86.8429 17.2105C87.2963 16.8708 87.6475 16.4949 87.8965 16.0824C88.1574 15.67 88.3326 15.2273 88.4238 14.7542C88.5141 14.2811 88.5597 13.7899 88.5597 13.2805V12.4799H85.7728V10.7514ZM86.9961 20.3036H98.3308V25.1616C98.3308 25.5983 98.2122 25.9197 97.9741 26.1259C97.7471 26.3443 97.3793 26.4534 96.8694 26.4534H95.9517V21.9957H86.9961V20.3036ZM93.4877 13.7899H95.9517V10.5695H99.0105V10.6786C98.5571 10.8727 98.3308 11.273 98.3308 11.8795V18.284C98.3308 18.7206 98.2122 19.0482 97.9741 19.2665C97.7471 19.4727 97.3793 19.5758 96.8694 19.5758H95.9517V15.482H93.4877V13.7899Z" fill="#103A6A"/>
<path d="M70.0215 22.3961H73.6582V20.5766C72.9104 20.3704 72.3213 19.9944 71.8908 19.4485C71.4603 18.8906 71.2451 18.2477 71.2451 17.5199C71.2451 17.059 71.33 16.6344 71.5 16.2463C71.6812 15.846 71.9305 15.5063 72.2477 15.2274C72.5762 14.9363 72.9671 14.7118 73.4203 14.5542C73.8734 14.3844 74.3776 14.2995 74.9327 14.2995C75.4878 14.2995 75.9919 14.3844 76.4451 14.5542C76.8982 14.7118 77.2835 14.9363 77.6007 15.2274C77.9292 15.5063 78.1785 15.846 78.3483 16.2463C78.5297 16.6344 78.6204 17.059 78.6204 17.5199C78.6204 18.2841 78.388 18.9452 77.9235 19.5031C77.4704 20.0611 76.8416 20.4371 76.0372 20.6312V22.3961H77.4307C78.0652 22.3961 78.688 22.3597 79.3001 22.2869C79.9121 22.2142 80.4213 22.111 80.8291 21.9776V10.5695H83.8887V10.6787C83.4353 10.8727 83.2082 11.2731 83.2082 11.8796V25.1617C83.2082 25.5984 83.0896 25.9198 82.8515 26.126C82.6252 26.3443 82.2567 26.4535 81.7468 26.4535H80.8291V23.5424C80.4213 23.7486 79.9231 23.9123 79.3339 24.0336C78.7564 24.1549 78.1218 24.2156 77.4307 24.2156H70.0215V22.3961ZM70.6503 11.8432H73.7431V10.1146H76.1223V11.8432H79.2152V13.5716H70.6503V11.8432ZM73.5392 17.5199C73.5392 17.9687 73.6525 18.363 73.879 18.7025C74.1056 19.0301 74.4568 19.1938 74.9327 19.1938C75.4085 19.1938 75.7596 19.0301 75.9862 18.7025C76.2128 18.363 76.3261 17.9687 76.3261 17.5199C76.3261 17.0711 76.2128 16.6829 75.9862 16.3555C75.7596 16.0158 75.4085 15.846 74.9327 15.846C74.4568 15.846 74.1056 16.0158 73.879 16.3555C73.6525 16.6829 73.5392 17.0711 73.5392 17.5199Z" fill="#103A6A"/>
<path d="M64.8575 10.5695H67.9163V10.6786C67.4632 10.8727 67.2366 11.273 67.2366 11.8795V15.3728H69.1738V17.1923H67.2366V25.1616C67.2366 25.5983 67.1176 25.9197 66.8797 26.1259C66.6531 26.3443 66.2849 26.4534 65.7751 26.4534H64.8575V10.5695ZM63.6509 21.6318C63.4923 21.8502 63.2884 21.9775 63.0391 22.0139C62.7899 22.0503 62.518 21.9472 62.2235 21.7046C61.725 21.3164 61.2265 20.8009 60.728 20.158C60.2295 19.5151 59.782 18.7934 59.3855 17.9929C59.0003 18.8298 58.5472 19.6 58.026 20.3036C57.5049 21.0072 56.9554 21.5651 56.3777 21.9775C56.0605 22.208 55.7829 22.3111 55.545 22.2868C55.307 22.2504 55.0918 22.117 54.8992 21.8865L54.3894 21.2497C54.9898 20.8009 55.5223 20.2915 55.9868 19.7214C56.4513 19.1392 56.8364 18.5266 57.1424 17.8837C57.4596 17.2408 57.6975 16.5798 57.8561 15.9005C58.026 15.2212 58.111 14.5602 58.111 13.9173V10.9333H60.5071V13.5897V13.8081V13.9173C60.5071 14.5965 60.5921 15.2637 60.762 15.9187C60.9433 16.5616 61.1925 17.1802 61.5097 17.7746C61.8383 18.3689 62.2235 18.9268 62.6653 19.4484C63.1071 19.97 63.5999 20.437 64.1437 20.8494L63.6509 21.6318Z" fill="#103A6A"/>
<defs>
<radialGradient id="paint0_radial_182_2283" cx="0" cy="0" r="1" gradientUnits="userSpaceOnUse" gradientTransform="translate(30.0046 33.3405) scale(12.0269 2.46856)">
<stop stop-color="#D1D1D2"/>
<stop offset="0.1" stop-color="#D1D1D2"/>
<stop offset="0.52" stop-color="#ECECED"/>
<stop offset="0.86" stop-color="white"/>
<stop offset="1" stop-color="white"/>
</radialGradient>
<linearGradient id="paint1_linear_182_2283" x1="21.071" y1="3.7308" x2="19.4721" y2="26.7285" gradientUnits="userSpaceOnUse">
<stop stop-color="#9AC717"/>
<stop offset="0.07" stop-color="#9AC717"/>
<stop offset="0.96" stop-color="#00A93A"/>
<stop offset="1" stop-color="#00A93A"/>
</linearGradient>
<linearGradient id="paint2_linear_182_2283" x1="31.4918" y1="65.7663" x2="34.2133" y2="26.6203" gradientUnits="userSpaceOnUse">
<stop stop-color="#9AC717"/>
<stop offset="0.07" stop-color="#9AC717"/>
<stop offset="0.96" stop-color="#00A93A"/>
<stop offset="1" stop-color="#00A93A"/>
</linearGradient>
<linearGradient id="paint3_linear_182_2283" x1="19.7905" y1="12.0537" x2="40.021" y2="8.49129" gradientUnits="userSpaceOnUse">
<stop stop-color="#F5A500"/>
<stop offset="0.25" stop-color="#F5A500"/>
<stop offset="0.33" stop-color="#F39901"/>
<stop offset="0.47" stop-color="#F17A04"/>
<stop offset="0.66" stop-color="#EC480A"/>
<stop offset="0.89" stop-color="#E60411"/>
<stop offset="0.9" stop-color="#E60012"/>
<stop offset="1" stop-color="#E60012"/>
</linearGradient>
<linearGradient id="paint4_linear_182_2283" x1="19.609" y1="20.6291" x2="42.2671" y2="16.7171" gradientUnits="userSpaceOnUse">
<stop stop-color="#F5A500"/>
<stop offset="0.25" stop-color="#F5A500"/>
<stop offset="0.33" stop-color="#F39901"/>
<stop offset="0.47" stop-color="#F17A04"/>
<stop offset="0.66" stop-color="#EC480A"/>
<stop offset="0.89" stop-color="#E60411"/>
<stop offset="0.9" stop-color="#E60012"/>
<stop offset="1" stop-color="#E60012"/>
</linearGradient>
</defs>
</svg>
