<svg width="249" height="44" viewBox="0 0 249 44" fill="none" xmlns="http://www.w3.org/2000/svg">
<path d="M93.8696 15.678V12.6362H81.663V14.3875H91.0188V16.6392C91.0188 17.7453 90.8739 18.7922 90.683 19.5691H79.2137V21.3204H86.1993V24.382H81.4984V26.1333H91.1899V31.2951H92.4804C93.5141 31.2951 94.0408 31.0383 94.0408 30.0705V24.382H89.0567V21.3204H96.3254V19.5691H93.1915C93.6194 18.4959 93.8762 17.0013 93.8762 15.6714L93.8696 15.678ZM70.1805 19.0884C70.1805 17.8177 69.6143 16.6721 68.6991 15.8557H70.6743V14.1044H66.7634V11.9909H63.9126V14.1044H60.0083V15.8557H61.9835C61.0749 16.6721 60.5021 17.8177 60.5021 19.0884C60.5021 21.5706 62.6682 23.5853 65.3347 23.5853C68.0012 23.5853 70.1674 21.5772 70.1674 19.0884H70.1805ZM63.3595 19.0884C63.3595 17.5412 64.2484 16.2837 65.3479 16.2837C66.4474 16.2837 67.3297 17.5412 67.3297 19.0884C67.3297 20.6357 66.4408 21.8932 65.3479 21.8932C64.255 21.8932 63.3595 20.6357 63.3595 19.0884ZM66.1709 25.2708H63.32V29.1553C63.32 30.505 64.1299 31.2754 65.5718 31.2754H75.4674V29.524H66.1709V25.2642V25.2708ZM75.3028 12.2016H72.452V26.3045H73.7424C74.7761 26.3045 75.3028 26.0543 75.3028 25.0799V18.3576H78.1537V16.6063H75.3028V12.2082V12.2016ZM217.187 17.5741C217.187 19.76 219.32 21.5245 221.947 21.5245C224.574 21.5245 226.714 19.7534 226.714 17.5741C226.714 16.6853 226.359 15.8689 225.76 15.2039H228.894V13.4526H223.376V11.5037H220.525V13.4526H215.008V15.2039H218.142C217.543 15.8623 217.187 16.6787 217.187 17.5741ZM221.941 15.3685C222.994 15.3685 223.844 16.3561 223.844 17.5676C223.844 18.779 222.994 19.7666 221.941 19.7666C220.887 19.7666 220.038 18.779 220.038 17.5676C220.038 16.3561 220.894 15.3685 221.941 15.3685ZM213.296 24.033H218.952C217.655 24.8297 216.812 26.1267 216.812 27.6015C216.812 30.0244 219.103 31.993 221.941 31.993C224.779 31.993 227.07 30.0244 227.07 27.6015C227.07 26.1333 226.227 24.8297 224.93 24.033H230.592V22.2817H213.29V24.033H213.296ZM221.941 24.9153C223.146 24.9153 224.127 26.1135 224.127 27.6015C224.127 29.0895 223.152 30.2812 221.941 30.2812C220.729 30.2812 219.762 29.0829 219.762 27.6015C219.762 26.1201 220.736 24.9153 221.941 24.9153ZM236.867 25.1259H239.718V22.3146H244.511V20.6488H232.752V22.3146H236.867V25.1259ZM239.711 29.524V26.0674H236.86V29.1487C236.86 30.4985 237.67 31.2688 239.112 31.2688H249.001V29.5174H239.704L239.711 29.524ZM238.513 19.9905C241.08 19.9905 243.161 18.1996 243.161 16.0006C243.161 13.8015 241.08 12.0107 238.513 12.0107C235.945 12.0107 233.878 13.7949 233.878 16.0006C233.878 18.2062 235.952 19.9905 238.513 19.9905ZM238.513 13.5052C239.507 13.5052 240.317 14.6179 240.317 15.994C240.317 17.37 239.507 18.4827 238.513 18.4827C237.518 18.4827 236.715 17.37 236.715 15.994C236.715 14.6179 237.525 13.5052 238.513 13.5052ZM241.759 24.9877H245.992V26.739H247.283C248.316 26.739 248.843 26.4822 248.843 25.5144V12.2016H245.992V23.3219H241.759V24.9877ZM188.106 15.9808H185.281C184.761 13.8279 182.727 12.228 180.297 12.228C177.473 12.228 175.182 14.3941 175.182 17.0672C175.182 19.7403 177.473 21.9064 180.297 21.9064C182.885 21.9064 185.018 20.0892 185.36 17.7322H188.106V22.1105H189.396C190.43 22.1105 190.957 21.8603 190.957 20.8859V12.2016H188.106V15.9808ZM180.297 20.076C179.106 20.076 178.138 18.7263 178.138 17.0606C178.138 15.3948 179.106 14.0451 180.297 14.0451C181.489 14.0451 182.457 15.3948 182.457 17.0606C182.457 18.7263 181.489 20.076 180.297 20.076ZM188.106 25.4881H181.746V23.3549H178.895V29.1553C178.895 30.505 179.705 31.2754 181.153 31.2754H190.957V23.3483H188.106V25.4815V25.4881ZM188.106 29.524H181.746V27.2328H188.106V29.524ZM130.575 24.1318C129.364 24.4939 127.29 24.6585 125.986 24.6585H124.808V22.8874C126.737 22.3343 128.133 20.6883 128.133 18.7395C128.133 17.6268 127.672 16.6129 126.921 15.8491H128.712V14.0978H124.808V11.9844H121.957V14.0978H118.053V15.8491H119.843C119.093 16.6195 118.632 17.6268 118.632 18.7395C118.632 20.6883 120.028 22.3343 121.957 22.8874V24.6585H117.941V26.4098H125.986C127.626 26.4098 129.509 26.1201 130.575 25.6724V31.2951H131.866C132.899 31.2951 133.426 31.0383 133.426 30.0705V12.195H130.575V24.1318ZM123.379 21.4587C122.332 21.4587 121.476 20.2472 121.476 18.7461C121.476 17.2449 122.326 16.0401 123.379 16.0401C124.432 16.0401 125.282 17.2515 125.282 18.7461C125.282 20.2406 124.432 21.4587 123.379 21.4587ZM104.7 16.0006V12.6362H101.77V16.0006C101.77 17.4754 101.56 21.2085 97.2077 23.3614L98.5969 24.7046C99.9598 24.1779 102.106 22.703 103.232 20.9912C104.358 22.703 106.504 24.1779 107.867 24.7046L109.25 23.3614C104.904 21.2085 104.694 17.4754 104.694 16.0006H104.7ZM113.154 12.2016H110.31V31.3017H111.594C112.627 31.3017 113.154 31.0449 113.154 30.0771V18.8712H116.005V17.1198H113.154V12.2016ZM162.738 12.8403H156.628V14.5916H162.718C162.494 18.4827 159.42 22.071 155.93 23.7433L157.319 25.0864C159.768 24.0396 165.839 20.5896 165.839 13.9727V12.8403H162.744H162.738ZM168.775 31.3017H170.066C171.099 31.3017 171.633 31.0449 171.633 30.0771V12.2016H168.782V31.3017H168.775ZM139.793 25.9753H149.642V31.2951H150.933C151.966 31.2951 152.493 31.0383 152.493 30.0705V24.2239H139.793V25.9753ZM149.642 16.3627H146.364V18.114H149.642V22.8216H150.933C151.966 22.8216 152.493 22.5648 152.493 21.5969V12.2016H149.642V16.3627ZM142.202 19.1806C143.295 20.8003 145.369 22.0381 146.759 22.5582L148.148 21.2151C143.967 19.2135 143.671 16.5273 143.671 14.3809H147.068V12.6296H137.344V14.3809H140.741C140.741 16.5273 140.438 19.2135 136.264 21.2151L137.653 22.5582C139.036 22.0381 141.116 20.8003 142.209 19.1806H142.202ZM201.024 24.9153H198.173V29.1487C198.173 30.4985 198.989 31.2688 200.424 31.2688H210.32V29.5174H201.024V24.9087V24.9153ZM210.156 25.0733V12.2016H207.305V26.3045H208.595C209.635 26.3045 210.156 26.0543 210.156 25.0799V25.0733ZM199.786 19.8983C200.892 21.5706 202.979 22.9466 204.428 23.447L205.817 22.1039C201.583 20.1155 201.261 16.5405 201.261 14.3875H204.737V12.6362H194.848V14.3875H198.324C198.324 16.5405 198.002 20.109 193.761 22.1039L195.151 23.447C196.599 22.9466 198.686 21.5706 199.792 19.8983H199.786Z" fill="white"/>
<path d="M21.5967 26.6929C23.9142 28.813 25.8499 31.1305 25.1454 35.0809C24.4278 39.0774 20.7473 41.0855 19.0355 40.4534C18.3573 40.2032 17.8175 39.4856 18.2257 38.4321C18.9762 36.503 20.9975 35.1599 22.999 34.5608C24.171 34.2052 24.3224 33.6456 23.7233 33.165C23.2097 32.737 22.209 32.3815 20.8988 32.3551C17.4224 32.2893 13.8012 35.68 14.8942 39.4592C15.5657 41.79 18.0808 43.4096 21.116 43.4952C24.6977 43.6137 28.8456 41.3883 29.8069 36.7466C30.8735 31.5651 27.3642 27.0748 23.2163 25.5802C20.5498 24.6322 20.7144 25.8831 21.5967 26.6995V26.6929Z" fill="white"/>
<path d="M41.3219 31.5782C42.2173 33.988 42.0132 36.5952 42.586 37.912C43.1522 39.1959 44.5875 39.5843 45.5949 38.814C46.7339 37.9318 46.7339 34.8439 46.4771 33.086C46.2401 31.519 45.1669 26.581 42.7045 25.6461C41.1573 25.0601 39.4191 25.9555 39.1492 27.0287C38.8858 28.1019 36.937 32.3222 36.1271 31.9996C35.8243 31.8745 35.0737 29.3331 34.7379 28.4048C34.3692 27.4172 32.9866 22.7952 31.9858 22.7162C31.2221 22.657 31.0246 25.0799 31.1892 27.1604C31.3472 28.9644 31.9661 34.9558 33.803 36.0553C35.6334 37.1483 39.5442 35.0677 41.3153 31.5782H41.3219Z" fill="white"/>
<path d="M29.5424 7.67845C31.6822 3.88609 33.1701 0.844301 31.5636 0.725789C30.2337 0.62703 23.0177 8.17225 22.1025 8.15908C21.1873 8.14592 17.2764 1.37102 15.9333 1.21959C12.8981 0.857469 19.3899 21.0373 22.6687 21.406C23.9197 21.5443 23.3008 17.4688 23.3008 16.8433C23.3008 15.994 23.3534 15.3883 24.2028 15.8031C25.4011 16.3956 30.4049 19.0885 31.0172 18.384C31.827 17.4688 27.7318 12.5638 27.7318 11.5564C27.7318 10.6873 28.3902 9.73923 29.5424 7.68504V7.67845ZM21.905 3.45813C22.7806 4.0046 23.946 3.74124 24.4925 2.86558C25.0389 1.98333 24.769 0.831133 23.8933 0.284664C23.0177 -0.261805 21.8589 0.00155349 21.3124 0.877221C20.7659 1.75289 21.0359 2.90508 21.9116 3.45155L21.905 3.45813Z" fill="white"/>
<path d="M16.9221 26.2321C16.5468 26.1333 16.1649 26.0214 15.7896 25.9094C15.862 24.0462 15.5263 19.8193 14.7362 19.4703C14.0844 19.1806 13.2219 21.5114 12.4976 24.698C9.87063 23.559 7.89544 22.2883 7.91519 21.7616C7.94811 21.1032 10.0352 20.0761 12.2211 19.1609C14.565 18.1667 17.3829 17.2647 16.9221 16.3364C16.0991 14.6838 8.41557 16.343 5.01825 18.6276C4.43886 19.016 3.98457 19.4835 3.68829 19.9971C3.58295 19.5493 3.313 19.1346 2.89821 18.8646C2.03571 18.2984 0.870353 18.542 0.304132 19.4045C-0.262088 20.2736 -0.0118977 21.4324 0.850601 21.9986C1.66701 22.5319 2.74678 22.3344 3.33934 21.5772C3.39201 22.1434 3.62903 22.7426 4.08991 23.3615C7.52015 27.9571 14.4267 30.3339 16.3295 30.538C17.9228 30.7092 19.0158 29.7611 19.0487 28.576C19.075 27.4303 18.3903 26.6403 16.9155 26.2584L16.9221 26.2321Z" fill="white"/>
<path d="M48.4192 7.30976C47.4184 7.06615 46.4045 7.68504 46.1675 8.68581C46.0885 9.02817 46.1082 9.37054 46.207 9.67998C46.2004 9.6734 46.1938 9.66023 46.1872 9.65365C43.1586 6.49993 37.2462 6.66453 34.0793 10.6347C32.3214 12.8271 32.5584 15.2171 33.7633 16.3825C34.5402 17.133 35.7187 17.5544 36.8907 17.6005C37.8783 17.6466 37.8585 17.3766 37.4306 16.9158C36.364 15.7767 36.4166 14.3809 37.0487 13.2024C38.4972 10.503 41.8286 9.93676 43.2771 11.5498C44.7651 13.209 43.6656 16.1323 40.7884 17.7519C38.3589 19.128 35.5739 18.6934 33.6448 17.9099C32.9337 18.937 33.0193 20.1682 33.3617 20.741C33.8686 21.6035 34.5994 22.0644 35.7714 22.5055C37.3647 23.1047 42.1842 22.9928 45.3971 19.7271C47.9715 17.1133 48.5575 13.3407 46.9707 10.6939C47.1419 10.8058 47.3328 10.898 47.5435 10.9441C48.5509 11.1877 49.5648 10.5622 49.8084 9.56147C50.0454 8.55413 49.4265 7.54678 48.4192 7.31634V7.30976Z" fill="white"/>
</svg>
