<svg width="210" height="47" viewBox="0 0 210 47" fill="none" xmlns="http://www.w3.org/2000/svg">
<path d="M38.7646 39.8405C30.3284 39.8405 23.4908 41.2398 23.4908 42.9629C23.4908 44.686 30.3284 46.0854 38.7646 46.0854C47.2008 46.0854 54.0384 44.686 54.0384 42.9629C54.0384 41.2398 47.1958 39.8405 38.7646 39.8405Z" fill="url(#paint0_radial_1272_74327)"/>
<path d="M37.1809 11.8526C39.1431 6.60368 36.1003 0.981215 30.8214 0.159509C22.5944 -1.12036 18.9789 7.84371 21.9569 13.1325C25.0147 18.5657 32.3602 20.005 32.415 28.4461C32.4449 33.9789 27.6641 36.4142 24.4968 36.2847C22.6541 36.21 21.3693 35.3734 21.2846 33.7648C20.9759 30.224 25.2786 29.5268 25.2786 29.5268C21.7976 29.4421 15.6074 30.2688 14.7558 35.6174C13.7498 41.9321 21.4589 44.2129 27.5943 39.8255C33.8294 35.3684 34.8801 28.9142 32.415 22.6245C31.3543 19.9203 28.6651 16.6285 27.0067 14.5668C25.687 12.9283 24.6213 10.4881 25.7169 8.20725C27.5495 4.38756 33.6949 3.7551 35.672 8.32677C36.2596 9.68632 36.2098 11.006 36.1999 11.4542C36.1949 11.7929 36.1849 12.0668 36.2397 12.2361C36.3891 12.7341 36.902 12.52 36.9967 12.3058C37.0963 12.0917 37.1062 12.0618 37.1859 11.8427L37.1809 11.8526Z" fill="url(#paint1_linear_1272_74327)"/>
<path d="M46.8472 0.0947746C44.6858 0.528038 42.0713 2.84874 42.0962 7.31085C42.0962 7.85367 42.2406 7.99809 42.3751 7.88853C42.4249 7.84371 42.5145 7.68435 42.5145 7.68435C42.5145 7.68435 43.2018 6.17042 45.144 5.06485C47.4896 3.7302 48.6001 4.67143 49.9995 3.30192C51.3939 1.94735 49.8053 -0.51279 46.8472 0.0947746Z" fill="url(#paint2_linear_1272_74327)"/>
<path d="M50.5523 10.0648C50.5523 10.0648 51.2943 9.48212 50.6967 8.73014C49.6709 7.60465 47.2506 8.88452 46.3392 10.4433C46.3392 10.4433 46.2496 10.5877 46.2844 10.7022C46.3043 10.762 46.3691 10.7919 46.4986 10.8168C47.151 10.9363 47.5045 11.1753 48.2814 11.6285C49.0633 12.0817 50.3979 13.1674 51.4686 12.2759C52.4896 11.4293 51.7376 10.0797 50.5623 10.0648H50.5523Z" fill="url(#paint3_linear_1272_74327)"/>
<path d="M21.6432 21.0807L21.688 21.0458V21.0259L21.6432 21.0807Z" fill="#666666"/>
<path d="M7.93316 16.9472L7.96802 16.8526C7.95308 16.8875 7.94312 16.9173 7.93316 16.9472Z" fill="#666666"/>
<path d="M10.1094 16.8875C10.0497 16.7182 10.0298 16.6285 9.86043 16.5488C9.72597 16.4791 9.53673 16.4194 9.35745 16.4144C9.05865 16.4094 8.65526 16.5588 8.41124 16.7281C8.5208 16.4443 8.63036 16.1504 8.72498 15.8616C8.80466 15.6226 8.9441 15.4383 9.04869 15.2092C9.23295 14.8058 9.42219 14.4273 9.63135 14.0389C9.80565 13.7102 9.99489 13.4214 10.1343 13.0927C10.2638 12.7889 10.5029 12.5947 10.6572 12.2959C10.712 12.2013 10.8714 12.0917 10.9162 11.9921C10.961 11.9074 11.2548 11.5887 11.2499 11.509C11.1104 11.4543 10.717 11.8875 10.6274 11.9772L10.6423 11.9323C10.5925 11.9921 10.4282 12.0917 10.3784 12.1515C10.2339 12.3307 10.1094 12.52 9.96999 12.6943C9.80565 12.9084 9.71103 13.0628 9.53175 13.262C9.36243 13.4513 9.12837 13.77 9.01383 13.9991C8.85446 14.3228 8.71502 14.5718 8.5208 14.8706C8.35646 15.1196 8.25686 15.3536 8.13236 15.6126C7.98794 15.9064 7.84352 16.1803 7.7738 16.4941C7.70408 16.7978 7.50487 17.0917 7.40029 17.3905C7.32061 17.6146 7.32559 17.8287 7.30069 18.0528C7.26085 18.4064 7.26085 18.7052 7.36543 19.0389C7.47499 19.3775 7.85348 19.6215 8.25188 19.5468C8.63036 19.4721 9.01383 19.1136 9.28773 18.8745C9.81561 18.4114 10.3236 17.51 10.1094 16.8925V16.8875ZM8.6951 18.4263C8.6204 18.5458 8.4959 18.7749 8.3216 18.8048C8.10248 18.8397 8.04272 18.6454 8.01782 18.511C7.95308 18.1873 8.0726 17.8387 8.18714 17.51L8.22698 17.3905C8.23196 17.3606 8.2469 17.3307 8.26184 17.3008L8.22698 17.3905C8.18714 17.5448 8.25188 17.6345 8.45108 17.6245C8.58056 17.6195 8.76482 17.4851 8.8694 17.5199C9.17319 17.6195 8.7947 18.2769 8.69012 18.4313L8.6951 18.4263Z" fill="#666666"/>
<path d="M22.0615 21.9721C22.191 21.8675 22.4749 21.7131 22.5446 21.9522C22.5695 22.0269 22.5047 22.1812 22.4749 22.251C22.45 22.3207 22.3404 22.4352 22.3454 22.5049C22.3553 22.5996 22.4848 22.6245 22.5545 22.6095C22.6741 22.5896 22.7488 22.5049 22.8384 22.4203C23.0227 22.241 23.0974 21.997 23.192 21.7579C23.2567 21.5836 23.2667 21.3396 23.1223 21.2201C22.9978 21.1205 22.7488 21.0807 22.5944 21.0956C22.445 21.1105 22.2358 21.2201 22.1462 21.3346C22.0267 21.2898 22.0665 21.2699 22.1014 21.1753C22.1213 21.1006 22.1014 21.0508 22.0167 21.0109C21.932 20.9711 21.7727 20.9761 21.688 21.0458C21.6631 21.1305 21.6581 21.2201 21.6432 21.3147C21.6083 21.499 21.5436 21.6832 21.4938 21.8625C21.434 22.0717 21.3095 22.2808 21.205 22.4701C21.5785 22.8635 21.8275 22.1563 22.0615 21.9721Z" fill="#666666"/>
<path d="M6.29971 15.9064C6.0507 15.7172 5.63238 15.6923 5.32362 15.6723H5.21904C5.29374 15.5777 5.36844 15.4831 5.44812 15.3984C5.63238 15.1793 5.74194 14.8407 5.83158 14.5817C5.89134 14.4124 5.96604 14.258 5.98098 14.0787C6.01584 13.7052 5.93616 13.3168 5.69214 13.013C5.50788 12.7839 5.22402 12.5947 4.91028 12.5598C4.83558 12.5548 4.71107 12.5698 4.62641 12.5598C4.53677 12.5598 4.44215 12.5598 4.35251 12.5648C3.85451 12.6196 3.31168 12.9433 3.09754 13.3268C2.96308 13.5708 2.97802 13.9642 3.21706 14.1485C3.35152 14.253 3.60053 14.4024 3.78479 14.3925C3.93419 14.3925 4.09853 14.258 4.04375 14.1036C4.02383 14.0339 3.93419 13.9493 3.89933 13.8795C3.85949 13.7999 3.81467 13.7351 3.80471 13.6455C3.78977 13.4712 4.15829 13.2969 4.34255 13.2521C4.58657 13.1923 4.98996 13.3317 5.13936 13.5309C5.19414 13.6106 5.22402 13.76 5.23398 13.8546C5.26386 14.2829 5.08458 14.7411 4.78577 15.0698C4.58657 15.2789 4.41725 15.498 4.21805 15.6823C4.16327 15.7321 4.11347 15.7769 4.05869 15.8217C3.85451 15.8915 3.66527 15.9562 3.46606 16.0558C3.35152 16.1106 3.23698 16.1654 3.1324 16.2451C2.97802 16.3596 2.79376 16.3795 2.75392 16.5787C2.72404 16.7231 2.79874 16.8277 2.93818 16.8725C3.05272 16.9124 3.13738 16.8825 3.24196 16.8626C3.3067 16.8476 3.34654 16.8626 3.41128 16.8327C3.54077 16.7779 3.66029 16.6733 3.78977 16.6086C3.94415 16.5389 4.10849 16.4791 4.26785 16.4194C4.62143 16.2949 5.10948 16.1654 5.49294 16.2451C5.97102 16.3447 5.91126 17.0618 5.82162 17.3905C5.79174 17.495 5.78178 17.6295 5.71704 17.744C5.66226 17.8486 5.56266 17.9283 5.51286 18.0329C5.44314 18.1574 5.39832 18.2869 5.3286 18.4114C5.16924 18.6803 4.97004 18.9293 4.79574 19.1883C4.66127 19.3875 4.47701 19.5468 4.30271 19.7261C4.16327 19.8655 4.03877 20.0448 3.90431 20.1892C3.68021 20.4233 3.42124 20.6275 3.18718 20.8516C3.00292 21.0309 2.84854 21.2251 2.64934 21.3894C2.34058 21.6534 2.07165 21.9522 1.73799 22.1912C1.61847 22.2809 1.46907 22.3356 1.35951 22.4352C1.12047 22.6593 0.866485 22.8635 0.587603 23.0528C0.288801 23.247 0.0099187 23.4761 -4.13751e-05 23.8296C-0.00502141 24.1683 0.428242 24.233 0.732024 24.3227C1.02585 24.4123 1.31469 24.253 1.55871 24.0886C1.78281 23.9392 1.97703 23.7549 2.20114 23.6055C2.27086 23.5557 2.35054 23.5308 2.42026 23.4761C2.51488 23.3964 2.57464 23.2868 2.66428 23.1972C2.75392 23.1075 2.86846 23.0478 2.96308 22.9681C3.09754 22.8536 3.24196 22.749 3.34654 22.6145C3.45112 22.485 3.57563 22.3904 3.68519 22.2609C3.86945 22.0468 4.10849 21.8775 4.29275 21.6584C4.56665 21.3396 4.83558 21.0109 5.08458 20.6723C5.34354 20.3237 5.54772 19.9552 5.79672 19.6066C5.99592 19.3277 6.11545 19.009 6.27481 18.7152C6.34951 18.5757 6.43417 18.4412 6.50887 18.3018C6.68317 17.9781 6.71305 17.6146 6.75289 17.266C6.76783 17.1365 6.78775 17.007 6.76285 16.8676C6.69811 16.499 6.63337 16.1554 6.30967 15.9064H6.29971Z" fill="#666666"/>
<path d="M11.3046 21.8077C11.0706 21.8775 10.8216 22.0866 10.5477 22.0567C10.4531 22.0468 10.3435 22.0069 10.2539 21.9721C10.0497 21.8924 10.0447 21.6982 10.0696 21.5438C10.0995 21.3745 10.1991 21.1653 10.2887 21.0159C10.3584 20.8914 10.478 20.7669 10.5776 20.6623C10.7768 20.4482 11.0058 20.254 11.2748 20.0996C11.6283 19.9004 12.1014 19.6265 12.5746 19.6514C12.7339 19.6613 12.8634 19.7261 12.958 19.8556C13.0028 19.9153 13.0626 20.1145 13.1423 20.1095L13.2419 20.0846C13.2767 20.0498 13.2917 19.9452 13.3066 19.9004L13.3415 19.8008C13.3465 19.7609 13.3365 19.736 13.3465 19.6962C13.3664 19.6364 13.3664 19.5667 13.3315 19.507C13.3116 19.4721 13.2817 19.4173 13.2269 19.3725C13.1124 19.2878 12.958 19.248 12.8335 19.1882C12.709 19.1285 12.5198 19.1484 12.3853 19.1534C12.1014 19.1733 11.8126 19.2281 11.5437 19.3127C10.1543 19.751 9.19809 20.8466 8.75486 21.9522C8.66024 22.1862 8.63036 22.485 8.7947 22.7191C8.96402 22.9581 9.29271 23.0029 9.59151 23.0428C9.81063 23.0677 10.1443 23.0527 10.3435 23.0029C10.5029 22.9631 10.6423 22.8984 10.7917 22.8486C10.9311 22.8037 10.9959 22.729 11.1353 22.6643C11.3993 22.5298 11.6084 22.3755 11.6781 22.1265C11.6981 22.0418 11.7628 21.9024 11.708 21.8277C11.6234 21.7131 11.4142 21.7928 11.3096 21.8227L11.3046 21.8077Z" fill="#666666"/>
<path d="M15.4929 22.0368C15.6672 21.8426 15.6672 22.1713 15.6273 22.2908C15.5327 22.5697 15.2638 22.6942 15.4779 22.744C15.6074 22.7739 15.8016 22.5896 15.8664 22.5199C16.0058 22.3705 16.0556 22.2211 16.1403 22.0418C16.21 21.8874 16.2847 21.753 16.3146 21.5837C16.3395 21.4442 16.3544 21.2898 16.2648 21.1803C16.1652 21.0608 16.0108 21.0956 15.8763 21.1703C15.8215 21.2002 15.7568 21.2301 15.707 21.2749L15.6472 21.3496L15.6124 21.2649C15.5875 21.1803 15.5178 21.1653 15.4431 21.1106C15.209 20.9611 14.97 21.1604 14.8106 21.3297C14.6413 21.2948 14.706 20.7719 14.3973 20.996C14.2728 21.0857 14.3176 21.2351 14.3375 21.3496C14.3773 21.6185 14.3076 21.8526 14.203 22.1165C14.1682 22.2211 14.1333 22.3854 14.1582 22.5C14.218 22.7739 14.472 22.3506 14.5417 22.2609C14.6064 22.1663 14.706 22.0568 14.7708 21.9621C14.8305 21.8725 14.8056 21.8526 14.9251 21.8376C15.0696 21.8177 15.0646 22.0368 15.0148 22.1663C14.96 22.3058 14.8355 22.6842 15.1094 22.5348C15.3186 22.4203 15.3584 22.2111 15.5078 22.0468L15.4929 22.0368Z" fill="#666666"/>
<path d="M20.8962 22.4402C20.9609 22.3904 21.0008 22.0617 21.0058 21.9771C21.0157 21.7779 21.1303 21.23 20.9012 21.1155L20.8265 21.1454C20.7667 20.8366 20.0745 21.1653 19.9151 21.25C19.5864 21.4292 19.188 21.8028 19.1084 22.1613C19.0187 22.5547 19.3474 22.7091 19.701 22.6344C20.0396 22.5647 20.2338 22.3257 20.5227 22.1962C20.6372 22.231 20.7418 22.5498 20.8962 22.4402ZM20.2388 21.9522C20.1591 22.0119 19.8803 22.2211 19.8205 22.0269C19.7807 21.8924 20.0446 21.6982 20.1342 21.6484C20.2687 21.5737 20.458 21.6185 20.5476 21.4641L20.5327 21.4542H20.5576L20.5476 21.4641H20.5526C20.5825 21.5438 20.4829 21.6882 20.443 21.748C20.3932 21.8227 20.3185 21.8924 20.2388 21.9522Z" fill="#666666"/>
<path d="M18.7 21.1802C18.5357 21.0757 18.3464 21.0657 18.1572 21.0607L18.2169 20.9761C18.2568 20.8864 18.4261 20.6573 18.1622 20.7022C17.958 20.737 18.0128 20.6872 17.8434 20.7719L17.8136 20.7818C17.6393 20.7968 17.5347 20.9312 17.4301 21.0458C17.191 21.0657 16.7926 21.1105 16.8175 21.2002C16.8275 21.245 16.9819 21.3147 17.0217 21.3346C17.0665 21.3545 17.1114 21.3645 17.1562 21.3695C17.0217 21.5488 16.8922 21.738 16.7926 21.8974C16.708 22.0269 16.6881 22.0866 16.6034 22.2161C16.5536 22.2958 16.5038 22.3705 16.454 22.4452C16.4142 22.4551 16.3743 22.4651 16.3494 22.48L16.3942 22.5448C16.3693 22.5846 16.3444 22.6195 16.3295 22.6593C16.2498 22.8237 16.1602 22.978 16.0855 23.1424C15.9709 23.4013 15.6572 24.1832 15.6174 24.3127C15.5676 24.4671 15.5028 24.7011 15.458 24.8555C15.3036 25.4083 15.1891 26.3645 15.1891 26.5139C15.1891 26.6633 15.204 26.8127 15.219 26.972C15.219 27.0268 15.2289 27.2908 15.3186 27.3107C15.4281 27.3306 15.4431 27.0866 15.4431 27.0318C15.458 26.7429 15.5626 25.9362 15.5974 25.8117C15.6373 25.6573 15.6871 25.4083 15.7419 25.2539C15.8315 25.0049 15.8913 24.7858 15.9809 24.5318C16.0905 24.223 16.2 24.0537 16.3245 23.7499C16.3843 23.6055 16.6383 23.1523 16.693 23.0278C16.708 22.988 16.7677 22.8834 16.8524 22.749C16.9022 22.7639 16.942 22.7739 16.962 22.7788C17.1412 22.8037 17.3255 22.7788 17.4998 22.7539C17.6741 22.7241 17.8584 22.7191 18.0177 22.6195C18.197 22.5149 18.3912 22.4452 18.5357 22.2908C18.705 22.1065 18.8693 21.8675 18.9341 21.6185C18.9639 21.5089 18.9341 21.4591 18.8793 21.3794C18.8345 21.3097 18.7697 21.2201 18.695 21.1703L18.7 21.1802ZM18.1671 22.002C17.9978 22.2111 17.6741 22.3506 17.4151 22.4053C17.2906 22.4302 17.1661 22.4452 17.0416 22.4651C17.2209 22.1912 17.445 21.8775 17.6442 21.6484C17.7239 21.5587 17.7936 21.479 17.8634 21.4043C17.953 21.4143 18.0377 21.4243 18.1124 21.4641C18.2269 21.5239 18.2717 21.5587 18.2916 21.6982C18.3016 21.8077 18.2319 21.9173 18.1671 21.997V22.002Z" fill="#666666"/>
<path d="M25.5824 20.6424C25.5426 20.6175 25.4778 20.747 25.4181 20.8416C25.2487 21.1155 24.9898 21.6982 24.3175 22.5398C24.2926 22.4502 24.1681 22.3356 24.1282 22.2709C24.0486 22.1414 23.9988 22.0119 23.9838 21.8675C23.9589 21.7281 23.949 21.5787 23.9539 21.4343C23.9539 21.3347 23.934 21.1604 23.8294 21.0906V21.0608C23.7647 21.001 23.68 21.0209 23.6352 21.0608C23.5456 21.1454 23.5605 21.3347 23.5456 21.4442C23.5207 21.5837 23.4759 21.7331 23.4808 21.8775C23.4808 21.9771 23.5207 22.0866 23.5406 22.1862C23.5605 22.2659 23.6004 22.3556 23.6751 22.4153C23.7498 22.485 23.8095 22.5548 23.9041 22.5946C23.9788 22.6245 24.1133 22.6793 24.2129 22.6643C24.1183 22.7739 24.0286 22.8884 23.9191 23.008C23.0227 24.0239 21.2398 25.3585 20.8265 25.6822C20.4131 26.0059 20.443 26.1205 20.7617 26.2201C21.0805 26.3197 21.3245 26.3645 22.6193 25.2241C24.5117 23.5707 25.2388 21.997 25.4778 21.5189C25.7119 21.0408 25.7119 20.7221 25.5874 20.6375L25.5824 20.6424Z" fill="#666666"/>
<path d="M13.5208 21.0906C13.3714 20.747 12.7439 21.2201 12.5995 21.3297C12.2409 21.6185 11.8026 22.1464 12.1164 22.6444C12.1513 22.6992 12.206 22.7838 12.2608 22.8237C12.3953 22.9282 12.5596 22.9083 12.704 22.9033C12.8734 22.8934 13.0427 22.8884 13.1921 22.8137C13.4012 22.7091 13.6004 22.5298 13.6751 22.2958C13.715 22.1713 13.7498 22.0418 13.7996 21.9223C13.8196 21.8675 13.8395 21.8177 13.8494 21.7629C13.8594 21.6633 13.8494 21.5637 13.8245 21.4691C13.7996 21.3346 13.7 20.9611 13.5158 21.0956L13.5208 21.0906ZM13.3863 21.753L13.3763 21.8177C13.3265 22.0866 13.1273 22.3755 12.8186 22.3057C12.6841 22.2709 12.6393 22.1763 12.6841 22.0468C12.7289 21.9024 12.8783 21.8426 13.0078 21.7729C13.0975 21.7181 13.2668 21.5836 13.3016 21.4791C13.3365 21.5089 13.3564 21.5538 13.3714 21.5936C13.3913 21.6434 13.3913 21.6982 13.3863 21.748V21.753Z" fill="#666666"/>
<path d="M14.0038 14.009C13.8594 13.9443 13.6353 13.8796 13.471 13.9094C13.2867 13.9393 13.1423 13.9443 12.9829 14.0339C12.714 14.1784 12.6194 14.2829 12.2907 14.5867C12.1562 14.7112 11.9122 14.8606 11.7279 14.8805C11.7628 14.6564 11.8524 14.2381 12.0018 14.009C12.1114 13.8347 12.1712 13.4861 12.3106 13.3019C12.3903 13.1923 12.4202 13.1076 12.4799 13.013C12.9032 12.769 13.3166 12.5399 13.7598 12.3158C14.0088 12.1913 14.1781 12.0818 14.4421 11.9921C14.6612 11.9224 14.8903 11.7879 15.1144 11.7182C15.3086 11.6535 15.5078 11.5788 15.697 11.514C16.1801 11.3497 16.4739 11.3198 16.8474 11.1953C17.1861 11.0858 17.4998 11.0409 17.8634 10.9712C18.0626 10.9314 18.2468 10.8816 18.461 10.8617C18.5805 10.8517 19.4072 10.8318 19.3374 10.7421C19.2129 10.5828 18.6801 10.5579 18.5606 10.5529C18.1373 10.5429 17.6492 10.5828 17.3006 10.6127C16.6134 10.6724 16.2 10.8069 15.5327 10.9862C14.8753 11.1555 14.203 11.3945 13.5905 11.6734C13.4909 11.7182 13.3813 11.7581 13.2718 11.7979C13.3813 11.5439 13.3415 11.4692 12.973 11.3895H12.9481C12.7389 11.3298 12.5248 11.524 12.4202 11.6933C12.3355 11.8328 12.2459 11.9672 12.1612 12.1116C12.1313 12.1714 12.0965 12.2411 12.0666 12.3158C11.9172 12.3855 11.7827 12.4553 11.6333 12.5499C11.3594 12.7192 11.0606 12.8586 10.8365 13.1027C10.7021 13.2521 10.4331 13.526 10.4481 13.76C10.4929 13.8945 10.5228 14.0339 10.712 14.0588C10.8863 14.0788 10.9909 13.9294 11.1154 13.8447C11.2598 13.7451 11.3893 13.6355 11.5437 13.5559C11.5138 13.6355 11.4839 13.7152 11.454 13.77C11.3744 13.9543 11.3495 14.0389 11.2847 14.2381C11.1851 14.5519 11.0756 14.6465 11.1005 14.9851C11.1453 15.6574 11.9172 15.7819 12.5098 15.2989C12.6393 15.1943 12.6343 15.0947 12.7787 15.0001C12.9182 14.9154 13.1323 14.8556 13.2269 15.0399C13.3564 15.2839 13.1273 15.767 13.0228 15.9911C12.9481 16.1455 12.6443 16.7132 12.3256 17.0668C12.1662 17.2411 12.3654 17.5449 12.7688 17.505C13.0128 17.4801 13.3166 17.0767 13.4212 16.9024C13.6204 16.5688 13.8893 16.2003 14.0088 15.8268C14.1084 15.4981 14.1731 15.259 14.2329 14.9154C14.2877 14.6166 14.2976 14.1485 13.9939 14.014L14.0038 14.009Z" fill="#666666"/>
<path d="M10.4929 17.9682C10.4033 18.1375 10.4431 18.4662 10.8017 18.3964C11.1602 18.3267 11.469 17.6893 10.8116 17.6644L10.8465 17.8038C10.7967 17.6096 10.5128 17.9333 10.4929 17.9731V17.9682Z" fill="#666666"/>
<path d="M10.468 13.3865L10.4531 13.3068L10.4331 13.262L10.468 13.3865Z" fill="#666666"/>
<path d="M53.8591 24.8505C52.1708 23.4611 50.3681 24.9551 49.2675 25.8117C48.7197 26.245 48.4109 26.1155 48.2266 25.9013C48.0474 25.6872 47.8033 25.2589 47.2904 25.2141C46.0006 25.0896 45.6968 26.2201 44.8352 27.5099C43.5852 29.3774 40.906 29.9451 39.1082 28.8794C37.7586 28.0776 37.1012 26.8874 36.8124 26.1902C43.1121 25.6673 47.7735 23.6055 48.5105 18.2819C49.2376 13.0429 43.2217 11.3297 38.9687 13.4861C34.6511 15.6723 34.1132 20.5329 34.7606 23.252C35.0544 23.1623 35.5823 23.0478 35.9708 22.9233C36.0006 19.1584 37.3702 17.7689 39.1928 17.0916C42.1261 16.011 44.2028 18.003 42.8133 20.1096C40.662 23.3665 34.5415 24.228 30.3682 24.9651C27.2706 25.5129 21.8026 26.0258 18.6751 29.4471C19.7807 28.7449 20.9759 28.1573 26.3244 27.3904C31.4589 26.6533 32.3553 26.8575 35.5923 26.3844C36.6929 29.3874 39.7656 34.9351 47.7685 33.3963C52.9427 32.4003 54.626 29.6613 54.7804 27.5248C54.87 26.2649 54.3869 25.2739 53.8591 24.8406V24.8505Z" fill="url(#paint4_linear_1272_74327)"/>
<path d="M194.752 25.4326H209.135V30.4171H197.823V31.6982H209.567V32.0941C209.567 32.6531 209.416 33.0646 209.113 33.3286C208.825 33.6081 208.356 33.7479 207.707 33.7479H194.795V28.6935H206.107V27.4823H194.752V25.4326ZM203.295 15.7898H196.331V17.6764H202.322V19.6329H196.331V21.6826H204.16V22.1718C204.16 22.7308 204.009 23.15 203.706 23.4295C203.418 23.6935 202.949 23.8255 202.3 23.8255H193.26V13.6469H203.295V15.7898ZM203.403 17.56H206.107V13.5305H210V13.6702C209.423 13.9187 209.135 14.4311 209.135 15.2075V22.9637C209.135 23.5227 208.983 23.942 208.681 24.2215C208.392 24.4854 207.924 24.6174 207.275 24.6174H206.107V19.6795H203.403V17.56Z" fill="#103A6A"/>
<path d="M174.9 23.546H177.387V16.3255H175.008V14.1128H189.369V16.3255H186.99V23.546H189.477V24.6407C189.477 25.06 189.369 25.355 189.153 25.5258C188.937 25.6811 188.699 25.7588 188.439 25.7588H183.724V28.4373H191.272V29.6485C191.272 30.0678 191.164 30.3628 190.948 30.5336C190.732 30.6889 190.494 30.7665 190.234 30.7665H173.105V28.4373H180.653V25.7588H174.9V23.546ZM180.458 23.546H183.919V16.3255H180.458V23.546Z" fill="#103A6A"/>
<path d="M147.766 19.0506C147.766 18.2898 147.903 17.5833 148.177 16.9311C148.451 16.2789 148.826 15.7199 149.302 15.2541C149.777 14.7882 150.34 14.4233 150.989 14.1593C151.637 13.8954 152.344 13.7634 153.108 13.7634C153.757 13.7634 154.363 13.8643 154.925 14.0662C155.487 14.2525 155.992 14.5242 156.439 14.8814C156.9 15.223 157.29 15.6345 157.607 16.1159C157.924 16.5972 158.155 17.1329 158.299 17.723H161.046V13.5305H164.939V13.6702C164.362 13.9187 164.074 14.4311 164.074 15.2075V23.0569C164.074 23.6159 163.922 24.0351 163.62 24.3146C163.331 24.5786 162.863 24.7106 162.214 24.7106H161.046V19.8892H158.386C158.299 20.5413 158.097 21.1469 157.78 21.7059C157.477 22.2494 157.095 22.7152 156.634 23.1034C156.172 23.4916 155.639 23.7944 155.033 24.0118C154.442 24.2292 153.8 24.3379 153.108 24.3379C152.344 24.3379 151.637 24.2059 150.989 23.9419C150.34 23.678 149.777 23.3131 149.302 22.8472C148.826 22.3814 148.451 21.8301 148.177 21.1935C147.903 20.5413 147.766 19.827 147.766 19.0506ZM152.762 27.6687H161.046V25.6423H164.074V32.0941C164.074 32.6531 163.922 33.0646 163.62 33.3286C163.331 33.6081 162.863 33.7479 162.214 33.7479H149.734V25.6423H152.762V27.6687ZM150.794 19.0506C150.794 20.1065 151.017 20.9062 151.464 21.4497C151.926 21.9777 152.474 22.2416 153.108 22.2416C153.743 22.2416 154.283 21.9777 154.73 21.4497C155.192 20.9062 155.422 20.1065 155.422 19.0506C155.422 17.9947 155.192 17.2028 154.73 16.6749C154.283 16.1314 153.743 15.8596 153.108 15.8596C152.474 15.8596 151.926 16.1314 151.464 16.6749C151.017 17.2028 150.794 17.9947 150.794 19.0506ZM161.046 29.7649H152.762V31.6516H161.046V29.7649Z" fill="#103A6A"/>
<path d="M141.583 13.5305H145.476V13.6702C144.899 13.9187 144.611 14.4311 144.611 15.2075V32.2106C144.611 32.7696 144.459 33.1811 144.157 33.4451C143.868 33.7246 143.4 33.8643 142.751 33.8643H141.583V13.5305ZM128.325 26.4342C129.478 26.0149 130.509 25.4559 131.418 24.7572C132.326 24.0429 133.09 23.2432 133.71 22.3581C134.345 21.4575 134.821 20.5025 135.138 19.4932C135.469 18.4839 135.635 17.4668 135.635 16.4419H128.736V14.1128H138.663V16.2323C138.663 17.459 138.447 18.678 138.014 19.8892C137.582 21.1003 137.005 22.2261 136.284 23.2665C135.577 24.2913 134.763 25.2075 133.84 26.0149C132.917 26.8069 131.966 27.4047 130.985 27.8084C130.437 28.0413 129.976 28.1423 129.601 28.1112C129.24 28.0646 128.945 27.7929 128.714 27.296L128.325 26.4342Z" fill="#103A6A"/>
<path d="M109.165 13.7634H119.633V15.9761H115.761V16.5817V16.8845V17.001C115.761 18.3053 116.086 19.4233 116.735 20.355C117.398 21.2867 118.523 22.0631 120.109 22.6842L119.763 23.546C119.618 23.8876 119.388 24.1283 119.07 24.268C118.768 24.3923 118.386 24.3612 117.924 24.1749C117.232 23.9109 116.59 23.546 115.999 23.0801C115.408 22.5988 114.882 22.0398 114.42 21.4031C113.945 22.1951 113.368 22.8705 112.69 23.4295C112.027 23.973 111.306 24.3767 110.527 24.6407C110.066 24.8115 109.691 24.8348 109.403 24.7106C109.114 24.5708 108.891 24.3224 108.732 23.9652L108.321 23.0801C109.23 22.8006 109.965 22.4513 110.527 22.032C111.104 21.5972 111.551 21.1159 111.868 20.5879C112.2 20.06 112.423 19.4932 112.539 18.8876C112.654 18.282 112.712 17.6531 112.712 17.001V15.9761H109.165V13.7634ZM110.722 25.9916H125.148V32.2106C125.148 32.7696 124.997 33.1811 124.694 33.4451C124.405 33.7246 123.937 33.8643 123.288 33.8643H122.12V28.1578H110.722V25.9916ZM118.984 17.6531H122.12V13.5305H126.013V13.6702C125.436 13.9187 125.148 14.4311 125.148 15.2075V23.4062C125.148 23.9652 124.997 24.3845 124.694 24.664C124.405 24.928 123.937 25.06 123.288 25.06H122.12V19.8193H118.984V17.6531Z" fill="#103A6A"/>
<path d="M89.1179 28.6703H93.7464V26.3411C92.7947 26.0771 92.0449 25.5958 91.497 24.897C90.9491 24.1827 90.6752 23.3597 90.6752 22.4281C90.6752 21.838 90.7833 21.2945 90.9996 20.7976C91.2303 20.2852 91.5475 19.8504 91.9512 19.4933C92.3694 19.1206 92.8668 18.8333 93.4436 18.6315C94.0203 18.4141 94.662 18.3054 95.3685 18.3054C96.075 18.3054 96.7166 18.4141 97.2934 18.6315C97.8701 18.8333 98.3604 19.1206 98.7641 19.4933C99.1823 19.8504 99.4995 20.2852 99.7157 20.7976C99.9465 21.2945 100.062 21.838 100.062 22.4281C100.062 23.4063 99.7662 24.2526 99.175 24.9669C98.5983 25.6812 97.798 26.1625 96.7743 26.411V28.6703H98.5478C99.3553 28.6703 100.148 28.6237 100.927 28.5305C101.706 28.4374 102.354 28.3054 102.873 28.1346V13.5305H106.767V13.6703C106.19 13.9187 105.901 14.4312 105.901 15.2076V32.2107C105.901 32.7697 105.75 33.1812 105.447 33.4451C105.159 33.7246 104.69 33.8644 104.041 33.8644H102.873V30.1377C102.354 30.4017 101.72 30.6113 100.97 30.7666C100.235 30.9219 99.4274 30.9995 98.5478 30.9995H89.1179V28.6703ZM89.9182 15.161H93.8545V12.9482H96.8825V15.161H100.819V17.3737H89.9182V15.161ZM93.595 22.4281C93.595 23.0026 93.7392 23.5073 94.0275 23.942C94.3159 24.3613 94.7629 24.5709 95.3685 24.5709C95.9741 24.5709 96.421 24.3613 96.7094 23.942C96.9978 23.5073 97.142 23.0026 97.142 22.4281C97.142 21.8535 96.9978 21.3566 96.7094 20.9374C96.421 20.5026 95.9741 20.2852 95.3685 20.2852C94.7629 20.2852 94.3159 20.5026 94.0275 20.9374C93.7392 21.3566 93.595 21.8535 93.595 22.4281Z" fill="#103A6A"/>
<path d="M82.5455 13.5305H86.4385V13.6702C85.8618 13.9187 85.5734 14.4311 85.5734 15.2075V19.6795H88.039V22.0087H85.5734V32.2106C85.5734 32.7696 85.422 33.1811 85.1192 33.4451C84.8308 33.7246 84.3622 33.8643 83.7134 33.8643H82.5455V13.5305ZM81.0099 27.692C80.808 27.9715 80.5485 28.1345 80.2312 28.1811C79.914 28.2277 79.568 28.0957 79.1931 27.7851C78.5587 27.2882 77.9242 26.6283 77.2898 25.8053C76.6554 24.9823 76.0858 24.0584 75.5812 23.0336C75.0909 24.105 74.5142 25.091 73.8509 25.9916C73.1877 26.8923 72.4883 27.6065 71.753 28.1345C71.3493 28.4295 70.996 28.5615 70.6932 28.5305C70.3904 28.4839 70.1164 28.3131 69.8713 28.018L69.2225 27.2028C69.9867 26.6283 70.6644 25.9761 71.2555 25.2463C71.8467 24.501 72.3369 23.7168 72.7263 22.8938C73.13 22.0708 73.4328 21.2246 73.6346 20.355C73.8509 19.4854 73.9591 18.6392 73.9591 17.8162V13.9963H77.0086V17.3969V17.6764V17.8162C77.0086 18.6857 77.1168 19.5398 77.3331 20.3783C77.5638 21.2013 77.881 21.9932 78.2847 22.7541C78.7029 23.5149 79.1931 24.2292 79.7554 24.8969C80.3178 25.5646 80.945 26.1624 81.6371 26.6904L81.0099 27.692Z" fill="#103A6A"/>
<defs>
<radialGradient id="paint0_radial_1272_74327" cx="0" cy="0" r="1" gradientUnits="userSpaceOnUse" gradientTransform="translate(38.1871 42.6809) scale(15.3069 3.16013)">
<stop stop-color="#D1D1D2"/>
<stop offset="0.1" stop-color="#D1D1D2"/>
<stop offset="0.52" stop-color="#ECECED"/>
<stop offset="0.86" stop-color="white"/>
<stop offset="1" stop-color="white"/>
</radialGradient>
<linearGradient id="paint1_linear_1272_74327" x1="26.8171" y1="4.77599" x2="24.7585" y2="34.2148" gradientUnits="userSpaceOnUse">
<stop stop-color="#9AC717"/>
<stop offset="0.07" stop-color="#9AC717"/>
<stop offset="0.96" stop-color="#00A93A"/>
<stop offset="1" stop-color="#00A93A"/>
</linearGradient>
<linearGradient id="paint2_linear_1272_74327" x1="40.0808" y1="84.1906" x2="43.5849" y2="34.0808" gradientUnits="userSpaceOnUse">
<stop stop-color="#9AC717"/>
<stop offset="0.07" stop-color="#9AC717"/>
<stop offset="0.96" stop-color="#00A93A"/>
<stop offset="1" stop-color="#00A93A"/>
</linearGradient>
<linearGradient id="paint3_linear_1272_74327" x1="25.1878" y1="15.4305" x2="50.9447" y2="10.9213" gradientUnits="userSpaceOnUse">
<stop stop-color="#F5A500"/>
<stop offset="0.25" stop-color="#F5A500"/>
<stop offset="0.33" stop-color="#F39901"/>
<stop offset="0.47" stop-color="#F17A04"/>
<stop offset="0.66" stop-color="#EC480A"/>
<stop offset="0.89" stop-color="#E60411"/>
<stop offset="0.9" stop-color="#E60012"/>
<stop offset="1" stop-color="#E60012"/>
</linearGradient>
<linearGradient id="paint4_linear_1272_74327" x1="24.9571" y1="26.4083" x2="53.8043" y2="21.4566" gradientUnits="userSpaceOnUse">
<stop stop-color="#F5A500"/>
<stop offset="0.25" stop-color="#F5A500"/>
<stop offset="0.33" stop-color="#F39901"/>
<stop offset="0.47" stop-color="#F17A04"/>
<stop offset="0.66" stop-color="#EC480A"/>
<stop offset="0.89" stop-color="#E60411"/>
<stop offset="0.9" stop-color="#E60012"/>
<stop offset="1" stop-color="#E60012"/>
</linearGradient>
</defs>
</svg>
