<svg width="152" height="64" viewBox="0 0 152 64" fill="none" xmlns="http://www.w3.org/2000/svg">
<path d="M19 10L13 16L19 22" stroke="#222222" stroke-width="2"/>
<path d="M53 10L59 16L53 22" stroke="#222222" stroke-width="2"/>
<path fill-rule="evenodd" clip-rule="evenodd" d="M93 10V22H95V10H93ZM97 10V22H99V10H97Z" fill="#222222"/>
<path d="M133 10L139 16L133 22" stroke="#222222" stroke-width="2"/>
<path d="M19 42L13 48L19 54" stroke="white" stroke-width="2"/>
<path d="M53 42L59 48L53 54" stroke="white" stroke-width="2"/>
<path fill-rule="evenodd" clip-rule="evenodd" d="M93 42V54H95V42H93ZM97 42V54H99V42H97Z" fill="white"/>
<path d="M133 42L139 48L133 54" stroke="white" stroke-width="2"/>
</svg>
