<svg width="44" height="44" viewBox="0 0 44 44" fill="none" xmlns="http://www.w3.org/2000/svg">
<path d="M37.3942 29.2774C37.2823 29.2774 37.1563 29.2494 37.0584 29.1934L28.8993 24.6171C28.7314 24.5191 28.6054 24.3652 28.5634 24.1832C28.5215 24.0013 28.5495 23.8054 28.6474 23.6374C29.2632 22.6718 29.5851 21.5662 29.5851 20.4186C29.5851 17.1158 26.8981 14.4288 23.5953 14.4288C23.2034 14.4288 22.8955 14.1209 22.8955 13.729V4.36643C22.8955 3.97458 23.2034 3.66669 23.5953 3.66669C32.8179 3.66669 40.3332 11.182 40.3332 20.4046C40.3332 23.4135 39.5215 26.3525 37.996 28.9275C37.8701 29.1514 37.6322 29.2774 37.3942 29.2774ZM30.2009 23.7354L37.1423 27.626C38.3179 25.4148 38.9477 22.9377 38.9477 20.4046C38.9477 12.1756 32.44 5.44404 24.309 5.08017V13.0433C28.0596 13.3932 30.9986 16.57 30.9986 20.4046C30.9846 21.5662 30.7187 22.6998 30.2009 23.7354Z" fill="#8CC8FF"/>
<path d="M25.4285 39.6336C25.2606 39.6336 25.0927 39.5776 24.9667 39.4657C24.8268 39.3397 24.7428 39.1718 24.7288 38.9759L24.253 30.327C24.239 29.9631 24.5049 29.6412 24.8687 29.5993C26.5201 29.4033 27.9756 28.4937 28.8713 27.0802C29.0672 26.7723 29.4871 26.6603 29.8089 26.8423L37.3662 31.0827C37.5341 31.1807 37.6461 31.3346 37.7021 31.5166C37.7441 31.6985 37.7301 31.8944 37.6321 32.0484C35.057 36.4008 30.5087 39.2278 25.4845 39.6336C25.4705 39.6336 25.4425 39.6336 25.4285 39.6336ZM25.6805 30.8728L26.0863 38.1642C30.1308 37.6323 33.7695 35.3652 36.0367 31.9504L29.669 28.3817C28.6754 29.6552 27.2759 30.5369 25.6805 30.8728Z" fill="#8CC8FF"/>
<path d="M20.8383 38.7379C11.3777 38.7379 3.6665 31.0407 3.6665 21.5662C3.6665 12.0916 11.3777 4.39441 20.8383 4.39441C21.2301 4.39441 21.538 4.7023 21.538 5.09415V14.6947C21.538 15.0865 21.2301 15.3944 20.8383 15.3944C17.4375 15.3944 14.6665 18.1654 14.6665 21.5662C14.6665 24.9669 17.4375 27.7379 20.8383 27.7379C21.0622 27.7379 21.3141 27.7239 21.552 27.6959C21.7479 27.6679 21.9299 27.7379 22.0838 27.8499C22.2378 27.9758 22.3217 28.1578 22.3357 28.3397L22.8675 37.9262C22.8815 38.3041 22.6016 38.626 22.2238 38.6679C21.7339 38.7239 21.2861 38.7379 20.8383 38.7379ZM20.1385 5.8079C11.7696 6.17176 5.06599 13.0992 5.06599 21.5662C5.06599 30.271 12.1474 37.3384 20.8383 37.3384C21.0342 37.3384 21.2301 37.3384 21.426 37.3244L20.9782 29.1374C20.9362 29.1374 20.8942 29.1374 20.8523 29.1374C16.6818 29.1374 13.281 25.7366 13.281 21.5662C13.281 17.6196 16.3039 14.3728 20.1525 14.0229V5.8079H20.1385Z" fill="#8CC8FF"/>
</svg>
