<svg width="44" height="44" viewBox="0 0 44 44" fill="none" xmlns="http://www.w3.org/2000/svg">
<path d="M36.5895 36.7811C36.2025 36.7811 35.8984 36.4735 35.8984 36.082V30.9506C35.8984 30.5591 36.2025 30.2515 36.5895 30.2515C36.9764 30.2515 37.2805 30.5591 37.2805 30.9506V36.082C37.2805 36.4735 36.9626 36.7811 36.5895 36.7811Z" fill="#8CC8FF"/>
<path d="M31.766 37.522H8.68576C7.92563 37.522 7.30371 36.9627 7.30371 36.2636V23.1064C7.30371 22.7149 7.60776 22.4073 7.99474 22.4073C8.38171 22.4073 8.68576 22.7149 8.68576 23.1064V36.1238H31.766V23.0086C31.766 22.6171 32.0701 22.3094 32.457 22.3094C32.844 22.3094 33.1481 22.6171 33.1481 23.0086V36.2636C33.1481 36.9627 32.5261 37.522 31.766 37.522Z" fill="#8CC8FF"/>
<path d="M33.4104 23.7496C32.0974 23.7496 30.8536 22.9666 30.0796 21.7781C29.3471 22.9806 28.2 23.7496 26.9285 23.7496C25.6156 23.7496 24.3718 22.9666 23.5978 21.7781C22.8653 22.9806 21.7182 23.7496 20.4467 23.7496C19.1338 23.7496 17.8899 22.9666 17.116 21.7781C16.3835 22.9806 15.2364 23.7496 13.9649 23.7496C12.652 23.7496 11.4081 22.9666 10.6342 21.7781C9.90169 22.9806 8.75459 23.7496 7.4831 23.7496C5.70026 23.7496 4.13854 22.2535 3.68246 20.1003C3.65482 19.9884 3.66864 19.8906 3.68246 19.7787L6.00431 10.7183C6.18397 10.0332 6.84736 9.51581 7.5522 9.51581H11.035C11.4219 9.51581 11.726 9.82342 11.726 10.2149C11.726 10.6064 11.4219 10.914 11.035 10.914H7.53838C7.46928 10.914 7.3449 11.0119 7.33108 11.0678L5.05069 19.9465C5.3962 21.3587 6.37746 22.3374 7.46928 22.3374C8.60256 22.3374 9.59764 21.2888 9.91551 19.7927C9.98461 19.4711 10.261 19.2334 10.5927 19.2334C10.9244 19.2334 11.2008 19.4571 11.2699 19.7927C11.574 21.2189 12.7487 22.3374 13.9511 22.3374C15.0706 22.3374 16.0795 21.2888 16.3973 19.7927C16.4664 19.4711 16.7428 19.2334 17.0745 19.2334C17.4062 19.2334 17.6826 19.4571 17.7517 19.7927C18.0558 21.2189 19.2305 22.3374 20.4329 22.3374C21.5524 22.3374 22.5613 21.2888 22.8791 19.7927C22.9482 19.4711 23.2247 19.2334 23.5563 19.2334C23.888 19.2334 24.1644 19.4571 24.2335 19.7927C24.5376 21.2189 25.7123 22.3374 26.9147 22.3374C28.0342 22.3374 29.0431 21.2888 29.361 19.7927C29.4301 19.4711 29.7065 19.2334 30.0382 19.2334C30.3699 19.2334 30.6463 19.4571 30.7154 19.7927C31.0194 21.2189 32.1942 22.3374 33.3965 22.3374C34.4884 22.3374 35.4558 21.3587 35.8151 19.9465L33.5071 11.0538C33.4933 10.9979 33.3689 10.9 33.2998 10.9H29.4162C29.0293 10.9 28.7252 10.5924 28.7252 10.2009C28.7252 9.80944 29.0293 9.50183 29.4162 9.50183H33.2998C33.9908 9.50183 34.6542 10.0192 34.8339 10.6903L37.1834 19.7507C37.211 19.8626 37.211 19.9745 37.1972 20.0723C36.7549 22.2396 35.1932 23.7496 33.4104 23.7496Z" fill="#8CC8FF"/>
<path d="M26.6377 11.865H13.8122C13.0521 11.865 12.4302 11.2358 12.4302 10.4668V7.26485C12.4302 6.49583 13.0521 5.86664 13.8122 5.86664H26.6377C27.3978 5.86664 28.0197 6.49583 28.0197 7.26485V10.4668C28.0197 11.2358 27.3978 11.865 26.6377 11.865ZM13.8122 7.26485V10.4668H26.6377V7.26485H13.8122Z" fill="#8CC8FF"/>
<path d="M18.6358 31.7474H12.3889C11.7946 31.7474 11.3662 31.1602 11.3662 30.3492V27.1473C11.3662 26.3363 11.7946 25.7491 12.3889 25.7491H18.6358C19.2301 25.7491 19.6585 26.3363 19.6585 27.1473V30.3492C19.6585 31.1602 19.2301 31.7474 18.6358 31.7474ZM12.7344 30.3492H18.2765V27.1473H12.7344V30.3492Z" fill="#8CC8FF"/>
<path d="M23.0314 35.8725C22.6444 35.8725 22.3403 35.5649 22.3403 35.1734V29.8042C22.3403 29.0352 23.0175 28.406 23.8468 28.406H27.3019C28.1311 28.406 28.8083 29.0352 28.8083 29.8042V35.1035C28.8083 35.495 28.5043 35.8026 28.1173 35.8026C27.7303 35.8026 27.4263 35.495 27.4263 35.1035V29.8462C27.4125 29.8322 27.371 29.8042 27.3019 29.8042H23.8468C23.7777 29.8042 23.7362 29.8322 23.7224 29.8462V35.1734C23.7224 35.5649 23.4183 35.8725 23.0314 35.8725Z" fill="#8CC8FF"/>
<path d="M36.5884 31.6497H36.5745C35.538 31.6218 34.6673 31.1883 34.1283 30.4053C33.5479 29.5804 33.4373 28.4618 33.8104 27.3432C35.0681 23.4981 35.8835 22.9528 36.5745 22.9249C36.5884 22.9249 36.616 22.9249 36.6298 22.9249C37.3209 22.9528 38.1363 23.5121 39.3939 27.3432C39.7671 28.4618 39.6427 29.5804 39.0761 30.4053C38.5371 31.1883 37.6664 31.6218 36.6298 31.6497C36.6022 31.6497 36.5884 31.6497 36.5884 31.6497ZM36.5884 24.421C36.3672 24.6866 35.8697 25.4836 35.1096 27.7906C34.8746 28.4898 34.9299 29.1469 35.2478 29.6083C35.5242 30.0138 36.0079 30.2375 36.5884 30.2515C37.1688 30.2375 37.6387 29.9998 37.929 29.6083C38.2468 29.1469 38.3021 28.4898 38.0672 27.7906C37.307 25.4836 36.8095 24.6866 36.5884 24.421Z" fill="#8CC8FF"/>
</svg>
