<svg width="24" height="48" viewBox="0 0 24 48" fill="none" xmlns="http://www.w3.org/2000/svg">
<path fill-rule="evenodd" clip-rule="evenodd" d="M6.76718 16.5258L5.64648 17.6465L6.35359 18.3536L18.3536 6.35359L17.6465 5.64648L16.306 6.98698C15.0503 6.3971 13.6079 6 12 6C5.75 6 2 12 2 12C2 12 3.7183 14.7493 6.76718 16.5258ZM8.8401 14.4529L14.4529 8.8401C13.7755 8.31355 12.9244 8 12 8C9.79086 8 8 9.79086 8 12C8 12.9244 8.31355 13.7755 8.8401 14.4529ZM12 18C18.25 18 22 12 22 12C22 12 20.6026 9.7641 18.092 8.02212L15.6813 10.4328C15.8865 10.9141 16 11.4438 16 12C16 14.2091 14.2091 16 12 16C11.4438 16 10.9141 15.8865 10.4328 15.6813L8.69083 17.4233C9.6962 17.7796 10.8022 18 12 18Z" fill="#C7CEE3"/>
<path fill-rule="evenodd" clip-rule="evenodd" d="M12 42C18.25 42 22 36 22 36C22 36 18.25 30 12 30C5.75 30 2 36 2 36C2 36 5.75 42 12 42ZM12 40C14.2091 40 16 38.2091 16 36C16 33.7909 14.2091 32 12 32C9.79086 32 8 33.7909 8 36C8 38.2091 9.79086 40 12 40Z" fill="#C7CEE3"/>
<path fill-rule="evenodd" clip-rule="evenodd" d="M12 38.5C13.3807 38.5 14.5 37.3807 14.5 36C14.5 34.6193 13.3807 33.5 12 33.5C10.6193 33.5 9.5 34.6193 9.5 36C9.5 37.3807 10.6193 38.5 12 38.5Z" fill="#C7CEE3"/>
</svg>
