<svg width="38" height="53" viewBox="0 0 38 53" fill="none" xmlns="http://www.w3.org/2000/svg">
<g filter="url(#filter0_d_9_32663)">
<path d="M19 0C15.0232 0.00466921 11.2106 1.579 8.39859 4.37763C5.58656 7.17627 4.00471 10.9707 4.00002 14.9286C3.99525 18.1629 5.05681 21.3096 7.02183 23.8857C7.02183 23.8857 7.43092 24.4218 7.49774 24.4991L19 38L30.5077 24.4924C30.5677 24.4204 30.9782 23.8857 30.9782 23.8857L30.9795 23.8816C32.9436 21.3066 34.0046 18.1615 34 14.9286C33.9953 10.9707 32.4134 7.17627 29.6014 4.37763C26.7894 1.579 22.9768 0.00466921 19 0Z" fill="#4E16ED"/>
<path d="M19 0C15.0232 0.00466921 11.2106 1.579 8.39859 4.37763C5.58656 7.17627 4.00471 10.9707 4.00002 14.9286C3.99525 18.1629 5.05681 21.3096 7.02183 23.8857C7.02183 23.8857 7.43092 24.4218 7.49774 24.4991L19 38L30.5077 24.4924C30.5677 24.4204 30.9782 23.8857 30.9782 23.8857L30.9795 23.8816C32.9436 21.3066 34.0046 18.1615 34 14.9286C33.9953 10.9707 32.4134 7.17627 29.6014 4.37763C26.7894 1.579 22.9768 0.00466921 19 0Z" fill="black" fill-opacity="0.2"/>
</g>
<rect x="7" y="3" width="24" height="24" rx="12" fill="white"/>
<defs>
<filter id="filter0_d_9_32663" x="0" y="0" width="38" height="46" filterUnits="userSpaceOnUse" color-interpolation-filters="sRGB">
<feFlood flood-opacity="0" result="BackgroundImageFix"/>
<feColorMatrix in="SourceAlpha" type="matrix" values="0 0 0 0 0 0 0 0 0 0 0 0 0 0 0 0 0 0 127 0" result="hardAlpha"/>
<feOffset dy="4"/>
<feGaussianBlur stdDeviation="2"/>
<feComposite in2="hardAlpha" operator="out"/>
<feColorMatrix type="matrix" values="0 0 0 0 0 0 0 0 0 0 0 0 0 0 0 0 0 0 0.25 0"/>
<feBlend mode="normal" in2="BackgroundImageFix" result="effect1_dropShadow_9_32663"/>
<feBlend mode="normal" in="SourceGraphic" in2="effect1_dropShadow_9_32663" result="shape"/>
</filter>
</defs>
</svg>
