<svg width="230" height="150" viewBox="0 0 230 150" fill="none" xmlns="http://www.w3.org/2000/svg">
<mask id="mask0_511_59327" style="mask-type:alpha" maskUnits="userSpaceOnUse" x="0" y="0" width="230" height="150">
<rect width="230" height="150" fill="#D9D9D9"/>
</mask>
<g mask="url(#mask0_511_59327)">
<path d="M87.4545 12.9017C87.4545 14.0825 86.4604 15.0624 85.2625 15.0624C84.0646 15.0624 83.0706 14.1077 83.0706 12.9017C83.0706 11.7209 84.0646 10.741 85.2625 10.741C86.4859 10.741 87.4545 11.6957 87.4545 12.9017Z" stroke="white" stroke-width="2.835" stroke-miterlimit="10" stroke-linecap="round" stroke-linejoin="round"/>
<path d="M51.2353 1.87225L54.1664 5.16352L51.1844 15.8413L48.2278 12.55L51.2353 1.87225Z" fill="#4ADFDF"/>
<path d="M37.0382 24.3835L39.9693 27.6748L29.0351 32.574L26.104 29.2827L37.0382 24.3835Z" fill="#4ADFDF"/>
<path d="M51.2365 1.87227L48.2289 12.5501C43.4882 12.4747 38.5691 16.2182 37.2692 20.9164C36.9378 22.1475 36.8614 23.3032 37.0398 24.3836L26.1055 29.2828C25.5448 26.695 25.6213 23.7806 26.4879 20.7405C29.4444 10.1381 40.5316 1.6964 51.2365 1.87227Z" fill="#4ADFDF"/>
<path d="M48.2288 12.5501L51.1599 15.8414C46.4192 15.766 41.5001 19.5095 40.2002 24.2078C39.8689 25.4388 39.7924 26.5946 39.9708 27.6749L37.0397 24.3836C36.8613 23.3284 36.9378 22.1476 37.2691 20.9416C38.5945 16.2183 43.4881 12.4748 48.2288 12.5501Z" fill="#1F96A1"/>
<path d="M53.2228 14.6607L56.1539 17.9519C55.0069 16.6706 53.2993 15.8917 51.1838 15.8415L48.2527 12.5502C50.3427 12.6005 52.0758 13.3793 53.2228 14.6607Z" fill="#D672A8"/>
<path d="M41.4239 30.765L38.4928 27.4738C37.7282 26.6195 37.2439 25.5643 37.04 24.3835L39.9711 27.6748C40.175 28.8556 40.6848 29.9108 41.4239 30.765Z" fill="#D672A8"/>
<path d="M62.4763 6.62073L65.4074 9.912C68.6188 13.5048 69.8167 18.806 68.16 24.685C65.178 35.2875 54.1163 43.7292 43.4114 43.5282C38.6452 43.4528 34.7456 41.669 32.1713 38.7797L29.2402 35.4884C31.8145 38.3777 35.7141 40.1615 40.4803 40.2369C51.1852 40.4128 62.2724 31.9711 65.2289 21.3938C66.8602 15.5147 65.6877 10.2135 62.4763 6.62073Z" fill="#D34AA5"/>
<path d="M51.2349 1.87225C61.9398 2.04812 68.1843 10.7913 65.2277 21.3938C62.2456 31.9962 51.1839 40.4379 40.4791 40.2369C32.8583 40.1113 27.5058 35.6392 26.104 29.2576L37.0382 24.3584C37.548 27.3482 39.9693 29.4838 43.4612 29.5591C48.2019 29.6345 53.121 25.891 54.4209 21.1928C55.7463 16.4945 52.9681 12.6254 48.2274 12.55L51.2349 1.87225Z" fill="#F98ED1"/>
<path d="M174.188 94.3292L173.016 89.8069C172.736 88.7265 171.767 88.0231 170.518 88.0231H153.696C152.881 88.0231 152.04 88.6763 151.81 89.4803L137.664 141.487C137.333 142.744 138.072 143.749 139.347 143.749H212.242C213.516 143.749 214.79 142.744 215.147 141.487L227.356 96.5653C227.687 95.3091 226.948 94.3041 225.674 94.3041H174.188V94.3292Z" fill="#FFE1A4"/>
<mask id="mask1_511_59327" style="mask-type:luminance" maskUnits="userSpaceOnUse" x="137" y="88" width="91" height="56">
<path d="M153.263 88.0482C152.448 88.0482 151.606 88.7014 151.377 89.5054L137.231 141.513C136.9 142.769 137.639 143.774 138.914 143.774H211.809C213.083 143.774 214.357 142.769 214.714 141.513L226.923 96.5904C227.254 95.3342 226.515 94.3292 225.241 94.3292H173.73L172.557 89.8069C172.277 88.7265 171.308 88.0231 170.06 88.0231H153.263V88.0482Z" fill="white"/>
</mask>
<g mask="url(#mask1_511_59327)">
<path d="M238.443 90.3095L223.584 161.361L125.736 141.488L140.596 70.4363L238.443 90.3095Z" fill="url(#paint0_linear_511_59327)"/>
</g>
<mask id="mask2_511_59327" style="mask-type:luminance" maskUnits="userSpaceOnUse" x="-37" y="-37" width="304" height="214">
<path d="M266.605 -36.7688H-36.8525V176.887H266.605V-36.7688Z" fill="white"/>
</mask>
<g mask="url(#mask2_511_59327)">
<path d="M221.977 71.0141C205.665 68.4514 189.403 65.8888 173.168 63.3261C162.386 83.9782 158.283 106.64 161.061 128.222C178.393 130.835 195.801 133.473 213.235 136.061C209.335 114.705 212.317 91.9928 221.977 71.0141Z" fill="#D4E1FD"/>
</g>
<mask id="mask3_511_59327" style="mask-type:luminance" maskUnits="userSpaceOnUse" x="-37" y="-37" width="304" height="214">
<path d="M266.605 -36.7688H-36.8525V176.887H266.605V-36.7688Z" fill="white"/>
</mask>
<g mask="url(#mask3_511_59327)">
<path d="M221.977 71.0141C205.665 68.4514 189.403 65.8888 173.168 63.3261C162.386 83.9782 158.283 106.64 161.061 128.222C178.393 130.835 195.801 133.473 213.235 136.061C209.335 114.705 212.317 91.9928 221.977 71.0141Z" fill="#D4E1FD"/>
</g>
<mask id="mask4_511_59327" style="mask-type:luminance" maskUnits="userSpaceOnUse" x="-37" y="-37" width="304" height="214">
<path d="M266.605 -36.7688H-36.8525V176.887H266.605V-36.7688Z" fill="white"/>
</mask>
<g mask="url(#mask4_511_59327)">
<path d="M221.568 70.8884C205.256 68.3258 188.995 65.7631 172.759 63.2004C161.978 83.8525 157.875 106.515 160.653 128.096C177.984 130.709 195.392 133.347 212.826 135.935C208.926 114.579 211.883 91.8672 221.568 70.8884Z" fill="#B2C9FD"/>
</g>
<mask id="mask5_511_59327" style="mask-type:luminance" maskUnits="userSpaceOnUse" x="-37" y="-37" width="304" height="214">
<path d="M266.605 -36.7688H-36.8525V176.887H266.605V-36.7688Z" fill="white"/>
</mask>
<g mask="url(#mask5_511_59327)">
<path d="M209.335 75.5867C192.08 75.3606 174.85 75.1345 157.595 74.9335C150.407 95.9876 150.305 119.026 157.467 140.684C174.289 140.884 191.111 141.085 207.933 141.286C201.204 119.554 201.739 96.5152 209.335 75.5867Z" fill="white"/>
</g>
<mask id="mask6_511_59327" style="mask-type:luminance" maskUnits="userSpaceOnUse" x="-37" y="-37" width="304" height="214">
<path d="M266.605 -36.7688H-36.8525V176.887H266.605V-36.7688Z" fill="white"/>
</mask>
<g mask="url(#mask6_511_59327)">
<path d="M209.335 75.5867C192.08 75.3606 174.85 75.1345 157.595 74.9335C150.407 95.9876 150.305 119.026 157.467 140.684C174.289 140.884 191.111 141.085 207.933 141.286C201.204 119.554 201.739 96.5152 209.335 75.5867Z" fill="white"/>
</g>
<mask id="mask7_511_59327" style="mask-type:luminance" maskUnits="userSpaceOnUse" x="-37" y="-37" width="304" height="214">
<path d="M266.605 -36.7688H-36.8525V176.887H266.605V-36.7688Z" fill="white"/>
</mask>
<g mask="url(#mask7_511_59327)">
<path d="M209.003 75.5617C191.748 75.3356 174.518 75.1095 157.263 74.9085C150.075 95.9626 149.974 119.001 157.136 140.659C173.958 140.86 190.779 141.061 207.601 141.262C200.873 119.529 201.408 96.4902 209.003 75.5617Z" fill="#E0E6FF"/>
</g>
<mask id="mask8_511_59327" style="mask-type:luminance" maskUnits="userSpaceOnUse" x="-37" y="-37" width="304" height="214">
<path d="M266.605 -36.7688H-36.8525V176.887H266.605V-36.7688Z" fill="white"/>
</mask>
<g mask="url(#mask8_511_59327)">
<path d="M209.003 75.5617C191.748 75.3356 174.518 75.1095 157.263 74.9085C150.075 95.9626 149.974 119.001 157.136 140.659C173.958 140.86 190.779 141.061 207.601 141.262C200.873 119.529 201.408 96.4902 209.003 75.5617Z" fill="#E0E6FF"/>
</g>
<mask id="mask9_511_59327" style="mask-type:luminance" maskUnits="userSpaceOnUse" x="-37" y="-37" width="304" height="214">
<path d="M266.605 -36.7688H-36.8525V176.887H266.605V-36.7688Z" fill="white"/>
</mask>
<g mask="url(#mask9_511_59327)">
<path d="M198.629 87.0182L160.551 86.5911C159.429 86.566 158.614 85.5108 158.92 84.4556C159.123 83.727 159.812 83.1994 160.602 83.2245L198.68 83.6516C199.802 83.6767 200.618 84.7319 200.312 85.7872C200.108 86.5158 199.42 87.0182 198.629 87.0182Z" fill="#9DADE3"/>
</g>
<mask id="mask10_511_59327" style="mask-type:luminance" maskUnits="userSpaceOnUse" x="-37" y="-37" width="304" height="214">
<path d="M266.605 -36.7688H-36.8525V176.887H266.605V-36.7688Z" fill="white"/>
</mask>
<g mask="url(#mask10_511_59327)">
<path d="M198.426 86.6415L160.347 86.2144C159.226 86.1892 158.41 85.134 158.716 84.0788C158.92 83.3502 159.608 82.8226 160.398 82.8477L198.477 83.2748C199.598 83.3 200.414 84.3552 200.108 85.4104C199.904 86.139 199.216 86.6415 198.426 86.6415Z" fill="#B8CAF8"/>
</g>
<mask id="mask11_511_59327" style="mask-type:luminance" maskUnits="userSpaceOnUse" x="-37" y="-37" width="304" height="214">
<path d="M266.605 -36.7688H-36.8525V176.887H266.605V-36.7688Z" fill="white"/>
</mask>
<g mask="url(#mask11_511_59327)">
<path d="M197.074 94.6055L158.995 94.1784C157.874 94.1533 157.058 93.0981 157.364 92.0429C157.568 91.3143 158.256 90.7866 159.046 90.8118L197.125 91.2389C198.246 91.264 199.062 92.3192 198.756 93.3744C198.552 94.103 197.864 94.6307 197.074 94.6055Z" fill="#9DADE3"/>
</g>
<mask id="mask12_511_59327" style="mask-type:luminance" maskUnits="userSpaceOnUse" x="-37" y="-37" width="304" height="214">
<path d="M266.605 -36.7688H-36.8525V176.887H266.605V-36.7688Z" fill="white"/>
</mask>
<g mask="url(#mask12_511_59327)">
<path d="M196.871 94.254L158.792 93.8269C157.671 93.8018 156.855 92.7466 157.161 91.6914C157.365 90.9628 158.053 90.4351 158.843 90.4603L196.922 90.8874C198.044 90.9125 198.859 91.9677 198.553 93.0229C198.349 93.7515 197.661 94.254 196.871 94.254Z" fill="#B8CAF8"/>
</g>
<mask id="mask13_511_59327" style="mask-type:luminance" maskUnits="userSpaceOnUse" x="-37" y="-37" width="304" height="214">
<path d="M266.605 -36.7688H-36.8525V176.887H266.605V-36.7688Z" fill="white"/>
</mask>
<g mask="url(#mask13_511_59327)">
<path d="M147.681 96.6159L144.673 93.6261C143.807 92.596 142.481 91.9427 141.233 91.9427H124.411C123.595 91.9427 122.601 92.6462 122.83 93.4L136.849 141.463C137.18 142.643 138.48 143.598 139.754 143.598H212.649C213.924 143.598 214.663 142.643 214.331 141.463L202.123 98.7514C201.791 97.5706 200.492 96.6159 199.217 96.6159H147.681Z" fill="#FFE1A4"/>
</g>
<mask id="mask14_511_59327" style="mask-type:luminance" maskUnits="userSpaceOnUse" x="122" y="92" width="92" height="53">
<path d="M123.976 92.3945C123.16 92.3945 122.676 93.0226 122.88 93.7763L136.388 141.914C136.719 143.095 138.019 144.05 139.294 144.05H212.189C213.463 144.05 214.202 143.095 213.871 141.914L201.662 99.2031C201.331 98.0223 200.031 97.0676 198.757 97.0676H147.22L144.213 94.0778C143.346 93.0477 142.021 92.3945 140.772 92.3945H123.976Z" fill="white"/>
</mask>
<g mask="url(#mask14_511_59327)">
<path d="M193.074 182.088L100.579 132.116L143.806 54.3566L236.301 104.303L193.074 182.088Z" fill="url(#paint1_linear_511_59327)"/>
</g>
<mask id="mask15_511_59327" style="mask-type:luminance" maskUnits="userSpaceOnUse" x="-37" y="-37" width="304" height="214">
<path d="M266.605 -36.7688H-36.8525V176.887H266.605V-36.7688Z" fill="white"/>
</mask>
<g mask="url(#mask15_511_59327)">
<path d="M208.163 33.3277C208.621 33.4282 208.876 33.8805 208.698 34.3076L198.426 62.4718C198.273 62.8989 197.764 63.1502 197.33 63.0245L174.774 57.4972C174.315 57.3967 174.06 56.9445 174.238 56.5174L184.51 28.3531C184.663 27.926 185.173 27.6748 185.606 27.8004L208.163 33.3277Z" fill="#BF92FB"/>
</g>
<mask id="mask16_511_59327" style="mask-type:luminance" maskUnits="userSpaceOnUse" x="-37" y="-37" width="304" height="214">
<path d="M266.605 -36.7688H-36.8525V176.887H266.605V-36.7688Z" fill="white"/>
</mask>
<g mask="url(#mask16_511_59327)">
<path d="M209.335 34.8099C209.335 34.7597 209.335 34.7346 209.335 34.7094C209.335 34.6843 209.335 34.6843 209.335 34.6592C209.335 34.6341 209.335 34.609 209.335 34.609C209.335 34.5838 209.335 34.5838 209.335 34.5587C209.335 34.5336 209.31 34.5085 209.31 34.4582C209.31 34.4331 209.284 34.4331 209.284 34.408C209.259 34.3828 209.259 34.3577 209.233 34.3577L209.208 34.3326L208.596 33.5789C208.647 33.6291 208.672 33.6794 208.698 33.7296C208.723 33.7799 208.723 33.8301 208.749 33.8804C208.749 33.9055 208.749 33.9306 208.749 33.9306C208.749 33.9808 208.749 34.0311 208.749 34.0813C208.749 34.1567 208.723 34.207 208.698 34.2823L198.426 62.4717C198.401 62.5219 198.375 62.5722 198.35 62.5973C198.35 62.5973 198.35 62.5973 198.35 62.6224C198.324 62.6727 198.299 62.6978 198.248 62.7481C198.223 62.7983 198.172 62.8234 198.121 62.8486C198.07 62.8737 198.019 62.8988 197.993 62.9239C197.942 62.949 197.917 62.9742 197.866 62.9742H197.84C197.789 62.9993 197.738 62.9993 197.687 62.9993C197.687 62.9993 197.687 62.9993 197.662 62.9993C197.611 62.9993 197.56 62.9993 197.534 62.9993C197.509 62.9993 197.509 62.9993 197.483 62.9993C197.432 62.9993 197.381 62.9993 197.33 62.9742L174.774 57.4469C174.646 57.4217 174.519 57.3464 174.442 57.271C174.417 57.2459 174.391 57.2207 174.366 57.1956L174.952 57.8991C175.054 58.0247 175.207 58.1252 175.385 58.1503L197.942 63.6777C197.993 63.6777 198.044 63.7028 198.095 63.7028C198.121 63.7028 198.121 63.7028 198.146 63.7028C198.197 63.7028 198.248 63.7028 198.273 63.7028C198.273 63.7028 198.273 63.7028 198.299 63.7028C198.35 63.7028 198.375 63.6777 198.426 63.6777H198.452C198.477 63.6777 198.477 63.6777 198.477 63.6777C198.503 63.6777 198.503 63.6777 198.528 63.6525C198.554 63.6525 198.579 63.6274 198.605 63.6023C198.63 63.6023 198.656 63.5772 198.681 63.552C198.707 63.5269 198.732 63.5269 198.758 63.5018C198.783 63.4767 198.783 63.4767 198.809 63.4515C198.834 63.4264 198.86 63.4264 198.86 63.4013C198.86 63.3762 198.885 63.3762 198.885 63.351C198.911 63.3259 198.911 63.3008 198.936 63.2757C198.936 63.2757 198.936 63.2757 198.936 63.2505C198.936 63.2254 198.962 63.2003 198.962 63.2003C198.962 63.1752 198.987 63.15 198.987 63.1249L209.259 34.9607C209.259 34.9356 209.284 34.9104 209.284 34.8853C209.335 34.8853 209.335 34.8602 209.335 34.8099Z" fill="#5C2BA7"/>
</g>
<mask id="mask17_511_59327" style="mask-type:luminance" maskUnits="userSpaceOnUse" x="-37" y="-37" width="304" height="214">
<path d="M266.605 -36.7688H-36.8525V176.887H266.605V-36.7688Z" fill="white"/>
</mask>
<g mask="url(#mask17_511_59327)">
<path d="M198.272 27.2226L198.068 26.9463C197.992 26.8458 197.89 26.7704 197.737 26.7453C197.686 26.7202 197.635 26.7202 197.584 26.7202C197.559 26.7202 197.559 26.7202 197.533 26.7202C197.482 26.7202 197.457 26.7202 197.406 26.7453H197.38H197.355H197.329H197.304C197.278 26.7453 197.253 26.7704 197.227 26.7704C197.202 26.7704 197.202 26.7955 197.176 26.7955C197.151 26.7955 197.151 26.8207 197.125 26.8207C197.1 26.8207 197.1 26.8458 197.1 26.8458C197.074 26.8709 197.074 26.8709 197.049 26.896L197.023 26.9211C196.998 26.9463 196.998 26.9714 196.972 26.9714C196.972 26.9714 196.972 26.9714 196.972 26.9965C196.972 27.0216 196.947 27.0216 196.947 27.0468C196.947 27.0719 196.921 27.097 196.921 27.097C196.921 27.1221 196.896 27.1473 196.896 27.1473C196.896 27.1724 196.896 27.1724 196.896 27.1975C196.896 27.2478 196.896 27.2729 196.896 27.3231V27.3483V27.3734C196.896 27.3985 196.896 27.3985 196.896 27.4236V27.4488C196.896 27.4739 196.921 27.499 196.921 27.5241C196.921 27.5493 196.947 27.5493 196.947 27.5744C196.947 27.5995 196.972 27.5995 196.972 27.6246C196.972 27.6246 196.972 27.6497 196.998 27.6497L197.202 27.9261C197.176 27.901 197.151 27.8507 197.125 27.8005C197.1 27.7754 197.1 27.7251 197.1 27.6749C197.1 27.6498 197.1 27.6497 197.1 27.6246C197.1 27.5995 197.1 27.5744 197.1 27.5493C197.1 27.499 197.1 27.4739 197.1 27.4236C197.1 27.3985 197.1 27.3483 197.125 27.3231C197.151 27.2729 197.151 27.2478 197.176 27.2226C197.176 27.2226 197.176 27.2226 197.176 27.1975C197.202 27.1724 197.227 27.1221 197.253 27.097C197.278 27.0719 197.304 27.0468 197.355 27.0216C197.38 26.9965 197.431 26.9714 197.457 26.9463C197.482 26.9211 197.533 26.9211 197.559 26.896H197.584C197.61 26.896 197.61 26.896 197.635 26.8709C197.686 26.8709 197.712 26.8458 197.763 26.8458C197.788 26.8458 197.788 26.8458 197.814 26.8458C197.865 26.8458 197.916 26.8458 197.966 26.8709C198.068 26.896 198.145 26.9463 198.221 26.9965C198.221 27.1724 198.247 27.1975 198.272 27.2226Z" fill="#BAE9FA"/>
</g>
<mask id="mask18_511_59327" style="mask-type:luminance" maskUnits="userSpaceOnUse" x="-37" y="-37" width="304" height="214">
<path d="M266.605 -36.7688H-36.8525V176.887H266.605V-36.7688Z" fill="white"/>
</mask>
<g mask="url(#mask18_511_59327)">
<path d="M202.122 26.9211C202.454 26.9964 202.632 27.3482 202.53 27.6999L200.95 32.1218L191.519 29.8104L193.1 25.3885C193.227 25.0619 193.584 24.8358 193.941 24.9363L202.122 26.9211ZM197.28 28.0014C197.636 28.0768 198.019 27.8758 198.146 27.524C198.274 27.1723 198.095 26.8206 197.738 26.7452C197.381 26.6698 196.999 26.8708 196.872 27.2226C196.744 27.5492 196.923 27.9009 197.28 28.0014Z" fill="#7BD5F5"/>
</g>
<mask id="mask19_511_59327" style="mask-type:luminance" maskUnits="userSpaceOnUse" x="-37" y="-37" width="304" height="214">
<path d="M266.605 -36.7688H-36.8525V176.887H266.605V-36.7688Z" fill="white"/>
</mask>
<g mask="url(#mask19_511_59327)">
<path d="M202.759 27.8758C202.759 27.8256 202.759 27.8005 202.759 27.7753V27.7502V27.7251C202.759 27.7 202.759 27.7 202.759 27.6748V27.6497C202.759 27.6246 202.734 27.5995 202.734 27.5744C202.734 27.5492 202.708 27.5492 202.708 27.5241C202.708 27.499 202.683 27.499 202.683 27.4739C202.683 27.4739 202.683 27.4487 202.657 27.4487L202.453 27.1724C202.479 27.1975 202.504 27.2477 202.53 27.298C202.555 27.3231 202.555 27.3734 202.555 27.4236C202.555 27.4487 202.555 27.4487 202.555 27.4739C202.555 27.499 202.555 27.5241 202.555 27.5492C202.555 27.5744 202.555 27.6246 202.555 27.6497C202.555 27.6748 202.555 27.7251 202.53 27.7502L200.95 32.1721L201.154 32.4484L202.734 28.0266C202.734 28.0015 202.759 27.9763 202.759 27.9763C202.759 27.901 202.734 27.8758 202.759 27.8758Z" fill="#BAE9FA"/>
</g>
<mask id="mask20_511_59327" style="mask-type:luminance" maskUnits="userSpaceOnUse" x="-37" y="-37" width="304" height="214">
<path d="M266.605 -36.7688H-36.8525V176.887H266.605V-36.7688Z" fill="white"/>
</mask>
<g mask="url(#mask20_511_59327)">
<path d="M205.587 33.9055C205.944 34.006 206.148 34.3577 206.021 34.7094L197.533 58.4016C197.406 58.7533 196.998 58.9794 196.641 58.8789L178.57 54.432C178.213 54.3315 178.01 53.9797 178.137 53.628L186.624 29.9358C186.752 29.5841 187.16 29.358 187.517 29.4585L205.587 33.9055Z" fill="white"/>
</g>
<mask id="mask21_511_59327" style="mask-type:luminance" maskUnits="userSpaceOnUse" x="-37" y="-37" width="304" height="214">
<path d="M266.605 -36.7688H-36.8525V176.887H266.605V-36.7688Z" fill="white"/>
</mask>
<g mask="url(#mask21_511_59327)">
<path d="M206.148 34.7599C206.148 34.7096 206.148 34.6845 206.148 34.6343V34.6091C206.148 34.584 206.148 34.584 206.148 34.5589C206.148 34.5338 206.148 34.5338 206.148 34.5086V34.4835C206.148 34.4584 206.123 34.4333 206.123 34.4081C206.123 34.383 206.098 34.383 206.098 34.3579C206.098 34.3328 206.072 34.3328 206.072 34.3076L206.047 34.2825L205.945 34.1318C205.97 34.182 205.996 34.2071 206.021 34.2574C206.047 34.3076 206.047 34.3328 206.047 34.383C206.047 34.4081 206.047 34.4081 206.047 34.4333C206.047 34.4584 206.047 34.4835 206.047 34.5086C206.047 34.5589 206.047 34.584 206.047 34.6343C206.047 34.6594 206.047 34.7096 206.021 34.7348L197.534 58.4269C197.508 58.4771 197.508 58.5022 197.483 58.5525C197.483 58.5525 197.483 58.5525 197.483 58.5776C197.457 58.6027 197.432 58.653 197.406 58.6781C197.381 58.7032 197.355 58.7284 197.304 58.7786C197.279 58.8037 197.228 58.8289 197.202 58.854C197.177 58.8791 197.126 58.8791 197.1 58.9042H197.075C197.049 58.9042 197.049 58.9042 197.024 58.9042C196.973 58.9042 196.947 58.9294 196.896 58.9294C196.871 58.9294 196.871 58.9294 196.845 58.9294C196.794 58.9294 196.744 58.9294 196.667 58.9042L178.596 54.4573C178.443 54.4321 178.341 54.3568 178.265 54.2311L178.367 54.3819C178.443 54.4824 178.571 54.5578 178.698 54.608L196.769 59.055C196.82 59.0801 196.871 59.0801 196.947 59.0801C196.973 59.0801 196.973 59.0801 196.998 59.0801C197.049 59.0801 197.075 59.0801 197.126 59.055H197.151H197.177H197.202C197.228 59.055 197.228 59.055 197.228 59.0299C197.253 59.0299 197.279 59.0047 197.304 59.0047C197.33 59.0047 197.355 58.9796 197.355 58.9796C197.381 58.9796 197.381 58.9545 197.406 58.9294C197.432 58.9294 197.432 58.9042 197.457 58.9042C197.483 58.8791 197.483 58.8791 197.508 58.854L197.534 58.8289C197.559 58.8037 197.559 58.7786 197.585 58.7786C197.585 58.7786 197.585 58.7786 197.585 58.7535C197.585 58.7284 197.61 58.7284 197.61 58.7032C197.61 58.6781 197.636 58.653 197.636 58.6279L206.123 34.9357C206.123 34.9106 206.148 34.8855 206.148 34.8855C206.148 34.785 206.148 34.7599 206.148 34.7599Z" fill="#757575"/>
</g>
<mask id="mask22_511_59327" style="mask-type:luminance" maskUnits="userSpaceOnUse" x="-37" y="-37" width="304" height="214">
<path d="M266.605 -36.7688H-36.8525V176.887H266.605V-36.7688Z" fill="white"/>
</mask>
<g mask="url(#mask22_511_59327)">
<path d="M198.426 42.3725L188.562 39.8852C187.976 39.7345 187.619 39.1063 187.823 38.5536C188.001 38.026 188.562 37.7496 189.097 37.8753L198.961 40.3626C199.547 40.5133 199.904 41.1414 199.7 41.6941C199.496 42.2217 198.961 42.5232 198.426 42.3725Z" fill="#9DADE3"/>
</g>
<mask id="mask23_511_59327" style="mask-type:luminance" maskUnits="userSpaceOnUse" x="-37" y="-37" width="304" height="214">
<path d="M266.605 -36.7688H-36.8525V176.887H266.605V-36.7688Z" fill="white"/>
</mask>
<g mask="url(#mask23_511_59327)">
<path d="M198.426 42.2219L188.562 39.7346C187.976 39.5838 187.619 38.9557 187.823 38.403C188.001 37.8754 188.562 37.599 189.097 37.7246L198.961 40.2119C199.547 40.3627 199.904 40.9908 199.7 41.5435C199.496 42.0711 198.936 42.3475 198.426 42.2219Z" fill="#B8CAF8"/>
</g>
<mask id="mask24_511_59327" style="mask-type:luminance" maskUnits="userSpaceOnUse" x="-37" y="-37" width="304" height="214">
<path d="M266.605 -36.7688H-36.8525V176.887H266.605V-36.7688Z" fill="white"/>
</mask>
<g mask="url(#mask24_511_59327)">
<path d="M197.1 46.2667L187.236 43.7794C186.65 43.6287 186.293 43.0006 186.497 42.4478C186.675 41.9202 187.236 41.6439 187.771 41.7695L197.635 44.2568C198.221 44.4075 198.578 45.0356 198.374 45.5884C198.196 46.116 197.635 46.4175 197.1 46.2667Z" fill="#9DADE3"/>
</g>
<mask id="mask25_511_59327" style="mask-type:luminance" maskUnits="userSpaceOnUse" x="-37" y="-37" width="304" height="214">
<path d="M266.605 -36.7688H-36.8525V176.887H266.605V-36.7688Z" fill="white"/>
</mask>
<g mask="url(#mask25_511_59327)">
<path d="M197.1 46.116L187.236 43.6287C186.65 43.478 186.293 42.8499 186.497 42.2971C186.675 41.7695 187.236 41.4932 187.771 41.6188L197.635 44.1061C198.221 44.2568 198.578 44.8849 198.374 45.4377C198.17 45.9653 197.635 46.2416 197.1 46.116Z" fill="#B8CAF8"/>
</g>
<mask id="mask26_511_59327" style="mask-type:luminance" maskUnits="userSpaceOnUse" x="-37" y="-37" width="304" height="214">
<path d="M266.605 -36.7688H-36.8525V176.887H266.605V-36.7688Z" fill="white"/>
</mask>
<g mask="url(#mask26_511_59327)">
<path d="M200.924 32.122L201.154 32.3983L191.749 30.0618L191.519 29.8105L200.924 32.122Z" fill="#BF92FB"/>
</g>
<mask id="mask27_511_59327" style="mask-type:luminance" maskUnits="userSpaceOnUse" x="-37" y="-37" width="304" height="214">
<path d="M266.605 -36.7688H-36.8525V176.887H266.605V-36.7688Z" fill="white"/>
</mask>
<g mask="url(#mask27_511_59327)">
<path d="M204.772 32.9259C205.078 33.0013 205.231 33.3028 205.104 33.5791C205.002 33.8806 204.67 34.0565 204.39 33.9811L188.205 29.9612C187.899 29.8859 187.746 29.5844 187.848 29.308C187.95 29.0065 188.282 28.8306 188.562 28.906L204.772 32.9259Z" fill="#9BDFF7"/>
</g>
<mask id="mask28_511_59327" style="mask-type:luminance" maskUnits="userSpaceOnUse" x="-37" y="-37" width="304" height="214">
<path d="M266.605 -36.7688H-36.8525V176.887H266.605V-36.7688Z" fill="white"/>
</mask>
<g mask="url(#mask28_511_59327)">
<path d="M205.358 33.7801C205.358 33.755 205.358 33.7047 205.358 33.6796V33.6545V33.6293C205.358 33.6042 205.358 33.6042 205.358 33.5791V33.554C205.358 33.5288 205.332 33.5037 205.332 33.4786C205.332 33.4535 205.332 33.4535 205.307 33.4283C205.307 33.4032 205.281 33.4032 205.281 33.3781C205.281 33.3781 205.281 33.353 205.256 33.353L205.052 33.0766C205.077 33.1017 205.103 33.152 205.103 33.1771C205.128 33.2022 205.128 33.2525 205.128 33.2776C205.128 33.3027 205.128 33.3027 205.128 33.3279C205.128 33.353 205.128 33.3781 205.128 33.3781C205.128 33.4032 205.128 33.4535 205.128 33.4786C205.128 33.5037 205.128 33.5288 205.103 33.554C205.103 33.5791 205.077 33.6293 205.052 33.6545C205.026 33.6796 205.026 33.7047 205.001 33.7298C204.975 33.755 204.95 33.7801 204.924 33.8052C204.899 33.8303 204.873 33.8555 204.822 33.8555C204.797 33.8806 204.771 33.8806 204.746 33.9057H204.72C204.695 33.9057 204.695 33.9057 204.67 33.9057C204.644 33.9057 204.593 33.9308 204.568 33.9308C204.542 33.9308 204.542 33.9308 204.517 33.9308C204.466 33.9308 204.415 33.9308 204.389 33.9057L188.204 29.9612C188.153 29.9361 188.102 29.9361 188.052 29.8858C188.001 29.8607 187.975 29.8105 187.924 29.7853L188.128 30.0617C188.204 30.1371 188.281 30.2125 188.408 30.2376L204.593 34.2323C204.644 34.2323 204.695 34.2575 204.72 34.2575C204.746 34.2575 204.746 34.2575 204.771 34.2575C204.797 34.2575 204.848 34.2575 204.873 34.2323H204.899C204.899 34.2323 204.899 34.2323 204.924 34.2323H204.95H204.975C205.001 34.2323 205.026 34.2072 205.026 34.2072C205.052 34.2072 205.052 34.1821 205.077 34.1821C205.103 34.1821 205.103 34.1569 205.128 34.1569L205.154 34.1318L205.179 34.1067L205.205 34.0816C205.205 34.0565 205.23 34.0565 205.23 34.0313C205.23 34.0313 205.23 34.0313 205.23 34.0062C205.23 33.9811 205.256 33.9811 205.256 33.956C205.256 33.9308 205.281 33.9308 205.281 33.9057C205.281 33.8806 205.281 33.8806 205.307 33.8555C205.358 33.7801 205.358 33.7801 205.358 33.7801Z" fill="#BAE9FA"/>
</g>
<mask id="mask29_511_59327" style="mask-type:luminance" maskUnits="userSpaceOnUse" x="-37" y="-37" width="304" height="214">
<path d="M266.605 -36.7688H-36.8525V176.887H266.605V-36.7688Z" fill="white"/>
</mask>
<g mask="url(#mask29_511_59327)">
<path d="M105.651 73.0743C104.096 73.627 105.982 83.3501 108.556 84.0536C110.417 83.5008 112.354 80.7874 112.354 80.7874L109.678 72.7225L105.651 73.0743Z" fill="#171B2C"/>
</g>
<mask id="mask30_511_59327" style="mask-type:luminance" maskUnits="userSpaceOnUse" x="-37" y="-37" width="304" height="214">
<path d="M266.605 -36.7688H-36.8525V176.887H266.605V-36.7688Z" fill="white"/>
</mask>
<g mask="url(#mask30_511_59327)">
<path d="M107.766 82.1943C107.027 81.9681 103.866 76.5162 104.427 74.1796L105.854 73.853C105.854 73.8279 110.926 78.1744 107.766 82.1943Z" fill="#D0D5F4"/>
</g>
<mask id="mask31_511_59327" style="mask-type:luminance" maskUnits="userSpaceOnUse" x="95" y="72" width="18" height="13">
<path d="M104.174 74.305H101.905C102.466 75.2597 101.676 76.3652 101.472 76.6667C101.472 76.6667 101.472 76.6918 101.421 76.7421C101.319 76.9179 100.911 76.9933 100.656 77.2194C98.8213 78.6264 95.5588 82.7216 95.5588 82.7216L102.619 84.3296L108.048 79.3299L112.84 78.2998L109.552 72.4709L104.174 74.305Z" fill="white"/>
</mask>
<g mask="url(#mask31_511_59327)">
<path d="M112.864 84.3043L95.558 84.3294L95.5325 72.4457L112.839 72.4205L112.864 84.3043Z" fill="url(#paint2_linear_511_59327)"/>
</g>
<mask id="mask32_511_59327" style="mask-type:luminance" maskUnits="userSpaceOnUse" x="-37" y="-37" width="304" height="214">
<path d="M266.605 -36.7688H-36.8525V176.887H266.605V-36.7688Z" fill="white"/>
</mask>
<g mask="url(#mask32_511_59327)">
<path d="M107.792 72.6726C106.543 73.15 105.625 73.7027 104.427 74.1549C106.849 74.9338 109.729 79.7074 107.766 82.1696C109.066 82.0691 110.29 81.8681 111.462 81.5917C113.144 78.0492 110.29 74.3057 107.792 72.6726Z" fill="white"/>
</g>
<mask id="mask33_511_59327" style="mask-type:luminance" maskUnits="userSpaceOnUse" x="105" y="54" width="28" height="31">
<path d="M121.938 57.1456C119.109 61.9946 115.286 70.788 105.626 73.0743C109.042 73.8783 111.081 81.4156 108.532 84.0536C121.734 80.9633 127.903 69.5067 131.853 62.7232C133.433 60.0349 132.465 56.5677 129.738 55.0352C128.846 54.5327 127.852 54.2814 126.908 54.2814C124.92 54.3066 123.009 55.3366 121.938 57.1456Z" fill="white"/>
</mask>
<g mask="url(#mask33_511_59327)">
<path d="M112.432 42.5483L146.407 61.5673L126.654 95.8367L92.6787 76.8177L112.432 42.5483Z" fill="url(#paint3_linear_511_59327)"/>
</g>
<mask id="mask34_511_59327" style="mask-type:luminance" maskUnits="userSpaceOnUse" x="111" y="139" width="22" height="9">
<path d="M120.414 139.076L111.111 145.96V147.542H123.778L125.945 146.186H127.398V147.542H132.623V139.076H120.414Z" fill="white"/>
</mask>
<g mask="url(#mask34_511_59327)">
<path d="M129.486 131.563L135.68 146.311L114.245 155.055L108.051 140.307L129.486 131.563Z" fill="url(#paint4_linear_511_59327)"/>
</g>
<mask id="mask35_511_59327" style="mask-type:luminance" maskUnits="userSpaceOnUse" x="-37" y="-37" width="304" height="214">
<path d="M266.605 -36.7688H-36.8525V176.887H266.605V-36.7688Z" fill="white"/>
</mask>
<g mask="url(#mask35_511_59327)">
<path d="M132.617 145.985V147.542H127.392V146.186H125.939L123.773 147.542H111.105V145.985H132.617Z" fill="#171B2C"/>
</g>
<mask id="mask36_511_59327" style="mask-type:luminance" maskUnits="userSpaceOnUse" x="119" y="79" width="21" height="62">
<path d="M125.558 79.7573L119.364 139.05C123.315 141.01 130.808 140.985 135.778 139.854L139.831 79.7322H125.558V79.7573Z" fill="white"/>
</mask>
<g mask="url(#mask36_511_59327)">
<path d="M139.805 79.7574H119.338V141.01H139.805V79.7574Z" fill="url(#paint5_linear_511_59327)"/>
</g>
<mask id="mask37_511_59327" style="mask-type:luminance" maskUnits="userSpaceOnUse" x="130" y="139" width="22" height="10">
<path d="M130.297 146.387V147.969L142.965 148.045L145.156 146.713H146.609L146.584 148.07L151.834 148.095L151.885 139.628L139.651 139.553L130.297 146.387Z" fill="white"/>
</mask>
<g mask="url(#mask37_511_59327)">
<path d="M146.533 130.382L155.632 145.985L135.65 157.29L126.551 141.663L146.533 130.382Z" fill="url(#paint6_linear_511_59327)"/>
</g>
<mask id="mask38_511_59327" style="mask-type:luminance" maskUnits="userSpaceOnUse" x="-37" y="-37" width="304" height="214">
<path d="M266.605 -36.7688H-36.8525V176.887H266.605V-36.7688Z" fill="white"/>
</mask>
<g mask="url(#mask38_511_59327)">
<path d="M151.834 146.537V148.095L146.583 148.07L146.609 146.713H145.156L142.964 148.045L130.296 147.969V146.412L151.834 146.537Z" fill="#171B2C"/>
</g>
<mask id="mask39_511_59327" style="mask-type:luminance" maskUnits="userSpaceOnUse" x="126" y="79" width="27" height="63">
<path d="M126.326 79.7574L130.583 95.4852L137.184 141.136C142.689 141.588 148.348 143.07 152.451 140.382L147.914 79.7574H126.326Z" fill="white"/>
</mask>
<g mask="url(#mask39_511_59327)">
<path d="M152.451 79.7574H126.326V143.07H152.451V79.7574Z" fill="url(#paint7_linear_511_59327)"/>
</g>
<mask id="mask40_511_59327" style="mask-type:luminance" maskUnits="userSpaceOnUse" x="119" y="48" width="32" height="47">
<path d="M131.674 49.4077L123.849 55.3119L123.543 74.758L119.388 94.3298H122.243C124.078 94.3298 125.658 93.0735 126.066 91.3148L128.131 82.2199L129.354 90.8375C129.634 92.8474 131.393 94.3549 133.458 94.3549H150.203L149.693 54.332L139.6 48.8801L131.674 49.4077Z" fill="white"/>
</mask>
<g mask="url(#mask40_511_59327)">
<path d="M150.178 48.88H119.389V94.3297H150.178V48.88Z" fill="url(#paint8_linear_511_59327)"/>
</g>
<mask id="mask41_511_59327" style="mask-type:luminance" maskUnits="userSpaceOnUse" x="128" y="48" width="13" height="30">
<path d="M131.674 49.4326L130.093 50.6134L128.666 77.5465C129.787 67.0195 133.866 57.0201 140.365 49.2818L139.6 48.8798L131.674 49.4326Z" fill="white"/>
</mask>
<g mask="url(#mask41_511_59327)">
<path d="M140.365 48.8799H128.666V77.5717H140.365V48.8799Z" fill="url(#paint9_linear_511_59327)"/>
</g>
<mask id="mask42_511_59327" style="mask-type:luminance" maskUnits="userSpaceOnUse" x="-37" y="-37" width="304" height="214">
<path d="M266.605 -36.7688H-36.8525V176.887H266.605V-36.7688Z" fill="white"/>
</mask>
<g mask="url(#mask42_511_59327)">
<path d="M133.126 51.6434L131.673 50.5128V48.6285H131.393C131.265 48.6285 131.138 48.7039 131.087 48.8044L130.093 50.6133L131.138 55.01L133.126 51.6434Z" fill="white"/>
</g>
<mask id="mask43_511_59327" style="mask-type:luminance" maskUnits="userSpaceOnUse" x="-37" y="-37" width="304" height="214">
<path d="M266.605 -36.7688H-36.8525V176.887H266.605V-36.7688Z" fill="white"/>
</mask>
<g mask="url(#mask43_511_59327)">
<path d="M134.656 55.0101L133.483 56.5678L132.795 61.6429C130.654 66.6426 129.252 72.0192 128.666 77.5716L129.38 63.9041L131.776 56.2914L131.419 54.5578L133.126 51.6434L134.656 55.0101Z" fill="#380D33"/>
</g>
<mask id="mask44_511_59327" style="mask-type:luminance" maskUnits="userSpaceOnUse" x="-37" y="-37" width="304" height="214">
<path d="M266.605 -36.7688H-36.8525V176.887H266.605V-36.7688Z" fill="white"/>
</mask>
<g mask="url(#mask44_511_59327)">
<path d="M156.09 100.007L138.427 97.2437C137.713 97.1432 137.178 96.5151 137.178 95.8116V82.9229C137.178 82.0184 137.994 81.3401 138.886 81.4908L156.549 84.2545C157.262 84.355 157.798 84.9831 157.798 85.6866V98.5753C157.772 99.4798 156.982 100.158 156.09 100.007Z" fill="#D4E1FD"/>
</g>
<mask id="mask45_511_59327" style="mask-type:luminance" maskUnits="userSpaceOnUse" x="137" y="81" width="22" height="20">
<path d="M137.588 82.9986V95.8873C137.588 96.5908 138.123 97.2189 138.837 97.3194L156.5 100.083C157.392 100.234 158.207 99.5303 158.207 98.651V85.7623C158.207 85.0588 157.672 84.4307 156.959 84.3302L139.296 81.5665C139.219 81.5665 139.143 81.5414 139.066 81.5414C138.276 81.5414 137.588 82.1946 137.588 82.9986Z" fill="white"/>
</mask>
<g mask="url(#mask45_511_59327)">
<path d="M158.207 81.5414H137.588V100.234H158.207V81.5414Z" fill="url(#paint10_linear_511_59327)"/>
</g>
<mask id="mask46_511_59327" style="mask-type:luminance" maskUnits="userSpaceOnUse" x="143" y="87" width="12" height="12">
<path d="M145.107 88.1235L145.744 92.0429C144.547 93.6006 143.935 95.0578 143.68 95.7864C143.502 96.2637 142.737 97.6707 143.502 97.9973C144.521 98.4244 145.184 97.4697 145.643 97.0677C145.795 96.9421 145.923 96.7662 146.076 96.5903L146.203 98.148H154.028C154.028 98.148 154.359 94.2789 153.671 91.3645L153.085 87.7215L145.107 88.1235Z" fill="white"/>
</mask>
<g mask="url(#mask46_511_59327)">
<path d="M154.334 87.7215H142.737V98.4244H154.334V87.7215Z" fill="url(#paint11_linear_511_59327)"/>
</g>
<mask id="mask47_511_59327" style="mask-type:luminance" maskUnits="userSpaceOnUse" x="151" y="96" width="4" height="5">
<path d="M153.086 96.8165C152.576 96.8668 152.194 97.2939 152.219 97.7964C152.245 98.2235 152.168 98.2737 152.015 98.3742C151.582 98.6506 151.48 99.2284 151.76 99.6555C151.939 99.9068 152.245 100.058 152.525 100.058C152.703 100.058 152.882 100.007 153.06 99.9068C153.825 99.3792 154.156 98.6506 154.08 97.6456C154.054 97.1683 153.621 96.7914 153.137 96.7914C153.111 96.8165 153.086 96.8165 153.086 96.8165Z" fill="white"/>
</mask>
<g mask="url(#mask47_511_59327)">
<path d="M154.156 96.8167H151.454V100.083H154.156V96.8167Z" fill="url(#paint12_linear_511_59327)"/>
</g>
<mask id="mask48_511_59327" style="mask-type:luminance" maskUnits="userSpaceOnUse" x="149" y="96" width="4" height="5">
<path d="M151.072 96.8168C150.562 96.867 150.18 97.2941 150.205 97.7966C150.231 98.2237 150.154 98.274 150.002 98.3745C149.568 98.6508 149.466 99.2287 149.747 99.6558C149.925 99.907 150.231 100.058 150.511 100.058C150.69 100.058 150.868 100.008 151.047 99.907C151.811 99.3794 152.143 98.6508 152.066 97.6459C152.041 97.1685 151.607 96.7916 151.123 96.7916C151.123 96.8168 151.098 96.8168 151.072 96.8168Z" fill="white"/>
</mask>
<g mask="url(#mask48_511_59327)">
<path d="M152.169 96.8165H149.467V100.083H152.169V96.8165Z" fill="url(#paint13_linear_511_59327)"/>
</g>
<mask id="mask49_511_59327" style="mask-type:luminance" maskUnits="userSpaceOnUse" x="147" y="96" width="4" height="5">
<path d="M149.158 96.6407C148.649 96.691 148.266 97.1181 148.292 97.6206C148.343 98.1733 148.19 98.2738 147.986 98.3994C147.553 98.6758 147.451 99.2537 147.731 99.6808C147.909 99.932 148.215 100.083 148.496 100.083C148.674 100.083 148.852 100.033 149.031 99.932C149.847 99.3793 150.229 98.5753 150.127 97.495C150.101 97.0176 149.668 96.6407 149.184 96.6407C149.209 96.6407 149.184 96.6407 149.158 96.6407Z" fill="white"/>
</mask>
<g mask="url(#mask49_511_59327)">
<path d="M150.255 96.6408H147.477V100.083H150.255V96.6408Z" fill="url(#paint14_linear_511_59327)"/>
</g>
<mask id="mask50_511_59327" style="mask-type:luminance" maskUnits="userSpaceOnUse" x="145" y="96" width="4" height="5">
<path d="M147.094 96.8165C146.585 96.8668 146.202 97.2939 146.228 97.7964C146.253 98.2235 146.177 98.2737 146.024 98.3742C145.591 98.6506 145.489 99.2284 145.769 99.6555C145.948 99.9068 146.253 100.058 146.534 100.058C146.712 100.058 146.891 100.007 147.069 99.9068C147.834 99.3792 148.165 98.6506 148.088 97.6456C148.063 97.1683 147.63 96.7914 147.145 96.7914C147.145 96.8165 147.12 96.8165 147.094 96.8165Z" fill="white"/>
</mask>
<g mask="url(#mask50_511_59327)">
<path d="M148.192 96.8165H145.49V100.083H148.192V96.8165Z" fill="url(#paint15_linear_511_59327)"/>
</g>
<mask id="mask51_511_59327" style="mask-type:luminance" maskUnits="userSpaceOnUse" x="141" y="58" width="14" height="34">
<path d="M142.002 70.411C142.537 73.7776 144.933 91.1384 144.933 91.1384C148.221 92.0932 154.312 91.4902 154.873 90.2088C154.873 90.2088 151.789 65.562 151.483 63.5269C150.973 60.0095 145.697 58.6528 145.697 58.6528C140.421 61.0145 141.492 67.0192 142.002 70.411Z" fill="white"/>
</mask>
<g mask="url(#mask51_511_59327)">
<path d="M136.851 59.0047L154.718 57.1455L158.439 91.7164L140.572 93.6007L136.851 59.0047Z" fill="url(#paint16_linear_511_59327)"/>
</g>
<mask id="mask52_511_59327" style="mask-type:luminance" maskUnits="userSpaceOnUse" x="140" y="51" width="16" height="38">
<path d="M140.543 64.8838C141.129 68.6775 143.83 88.1991 143.83 88.1991C147.526 89.2794 154.382 88.601 155.02 87.169C155.02 87.169 151.553 59.4318 151.222 57.1455C150.636 53.201 144.723 51.6685 144.723 51.6685C138.758 54.3065 139.956 61.09 140.543 64.8838Z" fill="white"/>
</mask>
<g mask="url(#mask52_511_59327)">
<path d="M155.021 51.6431H138.759V89.2791H155.021V51.6431Z" fill="url(#paint17_linear_511_59327)"/>
</g>
<mask id="mask53_511_59327" style="mask-type:luminance" maskUnits="userSpaceOnUse" x="131" y="43" width="9" height="9">
<path d="M131.626 43.3021V50.7892L133.079 51.9197L139.553 49.7842L138.839 43.2519L131.626 43.3021Z" fill="white"/>
</mask>
<g mask="url(#mask53_511_59327)">
<path d="M136.519 39.4583L143.834 48.6035L134.659 55.7137L127.344 46.5685L136.519 39.4583Z" fill="url(#paint18_linear_511_59327)"/>
</g>
<mask id="mask54_511_59327" style="mask-type:luminance" maskUnits="userSpaceOnUse" x="128" y="32" width="14" height="11">
<path d="M128.234 39.6341L128.616 42.1214L140.85 42.7495L141.436 40.7647C141.768 39.6341 141.768 38.4281 141.36 37.3478C140.417 34.8103 137.919 32.9762 135.013 32.9762C131.267 32.9762 128.234 35.966 128.234 39.6341Z" fill="white"/>
</mask>
<g mask="url(#mask54_511_59327)">
<path d="M138.582 27.3484L145.922 40.4632L131.394 48.3773L124.028 35.2625L138.582 27.3484Z" fill="url(#paint19_radial_511_59327)"/>
</g>
<mask id="mask55_511_59327" style="mask-type:luminance" maskUnits="userSpaceOnUse" x="127" y="35" width="3" height="6">
<path d="M127.672 37.3979C127.672 38.3275 128.564 40.1616 128.564 40.1616L129.838 36.5185L129.813 35.7397C129.634 35.5889 129.43 35.5387 129.226 35.5387C128.513 35.5638 127.672 36.418 127.672 37.3979Z" fill="white"/>
</mask>
<g mask="url(#mask55_511_59327)">
<path d="M129.864 35.5387L129.89 40.1616L127.672 40.1867L127.647 35.5638L129.864 35.5387Z" fill="url(#paint20_radial_511_59327)"/>
</g>
<mask id="mask56_511_59327" style="mask-type:luminance" maskUnits="userSpaceOnUse" x="128" y="35" width="13" height="15">
<path d="M131.98 35.5892C129.916 35.5892 128.234 37.2474 128.234 39.2824V43.9555C128.234 46.8448 130.604 49.2065 133.561 49.2065C137.129 49.2065 140.06 46.3172 140.06 42.7998V38.6041C140.06 36.9459 138.709 35.6143 137.027 35.6143H131.98V35.5892Z" fill="white"/>
</mask>
<g mask="url(#mask56_511_59327)">
<path d="M137.078 30.514L146.05 45.7644L131.216 54.2563L122.244 39.006L137.078 30.514Z" fill="url(#paint21_radial_511_59327)"/>
</g>
<mask id="mask57_511_59327" style="mask-type:luminance" maskUnits="userSpaceOnUse" x="130" y="42" width="2" height="2">
<path d="M130.784 42.5735C130.555 42.9252 130.224 43.5031 130.529 43.7292C130.759 43.9302 130.988 43.9553 131.141 43.9553C131.269 43.9553 131.345 43.8046 131.319 43.6789L131.09 42.6489C131.065 42.5484 130.988 42.4981 130.912 42.4981C130.861 42.4981 130.81 42.5232 130.784 42.5735Z" fill="white"/>
</mask>
<g mask="url(#mask57_511_59327)">
<path d="M129.534 43.4528L130.961 44.4829L132.057 42.9754L130.604 41.9705L129.534 43.4528Z" fill="url(#paint22_radial_511_59327)"/>
</g>
<mask id="mask58_511_59327" style="mask-type:luminance" maskUnits="userSpaceOnUse" x="-37" y="-37" width="304" height="214">
<path d="M266.605 -36.7688H-36.8525V176.887H266.605V-36.7688Z" fill="white"/>
</mask>
<g mask="url(#mask58_511_59327)">
<path d="M129.685 42.1462C129.736 42.5733 129.532 42.9502 129.277 42.9753C128.997 43.0004 128.768 42.6738 128.717 42.2467C128.666 41.8196 128.87 41.4427 129.124 41.4176C129.379 41.3925 129.634 41.7191 129.685 42.1462Z" fill="#171B2C"/>
</g>
<mask id="mask59_511_59327" style="mask-type:luminance" maskUnits="userSpaceOnUse" x="-37" y="-37" width="304" height="214">
<path d="M266.605 -36.7688H-36.8525V176.887H266.605V-36.7688Z" fill="white"/>
</mask>
<g mask="url(#mask59_511_59327)">
<path d="M129.482 41.9204C129.482 41.9958 129.456 42.0712 129.38 42.0712C129.328 42.0712 129.277 42.0209 129.252 41.9455C129.252 41.87 129.277 41.7946 129.354 41.7946C129.405 41.7695 129.482 41.8449 129.482 41.9204Z" fill="#DEE3F8"/>
</g>
<mask id="mask60_511_59327" style="mask-type:luminance" maskUnits="userSpaceOnUse" x="-37" y="-37" width="304" height="214">
<path d="M266.605 -36.7688H-36.8525V176.887H266.605V-36.7688Z" fill="white"/>
</mask>
<g mask="url(#mask60_511_59327)">
<path d="M133.304 42.1465C133.355 42.5736 133.635 42.9253 133.915 42.8751C134.221 42.85 134.425 42.4731 134.374 42.0209C134.323 41.5938 134.043 41.242 133.762 41.2923C133.457 41.3425 133.253 41.7194 133.304 42.1465Z" fill="#171B2C"/>
</g>
<mask id="mask61_511_59327" style="mask-type:luminance" maskUnits="userSpaceOnUse" x="-37" y="-37" width="304" height="214">
<path d="M266.605 -36.7688H-36.8525V176.887H266.605V-36.7688Z" fill="white"/>
</mask>
<g mask="url(#mask61_511_59327)">
<path d="M133.865 41.82C133.865 41.8955 133.942 41.9709 133.993 41.9709C134.069 41.9709 134.12 41.8955 134.095 41.82C134.095 41.7446 134.018 41.6691 133.967 41.6691C133.916 41.644 133.865 41.7194 133.865 41.82Z" fill="#DEE3F8"/>
</g>
<mask id="mask62_511_59327" style="mask-type:luminance" maskUnits="userSpaceOnUse" x="-37" y="-37" width="304" height="214">
<path d="M266.605 -36.7688H-36.8525V176.887H266.605V-36.7688Z" fill="white"/>
</mask>
<g mask="url(#mask62_511_59327)">
<path d="M134.222 40.2873C133.967 40.1868 133.636 40.1617 133.381 40.2371C133.305 40.2622 133.228 40.3627 133.279 40.4381C133.305 40.5134 133.381 40.5637 133.483 40.5386C133.509 40.5386 133.534 40.5134 133.585 40.5134C133.611 40.5134 133.611 40.5134 133.636 40.5134C133.611 40.5134 133.662 40.5134 133.636 40.5134C133.687 40.5134 133.763 40.5134 133.814 40.5134C133.84 40.5134 133.84 40.5134 133.865 40.5134C133.865 40.5134 133.942 40.5134 133.891 40.5134C133.916 40.5134 133.967 40.5134 133.993 40.5386C134.044 40.5637 134.12 40.5637 134.171 40.5888C134.248 40.6139 134.35 40.5637 134.375 40.4883C134.375 40.3878 134.324 40.3376 134.222 40.2873Z" fill="#380D33"/>
</g>
<mask id="mask63_511_59327" style="mask-type:luminance" maskUnits="userSpaceOnUse" x="-37" y="-37" width="304" height="214">
<path d="M266.605 -36.7688H-36.8525V176.887H266.605V-36.7688Z" fill="white"/>
</mask>
<g mask="url(#mask63_511_59327)">
<path d="M129.456 40.2872C129.202 40.237 128.947 40.237 128.717 40.3123C128.641 40.3375 128.564 40.4128 128.615 40.5133C128.641 40.5887 128.717 40.6641 128.819 40.6138C128.87 40.5887 128.921 40.5887 128.972 40.5636H128.998C129.023 40.5636 129.049 40.5636 129.074 40.5636C129.125 40.5636 129.176 40.5636 129.227 40.5636C129.253 40.5636 129.253 40.5636 129.278 40.5636C129.253 40.5636 129.329 40.5636 129.278 40.5636C129.304 40.5636 129.329 40.5636 129.355 40.5887C129.431 40.6138 129.533 40.5636 129.558 40.4882C129.584 40.4128 129.533 40.3123 129.456 40.2872Z" fill="#380D33"/>
</g>
<mask id="mask64_511_59327" style="mask-type:luminance" maskUnits="userSpaceOnUse" x="-37" y="-37" width="304" height="214">
<path d="M266.605 -36.7688H-36.8525V176.887H266.605V-36.7688Z" fill="white"/>
</mask>
<g mask="url(#mask64_511_59327)">
<path d="M133.636 44.6838C133.636 44.8597 133.586 45.0356 133.535 45.2114C133.433 45.4627 133.305 45.7139 133.101 45.9149C132.744 46.2918 132.235 46.543 131.674 46.543C131.113 46.543 130.578 46.3169 130.221 45.94C130.017 45.7391 129.89 45.5129 129.788 45.2617C129.737 45.0858 129.686 44.91 129.66 44.7341L133.636 44.6838Z" fill="#421D17"/>
</g>
<mask id="mask65_511_59327" style="mask-type:luminance" maskUnits="userSpaceOnUse" x="-37" y="-37" width="304" height="214">
<path d="M266.605 -36.7688H-36.8525V176.887H266.605V-36.7688Z" fill="white"/>
</mask>
<g mask="url(#mask65_511_59327)">
<path d="M133.101 45.9403C132.744 46.3172 132.235 46.5433 131.648 46.5433C131.088 46.5433 130.552 46.3172 130.196 45.9403C130.552 45.7644 131.062 45.6388 131.648 45.6388C132.235 45.6137 132.77 45.7393 133.101 45.9403Z" fill="#FF9497"/>
</g>
<mask id="mask66_511_59327" style="mask-type:luminance" maskUnits="userSpaceOnUse" x="-37" y="-37" width="304" height="214">
<path d="M266.605 -36.7688H-36.8525V176.887H266.605V-36.7688Z" fill="white"/>
</mask>
<g mask="url(#mask66_511_59327)">
<path d="M133.586 45.0356L129.712 45.0858C129.686 44.9602 129.661 44.8597 129.635 44.7341L133.611 44.6838C133.637 44.8095 133.611 44.9351 133.586 45.0356Z" fill="white"/>
</g>
<mask id="mask67_511_59327" style="mask-type:luminance" maskUnits="userSpaceOnUse" x="129" y="33" width="12" height="10">
<path d="M129.277 36.7695C130.908 34.86 135.19 37.6739 135.19 37.6739C134.604 39.1311 136.618 42.0958 138.045 42.2968L140.415 41.8446C140.415 41.8446 141.18 36.5685 137.076 34.2822C135.751 33.5536 134.171 33.1013 132.769 33.1013C130.679 33.0762 128.997 34.1063 129.277 36.7695Z" fill="white"/>
</mask>
<g mask="url(#mask67_511_59327)">
<path d="M145.793 36.8952L136.108 48.2011L124.384 38.4529L134.069 27.147L145.793 36.8952Z" fill="url(#paint23_radial_511_59327)"/>
</g>
<mask id="mask68_511_59327" style="mask-type:luminance" maskUnits="userSpaceOnUse" x="137" y="41" width="5" height="4">
<path d="M137.871 42.9502C137.871 43.9049 138.661 44.6838 139.63 44.6838C140.598 44.6838 141.388 43.9049 141.388 42.9502C141.388 41.9955 140.598 41.2166 139.63 41.2166C138.661 41.2417 137.871 41.9955 137.871 42.9502Z" fill="white"/>
</mask>
<g mask="url(#mask68_511_59327)">
<path d="M138.175 40.262L142.355 41.5433L141.081 45.6637L136.875 44.3823L138.175 40.262Z" fill="url(#paint24_radial_511_59327)"/>
</g>
<mask id="mask69_511_59327" style="mask-type:luminance" maskUnits="userSpaceOnUse" x="-37" y="-37" width="304" height="198">
<path d="M266.605 -36.7688H-36.8525V160.987H266.605V-36.7688Z" fill="white"/>
</mask>
<g mask="url(#mask69_511_59327)">
<path d="M84.2404 94.4801L59.0585 92.5456C58.4723 92.4953 58.039 92.0179 58.09 91.4401L59.186 73.828C59.2115 73.2502 59.7212 72.7979 60.3329 72.8482L85.4893 74.7827C86.0756 74.833 86.5089 75.3104 86.4579 75.8882L85.3619 93.5003C85.3364 94.0781 84.8267 94.5304 84.2404 94.4801Z" fill="#D9E7FF"/>
</g>
<mask id="mask70_511_59327" style="mask-type:luminance" maskUnits="userSpaceOnUse" x="71" y="48" width="9" height="9">
<path d="M71.2439 54.9849L78.8138 56.6682L79.0686 51.0906L72.7987 48.7792L71.2439 54.9849Z" fill="white"/>
</mask>
<g mask="url(#mask70_511_59327)">
<path d="M79.0684 48.7793H71.2437V56.6934H79.0684V48.7793Z" fill="url(#paint25_linear_511_59327)"/>
</g>
<mask id="mask71_511_59327" style="mask-type:luminance" maskUnits="userSpaceOnUse" x="71" y="51" width="9" height="6">
<path d="M71.1663 54.9597L79.1694 56.5677L79.3478 54.1306C79.3733 53.8543 79.1949 53.6281 78.94 53.5528L71.9819 51.6685L71.1663 54.9597Z" fill="white"/>
</mask>
<g mask="url(#mask71_511_59327)">
<path d="M71.5999 49.8345L80.4951 51.9198L78.9149 58.4019L70.0452 56.3166L71.5999 49.8345Z" fill="url(#paint26_linear_511_59327)"/>
</g>
<mask id="mask72_511_59327" style="mask-type:luminance" maskUnits="userSpaceOnUse" x="60" y="135" width="17" height="14">
<path d="M62.1955 135.483C61.0995 136.01 60.4368 138.046 60.4113 140.106C60.3858 142.141 60.4878 148.648 60.4878 148.648H63.6483L63.5463 144.904V144.729C63.5463 144.729 66.4774 147.794 67.0636 148.171C67.3695 148.346 68.9497 148.472 71.473 148.447C73.0278 148.422 74.557 148.372 75.551 148.346C76.1882 148.321 76.698 147.819 76.749 147.191C76.7999 146.211 76.8509 144.829 76.6725 144.352C76.3921 143.548 74.2767 143.171 74.2767 143.171C70.7593 143.548 68.4145 141.739 66.4264 138.523C64.6678 135.659 62.7052 135.508 62.2974 135.508C62.2209 135.458 62.1955 135.483 62.1955 135.483Z" fill="white"/>
</mask>
<g mask="url(#mask72_511_59327)">
<path d="M76.8251 135.458H60.36V148.597H76.8251V135.458Z" fill="url(#paint27_linear_511_59327)"/>
</g>
<mask id="mask73_511_59327" style="mask-type:luminance" maskUnits="userSpaceOnUse" x="62" y="132" width="13" height="12">
<path d="M62.1941 135.483C62.1941 135.483 64.437 135.282 66.4251 138.498C68.3876 141.714 70.758 143.523 74.2753 143.146C74.2753 143.146 71.1148 139.327 70.9109 137.392C70.707 135.458 71.7265 132.669 71.7265 132.669L62.398 132.418L62.1941 135.483Z" fill="white"/>
</mask>
<g mask="url(#mask73_511_59327)">
<path d="M74.2497 132.393H62.194V143.523H74.2497V132.393Z" fill="url(#paint28_linear_511_59327)"/>
</g>
<mask id="mask74_511_59327" style="mask-type:luminance" maskUnits="userSpaceOnUse" x="61" y="78" width="18" height="57">
<path d="M64.6915 96.5402L61.7859 134.277L74.5807 134.804L75.3454 125.81L75.4473 124.805L78.5313 97.0678L78.4039 79.6819L66.6286 78.9282C65.2012 83.0737 62.2956 87.6965 64.6915 96.5402Z" fill="white"/>
</mask>
<g mask="url(#mask74_511_59327)">
<path d="M62.1183 76.6669L86.3316 80.0084L78.2265 137.066L54.0132 133.724L62.1183 76.6669Z" fill="url(#paint29_linear_511_59327)"/>
</g>
<mask id="mask75_511_59327" style="mask-type:luminance" maskUnits="userSpaceOnUse" x="78" y="135" width="18" height="14">
<path d="M80.672 135.483C79.576 136.01 78.9134 138.046 78.8879 140.106C78.8624 142.141 78.9643 148.648 78.9643 148.648H82.1248L82.0229 144.904V144.729C82.0229 144.729 84.954 147.794 85.5402 148.171C85.846 148.346 87.4263 148.472 89.9496 148.447C91.5043 148.422 93.0336 148.372 94.0276 148.346C94.6648 148.321 95.1746 147.819 95.2255 147.191C95.2765 146.211 95.3275 144.829 95.1491 144.352C94.8687 143.548 92.7532 143.171 92.7532 143.171C89.2359 143.548 86.891 141.739 84.903 138.523C83.1443 135.659 81.1818 135.508 80.774 135.508C80.6975 135.458 80.672 135.483 80.672 135.483Z" fill="white"/>
</mask>
<g mask="url(#mask75_511_59327)">
<path d="M95.3025 135.458H78.8374V148.597H95.3025V135.458Z" fill="url(#paint30_linear_511_59327)"/>
</g>
<mask id="mask76_511_59327" style="mask-type:luminance" maskUnits="userSpaceOnUse" x="-37" y="-37" width="304" height="214">
<path d="M266.605 -36.7688H-36.8525V176.887H266.605V-36.7688Z" fill="white"/>
</mask>
<g mask="url(#mask76_511_59327)">
<mask id="mask77_511_59327" style="mask-type:luminance" maskUnits="userSpaceOnUse" x="81" y="142" width="9" height="7">
<path d="M89.9274 142.744H81.8733V148.422H89.9274V142.744Z" fill="white"/>
</mask>
<g mask="url(#mask77_511_59327)">
<path d="M89.9266 148.422C87.4034 148.472 85.8231 148.346 85.5173 148.145C84.931 147.769 82 144.703 82 144.703V144.879L81.898 144.553C81.898 144.553 81.7451 142.844 82.2039 142.794C82.6117 142.693 88.5248 147.291 89.9266 148.422Z" fill="#1F2F97"/>
</g>
</g>
<mask id="mask78_511_59327" style="mask-type:luminance" maskUnits="userSpaceOnUse" x="79" y="132" width="14" height="12">
<path d="M80.6732 135.483C80.6732 135.483 82.9161 135.282 84.9042 138.498C86.8667 141.714 89.2371 143.523 92.7544 143.146C92.7544 143.146 89.5939 139.327 89.39 137.392C89.1861 135.458 88.447 132.719 88.447 132.719L79.8066 132.619L80.6732 135.483Z" fill="white"/>
</mask>
<g mask="url(#mask78_511_59327)">
<path d="M92.7288 132.619H79.7555V143.523H92.7288V132.619Z" fill="url(#paint31_linear_511_59327)"/>
</g>
<mask id="mask79_511_59327" style="mask-type:luminance" maskUnits="userSpaceOnUse" x="65" y="78" width="27" height="58">
<path d="M68.949 96.9171L75.4739 124.805L76.4934 135.734H91.0979L82.9163 87.4704L82.6105 79.7824L66.6551 78.9282C64.7945 86.3398 64.3867 93.0731 68.949 96.9171Z" fill="white"/>
</mask>
<g mask="url(#mask79_511_59327)">
<path d="M55.8738 80.2095L90.5116 75.0339L99.6362 134.453L64.9984 139.628L55.8738 80.2095Z" fill="url(#paint32_linear_511_59327)"/>
</g>
<mask id="mask80_511_59327" style="mask-type:luminance" maskUnits="userSpaceOnUse" x="59" y="57" width="19" height="36">
<path d="M67.7018 60.7886L59.8006 85.7872C58.9595 88.4503 60.4633 91.2894 63.1904 92.1185C63.7002 92.2692 64.21 92.3446 64.7197 92.3446C66.9117 92.3446 68.9507 90.9628 69.6134 88.7769L77.5146 63.7784C78.3557 61.1152 76.8519 58.2762 74.1247 57.4471C73.6149 57.2963 73.1052 57.2209 72.5954 57.2209C70.4035 57.2461 68.39 58.6279 67.7018 60.7886Z" fill="white"/>
</mask>
<g mask="url(#mask80_511_59327)">
<path d="M78.3552 57.2462H58.959V92.3949H78.3552V57.2462Z" fill="url(#paint33_linear_511_59327)"/>
</g>
<mask id="mask81_511_59327" style="mask-type:luminance" maskUnits="userSpaceOnUse" x="58" y="72" width="30" height="23">
<path d="M59.7218 73.8533L58.6258 91.4654C58.6003 92.0432 59.0336 92.5206 59.5944 92.5709L84.7763 94.5054C85.3625 94.5557 85.8722 94.1034 85.9232 93.5256L87.0192 75.9135C87.0447 75.3356 86.6114 74.8583 86.0506 74.808L60.8687 72.8735C60.8433 72.8735 60.8178 72.8735 60.7923 72.8735C60.2316 72.8735 59.7728 73.2755 59.7218 73.8533Z" fill="white"/>
</mask>
<g mask="url(#mask81_511_59327)">
<path d="M87.0449 72.8734H58.6005V94.5304H87.0449V72.8734Z" fill="url(#paint34_linear_511_59327)"/>
</g>
<mask id="mask82_511_59327" style="mask-type:luminance" maskUnits="userSpaceOnUse" x="63" y="54" width="23" height="44">
<path d="M66.6558 78.9285C63.0111 84.8327 63.6992 91.4152 64.158 96.2642C64.8972 96.4903 65.7128 96.6411 66.5793 96.7667L67.1656 94.6311L67.8537 96.9174C72.6454 97.3445 78.9919 96.6913 85.8226 96.2893L82.6112 79.7827V75.4614L83.4013 73.2504C85.1854 68.3512 84.4208 62.8993 81.3622 58.6784L78.9154 55.2866L71.1417 54.96C65.4324 58.4774 66.4519 69.1301 66.6558 78.9285Z" fill="white"/>
</mask>
<g mask="url(#mask82_511_59327)">
<path d="M63.0891 53.8797L87.8887 55.0605L85.7732 98.3998L60.9736 97.219L63.0891 53.8797Z" fill="url(#paint35_linear_511_59327)"/>
</g>
<mask id="mask83_511_59327" style="mask-type:luminance" maskUnits="userSpaceOnUse" x="92" y="74" width="15" height="11">
<path d="M92.8806 81.7423L95.3529 82.4206C96.3979 84.2798 102.897 84.933 102.897 84.933L106.619 79.2801C104.809 77.8983 98.8448 76.5416 98.8448 76.5416L95.4294 74.9587L92.8806 81.7423Z" fill="white"/>
</mask>
<g mask="url(#mask83_511_59327)">
<path d="M106.619 74.9587H92.8807V84.933H106.619V74.9587Z" fill="url(#paint36_linear_511_59327)"/>
</g>
<mask id="mask84_511_59327" style="mask-type:luminance" maskUnits="userSpaceOnUse" x="96" y="74" width="7" height="5">
<path d="M101.601 74.3055C101.015 74.3055 100.428 74.4814 99.944 74.8331L96.8855 76.9938C97.0639 77.5968 97.5227 77.9234 98.1599 78.0742C98.4148 78.1244 98.6696 78.1244 98.9245 78.0239C99.4852 77.8229 100.811 77.5465 101.422 77.0441C101.575 76.8933 101.652 76.8179 101.652 76.7928C101.856 76.5165 102.467 75.2351 101.907 74.2804H101.601V74.3055Z" fill="white"/>
</mask>
<g mask="url(#mask84_511_59327)">
<path d="M104.251 76.9436L98.6432 80.6871L95.075 75.5115L100.708 71.768L104.251 76.9436Z" fill="url(#paint37_linear_511_59327)"/>
</g>
<mask id="mask85_511_59327" style="mask-type:luminance" maskUnits="userSpaceOnUse" x="70" y="57" width="27" height="29">
<path d="M73.72 57.9498C70.8144 59.1557 69.438 62.4721 70.6615 65.3363C73.8474 72.7982 79.2508 81.466 93.0652 85.2347L96.9138 74.582C86.7697 72.0696 83.4818 66.3161 81.2134 60.9898C80.2958 58.8291 78.1804 57.5478 75.9374 57.5478C75.1728 57.4975 74.4336 57.6483 73.72 57.9498Z" fill="white"/>
</mask>
<g mask="url(#mask85_511_59327)">
<path d="M110.931 71.1398L83.379 98.7262L55.3679 71.567L82.9457 43.9554L110.931 71.1398Z" fill="url(#paint38_linear_511_59327)"/>
</g>
<mask id="mask86_511_59327" style="mask-type:luminance" maskUnits="userSpaceOnUse" x="82" y="46" width="1" height="3">
<path d="M82.1006 46.8192L82.177 47.8241C82.177 47.9498 82.3045 48.0502 82.4319 48.0251C82.5849 48 82.7888 47.8995 82.9417 47.6483C83.1456 47.3468 82.6868 46.8945 82.3555 46.6433C82.33 46.6182 82.279 46.6182 82.2535 46.6182C82.177 46.6182 82.1006 46.7187 82.1006 46.8192Z" fill="white"/>
</mask>
<g mask="url(#mask86_511_59327)">
<path d="M83.8595 47.1709L82.7635 48.5779L81.3872 47.5478L82.4832 46.1157L83.8595 47.1709Z" fill="url(#paint39_radial_511_59327)"/>
</g>
<mask id="mask87_511_59327" style="mask-type:luminance" maskUnits="userSpaceOnUse" x="72" y="41" width="11" height="12">
<path d="M72.1355 42.7995L72.7727 49.4323C72.8746 50.2614 73.6138 51.0151 74.3784 51.3919C75.8057 52.1206 78.3035 53.226 80.5974 52.2462C82.2032 51.5678 82.6619 49.1056 82.4325 47.2967C82.3561 46.6435 82.2796 45.9651 82.3306 45.3119C82.3816 44.3069 82.3306 43.1763 81.6934 42.3472C81.3111 41.6438 80.3171 41.3925 79.0937 41.3925C76.239 41.3925 72.1355 42.7995 72.1355 42.7995Z" fill="white"/>
</mask>
<g mask="url(#mask87_511_59327)">
<path d="M88.5246 45.8898L78.6609 58.2761L66.2993 48.7038L76.1631 36.3427L88.5246 45.8898Z" fill="url(#paint40_radial_511_59327)"/>
</g>
<mask id="mask88_511_59327" style="mask-type:luminance" maskUnits="userSpaceOnUse" x="67" y="38" width="15" height="14">
<path d="M74.2273 38.3025C70.2512 38.4281 67.524 40.6641 67.4221 44.5835C67.2437 51.7942 74.7371 51.568 74.7371 51.568C78.8661 49.4827 79.5797 46.4427 79.5797 46.4427C79.5797 46.4427 81.3129 45.4377 81.7207 42.3223C81.109 39.8099 77.7701 38.2773 74.5587 38.2773C74.4567 38.3025 74.3293 38.3025 74.2273 38.3025Z" fill="white"/>
</mask>
<g mask="url(#mask88_511_59327)">
<path d="M84.6515 38.9557L81.0067 54.8845L64.3123 51.1661L67.957 35.2374L84.6515 38.9557Z" fill="url(#paint41_radial_511_59327)"/>
</g>
<mask id="mask89_511_59327" style="mask-type:luminance" maskUnits="userSpaceOnUse" x="77" y="45" width="4" height="4">
<path d="M79.1948 45.1358C78.4047 45.2614 77.8695 46.1156 77.9714 47.0704C78.0734 48 78.787 48.6783 79.5771 48.5527C80.3673 48.4271 80.9025 47.5728 80.8006 46.6181C80.6986 45.7639 80.0869 45.1358 79.3987 45.1358C79.3223 45.1107 79.2458 45.1358 79.1948 45.1358Z" fill="white"/>
</mask>
<g mask="url(#mask89_511_59327)">
<path d="M82.6875 46.7186L79.527 50.1606L76.0862 47.0703L79.2212 43.6283L82.6875 46.7186Z" fill="url(#paint42_radial_511_59327)"/>
</g>
<mask id="mask90_511_59327" style="mask-type:luminance" maskUnits="userSpaceOnUse" x="65" y="49" width="8" height="16">
<path d="M68.6946 64.5824C68.6946 64.5824 73.1294 61.065 71.7786 49.9099C71.6257 49.8848 71.4472 49.8848 71.2943 49.8848C66.3497 49.8848 61.9913 57.5476 68.6946 64.5824Z" fill="white"/>
</mask>
<g mask="url(#mask90_511_59327)">
<path d="M62.6548 47.2718L76.6731 50.7641L72.4676 67.1953L58.4238 63.703L62.6548 47.2718Z" fill="url(#paint43_linear_511_59327)"/>
</g>
<mask id="mask91_511_59327" style="mask-type:luminance" maskUnits="userSpaceOnUse" x="-37" y="-23" width="304" height="198">
<path d="M266.605 -22.8563H-36.8521V174.9H266.605V-22.8563Z" fill="white"/>
</mask>
<g mask="url(#mask91_511_59327)">
<path d="M21.8218 65.79C23.2237 65.6039 24.7529 66.5108 25.2372 67.7898L33.6227 90.5793C34.1069 91.8582 33.3423 93.0442 31.915 93.2303L16.6733 95.1836C15.2715 95.3697 13.7422 94.4628 13.2579 93.1838L4.87248 70.3943C4.38821 69.1154 5.15284 67.9294 6.58016 67.7433L21.8218 65.79Z" fill="#D34AA5"/>
</g>
<mask id="mask92_511_59327" style="mask-type:luminance" maskUnits="userSpaceOnUse" x="-37" y="-23" width="304" height="198">
<path d="M266.605 -22.8563H-36.8521V174.9H266.605V-22.8563Z" fill="white"/>
</mask>
<g mask="url(#mask92_511_59327)">
<path d="M31.8894 93.2304L16.6477 95.1838C15.2459 95.3698 13.7166 94.4629 13.2323 93.1839L4.84686 70.3945C4.5665 69.6503 4.71942 68.9527 5.12723 68.4644L3.36857 70.534C2.93528 71.0456 2.80784 71.7432 3.08821 72.4641L11.4737 95.2535C11.9579 96.5325 13.4872 97.4395 14.889 97.2534L30.1307 95.3C30.7424 95.2303 31.2267 94.9512 31.5325 94.5792L33.2912 92.5095C32.9853 92.9048 32.5011 93.1606 31.8894 93.2304Z" fill="#A62D7D"/>
</g>
<mask id="mask93_511_59327" style="mask-type:luminance" maskUnits="userSpaceOnUse" x="-37" y="-23" width="304" height="198">
<path d="M266.605 -22.8563H-36.8521V174.9H266.605V-22.8563Z" fill="white"/>
</mask>
<g mask="url(#mask93_511_59327)">
<path d="M31.992 57.395C33.3938 57.209 34.9231 58.1159 35.4074 59.3949L43.7928 82.1843C44.2771 83.4633 43.5125 84.6493 42.0851 84.8353L26.8435 86.7887C25.4416 86.9747 23.9124 86.0678 23.4281 84.7888L15.0426 61.9994C14.5584 60.7204 15.323 59.5344 16.7503 59.3484L31.992 57.395Z" fill="#FCE7F0"/>
</g>
<mask id="mask94_511_59327" style="mask-type:luminance" maskUnits="userSpaceOnUse" x="-37" y="-23" width="304" height="198">
<path d="M266.605 -22.8563H-36.8521V174.9H266.605V-22.8563Z" fill="white"/>
</mask>
<g mask="url(#mask94_511_59327)">
<path d="M26.1289 62.4645L28.4228 68.6502L21.6175 69.5338L19.3491 63.3482L26.1289 62.4645Z" fill="#F98ED1"/>
</g>
<mask id="mask95_511_59327" style="mask-type:luminance" maskUnits="userSpaceOnUse" x="-37" y="-23" width="304" height="198">
<path d="M266.605 -22.8563H-36.8521V174.9H266.605V-22.8563Z" fill="white"/>
</mask>
<g mask="url(#mask95_511_59327)">
<path d="M28.4233 68.6502L28.0665 69.0688L21.2612 69.9292L21.6181 69.5339L28.4233 68.6502Z" fill="#D34AA5"/>
</g>
<mask id="mask96_511_59327" style="mask-type:luminance" maskUnits="userSpaceOnUse" x="-37" y="-23" width="304" height="198">
<path d="M266.605 -22.8563H-36.8521V174.9H266.605V-22.8563Z" fill="white"/>
</mask>
<g mask="url(#mask96_511_59327)">
<path d="M21.6189 69.5338L21.2621 69.9291L18.9937 63.7434L19.3505 63.3481L21.6189 69.5338Z" fill="#D34AA5"/>
</g>
<mask id="mask97_511_59327" style="mask-type:luminance" maskUnits="userSpaceOnUse" x="-37" y="-23" width="304" height="198">
<path d="M266.605 -22.8563H-36.8521V174.9H266.605V-22.8563Z" fill="white"/>
</mask>
<g mask="url(#mask97_511_59327)">
<path d="M36.7834 70.022C37.4716 69.929 38.2107 70.3708 38.4401 70.9754C38.6695 71.6033 38.2872 72.1614 37.6245 72.2544L24.5493 73.9287C23.8611 74.0217 23.122 73.5799 22.8926 72.9753C22.6632 72.3474 23.0455 71.7893 23.7082 71.6963L36.7834 70.022Z" fill="#FAB9D0"/>
</g>
<mask id="mask98_511_59327" style="mask-type:luminance" maskUnits="userSpaceOnUse" x="-37" y="-23" width="304" height="198">
<path d="M266.605 -22.8563H-36.8521V174.9H266.605V-22.8563Z" fill="white"/>
</mask>
<g mask="url(#mask98_511_59327)">
<path d="M37.6254 72.2547L24.5502 73.929C23.862 74.022 23.1229 73.5802 22.8935 72.9756C22.7915 72.6733 22.817 72.371 22.97 72.1384C22.9954 72.1152 23.0209 72.0687 23.0464 72.0454L22.6896 72.464C22.4857 72.6965 22.4092 73.0454 22.5367 73.3942C22.7661 74.022 23.5052 74.4406 24.1934 74.3476L37.2686 72.6733C37.549 72.6268 37.8038 72.5105 37.9568 72.3245L38.3136 71.9059C38.1352 72.0919 37.9058 72.2314 37.6254 72.2547Z" fill="#D67496"/>
</g>
<mask id="mask99_511_59327" style="mask-type:luminance" maskUnits="userSpaceOnUse" x="-37" y="-23" width="304" height="198">
<path d="M266.605 -22.8563H-36.8521V174.9H266.605V-22.8563Z" fill="white"/>
</mask>
<g mask="url(#mask99_511_59327)">
<path d="M38.4658 74.58C39.1539 74.4869 39.8931 74.9288 40.1225 75.5334C40.3519 76.1613 39.9695 76.7194 39.3069 76.8124L26.2316 78.4867C25.5435 78.5797 24.8043 78.1379 24.5749 77.5333C24.3456 76.9054 24.7279 76.3473 25.3905 76.2543L38.4658 74.58Z" fill="#FAB9D0"/>
</g>
<mask id="mask100_511_59327" style="mask-type:luminance" maskUnits="userSpaceOnUse" x="-37" y="-23" width="304" height="198">
<path d="M266.605 -22.8563H-36.8521V174.9H266.605V-22.8563Z" fill="white"/>
</mask>
<g mask="url(#mask100_511_59327)">
<path d="M39.9693 76.4869C39.8164 76.673 39.587 76.7892 39.2812 76.8358L26.206 78.5101C25.5178 78.6031 24.7786 78.1613 24.5493 77.5566C24.4218 77.2078 24.4728 76.859 24.7022 76.6265L24.3454 77.045C24.1415 77.2776 24.065 77.6264 24.1924 77.9752C24.4218 78.6031 25.161 79.0217 25.8491 78.9287L38.9243 77.2543C39.0008 77.2543 39.0773 77.2311 39.1283 77.2078C39.2302 77.1846 39.3067 77.1381 39.3831 77.0915C39.4596 77.045 39.5361 76.9753 39.6125 76.9055L39.9693 76.4869Z" fill="#D67496"/>
</g>
<mask id="mask101_511_59327" style="mask-type:luminance" maskUnits="userSpaceOnUse" x="-37" y="-23" width="304" height="198">
<path d="M266.605 -22.8563H-36.8521V174.9H266.605V-22.8563Z" fill="white"/>
</mask>
<g mask="url(#mask101_511_59327)">
<path d="M40.1472 79.1613C40.8353 79.0682 41.5745 79.5101 41.8039 80.1147C42.0333 80.7426 41.6509 81.3007 40.9883 81.3937L27.913 83.068C27.2249 83.161 26.4857 82.7192 26.2563 82.1146C26.0269 81.4867 26.4093 80.9286 27.0719 80.8356L40.1472 79.1613Z" fill="#FAB9D0"/>
</g>
<mask id="mask102_511_59327" style="mask-type:luminance" maskUnits="userSpaceOnUse" x="-37" y="-23" width="304" height="198">
<path d="M266.605 -22.8563H-36.8521V174.9H266.605V-22.8563Z" fill="white"/>
</mask>
<g mask="url(#mask102_511_59327)">
<path d="M41.6511 81.0682C41.4982 81.2542 41.2688 81.3705 40.9629 81.417L27.8877 83.0913C27.1995 83.1843 26.4604 82.7425 26.231 82.1379C26.18 81.9984 26.1545 81.8821 26.1545 81.7426C26.1545 81.5333 26.231 81.3472 26.3584 81.1844L26.0016 81.603C25.7977 81.8356 25.7212 82.1844 25.8487 82.5332C26.0781 83.1611 26.8172 83.5797 27.5054 83.4866L40.5806 81.8123C40.6571 81.8123 40.7335 81.7891 40.7845 81.7658C40.8865 81.7426 40.9629 81.696 41.0394 81.6495C41.1158 81.603 41.1923 81.5333 41.2688 81.4635L41.6511 81.0682Z" fill="#D67496"/>
</g>
<mask id="mask103_511_59327" style="mask-type:luminance" maskUnits="userSpaceOnUse" x="-37" y="-23" width="304" height="198">
<path d="M266.605 -22.8563H-36.8521V174.9H266.605V-22.8563Z" fill="white"/>
</mask>
<g mask="url(#mask103_511_59327)">
<path d="M42.0854 84.8354L26.8437 86.7888C25.4419 86.9748 23.9126 86.0679 23.4284 84.7889L15.0429 61.9995C14.7625 61.2554 14.9155 60.5577 15.3233 60.0694L13.5646 62.139C13.1313 62.6506 13.0039 63.3483 13.2843 64.0692L21.6697 86.8586C22.154 88.1376 23.6833 89.0445 25.0851 88.8585L40.3268 86.9051C40.862 86.8353 41.2953 86.626 41.6011 86.3237C41.6521 86.2772 41.6776 86.2307 41.7286 86.1842L43.4872 84.1145C43.1814 84.5099 42.6971 84.7657 42.0854 84.8354Z" fill="#FC99B8"/>
</g>
<mask id="mask104_511_59327" style="mask-type:luminance" maskUnits="userSpaceOnUse" x="-4" y="-23" width="262" height="184">
<path d="M257.457 -22.8563H-4V160.183H257.457V-22.8563Z" fill="white"/>
</mask>
<g mask="url(#mask104_511_59327)">
<path d="M41.0135 98.7572C41.7781 98.6496 42.6702 99.0801 43.0016 99.7043L47.2325 108.099C47.5639 108.723 47.1816 109.325 46.4169 109.433L36.1963 110.897C35.4317 111.004 34.5396 110.574 34.2083 109.95L29.9773 101.555C29.646 100.931 30.0283 100.328 30.7929 100.221L41.0135 98.7572Z" fill="#5E06A0"/>
</g>
<path d="M47.1829 109.16C47.1574 109.206 47.1064 109.253 47.0555 109.299C47.03 109.322 47.03 109.322 47.0045 109.346C46.979 109.369 46.928 109.392 46.9025 109.415C46.877 109.439 46.8515 109.439 46.8261 109.462C46.7751 109.485 46.7496 109.508 46.6986 109.508C46.6731 109.508 46.6476 109.532 46.6222 109.532C46.5457 109.555 46.4947 109.578 46.4183 109.578L36.1977 111.159C36.1467 111.159 36.0702 111.183 36.0192 111.183C35.9938 111.183 35.9938 111.183 35.9683 111.183C35.9173 111.183 35.8918 111.183 35.8408 111.183C35.8154 111.183 35.8153 111.183 35.7899 111.183C35.7134 111.183 35.6369 111.159 35.586 111.159C35.5605 111.159 35.5605 111.159 35.535 111.159C35.4585 111.136 35.3821 111.113 35.3311 111.09C35.2546 111.066 35.1782 111.043 35.1272 110.997C35.1272 110.997 35.1017 110.973 35.0762 110.973C34.9997 110.95 34.9488 110.904 34.8978 110.857L34.8723 110.834C34.8213 110.787 34.7449 110.741 34.6939 110.694C34.6429 110.648 34.5919 110.601 34.541 110.532L34.5155 110.508C34.4645 110.462 34.4135 110.392 34.388 110.346L34.3625 110.322C34.3116 110.253 34.2861 110.206 34.2606 110.136L30.0296 101.067C29.8767 100.741 29.8767 100.416 30.0296 100.16C30.0551 100.114 30.0806 100.09 30.1061 100.044L28.3729 102.439C28.169 102.718 28.1435 103.09 28.3219 103.462L32.5529 112.531C32.5784 112.601 32.6294 112.648 32.6549 112.718L32.6804 112.741C32.7313 112.787 32.7568 112.857 32.8078 112.904L32.8333 112.927C32.8843 112.973 32.9352 113.02 32.9862 113.09C33.0372 113.136 33.1136 113.183 33.1646 113.229L33.1901 113.252C33.2411 113.299 33.3175 113.322 33.3685 113.369C33.394 113.369 33.394 113.392 33.4195 113.392C33.496 113.415 33.5469 113.462 33.6234 113.485C33.6999 113.508 33.7763 113.531 33.8273 113.555C33.8528 113.555 33.8528 113.555 33.8783 113.555C33.9547 113.578 34.0312 113.578 34.0822 113.578C34.0822 113.578 34.0822 113.578 34.1077 113.578H34.1332C34.1841 113.578 34.2096 113.578 34.2606 113.578C34.2861 113.578 34.2861 113.578 34.3116 113.578C34.3625 113.578 34.439 113.578 34.49 113.555L44.7106 111.973C44.7616 111.973 44.8125 111.95 44.889 111.927C44.9145 111.927 44.9145 111.927 44.94 111.904C44.9655 111.904 44.9909 111.88 45.0164 111.88C45.0674 111.857 45.0929 111.834 45.1439 111.834C45.1694 111.811 45.1948 111.811 45.2203 111.787C45.2713 111.764 45.2968 111.741 45.3223 111.718C45.3478 111.694 45.3478 111.694 45.3733 111.671C45.4242 111.625 45.4752 111.578 45.5007 111.532L47.1829 109.16Z" fill="#310354"/>
</g>
<defs>
<linearGradient id="paint0_linear_511_59327" x1="187.888" y1="88.1382" x2="177.271" y2="140.409" gradientUnits="userSpaceOnUse">
<stop stop-color="#BAC5FF"/>
<stop offset="0.08971" stop-color="#BAC5FF"/>
<stop offset="0.2387" stop-color="#B7C2FB"/>
<stop offset="0.3915" stop-color="#AEB8EF"/>
<stop offset="0.5462" stop-color="#9EA8DA"/>
<stop offset="0.7022" stop-color="#8891BD"/>
<stop offset="0.8576" stop-color="#6D7499"/>
<stop offset="1" stop-color="#4E5470"/>
</linearGradient>
<linearGradient id="paint1_linear_511_59327" x1="204.391" y1="137.643" x2="136.721" y2="100.03" gradientUnits="userSpaceOnUse">
<stop stop-color="#FFC842"/>
<stop offset="0.9285" stop-color="#EDA820"/>
<stop offset="1" stop-color="#EDA820"/>
</linearGradient>
<linearGradient id="paint2_linear_511_59327" x1="107.781" y1="78.3517" x2="91.7426" y2="78.3778" gradientUnits="userSpaceOnUse">
<stop stop-color="#F2A7B2"/>
<stop offset="0.2395" stop-color="#F2A7B2"/>
<stop offset="0.4673" stop-color="#FAB5BE"/>
<stop offset="0.7037" stop-color="#FFBEC7"/>
<stop offset="1" stop-color="#FFBEC7"/>
</linearGradient>
<linearGradient id="paint3_linear_511_59327" x1="113.403" y1="65.7567" x2="125.08" y2="72.4824" gradientUnits="userSpaceOnUse">
<stop stop-color="#4242CB"/>
<stop offset="0.1007" stop-color="#4242CB"/>
<stop offset="0.2945" stop-color="#4141C8"/>
<stop offset="0.4255" stop-color="#3E3EBF"/>
<stop offset="0.5379" stop-color="#3939B0"/>
<stop offset="0.6399" stop-color="#32329B"/>
<stop offset="0.7347" stop-color="#29297F"/>
<stop offset="0.8244" stop-color="#1E1E5D"/>
<stop offset="0.91" stop-color="#111134"/>
<stop offset="0.9903" stop-color="#020206"/>
<stop offset="1"/>
</linearGradient>
<linearGradient id="paint4_linear_511_59327" x1="120.218" y1="139.401" x2="122.43" y2="144.819" gradientUnits="userSpaceOnUse">
<stop stop-color="#A04F66"/>
<stop offset="1" stop-color="#4E2757"/>
</linearGradient>
<linearGradient id="paint5_linear_511_59327" x1="119.348" y1="110.399" x2="139.823" y2="110.399" gradientUnits="userSpaceOnUse">
<stop stop-color="#4242CB"/>
<stop offset="0.1007" stop-color="#4242CB"/>
<stop offset="0.194" stop-color="#3E3EC0"/>
<stop offset="0.3596" stop-color="#3434A1"/>
<stop offset="0.5784" stop-color="#252570"/>
<stop offset="0.8389" stop-color="#0F0F2D"/>
<stop offset="1"/>
</linearGradient>
<linearGradient id="paint6_linear_511_59327" x1="139.102" y1="140.429" x2="141.78" y2="145.163" gradientUnits="userSpaceOnUse">
<stop stop-color="#A04F66"/>
<stop offset="1" stop-color="#4E2757"/>
</linearGradient>
<linearGradient id="paint7_linear_511_59327" x1="126.318" y1="111.43" x2="152.442" y2="111.43" gradientUnits="userSpaceOnUse">
<stop stop-color="#4242CB"/>
<stop offset="0.1838" stop-color="#4242CB"/>
<stop offset="0.3597" stop-color="#4141C8"/>
<stop offset="0.4786" stop-color="#3E3EBF"/>
<stop offset="0.5806" stop-color="#3939B0"/>
<stop offset="0.6731" stop-color="#32329B"/>
<stop offset="0.7592" stop-color="#29297F"/>
<stop offset="0.8406" stop-color="#1E1E5D"/>
<stop offset="0.9183" stop-color="#111134"/>
<stop offset="0.9912" stop-color="#020206"/>
<stop offset="1"/>
</linearGradient>
<linearGradient id="paint8_linear_511_59327" x1="119.38" y1="71.6074" x2="150.176" y2="71.6074" gradientUnits="userSpaceOnUse">
<stop stop-color="#4242CB"/>
<stop offset="0.1007" stop-color="#4242CB"/>
<stop offset="0.2945" stop-color="#4141C8"/>
<stop offset="0.4255" stop-color="#3E3EBF"/>
<stop offset="0.5379" stop-color="#3939B0"/>
<stop offset="0.6399" stop-color="#32329B"/>
<stop offset="0.7347" stop-color="#29297F"/>
<stop offset="0.8244" stop-color="#1E1E5D"/>
<stop offset="0.91" stop-color="#111134"/>
<stop offset="0.9903" stop-color="#020206"/>
<stop offset="1"/>
</linearGradient>
<linearGradient id="paint9_linear_511_59327" x1="128.664" y1="63.201" x2="140.35" y2="63.201" gradientUnits="userSpaceOnUse">
<stop stop-color="white"/>
<stop offset="0.1937" stop-color="#FCFCFD"/>
<stop offset="0.3335" stop-color="#F3F3F8"/>
<stop offset="0.4563" stop-color="#E3E3F0"/>
<stop offset="0.5687" stop-color="#CECDE4"/>
<stop offset="0.6383" stop-color="#BCBBDA"/>
<stop offset="1" stop-color="#FDFDFE"/>
</linearGradient>
<linearGradient id="paint10_linear_511_59327" x1="137.594" y1="90.9016" x2="158.206" y2="90.9016" gradientUnits="userSpaceOnUse">
<stop stop-color="#7882E6"/>
<stop offset="0.0380896" stop-color="#7882E6"/>
<stop offset="1" stop-color="#5660F6"/>
</linearGradient>
<linearGradient id="paint11_linear_511_59327" x1="143.17" y1="93.0792" x2="154.092" y2="93.0792" gradientUnits="userSpaceOnUse">
<stop stop-color="#F2A7B2"/>
<stop offset="0.0791207" stop-color="#F2A7B2"/>
<stop offset="0.3857" stop-color="#FAB5BE"/>
<stop offset="0.7037" stop-color="#FFBEC7"/>
<stop offset="1" stop-color="#FFBEC7"/>
</linearGradient>
<linearGradient id="paint12_linear_511_59327" x1="151.584" y1="98.4475" x2="154.088" y2="98.4475" gradientUnits="userSpaceOnUse">
<stop stop-color="#F2A7B2"/>
<stop offset="0.0791207" stop-color="#F2A7B2"/>
<stop offset="0.3857" stop-color="#FAB5BE"/>
<stop offset="0.7037" stop-color="#FFBEC7"/>
<stop offset="1" stop-color="#FFBEC7"/>
</linearGradient>
<linearGradient id="paint13_linear_511_59327" x1="149.592" y1="98.4542" x2="152.096" y2="98.4542" gradientUnits="userSpaceOnUse">
<stop stop-color="#F2A7B2"/>
<stop offset="0.0791207" stop-color="#F2A7B2"/>
<stop offset="0.3857" stop-color="#FAB5BE"/>
<stop offset="0.7037" stop-color="#FFBEC7"/>
<stop offset="1" stop-color="#FFBEC7"/>
</linearGradient>
<linearGradient id="paint14_linear_511_59327" x1="147.598" y1="98.3554" x2="150.183" y2="98.3554" gradientUnits="userSpaceOnUse">
<stop stop-color="#F2A7B2"/>
<stop offset="0.0791207" stop-color="#F2A7B2"/>
<stop offset="0.3857" stop-color="#FAB5BE"/>
<stop offset="0.7037" stop-color="#FFBEC7"/>
<stop offset="1" stop-color="#FFBEC7"/>
</linearGradient>
<linearGradient id="paint15_linear_511_59327" x1="145.607" y1="98.4474" x2="148.111" y2="98.4474" gradientUnits="userSpaceOnUse">
<stop stop-color="#F2A7B2"/>
<stop offset="0.0791207" stop-color="#F2A7B2"/>
<stop offset="0.3857" stop-color="#FAB5BE"/>
<stop offset="0.7037" stop-color="#FFBEC7"/>
<stop offset="1" stop-color="#FFBEC7"/>
</linearGradient>
<linearGradient id="paint16_linear_511_59327" x1="142.674" y1="75.8869" x2="155.027" y2="74.5554" gradientUnits="userSpaceOnUse">
<stop stop-color="white"/>
<stop offset="0.1937" stop-color="#FCFCFD"/>
<stop offset="0.3335" stop-color="#F3F3F8"/>
<stop offset="0.4563" stop-color="#E3E3F0"/>
<stop offset="0.5687" stop-color="#CECDE4"/>
<stop offset="0.6383" stop-color="#BCBBDA"/>
<stop offset="1" stop-color="#FDFDFE"/>
</linearGradient>
<linearGradient id="paint17_linear_511_59327" x1="140.035" y1="70.4537" x2="155.032" y2="70.4537" gradientUnits="userSpaceOnUse">
<stop stop-color="#4242CB"/>
<stop offset="0.1007" stop-color="#4242CB"/>
<stop offset="0.2062" stop-color="#4040C6"/>
<stop offset="0.333" stop-color="#3C3CB7"/>
<stop offset="0.471" stop-color="#34349F"/>
<stop offset="0.617" stop-color="#29297D"/>
<stop offset="0.7691" stop-color="#1A1A51"/>
<stop offset="0.9242" stop-color="#09091D"/>
<stop offset="1"/>
</linearGradient>
<linearGradient id="paint18_linear_511_59327" x1="135.277" y1="47.18" x2="137.719" y2="50.3261" gradientUnits="userSpaceOnUse">
<stop stop-color="#F2A7B2"/>
<stop offset="0.2145" stop-color="#F2A7B2"/>
<stop offset="0.4546" stop-color="#FAB5BE"/>
<stop offset="0.7037" stop-color="#FFBEC7"/>
<stop offset="1" stop-color="#FFBEC7"/>
</linearGradient>
<radialGradient id="paint19_radial_511_59327" cx="0" cy="0" r="1" gradientUnits="userSpaceOnUse" gradientTransform="translate(133.672 32.1265) rotate(60.754) scale(13.3868 13.4887)">
<stop stop-color="#884E80"/>
<stop offset="0.0575258" stop-color="#804978"/>
<stop offset="0.2265" stop-color="#6E3E67"/>
<stop offset="0.4032" stop-color="#63375D"/>
<stop offset="0.5986" stop-color="#5F355A"/>
<stop offset="0.9301" stop-color="#0D050C"/>
<stop offset="1" stop-color="#0D050C"/>
</radialGradient>
<radialGradient id="paint20_radial_511_59327" cx="0" cy="0" r="1" gradientUnits="userSpaceOnUse" gradientTransform="translate(127.856 35.5084) rotate(89.5527) scale(3.90178 2.2543)">
<stop stop-color="#9C5A92"/>
<stop offset="0.3472" stop-color="#884E80"/>
<stop offset="0.5986" stop-color="#5F355A"/>
<stop offset="0.9301" stop-color="#0D050C"/>
<stop offset="1" stop-color="#0D050C"/>
</radialGradient>
<radialGradient id="paint21_radial_511_59327" cx="0" cy="0" r="1" gradientUnits="userSpaceOnUse" gradientTransform="translate(132.357 41.9663) rotate(59.5273) scale(8.38968 8.71424)">
<stop stop-color="#FFD1D6"/>
<stop offset="0.2536" stop-color="#FFD1D6"/>
<stop offset="0.4824" stop-color="#FFC8CF"/>
<stop offset="0.541" stop-color="#FFC5CD"/>
<stop offset="0.741" stop-color="#FFA5B2"/>
<stop offset="0.9357" stop-color="#FFC8CF"/>
<stop offset="1" stop-color="#FFC8CF"/>
</radialGradient>
<radialGradient id="paint22_radial_511_59327" cx="0" cy="0" r="1" gradientUnits="userSpaceOnUse" gradientTransform="translate(130.242 42.8346) rotate(35.2292) scale(1.41965 1.56456)">
<stop stop-color="#FFE6E8"/>
<stop offset="0.2004" stop-color="#FFE6E8"/>
<stop offset="0.3586" stop-color="#FFDDE0"/>
<stop offset="0.6074" stop-color="#FFC5CD"/>
<stop offset="0.79" stop-color="#FFA5B2"/>
<stop offset="1" stop-color="#FFC8CF"/>
</radialGradient>
<radialGradient id="paint23_radial_511_59327" cx="0" cy="0" r="1" gradientUnits="userSpaceOnUse" gradientTransform="translate(133.96 32.4691) rotate(130.576) scale(11.5308 11.5574)">
<stop stop-color="#9C5A92"/>
<stop offset="0.3472" stop-color="#884E80"/>
<stop offset="0.5986" stop-color="#5F355A"/>
<stop offset="0.9301" stop-color="#0D050C"/>
<stop offset="1" stop-color="#0D050C"/>
</radialGradient>
<radialGradient id="paint24_radial_511_59327" cx="0" cy="0" r="1" gradientUnits="userSpaceOnUse" gradientTransform="translate(138.619 42.0689) rotate(16.8275) scale(3.22102 3.18284)">
<stop stop-color="#FFD1D6"/>
<stop offset="0.3234" stop-color="#FFD1D6"/>
<stop offset="0.5332" stop-color="#FFC8CF"/>
<stop offset="0.587" stop-color="#FFC5CD"/>
<stop offset="0.781" stop-color="#FFA5B2"/>
<stop offset="0.9357" stop-color="#FFC8CF"/>
<stop offset="1" stop-color="#FFC8CF"/>
</radialGradient>
<linearGradient id="paint25_linear_511_59327" x1="71.2315" y1="52.7235" x2="79.0624" y2="52.7235" gradientUnits="userSpaceOnUse">
<stop stop-color="#F2A7B2"/>
<stop offset="0.0791207" stop-color="#F2A7B2"/>
<stop offset="0.3857" stop-color="#FAB5BE"/>
<stop offset="0.7037" stop-color="#FFBEC7"/>
<stop offset="1" stop-color="#FFBEC7"/>
</linearGradient>
<linearGradient id="paint26_linear_511_59327" x1="71.4005" y1="53.2032" x2="80.0969" y2="55.3066" gradientUnits="userSpaceOnUse">
<stop stop-color="white"/>
<stop offset="0.1937" stop-color="#FCFCFD"/>
<stop offset="0.3335" stop-color="#F3F3F8"/>
<stop offset="0.4563" stop-color="#E3E3F0"/>
<stop offset="0.5687" stop-color="#CECDE4"/>
<stop offset="0.6383" stop-color="#BCBBDA"/>
<stop offset="1" stop-color="#FDFDFE"/>
</linearGradient>
<linearGradient id="paint27_linear_511_59327" x1="60.3839" y1="142.039" x2="76.7674" y2="142.039" gradientUnits="userSpaceOnUse">
<stop stop-color="#4242CB"/>
<stop offset="0.1007" stop-color="#4242CB"/>
<stop offset="0.194" stop-color="#3E3EC0"/>
<stop offset="0.3596" stop-color="#3434A1"/>
<stop offset="0.5784" stop-color="#252570"/>
<stop offset="0.8389" stop-color="#0F0F2D"/>
<stop offset="1"/>
</linearGradient>
<linearGradient id="paint28_linear_511_59327" x1="62.1848" y1="137.958" x2="74.2498" y2="137.958" gradientUnits="userSpaceOnUse">
<stop stop-color="#FFC5CD"/>
<stop offset="0.6902" stop-color="#C27E88"/>
<stop offset="1" stop-color="#C27E88"/>
</linearGradient>
<linearGradient id="paint29_linear_511_59327" x1="59.9481" y1="105.455" x2="76.3897" y2="107.79" gradientUnits="userSpaceOnUse">
<stop stop-color="#BAC5FF"/>
<stop offset="0.1636" stop-color="#B7C2FB"/>
<stop offset="0.3316" stop-color="#AEB8EF"/>
<stop offset="0.5015" stop-color="#9EA8DA"/>
<stop offset="0.6728" stop-color="#8891BD"/>
<stop offset="0.8435" stop-color="#6D7499"/>
<stop offset="1" stop-color="#4E5470"/>
</linearGradient>
<linearGradient id="paint30_linear_511_59327" x1="78.8678" y1="142.046" x2="95.2514" y2="142.046" gradientUnits="userSpaceOnUse">
<stop stop-color="#4242CB"/>
<stop offset="0.1007" stop-color="#4242CB"/>
<stop offset="0.194" stop-color="#3E3EC0"/>
<stop offset="0.3596" stop-color="#3434A1"/>
<stop offset="0.5784" stop-color="#252570"/>
<stop offset="0.8389" stop-color="#0F0F2D"/>
<stop offset="1"/>
</linearGradient>
<linearGradient id="paint31_linear_511_59327" x1="79.7527" y1="138.068" x2="92.7355" y2="138.068" gradientUnits="userSpaceOnUse">
<stop stop-color="#FFC5CD"/>
<stop offset="0.6902" stop-color="#C27E88"/>
<stop offset="1" stop-color="#C27E88"/>
</linearGradient>
<linearGradient id="paint32_linear_511_59327" x1="72.2241" y1="108.153" x2="86.793" y2="105.913" gradientUnits="userSpaceOnUse">
<stop stop-color="#BAC5FF"/>
<stop offset="0.1295" stop-color="#AFB9F0"/>
<stop offset="0.3781" stop-color="#919AC9"/>
<stop offset="0.7176" stop-color="#62698B"/>
<stop offset="0.8519" stop-color="#4E5470"/>
<stop offset="1" stop-color="#4E5470"/>
</linearGradient>
<linearGradient id="paint33_linear_511_59327" x1="59.5612" y1="74.8156" x2="77.7445" y2="74.8156" gradientUnits="userSpaceOnUse">
<stop stop-color="#BAC5FF"/>
<stop offset="0.1636" stop-color="#B7C2FB"/>
<stop offset="0.3316" stop-color="#AEB8EF"/>
<stop offset="0.5015" stop-color="#9EA8DA"/>
<stop offset="0.6728" stop-color="#8891BD"/>
<stop offset="0.8435" stop-color="#6D7499"/>
<stop offset="1" stop-color="#4E5470"/>
</linearGradient>
<linearGradient id="paint34_linear_511_59327" x1="58.6377" y1="83.7009" x2="87.0282" y2="83.7009" gradientUnits="userSpaceOnUse">
<stop stop-color="#4242CB"/>
<stop offset="0.1007" stop-color="#4242CB"/>
<stop offset="0.2945" stop-color="#4141C8"/>
<stop offset="0.4255" stop-color="#3E3EBF"/>
<stop offset="0.5379" stop-color="#3939B0"/>
<stop offset="0.6399" stop-color="#32329B"/>
<stop offset="0.7347" stop-color="#29297F"/>
<stop offset="0.8244" stop-color="#1E1E5D"/>
<stop offset="0.91" stop-color="#111134"/>
<stop offset="0.9903" stop-color="#020206"/>
<stop offset="1"/>
</linearGradient>
<linearGradient id="paint35_linear_511_59327" x1="67.5437" y1="75.8172" x2="83.139" y2="76.5778" gradientUnits="userSpaceOnUse">
<stop stop-color="#BAC5FF"/>
<stop offset="0.1505" stop-color="#AFBAF0"/>
<stop offset="0.4377" stop-color="#929BCA"/>
<stop offset="0.8287" stop-color="#646B8D"/>
<stop offset="1" stop-color="#4E5470"/>
</linearGradient>
<linearGradient id="paint36_linear_511_59327" x1="92.8779" y1="79.9559" x2="106.613" y2="79.9559" gradientUnits="userSpaceOnUse">
<stop stop-color="#F2A7B2"/>
<stop offset="0.0791207" stop-color="#F2A7B2"/>
<stop offset="0.3857" stop-color="#FAB5BE"/>
<stop offset="0.7037" stop-color="#FFBEC7"/>
<stop offset="1" stop-color="#FFBEC7"/>
</linearGradient>
<linearGradient id="paint37_linear_511_59327" x1="102.394" y1="74.4186" x2="98.1919" y2="77.3124" gradientUnits="userSpaceOnUse">
<stop stop-color="#F2A7B2"/>
<stop offset="0.1268" stop-color="#F2A7B2"/>
<stop offset="0.4099" stop-color="#FAB5BE"/>
<stop offset="0.7037" stop-color="#FFBEC7"/>
<stop offset="1" stop-color="#FFBEC7"/>
</linearGradient>
<linearGradient id="paint38_linear_511_59327" x1="87.5655" y1="66.9241" x2="77.6536" y2="77.139" gradientUnits="userSpaceOnUse">
<stop stop-color="#BAC5FF"/>
<stop offset="0.1636" stop-color="#B7C2FB"/>
<stop offset="0.3316" stop-color="#AEB8EF"/>
<stop offset="0.5015" stop-color="#9EA8DA"/>
<stop offset="0.6728" stop-color="#8891BD"/>
<stop offset="0.8435" stop-color="#6D7499"/>
<stop offset="1" stop-color="#4E5470"/>
</linearGradient>
<radialGradient id="paint39_radial_511_59327" cx="0" cy="0" r="1" gradientUnits="userSpaceOnUse" gradientTransform="translate(82.9304 46.7621) rotate(127.733) scale(1.37349 1.52647)">
<stop stop-color="#FFE6E8"/>
<stop offset="0.2004" stop-color="#FFE6E8"/>
<stop offset="0.3586" stop-color="#FFDDE0"/>
<stop offset="0.6074" stop-color="#FFC5CD"/>
<stop offset="0.79" stop-color="#FFA5B2"/>
<stop offset="1" stop-color="#FFC8CF"/>
</radialGradient>
<radialGradient id="paint40_radial_511_59327" cx="0" cy="0" r="1" gradientUnits="userSpaceOnUse" gradientTransform="translate(82.7691 43.8298) rotate(128.537) scale(11.2974 11.3349)">
<stop stop-color="#FFD1D6"/>
<stop offset="0.0507408" stop-color="#FFD1D6"/>
<stop offset="0.2848" stop-color="#FFC8CF"/>
<stop offset="0.3448" stop-color="#FFC5CD"/>
<stop offset="0.781" stop-color="#FFA5B2"/>
<stop offset="0.9466" stop-color="#FFC8CF"/>
<stop offset="1" stop-color="#FFC8CF"/>
</radialGradient>
<radialGradient id="paint41_radial_511_59327" cx="0" cy="0" r="1" gradientUnits="userSpaceOnUse" gradientTransform="translate(78.3157 37.4399) rotate(102.918) scale(16.0299 16.2388)">
<stop stop-color="#B45A73"/>
<stop offset="0.2418" stop-color="#A04F66"/>
<stop offset="0.4707" stop-color="#76394A"/>
<stop offset="0.9301" stop-color="#240C13"/>
<stop offset="1" stop-color="#240C13"/>
</radialGradient>
<radialGradient id="paint42_radial_511_59327" cx="0" cy="0" r="1" gradientUnits="userSpaceOnUse" gradientTransform="translate(80.0838 45.4959) rotate(132.451) scale(3.012 3.68504)">
<stop stop-color="#FFD1D6"/>
<stop offset="0.3234" stop-color="#FFD1D6"/>
<stop offset="0.5332" stop-color="#FFC8CF"/>
<stop offset="0.587" stop-color="#FFC5CD"/>
<stop offset="0.781" stop-color="#FFA5B2"/>
<stop offset="0.9357" stop-color="#FFC8CF"/>
<stop offset="1" stop-color="#FFC8CF"/>
</radialGradient>
<linearGradient id="paint43_linear_511_59327" x1="65.1748" y1="56.6395" x2="70.3058" y2="57.9565" gradientUnits="userSpaceOnUse">
<stop stop-color="#A04F66"/>
<stop offset="0.3538" stop-color="#76394A"/>
<stop offset="0.9301" stop-color="#240C13"/>
<stop offset="1" stop-color="#240C13"/>
</linearGradient>
</defs>
</svg>
