<svg width="408" height="110" viewBox="0 0 408 110" fill="none" xmlns="http://www.w3.org/2000/svg">
<path d="M116 63C116 82.33 100.33 98 81 98C61.67 98 46 82.33 46 63C46 43.67 61.67 28 81 28C100.33 28 116 43.67 116 63Z" fill="#EEE7FF"/>
<circle cx="28.5" cy="21.502" r="9.5" fill="#EEE7FF"/>
<path d="M85.9453 23.7994C85.9084 23.5999 85.7368 23.4472 85.5216 23.416C85.1852 23.3693 85.1179 23.2976 85.128 22.5495C85.128 22.3936 85.128 22.2378 85.1213 22.085C85.0978 21.7452 84.7984 21.5925 84.1358 21.259C83.9845 21.181 83.7591 21.0688 83.6851 21.019L83.6481 20.9816C83.184 20.4953 83.0024 20.2771 83.0932 19.7596C83.1167 19.6318 83.0797 19.4978 82.9923 19.3949C82.9048 19.2921 82.777 19.2266 82.6357 19.2173C82.2153 19.183 81.8958 18.8619 81.9059 18.4847C81.9092 18.3569 81.8588 18.2354 81.7612 18.1419C81.6637 18.0515 81.5325 17.9891 81.3946 18.0016H81.1424H80.9776C80.056 18.0016 78.9124 18.0016 78.2633 19.1113C77.89 19.7503 77.8967 20.3955 77.9034 20.966C77.9068 21.3244 77.9135 21.6611 77.8294 21.9853C77.5772 22.9765 77.0592 23.2539 76.3596 23.3693L76.1981 23.3942C74.8292 23.6155 74.6173 23.6872 73.6285 24.7689C72.2159 26.3149 70.8907 26.8293 68.9903 26.5893C68.7482 26.5581 68.4522 26.5051 68.1394 26.4521C67.4902 26.3368 66.7537 26.2058 66.118 26.2058C65.3511 26.2058 64.8399 26.3991 64.554 26.7981C64.2378 27.2376 64.2681 27.8517 64.6448 28.6746C64.8062 29.03 65.0282 29.3292 65.2199 29.591C65.5395 30.0274 65.7951 30.3797 65.7783 30.8878C65.7682 30.9158 65.7682 30.9501 65.7783 30.9813C65.7211 31.5704 65.3881 31.985 63.9721 32.1034C63.9654 32.1003 63.962 32.0941 63.9553 32.091C63.8409 32.0006 63.6526 31.851 63.3667 31.851C63.3431 31.851 63.2893 31.8541 63.2658 31.8572C63.0371 31.8852 62.8454 31.9569 62.657 32.0255C62.5292 32.0723 62.4115 32.1159 62.2837 32.144C62.1054 32.1845 61.944 32.2312 61.7926 32.278C61.5706 32.3435 61.3957 32.3964 61.2376 32.3964C61.1502 32.3964 61.0291 32.384 60.8408 32.2811C60.6793 32.1938 60.5414 31.9943 60.3934 31.7824C60.1849 31.4831 59.9461 31.1465 59.5358 30.9252C59.2499 30.7724 59.0144 30.7163 58.8227 30.6727C58.5839 30.6166 58.5032 30.5979 58.3518 30.4046C58.2139 30.23 58.1937 30.0337 58.1702 29.8248C58.1332 29.5006 58.0491 28.7089 56.8282 28.8772C56.4481 28.9302 56.0882 29.2232 55.7351 29.5069C55.5837 29.6284 55.4122 29.7656 55.3147 29.8186C55.244 29.856 54.9817 29.9339 54.8101 29.9869C54.3258 30.1303 54.0668 30.2145 53.9087 30.3672C53.5724 30.6945 53.5051 31.0966 53.4412 31.4488C53.411 31.6328 53.3807 31.8073 53.3134 31.9413C53.0881 32.4151 52.6676 32.8858 52.2607 33.3441C51.9849 33.6526 51.7023 33.9706 51.4703 34.2948C51.2146 34.6564 51.0297 34.9057 50.7808 35.1863H50.7673C50.505 35.1863 50.2964 35.2767 50.1518 35.4512C49.9534 35.6912 49.9601 35.95 49.9668 36.1027C49.9668 36.1276 49.9668 36.1588 49.9668 36.1806C49.3547 36.7978 48.1035 37.2654 47.1314 37.4992C47.0844 37.5116 46.7951 37.5054 46.5159 37.4742C46.3141 37.4524 46.109 37.4275 45.9038 37.4275C45.5944 37.4275 45.3488 37.4836 45.1571 37.602C44.7064 37.8732 44.6526 38.266 44.6223 38.4779C44.619 38.5029 44.6156 38.5278 44.6122 38.5528C44.4239 38.6868 44.0775 38.7741 43.7411 38.8614C43.1559 39.011 42.4933 39.1824 42.0762 39.678C41.824 39.9804 41.7634 40.2859 41.7163 40.5321C41.6659 40.794 41.6323 40.928 41.4506 41.0745C41.2219 41.2615 40.8486 41.4454 40.4887 41.6231C40.1692 41.7821 39.8395 41.9442 39.5738 42.125C39.1904 42.3868 38.8171 42.5458 38.4572 42.7016C37.7273 43.0134 36.9773 43.3375 36.4929 44.4192C35.6016 44.7652 34.9895 46.0401 34.4883 47.0843C34.337 47.3991 34.1957 47.6953 34.0847 47.8698C33.9468 48.0943 34.0276 48.3779 34.2697 48.5088C34.5455 48.6553 34.791 48.727 35.0231 48.727C35.4368 48.727 35.6857 48.512 35.8673 48.3561C35.9952 48.247 36.0759 48.1815 36.1869 48.1535C36.5703 48.0631 37.0916 48.0506 37.4549 48.0506C37.5491 48.0506 37.6399 48.0506 37.7307 48.0506C37.7542 48.1067 37.7778 48.166 37.8047 48.2221C38.1208 48.9639 38.4774 49.8024 39.2812 49.8024C39.5839 49.8024 39.8732 49.6715 40.1658 49.4066L40.2196 49.4502C40.5593 49.7214 40.9461 50.0331 41.5145 50.0331C41.5852 50.0331 41.6524 50.03 41.7231 50.0206C42.0998 50.5817 42.722 50.9371 43.2803 51.2581C44.2961 51.8379 44.4979 52.0312 44.1548 52.6172C44.0035 52.8759 43.8286 52.9632 43.5898 53.0848C43.2601 53.25 42.8094 53.4775 42.5976 54.1695C42.5101 54.4501 42.5236 54.7337 42.5336 54.9862C42.5437 55.1826 42.5505 55.3696 42.5101 55.513C42.4798 55.6221 42.3857 55.7686 42.2982 55.9089C42.1839 56.0866 42.0661 56.2736 41.9955 56.4824C41.9249 56.6882 42.0157 56.9126 42.2175 57.0248C42.5572 57.215 42.9137 57.4519 42.9642 57.7823C42.9709 57.8353 42.9911 57.882 43.0146 57.9257C42.8734 58.2062 42.6985 58.4961 42.5807 58.5304C42.5807 58.5304 42.4462 58.5148 42.1738 58.1968C42.0863 58.094 41.9551 58.0316 41.8139 58.0223C41.6726 58.0098 41.5347 58.0597 41.4304 58.147C41.1782 58.3652 40.9394 58.7486 40.7275 59.0821C40.6569 59.1912 40.593 59.2972 40.5358 59.3782C40.3239 59.6868 40.0716 59.905 39.8059 60.1357C39.7084 60.223 39.6075 60.3071 39.5301 60.382C39.5032 60.3975 39.4191 60.4225 39.3653 60.4412C39.1568 60.5066 38.8372 60.6095 38.6724 60.8963C38.4942 61.2049 38.622 61.6163 38.7162 61.8283C38.7094 61.8532 38.7027 61.8813 38.696 61.9093C38.4538 61.9561 37.8181 62.0995 37.808 62.7946C37.7979 63.6986 38.7061 63.7422 39.0962 63.7609C39.2577 63.7671 39.4359 63.7765 39.5301 63.8139C39.7588 63.9012 39.9236 64.0851 40.1153 64.3002C40.334 64.5433 40.5795 64.8176 40.9596 64.9766C41.2219 65.0857 41.5482 65.0888 41.8744 65.0514C41.9551 65.042 42.0359 65.0327 42.1166 65.0327C42.2141 65.0327 42.2276 65.0483 42.2511 65.0732C42.3251 65.1511 42.3386 65.1917 42.3386 65.1917C42.3386 65.2322 42.2578 65.3506 42.2074 65.4286C42.0964 65.5969 41.9619 65.8089 41.8845 66.0863C41.8273 66.292 41.9249 66.5071 42.1233 66.61C42.5101 66.8126 42.9843 66.8313 43.4081 66.85C43.6839 66.8624 44.1447 66.8811 44.1985 66.984C44.2994 67.1804 44.5349 67.2895 44.7602 67.2427C44.9789 67.1991 45.1369 67.0308 45.1538 66.8282C45.6179 67.0432 46.0013 67.0651 46.5563 67.0245C46.7278 67.0121 46.9229 66.9996 47.155 66.9996H47.2155C47.2155 66.9996 47.2189 66.9996 47.2223 66.9996C47.4779 66.9996 47.6931 66.825 47.7234 66.5881C47.7301 66.532 47.7369 66.4759 47.7436 66.4198C48.1775 66.4946 48.6181 66.3138 48.8771 65.9491C49.0789 66.0115 49.3278 66.1673 49.5699 66.3169C50.0206 66.6006 50.5352 66.9217 51.181 66.9404C51.5409 66.9404 51.773 66.7409 51.9109 66.6224C51.9243 66.6349 51.9445 66.6536 51.9647 66.6723C52.0252 66.744 52.032 67.0993 51.8974 67.489C51.8537 67.6199 51.8705 67.7633 51.9512 67.8786C52.032 67.994 52.1598 68.0719 52.3078 68.0937C52.9939 68.1841 53.6901 68.6766 53.7305 68.9914C53.7574 69.2034 53.2899 69.3904 53.1452 69.4434C52.9535 69.512 52.8257 69.6834 52.8257 69.8736C52.8224 70.2508 52.9569 70.5781 53.2159 70.8212C53.4379 71.0269 53.7406 71.161 54.087 71.2046C54.1576 71.4072 54.235 71.5755 54.3056 71.7189C54.4873 72.1054 54.5713 72.28 54.383 72.7974C54.2283 73.2276 54.0096 73.5268 53.9289 73.5923C53.8987 73.5674 53.8381 73.5113 53.754 73.3835C53.68 73.265 53.5522 73.1871 53.4076 73.1621C53.263 73.1372 53.115 73.1746 53.0006 73.2588C52.6475 73.5237 52.2842 73.583 51.6485 73.6017C51.5073 73.6048 51.3761 73.664 51.2853 73.7637C51.1945 73.8635 51.1507 73.9913 51.1642 74.1222C51.1844 74.2905 51.1406 74.437 51.0397 74.5399C50.9052 74.6802 50.6799 74.7425 50.4242 74.7082C50.1619 74.6739 49.9164 74.8329 49.8592 75.0761C49.5296 76.5349 50.6328 77.1115 51.4434 77.5323L51.6351 77.6321C52.2943 77.9843 52.3649 78.2337 52.5096 78.7324C52.6004 79.0566 52.7181 79.4618 53.0242 79.945C53.6195 80.8864 53.7069 81.3103 53.8886 82.5104C53.8886 82.5322 53.8953 82.5509 53.8953 82.5727C53.8953 82.6538 53.8953 82.7411 53.9087 82.8314V82.8689C53.9087 82.9967 53.902 83.1525 53.9827 83.3177C54.0096 83.4829 54.0231 83.6481 53.9895 83.7728C53.9087 84.0689 53.8213 84.1157 53.643 84.2092C53.4883 84.2903 53.2798 84.4025 53.1217 84.6394C52.8358 85.0633 52.8055 85.3407 52.7753 85.6306C52.7618 85.7709 52.745 85.9143 52.6979 86.1138C52.6676 86.2416 52.6004 86.3444 52.5163 86.4691C52.412 86.6219 52.2842 86.8151 52.2203 87.077C52.153 87.3544 52.1261 87.5757 52.106 87.7534C52.0656 88.0807 52.0454 88.2615 51.81 88.6137C51.7091 88.7664 51.5678 88.9161 51.4198 89.075C51.2315 89.2777 51.0364 89.4865 50.8817 89.739C50.7909 89.8886 50.7236 89.9728 50.6698 90.0413C50.4242 90.3499 50.4108 90.4996 50.4545 91.0762C50.4814 91.4222 50.6059 91.6934 50.7068 91.9085C50.848 92.214 50.9018 92.348 50.7909 92.6067C50.774 92.6441 50.6866 92.7034 50.5991 92.7595C50.4041 92.8873 50.1114 93.0774 49.9735 93.4546C49.8054 93.9066 49.9029 94.424 49.9904 94.8822C50.0307 95.1067 50.0711 95.3186 50.0778 95.4901C50.061 95.5057 50.0408 95.5212 50.024 95.5368C49.8995 95.649 49.691 95.833 49.7011 96.1291C49.7112 96.394 49.8592 96.5873 49.9702 96.7276C49.9937 96.7587 50.0307 96.8024 50.0442 96.8304C50.0744 97.3603 50.0475 97.4414 49.9197 97.8591L49.8491 98.0897C49.8054 98.2363 49.7448 98.3173 49.6742 98.4139C49.3917 98.7973 49.3278 99.1184 49.7953 99.7262C50.172 100.219 51.3593 100.565 51.5947 100.63C51.6418 100.643 51.6923 100.649 51.7393 100.649C51.8772 100.649 52.0151 100.596 52.1093 100.496C52.1867 100.418 52.2775 100.312 52.375 100.2C52.5028 100.054 52.7383 99.7792 52.8325 99.7294C52.8358 99.7294 52.8728 99.7169 52.9838 99.7169C53.0746 99.7169 53.1688 99.7231 53.2663 99.7294C53.3841 99.7356 53.5018 99.7418 53.6128 99.7418C53.8179 99.7418 54.1139 99.7231 54.346 99.5517C54.9312 99.1184 54.9312 98.6664 54.9178 98.4077C54.9985 98.3952 55.133 98.3796 55.3517 98.3703C55.577 98.3641 55.7956 98.3578 56.0075 98.3547C57.4975 98.3235 58.7857 98.2955 60.3531 97.4258C60.9652 97.086 61.1065 96.8741 61.2646 96.5655C61.315 96.472 61.3621 96.3722 61.4596 96.2413C61.574 96.0823 61.648 95.9763 61.7018 95.8984C61.7119 95.8828 61.722 95.8672 61.7287 95.8548C61.8195 95.8236 61.9709 95.7706 62.2164 95.6584C62.2971 95.621 62.3947 95.5867 62.4956 95.5493C62.9194 95.3966 63.4441 95.2033 63.6728 94.7763C63.8981 94.3523 63.7266 93.9783 63.6122 93.732C63.5853 93.6759 63.5483 93.5949 63.5349 93.5388C63.7602 93.439 64.3017 93.2894 64.5977 93.2302C64.7861 93.1928 64.9408 93.0961 65.0753 93.012C65.0888 93.0026 65.1056 92.9933 65.119 92.9839C65.1964 93.1024 65.3377 93.2987 65.6202 93.3486C65.7749 93.3735 65.9263 93.4016 66.0742 93.4328C66.4879 93.5107 66.9117 93.5917 67.3456 93.5917C67.9645 93.5917 68.5026 93.4203 68.9937 93.0681C69.2527 92.881 69.3839 92.7096 69.4713 92.5974C69.4982 92.5631 69.5318 92.5195 69.5419 92.5101C69.5419 92.5101 69.5722 92.4945 69.6597 92.4821C69.6765 92.4976 69.6967 92.5195 69.7168 92.5382C69.9052 92.7158 70.1608 92.959 70.5409 92.9621C70.8974 92.9621 71.1429 92.7501 71.3077 92.6067C71.3515 92.5693 71.4187 92.5101 71.4288 92.5039C71.6138 92.4509 71.8022 92.3761 71.9838 92.3075C72.2899 92.189 72.6027 92.0675 72.8583 92.0581C72.9962 92.0581 73.2182 92.1267 73.3931 92.1828C73.6218 92.2545 73.8303 92.32 74.0355 92.3106C74.984 92.2639 76.4269 91.3879 76.8708 90.325C77.0625 89.8637 77.076 89.4429 77.0861 89.0719C77.0995 88.648 77.1096 88.2833 77.3518 87.8344C77.8361 86.9273 78.0379 86.2759 78.3104 85.3127C78.3608 85.135 78.4819 84.8607 78.6097 84.5708C78.9696 83.751 79.3766 82.8252 79.1344 82.1737C78.9595 81.7031 78.5963 81.5971 78.3978 81.5378C78.3608 81.5285 78.3104 81.5129 78.2969 81.5036C78.2969 81.5036 78.2868 81.4942 78.2801 81.4786C78.2599 81.4225 78.2229 81.2043 78.3238 80.3907L78.3642 80.0479C78.4685 79.2156 78.5425 78.6109 78.4416 77.6477C78.2297 75.6029 78.0077 73.7637 77.446 71.9371C77.1937 71.1173 76.8069 70.5251 76.4 69.9016C76.2318 69.6429 76.0569 69.378 75.8854 69.0818C75.7004 68.767 75.4548 68.4646 75.2194 68.1748C74.8158 67.6791 74.4357 67.2116 74.3752 66.7315C74.3415 66.4915 74.1162 66.3138 73.8538 66.3201H73.8068C73.5646 66.3201 73.3796 66.2515 73.2081 66.0925C73.1576 65.8899 73.1105 65.6281 73.0601 65.3538C72.8852 64.3875 72.7473 63.7297 72.4042 63.365C72.1452 63.0907 71.7887 63.0222 71.5028 62.966C71.3481 62.9349 71.1866 62.9037 71.116 62.8507C70.894 62.6824 70.8772 62.6045 70.82 62.352C70.7898 62.2211 70.7561 62.059 70.6821 61.8688C70.5039 61.4012 70.2348 60.9462 69.9725 60.5066C69.7437 60.1201 69.5251 59.7554 69.3906 59.4156C69.3401 59.291 69.3334 59.1164 69.3267 58.9294C69.3166 58.6395 69.3031 58.3153 69.1249 58.0223C68.8154 57.5173 68.5026 57.4051 68.1596 57.3209C68.0486 57.2929 67.951 57.2711 67.8333 57.2087C67.6551 57.1152 67.4835 57.1059 67.3692 57.1059C67.3389 57.1059 67.3053 57.1059 67.275 57.1059H67.2683C67.2548 57.0778 67.2414 57.0435 67.2313 57.0155C67.1539 56.8253 67.0564 56.5884 66.8209 56.4481C66.4879 56.2486 66.1751 56.2112 65.9263 56.1832C65.7413 56.1614 65.5966 56.1458 65.4352 56.071C65.0551 55.8933 64.7961 55.4787 64.5237 55.0423C64.2748 54.6433 64.0192 54.235 63.6324 53.9233C63.1212 53.5149 62.5292 53.4339 62.055 53.3715C61.4731 53.2936 61.352 53.2437 61.2814 53.0567C61.2343 52.9258 61.2208 52.8479 61.2141 52.8011C61.2545 52.7918 61.3049 52.7793 61.3419 52.7731C61.5067 52.7419 61.7354 52.6951 61.8969 52.5237L61.9406 52.4769C62.3745 52.0187 62.4216 51.9065 62.4956 51.1522C62.5258 50.856 62.4888 50.4196 62.4518 49.9583C62.4148 49.5219 62.3543 48.8018 62.4115 48.5992C62.5359 48.5307 62.8824 48.459 63.0371 48.4247C63.1682 48.3966 63.2826 48.3717 63.36 48.3499L63.6492 48.2657C64.258 48.088 64.7861 47.9353 65.3948 47.5114C66.3366 46.8536 67.5037 46.8911 68.7145 46.5544C69.4444 46.3518 69.33 45.6785 69.5688 45.4198C69.6798 45.3013 69.7807 45.1922 69.9523 45.0613C70.107 44.9429 70.3357 44.868 70.5779 44.787C70.9142 44.6748 71.2976 44.5501 71.6071 44.2664C71.8862 44.014 71.9838 43.6742 72.0712 43.3749C72.125 43.191 72.1822 42.9978 72.2629 42.9043C72.4513 42.6892 72.6766 42.5957 72.9861 42.4647C73.1475 42.3962 73.3325 42.3214 73.5242 42.2185C73.9346 42.0003 74.3012 41.8538 74.6913 41.701C74.9436 41.6013 75.2026 41.5016 75.4851 41.3738C76.2015 41.0527 76.4336 40.7067 76.6758 40.3358C76.7968 40.1518 76.9213 39.9617 77.1332 39.7341C77.4157 39.4349 77.7251 39.2229 78.0245 39.0172C78.6434 38.5933 79.2858 38.1569 79.5111 37.069C79.6154 36.564 79.649 36.031 79.6793 35.5167C79.7197 34.8278 79.76 34.1794 79.9585 33.609C80.0123 33.45 79.9719 33.2724 79.8475 33.1508C79.723 33.0261 79.538 32.9731 79.3631 33.0136C79.1748 33.0542 79.047 33.023 78.9461 32.9045C78.8014 32.7362 78.7476 32.4245 78.8149 32.1471C78.8822 31.8821 79.195 31.6359 79.501 31.399C79.8172 31.1527 80.1468 30.8971 80.3116 30.548C80.5504 30.0461 80.537 29.6503 80.5302 29.3323C80.5201 28.9551 80.5134 28.765 80.9103 28.4096C81.1155 28.2257 81.3408 28.0699 81.583 27.9078C82.1178 27.5431 82.7165 27.1347 83.0057 26.3835C84.2535 26.2121 85.1179 25.838 85.5754 25.2707C85.9117 24.8561 86.0261 24.3605 85.9184 23.7932L85.9453 23.7994ZM43.3274 50.1173C43.3005 50.111 43.2736 50.1173 43.2501 50.1204C42.9003 49.8897 42.6009 49.6341 42.4765 49.3099C42.4294 49.1884 42.3285 49.0886 42.2007 49.0356C42.0729 48.9826 41.9249 48.9858 41.7971 49.0356C41.4473 49.179 41.2925 49.0668 40.8889 48.7457C40.7443 48.6304 40.5795 48.4995 40.3911 48.381C40.1658 48.2408 39.8597 48.2875 39.7016 48.4933C39.4528 48.8112 39.3149 48.8642 39.3149 48.8767C39.14 48.7925 38.881 48.1815 38.7565 47.8854C38.6825 47.7109 38.6119 47.5456 38.5379 47.3991C38.4572 47.2371 38.2823 47.1311 38.0906 47.1248H38.0368C37.8619 47.1217 37.6668 47.1186 37.4683 47.1186C37.0513 47.1186 36.4425 47.1311 35.9481 47.2495C35.7194 47.3056 35.5445 47.4023 35.4066 47.502C35.4133 47.4895 35.42 47.4771 35.4234 47.4646C35.7564 46.7726 36.4492 45.3294 36.9571 45.2639C37.1454 45.239 37.3035 45.1205 37.3674 44.9553C37.7038 44.0638 38.178 43.8581 38.8978 43.5495C39.2846 43.3843 39.7218 43.1942 40.1893 42.8762C40.3945 42.7359 40.677 42.5957 40.9797 42.446C41.3901 42.2434 41.8172 42.0346 42.1334 41.7759C42.5841 41.408 42.6648 40.9966 42.7254 40.6973C42.7657 40.4885 42.796 40.3638 42.8902 40.2485C43.0987 39.996 43.5696 39.8775 44.0236 39.7591C44.5013 39.6375 44.9957 39.5097 45.3522 39.2042C45.5775 39.011 45.6112 38.7616 45.6347 38.5964C45.6583 38.4187 45.6717 38.4125 45.7188 38.3844C45.7188 38.3844 45.7659 38.3626 45.9173 38.3626C46.0585 38.3626 46.2301 38.3813 46.4083 38.4C46.7547 38.4374 47.1314 38.4655 47.3972 38.4C47.9488 38.2691 49.8155 37.7641 50.7639 36.7666C50.9826 36.536 50.9927 36.2835 50.9893 36.1152C51.1945 36.0934 51.3626 36.0123 51.4871 35.872C51.8066 35.5167 52.0219 35.233 52.3246 34.8029C52.5264 34.5192 52.7786 34.2355 53.0477 33.9332C53.4984 33.4282 53.9626 32.9077 54.2451 32.3123C54.3628 32.066 54.4065 31.8135 54.4435 31.5891C54.4839 31.3584 54.5175 31.1558 54.6184 31.0343C54.7193 30.9906 54.9682 30.9158 55.1229 30.8691C55.4088 30.7849 55.6544 30.7101 55.8124 30.6259C55.9974 30.5293 56.1925 30.3703 56.3977 30.2051C56.5625 30.0711 56.8686 29.8248 56.9762 29.7968C57.0435 29.7874 57.1006 29.7812 57.1477 29.7812C57.1544 29.8217 57.1612 29.8747 57.1645 29.9152C57.1948 30.1739 57.2385 30.5667 57.5312 30.9439C57.8978 31.4146 58.2745 31.5018 58.5738 31.5704C58.7285 31.6047 58.8631 31.6359 59.0245 31.7231C59.075 31.7512 59.1187 31.7824 59.1658 31.8198C59.1422 31.826 59.1187 31.8354 59.0985 31.851C57.8305 32.8734 58.1937 33.5872 58.5805 34.3415C58.7924 34.7561 59.0111 35.1832 59.001 35.7162C58.9842 36.589 58.7319 36.9007 58.3518 37.3683C58.1567 37.6083 57.9348 37.8826 57.7027 38.2785C57.5715 38.506 57.5715 38.8395 57.5715 39.1637C57.5715 39.4256 57.5715 39.6967 57.4975 39.8557C57.4202 40.024 57.1746 40.1861 56.9123 40.3576C56.6129 40.5539 56.3035 40.7566 56.132 41.0371C55.8999 41.4236 55.8898 41.8289 55.8831 42.1873C55.8763 42.5209 55.8696 42.7858 55.6914 42.9323C55.5097 43.0819 55.1364 43.1256 54.5478 43.0695C54.5007 43.0663 54.457 43.0788 54.42 43.1069C54.3864 43.1349 54.3628 43.1754 54.3628 43.216C54.346 43.484 54.3864 43.8862 54.4301 44.3506C54.5175 45.2421 54.6352 46.4609 54.3258 46.8568C53.976 47.3025 53.1553 47.3025 52.3582 47.3025C51.8739 47.3025 51.4198 47.3025 51.0767 47.4085C50.7169 47.5207 50.3704 47.6392 50.0374 47.7576C48.5508 48.2782 47.266 48.727 45.406 48.0537C45.3219 48.0226 45.2244 48.06 45.1908 48.1379C45.1067 48.3218 45.036 48.5182 44.962 48.7146C44.6492 49.5655 44.3768 50.3012 43.3173 50.1017L43.3274 50.1173ZM53.5051 78.4955C53.3471 77.9407 53.1856 77.3671 52.1598 76.8216L51.9613 76.7157C51.2785 76.3603 50.8716 76.1203 50.8379 75.634C51.2214 75.5841 51.5712 75.4158 51.8167 75.1633C51.995 74.9794 52.1127 74.755 52.1699 74.5119C52.5297 74.4807 52.8829 74.4121 53.2327 74.2469C53.4446 74.4402 53.6834 74.5368 53.939 74.5368C54.7227 74.5368 55.17 73.6359 55.3651 73.0967C55.6779 72.2395 55.4626 71.7844 55.2575 71.3449C55.1633 71.1454 55.0658 70.9365 54.9985 70.6529C54.9447 70.4253 54.7227 70.2695 54.4738 70.285C54.2485 70.2975 54.0601 70.2539 53.9626 70.1635C53.9558 70.1572 53.9491 70.1479 53.939 70.1417C54.7294 69.7271 54.8001 69.1909 54.7597 68.8855C54.6689 68.1716 53.8617 67.5576 53.0107 67.2895C53.0275 67.1835 53.041 67.0682 53.0443 66.9497C53.1789 66.9622 53.3101 66.9684 53.4345 66.9684C54.4772 66.9684 55.0792 66.5538 55.7721 65.5283C55.9604 65.2478 56.0344 64.8862 56.1051 64.534C56.2026 64.0383 56.2968 63.5708 56.6836 63.3058C56.9022 63.1562 57.3596 63.1874 57.8036 63.2154C58.2509 63.2435 58.7151 63.2746 59.0581 63.1406C59.6131 62.9224 59.9898 62.5702 60.2858 62.1649C60.3396 62.1805 60.3934 62.193 60.4439 62.2086C61.0426 62.5764 61.3587 62.7478 61.6783 63.1219C61.7186 63.2061 61.759 63.2996 61.8027 63.4024C61.9036 63.6331 62.028 63.923 62.2164 64.269C62.4586 64.7085 62.7411 65.1387 63.0404 65.5938C63.4508 66.2141 63.8746 66.8531 64.1773 67.5233C65.1829 69.7333 65.4453 71.3947 64.961 72.4639C64.7154 73.0001 64.2748 73.3897 63.6425 73.6172C63.0505 73.8323 62.62 73.8386 62.1996 73.8417C61.5572 73.8479 60.9484 73.8573 60.0504 74.6802C59.6837 75.0168 59.455 75.4501 59.233 75.8709C58.9202 76.4632 58.6243 77.0211 57.9785 77.311C57.5547 77.5012 56.8383 77.6072 56.1488 77.7069C55.6005 77.7879 55.0859 77.8628 54.7294 77.9812C54.2922 78.1246 54.1408 78.3521 54.013 78.5548C53.9188 78.6981 53.8381 78.8228 53.6498 78.9101C53.5959 78.7667 53.5556 78.6265 53.5186 78.4924L53.5051 78.4955ZM63.1212 92.666C63.1212 92.666 63.1212 92.694 63.1212 92.7065C62.9194 92.8031 62.7545 92.9122 62.6772 93.0369C62.4148 93.4639 62.5998 93.8629 62.7108 94.103C62.7714 94.2339 62.8117 94.3305 62.7949 94.3648C62.7411 94.4677 62.3274 94.6173 62.1525 94.6827C62.0213 94.7295 61.9002 94.7763 61.7993 94.8199C61.5908 94.9134 61.4697 94.9539 61.3924 94.982C61.1031 95.0817 61.0291 95.1659 60.8677 95.4028C60.8206 95.4745 60.7533 95.5742 60.6457 95.7176C60.5044 95.9078 60.4304 96.0574 60.3732 96.1634C60.2824 96.3379 60.2488 96.4034 59.8553 96.6247C58.5166 97.3666 57.4067 97.3915 56.0008 97.4196C55.7855 97.4258 55.5635 97.4289 55.3348 97.4352C54.79 97.4539 54.3796 97.5162 54.1307 97.7687C53.9054 97.9962 53.9222 98.2612 53.9289 98.4233C53.939 98.5885 53.9424 98.6633 53.7641 98.8005C53.7204 98.8098 53.5253 98.8067 53.3538 98.7973C53.2361 98.7911 53.1183 98.7849 53.0073 98.7849C52.8526 98.7849 52.6273 98.7942 52.4221 98.8877C52.1194 99.0249 51.8604 99.3272 51.6082 99.6203C51.6048 99.6265 51.5981 99.6327 51.5947 99.639C51.1507 99.4893 50.7303 99.293 50.6429 99.1839C50.5621 99.0779 50.5218 99.0155 50.505 98.9781C50.5151 98.9657 50.5251 98.9532 50.5352 98.9407C50.626 98.8192 50.7606 98.6353 50.848 98.3391L50.9153 98.1178C51.07 97.6097 51.1137 97.4352 51.0734 96.7494C51.0599 96.5 50.9153 96.3161 50.811 96.1821C50.8077 96.1758 50.8009 96.1696 50.7976 96.1634C50.9288 96.0418 51.1003 95.8579 51.107 95.5774C51.1137 95.2999 51.0599 95.0069 51.0061 94.7201C50.9388 94.3554 50.8682 93.9814 50.9489 93.757C50.9792 93.6759 51.0431 93.6292 51.2012 93.5232C51.3795 93.4078 51.6216 93.2489 51.7461 92.9559C52.0151 92.3293 51.8167 91.8929 51.6519 91.5438C51.5678 91.3599 51.4938 91.2009 51.477 91.0108C51.4703 90.9204 51.4534 90.724 51.4602 90.6492C51.4703 90.6367 51.4837 90.6211 51.4972 90.6055C51.5611 90.5276 51.6553 90.4092 51.7797 90.2066C51.884 90.0351 52.0387 89.8699 52.2035 89.6953C52.3717 89.5146 52.5466 89.3306 52.6912 89.1124C53.0443 88.5825 53.0881 88.2334 53.1318 87.8656C53.152 87.6942 53.1722 87.5165 53.2293 87.2858C53.2562 87.1798 53.3134 87.0926 53.3941 86.971C53.5051 86.8089 53.6397 86.6063 53.7069 86.3195C53.7641 86.0701 53.7843 85.88 53.8011 85.7304C53.828 85.4841 53.8381 85.3813 53.9996 85.1412C54.0197 85.1101 54.0534 85.0882 54.1644 85.029C54.4166 84.895 54.8001 84.6924 54.9884 84.0128C55.0759 83.698 55.0321 83.3801 54.9884 83.1058C54.9783 83.0528 54.9615 83.0029 54.9346 82.9593C54.9346 82.9405 54.9346 82.9187 54.9346 82.8938V82.819C54.9346 82.8003 54.9346 82.7816 54.9346 82.7629C54.9279 82.7005 54.9245 82.6382 54.9245 82.5821C54.9245 82.5634 54.9245 82.5447 54.9245 82.526C54.9211 82.4823 54.9144 82.4356 54.9077 82.3888C54.7193 81.1357 54.6117 80.584 53.9121 79.4805C53.8549 79.387 53.8045 79.2998 53.7608 79.2125C54.0567 79.0816 54.1812 78.8945 54.2888 78.7231C54.4032 78.5423 54.5041 78.3864 54.827 78.2836C55.1566 78.1776 55.6577 78.1028 56.1891 78.0248C56.9056 77.9189 57.6455 77.8098 58.113 77.6009C58.8664 77.2643 59.1994 76.6284 59.5257 76.0174C59.7443 75.6028 59.9528 75.2101 60.2791 74.914C60.6221 74.5991 60.908 74.4246 61.1704 74.3186C61.4697 74.755 61.7926 74.9295 62.0617 75.2475C62.3745 75.9707 62.3947 76.8372 62.4115 77.6851C62.4182 77.9687 62.4249 78.2493 62.4384 78.5236C62.4418 78.6015 62.509 78.6639 62.5897 78.6701C63.249 78.7293 63.3364 78.9288 63.5046 79.3309C63.5719 79.493 63.6492 79.6738 63.777 79.8733C63.8477 79.9949 64.4396 81.5036 64.4867 81.6469C65.0585 83.6481 64.85 84.2435 63.7703 85.7273C62.6637 87.2515 62.6503 87.4386 62.8924 88.6636C62.9328 88.8755 62.9833 89.1218 63.0337 89.4179C63.2052 90.4466 63.1615 91.5812 63.1144 92.6784L63.1212 92.666ZM77.2812 81.0329C77.2812 81.0329 77.2812 81.0453 77.2812 81.0547C77.2341 81.0516 77.187 81.0453 77.1433 81.0391C77.1904 81.0391 77.2374 81.036 77.2845 81.0329H77.2812ZM65.7682 57.109C65.748 57.1931 65.7278 57.2773 65.7076 57.3521C65.6908 57.2679 65.6807 57.1869 65.6538 57.0934C65.6942 57.0996 65.7312 57.1027 65.7682 57.1059V57.109ZM65.7278 79.0504C66.0204 79.2281 66.3702 79.3964 66.8613 79.4712C67.2952 79.5367 67.6685 79.3185 67.9981 79.1252C68.2268 78.9912 68.4421 78.8665 68.5968 78.8883C68.7986 78.9163 69.0946 79.1345 69.3334 79.3122C69.6126 79.5211 69.8446 79.6863 70.0296 79.6769C70.8974 79.6395 71.3279 79.4431 71.6441 79.3029C72.0847 79.1034 72.2865 79.013 73.4738 79.7112C73.8639 79.9419 74.1767 80.1476 74.4525 80.3284C75.2934 80.8864 75.8214 81.2355 77.2845 81.3664C77.2946 81.569 77.3283 81.7373 77.3922 81.862C77.5973 82.2704 77.9404 82.3732 78.1254 82.4262C78.159 82.4356 78.2028 82.4512 78.196 82.4387C78.196 82.4387 78.2027 82.448 78.2128 82.473C78.3306 82.794 77.9404 83.6824 77.7083 84.2155C77.5603 84.549 77.4359 84.8358 77.3686 85.0727C77.113 85.9766 76.9347 86.572 76.484 87.4167C76.1443 88.0464 76.1275 88.5763 76.1141 89.0439C76.104 89.3836 76.0939 89.6766 75.9661 89.9852C75.6802 90.6648 74.6274 91.3443 74.0388 91.3755C73.9917 91.3724 73.8471 91.3256 73.7529 91.2975C73.504 91.2196 73.198 91.123 72.8919 91.123C72.8852 91.123 72.8448 91.123 72.8381 91.123C72.4177 91.1386 71.9972 91.3007 71.6306 91.4441C71.4625 91.5095 71.301 91.5719 71.1597 91.6124C70.9411 91.6747 70.783 91.8119 70.6552 91.9241C70.635 91.9428 70.6081 91.9646 70.5812 91.9864C70.5442 91.9553 70.5005 91.9147 70.4736 91.8867C70.3021 91.7246 70.0767 91.5189 69.7606 91.5407C69.1013 91.5874 68.8928 91.7932 68.6876 92.0581C68.617 92.1516 68.5531 92.2327 68.4118 92.3324C68.0957 92.56 67.7795 92.6597 67.3793 92.6597C67.0496 92.6597 66.6931 92.5912 66.313 92.5195C66.2054 92.4976 66.0978 92.4789 65.9868 92.4571C65.8893 92.3106 65.7009 92.0612 65.3175 92.0051C65.008 91.9615 64.7356 92.1173 64.5405 92.242C64.4934 92.2701 64.4262 92.3137 64.4228 92.32C64.1571 92.373 63.7972 92.454 63.471 92.5693C63.5147 91.4908 63.5517 90.3811 63.3801 89.3587C63.3297 89.0595 63.2826 88.8101 63.2389 88.595C63.0135 87.4541 62.9967 87.3606 64.0663 85.8893C65.1964 84.3339 65.4184 83.617 64.8298 81.5534C64.8264 81.541 64.184 79.8546 64.0831 79.6987C63.9687 79.5211 63.8981 79.3527 63.8342 79.2031C63.666 78.8104 63.5214 78.4675 62.7848 78.3646C62.7848 78.3241 62.7848 78.2836 62.7815 78.243C62.879 78.2618 62.9866 78.2805 63.0976 78.3023C63.0943 78.321 63.0976 78.3428 63.0976 78.3646C63.1178 78.4488 63.2086 78.4987 63.2994 78.48C63.4171 78.455 63.5214 78.4363 63.6257 78.4207C64.3051 78.5922 65.0282 78.8478 65.7379 79.0504H65.7278ZM75.0748 40.5384C74.8057 40.6568 74.5635 40.7534 74.3247 40.847C73.9077 41.0122 73.5108 41.168 73.0466 41.4143C72.902 41.4922 72.754 41.5545 72.5993 41.6169C72.2461 41.7634 71.8425 41.9317 71.5062 42.3182C71.2876 42.5645 71.2001 42.8669 71.1227 43.1349C71.0689 43.3188 71.0084 43.5277 70.9243 43.6025C70.7696 43.7428 70.5341 43.8207 70.2617 43.9111C69.9657 44.0108 69.626 44.1199 69.3334 44.3444C69.098 44.5252 68.9466 44.6841 68.8289 44.8119C68.6338 45.0239 68.5329 45.1299 68.0856 45.2546C66.7637 45.6224 65.8455 46.0463 64.813 46.7664C64.3421 47.0937 63.9351 47.2121 63.3701 47.3773L63.0707 47.4646C63.0169 47.4802 62.9328 47.4958 62.8386 47.5176C62.3812 47.6111 61.8128 47.7296 61.574 48.1036C61.3486 48.4527 61.3856 49.0668 61.4664 50.0362C61.5 50.4383 61.5336 50.856 61.5134 51.0711C61.463 51.5823 61.463 51.5917 61.2175 51.8504C61.1973 51.8535 61.1771 51.8566 61.1569 51.8629C60.9484 51.9034 60.5582 51.9813 60.3497 52.3211C60.1883 52.586 60.1849 52.9289 60.3497 53.3653C60.6322 54.129 61.3856 54.2288 61.9339 54.3036C62.3308 54.3566 62.7075 54.4064 62.9967 54.6371C63.2557 54.8428 63.4575 55.1701 63.6728 55.5161C63.9923 56.0273 64.3522 56.6071 65.0013 56.9126C65.1258 56.9718 65.2435 57.0092 65.3578 57.0373C65.3276 57.0747 65.3108 57.1214 65.3242 57.1713C65.4217 57.5298 65.4386 57.8041 65.3747 58.0098C64.9172 58.4088 64.5069 58.5023 64.0495 58.5771C63.9889 58.5803 63.9317 58.5865 63.8712 58.5896C63.3701 58.6239 62.8555 58.6582 62.4451 58.8514C61.426 59.3346 60.9988 60.1731 60.5851 60.9804C60.4371 61.2672 60.2925 61.5509 60.1244 61.8096C60.0571 61.794 59.9932 61.7784 59.9192 61.7597C59.825 61.741 59.7376 61.7909 59.714 61.8751C59.6905 61.9592 59.7476 62.0434 59.8385 62.0652C59.8687 62.0714 59.899 62.0808 59.9293 62.087C59.6737 62.4112 59.3575 62.6855 58.9102 62.8601C58.6411 62.966 58.2207 62.938 57.8103 62.9131C57.2823 62.8788 56.7845 62.8476 56.4649 63.0627C55.9705 63.3993 55.8562 63.976 55.7553 64.4841C55.688 64.8207 55.6241 65.1387 55.4694 65.3693C54.7563 66.426 54.198 66.7533 53.0073 66.6411C52.9704 66.4198 52.8863 66.211 52.7147 66.0426C52.5432 65.8712 52.2741 65.6436 51.9109 65.6436C51.5813 65.6436 51.366 65.8307 51.2348 65.9429C51.2113 65.9647 51.1776 65.9928 51.1541 66.0084C50.8379 65.9834 50.4848 65.7621 50.1451 65.547C49.7078 65.2727 49.2605 64.9891 48.7291 64.9891C48.6484 64.9891 48.5676 64.9953 48.4869 65.0109C48.3053 65.042 48.1573 65.1605 48.1001 65.3226C48.0598 65.4317 48.0026 65.5065 47.9555 65.5065C47.8882 65.5065 47.7436 65.4255 47.636 65.2073C47.525 64.9828 47.2458 64.8768 47.0003 64.9641C46.7514 65.0483 46.6168 65.2977 46.6908 65.5346C46.7379 65.6842 46.7615 65.8681 46.7615 66.08C46.6606 66.0863 46.5698 66.0925 46.489 66.0988C46.3612 66.1081 46.2502 66.1175 46.1392 66.1175C45.9206 66.1175 45.6986 66.0894 45.184 65.7528C45.0394 65.6561 44.851 65.6312 44.6862 65.6998C44.5315 65.7652 44.4273 65.8868 44.4003 66.0364C44.101 65.9491 43.7613 65.9335 43.462 65.9211C43.3375 65.9148 43.2097 65.9117 43.092 65.8993C43.2938 65.5875 43.6099 65.0794 43.0146 64.4591C42.7893 64.2222 42.4899 64.1038 42.1233 64.1038C42.0056 64.1038 41.8845 64.1163 41.7634 64.1287C41.6222 64.1443 41.4506 64.1599 41.3766 64.1287C41.2085 64.0602 41.0638 63.8981 40.8957 63.7079C40.6636 63.4523 40.3777 63.1313 39.9169 62.9536C39.6646 62.8569 39.3922 62.8445 39.15 62.832C39.0929 62.832 39.0222 62.8258 38.955 62.8195C39.1534 62.7821 39.4561 62.7073 39.594 62.4112C39.6243 62.3457 39.8799 61.7566 39.6747 61.4667C39.6579 61.4449 39.6411 61.4231 39.6209 61.4044C39.6176 61.3888 39.6108 61.3732 39.6075 61.3576C39.6377 61.3483 39.6646 61.3389 39.6916 61.3296C39.8564 61.2766 40.0615 61.2111 40.223 61.0615C40.3138 60.9773 40.4046 60.8994 40.4954 60.8215C40.7948 60.5627 41.1076 60.2916 41.3867 59.8832C41.4506 59.7928 41.5213 59.6775 41.5986 59.5559C41.6659 59.4468 41.7466 59.3221 41.8273 59.2037C42.0729 59.3814 42.3218 59.4686 42.5774 59.4686C43.4149 59.4686 43.8218 58.574 44.1515 57.854C44.2355 57.6669 44.1817 57.4519 44.0203 57.3209C43.9631 57.2742 43.8958 57.2399 43.8252 57.2212C43.6638 56.9001 43.4014 56.6539 43.1189 56.4606C43.1357 56.4357 43.1492 56.4107 43.166 56.3858C43.2837 56.1988 43.4182 55.9899 43.4855 55.7593C43.5662 55.4787 43.5528 55.2013 43.5427 54.955C43.5326 54.7587 43.5259 54.5716 43.5696 54.4314C43.6671 54.1197 43.7916 54.0542 44.0741 53.9108C44.36 53.7674 44.7468 53.571 45.0428 53.0661C45.8769 51.6447 44.6829 50.962 43.8118 50.4664C43.8084 50.4664 43.8017 50.4602 43.7983 50.457C44.7098 50.3822 45.0125 49.5655 45.2816 48.833C45.332 48.6928 45.3858 48.5494 45.443 48.4153C47.3433 49.0512 48.7123 48.5712 50.1585 48.0662C50.4881 47.9509 50.8279 47.8324 51.1877 47.7202C51.477 47.6298 51.9075 47.6298 52.3616 47.6298C53.1991 47.6298 54.1475 47.6298 54.5982 47.0563C54.9817 46.5669 54.8673 45.3824 54.7664 44.3412C54.7328 43.9921 54.6992 43.6555 54.6958 43.4123C55.2877 43.4498 55.6779 43.3781 55.9133 43.1848C56.2026 42.9479 56.2093 42.5894 56.2194 42.2123C56.2261 41.8756 56.2329 41.5265 56.4246 41.2085C56.5558 40.9903 56.8349 40.8064 57.104 40.6319C57.4033 40.4355 57.6892 40.2485 57.8036 39.9991C57.9045 39.7809 57.9045 39.4785 57.9045 39.1855C57.9045 38.9019 57.9045 38.6089 57.9953 38.4499C58.2139 38.0727 58.4292 37.8109 58.6175 37.5771C59.0077 37.0971 59.3138 36.7168 59.3339 35.7442C59.3474 35.1364 59.0985 34.6532 58.8832 34.2293C58.5099 33.4999 58.2408 32.9762 59.3171 32.1097C59.3373 32.0941 59.3474 32.0754 59.3575 32.0567C59.418 32.1346 59.4786 32.2157 59.5391 32.3029C59.7342 32.5835 59.9595 32.9014 60.3295 33.1009C60.6289 33.263 60.9248 33.3409 61.2309 33.3409C61.5504 33.3409 61.8296 33.2568 62.0987 33.1757C62.2265 33.1383 62.3644 33.0947 62.5157 33.0635C62.7075 33.0199 62.8756 32.9606 63.0203 32.9077C63.1212 32.8702 63.212 32.836 63.2994 32.8173C63.4138 32.9077 63.6055 33.0604 63.8981 33.0604C63.9116 33.0604 63.9452 33.0604 63.9587 33.0604C64.5641 33.0168 66.0036 32.9045 66.5653 31.8322C66.9286 32.0099 67.2985 31.985 67.6651 31.96C68.0755 31.932 68.4623 31.9039 68.8894 32.1346C69.0811 32.9014 69.3569 33.6277 69.6227 34.3072C69.6496 34.3758 69.7202 34.4195 69.8009 34.407C71.2337 34.2387 72.5354 34.1607 73.9177 34.0735L74.0624 34.0641C74.1868 34.7655 74.0489 35.4699 73.6789 36.0185C73.6419 36.0746 73.6453 36.1432 73.689 36.1962C73.8438 36.3801 73.9985 36.4238 74.1364 36.4612C74.1734 36.4705 74.2104 36.4799 74.2474 36.4955C74.2373 36.7105 74.2642 36.9474 74.2911 37.1781C74.3079 37.3215 74.3214 37.4618 74.3281 37.5865C74.3315 37.6644 74.3954 37.7267 74.4794 37.7361C75.1185 37.7922 75.1925 38.1319 75.2732 38.7741C75.3237 39.1668 75.3808 39.6157 75.6735 39.9898C75.6903 40.0116 75.7105 40.0272 75.734 40.0365C75.5826 40.2547 75.4447 40.3919 75.0781 40.5539L75.0748 40.5384ZM84.7917 24.719C84.5663 24.9964 84.0013 25.3549 82.5786 25.5045C82.3633 25.5263 82.1884 25.6728 82.1413 25.8692C81.9967 26.4864 81.5594 26.7856 81.0078 27.1628C80.7522 27.3374 80.4831 27.5213 80.2309 27.7488C79.5178 28.3878 79.5347 28.9302 79.5448 29.3666C79.5515 29.6378 79.5582 29.8716 79.4102 30.1833C79.3396 30.3329 79.1041 30.5168 78.8754 30.6914C78.4853 30.9969 77.9976 31.374 77.8563 31.9445C77.7151 32.5055 77.8395 33.0978 78.1792 33.4937C78.3608 33.7056 78.5963 33.8521 78.8653 33.9238C78.7611 34.4319 78.7308 34.9587 78.7005 35.473C78.6703 35.978 78.64 36.4581 78.5492 36.9007C78.3978 37.6301 78.0211 37.8857 77.4527 38.2753C77.1231 38.4998 76.7531 38.7523 76.3966 39.1325C76.178 39.3663 76.03 39.5721 75.9156 39.7466C75.7037 39.4474 75.6499 39.0796 75.6062 38.7242C75.5356 38.1787 75.4582 37.5646 74.6543 37.4306C74.6476 37.334 74.6342 37.2342 74.6241 37.1314C74.5972 36.8757 74.5669 36.6139 74.5904 36.4019C74.5972 36.3396 74.5635 36.2804 74.5063 36.2492C74.4021 36.1962 74.3146 36.1713 74.2339 36.1495C74.1532 36.1276 74.0926 36.1121 74.0355 36.0684C74.429 35.4263 74.5501 34.647 74.3718 33.8553C74.355 33.7804 74.281 33.7243 74.1969 33.7306L73.9043 33.7493C72.5623 33.8334 71.2909 33.9114 69.9018 34.0703C69.6462 33.4157 69.3839 32.7175 69.209 31.9881C69.1989 31.9476 69.172 31.9133 69.135 31.8915C68.5901 31.5735 68.0889 31.6078 67.6483 31.6359C67.2985 31.6608 66.9891 31.6795 66.6965 31.5237C66.7402 31.3865 66.7772 31.24 66.7907 31.0748C66.8781 30.1771 66.4442 29.591 66.0642 29.0736C65.8792 28.8242 65.7076 28.5873 65.5832 28.3161C65.2603 27.6117 65.3646 27.3779 65.4049 27.3218C65.4823 27.2127 65.748 27.1503 66.1281 27.1503C66.6662 27.1503 67.3557 27.2719 67.9611 27.381C68.2874 27.4402 68.5935 27.4932 68.8659 27.5275C71.1194 27.8143 72.7775 27.169 74.4122 25.3829C74.9391 24.8073 75.5972 24.4551 76.3865 24.3262L76.5479 24.3013C77.7924 24.0987 78.5155 23.4347 78.8283 22.2097C78.9393 21.7764 78.9326 21.365 78.9259 20.966C78.9192 20.4454 78.9124 19.9934 79.1613 19.5664C79.4842 19.0115 79.9854 18.9461 80.9708 18.9461C81.1222 19.451 81.5325 19.8656 82.0707 20.0527C82.0909 20.754 82.5012 21.1873 82.8981 21.605L82.9519 21.6611C83.0663 21.7827 83.2647 21.8855 83.6616 22.085C83.7961 22.1536 83.9979 22.2533 84.1291 22.3281C84.1291 22.3998 84.1291 22.4715 84.1291 22.5432C84.1224 23.0794 84.1123 23.9366 84.9834 24.2514C84.9733 24.4322 84.9128 24.5849 84.8051 24.7221L84.7917 24.719ZM60.4271 61.9717C60.4271 61.9717 60.8071 60.9898 61.0863 60.6438C61.5067 60.1232 61.5168 59.8209 62.0583 59.4499C62.5258 59.132 62.6906 58.9917 63.4037 58.867C64.3925 58.6956 64.9206 58.786 65.3511 58.4431C65.7816 58.1002 65.6538 57.0934 65.6538 57.0934C65.6538 57.0934 66.266 57.0934 66.868 57.3521C67.423 57.5921 67.6113 57.4051 68.4421 58.1252C68.7213 58.3683 68.691 58.892 68.7751 59.2224C68.9466 59.9113 69.1316 60.223 69.3267 60.6999C69.5857 61.3233 69.9825 61.6101 70.1877 62.4517C70.3054 62.9411 70.2752 63.2591 70.6754 63.418C71.0757 63.577 71.5634 63.4367 72.0208 63.7173C72.4782 63.9978 72.3874 64.4903 72.4479 64.9454C72.6195 66.1923 72.7069 66.264 72.8785 66.4853C73.0803 66.744 73.05 66.8469 73.3359 66.8032C73.6218 66.7596 74.0018 66.6723 74.0859 66.9466C74.17 67.2209 74.0859 67.6885 74.1902 67.8412C74.54 68.3493 74.7653 68.633 75.3674 69.3499C75.9694 70.0668 76.178 70.2258 76.4538 70.9147C77.0693 72.4514 77.2946 73.0001 77.483 73.9913C77.7016 75.1384 77.853 75.9582 77.9034 76.912C77.9505 77.7537 78.1456 78.4675 78.0581 78.9163C77.853 79.9855 77.8731 80.4905 77.8799 80.7555C77.8866 80.9425 77.6511 81.117 77.2711 81.0547C76.928 80.9986 75.8484 80.7554 74.7317 79.7985C73.615 78.8415 72.4984 78.7387 72.2125 78.7106C71.9266 78.6826 71.2674 79.1096 71.0118 79.1345C70.7561 79.1595 70.2382 79.2998 69.6361 78.9132C69.0341 78.5267 68.8053 78.3927 68.3479 78.5516C67.8905 78.7106 67.6315 78.7979 67.2313 78.9132C66.831 79.0286 65.3612 78.6046 64.7928 78.3646C64.2244 78.1246 63.8241 78.0997 63.5382 78.0997C63.2523 78.0997 62.6335 77.9937 62.7579 77.5947C62.8824 77.1957 62.4518 75.7899 62.4216 75.5249C62.3913 75.26 61.7052 74.4152 61.6211 74.3061C61.537 74.197 62.3072 74.1721 62.4787 74.1721C62.6503 74.1721 64.0461 74.3061 64.7928 73.8012C65.5395 73.2962 65.7413 72.3673 65.7413 71.6254C65.7413 70.8835 65.2838 68.6548 64.998 67.9378C64.7121 67.2209 63.7972 65.6561 63.4508 65.3631C63.1043 65.0701 62.1929 63.6331 62.0751 63.4118C61.9574 63.1905 61.1031 62.2553 60.9585 62.1649C60.8139 62.0745 60.2723 61.9686 60.2723 61.9686H60.417L60.4271 61.9717Z" fill="#4E16ED"/>
<circle cx="24.5" cy="47.5" r="3" stroke="#875EFF"/>
<circle cx="107.5" cy="26.502" r="5" stroke="#875EFF"/>
<path fill-rule="evenodd" clip-rule="evenodd" d="M98.6823 49.3826C99.2799 49.1703 99.9004 48.9863 100.553 48.8333L100.325 47.8597C99.6355 48.0213 98.9795 48.2158 98.3476 48.4402L98.6823 49.3826ZM102.477 48.4875C102.794 48.4468 103.119 48.4126 103.453 48.3851C103.748 48.3608 104.041 48.3477 104.33 48.3452L104.321 47.3452C104.008 47.3479 103.691 47.3622 103.371 47.3885C103.022 47.4171 102.682 47.4529 102.35 47.4956L102.477 48.4875ZM95.1473 51.059C95.7187 50.724 96.2925 50.4147 96.8796 50.1339L96.4481 49.2318C95.832 49.5265 95.2333 49.8494 94.6415 50.1964L95.1473 51.059ZM106.076 48.4616C106.658 48.5447 107.228 48.6711 107.788 48.8374L108.073 47.8788C107.468 47.6991 106.85 47.5619 106.218 47.4717L106.076 48.4616ZM91.8298 53.2395C92.3895 52.845 92.9337 52.4682 93.4719 52.111L92.9188 51.2778C92.3699 51.6422 91.8174 52.0249 91.2537 52.4221L91.8298 53.2395ZM109.436 49.4525C109.968 49.6917 110.49 49.9665 111.002 50.2737L111.516 49.4159C110.972 49.09 110.416 48.7969 109.847 48.5406L109.436 49.4525ZM89.3769 54.9842C89.6553 54.7871 89.9284 54.5927 90.1968 54.4013L89.6161 53.5872C89.3481 53.7783 89.0761 53.9719 88.7992 54.168L89.3769 54.9842ZM112.479 51.2634C112.949 51.6127 113.412 51.9883 113.867 52.3873L114.526 51.6357C114.053 51.2201 113.569 50.8271 113.075 50.4603L112.479 51.2634ZM115.173 53.6167C115.59 54.0365 116.001 54.4747 116.404 54.9287L117.152 54.2643C116.737 53.7975 116.313 53.3456 115.882 52.9115L115.173 53.6167ZM118.662 56.0694L119.644 55.1307L120.248 58.7037L116.705 57.9395L117.936 56.7635C117.815 56.6096 117.693 56.4569 117.57 56.3055L118.348 55.6765C118.453 55.8066 118.558 55.9376 118.662 56.0694Z" fill="#875EFF"/>
<path fill-rule="evenodd" clip-rule="evenodd" d="M80.7361 44.3486C80.885 43.7321 81.0701 43.1119 81.2987 42.4817L80.3586 42.1408C80.1172 42.8063 79.9215 43.462 79.7641 44.1138L80.7361 44.3486ZM82.0606 40.6818C82.1998 40.394 82.3489 40.103 82.5085 39.8083C82.6495 39.5477 82.7983 39.2958 82.9543 39.0522L82.1123 38.5128C81.9429 38.7771 81.7818 39.0502 81.6291 39.3322C81.4624 39.64 81.3064 39.9445 81.1604 40.2463L82.0606 40.6818ZM80.2079 48.2251C80.2396 47.5635 80.2943 46.9139 80.38 46.2689L79.3887 46.1371C79.2988 46.8141 79.2419 47.492 79.209 48.1772L80.2079 48.2251ZM84.0063 37.6535C84.3938 37.2118 84.8115 36.8032 85.2567 36.4253L84.6096 35.6629C84.1283 36.0714 83.6755 36.5142 83.2546 36.9939L84.0063 37.6535ZM80.2206 52.195C80.1961 51.5107 80.178 50.8491 80.173 50.2031L79.1731 50.2109C79.1782 50.8697 79.1966 51.5415 79.2212 52.2307L80.2206 52.195ZM86.6725 35.3814C87.1633 35.0671 87.6787 34.7803 88.2163 34.5187L87.7788 33.6195C87.2087 33.8969 86.659 34.2026 86.1333 34.5393L86.6725 35.3814ZM80.3409 55.2027C80.328 54.8619 80.3145 54.5269 80.3009 54.1975L79.3017 54.2388C79.3153 54.5677 79.3288 54.9013 79.3416 55.2404L80.3409 55.2027ZM89.8519 33.8234C90.4017 33.6201 90.9691 33.438 91.5518 33.2753L91.2829 32.3121C90.6761 32.4816 90.0826 32.6719 89.5051 32.8855L89.8519 33.8234ZM93.2951 32.8538C93.8749 32.7335 94.4661 32.6293 95.0669 32.5395L94.919 31.5505C94.3014 31.6428 93.6916 31.7503 93.092 31.8746L93.2951 32.8538ZM97.2561 31.2723L97.0068 29.9369L100.329 31.3843L97.7528 33.9329L97.4405 32.2598C97.2454 32.2771 97.051 32.2957 96.8573 32.3155L96.7555 31.3207C96.9219 31.3037 97.0889 31.2876 97.2561 31.2723Z" fill="#875EFF"/>
<path fill-rule="evenodd" clip-rule="evenodd" d="M49.0879 50.3626C48.5132 50.192 47.922 50.0466 47.3145 49.9301L47.5028 48.948C48.1436 49.0709 48.767 49.2242 49.3726 49.404L49.0879 50.3626ZM45.5069 49.6763C45.2067 49.6494 44.903 49.6295 44.5956 49.6172C44.2894 49.6049 43.987 49.6012 43.6883 49.6056L43.6736 48.6057C43.9905 48.601 44.3113 48.605 44.6357 48.618C44.9596 48.631 45.2798 48.6519 45.5964 48.6804L45.5069 49.6763ZM52.4716 51.7309C51.9371 51.4547 51.3836 51.1985 50.8114 50.9667L51.1869 50.0399C51.7887 50.2837 52.3701 50.5528 52.9307 50.8425L52.4716 51.7309ZM41.8802 49.734C41.2694 49.8123 40.6758 49.9246 40.0997 50.0667L39.8603 49.0957C40.4726 48.9447 41.1036 48.8254 41.753 48.7421L41.8802 49.734ZM55.568 53.6864C55.0878 53.3243 54.5853 52.9748 54.0608 52.6429L54.5955 51.7979C55.1441 52.145 55.6691 52.5101 56.1701 52.8879L55.568 53.6864ZM38.368 50.5988C37.7932 50.8112 37.238 51.0528 36.7028 51.3187L36.2579 50.4231C36.8237 50.142 37.4117 49.8861 38.0215 49.6608L38.368 50.5988ZM58.3209 56.1159C57.9051 55.6895 57.4614 55.265 56.9905 54.8489L57.6526 54.0995C58.1429 54.5327 58.6045 54.9744 59.0368 55.4178L58.3209 56.1159ZM35.1176 52.2098C34.597 52.5375 34.0991 52.8867 33.6242 53.2518L33.0147 52.4589C33.5131 52.0759 34.0365 51.7087 34.5849 51.3635L35.1176 52.2098ZM60.6836 58.9277C60.3474 58.4591 59.9707 57.9722 59.5547 57.4776L60.3199 56.8338C60.7527 57.3482 61.145 57.8555 61.4961 58.3447L60.6836 58.9277ZM62.1197 61.2519C61.9944 61.005 61.8492 60.7394 61.6843 60.4587L62.5466 59.9522C62.7211 60.2492 62.8762 60.5328 63.0115 60.7995L62.1197 61.2519ZM32.2269 54.427C31.7676 54.8483 31.3358 55.2808 30.9319 55.7173L30.1979 55.0381C30.6195 54.5826 31.0706 54.1308 31.5509 53.6901L32.2269 54.427ZM29.7438 57.1078C29.3474 57.6107 28.9892 58.1079 28.67 58.5883L27.8371 58.0349C28.171 57.5324 28.545 57.0132 28.9585 56.4887L29.7438 57.1078ZM29.1963 60.7534L25.9068 62.2735L25.7148 58.6549L29.1963 60.7534Z" fill="#875EFF"/>
<path d="M40.81 82.5533L38.8113 89.3248C38.4845 90.4323 37.0813 90.7706 36.2856 89.9338L31.4206 84.8172C30.625 83.9804 31.0336 82.596 32.1561 82.3254L39.0197 80.6705C40.1423 80.3998 41.1368 81.4458 40.81 82.5533Z" stroke="#D49DFF"/>
<path d="M219 50.5195C219 69.8495 203.33 85.5195 184 85.5195C164.67 85.5195 149 69.8495 149 50.5195C149 31.1896 164.67 15.5195 184 15.5195C203.33 15.5195 219 31.1896 219 50.5195Z" fill="#E1F6FF"/>
<circle cx="222" cy="94.5195" r="12" fill="#E1F6FF"/>
<circle cx="152.5" cy="68.0195" r="7" stroke="#4FAFE4"/>
<circle cx="204" cy="21.5195" r="2.5" stroke="#4FAFE4"/>
<path d="M245.63 33.9343L257.545 31.0615L254.076 42.8166L245.63 33.9343Z" stroke="#4FAFE4"/>
<path d="M173.978 75.8654C168.362 71.6781 163.933 65.7822 161.575 58.6233C155.475 40.1038 165.542 20.1456 184.062 14.0454C202.581 7.94513 222.54 18.0129 228.64 36.5324C229.896 40.345 230.466 44.2185 230.419 48.0195" stroke="#407AEC" stroke-dasharray="4 4"/>
<path d="M221 94.5195V37.5195C221 36.415 220.105 35.5195 219 35.5195H191C189.895 35.5195 189 36.415 189 37.5195V94.5195" stroke="#407AEC" stroke-width="1.4"/>
<path d="M211 94.5195V79.5195C211 78.415 210.105 77.5195 209 77.5195H202C200.895 77.5195 200 78.415 200 79.5195V94.5195" stroke="#407AEC" stroke-width="1.4"/>
<path d="M221 54.5195H245C246.105 54.5195 247 55.415 247 56.5195V93.5195" stroke="#407AEC" stroke-width="1.4"/>
<rect x="195.5" y="47.0195" width="7" height="3" stroke="#407AEC"/>
<rect x="207.5" y="47.0195" width="7" height="3" stroke="#407AEC"/>
<rect x="195.5" y="55.0195" width="7" height="3" stroke="#407AEC"/>
<rect x="207.5" y="55.0195" width="7" height="3" stroke="#407AEC"/>
<rect x="195.5" y="63.0195" width="7" height="3" stroke="#407AEC"/>
<rect x="229.5" y="65.0195" width="7" height="3" stroke="#407AEC"/>
<rect x="229.5" y="73.0195" width="7" height="3" stroke="#407AEC"/>
<rect x="229.5" y="81.0195" width="7" height="3" stroke="#407AEC"/>
<rect x="207.5" y="63.0195" width="7" height="3" stroke="#407AEC"/>
<path d="M182 94.0195H252.5" stroke="#875DFF" stroke-width="1.4"/>
<path d="M391 73.5C391 90.897 376.897 105 359.5 105C342.103 105 328 90.897 328 73.5C328 56.103 342.103 42 359.5 42C376.897 42 391 56.103 391 73.5Z" fill="#FFE7FA"/>
<circle cx="301" cy="30" r="12" fill="#FFE7FA"/>
<circle cx="390.5" cy="62.5" r="7" stroke="#FF71CF"/>
<circle cx="370.5" cy="21.5" r="4" stroke="#FF71CF"/>
<path d="M304.332 88.4041L305.593 89.4189C306.099 89.8263 306.81 89.8613 307.354 89.5057L308.709 88.6198C309.114 88.3548 309.622 88.7633 309.45 89.216L308.875 90.7291C308.644 91.3365 308.83 92.0236 309.336 92.431L310.597 93.4458C310.975 93.7494 310.743 94.3586 310.259 94.3347L308.643 94.2551C307.993 94.2231 307.398 94.6127 307.167 95.2201L306.591 96.7331C306.419 97.1859 305.768 97.1538 305.641 96.6863L305.218 95.124C305.047 94.4968 304.493 94.0505 303.844 94.0185L302.227 93.9389C301.743 93.915 301.572 93.2861 301.978 93.021L303.333 92.1351C303.877 91.7795 304.13 91.1141 303.96 90.4869L303.536 88.9246C303.409 88.4571 303.954 88.1005 304.332 88.4041Z" stroke="#FF71CF"/>
<path d="M326.629 5C314.129 14 316.629 30.12 325.129 32.5C337.629 36 348.629 26.5 345.129 19.5C342.266 13.7729 333.63 15.5 331.63 23C330.094 28.7598 331.129 38 337.129 46.5" stroke="#EE2A7B" stroke-dasharray="2 2"/>
<path fill-rule="evenodd" clip-rule="evenodd" d="M315.674 35.4533C315.933 35.1665 316.375 35.1441 316.662 35.4034C316.949 35.6626 316.971 36.1052 316.712 36.392L315.352 37.8967L317.789 40.0816C318.488 40.7084 318.547 41.7832 317.92 42.4822L317.448 43.008L317.533 43.0223C318.212 43.1354 318.933 43.2356 319.311 43.2356C319.445 43.2356 319.824 43.1726 320.468 43.041C320.715 42.9903 321.008 42.9284 321.325 42.8613L321.325 42.8613L321.326 42.8613C321.747 42.7722 322.21 42.6741 322.668 42.5814C324.31 42.2483 326.268 41.8993 327.772 41.8993C329.282 41.8993 331.129 42.2496 332.563 42.5859C333.288 42.7558 333.922 42.9256 334.374 43.053C334.601 43.1167 334.782 43.1699 334.908 43.2074C334.971 43.2262 335.02 43.241 335.053 43.2512L335.056 43.252C335.255 43.1476 335.457 43.0503 335.658 42.9617C336.446 42.6144 337.331 42.3455 338.012 42.3455H338.018H338.024H338.031H338.038H338.045H338.052H338.06H338.067H338.075H338.083H338.091H338.099H338.108H338.117H338.125H338.134H338.143H338.153H338.162H338.172H338.182H338.192H338.202H338.212H338.223H338.233H338.244H338.255H338.266H338.277H338.289H338.3H338.312H338.324H338.336H338.349H338.361H338.374H338.386H338.399H338.412H338.425H338.439H338.452H338.466H338.48H338.494H338.508H338.522H338.537H338.551H338.566H338.581H338.596H338.611H338.626H338.642H338.657H338.673H338.689H338.705H338.721H338.738H338.754H338.771H338.788H338.805H338.822H338.839H338.856H338.874H338.891H338.909H338.927H338.945H338.963H338.981H339H339.018H339.037H339.056H339.075H339.094H339.113H339.133H339.152H339.172H339.192H339.212H339.232H339.252H339.272H339.293H339.313H339.334H339.355H339.376H339.397H339.418H339.439H339.461H339.482H339.504H339.526H339.547H339.57H339.592H339.614H339.636H339.659H339.681H339.704H339.727H339.75H339.773H339.796H339.82H339.843H339.867H339.89H339.914H339.938H339.962H339.986H340.01H340.035H340.059H340.084H340.108H340.133H340.158H340.183H340.208H340.233H340.259H340.284H340.309H340.335H340.361H340.387H340.412H340.438H340.465H340.491H340.517H340.543H340.57H340.597H340.623H340.65H340.677H340.704H340.731H340.758H340.785H340.813H340.84H340.868H340.895H340.923H340.951H340.979H341.007H341.035H341.063H341.091H341.12H341.148H341.177H341.205H341.234H341.263H341.292H341.321H341.35H341.379H341.408H341.437H341.467H341.496H341.525H341.555H341.585H341.614H341.644H341.674H341.704H341.734H341.764H341.794H341.825H341.855H341.885H341.916H341.947H341.977H342.008H342.039H342.069H342.1H342.131H342.162H342.193H342.225H342.256H342.287H342.319H342.35H342.381H342.413H342.445H342.476H342.508H342.54H342.572H342.604H342.636H342.668H342.7H342.732H342.764H342.796H342.829H342.861H342.894H342.926H342.959H342.991H343.024H343.057H343.089H343.122H343.155H343.188H343.221H343.254H343.287H343.32H343.353H343.386H343.42H343.453H343.486H343.52H343.553H343.586H343.62H343.653H343.687H343.721H343.754H343.788H343.822H343.856H343.889H343.923H343.957H343.991H344.025H344.059H344.093H344.127H344.161H344.195H344.23H344.264H344.298H344.332H344.367H344.401H344.435H344.47H344.504H344.538H344.573H344.607H344.642H344.676H344.711H344.746H344.78H344.815H344.85H344.884H344.919H344.954H344.988H345.023H345.058H345.093H345.128H345.162H345.197H345.232H345.267H345.302H345.337H345.372H345.407H345.442H345.477H345.512H345.547H345.582H345.617H345.652H345.687H345.722H345.757H345.792H345.827H345.862H345.897H345.932H345.968H346.003H346.038H346.073H346.108H346.143H346.178H346.213H346.248H346.284H346.319H346.354H346.389H346.424H346.459H346.494H346.529H346.564H346.599H346.635H346.67H346.705H346.74H346.775H346.81H346.845H346.88H346.915H346.95H346.985H347.02H347.055H347.09H347.125H347.16H347.195H347.23H347.265H347.299H347.334H347.369H347.404H347.439H347.473H347.508H347.543H347.578H347.612H347.647H347.682H347.716H347.751H347.786H347.82H347.855H347.889H347.924H347.958H347.993H348.027H348.061H348.096H348.13H348.164H348.199H348.233H348.267H348.301H348.335H348.369H348.404H348.438H348.472H348.506H348.539H348.573H348.607H348.641H348.675H348.709H348.742H348.776H348.81H348.843H348.877H348.91H348.944H348.977H349.01H349.044H349.077H349.11H349.143H349.177H349.21H349.243H349.276H349.309H349.341H349.374H349.407H349.44H349.473H349.505H349.538H349.57H349.603H349.635H349.668H349.7H349.732H349.764H349.797H349.829H349.861H349.893H349.925H349.956H349.988H350.02H350.052H350.083H350.115H350.146H350.178H350.209H350.24H350.272H350.303H350.334H350.365H350.396H350.427H350.457H350.488H350.519H350.55H350.58H350.611H350.641H350.671H350.702H350.732H350.762H350.792H350.822H350.852H350.881H350.911H350.941H350.97H351H351.029H351.059H351.088H351.117H351.146H351.175H351.204H351.233H351.262H351.29H351.319H351.347H351.376H351.404H351.432H351.461H351.489H351.517H351.545H351.572H351.6H351.628H351.655H351.683H351.707C351.613 41.7898 351.798 41.1995 352.248 40.7955L354.215 39.032L352.635 37.2846C352.376 36.9978 352.399 36.5552 352.685 36.2959C352.972 36.0367 353.415 36.0591 353.674 36.3459L373.929 58.7555C374.041 58.8791 374.232 58.888 374.354 58.7755L378.956 54.5575C379.241 54.2962 379.684 54.3155 379.945 54.6005C380.206 54.8854 380.187 55.3282 379.902 55.5895L375.3 59.8075C374.605 60.4451 373.523 60.3943 372.89 59.6943L371.741 58.4222L369.696 60.2552C368.997 60.882 367.923 60.8234 367.296 60.1244L366.742 59.5067L357.624 72.0663C358.355 73.7671 358.228 75.7742 356.707 76.9907C355.158 78.2302 353.484 78.0094 352.259 77.5119C352.284 77.6635 352.3 77.8164 352.307 77.97C352.359 79.0716 351.938 80.1827 350.918 80.9986C349.597 82.0554 348.159 81.8428 347.111 81.4028C347.129 81.5903 347.13 81.7752 347.115 81.9574C347.041 82.8358 346.602 83.5387 346.077 84.0642C345.466 84.6751 344.6 84.9373 343.745 84.9373C342.884 84.9373 341.969 84.6741 341.186 84.1517L341.151 84.1283L341.119 84.1008L339.03 82.311C338.997 83.187 338.678 84.0583 338.061 84.7744L335.442 87.8171C333.996 89.4975 331.461 89.6872 329.781 88.2407C328.949 87.5244 328.482 86.5412 328.399 85.527L327.974 86.0202C326.528 87.7006 323.993 87.8903 322.313 86.4439C321.166 85.4571 320.714 83.9638 321.001 82.5808C319.677 83.0698 318.134 82.8442 316.988 81.8579C315.843 80.8725 315.39 79.382 315.675 78.0006C314.351 78.4885 312.809 78.2626 311.664 77.2769C309.984 75.8305 309.794 73.2957 311.24 71.6153L311.247 71.6074C311.179 71.5409 311.105 71.4678 311.026 71.389C310.615 70.983 310.055 70.4228 309.457 69.8059C308.279 68.5912 306.895 67.0978 306.259 66.1443C305.646 65.2235 304.629 63.4139 303.779 61.8617C303.35 61.0799 302.96 60.3541 302.676 59.824L302.562 59.6107L302.237 59.9728C301.611 60.6718 300.536 60.7304 299.837 60.1036L297.32 57.8471L296.457 58.8017C295.825 59.5017 294.743 59.5525 294.047 58.915L289.446 54.6969C289.161 54.4357 289.142 53.9929 289.403 53.7079C289.664 53.4229 290.107 53.4036 290.392 53.6649L294.993 57.883C295.116 57.9955 295.307 57.9865 295.419 57.863L315.674 35.4533ZM365.786 58.4405L352.553 43.6822C352.465 43.7228 352.366 43.7455 352.262 43.7455H352.237H352.211H352.186H352.16H352.134H352.109H352.083H352.057H352.031H352.005H351.978H351.952H351.925H351.899H351.872H351.845H351.818H351.791H351.764H351.737H351.71H351.683H351.655H351.628H351.6H351.572H351.545H351.517H351.489H351.461H351.432H351.404H351.376H351.347H351.319H351.29H351.262H351.233H351.204H351.175H351.146H351.117H351.088H351.059H351.029H351H350.97H350.941H350.911H350.881H350.852H350.822H350.792H350.762H350.732H350.702H350.671H350.641H350.611H350.58H350.55H350.519H350.488H350.457H350.427H350.396H350.365H350.334H350.303H350.272H350.24H350.209H350.178H350.146H350.115H350.083H350.052H350.02H349.988H349.956H349.925H349.893H349.861H349.829H349.797H349.764H349.732H349.7H349.668H349.635H349.603H349.57H349.538H349.505H349.473H349.44H349.407H349.374H349.341H349.309H349.276H349.243H349.21H349.177H349.143H349.11H349.077H349.044H349.01H348.977H348.944H348.91H348.877H348.843H348.81H348.776H348.742H348.709H348.675H348.641H348.607H348.573H348.539H348.506H348.472H348.438H348.404H348.369H348.335H348.301H348.267H348.233H348.199H348.164H348.13H348.096H348.061H348.027H347.993H347.958H347.924H347.889H347.855H347.82H347.786H347.751H347.716H347.682H347.647H347.612H347.578H347.543H347.508H347.473H347.439H347.404H347.369H347.334H347.299H347.265H347.23H347.195H347.16H347.125H347.09H347.055H347.02H346.985H346.95H346.915H346.88H346.845H346.81H346.775H346.74H346.705H346.67H346.635H346.599H346.564H346.529H346.494H346.459H346.424H346.389H346.354H346.319H346.284H346.248H346.213H346.178H346.143H346.108H346.073H346.038H346.003H345.968H345.932H345.897H345.862H345.827H345.792H345.757H345.722H345.687H345.652H345.617H345.582H345.547H345.512H345.477H345.442H345.407H345.372H345.337H345.302H345.267H345.232H345.197H345.162H345.128H345.093H345.058H345.023H344.988H344.954H344.919H344.884H344.85H344.815H344.78H344.746H344.711H344.676H344.642H344.607H344.573H344.538H344.504H344.47H344.435H344.401H344.367H344.332H344.298H344.264H344.23H344.195H344.161H344.127H344.093H344.059H344.025H343.991H343.957H343.923H343.889H343.856H343.822H343.788H343.754H343.721H343.687H343.653H343.62H343.586H343.553H343.52H343.486H343.453H343.42H343.386H343.353H343.32H343.287H343.254H343.221H343.188H343.155H343.122H343.089H343.057H343.024H342.991H342.959H342.926H342.894H342.861H342.829H342.796H342.764H342.732H342.7H342.668H342.636H342.604H342.572H342.54H342.508H342.476H342.445H342.413H342.381H342.35H342.319H342.287H342.256H342.225H342.193H342.162H342.131H342.1H342.069H342.039H342.008H341.977H341.947H341.916H341.885H341.855H341.825H341.794H341.764H341.734H341.704H341.674H341.644H341.614H341.585H341.555H341.525H341.496H341.467H341.437H341.408H341.379H341.35H341.321H341.292H341.263H341.234H341.205H341.177H341.148H341.12H341.091H341.063H341.035H341.007H340.979H340.951H340.923H340.895H340.868H340.84H340.813H340.785H340.758H340.731H340.704H340.677H340.65H340.623H340.597H340.57H340.543H340.517H340.491H340.465H340.438H340.412H340.387H340.361H340.335H340.309H340.284H340.259H340.233H340.208H340.183H340.158H340.133H340.108H340.084H340.059H340.035H340.01H339.986H339.962H339.938H339.914H339.89H339.867H339.843H339.82H339.796H339.773H339.75H339.727H339.704H339.681H339.659H339.636H339.614H339.592H339.57H339.547H339.526H339.504H339.482H339.461H339.439H339.418H339.397H339.376H339.355H339.334H339.313H339.293H339.272H339.252H339.232H339.212H339.192H339.172H339.152H339.133H339.113H339.094H339.075H339.056H339.037H339.018H339H338.981H338.963H338.945H338.927H338.909H338.891H338.874H338.856H338.839H338.822H338.805H338.788H338.771H338.754H338.738H338.721H338.705H338.689H338.673H338.657H338.642H338.626H338.611H338.596H338.581H338.566H338.551H338.537H338.522H338.508H338.494H338.48H338.466H338.452H338.439H338.425H338.412H338.399H338.386H338.374H338.361H338.349H338.336H338.324H338.312H338.3H338.289H338.277H338.266H338.255H338.244H338.233H338.223H338.212H338.202H338.192H338.182H338.172H338.162H338.153H338.143H338.134H338.125H338.117H338.108H338.099H338.091H338.083H338.075H338.067H338.06H338.052H338.045H338.038H338.031H338.024H338.018H338.012C337.623 43.7455 336.95 43.9219 336.223 44.2426C335.505 44.5595 334.858 44.9626 334.499 45.3218L326.483 53.3375C325.85 53.97 324.924 55.112 324.472 56.317C324.249 56.9136 324.157 57.4833 324.237 57.9949C324.314 58.4887 324.558 58.9782 325.1 59.43C325.762 59.9819 326.54 60.0941 327.28 59.9557C328.041 59.8134 328.698 59.4153 329.034 59.0494C329.474 58.5696 329.971 58.0206 330.49 57.4483L330.49 57.4482L330.49 57.4482C331.878 55.9176 333.416 54.221 334.399 53.2383C335.044 52.5936 336.048 52.3965 336.815 52.3592C337.221 52.3395 337.613 52.3616 337.945 52.4119C338.241 52.4568 338.596 52.539 338.845 52.7049L338.903 52.7433L338.952 52.7924L356.319 70.1599C356.509 70.3499 356.685 70.5491 356.846 70.7558L365.786 58.4405ZM316.426 44.2475L316.35 44.2331L303.557 58.5008L303.576 58.5357C303.655 58.6847 303.769 58.8998 303.91 59.1634C304.193 59.6909 304.581 60.4125 305.007 61.1893C305.864 62.7544 306.851 64.5073 307.424 65.3678C307.976 66.1956 309.265 67.5968 310.462 68.8313C311.051 69.4392 311.604 69.9922 312.01 70.3934L312.163 70.544L313.205 69.3333C314.651 67.6529 317.186 67.4632 318.866 68.9096C319.774 69.6911 320.247 70.7902 320.262 71.9007L320.493 71.6323C321.939 69.9519 324.474 69.7622 326.154 71.2087C327.166 72.0798 327.638 73.3457 327.536 74.582C328.969 73.7712 330.815 73.8984 332.134 75.0339C333.153 75.911 333.624 77.1884 333.514 78.4327C334.862 77.8889 336.46 78.0989 337.638 79.1128C338.006 79.4299 338.303 79.7994 338.527 80.2008C338.664 80.2144 338.799 80.269 338.912 80.3659L341.996 83.0089C342.541 83.3623 343.171 83.5373 343.745 83.5373C344.338 83.5373 344.807 83.3541 345.087 83.0743C345.452 82.7092 345.681 82.2987 345.719 81.8412C345.757 81.3943 345.621 80.7921 345.047 80.0151L345.034 80.0019L344.908 79.8714C344.798 79.7578 344.639 79.593 344.44 79.3882C344.042 78.9785 343.486 78.4092 342.857 77.7704C341.596 76.4908 340.045 74.9407 338.869 73.8375C338.587 73.5731 338.572 73.1301 338.837 72.8481C339.101 72.5661 339.544 72.5518 339.826 72.8162C341.025 73.9397 342.592 75.5067 343.854 76.7877C344.486 77.4293 345.044 78.0011 345.444 78.4125C345.644 78.6182 345.804 78.7839 345.915 78.8982L346.042 79.0298L346.075 79.064L346.079 79.0681L346.079 79.0688L346.095 79.0838C346.111 79.0987 346.136 79.122 346.169 79.1521C346.236 79.2124 346.337 79.2992 346.465 79.3992C346.724 79.6011 347.082 79.8474 347.494 80.0413C348.327 80.433 349.23 80.5563 350.043 79.9054C350.693 79.3853 350.94 78.7151 350.909 78.0355C350.876 77.3357 350.543 76.6055 349.986 76.0484L349.977 76.0399L349.969 76.0311L343.734 69.3512C343.471 69.0686 343.486 68.6257 343.768 68.3619C344.051 68.0981 344.494 68.1134 344.758 68.396L350.977 75.0599L350.991 75.0724L351.01 75.0896C351.027 75.1057 351.051 75.1265 351.079 75.1511C351.159 75.2203 351.278 75.3194 351.429 75.4332C351.735 75.6626 352.162 75.9426 352.655 76.1596C353.644 76.5947 354.782 76.7381 355.832 75.8975C356.766 75.1507 356.94 73.737 356.194 72.3172C355.978 71.9059 355.688 71.5084 355.329 71.1499L338.044 53.8642C337.999 53.85 337.902 53.8214 337.735 53.7961C337.499 53.7603 337.199 53.7422 336.883 53.7575C336.207 53.7904 335.653 53.9647 335.389 54.2282C334.433 55.1848 332.936 56.835 331.557 58.3561L331.557 58.3564L331.557 58.3566C331.03 58.937 330.521 59.4985 330.066 59.9954C329.511 60.6006 328.575 61.1379 327.537 61.3319C326.479 61.5297 325.252 61.3791 324.204 60.5055C323.41 59.8441 322.985 59.0533 322.854 58.211C322.725 57.3867 322.884 56.5647 323.161 55.8254C323.712 54.3584 324.789 53.0511 325.493 52.3477L325.493 52.3476L333.509 44.3318C333.526 44.3148 333.543 44.2979 333.56 44.281C333.185 44.1798 332.736 44.0643 332.244 43.949C330.828 43.6171 329.112 43.2993 327.772 43.2993C326.427 43.2993 324.598 43.6184 322.946 43.9535C322.471 44.0498 322.041 44.1409 321.64 44.2257L321.64 44.2257L321.64 44.2258C321.327 44.2921 321.032 44.3545 320.748 44.4126C320.167 44.5316 319.622 44.6356 319.311 44.6356C318.798 44.6356 317.961 44.5129 317.303 44.4032C316.963 44.3465 316.652 44.2899 316.426 44.2475ZM298.259 56.8085L300.771 59.0613C300.895 59.1719 301.084 59.1616 301.195 59.0382L316.878 41.5476C316.988 41.4243 316.978 41.2346 316.854 41.124L314.413 38.9353L298.259 56.8085ZM312.577 76.2158C311.483 75.2738 311.359 73.623 312.301 72.5286L314.266 70.2466C315.208 69.1522 316.859 69.0286 317.953 69.9707C319.047 70.9127 319.171 72.5635 318.229 73.6579L316.265 75.9399C315.323 77.0343 313.672 77.1578 312.577 76.2158ZM317.625 77.1096L321.554 72.5456C322.496 71.4512 324.147 71.3277 325.241 72.2697C326.335 73.2117 326.459 74.8626 325.517 75.957L321.588 80.5209C320.646 81.6153 318.996 81.7389 317.901 80.7969C316.807 79.8549 316.683 78.204 317.625 77.1096ZM322.95 81.6955L327.533 76.3709C328.475 75.2765 330.126 75.153 331.22 76.095C332.315 77.037 332.438 78.6878 331.496 79.7822L326.913 85.1069C325.971 86.2013 324.32 86.3248 323.226 85.3828C322.131 84.4408 322.008 82.7899 322.95 81.6955ZM333.037 80.4498L330.418 83.4924C329.476 84.5868 329.6 86.2377 330.694 87.1797C331.788 88.1217 333.439 87.9981 334.381 86.9038L337 83.8611C337.942 82.7667 337.819 81.1159 336.724 80.1738C335.63 79.2318 333.979 79.3554 333.037 80.4498ZM355.154 40.0707L370.802 57.3836L368.762 59.2129C368.638 59.3235 368.449 59.3131 368.338 59.1898L353.16 42.2614C353.049 42.1381 353.059 41.9484 353.183 41.8378L355.154 40.0707Z" fill="#EE2A7B"/>
</svg>
