<svg width="520" height="110" viewBox="0 0 520 110" fill="none" xmlns="http://www.w3.org/2000/svg">
<path d="M492 68.5C492 85.897 477.897 100 460.5 100C443.103 100 429 85.897 429 68.5C429 51.103 443.103 37 460.5 37C477.897 37 492 51.103 492 68.5Z" fill="#FFE7FA"/>
<circle cx="422" cy="25" r="12" fill="#FFE7FA"/>
<circle cx="491.5" cy="57.5" r="7" stroke="#FF71CF"/>
<circle cx="471.5" cy="16.5" r="4" stroke="#FF71CF"/>
<path d="M405.332 83.4061L406.593 84.4209C407.099 84.8283 407.81 84.8633 408.354 84.5077L409.709 83.6218C410.114 83.3567 410.622 83.7653 410.45 84.218L409.875 85.7311C409.644 86.3385 409.83 87.0255 410.336 87.4329L411.597 88.4478C411.975 88.7514 411.743 89.3605 411.259 89.3367L409.643 89.257C408.993 89.225 408.398 89.6146 408.167 90.222L407.591 91.7351C407.419 92.1878 406.768 92.1557 406.641 91.6883L406.218 90.1259C406.047 89.4988 405.493 89.0525 404.844 89.0205L403.227 88.9408C402.743 88.917 402.572 88.288 402.978 88.0229L404.333 87.137C404.877 86.7814 405.13 86.116 404.96 85.4889L404.536 83.9265C404.409 83.4591 404.954 83.1024 405.332 83.4061Z" stroke="#FF71CF"/>
<path d="M402.389 34.5983C403.683 49.9468 418.795 56.0897 425.206 50.0226C434.634 41.1003 432.141 26.7812 424.337 26.1846C417.953 25.6965 414.994 33.9921 420.399 39.5633C424.55 43.8418 433.008 47.7036 443.383 46.9271" stroke="#EE2A7B" stroke-dasharray="2 2"/>
<path d="M437.62 60.2578C438.696 66.6724 444.275 71.5601 450.995 71.5601C457.716 71.5601 463.294 66.6724 464.371 60.2578" stroke="#EE2A7B" stroke-width="3" stroke-linecap="round"/>
<path d="M475.491 59.1281C475.491 72.6565 464.524 83.6234 450.995 83.6234C437.467 83.6234 426.5 72.6565 426.5 59.1281C426.5 45.5997 437.467 34.6328 450.995 34.6328C464.524 34.6328 475.491 45.5997 475.491 59.1281Z" stroke="#EE2A7B" stroke-width="3"/>
<path d="M447.605 51.78C447.605 49.5953 445.834 47.8242 443.649 47.8242C441.464 47.8242 439.693 49.5953 439.693 51.78" stroke="#EE2A7B" stroke-width="3" stroke-linecap="round"/>
<path d="M462.297 51.78C462.297 49.5953 460.526 47.8242 458.342 47.8242C456.157 47.8242 454.386 49.5953 454.386 51.78" stroke="#EE2A7B" stroke-width="3" stroke-linecap="round"/>
<path d="M469.42 31.293L468.666 26.8354" stroke="#EE2A7B" stroke-width="3" stroke-linecap="round"/>
<path d="M475.94 34.0938L478.88 30.6588" stroke="#EE2A7B" stroke-width="3" stroke-linecap="round"/>
<path d="M482.631 40.2266L478.121 39.9157" stroke="#EE2A7B" stroke-width="3" stroke-linecap="round"/>
<g clip-path="url(#clip0_902_131468)">
<path d="M354 55.5195C354 74.8495 338.33 90.5195 319 90.5195C299.67 90.5195 284 74.8495 284 55.5195C284 36.1896 299.67 20.5195 319 20.5195C338.33 20.5195 354 36.1896 354 55.5195Z" fill="#E1F6FF"/>
<circle cx="281" cy="20.5195" r="9" fill="#E1F6FF"/>
<circle cx="367.5" cy="38.0195" r="7" stroke="#4FAFE4"/>
<circle cx="319" cy="18.5195" r="2.5" stroke="#4FAFE4"/>
<path d="M270.475 86.157L276.568 78.7081L279.972 87.7088L270.475 86.157Z" stroke="#4FAFE4"/>
<path d="M288.978 72.8644C283.362 68.6771 278.933 62.7812 276.575 55.6224C270.475 37.1029 280.542 17.1446 299.062 11.0444C317.581 4.94415 337.54 15.0119 343.64 33.5314C344.896 37.344 345.466 41.2175 345.419 45.0186" stroke="#407AEC" stroke-dasharray="4 4"/>
<path fill-rule="evenodd" clip-rule="evenodd" d="M340.415 41.8704C337.096 38.5509 331.714 38.5509 328.394 41.8704L326.242 44.0227L328.363 46.144L330.516 43.9917C332.664 41.8438 336.146 41.8438 338.294 43.9917L351.79 57.4873C353.937 59.6352 353.937 63.1176 351.79 65.2655L334.18 82.8753L334.18 82.8758L327.077 89.9789C326.048 91.0082 324.379 91.0082 323.35 89.9789C322.326 88.9549 322.32 87.298 323.334 86.2674L323.35 86.2514L332.959 76.6427L330.837 74.5214L330.837 74.5215L330.837 74.5214L321.228 84.1301L321.213 84.146C320.182 85.1593 318.525 85.154 317.501 84.1301C316.483 83.1115 316.472 81.4667 317.469 80.4351L317.502 80.4031L327.11 70.7944L327.11 70.794L327.11 70.7939L324.989 68.6726L315.38 78.2813L315.348 78.3137C314.316 79.311 312.671 79.3004 311.653 78.2818C310.623 77.2525 310.623 75.5837 311.653 74.5544L321.261 64.9457L321.26 64.944L321.261 64.9431L319.139 62.8217L309.531 72.4304C308.501 73.4597 306.833 73.4597 305.803 72.4304C304.774 71.4011 304.774 69.7323 305.803 68.703L312.905 61.6008C312.906 61.6014 312.906 61.6014 312.906 61.6014L312.906 61.6012L312.907 61.6008L312.907 61.6003L312.908 61.5997L312.909 61.5989L312.91 61.5979L312.911 61.5968L312.912 61.5956L312.913 61.5942L312.915 61.5927L312.917 61.591L312.918 61.5892L312.92 61.5873L312.922 61.5852L312.925 61.5829L312.927 61.5806L312.929 61.578L312.932 61.5754L312.935 61.5726L312.938 61.5697L312.941 61.5666L312.944 61.5634L312.947 61.56L312.951 61.5565L312.955 61.5529L312.958 61.5492L312.962 61.5453L312.966 61.5412L312.97 61.5371L312.975 61.5328L312.979 61.5283L312.984 61.5238L312.988 61.5191L312.993 61.5142L312.998 61.5093L313.003 61.5042L313.009 61.4989L313.014 61.4936L313.019 61.4881L313.025 61.4824L313.031 61.4767L313.037 61.4708L313.043 61.4648L313.049 61.4586L313.055 61.4524L313.062 61.446L313.068 61.4394L313.075 61.4328L313.082 61.426L313.088 61.4191L313.095 61.412L313.103 61.4049L313.11 61.3976L313.117 61.3902L313.125 61.3826L313.133 61.375L313.14 61.3672L313.148 61.3593L313.156 61.3512L313.164 61.3431L313.173 61.3348L313.181 61.3264L313.19 61.3179L313.198 61.3093L313.207 61.3005L313.216 61.2916L313.225 61.2826L313.234 61.2735L313.243 61.2643L313.253 61.2549L313.262 61.2454L313.272 61.2358L313.281 61.2261L313.291 61.2163L313.301 61.2064L313.311 61.1963L313.321 61.1861L313.332 61.1759L313.342 61.1655L313.353 61.1549L313.363 61.1443L313.374 61.1336L313.385 61.1227L313.396 61.1117L313.407 61.1007L313.418 61.0895L313.429 61.0782L313.441 61.0668L313.452 61.0552L313.464 61.0436L313.476 61.0319L313.488 61.02L313.499 61.008L313.512 60.996L313.524 60.9838L313.536 60.9715L313.548 60.9591L313.561 60.9466L313.574 60.934L313.586 60.9213L313.599 60.9085L313.612 60.8956L313.625 60.8825L313.638 60.8694L313.651 60.8562L313.665 60.8428L313.678 60.8294L313.692 60.8159L313.705 60.8022L313.719 60.7885L313.733 60.7746L313.747 60.7607L313.761 60.7466L313.775 60.7325L313.789 60.7182L313.804 60.7039L313.818 60.6894L313.833 60.6749L313.847 60.6602L313.862 60.6455L313.877 60.6307L313.892 60.6157L313.907 60.6007L313.922 60.5856L313.937 60.5703L313.952 60.555L313.968 60.5396L313.983 60.5241L313.999 60.5085L314.015 60.4928L314.03 60.477L314.046 60.4612L314.062 60.4452L314.078 60.4291L314.095 60.413L314.111 60.3967L314.127 60.3804L314.144 60.364L314.16 60.3474L314.177 60.3308L314.193 60.3142L314.21 60.2974L314.227 60.2805L314.244 60.2635L314.261 60.2465L314.278 60.2294L314.295 60.2122L314.313 60.1949L314.33 60.1775L314.348 60.16L314.365 60.1424L314.383 60.1248L314.4 60.1071L314.418 60.0893L314.436 60.0714L314.454 60.0534L314.472 60.0353L314.49 60.0172L314.509 59.999L314.527 59.9807L314.545 59.9623L314.564 59.9438L314.582 59.9253L314.601 59.9067L314.62 59.888L314.638 59.8692L314.657 59.8503L314.676 59.8314L314.695 59.8124L314.714 59.7933L314.733 59.7741L314.753 59.7549L314.772 59.7356L314.791 59.7162L314.811 59.6967L314.83 59.6772L314.85 59.6576L314.87 59.6379L314.889 59.6181L314.909 59.5983L314.929 59.5784L314.949 59.5584L314.969 59.5384L314.989 59.5182L315.009 59.4981L315.03 59.4778L315.05 59.4575L315.07 59.4371L315.091 59.4166L315.111 59.3961L315.132 59.3755L315.153 59.3548L315.173 59.3341L315.194 59.3132L315.215 59.2924L315.236 59.2714L315.257 59.2504L315.278 59.2294L315.299 59.2082L315.32 59.187L315.342 59.1658L315.363 59.1444L315.384 59.1231L315.406 59.1016L315.427 59.0801L315.449 59.0585L315.471 59.0369L315.492 59.0152L315.514 58.9934L315.536 58.9716L315.558 58.9497L315.58 58.9278L315.602 58.9058L315.624 58.8837L315.646 58.8616L315.668 58.8395L315.69 58.8172L315.713 58.795L315.735 58.7726L315.757 58.7502L315.78 58.7278L315.802 58.7053L315.825 58.6827L315.847 58.6601L315.87 58.6374L315.893 58.6147L315.916 58.5919L315.938 58.5691L315.961 58.5462L315.984 58.5233L316.007 58.5003L316.03 58.4772L316.053 58.4541L316.077 58.431L316.1 58.4078L316.123 58.3846L316.146 58.3613L316.17 58.338L316.193 58.3146L316.216 58.2912L316.24 58.2677L316.263 58.2441L316.287 58.2206L316.311 58.197L316.334 58.1733L316.358 58.1496L316.382 58.1258L316.405 58.102L316.429 58.0782L316.453 58.0543L316.477 58.0304L316.501 58.0064L316.525 57.9824L316.549 57.9584L316.573 57.9343L316.597 57.9101L316.622 57.8859L316.646 57.8617L316.67 57.8375L316.694 57.8132L316.719 57.7888L316.743 57.7645L316.767 57.74L316.792 57.7156L316.816 57.6911L316.841 57.6666L316.866 57.642L316.89 57.6174L316.915 57.5928L316.939 57.5681L316.964 57.5434L316.989 57.5187L317.014 57.4939L317.038 57.4691L317.063 57.4443L317.088 57.4194L317.113 57.3945L317.138 57.3695L317.163 57.3446L317.188 57.3196L317.213 57.2946L317.238 57.2695L317.263 57.2444L317.288 57.2193L317.313 57.1941L317.339 57.169L317.364 57.1438L317.389 57.1185L317.414 57.0933L317.44 57.068L317.465 57.0427L317.49 57.0173L317.516 56.992L317.541 56.9666L317.566 56.9412L317.592 56.9157L317.617 56.8902L317.643 56.8648L317.668 56.8393L317.694 56.8137L317.719 56.7882L317.745 56.7626L317.771 56.737L317.796 56.7114L317.822 56.6857L317.847 56.6601L317.873 56.6344L317.899 56.6087L317.925 56.583L317.95 56.5572L317.976 56.5315L318.002 56.5057L318.028 56.4799L318.053 56.4541L318.079 56.4283L318.105 56.4024L318.131 56.3766L318.157 56.3507L318.183 56.3248L318.209 56.2989L318.235 56.273L318.26 56.247L318.286 56.2211L318.312 56.1951L318.338 56.1692L318.364 56.1432L318.39 56.1172L318.416 56.0912L318.442 56.0652L318.468 56.0392L318.494 56.0131L318.52 55.9871L318.546 55.961L318.573 55.935L318.599 55.9089L318.625 55.8828L318.651 55.8567L318.677 55.8306L318.703 55.8045L318.729 55.7784L318.755 55.7523L318.781 55.7262L318.807 55.7001L318.834 55.674L318.86 55.6478L318.886 55.6217L318.912 55.5956L318.938 55.5694L318.964 55.5433L318.99 55.5171L319.017 55.491L319.043 55.4648L319.069 55.4387L319.095 55.4125L319.121 55.3864L319.147 55.3602L319.173 55.3341L319.2 55.3079L319.226 55.2818L319.252 55.2557L319.278 55.2295L319.304 55.2034L319.33 55.1772L319.356 55.1511L319.383 55.125L319.409 55.0989L319.435 55.0727L319.461 55.0466L319.487 55.0205L319.513 54.9944L319.539 54.9683L319.565 54.9423L319.591 54.9162L319.617 54.8901L319.643 54.864L319.67 54.838L319.696 54.812L319.722 54.7859L319.748 54.7599L319.774 54.7339L319.8 54.7079L319.826 54.6819L319.852 54.6559L319.878 54.6299L319.904 54.604L319.929 54.578L319.955 54.5521L319.981 54.5262L320.007 54.5003L320.033 54.4744L320.059 54.4485L320.085 54.4227L320.111 54.3968L320.137 54.371L320.162 54.3452L320.188 54.3194L320.214 54.2936L320.24 54.2679L320.265 54.2421L320.291 54.2164L320.317 54.1907L320.342 54.165L320.368 54.1394L320.394 54.1137L320.419 54.0881L320.445 54.0625L320.471 54.037L320.496 54.0114L320.522 53.9859L320.547 53.9604L320.573 53.9349L320.598 53.9094L320.624 53.884L320.649 53.8586L320.674 53.8332L320.7 53.8078L320.725 53.7825L320.75 53.7572L320.776 53.7319L320.801 53.7066L320.826 53.6814L320.851 53.6562L320.877 53.631L320.902 53.6059L320.927 53.5807L320.952 53.5557L320.977 53.5306L321.002 53.5056L321.027 53.4806L321.052 53.4556L321.077 53.4307L321.102 53.4058L321.127 53.3809L321.151 53.3561L321.176 53.3313L321.201 53.3065L321.226 53.2818L321.25 53.2571L321.275 53.2324L321.3 53.2078L321.324 53.1832L321.349 53.1586L321.373 53.1341L321.398 53.1096L321.422 53.0852L321.447 53.0608L321.471 53.0364L321.495 53.012L321.52 52.9878L321.544 52.9635L321.568 52.9393L321.592 52.9151L321.617 52.891L321.641 52.8669L321.665 52.8428L321.689 52.8188L321.713 52.7949L321.737 52.7709L321.76 52.7471L321.784 52.7232L321.808 52.6994L321.832 52.6757L321.856 52.652L321.879 52.6283L321.903 52.6047L321.926 52.5811L321.95 52.5576L321.973 52.5341L321.997 52.5107L322.02 52.4873L322.044 52.464L322.067 52.4407L322.09 52.4175L322.113 52.3943L322.136 52.3712L322.159 52.3481L322.182 52.3251L322.205 52.3021L322.228 52.2791L322.251 52.2563L322.274 52.2334L322.297 52.2107L322.32 52.1879L322.342 52.1653L322.365 52.1427L322.387 52.1201L322.41 52.0976L322.432 52.0752L322.455 52.0528L322.477 52.0304L322.499 52.0081L322.522 51.9859L322.544 51.9638L322.566 51.9416L322.588 51.9196L322.61 51.8976L322.632 51.8757L322.654 51.8538L322.676 51.832L322.697 51.8102L322.719 51.7885L322.741 51.7669L322.762 51.7453L322.784 51.7238L322.805 51.7024L322.827 51.681L322.848 51.6597L322.869 51.6384L322.89 51.6172L322.911 51.5961L322.932 51.575L320.811 49.4537L320.79 49.4748L320.769 49.4959L320.748 49.5171L320.727 49.5384L320.705 49.5597L320.684 49.5811L320.662 49.6025L320.641 49.624L320.619 49.6456L320.598 49.6672L320.576 49.6889L320.554 49.7107L320.532 49.7325L320.511 49.7544L320.489 49.7763L320.467 49.7983L320.445 49.8203L320.422 49.8424L320.4 49.8646L320.378 49.8868L320.356 49.9091L320.333 49.9314L320.311 49.9538L320.289 49.9763L320.266 49.9988L320.244 50.0213L320.221 50.044L320.198 50.0666L320.176 50.0893L320.153 50.1121L320.13 50.1349L320.107 50.1578L320.084 50.1807L320.061 50.2037L320.038 50.2268L320.015 50.2498L319.992 50.273L319.969 50.2962L319.945 50.3194L319.922 50.3427L319.899 50.366L319.875 50.3894L319.852 50.4128L319.829 50.4363L319.805 50.4598L319.782 50.4834L319.758 50.507L319.734 50.5306L319.711 50.5544L319.687 50.5781L319.663 50.6019L319.639 50.6257L319.615 50.6496L319.591 50.6735L319.567 50.6975L319.543 50.7215L319.519 50.7456L319.495 50.7697L319.471 50.7938L319.447 50.818L319.423 50.8422L319.398 50.8664L319.374 50.8907L319.35 50.9151L319.325 50.9394L319.301 50.9638L319.277 50.9883L319.252 51.0128L319.228 51.0373L319.203 51.0619L319.178 51.0865L319.154 51.1111L319.129 51.1357L319.104 51.1604L319.08 51.1852L319.055 51.21L319.03 51.2348L319.005 51.2596L318.98 51.2845L318.956 51.3094L318.931 51.3343L318.906 51.3593L318.881 51.3843L318.856 51.4093L318.831 51.4343L318.805 51.4594L318.78 51.4845L318.755 51.5097L318.73 51.5349L318.705 51.5601L318.68 51.5853L318.654 51.6106L318.629 51.6358L318.604 51.6612L318.578 51.6865L318.553 51.7119L318.528 51.7372L318.502 51.7627L318.477 51.7881L318.451 51.8136L318.426 51.839L318.4 51.8645L318.375 51.8901L318.349 51.9156L318.324 51.9412L318.298 51.9668L318.272 51.9924L318.247 52.0181L318.221 52.0437L318.195 52.0694L318.17 52.0951L318.144 52.1208L318.118 52.1466L318.093 52.1723L318.067 52.1981L318.041 52.2239L318.015 52.2497L317.989 52.2755L317.964 52.3014L317.938 52.3272L317.912 52.3531L317.886 52.379L317.86 52.4049L317.834 52.4308L317.808 52.4567L317.782 52.4827L317.756 52.5086L317.73 52.5346L317.704 52.5606L317.678 52.5866L317.652 52.6126L317.626 52.6386L317.6 52.6646L317.574 52.6906L317.548 52.7167L317.522 52.7427L317.496 52.7688L317.47 52.7949L317.444 52.8209L317.418 52.847L317.392 52.8731L317.366 52.8992L317.34 52.9253L317.313 52.9514L317.287 52.9775L317.261 53.0037L317.235 53.0298L317.209 53.0559L317.183 53.0821L317.157 53.1082L317.131 53.1343L317.104 53.1605L317.078 53.1866L317.052 53.2128L317.026 53.2389L317 53.2651L316.974 53.2912L316.948 53.3174L316.921 53.3435L316.895 53.3697L316.869 53.3958L316.843 53.422L316.817 53.4481L316.791 53.4742L316.765 53.5004L316.738 53.5265L316.712 53.5526L316.686 53.5788L316.66 53.6049L316.634 53.631L316.608 53.6571L316.582 53.6832L316.556 53.7093L316.529 53.7354L316.503 53.7615L316.477 53.7876L316.451 53.8136L316.425 53.8397L316.399 53.8658L316.373 53.8918L316.347 53.9178L316.321 53.9439L316.295 53.9699L316.269 53.9959L316.243 54.0219L316.217 54.0479L316.191 54.0738L316.165 54.0998L316.139 54.1257L316.113 54.1517L316.087 54.1776L316.061 54.2035L316.036 54.2294L316.01 54.2552L315.984 54.2811L315.958 54.3069L315.932 54.3328L315.906 54.3586L315.881 54.3844L315.855 54.4101L315.829 54.4359L315.803 54.4616L315.778 54.4874L315.752 54.5131L315.726 54.5387L315.7 54.5644L315.675 54.59L315.649 54.6157L315.624 54.6413L315.598 54.6668L315.572 54.6924L315.547 54.7179L315.521 54.7434L315.496 54.7689L315.47 54.7944L315.445 54.8198L315.42 54.8452L315.394 54.8706L315.369 54.896L315.344 54.9213L315.318 54.9467L315.293 54.9719L315.268 54.9972L315.242 55.0224L315.217 55.0476L315.192 55.0728L315.167 55.098L315.142 55.1231L315.117 55.1482L315.092 55.1732L315.067 55.1983L315.042 55.2233L315.017 55.2482L314.992 55.2732L314.967 55.2981L314.942 55.3229L314.917 55.3478L314.892 55.3726L314.868 55.3974L314.843 55.4221L314.818 55.4468L314.793 55.4715L314.769 55.4961L314.744 55.5207L314.72 55.5453L314.695 55.5698L314.671 55.5943L314.646 55.6187L314.622 55.6431L314.597 55.6675L314.573 55.6918L314.549 55.7161L314.524 55.7404L314.5 55.7646L314.476 55.7888L314.452 55.8129L314.428 55.837L314.404 55.8611L314.38 55.8851L314.356 55.9091L314.332 55.933L314.308 55.9569L314.284 55.9807L314.26 56.0045L314.237 56.0283L314.213 56.052L314.189 56.0756L314.166 56.0993L314.142 56.1228L314.119 56.1464L314.095 56.1698L314.072 56.1933L314.048 56.2166L314.025 56.24L314.002 56.2633L313.978 56.2865L313.955 56.3097L313.932 56.3328L313.909 56.3559L313.886 56.3789L313.863 56.4019L313.84 56.4249L313.817 56.4478L313.794 56.4706L313.772 56.4934L313.749 56.5161L313.726 56.5388L313.704 56.5614L313.681 56.5839L313.658 56.6064L313.636 56.6289L313.614 56.6513L313.591 56.6736L313.569 56.6959L313.547 56.7181L313.525 56.7403L313.502 56.7624L313.48 56.7845L313.458 56.8065L313.436 56.8284L313.415 56.8503L313.393 56.8721L313.371 56.8939L313.349 56.9156L313.328 56.9372L313.306 56.9588L313.291 56.9736L313.291 56.973L303.682 66.5817C301.481 68.7825 301.481 72.3509 303.682 74.5518C304.838 75.7077 306.371 76.2565 307.885 76.1982C307.826 77.7129 308.375 79.2468 309.531 80.4031C310.687 81.5587 312.22 82.1076 313.733 82.0496C313.676 83.5633 314.224 85.0958 315.38 86.2514C316.536 87.407 318.068 87.9558 319.582 87.8979C319.524 89.4117 320.073 90.9445 321.228 92.1002C323.429 94.3011 326.998 94.3011 329.199 92.1002L338.807 82.4915L338.807 82.491L353.911 67.3868C357.23 64.0673 357.23 58.6854 353.911 55.366L340.415 41.8704Z" fill="#2E68DC"/>
<path fill-rule="evenodd" clip-rule="evenodd" d="M326.92 43.4128C323.21 39.7028 317.195 39.7028 313.485 43.4128L304.542 52.3559C301.406 55.4918 301.406 60.5762 304.542 63.7121L306.663 61.5908C304.699 59.6265 304.699 56.4416 306.663 54.4772L315.606 45.5341C318.144 42.9957 322.26 42.9957 324.798 45.5341L325.408 46.1437L325.408 46.1437L334.181 54.9169C335.21 55.9462 335.21 57.615 334.181 58.6443C333.152 59.6736 331.483 59.6736 330.454 58.6443L320.845 49.0356L318.724 51.157L328.332 60.7657C330.533 62.9665 334.101 62.9665 336.302 60.7656C338.503 58.5648 338.503 54.9964 336.302 52.7956L332.96 49.4535L332.96 49.4535L326.92 43.4128Z" fill="#2E68DC"/>
</g>
<path d="M220 49.5195C220 68.8495 204.33 84.5195 185 84.5195C165.67 84.5195 150 68.8495 150 49.5195C150 30.1896 165.67 14.5195 185 14.5195C204.33 14.5195 220 30.1896 220 49.5195Z" fill="#D0F7D7"/>
<circle cx="227" cy="91.5195" r="12" fill="#D0F6D7"/>
<circle cx="137.5" cy="65.0195" r="7" stroke="#5AB388"/>
<circle cx="189" cy="18.5195" r="2.5" stroke="#5AB388"/>
<path d="M230.631 30.9343L242.546 28.0615L239.077 39.8166L230.631 30.9343Z" stroke="#5AB388"/>
<path d="M215.842 93.2204C209.181 95.3878 201.81 95.5993 194.603 93.3909C175.96 87.6781 165.479 67.934 171.192 49.2914C176.905 30.6488 196.649 20.1671 215.291 25.88C219.129 27.0561 222.621 28.8268 225.697 31.0602" stroke="#257A4C" stroke-dasharray="4 4"/>
<path d="M186.536 33.834L195.411 43.7829C196.129 44.5877 197.178 45.0166 198.254 44.9454L211.557 44.065C211.956 44.0385 212.223 44.4698 212.021 44.8159L205.302 56.3306C204.758 57.2621 204.674 58.3922 205.075 59.3937L210.023 71.7733C210.172 72.1455 209.844 72.5326 209.452 72.4475L196.425 69.615C195.371 69.3859 194.27 69.6554 193.441 70.3456L183.197 78.877C182.889 79.1335 182.419 78.9415 182.379 78.5428L181.047 65.2776C180.94 64.2044 180.343 63.2409 179.431 62.666L168.151 55.5591C167.812 55.3454 167.849 54.8396 168.216 54.6783L180.421 49.3124C181.408 48.8783 182.14 48.0133 182.405 46.9678L185.678 34.0441C185.777 33.6555 186.269 33.5349 186.536 33.834Z" stroke="#2E9167" stroke-width="3"/>
<path d="M166.615 37.9766L174.175 42.5622" stroke="#2E9167" stroke-width="3" stroke-linecap="round"/>
<path d="M199.48 87.6523L197.377 79.0641" stroke="#2E9167" stroke-width="3" stroke-linecap="round"/>
<path d="M205.262 28.5117L200.676 36.0717" stroke="#2E9167" stroke-width="3" stroke-linecap="round"/>
<path d="M166.412 73.1289L173.618 68.0043" stroke="#2E9167" stroke-width="3" stroke-linecap="round"/>
<path d="M221.775 59.5703L213.017 58.3549" stroke="#2E9167" stroke-width="3" stroke-linecap="round"/>
<path d="M116 63C116 82.33 100.33 98 81 98C61.67 98 46 82.33 46 63C46 43.67 61.67 28 81 28C100.33 28 116 43.67 116 63Z" fill="#EEE7FF"/>
<circle cx="28.5" cy="21.5" r="9.5" fill="#EEE7FF"/>
<circle cx="24.5" cy="47.5" r="3" stroke="#875EFF"/>
<circle cx="107.5" cy="26.5" r="5" stroke="#875EFF"/>
<path fill-rule="evenodd" clip-rule="evenodd" d="M98.6823 49.3787C99.2799 49.1664 99.9004 48.9824 100.553 48.8294L100.325 47.8558C99.6355 48.0174 98.9795 48.2119 98.3476 48.4363L98.6823 49.3787ZM102.477 48.4836C102.794 48.4429 103.119 48.4087 103.453 48.3812C103.748 48.3569 104.041 48.3438 104.33 48.3413L104.321 47.3413C104.008 47.344 103.691 47.3583 103.371 47.3846C103.022 47.4132 102.682 47.449 102.35 47.4917L102.477 48.4836ZM95.1473 51.0551C95.7187 50.7201 96.2925 50.4108 96.8796 50.13L96.4481 49.2279C95.832 49.5226 95.2333 49.8455 94.6415 50.1925L95.1473 51.0551ZM106.076 48.4577C106.658 48.5408 107.228 48.6672 107.788 48.8335L108.073 47.8749C107.468 47.6952 106.85 47.558 106.218 47.4677L106.076 48.4577ZM91.8298 53.2356C92.3895 52.8411 92.9337 52.4643 93.4719 52.1071L92.9188 51.2739C92.3699 51.6383 91.8174 52.021 91.2537 52.4182L91.8298 53.2356ZM109.436 49.4486C109.968 49.6878 110.49 49.9626 111.002 50.2698L111.516 49.412C110.972 49.0861 110.416 48.793 109.847 48.5367L109.436 49.4486ZM89.3769 54.9803C89.6553 54.7832 89.9284 54.5888 90.1968 54.3974L89.6161 53.5832C89.3481 53.7744 89.0761 53.968 88.7992 54.1641L89.3769 54.9803ZM112.479 51.2595C112.949 51.6088 113.412 51.9844 113.867 52.3834L114.526 51.6318C114.053 51.2162 113.569 50.8232 113.075 50.4564L112.479 51.2595ZM115.173 53.6128C115.59 54.0326 116.001 54.4708 116.404 54.9247L117.152 54.2604C116.737 53.7936 116.313 53.3417 115.882 52.9076L115.173 53.6128ZM118.662 56.0655L119.644 55.1268L120.248 58.6998L116.705 57.9356L117.936 56.7595C117.815 56.6057 117.693 56.453 117.57 56.3016L118.348 55.6726C118.453 55.8027 118.558 55.9337 118.662 56.0655Z" fill="#875EFF"/>
<path fill-rule="evenodd" clip-rule="evenodd" d="M80.7361 44.3467C80.885 43.7302 81.0701 43.11 81.2987 42.4798L80.3586 42.1388C80.1172 42.8044 79.9215 43.4601 79.7641 44.1118L80.7361 44.3467ZM82.0606 40.6798C82.1998 40.3921 82.3489 40.1011 82.5085 39.8063C82.6495 39.5458 82.7983 39.2938 82.9543 39.0502L82.1123 38.5108C81.9429 38.7751 81.7818 39.0482 81.6291 39.3302C81.4624 39.638 81.3064 39.9425 81.1604 40.2443L82.0606 40.6798ZM80.2079 48.2232C80.2396 47.5616 80.2943 46.912 80.38 46.2669L79.3887 46.1352C79.2988 46.8121 79.2419 47.49 79.209 48.1753L80.2079 48.2232ZM84.0063 37.6515C84.3938 37.2098 84.8115 36.8012 85.2567 36.4234L84.6096 35.661C84.1283 36.0694 83.6755 36.5122 83.2546 36.992L84.0063 37.6515ZM80.2206 52.1931C80.1961 51.5088 80.178 50.8471 80.173 50.2012L79.1731 50.2089C79.1782 50.8678 79.1966 51.5396 79.2212 52.2287L80.2206 52.1931ZM86.6725 35.3795C87.1633 35.0652 87.6787 34.7783 88.2163 34.5168L87.7788 33.6175C87.2087 33.8949 86.659 34.2006 86.1333 34.5373L86.6725 35.3795ZM80.3409 55.2007C80.328 54.8599 80.3145 54.525 80.3009 54.1956L79.3017 54.2369C79.3153 54.5657 79.3288 54.8993 79.3416 55.2384L80.3409 55.2007ZM89.8519 33.8215C90.4017 33.6181 90.9691 33.436 91.5518 33.2734L91.2829 32.3102C90.6761 32.4796 90.0826 32.67 89.5051 32.8835L89.8519 33.8215ZM93.2951 32.8518C93.8749 32.7316 94.4661 32.6274 95.0669 32.5375L94.919 31.5485C94.3014 31.6409 93.6916 31.7483 93.092 31.8726L93.2951 32.8518ZM97.2561 31.2704L97.0068 29.9349L100.329 31.3824L97.7528 33.9309L97.4405 32.2578C97.2454 32.2752 97.051 32.2937 96.8573 32.3136L96.7555 31.3188C96.9219 31.3017 97.0889 31.2856 97.2561 31.2704Z" fill="#875EFF"/>
<path fill-rule="evenodd" clip-rule="evenodd" d="M49.087 50.3617C48.5122 50.191 47.921 50.0457 47.3135 49.9292L47.5019 48.9471C48.1426 49.0699 48.766 49.2232 49.3716 49.403L49.087 50.3617ZM45.5059 49.6754C45.2057 49.6484 44.902 49.6286 44.5947 49.6162C44.2885 49.604 43.986 49.6002 43.6873 49.6046L43.6726 48.6047C43.9895 48.6001 44.3103 48.604 44.6347 48.617C44.9586 48.63 45.2789 48.6509 45.5954 48.6794L45.5059 49.6754ZM52.4706 51.7299C51.9361 51.4537 51.3826 51.1976 50.8104 50.9657L51.186 50.0389C51.7877 50.2827 52.3691 50.5518 52.9297 50.8415L52.4706 51.7299ZM41.8793 49.733C41.2684 49.8114 40.6748 49.9236 40.0987 50.0657L39.8593 49.0948C40.4716 48.9438 41.1026 48.8244 41.752 48.7411L41.8793 49.733ZM55.5671 53.6854C55.0869 53.3233 54.5843 52.9738 54.0598 52.642L54.5945 51.7969C55.1431 52.144 55.6681 52.5092 56.1691 52.8869L55.5671 53.6854ZM38.3671 50.5978C37.7922 50.8102 37.237 51.0518 36.7019 51.3177L36.2569 50.4222C36.8227 50.141 37.4107 49.8851 38.0205 49.6598L38.3671 50.5978ZM58.3199 56.115C57.9041 55.6886 57.4605 55.264 56.9895 54.848L57.6516 54.0986C58.1419 54.5317 58.6035 54.9734 59.0359 55.4168L58.3199 56.115ZM35.1166 52.2088C34.596 52.5365 34.0981 52.8857 33.6232 53.2508L33.0138 52.4579C33.5121 52.0749 34.0356 51.7077 34.5839 51.3625L35.1166 52.2088ZM60.6827 58.9268C60.3464 58.4581 59.9698 57.9712 59.5537 57.4766L60.3189 56.8328C60.7517 57.3473 61.1441 57.8545 61.4951 58.3437L60.6827 58.9268ZM62.1187 61.2509C61.9934 61.004 61.8483 60.7385 61.6834 60.4577L62.5456 59.9512C62.7201 60.2483 62.8752 60.5318 63.0105 60.7985L62.1187 61.2509ZM32.2259 54.4261C31.7667 54.8474 31.3348 55.2799 30.9309 55.7163L30.197 55.0371C30.6185 54.5816 31.0696 54.1298 31.55 53.6891L32.2259 54.4261ZM29.7428 57.1068C29.3464 57.6097 28.9883 58.107 28.669 58.5873L27.8362 58.0339C28.17 57.5314 28.544 57.0122 28.9575 56.4878L29.7428 57.1068ZM29.1953 60.7525L25.9058 62.2725L25.7139 58.6539L29.1953 60.7525Z" fill="#875EFF"/>
<path d="M40.8109 82.5494L38.8123 89.3209C38.4854 90.4284 37.0823 90.7667 36.2866 89.9299L31.4216 84.8133C30.6259 83.9765 31.0345 82.5921 32.1571 82.3215L39.0207 80.6666C40.1432 80.3959 41.1378 81.4419 40.8109 82.5494Z" stroke="#D49DFF"/>
<path d="M60.8714 50.5859C54.0821 50.5859 48.6855 55.9825 48.6855 62.7718C48.6855 69.561 54.0821 74.9576 60.8714 74.9576C67.6606 74.9576 73.0572 69.561 73.0572 62.7718C73.0572 55.9825 67.6606 50.5859 60.8714 50.5859ZM60.8714 71.4759C55.997 71.4759 52.1672 67.6461 52.1672 62.7718C52.1672 57.8974 55.997 54.0676 60.8714 54.0676C65.7457 54.0676 69.5756 57.8974 69.5756 62.7718C69.5756 67.6461 65.7457 71.4759 60.8714 71.4759Z" fill="#4E16ED"/>
<path d="M86.3284 56.9721L81.4661 55.4092L80.4241 52.8044L82.8553 48.2894C83.3763 47.2474 83.2026 45.8582 82.3343 44.9899L78.1666 40.8222C77.2983 39.954 75.9091 39.7803 74.8672 40.3013L70.3522 42.7324L67.7473 41.6905L66.1845 36.8282C65.8371 35.7862 64.7952 34.918 63.5796 34.918H57.6754C56.4598 34.918 55.4179 35.7862 55.2442 37.0018L53.6813 41.8642C52.6394 42.0378 51.7711 42.3851 50.9028 42.9061L46.3878 40.4749C45.3459 39.954 43.9567 40.1276 43.0884 40.9959L38.9207 45.1636C38.0524 46.0319 37.8788 47.4211 38.3997 48.463L40.6572 52.8044C40.3099 53.6727 39.9626 54.7146 39.6153 55.5829L34.753 57.1458C33.711 57.4931 32.8428 58.535 32.8428 59.7506V65.6548C32.8428 66.8704 33.711 67.9123 34.9266 68.2596L39.789 69.8225L40.8309 72.4274L38.3997 76.9424C37.8788 77.9843 38.0524 79.3735 38.9207 80.2418L43.0884 84.4095C43.9567 85.2778 45.3459 85.4515 46.3878 84.9305L50.9028 82.4993L53.5077 83.5413L55.0706 88.5772C55.4179 89.6192 56.4598 90.4874 57.6754 90.4874H63.5796C64.7952 90.4874 65.8371 89.6192 66.1845 88.5772L67.7473 83.5413L70.3522 82.4993L74.8672 84.9305C75.9091 85.4515 77.2983 85.2778 78.1666 84.4095L82.3343 80.2418C83.2026 79.3735 83.3763 77.9843 82.8553 76.9424L80.4241 72.4274L81.4661 69.8225L86.502 68.2596C87.544 67.9123 88.4122 66.8704 88.4122 65.6548V59.7506C88.4122 58.535 87.544 57.3194 86.3284 56.9721ZM84.9391 65.1339L78.6876 67.0441L78.5139 67.9123L76.951 71.5591L76.4301 72.4274L79.5559 78.158L76.0828 81.6311L70.3522 78.5053L69.4839 79.0262C68.2683 79.7208 67.0527 80.2418 65.8371 80.5891L64.9689 80.7628L63.0587 87.0143H58.1963L56.2861 80.7628L55.4179 80.5891L51.7711 79.0262L50.9028 78.5053L45.1722 81.6311L41.6992 78.158L44.8249 72.4274L44.304 71.5591C43.6094 70.3435 43.0884 69.1279 42.7411 67.9123L42.5674 67.0441L36.3159 65.1339V60.2715L42.2201 58.535L42.5674 57.6667C42.9147 56.2775 43.4357 55.0619 44.1303 53.8463L44.6513 52.978L41.6992 47.2474L45.1722 43.7744L50.7292 46.9001L51.5975 46.3792C52.8131 45.6846 54.0286 45.1636 55.4179 44.8163L56.2861 44.469L58.1963 38.3911H63.0587L64.9689 44.469L65.8371 44.8163C67.0527 45.1636 68.2683 45.6846 69.4839 46.3792L70.3522 46.9001L76.0828 43.7744L79.5559 47.2474L76.4301 52.978L76.951 53.8463C77.6457 55.0619 78.1666 56.2775 78.5139 57.4931L78.6876 58.3613L84.9391 60.2715V65.1339Z" fill="#4E16ED"/>
<defs>
<clipPath id="clip0_902_131468">
<rect width="130" height="110" fill="white" transform="translate(260)"/>
</clipPath>
</defs>
</svg>
