<svg width="35" height="52" viewBox="0 0 35 52" fill="none" xmlns="http://www.w3.org/2000/svg">
<path d="M2.58929 11.8036L1.80357 11.2321L2.92857 9.375L1 8.57143L1.30357 7.66072L3.33929 8.16072L3.51786 6H4.48214L4.66071 8.14286L6.69643 7.66072L7 8.57143L5.05357 9.375L6.19643 11.2321L5.41071 11.8036L4 10.1071L2.58929 11.8036Z" fill="#4E16ED"/>
<path d="M2.58929 28.8036L1.80357 28.2321L2.92857 26.375L1 25.5714L1.30357 24.6607L3.33929 25.1607L3.51786 23H4.48214L4.66071 25.1429L6.69643 24.6607L7 25.5714L5.05357 26.375L6.19643 28.2321L5.41071 28.8036L4 27.1071L2.58929 28.8036Z" fill="#407AEC"/>
<path d="M2.58929 45.8036L1.80357 45.2321L2.92857 43.375L1 42.5714L1.30357 41.6607L3.33929 42.1607L3.51786 40H4.48214L4.66071 42.1429L6.69643 41.6607L7 42.5714L5.05357 43.375L6.19643 45.2321L5.41071 45.8036L4 44.1071L2.58929 45.8036Z" fill="#EE2A7B"/>
<circle cx="26" cy="43" r="7.5" stroke="#EE2A7B"/>
<rect x="25.1113" y="38.5557" width="2" height="6" fill="#EE2A7B"/>
<path d="M25.1113 45.6667H27.1113V47.6667H25.1113V45.6667Z" fill="#EE2A7B"/>
<circle cx="26" cy="9" r="7.5" stroke="#4E16ED"/>
<rect x="25.1113" y="4.55566" width="2" height="6" fill="#4E16ED"/>
<path d="M25.1113 11.6667H27.1113V13.6667H25.1113V11.6667Z" fill="#4E16ED"/>
<circle cx="26" cy="26" r="7.5" stroke="#407AEC"/>
<rect x="25.1113" y="21.5557" width="2" height="6" fill="#407AEC"/>
<path d="M25.1113 28.6667H27.1113V30.6667H25.1113V28.6667Z" fill="#407AEC"/>
</svg>
