<svg width="300" height="100" viewBox="0 0 300 100" fill="none" xmlns="http://www.w3.org/2000/svg">
<g clip-path="url(#clip0_1102_145720)">
<path d="M286 50C286 70.9868 268.987 88 248 88C227.013 88 210 70.9868 210 50C210 29.0132 227.013 12 248 12C268.987 12 286 29.0132 286 50Z" fill="#FFE7FA"/>
<circle cx="278.5" cy="90.5" r="9.5" fill="#FFE7FA"/>
<circle cx="290.5" cy="45.5" r="7" stroke="#FF71CF"/>
<circle cx="270.5" cy="4.5" r="4" stroke="#FF71CF"/>
<path d="M205.332 82.4041L206.593 83.4189C207.099 83.8263 207.81 83.8613 208.354 83.5057L209.709 82.6198C210.114 82.3548 210.622 82.7633 210.45 83.216L209.875 84.7291C209.644 85.3365 209.83 86.0236 210.336 86.431L211.597 87.4458C211.975 87.7494 211.743 88.3586 211.259 88.3347L209.643 88.2551C208.993 88.2231 208.398 88.6127 208.167 89.2201L207.591 90.7331C207.419 91.1859 206.768 91.1538 206.641 90.6863L206.218 89.124C206.047 88.4968 205.493 88.0505 204.844 88.0185L203.227 87.9389C202.743 87.915 202.572 87.2861 202.978 87.021L204.333 86.1351C204.877 85.7795 205.13 85.1141 204.96 84.4869L204.536 82.9246C204.409 82.4571 204.954 82.1005 205.332 82.4041Z" stroke="#FF71CF"/>
<path d="M204.436 51.5983C205.73 66.9468 220.842 73.0897 227.253 67.0226C236.681 58.1003 234.188 43.7812 226.384 43.1846C220 42.6965 217.041 50.9921 222.446 56.5633C226.597 60.8418 235.055 64.7036 245.43 63.9271" stroke="#EE2A7B" stroke-dasharray="2 2"/>
<path d="M262 48.5V35.4353C262 35.2576 261.965 35.0818 261.897 34.9177C261.829 34.7536 261.73 34.6045 261.604 34.479L254.521 27.396C254.268 27.1428 253.925 27.0003 253.567 27H230.35C229.992 27 229.649 27.1422 229.395 27.3954C229.142 27.6486 229 27.992 229 28.35V67.65C229 68.0081 229.142 68.3514 229.395 68.6046C229.649 68.8578 229.992 69 230.35 69H244.75M238 45H253M238 36H247M238 54H244.75" stroke="#EE2A7B" stroke-width="2" stroke-linecap="round" stroke-linejoin="round"/>
<path d="M253 27V34.65C253 35.008 253.142 35.3514 253.395 35.6046C253.649 35.8578 253.992 36 254.35 36H262" stroke="#EE2A7B" stroke-width="2" stroke-linecap="round" stroke-linejoin="round"/>
<path d="M260.252 50.625C260.424 50.625 260.591 50.6796 260.73 50.7809C260.869 50.8823 260.973 51.0251 261.025 51.1889L261.919 53.966C262.295 54.1496 262.654 54.356 262.997 54.5884L265.85 53.9741C266.018 53.9382 266.194 53.9566 266.351 54.0267C266.508 54.0968 266.639 54.2149 266.724 54.3641L268.977 58.2625C269.063 58.4116 269.099 58.5842 269.081 58.7553C269.062 58.9265 268.99 59.0873 268.874 59.2147L266.916 61.376C266.945 61.7904 266.945 62.2063 266.916 62.6207L268.874 64.7852C268.99 64.9127 269.062 65.0735 269.081 65.2447C269.099 65.4158 269.063 65.5884 268.977 65.7375L266.724 69.6375C266.638 69.7864 266.507 69.9042 266.35 69.974C266.193 70.0438 266.018 70.0619 265.85 70.0259L262.997 69.4116C262.655 69.6424 262.295 69.8504 261.921 70.034L261.025 72.8111C260.973 72.9749 260.869 73.1177 260.73 73.2191C260.591 73.3204 260.424 73.375 260.252 73.375H255.747C255.575 73.375 255.408 73.3204 255.269 73.2191C255.13 73.1177 255.027 72.9749 254.974 72.8111L254.082 70.0356C253.707 69.8526 253.346 69.6435 253.001 69.41L250.149 70.0259C249.981 70.0618 249.806 70.0434 249.649 69.9733C249.491 69.9032 249.361 69.7851 249.275 69.6359L247.023 65.7375C246.937 65.5884 246.9 65.4158 246.919 65.2447C246.937 65.0735 247.009 64.9127 247.125 64.7852L249.083 62.6207C249.055 62.2074 249.055 61.7926 249.083 61.3793L247.125 59.2147C247.009 59.0873 246.937 58.9265 246.919 58.7553C246.9 58.5842 246.937 58.4116 247.023 58.2625L249.275 54.3625C249.361 54.2136 249.492 54.0958 249.649 54.026C249.806 53.9562 249.981 53.9381 250.149 53.9741L253.001 54.59C253.346 54.3576 253.706 54.148 254.082 53.9644L254.976 51.1889C255.028 51.0256 255.131 50.8832 255.269 50.7819C255.407 50.6806 255.574 50.6257 255.746 50.625H260.25H260.252ZM259.657 52.25H256.342L255.419 55.1214L254.797 55.4252C254.491 55.575 254.195 55.7455 253.913 55.9355L253.338 56.3255L250.387 55.6885L248.729 58.5615L250.752 60.8008L250.703 61.4897C250.68 61.8295 250.68 62.1705 250.703 62.5103L250.752 63.1992L248.726 65.4385L250.385 68.3115L253.336 67.6761L253.911 68.0645C254.194 68.2545 254.489 68.425 254.795 68.5747L255.418 68.8786L256.342 71.75H259.66L260.587 68.877L261.207 68.5747C261.513 68.4254 261.808 68.2549 262.09 68.0645L262.663 67.6761L265.616 68.3115L267.274 65.4385L265.249 63.1992L265.298 62.5103C265.321 62.1699 265.321 61.8284 265.298 61.4881L265.249 60.7991L267.275 58.5615L265.616 55.6885L262.663 56.3223L262.09 55.9355C261.808 55.7451 261.513 55.5746 261.207 55.4252L260.587 55.123L259.659 52.25H259.657ZM258 57.125C259.293 57.125 260.533 57.6386 261.447 58.5529C262.361 59.4671 262.875 60.7071 262.875 62C262.875 63.2929 262.361 64.5329 261.447 65.4471C260.533 66.3614 259.293 66.875 258 66.875C256.707 66.875 255.467 66.3614 254.552 65.4471C253.638 64.5329 253.125 63.2929 253.125 62C253.125 60.7071 253.638 59.4671 254.552 58.5529C255.467 57.6386 256.707 57.125 258 57.125ZM258 58.75C257.138 58.75 256.311 59.0924 255.702 59.7019C255.092 60.3114 254.75 61.138 254.75 62C254.75 62.862 255.092 63.6886 255.702 64.2981C256.311 64.9076 257.138 65.25 258 65.25C258.862 65.25 259.688 64.9076 260.298 64.2981C260.907 63.6886 261.25 62.862 261.25 62C261.25 61.138 260.907 60.3114 260.298 59.7019C259.688 59.0924 258.862 58.75 258 58.75Z" fill="#EE2A7B"/>
</g>
<g clip-path="url(#clip1_1102_145720)">
<g clip-path="url(#clip2_1102_145720)">
<path d="M188 50.498C188 71.4849 170.987 88.498 150 88.498C129.013 88.498 112 71.4849 112 50.498C112 29.5112 129.013 12.498 150 12.498C170.987 12.498 188 29.5112 188 50.498Z" fill="#E1F6FF"/>
<circle cx="190.471" cy="20.5176" r="9" fill="#E1F6FF"/>
<circle cx="107.971" cy="80.0176" r="7" stroke="#4FAFE4"/>
<circle cx="153.471" cy="18.5156" r="2.5" stroke="#4FAFE4"/>
<path d="M134.947 96.157L141.039 88.7081L144.444 97.7088L134.947 96.157Z" stroke="#4FAFE4"/>
<path d="M122.448 70.8664C116.832 66.6791 112.404 60.7831 110.045 53.6243C103.945 35.1048 114.013 15.1466 132.533 9.04634C151.052 2.9461 171.01 13.0139 177.11 31.5334C178.366 35.3459 178.937 39.2195 178.89 43.0205" stroke="#407AEC" stroke-dasharray="4 4"/>
<circle cx="149" cy="34.375" r="4" stroke="#407AEC" stroke-width="2"/>
<path d="M157 46.1972V46.1972C157 41.8771 153.498 38.375 149.178 38.375H148.822C144.502 38.375 141 41.8771 141 46.1972V46.1972" stroke="#407AEC" stroke-width="2" stroke-linecap="round"/>
<circle cx="138" cy="48.375" r="4" stroke="#407AEC" stroke-width="2"/>
<path d="M146 64.1972V60.375C146 55.9567 142.418 52.375 138 52.375V52.375C133.582 52.375 130 55.9567 130 60.375V64.1972" stroke="#407AEC" stroke-width="2" stroke-linecap="round"/>
<circle cx="161" cy="48.375" r="4" stroke="#407AEC" stroke-width="2"/>
<path d="M169 64.1972V60.375C169 55.9567 165.418 52.375 161 52.375V52.375C156.582 52.375 153 55.9567 153 60.375V64.1972" stroke="#407AEC" stroke-width="2" stroke-linecap="round"/>
</g>
</g>
<circle cx="50" cy="50" r="38" fill="#EEE7FF"/>
<circle cx="9.5" cy="9.50195" r="9.5" fill="#EEE7FF"/>
<circle cx="5.5" cy="35.5" r="3" stroke="#875EFF"/>
<circle cx="88.5" cy="14.502" r="5" stroke="#875EFF"/>
<path fill-rule="evenodd" clip-rule="evenodd" d="M61.7361 25.3486C61.885 24.7321 62.0701 24.1119 62.2987 23.4817L61.3586 23.1408C61.1172 23.8063 60.9215 24.462 60.7641 25.1138L61.7361 25.3486ZM63.0606 21.6818C63.1998 21.394 63.3489 21.103 63.5085 20.8083C63.6495 20.5477 63.7983 20.2958 63.9543 20.0522L63.1123 19.5128C62.9429 19.7771 62.7818 20.0502 62.6291 20.3322C62.4624 20.64 62.3064 20.9445 62.1604 21.2463L63.0606 21.6818ZM61.2079 29.2251C61.2396 28.5635 61.2943 27.9139 61.38 27.2689L60.3887 27.1371C60.2988 27.8141 60.2419 28.492 60.209 29.1772L61.2079 29.2251ZM65.0063 18.6535C65.3938 18.2118 65.8115 17.8032 66.2567 17.4253L65.6096 16.6629C65.1283 17.0714 64.6755 17.5142 64.2546 17.9939L65.0063 18.6535ZM61.2206 33.195C61.1961 32.5107 61.178 31.8491 61.173 31.2031L60.1731 31.2109C60.1782 31.8697 60.1966 32.5415 60.2212 33.2307L61.2206 33.195ZM67.6725 16.3814C68.1633 16.0671 68.6787 15.7803 69.2163 15.5187L68.7788 14.6195C68.2087 14.8969 67.659 15.2026 67.1333 15.5393L67.6725 16.3814ZM61.3409 36.2027C61.328 35.8619 61.3145 35.5269 61.3009 35.1975L60.3017 35.2388C60.3153 35.5677 60.3288 35.9013 60.3416 36.2404L61.3409 36.2027ZM70.8519 14.8234C71.4017 14.6201 71.9691 14.438 72.5518 14.2753L72.2829 13.3121C71.6761 13.4816 71.0826 13.6719 70.5051 13.8855L70.8519 14.8234ZM74.2951 13.8538C74.8749 13.7335 75.4661 13.6293 76.0669 13.5395L75.919 12.5505C75.3014 12.6428 74.6916 12.7503 74.092 12.8746L74.2951 13.8538ZM78.2561 12.2723L78.0068 10.9369L81.3289 12.3843L78.7528 14.9329L78.4405 13.2598C78.2454 13.2771 78.051 13.2957 77.8573 13.3155L77.7555 12.3207C77.9219 12.3037 78.0889 12.2876 78.2561 12.2723Z" fill="#875EFF"/>
<path fill-rule="evenodd" clip-rule="evenodd" d="M24.6325 42.1314C24.0229 41.9565 23.4111 41.7453 22.7912 41.4902L22.4106 42.4149C23.0654 42.6844 23.7121 42.9077 24.3566 43.0926L24.6325 42.1314ZM21.0252 40.6525C20.7436 40.5012 20.4592 40.34 20.1715 40.168C19.9172 40.016 19.6718 39.8567 19.435 39.6905L18.8603 40.5089C19.1172 40.6893 19.3832 40.8619 19.6585 41.0264C19.9589 41.206 20.2566 41.3748 20.5519 41.5334L21.0252 40.6525ZM28.4831 42.8237C27.8235 42.7639 27.1768 42.6817 26.5359 42.5687L26.3623 43.5535C27.0348 43.6721 27.7097 43.7577 28.3929 43.8196L28.4831 42.8237ZM18.0822 38.5801C17.6573 38.1742 17.2668 37.7396 16.9082 37.2787L16.119 37.8929C16.5067 38.391 16.9299 38.8622 17.3913 39.3031L18.0822 38.5801ZM32.45 42.9795C31.7653 42.9749 31.1034 42.9649 30.4579 42.9425L30.4232 43.9419C31.0816 43.9647 31.7536 43.9748 32.4432 43.9795L32.45 42.9795ZM15.9253 35.8198C15.6321 35.3162 15.3674 34.7891 15.1289 34.2409L14.2119 34.6398C14.4649 35.2212 14.747 35.7833 15.0611 36.3229L15.9253 35.8198ZM35.46 42.9869C35.119 42.9853 34.7838 42.9846 34.4541 42.9843L34.4529 43.9843C34.7821 43.9846 35.116 43.9853 35.4553 43.9869L35.46 42.9869ZM14.5036 32.5772C14.3238 32.0192 14.166 31.4447 14.0282 30.8556L13.0545 31.0833C13.198 31.6968 13.363 32.2979 13.5518 32.8839L14.5036 32.5772ZM13.681 29.096C13.5855 28.5116 13.5064 27.9165 13.4422 27.3125L12.4478 27.4182C12.5138 28.0392 12.5953 28.653 12.6941 29.2573L13.681 29.096ZM12.2691 25.0714L10.9243 25.2638L12.5114 22.0062L14.9483 24.6881L13.2635 24.9291C13.2725 25.1248 13.2828 25.3198 13.2944 25.5142L12.2961 25.5737C12.2862 25.4066 12.2772 25.2392 12.2691 25.0714Z" fill="#875EFF"/>
<path d="M21.8119 70.5533L19.8133 77.3248C19.4864 78.4323 18.0832 78.7706 17.2876 77.9338L12.4226 72.8172C11.6269 71.9804 12.0355 70.596 13.158 70.3254L20.0217 68.6705C21.1442 68.3998 22.1388 69.4458 21.8119 70.5533Z" stroke="#D49DFF"/>
<path d="M29 64.8333V33.9167C29 32.7453 29.4653 31.6219 30.2936 30.7936C31.1219 29.9653 32.2453 29.5 33.4167 29.5H63.0083C63.3597 29.5 63.6968 29.6396 63.9453 29.8881C64.1937 30.1366 64.3333 30.4736 64.3333 30.825V38.375V45.375M33.4167 60.4167H50.167M33.4167 69.25H48.875" stroke="#4E16ED" stroke-width="2" stroke-linecap="round"/>
<path d="M33.4167 69.2493C32.2453 69.2493 31.1219 68.784 30.2936 67.9557C29.4653 67.1275 29 66.0041 29 64.8327C29 63.6613 29.4653 62.5379 30.2936 61.7096C31.1219 60.8813 32.2453 60.416 33.4167 60.416" stroke="#4E16ED" stroke-width="2" stroke-linecap="round" stroke-linejoin="round"/>
<path d="M40.041 38.334H53.291" stroke="#4E16ED" stroke-width="2" stroke-linecap="round"/>
<path fill-rule="evenodd" clip-rule="evenodd" d="M62.5 67.5C67.1944 67.5 71 63.6944 71 59C71 54.3056 67.1944 50.5 62.5 50.5C57.8056 50.5 54 54.3056 54 59C54 63.6944 57.8056 67.5 62.5 67.5ZM70.5634 65.7259C72.0846 63.9041 73 61.559 73 59C73 53.201 68.299 48.5 62.5 48.5C56.701 48.5 52 53.201 52 59C52 64.799 56.701 69.5 62.5 69.5C65.059 69.5 67.4041 68.5846 69.2259 67.0634C69.2732 67.1604 69.3372 67.2514 69.4179 67.3321L74.2929 72.2071C74.6834 72.5976 75.3166 72.5976 75.7071 72.2071C76.0976 71.8166 76.0976 71.1834 75.7071 70.7929L70.8321 65.9179C70.7514 65.8372 70.6604 65.7732 70.5634 65.7259ZM62 54.5C62.5523 54.5 63 54.9477 63 55.5V62.5C63 63.0523 62.5523 63.5 62 63.5C61.4477 63.5 61 63.0523 61 62.5V55.5C61 54.9477 61.4477 54.5 62 54.5ZM58 57.5C58.5523 57.5 59 57.9477 59 58.5V62.5C59 63.0523 58.5523 63.5 58 63.5C57.4477 63.5 57 63.0523 57 62.5V58.5C57 57.9477 57.4477 57.5 58 57.5ZM67 59.5C67 58.9477 66.5523 58.5 66 58.5C65.4477 58.5 65 58.9477 65 59.5V62.5C65 63.0523 65.4477 63.5 66 63.5C66.5523 63.5 67 63.0523 67 62.5V59.5Z" fill="#4E16ED"/>
<defs>
<clipPath id="clip0_1102_145720">
<rect width="100" height="100" fill="white" transform="translate(200)"/>
</clipPath>
<clipPath id="clip1_1102_145720">
<rect width="100" height="100" fill="white" transform="translate(100)"/>
</clipPath>
<clipPath id="clip2_1102_145720">
<rect width="100" height="100" fill="white" transform="translate(100)"/>
</clipPath>
</defs>
</svg>
