<svg width="46" height="46" viewBox="0 0 46 46" fill="none" xmlns="http://www.w3.org/2000/svg">
<path fill-rule="evenodd" clip-rule="evenodd" d="M2 24C1.44772 24 1 24.4477 1 25V43C1 43.5523 1.44772 44 2 44H11C11.5523 44 12 43.5523 12 43V40.3644C12.2515 40.4303 12.5356 40.5049 12.8474 40.5871C14.1327 40.9255 15.8886 41.3916 17.7718 41.9019C21.5542 42.9269 25.8004 44.1173 27.8048 44.8145C28.0171 44.8884 28.2481 44.8885 28.4604 44.815L42.3271 40.015C42.8167 39.8455 43.0958 39.3301 42.9701 38.8275C42.7662 38.0116 42.3753 37.0804 41.8486 36.2802C41.339 35.506 40.6042 34.7062 39.6496 34.388C39.3473 34.2873 38.9353 34.2344 38.5315 34.1992C38.099 34.1614 37.5743 34.1366 36.9926 34.1213C36.1031 34.098 35.0545 34.0964 33.952 34.1088C33.904 33.7782 33.799 33.4331 33.6058 33.0882C33.1654 32.3022 32.3604 31.6838 31.1714 31.2082C30.282 30.8524 28.7615 30.0557 27.0189 29.1426L27.0189 29.1425L27.0187 29.1425C26.262 28.7459 25.4633 28.3274 24.6563 27.9135C23.3521 27.2447 22.0433 26.5982 20.9181 26.1172C20.3557 25.8768 19.8235 25.6709 19.3505 25.5236C18.8962 25.3821 18.4212 25.27 18 25.27H17.99H17.9798H17.9696H17.9593H17.9489H17.9385H17.9279H17.9173H17.9066H17.8958H17.885H17.874H17.863H17.8519H17.8407H17.8294H17.8181H17.8066H17.7951H17.7836H17.7719H17.7602H17.7484H17.7365H17.7245H17.7125H17.7004H17.6882H17.6759H17.6636H17.6512H17.6387H17.6261H17.6135H17.6008H17.588H17.5752H17.5623H17.5493H17.5362H17.5231H17.5099H17.4966H17.4833H17.4699H17.4564H17.4429H17.4293H17.4156H17.4019H17.3881H17.3742H17.3602H17.3462H17.3322H17.318H17.3038H17.2896H17.2753H17.2609H17.2464H17.2319H17.2173H17.2027H17.188H17.1733H17.1584H17.1436H17.1286H17.1136H17.0986H17.0835H17.0683H17.0531H17.0378H17.0224H17.007H16.9916H16.9761H16.9605H16.9449H16.9292H16.9135H16.8977H16.8818H16.8659H16.85H16.834H16.8179H16.8018H16.7857H16.7695H16.7532H16.7369H16.7205H16.7041H16.6877H16.6712H16.6546H16.638H16.6214H16.6047H16.5879H16.5711H16.5543H16.5374H16.5205H16.5035H16.4865H16.4694H16.4523H16.4351H16.4179H16.4007H16.3834H16.3661H16.3487H16.3313H16.3139H16.2964H16.2788H16.2613H16.2436H16.226H16.2083H16.1906H16.1728H16.155H16.1372H16.1193H16.1014H16.0834H16.0654H16.0474H16.0293H16.0112H15.9931H15.9749H15.9567H15.9385H15.9202H15.9019H15.8836H15.8652H15.8468H15.8284H15.8099H15.7915H15.7729H15.7544H15.7358H15.7172H15.6986H15.6799H15.6612H15.6425H15.6237H15.6049H15.5861H15.5673H15.5485H15.5296H15.5107H15.4917H15.4728H15.4538H15.4348H15.4158H15.3967H15.3777H15.3586H15.3395H15.3203H15.3012H15.282H15.2628H15.2436H15.2243H15.2051H15.1858H15.1665H15.1472H15.1278H15.1085H15.0891H15.0698H15.0504H15.0309H15.0115H14.9921H14.9726H14.9531H14.9336H14.9141H14.8946H14.8751H14.8555H14.836H14.8164H14.7968H14.7773H14.7577H14.738H14.7184H14.6988H14.6792H14.6595H14.6398H14.6202H14.6005H14.5808H14.5611H14.5414H14.5217H14.502H14.4823H14.4626H14.4429H14.4232H14.4034H14.3837H14.3639H14.3442H14.3245H14.3047H14.285H14.2652H14.2455H14.2257H14.2059H14.1862H14.1664H14.1467H14.1269H14.1072H14.0874H14.0677H14.0479H14.0282H14.0084H13.9887H13.969H13.9493H13.9295H13.9098H13.8901H13.8704H13.8507H13.831H13.8113H13.7916H13.7719H13.7523H13.7326H13.713H13.6933H13.6737H13.6541H13.6345H13.6149H13.5953H13.5757H13.5561H13.5366H13.517H13.4975H13.478H13.4585H13.439H13.4195H13.4001H13.3806H13.3612H13.3418H13.3224H13.303H13.2836H13.2643H13.2449H13.2256H13.2063H13.1871H13.1678H13.1486H13.1293H13.1101H13.091H13.0718H13.0527H13.0335H13.0145H12.9954H12.9763H12.9573H12.9383H12.9193H12.9004H12.8814H12.8625H12.8436H12.8248H12.806H12.7872H12.7684H12.7496H12.7309H12.7122H12.6935H12.6749H12.6563H12.6377H12.6192H12.6007H12.5822H12.5637H12.5453H12.5269H12.5085H12.4902H12.4719H12.4536H12.4354H12.4172H12.399H12.3809H12.3628H12.3447H12.3267H12.3087H12.2907H12.2728H12.2549H12.2371H12.2193H12.2015H12.1838H12.1661H12.1484H12.1308H12.1132H12.0957H12.0782H12.0608H12.0434H12.026H12.0087H12V25C12 24.4477 11.5523 24 11 24H2ZM10 27.27V26H3V42H10V27.27ZM12 27.27H12.0087H12.026H12.0434H12.0608H12.0782H12.0957H12.1132H12.1308H12.1484H12.1661H12.1838H12.2015H12.2193H12.2371H12.2549H12.2728H12.2907H12.3087H12.3267H12.3447H12.3628H12.3809H12.399H12.4172H12.4354H12.4536H12.4719H12.4902H12.5085H12.5269H12.5453H12.5637H12.5822H12.6007H12.6192H12.6377H12.6563H12.6749H12.6935H12.7122H12.7309H12.7496H12.7684H12.7872H12.806H12.8248H12.8436H12.8625H12.8814H12.9004H12.9193H12.9383H12.9573H12.9763H12.9954H13.0145H13.0335H13.0527H13.0718H13.091H13.1101H13.1293H13.1486H13.1678H13.1871H13.2063H13.2256H13.2449H13.2643H13.2836H13.303H13.3224H13.3418H13.3612H13.3806H13.4001H13.4195H13.439H13.4585H13.478H13.4975H13.517H13.5366H13.5561H13.5757H13.5953H13.6149H13.6345H13.6541H13.6737H13.6933H13.713H13.7326H13.7523H13.7719H13.7916H13.8113H13.831H13.8507H13.8704H13.8901H13.9098H13.9295H13.9493H13.969H13.9887H14.0084H14.0282H14.0479H14.0677H14.0874H14.1072H14.1269H14.1467H14.1664H14.1862H14.2059H14.2257H14.2455H14.2652H14.285H14.3047H14.3245H14.3442H14.3639H14.3837H14.4034H14.4232H14.4429H14.4626H14.4823H14.502H14.5217H14.5414H14.5611H14.5808H14.6005H14.6202H14.6398H14.6595H14.6792H14.6988H14.7184H14.738H14.7577H14.7773H14.7968H14.8164H14.836H14.8555H14.8751H14.8946H14.9141H14.9336H14.9531H14.9726H14.9921H15.0115H15.0309H15.0504H15.0698H15.0891H15.1085H15.1278H15.1472H15.1665H15.1858H15.2051H15.2243H15.2436H15.2628H15.282H15.3012H15.3203H15.3395H15.3586H15.3777H15.3967H15.4158H15.4348H15.4538H15.4728H15.4917H15.5107H15.5296H15.5485H15.5673H15.5861H15.6049H15.6237H15.6425H15.6612H15.6799H15.6986H15.7172H15.7358H15.7544H15.7729H15.7915H15.8099H15.8284H15.8468H15.8652H15.8836H15.9019H15.9202H15.9385H15.9567H15.9749H15.9931H16.0112H16.0293H16.0474H16.0654H16.0834H16.1014H16.1193H16.1372H16.155H16.1728H16.1906H16.2083H16.226H16.2436H16.2613H16.2788H16.2964H16.3139H16.3313H16.3487H16.3661H16.3834H16.4007H16.4179H16.4351H16.4523H16.4694H16.4865H16.5035H16.5205H16.5374H16.5543H16.5711H16.5879H16.6047H16.6214H16.638H16.6546H16.6712H16.6877H16.7041H16.7205H16.7369H16.7532H16.7695H16.7857H16.8018H16.8179H16.834H16.85H16.8659H16.8818H16.8977H16.9135H16.9292H16.9449H16.9605H16.9761H16.9916H17.007H17.0224H17.0378H17.0531H17.0683H17.0835H17.0986H17.1136H17.1286H17.1436H17.1584H17.1733H17.188H17.2027H17.2173H17.2319H17.2464H17.2609H17.2753H17.2896H17.3038H17.318H17.3322H17.3462H17.3602H17.3742H17.3881H17.4019H17.4156H17.4293H17.4429H17.4564H17.4699H17.4833H17.4966H17.5099H17.5231H17.5362H17.5493H17.5623H17.5752H17.588H17.6008H17.6135H17.6261H17.6387H17.6512H17.6636H17.6759H17.6882H17.7004H17.7125H17.7245H17.7365H17.7484H17.7602H17.7719H17.7836H17.7951H17.8066H17.8181H17.8294H17.8407H17.8519H17.863H17.874H17.885H17.8958H17.9066H17.9173H17.9279H17.9385H17.9489H17.9593H17.9696H17.9798H17.99H18C18.1121 27.27 18.3538 27.3079 18.7558 27.4331C19.139 27.5525 19.6026 27.7299 20.1319 27.9562C21.1901 28.4085 22.4479 29.0287 23.7437 29.6932C24.4747 30.0681 25.2245 30.4609 25.9547 30.8435C27.7562 31.7876 29.4388 32.6693 30.4286 33.0652C31.3729 33.4429 31.7235 33.8203 31.8609 34.0657C31.8755 34.0918 31.8889 34.1184 31.9009 34.1454C29.9885 34.1907 28.0863 34.2633 26.6866 34.3284L21.0084 32.2636L20.3249 34.1431L26.1916 36.2765C26.3162 36.3218 26.4485 36.3419 26.5809 36.3356C28.2202 36.2575 30.6456 36.1656 32.9515 36.1238C34.4138 36.0973 35.8181 36.0912 36.9401 36.1206C37.5019 36.1354 37.9818 36.1588 38.3575 36.1916C38.7619 36.2269 38.9616 36.2669 39.0171 36.2854C39.3424 36.3938 39.7632 36.7496 40.178 37.3798C40.3974 37.7131 40.5878 38.0822 40.7399 38.448L28.131 42.8126C25.9445 42.0794 21.8678 40.9397 18.2949 39.9715C16.4058 39.4596 14.6451 38.9923 13.3568 38.653C12.8112 38.5093 12.3503 38.3886 12 38.2971V27.27Z" fill="#4E16ED"/>
<path fill-rule="evenodd" clip-rule="evenodd" d="M16 4C15.4477 4 15 4.44772 15 5V22C15 22.5523 15.4477 23 16 23H21C21.5523 23 22 22.5523 22 22C22 21.4477 21.5523 21 21 21H17V6H35V29C35 29.5523 35.4477 30 36 30C36.5523 30 37 29.5523 37 29V5C37 4.44772 36.5523 4 36 4H16ZM20 12H24V10H20V12ZM24 17H20V15H24V17ZM28 12H32V10H28V12ZM32 17H28V15H32V17ZM28 22H32V20H28V22Z" fill="#4E16ED"/>
</svg>
