<svg width="181" height="46" viewBox="0 0 181 46" fill="none" xmlns="http://www.w3.org/2000/svg">
<rect x="1" y="1" width="44" height="44" rx="22" fill="#F0E9FF"/>
<path d="M22.6 28.4633V30.416M22.6 18.7773V20.5947M22.6 35.172C29.3667 35.172 34.2 32.7747 34.2 27.4387C34.2 21.6387 31.3 17.772 25.5 14.872L27.7813 11.9333C27.8972 11.7405 27.9601 11.5205 27.9636 11.2956C27.967 11.0706 27.9109 10.8488 27.801 10.6525C27.6911 10.4562 27.5312 10.2925 27.3377 10.1779C27.1441 10.0633 26.9236 10.0019 26.6987 10H18.5013C18.2764 10.0019 18.0559 10.0633 17.8623 10.1779C17.6688 10.2925 17.5089 10.4562 17.399 10.6525C17.2891 10.8488 17.233 11.0706 17.2364 11.2956C17.2399 11.5205 17.3028 11.7405 17.4187 11.9333L19.7 14.8913C13.9 17.8107 11 21.6773 11 27.4773C11 32.7747 15.8333 35.172 22.6 35.172Z" stroke="#4E16ED" stroke-width="2" stroke-linecap="round" stroke-linejoin="round"/>
<path d="M20.6662 27.5741C20.9021 27.8541 21.199 28.0763 21.5341 28.2238C21.8692 28.3712 22.2337 28.44 22.5995 28.4247C23.1586 28.4628 23.7108 28.2827 24.1398 27.9221C24.5689 27.5616 24.8414 27.0487 24.9002 26.4914C24.8414 25.934 24.5689 25.4212 24.1398 25.0606C23.7108 24.7001 23.1586 24.5199 22.5995 24.5581C22.0404 24.5962 21.4882 24.416 21.0592 24.0555C20.6301 23.6949 20.3576 23.1821 20.2988 22.6247C20.3529 22.0654 20.6241 21.5496 21.0543 21.1881C21.4844 20.8266 22.0393 20.6483 22.5995 20.6914C22.9589 20.6694 23.3187 20.7274 23.653 20.8611C23.9873 20.9948 24.2878 21.201 24.5328 21.4647" stroke="#4E16ED" stroke-width="2" stroke-linecap="round" stroke-linejoin="round"/>
<rect x="46" y="1" width="44" height="44" rx="22" fill="#E7EDFC"/>
<mask id="path-5-inside-1_768_74551" fill="white">
<rect x="56" y="16.7988" width="24" height="17.6" rx="1"/>
</mask>
<rect x="56" y="16.7988" width="24" height="17.6" rx="1" stroke="#407AEC" stroke-width="4" mask="url(#path-5-inside-1_768_74551)"/>
<path d="M64.2012 13H71.8012V17.4H64.2012V13Z" stroke="#407AEC" stroke-width="2"/>
<mask id="path-7-inside-2_768_74551" fill="white">
<rect x="64.7998" y="23.1992" width="6.4" height="6.4" rx="1"/>
</mask>
<rect x="64.7998" y="23.1992" width="6.4" height="6.4" rx="1" stroke="#407AEC" stroke-width="4" mask="url(#path-7-inside-2_768_74551)"/>
<path d="M57.2012 25.999H64.8012" stroke="#407AEC" stroke-width="2"/>
<path d="M70.7998 25.999H78.3998" stroke="#407AEC" stroke-width="2"/>
<g clip-path="url(#clip0_768_74551)">
<rect x="91" y="1" width="44" height="44" rx="22" fill="#DFF7E5"/>
<path fill-rule="evenodd" clip-rule="evenodd" d="M106.091 20.2727C106.863 20.2727 107.603 19.9662 108.148 19.4207C108.694 18.8751 109 18.1352 109 17.3636C109 16.5921 108.694 15.8522 108.148 15.3066C107.603 14.761 106.863 14.4545 106.091 14.4545C105.32 14.4545 104.58 14.761 104.034 15.3066C103.489 15.8522 103.182 16.5921 103.182 17.3636C103.182 18.1352 103.489 18.8751 104.034 19.4207C104.58 19.9662 105.32 20.2727 106.091 20.2727ZM106.091 21.7273C106.664 21.7273 107.232 21.6144 107.761 21.3951C108.29 21.1758 108.772 20.8544 109.177 20.4492C109.582 20.044 109.903 19.5629 110.123 19.0335C110.342 18.5041 110.455 17.9367 110.455 17.3636C110.455 16.7906 110.342 16.2232 110.123 15.6937C109.903 15.1643 109.582 14.6833 109.177 14.2781C108.772 13.8729 108.29 13.5515 107.761 13.3322C107.232 13.1129 106.664 13 106.091 13C104.934 13 103.824 13.4597 103.006 14.2781C102.187 15.0964 101.728 16.2063 101.728 17.3636C101.728 18.5209 102.187 19.6308 103.006 20.4492C103.824 21.2675 104.934 21.7273 106.091 21.7273Z" fill="#1A7B58"/>
<path fill-rule="evenodd" clip-rule="evenodd" d="M104.424 20.1222C104.492 20.1898 104.545 20.27 104.582 20.3584C104.619 20.4467 104.638 20.5414 104.638 20.6371C104.638 20.7328 104.619 20.8275 104.582 20.9158C104.545 21.0042 104.492 21.0845 104.424 21.152L103.932 21.6422C102.986 22.5886 102.455 23.872 102.455 25.2102V27.9098C102.455 28.1027 102.378 28.2877 102.242 28.4241C102.105 28.5605 101.92 28.6371 101.727 28.6371C101.534 28.6371 101.349 28.5605 101.213 28.4241C101.077 28.2877 101 28.1027 101 27.9098V25.2102C101 23.4862 101.685 21.8329 102.904 20.6138L103.394 20.1222C103.462 20.0545 103.542 20.0007 103.63 19.9641C103.719 19.9274 103.813 19.9085 103.909 19.9085C104.005 19.9085 104.099 19.9274 104.188 19.9641C104.276 20.0007 104.356 20.0545 104.424 20.1222ZM121.576 19.6858C121.508 19.7534 121.455 19.8336 121.418 19.922C121.381 20.0104 121.362 20.1051 121.362 20.2007C121.362 20.2964 121.381 20.3911 121.418 20.4795C121.455 20.5678 121.508 20.6481 121.576 20.7156L122.068 21.2058C122.536 21.6744 122.908 22.2307 123.161 22.8429C123.415 23.455 123.545 24.1112 123.545 24.7738V27.9098C123.545 28.1027 123.622 28.2877 123.758 28.4241C123.895 28.5605 124.08 28.6371 124.273 28.6371C124.466 28.6371 124.651 28.5605 124.787 28.4241C124.923 28.2877 125 28.1027 125 27.9098V24.7738C125 23.0499 124.315 21.3966 123.096 20.1775L122.606 19.6858C122.538 19.6181 122.458 19.5644 122.37 19.5277C122.281 19.491 122.187 19.4722 122.091 19.4722C121.995 19.4722 121.901 19.491 121.812 19.5277C121.724 19.5644 121.644 19.6181 121.576 19.6858Z" fill="#1A7B58"/>
<path fill-rule="evenodd" clip-rule="evenodd" d="M119.181 20.2727C118.41 20.2727 117.67 19.9662 117.124 19.4207C116.579 18.8751 116.272 18.1352 116.272 17.3636C116.272 16.5921 116.579 15.8522 117.124 15.3066C117.67 14.761 118.41 14.4545 119.181 14.4545C119.953 14.4545 120.693 14.761 121.238 15.3066C121.784 15.8522 122.09 16.5921 122.09 17.3636C122.09 18.1352 121.784 18.8751 121.238 19.4207C120.693 19.9662 119.953 20.2727 119.181 20.2727ZM119.181 21.7273C118.608 21.7273 118.041 21.6144 117.511 21.3951C116.982 21.1758 116.501 20.8544 116.096 20.4492C115.691 20.044 115.369 19.5629 115.15 19.0335C114.931 18.5041 114.818 17.9367 114.818 17.3636C114.818 16.7906 114.931 16.2232 115.15 15.6937C115.369 15.1643 115.691 14.6833 116.096 14.2781C116.501 13.8729 116.982 13.5515 117.511 13.3322C118.041 13.1129 118.608 13 119.181 13C120.339 13 121.449 13.4597 122.267 14.2781C123.085 15.0964 123.545 16.2063 123.545 17.3636C123.545 18.5209 123.085 19.6309 122.267 20.4492C121.449 21.2675 120.339 21.7273 119.181 21.7273ZM112.636 26.4545C111.671 26.4545 110.746 26.8377 110.065 27.5196C109.383 28.2016 108.999 29.1265 108.999 30.0909V31.9818C108.999 32.1747 108.923 32.3597 108.786 32.4961C108.65 32.6325 108.465 32.7091 108.272 32.7091C108.079 32.7091 107.894 32.6325 107.758 32.4961C107.622 32.3597 107.545 32.1747 107.545 31.9818V30.0909C107.545 28.7407 108.081 27.4458 109.036 26.4911C109.991 25.5364 111.286 25 112.636 25C113.986 25 115.281 25.5364 116.236 26.4911C117.19 27.4458 117.727 28.7407 117.727 30.0909V31.9818C117.727 32.1747 117.65 32.3597 117.514 32.4961C117.377 32.6325 117.192 32.7091 116.999 32.7091C116.807 32.7091 116.622 32.6325 116.485 32.4961C116.349 32.3597 116.272 32.1747 116.272 31.9818V30.0909C116.272 29.6134 116.178 29.1405 115.995 28.6993C115.813 28.2581 115.545 27.8573 115.207 27.5196C114.869 27.1819 114.469 26.9141 114.027 26.7313C113.586 26.5486 113.113 26.4545 112.636 26.4545Z" fill="#1A7B58"/>
<path fill-rule="evenodd" clip-rule="evenodd" d="M112.635 24.2737C113.407 24.2737 114.147 23.9672 114.692 23.4216C115.238 22.8761 115.544 22.1361 115.544 21.3646C115.544 20.5931 115.238 19.8531 114.692 19.3076C114.147 18.762 113.407 18.4555 112.635 18.4555C111.864 18.4555 111.124 18.762 110.578 19.3076C110.033 19.8531 109.726 20.5931 109.726 21.3646C109.726 22.1361 110.033 22.8761 110.578 23.4216C111.124 23.9672 111.864 24.2737 112.635 24.2737ZM112.635 25.7282C113.792 25.7282 114.902 25.2685 115.721 24.4502C116.539 23.6318 116.999 22.5219 116.999 21.3646C116.999 20.2073 116.539 19.0974 115.721 18.2791C114.902 17.4607 113.792 17.001 112.635 17.001C111.478 17.001 110.368 17.4607 109.55 18.2791C108.731 19.0974 108.271 20.2073 108.271 21.3646C108.271 22.5219 108.731 23.6318 109.55 24.4502C110.368 25.2685 111.478 25.7282 112.635 25.7282Z" fill="#1A7B58"/>
</g>
<rect x="136" y="1" width="44" height="44" rx="22" fill="#FFEDE2"/>
<path d="M168.022 18.6059V35H148V33.4598H166.482V19.7009H160.321V13.5402H149.54V35H148V12H161.416L168.022 18.6059ZM165.387 18.1607L161.862 14.6351V18.1607H165.387Z" fill="#DE5508"/>
<rect x="152.388" y="21.0352" width="7.39286" height="1.64286" fill="#DE5508"/>
<rect x="152.388" y="25.1436" width="10.6786" height="1.64286" fill="#DE5508"/>
<rect x="152.388" y="29.25" width="10.6786" height="1.64286" fill="#DE5508"/>
<defs>
<clipPath id="clip0_768_74551">
<rect x="91" y="1" width="44" height="44" rx="22" fill="white"/>
</clipPath>
</defs>
</svg>
