<svg width="118" height="56" viewBox="0 0 118 56" fill="none" xmlns="http://www.w3.org/2000/svg">
<path fill-rule="evenodd" clip-rule="evenodd" d="M91 54.101C91.1005 54.1305 91.2014 54.1593 91.3027 54.1875C93.4707 54.7897 95.6507 55.0908 97.8428 55.0908C100.565 55.0908 103.094 54.7536 105.431 54.0791C107.767 53.3805 109.803 52.3688 111.537 51.0439C113.271 49.7191 114.62 48.0931 115.584 46.166C116.548 44.2389 117.029 42.0469 117.029 39.5898C117.029 37.5182 116.632 35.6393 115.837 33.9531C115.042 32.2669 113.886 30.8337 112.368 29.6533C111.137 28.6959 109.692 27.9208 108.034 27.3279C109.328 26.725 110.484 26.0067 111.501 25.1729C112.994 23.9443 114.139 22.5472 114.934 20.9814C115.753 19.3916 116.162 17.7415 116.162 16.0312C116.162 12.7552 115.391 10.0091 113.85 7.79297C112.332 5.55273 110.188 3.86654 107.418 2.73438C104.672 1.57812 101.48 1 97.8428 1C95.4198 1 93.1389 1.34793 91 2.0438V15.3447H91.6279C91.6279 14.1885 91.9411 13.2008 92.5674 12.3818C93.1937 11.5387 94.0007 10.9004 94.9883 10.4668C96 10.0091 97.0599 9.78027 98.168 9.78027C99.7096 9.78027 100.962 10.0693 101.926 10.6475C102.913 11.2015 103.648 11.9603 104.13 12.9238C104.612 13.8874 104.853 14.9834 104.853 16.2119C104.853 17.6331 104.588 18.8737 104.058 19.9336C103.552 20.9935 102.757 21.8125 101.673 22.3906C100.613 22.9688 99.264 23.2578 97.626 23.2578H91.8809V26.0039V29.1113V31.749H97.626C99.3122 31.749 100.757 32.014 101.962 32.5439C103.166 33.0498 104.082 33.8688 104.708 35.001C105.358 36.1091 105.684 37.5784 105.684 39.4092C105.684 40.7581 105.382 41.9505 104.78 42.9863C104.202 44.0221 103.347 44.8411 102.215 45.4434C101.107 46.0215 99.7578 46.3105 98.168 46.3105C96.8431 46.3105 95.6146 46.0335 94.4824 45.4795C93.3743 44.9014 92.4951 44.1305 91.8447 43.167C91.4173 42.493 91.1357 41.7629 91 40.9767V54.101Z" fill="#EE2A7B"/>
<path fill-rule="evenodd" clip-rule="evenodd" d="M91 2.17969C90.4929 2.35661 89.9938 2.55342 89.5029 2.77012C86.8532 3.92637 84.7214 5.57644 83.1074 7.72032C81.5176 9.8642 80.7227 12.4055 80.7227 15.3443H91V2.17969ZM91 39.8424H80C80 42.4921 80.5299 44.7805 81.5898 46.7076C82.6497 48.6106 84.0589 50.1884 85.8174 51.441C87.3827 52.5346 89.1102 53.38 91 53.9773V39.8424Z" fill="url(#paint0_linear_783_199589)"/>
<path fill-rule="evenodd" clip-rule="evenodd" d="M51 54.3682H77.3545V45.5879H55.7109L63.6602 36.5547C65.5391 34.6758 67.2253 32.8932 68.7188 31.207C70.2122 29.4967 71.4889 27.8226 72.5488 26.1846C73.6087 24.5465 74.4157 22.8965 74.9697 21.2344C75.5479 19.5723 75.8369 17.8499 75.8369 16.0674C75.8369 12.9118 75.1745 10.2139 73.8496 7.97363C72.5247 5.7334 70.5736 4.01107 67.9961 2.80664C65.4186 1.60221 62.2269 1 58.4209 1C55.6933 1 53.2197 1.42975 51 2.28925V18.4521H51.2666C51.2666 16.79 51.5436 15.3086 52.0977 14.0078C52.6517 12.6829 53.4466 11.6471 54.4824 10.9004C55.5182 10.1536 56.7588 9.78027 58.2041 9.78027C59.5531 9.78027 60.6973 10.0693 61.6367 10.6475C62.5762 11.2256 63.2868 12.0566 63.7686 13.1406C64.2744 14.2246 64.5273 15.5495 64.5273 17.1152C64.5273 18.0788 64.3105 19.1387 63.877 20.2949C63.4434 21.4271 62.7448 22.6917 61.7812 24.0889C60.8418 25.486 59.5771 27.0999 57.9873 28.9307L51 36.3342V54.3682Z" fill="#407AEC"/>
<path fill-rule="evenodd" clip-rule="evenodd" d="M51 2.32031C50.2293 2.62311 49.4894 2.978 48.7803 3.38498C46.0101 4.95073 43.8542 7.05848 42.3125 9.70822C40.7708 12.3339 40 15.2486 40 18.4524H51V2.32031ZM51 36.4183L41.084 46.925V54.3684H51V36.4183Z" fill="url(#paint1_linear_783_199589)"/>
<path fill-rule="evenodd" clip-rule="evenodd" d="M8 15.221L12.4555 13.8633V53.6455H23.765V1H22.6449L8 6.12572V15.221Z" fill="#4E16ED"/>
<path fill-rule="evenodd" clip-rule="evenodd" d="M8 6.09668L0 8.84097V17.5851L8 15.1957V6.09668Z" fill="url(#paint2_linear_783_199589)"/>
<defs>
<linearGradient id="paint0_linear_783_199589" x1="91" y1="20.4048" x2="80.4043" y2="20.4048" gradientUnits="userSpaceOnUse">
<stop stop-color="#ABABAB"/>
<stop offset="1" stop-color="#E0E0E0"/>
</linearGradient>
<linearGradient id="paint1_linear_783_199589" x1="53.0791" y1="53.9054" x2="40.0791" y2="53.9054" gradientUnits="userSpaceOnUse">
<stop stop-color="#ABABAB"/>
<stop offset="1" stop-color="#E0E0E0"/>
</linearGradient>
<linearGradient id="paint2_linear_783_199589" x1="12" y1="1.00012" x2="-3.71653" y2="1.00012" gradientUnits="userSpaceOnUse">
<stop stop-color="#ABABAB"/>
<stop offset="1" stop-color="#E0E0E0"/>
</linearGradient>
</defs>
</svg>
