<svg width="320" height="192" viewBox="0 0 320 192" fill="none" xmlns="http://www.w3.org/2000/svg">
<path d="M30.65 36.7251V34.0251H33.35V36.7251H30.65ZM29.3 24.5751H34.7V21.8751H29.3V24.5751ZM21.2 44.8251C20.4575 44.8251 19.8217 44.5605 19.2925 44.0313C18.7633 43.5021 18.4991 42.8667 18.5 42.1251V36.7251H27.95V38.0751C27.95 38.4576 28.0796 38.7784 28.3388 39.0376C28.598 39.2968 28.9184 39.426 29.3 39.4251H34.7C35.0825 39.4251 35.4034 39.2955 35.6626 39.0363C35.9218 38.7771 36.0509 38.4567 36.05 38.0751V36.7251H45.5V42.1251C45.5 42.8676 45.2354 43.5034 44.7062 44.0326C44.177 44.5618 43.5416 44.826 42.8 44.8251H21.2ZM18.5 34.0251V27.2751C18.5 26.5326 18.7646 25.8967 19.2938 25.3675C19.823 24.8383 20.4584 24.5742 21.2 24.5751H26.6V21.8751C26.6 21.1326 26.8646 20.4967 27.3938 19.9675C27.923 19.4383 28.5584 19.1742 29.3 19.1751H34.7C35.4425 19.1751 36.0783 19.4397 36.6075 19.9689C37.1367 20.4981 37.4009 21.1335 37.4 21.8751V24.5751H42.8C43.5425 24.5751 44.1783 24.8397 44.7075 25.3689C45.2367 25.8981 45.5009 26.5335 45.5 27.2751V34.0251H36.05V32.6751C36.05 32.2926 35.9204 31.9717 35.6612 31.7125C35.402 31.4533 35.0816 31.3242 34.7 31.3251H29.3C28.9175 31.3251 28.5967 31.4547 28.3375 31.7139C28.0783 31.9731 27.9491 32.2935 27.95 32.6751V34.0251H18.5Z" fill="white"/>
<path d="M85.1555 28.5547L85.6695 29.4516C86.1234 30.2445 86.8672 30.8297 87.7477 31.0812L90.9141 31.9836C91.8547 32.2516 92.5 33.1102 92.5 34.0891V36.2711C92.5 36.8727 92.8391 37.4195 93.375 37.6875C93.9109 37.9555 94.25 38.5023 94.25 39.1039V41.2367C94.25 42.0898 95.0648 42.7078 95.8852 42.4727C96.7656 42.2211 97.4492 41.5156 97.6734 40.6242L97.8266 40.0117C98.0562 39.0875 98.6578 38.2945 99.4836 37.8242L99.9266 37.5727C100.747 37.1078 101.25 36.2328 101.25 35.2922V34.8383C101.25 34.1437 100.971 33.4766 100.479 32.9844L100.266 32.7711C99.7734 32.2789 99.1063 32 98.4117 32H96.0547C95.4477 32 94.8461 31.8414 94.3156 31.5406L92.4289 30.4633C92.1937 30.3266 92.0133 30.1078 91.9258 29.8508C91.7508 29.3258 91.9859 28.757 92.4836 28.5109L92.8063 28.3469C93.1672 28.1664 93.5883 28.1336 93.9711 28.2648L95.2398 28.6859C95.6883 28.8336 96.1805 28.6641 96.4375 28.2758C96.6945 27.893 96.6672 27.3844 96.3719 27.0289L95.6281 26.1375C95.0812 25.4813 95.0867 24.5242 95.6445 23.8789L96.5031 22.8781C96.9844 22.3148 97.0609 21.5109 96.6945 20.8711L96.5633 20.6414C96.3719 20.6305 96.1859 20.625 95.9945 20.625C90.9195 20.625 86.6156 23.9555 85.1555 28.5547ZM107.375 32C107.375 29.9875 106.85 28.0953 105.931 26.4492L104.531 27.0125C103.673 27.357 103.23 28.3141 103.52 29.1891L104.444 31.9617C104.635 32.5305 105.1 32.9625 105.68 33.1047L107.271 33.5039C107.337 33.0117 107.37 32.5086 107.37 32H107.375ZM82 32C82 28.287 83.475 24.726 86.1005 22.1005C88.726 19.475 92.287 18 96 18C99.713 18 103.274 19.475 105.899 22.1005C108.525 24.726 110 28.287 110 32C110 35.713 108.525 39.274 105.899 41.8995C103.274 44.525 99.713 46 96 46C92.287 46 88.726 44.525 86.1005 41.8995C83.475 39.274 82 35.713 82 32Z" fill="white"/>
<path d="M163.856 28.8C165.208 28.8 166.306 29.8976 166.306 31.25V37.8986C166.306 39.5698 165.642 41.1726 164.46 42.3544C163.278 43.5361 161.675 44.2 160.004 44.2C158.333 44.2 156.73 43.5361 155.548 42.3544C154.367 41.1726 153.703 39.5698 153.703 37.8986V31.25C153.703 29.8976 154.799 28.8 156.153 28.8H163.856ZM153.183 28.8C152.679 29.4068 152.376 30.1553 152.315 30.942L152.301 31.25V37.8986C152.301 39.0844 152.57 40.2072 153.049 41.2096C152.219 41.4316 151.349 41.4598 150.507 41.2919C149.665 41.1241 148.872 40.7648 148.191 40.2417C147.509 39.7187 146.957 39.0459 146.577 38.2755C146.198 37.5051 146 36.6576 146 35.7986V31.25C146 30.6351 146.231 30.0428 146.648 29.5905C147.064 29.1382 147.636 28.859 148.248 28.8084L148.45 28.8H153.183ZM166.825 28.8H171.55C172.902 28.8 174 29.8976 174 31.25V35.8C174 36.6584 173.803 37.5054 173.424 38.2755C173.044 39.0456 172.493 39.7182 171.813 40.2413C171.132 40.7644 170.34 41.1241 169.498 41.2925C168.657 41.4608 167.787 41.4334 166.958 41.2124C167.378 40.3332 167.636 39.3644 167.693 38.3396L167.706 37.8986V31.25C167.706 30.319 167.377 29.465 166.825 28.8ZM160 19C161.114 19 162.182 19.4425 162.97 20.2302C163.758 21.0178 164.2 22.0861 164.2 23.2C164.2 24.3139 163.758 25.3822 162.97 26.1698C162.182 26.9575 161.114 27.4 160 27.4C158.886 27.4 157.818 26.9575 157.03 26.1698C156.242 25.3822 155.8 24.3139 155.8 23.2C155.8 22.0861 156.242 21.0178 157.03 20.2302C157.818 19.4425 158.886 19 160 19ZM169.1 20.4C170.028 20.4 170.918 20.7687 171.575 21.4251C172.231 22.0815 172.6 22.9717 172.6 23.9C172.6 24.8283 172.231 25.7185 171.575 26.3749C170.918 27.0313 170.028 27.4 169.1 27.4C168.172 27.4 167.282 27.0313 166.625 26.3749C165.969 25.7185 165.6 24.8283 165.6 23.9C165.6 22.9717 165.969 22.0815 166.625 21.4251C167.282 20.7687 168.172 20.4 169.1 20.4ZM150.9 20.4C151.828 20.4 152.718 20.7687 153.375 21.4251C154.031 22.0815 154.4 22.9717 154.4 23.9C154.4 24.8283 154.031 25.7185 153.375 26.3749C152.718 27.0313 151.828 27.4 150.9 27.4C149.972 27.4 149.082 27.0313 148.425 26.3749C147.769 25.7185 147.4 24.8283 147.4 23.9C147.4 22.9717 147.769 22.0815 148.425 21.4251C149.082 20.7687 149.972 20.4 150.9 20.4Z" fill="white"/>
<path fill-rule="evenodd" clip-rule="evenodd" d="M224.028 18C220.6 18 217.477 19.1324 215.628 20.0577C215.461 20.1412 215.306 20.2231 215.161 20.3021C214.874 20.4584 214.629 20.6042 214.435 20.7324L216.538 23.8277L217.527 24.2216C221.395 26.173 226.582 26.173 230.451 24.2216L231.574 23.6387L233.562 20.7324C233.151 20.4638 232.722 20.2212 232.28 20.0061C230.441 19.0907 227.391 18 224.028 18ZM219.139 21.5036C218.394 21.3643 217.659 21.1798 216.937 20.951C218.668 20.1822 221.248 19.3662 224.028 19.3662C225.954 19.3662 227.775 19.7579 229.281 20.2543C227.516 20.5025 225.633 20.9237 223.839 21.4421C222.427 21.8505 220.777 21.8064 219.139 21.5036ZM231.253 25.3472L231.066 25.4413C226.811 27.5878 221.167 27.5878 216.912 25.4413L216.735 25.3518C210.343 32.3658 205.462 45.3221 224.028 45.3221C242.594 45.3221 237.595 32.1237 231.253 25.3472ZM223.24 31.6622C222.837 31.6622 222.451 31.8221 222.166 32.1068C221.882 32.3915 221.722 32.7776 221.722 33.1802C221.722 33.5828 221.882 33.9689 222.166 34.2536C222.451 34.5383 222.837 34.6982 223.24 34.6982V31.6622ZM224.758 30.1442V29.3852H223.24V30.1442C222.434 30.1442 221.662 30.464 221.093 31.0334C220.524 31.6028 220.204 32.375 220.204 33.1802C220.204 33.9854 220.524 34.7577 221.093 35.327C221.662 35.8964 222.434 36.2163 223.24 36.2163V39.2523C222.579 39.2523 222.017 38.8311 221.807 38.2405C221.776 38.1439 221.726 38.0545 221.66 37.9776C221.594 37.9007 221.513 37.8379 221.422 37.7929C221.331 37.7478 221.232 37.7215 221.131 37.7154C221.029 37.7092 220.928 37.7235 220.832 37.7573C220.736 37.7911 220.648 37.8438 220.573 37.9122C220.498 37.9806 220.438 38.0633 220.395 38.1555C220.353 38.2477 220.33 38.3474 220.326 38.4489C220.323 38.5503 220.34 38.6513 220.377 38.746C220.586 39.3381 220.974 39.8506 221.487 40.2131C221.999 40.5756 222.612 40.7703 223.24 40.7703V41.5293H224.758V40.7703C225.563 40.7703 226.335 40.4505 226.905 39.8811C227.474 39.3117 227.794 38.5395 227.794 37.7343C227.794 36.9291 227.474 36.1568 226.905 35.5875C226.335 35.0181 225.563 34.6982 224.758 34.6982V31.6622C225.418 31.6622 225.98 32.0834 226.19 32.674C226.221 32.7706 226.271 32.86 226.337 32.9369C226.404 33.0138 226.485 33.0766 226.576 33.1216C226.667 33.1667 226.766 33.193 226.867 33.1991C226.968 33.2052 227.07 33.191 227.165 33.1572C227.261 33.1234 227.349 33.0707 227.424 33.0023C227.499 32.9339 227.559 32.8512 227.602 32.759C227.644 32.6668 227.668 32.5671 227.671 32.4656C227.674 32.3642 227.657 32.2631 227.621 32.1685C227.411 31.5764 227.024 31.0639 226.511 30.7014C225.998 30.3389 225.386 30.1442 224.758 30.1442ZM224.758 36.2163V39.2523C225.16 39.2523 225.546 39.0924 225.831 38.8077C226.116 38.523 226.276 38.1369 226.276 37.7343C226.276 37.3317 226.116 36.9456 225.831 36.6609C225.546 36.3762 225.16 36.2163 224.758 36.2163Z" fill="white"/>
<path d="M30.65 100.725V98.0251H33.35V100.725H30.65ZM29.3 88.5751H34.7V85.8751H29.3V88.5751ZM21.2 108.825C20.4575 108.825 19.8217 108.56 19.2925 108.031C18.7633 107.502 18.4991 106.867 18.5 106.125V100.725H27.95V102.075C27.95 102.458 28.0796 102.778 28.3388 103.038C28.598 103.297 28.9184 103.426 29.3 103.425H34.7C35.0825 103.425 35.4034 103.295 35.6626 103.036C35.9218 102.777 36.0509 102.457 36.05 102.075V100.725H45.5V106.125C45.5 106.868 45.2354 107.503 44.7062 108.033C44.177 108.562 43.5416 108.826 42.8 108.825H21.2ZM18.5 98.0251V91.2751C18.5 90.5326 18.7646 89.8967 19.2938 89.3675C19.823 88.8383 20.4584 88.5742 21.2 88.5751H26.6V85.8751C26.6 85.1326 26.8646 84.4967 27.3938 83.9675C27.923 83.4383 28.5584 83.1742 29.3 83.1751H34.7C35.4425 83.1751 36.0783 83.4397 36.6075 83.9689C37.1367 84.4981 37.4009 85.1335 37.4 85.8751V88.5751H42.8C43.5425 88.5751 44.1783 88.8397 44.7075 89.3689C45.2367 89.8981 45.5009 90.5335 45.5 91.2751V98.0251H36.05V96.6751C36.05 96.2926 35.9204 95.9717 35.6612 95.7125C35.402 95.4533 35.0816 95.3242 34.7 95.3251H29.3C28.9175 95.3251 28.5967 95.4547 28.3375 95.7139C28.0783 95.9731 27.9491 96.2935 27.95 96.6751V98.0251H18.5Z" fill="white"/>
<g clip-path="url(#clip0_669_89135)">
<path d="M105 97.501H103.98L100.98 100.501H103.845L106.5 103.501H85.5L88.17 100.501H91.245L88.245 97.501H87L82.5 102.001V108.001C82.5 108.797 82.8161 109.56 83.3787 110.122C83.9413 110.685 84.7044 111.001 85.5 111.001H106.5C107.296 111.001 108.059 110.685 108.621 110.122C109.184 109.56 109.5 108.797 109.5 108.001V102.001L105 97.501ZM103.5 89.926L96.075 97.351L90.75 92.041L98.19 84.616L103.5 89.926ZM97.14 81.436L87.585 90.991C87.4459 91.1298 87.3356 91.2946 87.2604 91.4761C87.1851 91.6576 87.1463 91.8521 87.1463 92.0485C87.1463 92.245 87.1851 92.4395 87.2604 92.621C87.3356 92.8024 87.4459 92.9673 87.585 93.106L95.01 100.501C95.595 101.116 96.54 101.116 97.125 100.501L106.665 90.991C106.804 90.8523 106.914 90.6874 106.99 90.506C107.065 90.3245 107.104 90.13 107.104 89.9335C107.104 89.7371 107.065 89.5426 106.99 89.3611C106.914 89.1796 106.804 89.0148 106.665 88.876L99.24 81.451C99.1047 81.3094 98.9423 81.1965 98.7624 81.1188C98.5826 81.0412 98.389 81.0005 98.1932 80.9991C97.9973 80.9977 97.8032 81.0356 97.6222 81.1107C97.4413 81.1857 97.2773 81.2964 97.14 81.436Z" fill="white"/>
</g>
<path d="M169.024 103.714C169.767 103.714 170.386 103.962 170.881 104.457C171.252 104.952 171.5 105.571 171.5 106.19L161.595 109.905L152.929 107.429V96.2856H155.281L164.319 99.6285C164.938 99.8761 165.31 100.371 165.31 100.99C165.31 101.362 165.186 101.733 164.938 101.981C164.69 102.229 164.195 102.476 163.824 102.476H160.357L158.129 101.609L157.757 102.724L160.357 103.714H169.024ZM146.5 96.2856H151.452V109.905H146.5V96.2856Z" fill="white"/>
<path d="M163.5 86.0952C160.187 86.0952 157.5 88.7818 157.5 92.0952C157.5 95.4086 160.187 98.0952 163.5 98.0952C166.813 98.0952 169.5 95.4086 169.5 92.0952C169.5 88.7818 166.813 86.0952 163.5 86.0952ZM163.799 95.0041L163.801 95.4287C163.801 95.4876 163.753 95.5372 163.694 95.5372H163.314C163.255 95.5372 163.207 95.489 163.207 95.43V95.0095C162.017 94.9211 161.458 94.2434 161.397 93.5068C161.392 93.4439 161.442 93.3903 161.504 93.3903H162.123C162.175 93.3903 162.221 93.4278 162.229 93.4787C162.297 93.9033 162.628 94.2207 163.221 94.2997V92.3885L162.891 92.3041C162.19 92.1367 161.523 91.7001 161.523 90.7948C161.523 89.8184 162.265 89.2934 163.213 89.201V88.7591C163.213 88.7001 163.262 88.6519 163.321 88.6519H163.697C163.756 88.6519 163.804 88.7001 163.804 88.7591V89.197C164.721 89.2894 165.41 89.8251 165.49 90.6595C165.497 90.7224 165.447 90.7774 165.383 90.7774H164.782C164.728 90.7774 164.683 90.7372 164.676 90.6849C164.622 90.2939 164.309 89.9751 163.799 89.9055V91.7041L164.139 91.7832C165.007 91.9974 165.597 92.4126 165.597 93.3421C165.597 94.3506 164.847 94.9131 163.799 95.0041ZM162.356 90.7332C162.356 91.0733 162.567 91.3372 163.019 91.5006C163.082 91.526 163.145 91.5461 163.22 91.5675V89.9068C162.726 89.9698 162.356 90.247 162.356 90.7332ZM163.917 92.5439C163.879 92.5358 163.842 92.5265 163.799 92.5144V94.305C164.369 94.2541 164.763 93.9408 164.763 93.4158C164.763 93.0046 164.55 92.7367 163.917 92.5439Z" fill="white"/>
<circle cx="163.5" cy="92.0952" r="9.3" stroke="white" stroke-width="1.4" stroke-dasharray="3 3"/>
<g clip-path="url(#clip1_669_89135)">
<path fill-rule="evenodd" clip-rule="evenodd" d="M225 96C223.343 96 222 97.3431 222 99V106C222 107.657 223.343 109 225 109H230C230.552 109 231 108.552 231 108V103.5H225C224.448 103.5 224 103.052 224 102.5C224 101.948 224.448 101.5 225 101.5H231V97C231 96.4477 230.552 96 230 96H225Z" fill="white"/>
<path d="M234 99L238 102.5L234 106" stroke="white" stroke-width="2" stroke-linecap="round" stroke-linejoin="round"/>
<path d="M237 102.5H231" stroke="white" stroke-width="2"/>
<path fill-rule="evenodd" clip-rule="evenodd" d="M214 84C214 83.4477 214.448 83 215 83H222C223.657 83 225 84.3431 225 86V95H224C222.343 95 221 96.3431 221 98H215C214.448 98 214 97.5523 214 97V91.5H219.339L217.341 93.2474C216.926 93.6111 216.884 94.2429 217.247 94.6585C217.611 95.0742 218.243 95.1163 218.659 94.7526L222.659 91.2526C222.876 91.0627 223 90.7884 223 90.5C223 90.2117 222.876 89.9373 222.659 89.7474L218.659 86.2474C218.243 85.8838 217.611 85.9259 217.247 86.3415C216.884 86.7571 216.926 87.3889 217.341 87.7526L219.339 89.5H214V84Z" fill="white"/>
<path d="M210 91.5C209.448 91.5 209 91.0523 209 90.5C209 89.9477 209.448 89.5 210 89.5V91.5ZM214 91.5H210V89.5H214V91.5Z" fill="white"/>
</g>
<path fill-rule="evenodd" clip-rule="evenodd" d="M288.028 82C284.6 82 281.477 83.1324 279.628 84.0577C279.461 84.1412 279.306 84.2231 279.161 84.3021C278.874 84.4584 278.629 84.6042 278.435 84.7324L280.538 87.8277L281.527 88.2216C285.395 90.173 290.582 90.173 294.451 88.2216L295.574 87.6387L297.562 84.7324C297.151 84.4638 296.722 84.2212 296.28 84.0061C294.441 83.0907 291.391 82 288.028 82ZM283.139 85.5036C282.394 85.3643 281.659 85.1798 280.937 84.951C282.668 84.1822 285.248 83.3662 288.028 83.3662C289.954 83.3662 291.775 83.7579 293.281 84.2543C291.516 84.5025 289.633 84.9237 287.839 85.4421C286.427 85.8505 284.777 85.8064 283.139 85.5036ZM295.253 89.3472L295.066 89.4413C290.811 91.5878 285.167 91.5878 280.912 89.4413L280.735 89.3518C274.343 96.3658 269.462 109.322 288.028 109.322C306.594 109.322 301.595 96.1237 295.253 89.3472ZM287.24 95.6622C286.837 95.6622 286.451 95.8221 286.166 96.1068C285.882 96.3915 285.722 96.7776 285.722 97.1802C285.722 97.5828 285.882 97.9689 286.166 98.2536C286.451 98.5383 286.837 98.6982 287.24 98.6982V95.6622ZM288.758 94.1442V93.3852H287.24V94.1442C286.434 94.1442 285.662 94.464 285.093 95.0334C284.524 95.6028 284.204 96.375 284.204 97.1802C284.204 97.9854 284.524 98.7577 285.093 99.327C285.662 99.8964 286.434 100.216 287.24 100.216V103.252C286.579 103.252 286.017 102.831 285.807 102.241C285.776 102.144 285.726 102.055 285.66 101.978C285.594 101.901 285.513 101.838 285.422 101.793C285.331 101.748 285.232 101.721 285.131 101.715C285.029 101.709 284.928 101.724 284.832 101.757C284.736 101.791 284.648 101.844 284.573 101.912C284.498 101.981 284.438 102.063 284.395 102.155C284.353 102.248 284.33 102.347 284.326 102.449C284.323 102.55 284.34 102.651 284.377 102.746C284.586 103.338 284.974 103.851 285.487 104.213C285.999 104.576 286.612 104.77 287.24 104.77V105.529H288.758V104.77C289.563 104.77 290.335 104.45 290.905 103.881C291.474 103.312 291.794 102.539 291.794 101.734C291.794 100.929 291.474 100.157 290.905 99.5875C290.335 99.0181 289.563 98.6982 288.758 98.6982V95.6622C289.418 95.6622 289.98 96.0834 290.19 96.674C290.221 96.7706 290.271 96.86 290.337 96.9369C290.404 97.0138 290.485 97.0766 290.576 97.1216C290.667 97.1667 290.766 97.193 290.867 97.1991C290.968 97.2052 291.07 97.191 291.165 97.1572C291.261 97.1234 291.349 97.0707 291.424 97.0023C291.499 96.9339 291.559 96.8512 291.602 96.759C291.644 96.6668 291.668 96.5671 291.671 96.4656C291.674 96.3642 291.657 96.2631 291.621 96.1685C291.411 95.5764 291.024 95.0639 290.511 94.7014C289.998 94.3389 289.386 94.1442 288.758 94.1442ZM288.758 100.216V103.252C289.16 103.252 289.546 103.092 289.831 102.808C290.116 102.523 290.276 102.137 290.276 101.734C290.276 101.332 290.116 100.946 289.831 100.661C289.546 100.376 289.16 100.216 288.758 100.216Z" fill="white"/>
<g clip-path="url(#clip2_669_89135)">
<path d="M41 161.501H39.98L36.98 164.501H39.845L42.5 167.501H21.5L24.17 164.501H27.245L24.245 161.501H23L18.5 166.001V172.001C18.5 172.797 18.8161 173.56 19.3787 174.122C19.9413 174.685 20.7044 175.001 21.5 175.001H42.5C43.2956 175.001 44.0587 174.685 44.6213 174.122C45.1839 173.56 45.5 172.797 45.5 172.001V166.001L41 161.501ZM39.5 153.926L32.075 161.351L26.75 156.041L34.19 148.616L39.5 153.926ZM33.14 145.436L23.585 154.991C23.4459 155.13 23.3356 155.295 23.2604 155.476C23.1851 155.658 23.1463 155.852 23.1463 156.049C23.1463 156.245 23.1851 156.44 23.2604 156.621C23.3356 156.802 23.4459 156.967 23.585 157.106L31.01 164.501C31.595 165.116 32.54 165.116 33.125 164.501L42.665 154.991C42.8041 154.852 42.9144 154.687 42.9896 154.506C43.0649 154.325 43.1037 154.13 43.1037 153.934C43.1037 153.737 43.0649 153.543 42.9896 153.361C42.9144 153.18 42.8041 153.015 42.665 152.876L35.24 145.451C35.1047 145.309 34.9423 145.196 34.7624 145.119C34.5826 145.041 34.389 145 34.1932 144.999C33.9973 144.998 33.8032 145.036 33.6222 145.111C33.4413 145.186 33.2773 145.296 33.14 145.436Z" fill="white"/>
</g>
<path d="M94.4535 163.937C94.4535 164.292 94.3285 164.594 94.0785 164.844L91.0629 167.859C90.8129 168.109 90.5056 168.234 90.1411 168.234C89.7765 168.234 89.4692 168.114 89.2192 167.875C88.9692 167.635 88.8442 167.328 88.8442 166.953C88.8442 166.588 88.9692 166.281 89.2192 166.031L92.2348 163.016C92.4848 162.766 92.7921 162.641 93.1566 162.641C93.5212 162.641 93.8285 162.766 94.0785 163.016C94.3285 163.266 94.4535 163.573 94.4535 163.937ZM91.2504 162.312C91.2504 162.677 91.1254 162.984 90.8754 163.234L88.6411 165.453C88.3911 165.703 88.089 165.828 87.7349 165.828C87.3703 165.828 87.063 165.708 86.813 165.469C86.563 165.229 86.438 164.922 86.438 164.547C86.438 164.182 86.563 163.875 86.813 163.625L89.0317 161.391C89.1463 161.276 89.2869 161.187 89.4536 161.125C89.6202 161.062 89.7869 161.026 89.9536 161.016C90.3181 161.016 90.6254 161.141 90.8754 161.391C91.1254 161.641 91.2504 161.948 91.2504 162.312ZM96.6409 166.578C96.6409 166.922 96.5107 167.224 96.2503 167.484L93.4691 170.265C93.2191 170.515 92.9118 170.64 92.5473 170.64C92.1827 170.64 91.8754 170.521 91.6254 170.281C91.3754 170.041 91.2504 169.734 91.2504 169.359C91.2504 168.995 91.3754 168.687 91.6254 168.437L94.4222 165.656C94.6826 165.396 94.9847 165.265 95.3285 165.265C95.6826 165.265 95.9899 165.39 96.2503 165.64C96.5107 165.89 96.6409 166.203 96.6409 166.578ZM94.9535 173.062C94.5889 173.062 94.2816 172.937 94.0316 172.687C93.7816 172.437 93.6566 172.13 93.6566 171.765C93.6566 171.401 93.7816 171.093 94.0316 170.843L96.1409 168.75C96.4013 168.489 96.7086 168.359 97.0628 168.359C97.4274 168.359 97.7346 168.489 97.9846 168.75C98.2346 169.01 98.3596 169.323 98.3596 169.687C98.3596 169.854 98.3232 170.015 98.2503 170.172C98.1773 170.328 98.0836 170.463 97.969 170.578L95.8753 172.687C95.6253 172.937 95.318 173.062 94.9535 173.062ZM110 155.047C110 155.964 109.88 156.766 109.641 157.453C109.401 158.141 109.078 158.781 108.672 159.375C108.266 159.969 107.797 160.531 107.266 161.062C106.734 161.594 106.172 162.167 105.578 162.781L96.3597 153.516L91.7192 158.125C91.4067 158.417 91.0421 158.562 90.6254 158.562C90.1984 158.562 89.839 158.417 89.5473 158.125C89.2557 157.833 89.1046 157.469 89.0942 157.031C89.0942 156.604 89.2453 156.24 89.5473 155.938L96.2347 149.281C97.0055 148.521 97.8805 147.943 98.8596 147.547C99.8388 147.151 100.87 146.948 101.953 146.938C103.068 146.938 104.115 147.151 105.094 147.578C106.073 148.005 106.922 148.589 107.641 149.328C108.359 150.068 108.932 150.927 109.359 151.906C109.786 152.886 110 153.932 110 155.047ZM105.75 164.484C105.75 164.849 105.625 165.156 105.375 165.406C105.125 165.656 104.818 165.781 104.453 165.781C104.099 165.781 103.797 165.656 103.547 165.406L98.7503 160.594C98.6773 160.521 98.5784 160.484 98.4534 160.484C98.3388 160.484 98.2398 160.521 98.1565 160.594C98.0732 160.667 98.0315 160.766 98.0315 160.891C98.0315 160.995 98.0732 161.088 98.1565 161.172L103.406 166.422C103.667 166.682 103.797 166.989 103.797 167.344C103.797 167.708 103.672 168.015 103.422 168.265C103.172 168.515 102.86 168.64 102.485 168.64C102.13 168.64 101.828 168.515 101.578 168.265L96.3284 163.016C96.2555 162.943 96.1566 162.906 96.0316 162.906C95.917 162.906 95.8232 162.943 95.7503 163.016C95.6774 163.088 95.6357 163.187 95.6253 163.312C95.6253 163.417 95.667 163.51 95.7503 163.594L101 168.844C101.25 169.093 101.375 169.401 101.375 169.765C101.375 170.13 101.25 170.437 101 170.687C100.75 170.937 100.443 171.062 100.078 171.062C99.8075 171.062 99.5888 171.005 99.4221 170.89C99.2554 170.776 99.0836 170.62 98.9065 170.422C99.0107 170.203 99.0627 169.948 99.0627 169.656C99.0627 169.375 99.0107 169.114 98.9065 168.875C98.8023 168.635 98.6565 168.422 98.469 168.234C98.2815 168.047 98.0628 167.906 97.8128 167.812C97.5628 167.719 97.2972 167.666 97.0159 167.656C97.2242 167.333 97.3284 166.974 97.3284 166.578C97.3284 166.297 97.2763 166.036 97.1722 165.797C97.068 165.557 96.9274 165.344 96.7503 165.156C96.5732 164.969 96.3597 164.823 96.1097 164.719C95.8597 164.614 95.6045 164.562 95.3441 164.562H95.2035C95.1618 164.562 95.1097 164.573 95.0472 164.594C95.0785 164.479 95.1045 164.37 95.1253 164.265C95.1462 164.161 95.1566 164.047 95.1566 163.922C95.1566 163.651 95.1045 163.396 95.0003 163.156C94.8962 162.917 94.7555 162.703 94.5785 162.516C94.4014 162.328 94.1879 162.182 93.9379 162.078C93.6879 161.974 93.4275 161.922 93.1566 161.922C92.9379 161.922 92.7296 161.958 92.5316 162.031C92.3337 162.104 92.141 162.203 91.9535 162.328C91.9535 162.047 91.9014 161.786 91.7973 161.547C91.6931 161.307 91.5525 161.094 91.3754 160.906C91.1983 160.719 90.99 160.573 90.7504 160.469C90.5109 160.365 90.2452 160.312 89.9536 160.312C89.6932 160.312 89.438 160.359 89.188 160.453C88.938 160.547 88.7192 160.693 88.5317 160.891L86.5474 162.891C85.9224 162.255 85.3339 161.667 84.7818 161.125C84.2297 160.583 83.7506 160.01 83.3443 159.406C82.9381 158.802 82.61 158.146 82.36 157.438C82.11 156.729 81.9902 155.896 82.0006 154.938C82.0006 153.833 82.2142 152.797 82.6412 151.828C83.0683 150.86 83.6516 150.016 84.3912 149.297C85.1308 148.578 85.9901 148.005 86.9693 147.578C87.9484 147.151 88.9848 146.938 90.0786 146.938C91.089 146.938 92.0577 147.115 92.9848 147.469C93.9118 147.823 94.7503 148.344 95.5003 149.031L89.0473 155.438C88.839 155.646 88.6776 155.885 88.563 156.156C88.4484 156.427 88.3859 156.719 88.3755 157.031C88.3755 157.344 88.4328 157.635 88.5474 157.906C88.6619 158.177 88.8234 158.411 89.0317 158.609C89.24 158.807 89.4796 158.969 89.7505 159.094C90.0213 159.219 90.3129 159.281 90.6254 159.281C90.9275 159.281 91.214 159.224 91.4848 159.109C91.7556 158.995 92.0004 158.833 92.2191 158.625L96.3597 154.5L105.375 163.562C105.625 163.812 105.75 164.12 105.75 164.484ZM96.6409 172.906L98.3753 171.172C98.4586 171.359 98.5003 171.547 98.5003 171.734C98.5003 172.099 98.3753 172.406 98.1253 172.656C97.8753 172.906 97.568 173.031 97.2034 173.031C97.0159 173.031 96.8284 172.989 96.6409 172.906Z" fill="white"/>
<path d="M163.856 157.2C165.208 157.2 166.306 158.298 166.306 159.65V166.299C166.306 167.97 165.642 169.573 164.46 170.754C163.278 171.936 161.675 172.6 160.004 172.6C158.333 172.6 156.73 171.936 155.548 170.754C154.367 169.573 153.703 167.97 153.703 166.299V159.65C153.703 158.298 154.799 157.2 156.153 157.2H163.856ZM153.183 157.2C152.679 157.807 152.376 158.555 152.315 159.342L152.301 159.65V166.299C152.301 167.484 152.57 168.607 153.049 169.61C152.219 169.831 151.349 169.86 150.507 169.692C149.665 169.524 148.872 169.165 148.191 168.642C147.509 168.119 146.957 167.446 146.577 166.675C146.198 165.905 146 165.057 146 164.199V159.65C146 159.035 146.231 158.443 146.648 157.99C147.064 157.538 147.636 157.259 148.248 157.208L148.45 157.2H153.183ZM166.825 157.2H171.55C172.902 157.2 174 158.298 174 159.65V164.2C174 165.058 173.803 165.905 173.424 166.675C173.044 167.446 172.493 168.118 171.813 168.641C171.132 169.164 170.34 169.524 169.498 169.692C168.657 169.861 167.787 169.833 166.958 169.612C167.378 168.733 167.636 167.764 167.693 166.74L167.706 166.299V159.65C167.706 158.719 167.377 157.865 166.825 157.2ZM160 147.4C161.114 147.4 162.182 147.842 162.97 148.63C163.758 149.418 164.2 150.486 164.2 151.6C164.2 152.714 163.758 153.782 162.97 154.57C162.182 155.357 161.114 155.8 160 155.8C158.886 155.8 157.818 155.357 157.03 154.57C156.242 153.782 155.8 152.714 155.8 151.6C155.8 150.486 156.242 149.418 157.03 148.63C157.818 147.842 158.886 147.4 160 147.4ZM169.1 148.8C170.028 148.8 170.918 149.169 171.575 149.825C172.231 150.481 172.6 151.372 172.6 152.3C172.6 153.228 172.231 154.118 171.575 154.775C170.918 155.431 170.028 155.8 169.1 155.8C168.172 155.8 167.282 155.431 166.625 154.775C165.969 154.118 165.6 153.228 165.6 152.3C165.6 151.372 165.969 150.481 166.625 149.825C167.282 149.169 168.172 148.8 169.1 148.8ZM150.9 148.8C151.828 148.8 152.718 149.169 153.375 149.825C154.031 150.481 154.4 151.372 154.4 152.3C154.4 153.228 154.031 154.118 153.375 154.775C152.718 155.431 151.828 155.8 150.9 155.8C149.972 155.8 149.082 155.431 148.425 154.775C147.769 154.118 147.4 153.228 147.4 152.3C147.4 151.372 147.769 150.481 148.425 149.825C149.082 149.169 149.972 148.8 150.9 148.8Z" fill="white"/>
<path fill-rule="evenodd" clip-rule="evenodd" d="M223.612 171.168V173.138H214.183C213.766 173.138 213.367 172.971 213.072 172.673C212.777 172.375 212.612 171.971 212.612 171.549V162.016H216.584C216.391 161.723 216.278 161.371 216.278 160.992C216.278 159.968 217.099 159.138 218.112 159.138C219.124 159.138 219.945 159.968 219.945 160.992C219.945 161.371 219.833 161.723 219.64 162.016H223.612V163.987C222.03 164.398 220.862 165.85 220.862 167.577C220.862 169.305 222.03 170.756 223.612 171.168Z" fill="white"/>
<path fill-rule="evenodd" clip-rule="evenodd" d="M213.135 157.862H211.165V148.433C211.165 148.016 211.332 147.617 211.63 147.322C211.928 147.027 212.332 146.862 212.753 146.862H222.287V150.834C222.58 150.641 222.932 150.528 223.311 150.528C224.335 150.528 225.165 151.349 225.165 152.362C225.165 153.374 224.335 154.195 223.311 154.195C222.932 154.195 222.58 154.083 222.287 153.89V157.862H220.316C219.905 156.28 218.453 155.112 216.726 155.112C214.998 155.112 213.547 156.28 213.135 157.862Z" fill="white"/>
<path fill-rule="evenodd" clip-rule="evenodd" d="M225.836 151.385V149.415H235.264C235.681 149.415 236.081 149.582 236.375 149.88C236.67 150.178 236.836 150.582 236.836 151.003V160.537H232.864C233.057 160.83 233.169 161.182 233.169 161.561C233.169 162.585 232.348 163.415 231.336 163.415C230.323 163.415 229.502 162.585 229.502 161.561C229.502 161.182 229.615 160.83 229.807 160.537H225.836V158.566C227.417 158.155 228.586 156.703 228.586 154.976C228.586 153.248 227.417 151.797 225.836 151.385Z" fill="white"/>
<path fill-rule="evenodd" clip-rule="evenodd" d="M234.865 162.138H236.836V171.567C236.836 171.984 236.668 172.383 236.37 172.678C236.072 172.973 235.668 173.138 235.247 173.138H225.714V169.166C225.42 169.359 225.068 169.472 224.689 169.472C223.666 169.472 222.836 168.651 222.836 167.638C222.836 166.626 223.666 165.805 224.689 165.805C225.068 165.805 225.42 165.917 225.714 166.11V162.138H227.684C228.096 163.72 229.547 164.888 231.275 164.888C233.002 164.888 234.454 163.72 234.865 162.138Z" fill="white"/>
<defs>
<clipPath id="clip0_669_89135">
<rect width="30" height="30" fill="white" transform="translate(81 81)"/>
</clipPath>
<clipPath id="clip1_669_89135">
<rect width="30" height="30" fill="white" transform="translate(209 81)"/>
</clipPath>
<clipPath id="clip2_669_89135">
<rect width="30" height="30" fill="white" transform="translate(17 145)"/>
</clipPath>
</defs>
</svg>
