<svg width="60" height="60" viewBox="0 0 60 60" fill="none" xmlns="http://www.w3.org/2000/svg">
<path fill-rule="evenodd" clip-rule="evenodd" d="M25.5998 15C25.5998 16.9882 23.988 18.6 21.9998 18.6C20.0116 18.6 18.3998 16.9882 18.3998 15C18.3998 13.0118 20.0116 11.4 21.9998 11.4C23.988 11.4 25.5998 13.0118 25.5998 15ZM27.9998 15C27.9998 18.3137 25.3135 21 21.9998 21C18.6861 21 15.9998 18.3137 15.9998 15C15.9998 11.6863 18.6861 9 21.9998 9C25.3135 9 27.9998 11.6863 27.9998 15ZM15.9998 22.8C12.5756 22.8 9.7998 25.5758 9.7998 29V35C9.7998 35.6627 10.3371 36.2 10.9998 36.2C11.6625 36.2 12.1998 35.6627 12.1998 35V29C12.1998 26.9013 13.9011 25.2 15.9998 25.2H27.9998C30.0985 25.2 31.7998 26.9013 31.7998 29V35C31.7998 35.6627 32.3371 36.2 32.9998 36.2C33.6625 36.2 34.1998 35.6627 34.1998 35V29C34.1998 25.5758 31.424 22.8 27.9998 22.8H15.9998Z" fill="url(#paint0_linear_1786_183072)"/>
<path d="M17 5.44531H27" stroke="#2F2E7C" stroke-width="2" stroke-linecap="round"/>
<path d="M16 53H28" stroke="#2F2E7C" stroke-width="2" stroke-linecap="round"/>
<path d="M41 31.0752V7C41 3.68629 38.3137 1 35 1H9C5.68629 1 3 3.6863 3 7.00001V52.6462C3 55.9599 5.68629 58.6462 9 58.6462H35C38.3137 58.6462 41 55.9599 41 52.6462V51.5821" stroke="#2F2E7C" stroke-width="2"/>
<path fill-rule="evenodd" clip-rule="evenodd" d="M55 42C55 47.5228 50.5228 52 45 52C39.4772 52 35 47.5228 35 42C35 36.4772 39.4772 32 45 32C50.5228 32 55 36.4772 55 42ZM57 42C57 48.6274 51.6274 54 45 54C38.3726 54 33 48.6274 33 42C33 35.3726 38.3726 30 45 30C51.6274 30 57 35.3726 57 42ZM51.7562 38.6544C52.1176 38.2368 52.072 37.6052 51.6544 37.2438C51.2368 36.8824 50.6052 36.928 50.2438 37.3456L44.0417 44.5126L39.7243 39.9772C39.3435 39.5772 38.7105 39.5616 38.3105 39.9424C37.9105 40.3232 37.8949 40.9561 38.2757 41.3561L43.3526 46.6895C43.5471 46.8937 43.8187 47.0064 44.1006 46.9997C44.3826 46.993 44.6486 46.8676 44.8331 46.6544L51.7562 38.6544Z" fill="#2F2E7C"/>
<defs>
<linearGradient id="paint0_linear_1786_183072" x1="21.9998" y1="9" x2="21.9998" y2="36.2" gradientUnits="userSpaceOnUse">
<stop stop-color="#4D39EC"/>
<stop offset="0.489583" stop-color="#3296FC"/>
<stop offset="1" stop-color="#0EC3B7"/>
</linearGradient>
</defs>
</svg>
