<svg width="80" height="80" viewBox="0 0 80 80" fill="none" xmlns="http://www.w3.org/2000/svg">
<path d="M22.6328 34.0567V27.8504L27.8555 22.3491L28.726 21.557C28.9898 21.3222 29.3304 21.1922 29.6835 21.1914H51.5668V51.8489C51.5668 53.3826 50.9581 54.8536 49.8744 55.9389C48.7907 57.0242 47.3206 57.6351 45.7869 57.6374H22.6328V34.0567Z" fill="white"/>
<g opacity="0.2">
<path d="M16.8555 36.7859V29.9528L22.5831 23.9118L23.6015 23.0414C23.8653 22.8066 24.2059 22.6766 24.559 22.6758H48.6532V56.9195C48.6532 58.4547 48.0434 59.9271 46.9578 61.0126C45.8722 62.0982 44.3999 62.708 42.8647 62.708H16.8555V36.7859Z" fill="#0055FF"/>
</g>
<path d="M22.6328 34.0567V27.8504L27.8555 22.3491L28.726 21.557C28.9898 21.3222 29.3304 21.1922 29.6835 21.1914H51.5668V51.8489C51.5668 53.3826 50.9581 54.8536 49.8744 55.9389C48.7907 57.0242 47.3206 57.6351 45.7869 57.6374H22.6328V34.0567Z" fill="white"/>
<path d="M73.2775 74H6.72248C6.53087 74 6.3471 73.9239 6.21161 73.7884C6.07612 73.6529 6 73.4691 6 73.2775V6.72248C6 6.53087 6.07612 6.3471 6.21161 6.21161C6.3471 6.07612 6.53087 6 6.72248 6H73.2775C73.4691 6 73.6529 6.07612 73.7884 6.21161C73.9239 6.3471 74 6.53087 74 6.72248V73.2775C73.9977 73.4684 73.9209 73.6509 73.7859 73.7859C73.6509 73.9209 73.4684 73.9977 73.2775 74ZM7.44496 72.5463H72.5463V7.44496H7.44496V72.5463Z" fill="#0044CC"/>
<g opacity="0.2">
<path d="M35.655 36.3299L48.7119 29.8711L61.7687 36.3299V46.1921C61.3155 48.6073 60.3326 50.892 58.8907 52.8817C57.4488 54.8715 55.5837 56.5169 53.4297 57.6996L48.6509 60.2587L43.2541 57.4645C41.1393 56.3764 39.3323 54.7735 37.9998 52.8036C36.6672 50.8336 35.8519 48.56 35.6289 46.1921L35.655 36.3299Z" fill="#0055FF"/>
</g>
<path d="M48.6507 60.9746C48.5359 60.9745 48.4227 60.9476 48.32 60.8962L42.9144 58.1021C40.6874 56.9649 38.7848 55.2818 37.3844 53.2101C35.9839 51.1384 35.1314 48.7456 34.9063 46.2552V36.3233C34.9061 36.1881 34.9435 36.0555 35.0141 35.9402C35.0848 35.825 35.1861 35.7316 35.3067 35.6704L48.3635 29.2203C48.4643 29.173 48.5742 29.1484 48.6856 29.1484C48.7969 29.1484 48.9069 29.173 49.0076 29.2203L62.0645 35.6704C62.185 35.7316 62.2863 35.825 62.357 35.9402C62.4277 36.0555 62.465 36.1881 62.4649 36.3233V46.1855C62.0126 48.7299 60.996 51.1406 59.4896 53.2404C57.9833 55.3403 56.0256 57.0759 53.7603 58.3197L49.0773 60.931C48.9409 60.9809 48.7943 60.9958 48.6507 60.9746ZM36.3773 36.7672V46.1855C36.592 48.4224 37.3674 50.5691 38.6318 52.4268C39.8961 54.2846 41.6086 55.7934 43.6108 56.8138L48.6682 59.4251L53.0204 57.0488C55.0802 55.9173 56.8631 54.3426 58.2404 52.4384C59.6178 50.5342 60.5552 48.348 60.9851 46.0375V36.7672L48.6507 30.674L36.3773 36.7672Z" fill="#0044CC"/>
<path d="M30.9455 21.1939V20.4714H30.223V21.1939H30.9455ZM22.6326 27.8529L22.1104 27.3567L21.9102 27.5569V27.8529H22.6326ZM50.8441 27.7658C50.8637 27.9449 50.9488 28.1104 51.0829 28.2306C51.217 28.3509 51.3908 28.4174 51.5709 28.4174C51.7511 28.4174 51.9249 28.3509 52.059 28.2306C52.1931 28.1104 52.2781 27.9449 52.2978 27.7658H50.8441ZM51.5666 21.1678H52.2978C52.2955 20.9754 52.2174 20.7916 52.0806 20.6564C51.9437 20.5211 51.759 20.4453 51.5666 20.4453V21.1678ZM30.9455 28.2185V28.941C31.1371 28.941 31.3209 28.8648 31.4564 28.7294C31.5918 28.5939 31.668 28.4101 31.668 28.2185H30.9455ZM26.1058 27.496C25.9141 27.496 25.7304 27.5721 25.5949 27.7076C25.4594 27.8431 25.3833 28.0269 25.3833 28.2185C25.3833 28.4101 25.4594 28.5939 25.5949 28.7294C25.7304 28.8648 25.9141 28.941 26.1058 28.941V27.496ZM28.3689 22.8217C28.4366 22.7552 28.4903 22.676 28.527 22.5885C28.5637 22.5011 28.5825 22.4073 28.5825 22.3124C28.5825 22.2176 28.5637 22.1238 28.527 22.0363C28.4903 21.9489 28.4366 21.8697 28.3689 21.8032C28.2321 21.6682 28.0476 21.5925 27.8554 21.5925C27.6631 21.5925 27.4786 21.6682 27.3418 21.8032L28.3689 22.8217ZM22.6326 57.6399H21.9102C21.9102 57.8315 21.9863 58.0153 22.1218 58.1508C22.2573 58.2862 22.441 58.3624 22.6326 58.3624V57.6399ZM37.8308 58.3624C38.0217 58.3601 38.2042 58.2833 38.3392 58.1483C38.4742 58.0132 38.551 57.8308 38.5533 57.6399C38.5533 57.4483 38.4772 57.2645 38.3417 57.129C38.2062 56.9935 38.0224 56.9174 37.8308 56.9174V58.3624ZM21.9102 27.8964V34.1028H23.3551V27.8529L21.9102 27.8964ZM52.2978 27.7658V21.1939H50.8441V27.7658H52.2978ZM51.5666 20.4453H30.9455V21.8903H51.5666V20.4453ZM30.223 21.1678V28.2185H31.668V21.1678H30.223ZM30.9455 27.496H26.1058V28.941H30.9455V27.496ZM23.1636 28.3142L28.3863 22.8217L27.3331 21.838L22.1104 27.3306L23.1636 28.3142ZM23.3551 57.6138V34.0592H21.9102V57.6399L23.3551 57.6138ZM22.6326 58.3362H37.8308V56.9174H22.6326V58.3362Z" fill="#0044CC"/>
<path d="M48.6786 53.0252C53.0726 53.0252 56.6346 49.4632 56.6346 45.0692C56.6346 40.6753 53.0726 37.1133 48.6786 37.1133C44.2847 37.1133 40.7227 40.6753 40.7227 45.0692C40.7227 49.4632 44.2847 53.0252 48.6786 53.0252Z" fill="white"/>
<path d="M48.6538 53.7451C46.9322 53.7451 45.2492 53.2345 43.8178 52.2781C42.3863 51.3216 41.2706 49.9621 40.6118 48.3716C39.953 46.781 39.7806 45.0308 40.1165 43.3423C40.4523 41.6538 41.2814 40.1028 42.4987 38.8854C43.7161 37.6681 45.2671 36.8391 46.9556 36.5032C48.6441 36.1673 50.3943 36.3397 51.9849 36.9985C53.5754 37.6574 54.9349 38.773 55.8914 40.2045C56.8478 41.636 57.3583 43.3189 57.3583 45.0405C57.3583 47.3491 56.4413 49.5631 54.8088 51.1955C53.1764 52.828 50.9624 53.7451 48.6538 53.7451ZM48.6538 37.8331C47.2231 37.8331 45.8246 38.2574 44.6351 39.0522C43.4455 39.847 42.5184 40.9767 41.9709 42.2985C41.4234 43.6202 41.2802 45.0746 41.5593 46.4778C41.8384 47.881 42.5273 49.1698 43.5389 50.1815C44.5506 51.1931 45.8394 51.882 47.2426 52.1611C48.6458 52.4402 50.1002 52.297 51.4219 51.7495C52.7437 51.202 53.8734 50.2749 54.6682 49.0853C55.463 47.8958 55.8873 46.4973 55.8873 45.0666C55.885 43.1489 55.1221 41.3104 53.7661 39.9543C52.41 38.5983 50.5715 37.8354 48.6538 37.8331Z" fill="#0044CC"/>
<path d="M32.043 42.8906C34.8817 43.7444 37.9088 43.7444 40.7475 42.8906V47.8261C37.9587 48.9696 34.8318 48.9696 32.043 47.8261V42.8906Z" fill="white"/>
<path d="M36.369 49.4031C34.8109 49.3672 33.2696 49.073 31.8078 48.5327C31.6648 48.4835 31.5408 48.3906 31.4534 48.2673C31.3659 48.1439 31.3194 47.9962 31.3203 47.845V42.8921C31.3199 42.7836 31.344 42.6764 31.3907 42.5784C31.4374 42.4805 31.5056 42.3943 31.5902 42.3263C31.6756 42.2574 31.7761 42.2096 31.8835 42.1869C31.9909 42.1642 32.1022 42.1672 32.2082 42.1957C34.9259 43.0054 37.8207 43.0054 40.5385 42.1957C40.6427 42.1739 40.7505 42.1754 40.8542 42.2001C40.9578 42.2248 41.0547 42.2722 41.1378 42.3387C41.221 42.4053 41.2885 42.4894 41.3353 42.5851C41.3822 42.6807 41.4073 42.7856 41.4089 42.8921V47.8276C41.4092 47.9799 41.3614 48.1284 41.2723 48.2519C41.1832 48.3754 41.0574 48.4675 40.9127 48.5152C39.4566 49.0565 37.9218 49.3564 36.369 49.4031ZM32.7653 47.3053C35.0987 48.1714 37.6654 48.1714 39.9988 47.3053V43.8235C37.6234 44.4112 35.1406 44.4112 32.7653 43.8235V47.3053Z" fill="#0044CC"/>
<path d="M65.3139 42.8906C62.4752 43.7444 59.4481 43.7444 56.6094 42.8906V47.8261C59.3982 48.9696 62.5251 48.9696 65.3139 47.8261V42.8906Z" fill="white"/>
<path d="M60.9936 49.404C59.4272 49.3666 57.8775 49.0726 56.4063 48.5335C56.2617 48.4858 56.1358 48.3936 56.0467 48.2701C55.9576 48.1466 55.9098 47.9981 55.9102 47.8459V42.893C55.9117 42.7864 55.9369 42.6816 55.9837 42.5859C56.0306 42.4903 56.098 42.4061 56.1812 42.3396C56.2644 42.273 56.3613 42.2257 56.4649 42.201C56.5685 42.1763 56.6763 42.1748 56.7806 42.1966C59.4984 43.0062 62.3931 43.0062 65.1109 42.1966C65.2168 42.1674 65.3282 42.164 65.4358 42.1867C65.5433 42.2094 65.6438 42.2576 65.7289 42.3272C65.8146 42.3947 65.8841 42.4806 65.9323 42.5785C65.9805 42.6764 66.0062 42.7839 66.0074 42.893V47.8284C66.0065 47.9804 65.9581 48.1283 65.8692 48.2516C65.7803 48.3748 65.6552 48.4673 65.5113 48.5161C64.0643 49.0577 62.538 49.3577 60.9936 49.404ZM57.3551 47.3062C59.6885 48.1723 62.2552 48.1723 64.5886 47.3062V43.8244C62.2132 44.4121 59.7305 44.4121 57.3551 43.8244V47.3062Z" fill="#0044CC"/>
<g opacity="0.8">
<path d="M47.33 42.9207V46.1588H48.9577C49.1715 46.1567 49.3834 46.1184 49.5845 46.0457C49.7778 45.9584 49.9523 45.8342 50.098 45.6801C50.2421 45.5329 50.3599 45.3621 50.4462 45.1752C50.5329 44.9746 50.5773 44.7583 50.5768 44.5398C50.5781 44.324 50.5336 44.1103 50.4462 43.913C50.3644 43.7184 50.2462 43.5412 50.098 43.3908C49.9467 43.2502 49.7731 43.1355 49.5845 43.0513C49.3868 42.9649 49.1734 42.9204 48.9577 42.9207H47.33ZM47.33 49.3969H45.7109V41.293H48.9577C49.2521 41.293 49.5451 41.334 49.8282 41.4148C50.099 41.4851 50.3574 41.5967 50.5942 41.7456C50.8372 41.8782 51.0576 42.0486 51.247 42.2505C51.666 42.6382 51.9676 43.1359 52.1175 43.6867C52.2005 43.9694 52.2415 44.2626 52.2394 44.5572C52.2405 44.9877 52.1547 45.4141 51.9869 45.8106C51.8133 46.1906 51.568 46.5334 51.2644 46.8204C50.9723 47.1231 50.6192 47.3604 50.2286 47.5167C49.8339 47.6913 49.4067 47.7803 48.9751 47.7779H47.33V49.3969Z" fill="#FF6B00"/>
</g>
</svg>
