<svg width="80" height="80" viewBox="0 0 80 80" fill="none" xmlns="http://www.w3.org/2000/svg">
<g opacity="0.2">
<path d="M25.2344 35.7136C25.2344 35.5199 25.2725 35.328 25.3467 35.149C25.4208 34.97 25.5295 34.8074 25.6665 34.6704C25.8035 34.5334 25.9661 34.4247 26.1451 34.3506C26.3241 34.2764 26.516 34.2383 26.7097 34.2383H47.3915C47.7828 34.2383 48.158 34.3937 48.4347 34.6704C48.7114 34.9471 48.8668 35.3224 48.8668 35.7136V46.9122C48.8668 48.3875 45.8628 50.1473 44.423 50.0229C40.5124 49.7118 34.4776 50.7072 26.9408 51.7382C26.7328 51.766 26.5213 51.7491 26.3203 51.6887C26.1193 51.6282 25.9336 51.5256 25.7754 51.3877C25.6173 51.2497 25.4904 51.0796 25.4032 50.8887C25.316 50.6978 25.2706 50.4905 25.2699 50.2806L25.2344 35.7136Z" fill="#0055FF"/>
</g>
<path d="M34.0955 52.2166H25.2078C23.8375 52.2166 22.5231 51.6728 21.5533 50.7047C20.5835 49.7365 20.0375 48.4231 20.0352 47.0528V23.9447C20.0352 23.7491 20.1129 23.5614 20.2512 23.4231C20.3896 23.2848 20.5772 23.207 20.7728 23.207H33.8111C34.3562 23.2066 34.8946 23.3267 35.3878 23.5587C35.8811 23.7907 36.3169 24.1289 36.6641 24.5491L39.4193 27.882H56.2526C56.4483 27.882 56.6359 27.9597 56.7743 28.098C56.9126 28.2364 56.9903 28.424 56.9903 28.6197V33.5523C56.9903 33.748 56.9126 33.9356 56.7743 34.074C56.6359 34.2123 56.4483 34.29 56.2526 34.29C56.057 34.29 55.8694 34.2123 55.731 34.074C55.5927 33.9356 55.515 33.748 55.515 33.5523V29.3129H39.0727C38.964 29.3137 38.8565 29.2902 38.7581 29.244C38.6596 29.1979 38.5728 29.1303 38.5039 29.0463L35.5265 25.4467C35.3183 25.1932 35.0565 24.9892 34.7598 24.8493C34.4632 24.7094 34.1391 24.6372 33.8111 24.638H21.5372V47.0528C21.5325 47.5409 21.6247 48.0251 21.8085 48.4773C21.9923 48.9295 22.2641 49.3407 22.608 49.6871C22.9519 50.0335 23.3611 50.3082 23.812 50.4952C24.2628 50.6823 24.7464 50.778 25.2345 50.7768H34.1222C34.3178 50.7768 34.5055 50.8545 34.6438 50.9928C34.7822 51.1312 34.8599 51.3188 34.8599 51.5144C34.8599 51.7101 34.7822 51.8977 34.6438 52.0361C34.5055 52.1744 34.3178 52.2521 34.1222 52.2521L34.0955 52.2166Z" fill="#0044CC"/>
<path d="M31.8712 28.8191H25.4721C25.2764 28.8191 25.0888 28.7414 24.9504 28.6031C24.8121 28.4647 24.7344 28.2771 24.7344 28.0814C24.7344 27.8858 24.8121 27.6982 24.9504 27.5598C25.0888 27.4215 25.2764 27.3438 25.4721 27.3438H31.8712C32.0669 27.3438 32.2545 27.4215 32.3928 27.5598C32.5312 27.6982 32.6089 27.8858 32.6089 28.0814C32.6089 28.2771 32.5312 28.4647 32.3928 28.6031C32.2545 28.7414 32.0669 28.8191 31.8712 28.8191Z" fill="#0044CC"/>
<path d="M40.0044 79.2944C39.8738 79.2935 39.7455 79.2599 39.6312 79.1967L6.37328 59.9903C6.26016 59.926 6.16604 59.833 6.10049 59.7206C6.03493 59.6082 6.00026 59.4805 6 59.3504V20.9465C6.00026 20.8164 6.03493 20.6887 6.10049 20.5763C6.16604 20.4639 6.26016 20.3709 6.37328 20.3066L39.6312 1.10023C39.743 1.0346 39.8703 1 40 1C40.1297 1 40.257 1.0346 40.3688 1.10023L73.6356 20.3066C73.7465 20.3727 73.8383 20.4664 73.9022 20.5785C73.9661 20.6907 73.9998 20.8175 74 20.9465V59.3504C73.9998 59.4794 73.9661 59.6062 73.9022 59.7184C73.8383 59.8306 73.7465 59.9242 73.6356 59.9903L40.3688 79.2145C40.2557 79.2705 40.1306 79.2979 40.0044 79.2944ZM7.47536 58.9238L40.0044 77.7035L72.5246 58.9238V21.3731L40.0044 2.59336L7.47536 21.3731V58.9238Z" fill="#0044CC"/>
<path d="M62.2665 58.6108H35.6033C35.4999 58.6106 35.3977 58.5892 35.3029 58.5479C35.2081 58.5067 35.1228 58.4464 35.0523 58.3708C34.9166 58.2102 34.8495 58.0027 34.8656 57.7931L35.2745 53.767C35.4154 52.9228 35.7273 52.1163 36.1911 51.397C36.6548 50.6777 37.2606 50.0607 37.9713 49.5838C38.682 49.1069 39.4826 48.7803 40.3241 48.6239C41.1655 48.4675 42.03 48.4847 42.8646 48.6743L46.8996 49.5631C48.1702 49.8429 49.4864 49.8429 50.7569 49.5631L54.863 48.6743C55.7061 48.4837 56.5789 48.4646 57.4294 48.6182C58.28 48.7718 59.091 49.095 59.8141 49.5685C60.5372 50.042 61.1576 50.6562 61.6385 51.3744C62.1194 52.0926 62.4508 52.9002 62.6131 53.7492L63.0308 56.3355V57.882C63.0285 57.98 63.0069 58.0767 62.9673 58.1664C62.9276 58.2561 62.8707 58.3371 62.7997 58.4047C62.7287 58.4724 62.6451 58.5255 62.5536 58.5608C62.4621 58.5962 62.3646 58.6131 62.2665 58.6108ZM36.3854 57.1354H61.5288V56.4066L61.1022 53.9536C60.9808 53.3086 60.7311 52.6945 60.3677 52.1479C60.0043 51.6013 59.5347 51.1333 58.9869 50.7718C58.428 50.4043 57.8006 50.1535 57.1423 50.0344C56.4841 49.9153 55.8086 49.9303 55.1563 50.0786L51.0591 50.9673C49.5755 51.3005 48.0366 51.3005 46.553 50.9673L42.5091 50.0786C41.873 49.9339 41.214 49.9202 40.5725 50.0383C39.9309 50.1564 39.32 50.4038 38.7771 50.7654C38.2341 51.1271 37.7705 51.5955 37.4143 52.1421C37.0582 52.6886 36.817 53.302 36.7054 53.9447L36.3854 57.1354Z" fill="#0044CC"/>
<g opacity="0.8">
<path fill-rule="evenodd" clip-rule="evenodd" d="M42.1287 39.977C42.1287 38.2633 42.8094 36.6199 44.0212 35.4081C45.2329 34.1964 46.8764 33.5156 48.59 33.5156C50.3037 33.5156 51.9472 34.1964 53.1589 35.4081C54.3707 36.6199 55.0514 38.2633 55.0514 39.977V41.008C55.4447 41.1126 55.7931 41.3429 56.0434 41.6638C56.2937 41.9847 56.4322 42.3786 56.4379 42.7855C56.4037 43.2782 56.18 43.7385 55.8138 44.0699C55.4476 44.4013 54.9674 44.578 54.4737 44.5631C53.9485 45.6681 53.1206 46.6016 52.0863 47.2551C51.052 47.9087 49.8536 48.2556 48.63 48.2556C47.4065 48.2556 46.2081 47.9087 45.1738 47.2551C44.1394 46.6016 43.3116 45.6681 42.7864 44.5631H42.7419C42.2417 44.5898 41.7511 44.4182 41.3767 44.0854C41.0022 43.7526 40.7742 43.2855 40.7422 42.7855C40.7464 42.3782 40.8844 41.9836 41.135 41.6624C41.3855 41.3412 41.7346 41.1113 42.1287 41.008V39.977Z" fill="white"/>
<path d="M48.5895 49.0051C47.2997 48.9993 46.0347 48.6506 44.9242 47.9946C43.8138 47.3386 42.8978 46.3991 42.2703 45.2723C41.664 45.1812 41.1076 44.8841 40.6948 44.4308C40.282 43.9775 40.038 43.3958 40.0039 42.7837C40.0091 42.3183 40.1399 41.8629 40.3823 41.4656C40.6248 41.0682 40.97 40.7437 41.3815 40.5262V40.0196C41.3475 39.0523 41.5087 38.0881 41.8554 37.1845C42.2021 36.2809 42.7273 35.4563 43.3995 34.76C44.0718 34.0637 44.8774 33.51 45.7683 33.1317C46.6592 32.7535 47.6171 32.5586 48.585 32.5586C49.5529 32.5586 50.5108 32.7535 51.4017 33.1317C52.2926 33.51 53.0982 34.0637 53.7705 34.76C54.4428 35.4563 54.9679 36.2809 55.3146 37.1845C55.6613 38.0881 55.8225 39.0523 55.7885 40.0196V40.5262C56.2011 40.7433 56.5475 41.0675 56.7915 41.4647C57.0355 41.8619 57.168 42.3176 57.175 42.7837C57.1458 43.4045 56.9007 43.9955 56.482 44.4548C56.0633 44.914 55.4974 45.2126 54.882 45.2989C54.2568 46.4199 53.3443 47.3541 52.2384 48.0055C51.1324 48.6568 49.873 49.0019 48.5895 49.0051ZM48.5895 34.2337C47.0722 34.236 45.6177 34.8398 44.5448 35.9127C43.4719 36.9856 42.8681 38.4401 42.8658 39.9574V41.5127L42.3325 41.6727C42.0895 41.7253 41.8707 41.8566 41.71 42.0462C41.5493 42.2358 41.4557 42.4732 41.4437 42.7215C41.4598 43.0296 41.5967 43.3189 41.8246 43.5268C42.0525 43.7347 42.3531 43.8445 42.6613 43.8324H43.1324L43.3724 44.2502C43.8378 45.229 44.5712 46.0559 45.4876 46.6348C46.4039 47.2137 47.4656 47.521 48.5495 47.521C49.6333 47.521 50.695 47.2137 51.6114 46.6348C52.5277 46.0559 53.2611 45.229 53.7266 44.2502L53.9932 43.8502H54.4642C54.7663 43.863 55.0618 43.7596 55.2899 43.5612C55.518 43.3628 55.6615 43.0846 55.6907 42.7837C55.6931 42.5383 55.6154 42.2989 55.4695 42.1016C55.3235 41.9044 55.1173 41.76 54.882 41.6905L54.3487 41.5305V39.9752C54.3475 39.2209 54.1975 38.4742 53.9072 37.778C53.617 37.0817 53.1921 36.4496 52.6571 35.9179C52.1221 35.3862 51.4874 34.9653 50.7894 34.6793C50.0913 34.3934 49.3438 34.248 48.5895 34.2515V34.2337Z" fill="#FF6B00"/>
</g>
</svg>
