<svg width="80" height="80" viewBox="0 0 80 80" fill="none" xmlns="http://www.w3.org/2000/svg">
<g opacity="0.2">
<path d="M25.2305 37.19C25.2305 36.7988 25.3859 36.4236 25.6625 36.1469C25.9392 35.8703 26.3144 35.7148 26.7056 35.7148H47.3847C47.7759 35.7148 48.1511 35.8703 48.4278 36.1469C48.7044 36.4236 48.8598 36.7988 48.8598 37.19V48.3871C48.8598 49.8623 45.8651 51.6218 44.4166 51.5063C40.4976 51.1952 34.4725 52.1816 26.9278 53.2125C26.7196 53.2418 26.5075 53.226 26.3059 53.1661C26.1043 53.1062 25.918 53.0037 25.7595 52.8655C25.6011 52.7272 25.4742 52.5565 25.3875 52.365C25.3008 52.1734 25.2564 51.9654 25.2571 51.7551L25.2305 37.19Z" fill="#0055FF"/>
</g>
<path d="M48.8607 60.8152C56.2029 60.8152 62.155 54.8631 62.155 47.5209C62.155 40.1786 56.2029 34.2266 48.8607 34.2266C41.5185 34.2266 35.5664 40.1786 35.5664 47.5209C35.5664 54.8631 41.5185 60.8152 48.8607 60.8152Z" fill="white"/>
<path d="M35.5745 53.6865H25.2306C23.8596 53.6842 22.5455 53.1385 21.576 52.1691C20.6066 51.1997 20.0609 49.8855 20.0586 48.5145V25.4095C20.0586 25.2138 20.1363 25.0262 20.2746 24.8879C20.413 24.7496 20.6006 24.6719 20.7962 24.6719H32.3487C32.8937 24.6714 33.4321 24.7915 33.9252 25.0235C34.4184 25.2555 34.8541 25.5936 35.2013 26.0137L37.9561 29.3462H56.2625C56.4589 29.3485 56.6465 29.4282 56.7846 29.568C56.9226 29.7077 57.0001 29.8962 57 30.0927V35.0158C57 35.2115 56.9223 35.3991 56.784 35.5374C56.6457 35.6757 56.4581 35.7534 56.2625 35.7534C56.0668 35.7534 55.8792 35.6757 55.7409 35.5374C55.6026 35.3991 55.5249 35.2115 55.5249 35.0158V30.7858H37.5918C37.4832 30.786 37.3759 30.7622 37.2776 30.7161C37.1793 30.67 37.0924 30.6028 37.023 30.5192L34.0372 26.9113C33.8313 26.6576 33.5711 26.4532 33.2759 26.3132C32.9806 26.1733 32.6577 26.1013 32.3309 26.1026H21.5427V48.5145C21.5427 49.4926 21.9312 50.4307 22.6228 51.1223C23.3144 51.8139 24.2525 52.2025 25.2306 52.2025H35.5745C35.7702 52.2025 35.9578 52.2802 36.0961 52.4185C36.2344 52.5568 36.3121 52.7444 36.3121 52.94C36.3121 53.1365 36.2347 53.325 36.0966 53.4648C35.9586 53.6045 35.771 53.6842 35.5745 53.6865Z" fill="#0044CC"/>
<path d="M31.8781 30.3267H25.4798C25.2842 30.3267 25.0965 30.249 24.9582 30.1107C24.8199 29.9724 24.7422 29.7848 24.7422 29.5891C24.7422 29.3935 24.8199 29.2059 24.9582 29.0676C25.0965 28.9293 25.2842 28.8516 25.4798 28.8516H31.8781C32.0737 28.8516 32.2613 28.9293 32.3997 29.0676C32.538 29.2059 32.6157 29.3935 32.6157 29.5891C32.6157 29.7848 32.538 29.9724 32.3997 30.1107C32.2613 30.249 32.0737 30.3267 31.8781 30.3267Z" fill="#0044CC"/>
<path d="M40 79.2842C39.8722 79.2834 39.7467 79.2497 39.6357 79.1865L6.37324 59.9826C6.26012 59.9183 6.16602 59.8253 6.10047 59.7129C6.03492 59.6006 6.00026 59.4729 6 59.3428V20.9439C6.00026 20.8138 6.03492 20.6861 6.10047 20.5737C6.16602 20.4614 6.26012 20.3683 6.37324 20.3041L39.6357 1.10021C39.7475 1.03459 39.8748 1 40.0044 1C40.1341 1 40.2614 1.03459 40.3732 1.10021L73.6357 20.3041C73.7465 20.3701 73.8384 20.4638 73.9022 20.576C73.9661 20.6881 73.9998 20.8149 74 20.9439V59.3428C73.9998 59.4718 73.9661 59.5986 73.9022 59.7107C73.8384 59.8229 73.7465 59.9165 73.6357 59.9826L40.3732 79.2042C40.257 79.2603 40.129 79.2877 40 79.2842ZM7.47517 58.9162L40 77.6935L72.5248 58.9162V21.3705L40 2.59316L7.47517 21.3705V58.9162Z" fill="#0044CC"/>
<path d="M36.6324 47.7009C36.6324 47.8965 36.7101 48.0841 36.8484 48.2224C36.9867 48.3608 37.1744 48.4385 37.37 48.4385C37.5656 48.4385 37.7532 48.3608 37.8915 48.2224C38.0298 48.0841 38.1076 47.8965 38.1076 47.7009H36.6324ZM39.1029 52.5441C38.9145 52.5006 38.7167 52.5319 38.5509 52.6313C38.3852 52.7308 38.2645 52.8906 38.2142 53.0773L36.4813 59.5023C36.4419 59.6891 36.4738 59.8839 36.5709 60.0484C36.6679 60.2129 36.823 60.3351 37.0056 60.3909C37.0984 60.415 37.195 60.4205 37.2899 60.4071C37.3848 60.3938 37.4762 60.3618 37.5587 60.3131C37.6413 60.2644 37.7134 60.1999 37.771 60.1233C37.8286 60.0467 37.8705 59.9594 37.8943 59.8666L39.4317 54.1614L45.1013 55.7077C45.2724 55.7275 45.4451 55.6867 45.5894 55.5925C45.7336 55.4983 45.8403 55.3566 45.891 55.1919C45.9417 55.0272 45.9331 54.85 45.8668 54.691C45.8004 54.532 45.6805 54.4012 45.5278 54.3214L39.1029 52.5441ZM56.6538 54.9434C55.6803 55.9657 54.5148 56.786 53.2241 57.3576C51.9333 57.9292 50.5426 58.2408 49.1313 58.2747C47.7201 58.3085 46.316 58.0639 44.9993 57.5548C43.6827 57.0458 42.4792 56.2822 41.4578 55.3078L40.4358 56.392C42.7888 58.6257 45.9316 59.8353 49.1751 59.7553C52.4185 59.6753 55.4979 58.3124 57.738 55.9654L56.6538 54.9434ZM41.0757 40.1029C42.0494 39.0798 43.2151 38.2585 44.5063 37.686C45.7975 37.1136 47.1888 36.8011 48.6008 36.7664C50.0128 36.7317 51.4178 36.9756 52.7355 37.484C54.0532 37.9925 55.2578 38.7555 56.2806 39.7296L57.2937 38.6633C54.9444 36.4267 51.8033 35.2143 48.5606 35.2926C45.3179 35.371 42.2389 36.7335 40.0004 39.0809L41.0757 40.1029ZM56.2806 39.7296C58.3474 41.6977 59.5478 44.4062 59.6178 47.2593C59.6878 50.1123 58.6217 52.8764 56.6538 54.9434L57.738 55.9654C59.9701 53.6127 61.1778 50.4707 61.0962 47.2287C61.0145 43.9867 59.6502 40.9095 57.3025 38.6721L56.2806 39.7296ZM38.1076 47.6742C38.0628 44.8583 39.1292 42.1382 41.0757 40.1029L40.0004 39.0809C37.7939 41.3998 36.5847 44.4915 36.6324 47.692L38.1076 47.6742ZM41.4489 55.3078C40.6953 54.6095 40.0565 53.7968 39.5561 52.8995L38.2764 53.6549C38.8595 54.6649 39.5836 55.5865 40.427 56.392L41.4489 55.3078Z" fill="#0044CC"/>
<path d="M49.4635 35.6758H47.9883V38.6261H49.4635V35.6758Z" fill="#0044CC"/>
<path d="M49.4635 56.6914H47.9883V59.6417H49.4635V56.6914Z" fill="#0044CC"/>
<path d="M60.5363 46.7539H57.5859V48.2291H60.5363V46.7539Z" fill="#0044CC"/>
<path d="M48.728 49.7984C48.5411 49.7967 48.3612 49.7272 48.2215 49.6029L43.636 45.3107C43.567 45.2429 43.5121 45.162 43.4747 45.0727C43.4373 44.9835 43.418 44.8877 43.418 44.7909C43.418 44.6941 43.4373 44.5982 43.4747 44.509C43.5121 44.4197 43.567 44.3388 43.636 44.271C43.7039 44.2019 43.7848 44.1471 43.874 44.1097C43.9633 44.0722 44.0591 44.0529 44.1559 44.0529C44.2527 44.0529 44.3485 44.0722 44.4378 44.1097C44.527 44.1471 44.6079 44.2019 44.6758 44.271L48.6569 47.9589L54.0777 40.7519C54.1331 40.6672 54.2053 40.5949 54.2898 40.5393C54.3743 40.4837 54.4694 40.4461 54.5691 40.4288C54.6687 40.4115 54.7709 40.4149 54.8692 40.4388C54.9675 40.4627 55.0599 40.5065 55.1405 40.5676C55.2211 40.6287 55.2883 40.7057 55.3379 40.7939C55.3875 40.8821 55.4185 40.9795 55.4288 41.0801C55.4392 41.1808 55.4287 41.2824 55.3981 41.3789C55.3674 41.4753 55.3173 41.5644 55.2508 41.6406L49.3501 49.5141C49.2882 49.597 49.2095 49.666 49.1192 49.7165C49.0288 49.767 48.9289 49.798 48.8258 49.8073L48.728 49.7984Z" fill="#FF6B00"/>
<path d="M48.8619 49.8878C49.6766 49.8878 50.3371 49.2274 50.3371 48.4127C50.3371 47.598 49.6766 46.9375 48.8619 46.9375C48.0472 46.9375 47.3867 47.598 47.3867 48.4127C47.3867 49.2274 48.0472 49.8878 48.8619 49.8878Z" fill="white"/>
<path d="M48.8584 50.6308C48.419 50.6308 47.9894 50.5005 47.6241 50.2564C47.2587 50.0123 46.974 49.6653 46.8058 49.2593C46.6377 48.8534 46.5937 48.4067 46.6794 47.9757C46.7651 47.5448 46.9767 47.1489 47.2874 46.8382C47.5981 46.5275 47.994 46.3159 48.4249 46.2302C48.8559 46.1445 49.3026 46.1885 49.7085 46.3566C50.1145 46.5248 50.4615 46.8095 50.7056 47.1749C50.9497 47.5402 51.08 47.9697 51.08 48.4091C51.08 48.9984 50.8459 49.5634 50.4293 49.9801C50.0127 50.3967 49.4476 50.6308 48.8584 50.6308ZM48.8584 47.6716C48.6627 47.6716 48.4751 47.7493 48.3368 47.8876C48.1985 48.0259 48.1208 48.2135 48.1208 48.4091C48.1208 48.6048 48.1985 48.7924 48.3368 48.9307C48.4751 49.069 48.6627 49.1467 48.8584 49.1467C49.054 49.1467 49.2416 49.069 49.3799 48.9307C49.5182 48.7924 49.5959 48.6048 49.5959 48.4091C49.5959 48.2135 49.5182 48.0259 49.3799 47.8876C49.2416 47.7493 49.054 47.6716 48.8584 47.6716Z" fill="#FF6B00"/>
</svg>
