<svg width="80" height="80" viewBox="0 0 80 80" fill="none" xmlns="http://www.w3.org/2000/svg">
<g opacity="0.35">
<path d="M33.0629 46.9354C37.6605 46.9354 41.3876 41.3429 41.3876 34.4443C41.3876 27.5456 37.6605 21.9531 33.0629 21.9531C28.4654 21.9531 24.7383 27.5456 24.7383 34.4443C24.7383 41.3429 28.4654 46.9354 33.0629 46.9354Z" fill="#FFBB88"/>
</g>
<path d="M40.6945 48.9671C38.3601 48.9635 36.0712 48.3203 34.0766 47.1073C32.082 45.8944 30.4579 44.1581 29.3807 42.087C28.3248 42.0266 27.3301 41.5716 26.5939 40.8122C25.8578 40.0529 25.4338 39.0446 25.4062 37.9873C25.4123 37.1741 25.66 36.381 26.1179 35.709C26.5759 35.037 27.2233 34.5163 27.978 34.2132V32.8439C27.978 29.4779 29.3151 26.2497 31.6952 23.8696C34.0753 21.4895 37.3035 20.1523 40.6695 20.1523C44.0355 20.1523 47.2637 21.4895 49.6438 23.8696C52.0239 26.2497 53.361 29.4779 53.361 32.8439V34.2132C54.1157 34.5163 54.7631 35.037 55.2211 35.709C55.679 36.381 55.9267 37.1741 55.9327 37.9873C55.9051 39.0468 55.4803 40.0572 54.7426 40.8181C54.0049 41.5791 53.0081 42.035 51.9499 42.0953C50.8769 44.1567 49.2617 45.8861 47.2782 47.097C45.2948 48.308 43.0184 48.9546 40.6945 48.9671ZM40.6945 21.5384C37.6961 21.5406 34.8209 22.7322 32.6998 24.8516C30.5788 26.9711 29.3851 29.8454 29.3807 32.8439V35.2152L28.8797 35.3571C28.2964 35.5066 27.7781 35.8431 27.4042 36.3151C27.0302 36.7871 26.8212 37.3685 26.809 37.9706C26.8394 38.7229 27.1666 39.4326 27.719 39.9443C28.2714 40.456 29.004 40.728 29.7564 40.7009H30.2157L30.4829 41.1017C31.4033 43.0323 32.8517 44.6626 34.6604 45.804C36.4691 46.9455 38.5642 47.5512 40.7029 47.5512C42.8416 47.5512 44.9367 46.9455 46.7454 45.804C48.5541 44.6626 50.0025 43.0323 50.9229 41.1017L51.115 40.7009H51.5492C51.9278 40.7223 52.307 40.6685 52.6647 40.5426C53.0225 40.4167 53.3517 40.2211 53.6335 39.9673C53.9153 39.7134 54.144 39.4063 54.3065 39.0636C54.469 38.7209 54.562 38.3494 54.5801 37.9706C54.5693 37.3682 54.3608 36.786 53.9866 36.3138C53.6124 35.8415 53.0934 35.5054 52.5094 35.3571L52.0084 35.2152V32.8439C52.0062 29.8447 50.8132 26.9691 48.6917 24.8492C46.5702 22.7292 43.6937 21.5384 40.6945 21.5384Z" fill="#0044CC"/>
<g opacity="0.15">
<path fill-rule="evenodd" clip-rule="evenodd" d="M68.7228 57.2621C62.7514 62.4376 55.1343 65.3213 47.2326 65.3982C39.3308 65.475 31.6591 62.74 25.5881 57.6816C19.5171 52.6233 15.4424 45.5713 14.0918 37.7854C12.7412 29.9996 14.2028 21.9872 18.2155 15.1797C14.5667 18.3421 11.6491 22.26 9.66488 26.6619C7.68067 31.0639 6.67727 35.8447 6.72423 40.6729C6.77119 45.5012 7.86737 50.2615 9.93682 54.624C12.0063 58.9866 14.9995 62.847 18.7091 65.9378C22.4187 69.0287 26.756 71.276 31.4204 72.524C36.0848 73.7721 40.9648 73.9911 45.7223 73.1659C50.4797 72.3406 55.0009 70.4908 58.9724 67.7447C62.944 64.9986 66.271 61.4218 68.7228 57.2621Z" fill="#0055FF"/>
</g>
<path d="M17.7965 64.9791H17.688C17.5061 64.9541 17.3412 64.8588 17.2288 64.7136C17.1164 64.5684 17.0654 64.385 17.0868 64.2026L17.7798 58.8588C18.0041 57.5057 18.5026 56.2127 19.2448 55.0593C19.987 53.9058 20.9571 52.9163 22.0957 52.1516C23.2343 51.3868 24.5172 50.8629 25.8656 50.612C27.2141 50.3611 28.5996 50.3886 29.937 50.6928L37.2179 52.3627C39.1419 52.798 41.1388 52.798 43.0627 52.3627L50.4522 50.6928C51.8034 50.3894 53.2017 50.3603 54.5643 50.6073C55.927 50.8544 57.2261 51.3724 58.3848 52.1309C59.5434 52.8893 60.538 53.8726 61.3096 55.0226C62.0812 56.1725 62.6141 57.4657 62.8766 58.8254L63.6114 63.1756C63.6319 63.2679 63.6333 63.3635 63.6156 63.4564C63.5978 63.5493 63.5612 63.6376 63.508 63.7158C63.4548 63.794 63.3861 63.8605 63.3063 63.9112C63.2264 63.9619 63.137 63.9957 63.0436 64.0106C62.9507 64.0298 62.855 64.03 62.762 64.0112C62.6691 63.9924 62.5809 63.9549 62.5029 63.9011C62.4248 63.8472 62.3585 63.7781 62.3079 63.6979C62.2574 63.6177 62.2236 63.5281 62.2086 63.4344L61.5156 59.0926C61.2868 57.9169 60.8244 56.7992 60.1558 55.8055C59.4872 54.8118 58.626 53.9624 57.6232 53.3076C56.6203 52.6528 55.4963 52.2059 54.3176 51.9934C53.1389 51.7809 51.9295 51.8071 50.7612 52.0705L43.38 53.7404C41.2554 54.2204 39.0504 54.2204 36.9257 53.7404L29.6448 52.0705C28.4937 51.8087 27.3013 51.7848 26.1406 52.0003C24.98 52.2157 23.8756 52.666 22.8952 53.3235C21.9148 53.9811 21.079 54.8319 20.4392 55.824C19.7993 56.816 19.3689 57.9283 19.1742 59.0926L18.523 64.3696C18.502 64.5445 18.4152 64.7048 18.2803 64.818C18.1454 64.9313 17.9724 64.9889 17.7965 64.9791Z" fill="#0044CC"/>
<path d="M40 74C33.2754 74 26.7019 72.0059 21.1106 68.27C15.5194 64.534 11.1615 59.2239 8.58811 53.0112C6.01473 46.7986 5.34142 39.9623 6.65332 33.3669C7.96521 26.7716 11.2034 20.7134 15.9584 15.9584C20.7134 11.2034 26.7716 7.96521 33.3669 6.65332C39.9623 5.34142 46.7986 6.01473 53.0112 8.58811C59.2239 11.1615 64.534 15.5194 68.27 21.1106C72.0059 26.7019 74 33.2754 74 40C73.989 49.014 70.4033 57.6556 64.0294 64.0294C57.6556 70.4033 49.014 73.989 40 74ZM40 7.38607C33.5496 7.38607 27.244 9.29884 21.8807 12.8825C16.5173 16.4662 12.3371 21.5598 9.86865 27.5192C7.40018 33.4786 6.75432 40.0362 8.01273 46.3627C9.27115 52.6892 12.3773 58.5004 16.9385 63.0615C21.4996 67.6227 27.3109 70.7289 33.6373 71.9873C39.9638 73.2457 46.5214 72.5998 52.4808 70.1314C58.4402 67.6629 63.5338 63.4827 67.1175 58.1193C70.7012 52.756 72.6139 46.4504 72.6139 40C72.6051 31.353 69.1662 23.0626 63.0518 16.9482C56.9374 10.8338 48.6471 7.39491 40 7.38607Z" fill="#0044CC"/>
</svg>
