<svg width="80" height="80" viewBox="0 0 80 80" fill="none" xmlns="http://www.w3.org/2000/svg">
<path d="M73.2775 74H6.72248C6.53087 74 6.3471 73.9239 6.21161 73.7884C6.07612 73.6529 6 73.4691 6 73.2775V6.72248C6 6.53087 6.07612 6.3471 6.21161 6.21161C6.3471 6.07612 6.53087 6 6.72248 6H73.2775C73.4691 6 73.6529 6.07612 73.7884 6.21161C73.9239 6.3471 74 6.53087 74 6.72248V73.2775C73.9977 73.4684 73.9209 73.6509 73.7859 73.7859C73.6509 73.9209 73.4684 73.9977 73.2775 74ZM7.44496 72.5463H72.5463V7.44496H7.44496V72.5463Z" fill="#0044CC"/>
<path fill-rule="evenodd" clip-rule="evenodd" d="M39.3047 36.6758H58.8029V56.1914L53.4409 50.3942H45.0932C44.3327 50.3953 43.5795 50.2464 42.8767 49.9559C42.1739 49.6654 41.5353 49.239 40.9976 48.7013C40.4598 48.1636 40.0335 47.525 39.743 46.8222C39.4525 46.1193 39.3035 45.3661 39.3047 44.6056V36.6758Z" fill="white"/>
<path d="M58.8027 36.6726V35.9414C58.9959 35.9437 59.1806 36.0214 59.3172 36.1581C59.4539 36.2947 59.5316 36.4794 59.5339 36.6726H58.8027ZM39.3045 36.6726H38.582C38.582 36.4802 38.6579 36.2955 38.7931 36.1586C38.9284 36.0217 39.1121 35.9437 39.3045 35.9414V36.6726ZM58.8027 56.1882H59.5339C59.532 56.3332 59.486 56.4741 59.402 56.5923C59.3181 56.7105 59.2001 56.8003 59.0639 56.8497C58.9291 56.9048 58.7806 56.9167 58.6388 56.884C58.497 56.8513 58.3688 56.7755 58.2717 56.667L58.8027 56.1882ZM53.4407 50.391V49.6685C53.5407 49.6683 53.6397 49.6891 53.7312 49.7296C53.8227 49.7701 53.9046 49.8293 53.9717 49.9035L53.4407 50.391ZM58.8027 37.4038H39.3045V35.9414H58.8027V37.4038ZM58.0802 49.3377V36.6726H59.5339V49.329L58.0802 49.3377ZM58.0802 50.391V49.329H59.5339V50.391H58.0802ZM58.0802 56.1969V50.391H59.5339V56.1969H58.0802ZM53.9717 49.9035L59.3424 55.7007L58.2717 56.6757L52.9184 50.8784L53.9717 49.9035ZM45.093 49.6685H53.4407V51.1134H45.093V49.6685ZM40.027 44.6024C40.0293 45.9453 40.5638 47.2326 41.5133 48.1821C42.4629 49.1317 43.7502 49.6662 45.093 49.6685V51.1134C44.2377 51.1146 43.3905 50.947 42.6 50.6202C41.8096 50.2934 41.0913 49.8138 40.4865 49.209C39.8817 48.6041 39.4021 47.8859 39.0753 47.0954C38.7485 46.305 38.5809 45.4578 38.582 44.6024H40.027ZM40.027 36.6813V44.6024H38.582V36.6813H40.027Z" fill="#0044CC"/>
<g opacity="0.1">
<path fill-rule="evenodd" clip-rule="evenodd" d="M38.5544 37.0938H58.0526V56.6007L52.6818 50.7947H44.2994C42.7665 50.7947 41.2963 50.1858 40.2124 49.1019C39.1285 48.0179 38.5195 46.5478 38.5195 45.0149L38.5544 37.0938Z" fill="#0055FF"/>
</g>
<path fill-rule="evenodd" clip-rule="evenodd" d="M26.9799 25.5273C25.4447 25.5273 23.9724 26.1372 22.8868 27.2228C21.8013 28.3083 21.1914 29.7807 21.1914 31.3159V53.3906L28.8601 45.1039H43.2662C44.8014 45.1039 46.2737 44.494 47.3593 43.4085C48.4448 42.3229 49.0547 40.8506 49.0547 39.3154V25.5273H26.9799Z" fill="white"/>
<path d="M21.1913 53.3905H20.4688C20.4675 53.535 20.5113 53.6763 20.5939 53.7949C20.6766 53.9134 20.7941 54.0033 20.9301 54.0521C21.0653 54.1088 21.2147 54.1225 21.358 54.0914C21.5013 54.0602 21.6315 53.9857 21.7309 53.878L21.1913 53.3905ZM28.86 45.1038V44.3726C28.7587 44.3727 28.6586 44.3937 28.5657 44.4341C28.4729 44.4745 28.3894 44.5336 28.3203 44.6076L28.86 45.1038ZM49.0545 25.5272H49.777C49.7782 25.432 49.7603 25.3375 49.7244 25.2494C49.6885 25.1612 49.6353 25.0811 49.568 25.0137C49.5007 24.9464 49.4206 24.8933 49.3324 24.8574C49.2442 24.8215 49.1497 24.8036 49.0545 24.8047V25.5272ZM21.9137 31.3157C21.916 29.9729 22.4505 28.6856 23.4001 27.7361C24.3497 26.7865 25.6369 26.252 26.9798 26.2497V24.8047C26.1244 24.8036 25.2772 24.9712 24.4868 25.298C23.6963 25.6248 22.9781 26.1044 22.3732 26.7092C21.7684 27.314 21.2889 28.0323 20.9621 28.8227C20.6353 29.6132 20.4676 30.4604 20.4688 31.3157H21.9137ZM21.9137 43.5979V31.3157H20.4688V43.5979H21.9137ZM21.9137 45.1038V43.5979H20.4688V45.1038H21.9137ZM21.9137 53.3905V45.1038H20.4688V53.3905H21.9137ZM28.3203 44.6076L20.6603 52.8943L21.7309 53.8693L29.3822 45.5825L28.3203 44.6076ZM43.266 44.3726H28.86V45.8262H43.266V44.3726ZM48.3321 39.3152C48.3321 39.9801 48.201 40.6385 47.9463 41.2526C47.6916 41.8668 47.3183 42.4247 46.8477 42.8944C46.3772 43.3641 45.8186 43.7365 45.204 43.9901C44.5895 44.2438 43.9309 44.3737 43.266 44.3726V45.8262C44.1214 45.8274 44.9686 45.6598 45.759 45.333C46.5495 45.0062 47.2677 44.5266 47.8725 43.9218C48.4774 43.3169 48.9569 42.5987 49.2837 41.8082C49.6105 41.0178 49.7782 40.1706 49.777 39.3152H48.3321ZM48.3321 25.5272V39.3152H49.777V25.5272H48.3321ZM26.9798 26.2497H49.0545V24.8047H26.9798V26.2497Z" fill="#0044CC"/>
<g opacity="0.8">
<path d="M30.1011 36.3897C30.7934 36.3897 31.3546 35.8285 31.3546 35.1363C31.3546 34.444 30.7934 33.8828 30.1011 33.8828C29.4088 33.8828 28.8477 34.444 28.8477 35.1363C28.8477 35.8285 29.4088 36.3897 30.1011 36.3897Z" fill="#FF6B00"/>
</g>
<g opacity="0.8">
<path d="M35.6753 36.3897C36.3676 36.3897 36.9288 35.8285 36.9288 35.1363C36.9288 34.444 36.3676 33.8828 35.6753 33.8828C34.9831 33.8828 34.4219 34.444 34.4219 35.1363C34.4219 35.8285 34.9831 36.3897 35.6753 36.3897Z" fill="#FF6B00"/>
</g>
<g opacity="0.8">
<path d="M41.2535 36.3897C41.9457 36.3897 42.5069 35.8285 42.5069 35.1363C42.5069 34.444 41.9457 33.8828 41.2535 33.8828C40.5612 33.8828 40 34.444 40 35.1363C40 35.8285 40.5612 36.3897 41.2535 36.3897Z" fill="#FF6B00"/>
</g>
</svg>
