<svg width="64" height="356" viewBox="0 0 64 356" fill="none" xmlns="http://www.w3.org/2000/svg">
<path d="M29.7 354.382C31.0803 355.353 32.9211 355.353 34.3014 354.382L61.6577 335.147C64.8534 332.9 63.2635 327.875 59.357 327.875L54.4497 327.875C52.2406 327.875 50.4497 326.084 50.4497 323.875L50.4497 4C50.4497 1.79086 48.6589 2.04054e-06 46.4497 2.23367e-06L17.5502 4.76015e-06C15.3411 4.95327e-06 13.5503 1.79087 13.5503 4.00001L13.5503 323.875C13.5503 326.084 11.7594 327.875 9.55028 327.875L4.64339 327.875C0.736827 327.875 -0.853001 332.9 2.34269 335.147L29.7 354.382Z" fill="url(#paint0_linear_1338_8254)"/>
<defs>
<linearGradient id="paint0_linear_1338_8254" x1="31.9999" y1="-13.5" x2="223.095" y2="347.283" gradientUnits="userSpaceOnUse">
<stop stop-color="white"/>
<stop offset="0.399817" stop-color="#F5F0FE"/>
<stop offset="0.883948" stop-color="#D5C3FD"/>
</linearGradient>
</defs>
</svg>
