<svg width="20" height="21" viewBox="0 0 20 21" fill="none" xmlns="http://www.w3.org/2000/svg">
<path d="M3.02 13.384C2.34 12.418 2 11.9341 2 10.5C2 9.065 2.34 8.58288 3.02 7.616C4.3776 5.6875 6.6544 3.5 10 3.5C13.3456 3.5 15.6224 5.6875 16.98 7.616C17.66 8.58375 18 9.06587 18 10.5C18 11.935 17.66 12.4171 16.98 13.384C15.6224 15.3125 13.3456 17.5 10 17.5C6.6544 17.5 4.3776 15.3125 3.02 13.384Z" stroke="#666666" stroke-width="1.25"/>
<path d="M12.4961 10.4995C12.4961 11.1626 12.2327 11.7984 11.7639 12.2673C11.295 12.7361 10.6591 12.9995 9.99609 12.9995C9.33305 12.9995 8.69717 12.7361 8.22833 12.2673C7.75949 11.7984 7.49609 11.1626 7.49609 10.4995C7.49609 9.83647 7.75949 9.20059 8.22833 8.73174C8.69717 8.2629 9.33305 7.99951 9.99609 7.99951C10.6591 7.99951 11.295 8.2629 11.7639 8.73174C12.2327 9.20059 12.4961 9.83647 12.4961 10.4995Z" stroke="#666666" stroke-width="1.25"/>
</svg>
