<svg width="70" height="70" viewBox="0 0 70 70" fill="none" xmlns="http://www.w3.org/2000/svg">
<rect opacity="0.02" width="70" height="70" fill="#D9D9D9"/>
<g clip-path="url(#clip0_1248_1974)">
<path d="M56 28.5079C56 40.3908 46.6023 50.0158 35 50.0158C23.3977 50.0158 14 40.3908 14 28.5079C14 16.625 23.4057 7 35 7C46.5943 7 56 16.6332 56 28.5079Z" fill="white"/>
<path d="M45.508 51.8025C45.508 53.772 43.9471 55.3707 42.0241 55.3707H27.9839C26.0609 55.3707 24.5 53.772 24.5 51.8025C24.5 49.833 26.0609 48.2344 27.9839 48.2344H42.0241C43.9471 48.2344 45.508 49.833 45.508 51.8025Z" fill="#0F3654"/>
<path d="M34.9995 64.0009C33.0765 64.0009 31.5156 62.4023 31.5156 60.4328V58.076C31.5156 56.1065 33.0765 54.5078 34.9995 54.5078C36.9225 54.5078 38.4834 56.1065 38.4834 58.076V60.4328C38.4834 62.4023 36.9225 64.0009 34.9995 64.0009Z" fill="#E6DEDD"/>
<path d="M45.508 56.9314C45.508 58.9009 43.9471 60.4996 42.0241 60.4996H27.9839C26.0609 60.4996 24.5 58.9009 24.5 56.9314C24.5 54.962 26.0609 53.3633 27.9839 53.3633H42.0241C43.9471 53.3633 45.508 54.962 45.508 56.9314Z" fill="#0F3654"/>
<path d="M37.7846 29.4386C37.7846 31.0126 36.5375 32.2898 35.0007 32.2898C33.4639 32.2898 32.2168 31.0126 32.2168 29.4386V20.613C32.2168 19.039 33.4639 17.7617 35.0007 17.7617C36.5375 17.7617 37.7846 19.039 37.7846 20.613V29.4386Z" fill="#246BEB"/>
<path d="M37.7846 37.777C37.7846 39.351 36.5375 40.6283 35.0007 40.6283C33.4639 40.6283 32.2168 39.351 32.2168 37.777C32.2168 36.2031 33.4639 34.9258 35.0007 34.9258C36.5375 34.9258 37.7846 36.2031 37.7846 37.777Z" fill="#246BEB"/>
</g>
<defs>
<clipPath id="clip0_1248_1974">
<rect width="42" height="57" fill="white" transform="translate(14 7)"/>
</clipPath>
</defs>
</svg>
