<svg width="40" height="40" viewBox="0 0 40 40" fill="none" xmlns="http://www.w3.org/2000/svg">
<path d="M34.5038 4.80078H5.4918C3.0598 4.80078 1.0918 7.01278 1.0918 9.74478V30.2568C1.0918 32.9888 3.0678 35.2008 5.4918 35.2008H34.5038C36.9398 35.2008 38.9038 32.9888 38.9038 30.2568V9.74478C38.9158 7.01278 36.9398 4.80078 34.5038 4.80078ZM36.0398 29.0248C36.0398 30.6248 34.8918 31.9048 33.4718 31.9048H6.5278C5.1078 31.9048 3.9558 30.6168 3.9558 29.0248V13.7008C3.94428 13.5761 3.96762 13.4507 4.02321 13.3385C4.0788 13.2263 4.16447 13.1317 4.27065 13.0653C4.37683 12.999 4.49936 12.9634 4.62458 12.9626C4.74979 12.9618 4.87277 12.9958 4.9798 13.0608L19.2878 23.0048C19.4937 23.1559 19.7424 23.2374 19.9978 23.2374C20.2532 23.2374 20.5019 23.1559 20.7078 23.0048L35.0198 13.0608C35.1265 12.9953 35.2494 12.961 35.3746 12.9616C35.4998 12.9622 35.6223 12.9978 35.7283 13.0644C35.8344 13.1309 35.9197 13.2257 35.9748 13.3382C36.0298 13.4506 36.0523 13.5762 36.0398 13.7008V29.0248Z" fill="#F18435"/>
</svg>
