<svg width="20" height="20" viewBox="0 0 20 20" fill="none" xmlns="http://www.w3.org/2000/svg">
<path fill-rule="evenodd" clip-rule="evenodd" d="M4 1C4 0.585786 4.33579 0.25 4.75 0.25H14.75C15.1642 0.25 15.5 0.585786 15.5 1V7.25H16.95C17.5938 7.25 18.2294 7.47005 18.7132 7.88815C19.2004 8.30922 19.5 8.90582 19.5 9.55556V13.4444C19.5 14.0942 19.2004 14.6908 18.7132 15.1118C18.2294 15.53 17.5938 15.75 16.95 15.75H15.5V19C15.5 19.4142 15.1642 19.75 14.75 19.75H4.75C4.33579 19.75 4 19.4142 4 19V15.75H2.55C1.90619 15.75 1.27062 15.53 0.78681 15.1118C0.299573 14.6908 0 14.0942 0 13.4444V9.55556C0 8.90582 0.299573 8.30922 0.78681 7.88815C1.27062 7.47005 1.90619 7.25 2.55 7.25H4V1ZM4 14.25V12C4 11.5858 4.33579 11.25 4.75 11.25H14.75C15.1642 11.25 15.5 11.5858 15.5 12V14.25H16.95C17.261 14.25 17.5411 14.1423 17.7324 13.9769C17.9203 13.8146 18 13.6198 18 13.4444V9.55556C18 9.38017 17.9203 9.18545 17.7324 9.02307C17.5411 8.85773 17.261 8.75 16.95 8.75H14.75H4.75H2.55C2.23903 8.75 1.95893 8.85773 1.7676 9.02307C1.57971 9.18545 1.5 9.38017 1.5 9.55556V13.4444C1.5 13.6198 1.57971 13.8146 1.7676 13.9769C1.95893 14.1423 2.23903 14.25 2.55 14.25H4ZM14 1.75V7.25H5.5V1.75H14ZM5.5 18.25V12.75H14V18.25H5.5Z" fill="#666666"/>
</svg>
