<svg width="65" height="64" viewBox="0 0 65 64" fill="none" xmlns="http://www.w3.org/2000/svg">
<g clip-path="url(#clip0_1573_5806)">
<path d="M12.25 23.798L12.25 40.2C7.688 41.126 4.25 45.16 4.25 49.998C4.25 55.522 8.728 59.998 14.25 59.998C19.772 59.998 24.25 55.522 24.25 49.998C24.25 45.16 20.812 41.126 16.25 40.2L16.25 23.798C17.526 23.538 18.708 23.03 19.758 22.336L41.914 44.49C40.868 46.072 40.25 47.962 40.25 50C40.25 55.524 44.728 60 50.25 60C55.772 60 60.25 55.524 60.25 50C60.25 45.162 56.814 41.128 52.25 40.202L52.25 23.8C56.814 22.874 60.25 18.84 60.25 14C60.25 8.474 55.772 4 50.25 4C44.728 4 40.25 8.474 40.25 14C40.25 18.84 43.686 22.874 48.25 23.798L48.25 40.2C46.974 40.46 45.792 40.966 44.742 41.66L22.586 19.506C23.632 17.928 24.25 16.038 24.25 14C24.25 8.474 19.77 4 14.25 4C8.72999 4 4.25 8.474 4.25 14C4.25 18.84 7.688 22.872 12.25 23.798Z" fill="url(#paint0_linear_1573_5806)"/>
</g>
<defs>
<linearGradient id="paint0_linear_1573_5806" x1="42.667" y1="53.3696" x2="34.1035" y2="0.224101" gradientUnits="userSpaceOnUse">
<stop stop-color="#FFD774"/>
<stop offset="1" stop-color="#FD8337"/>
</linearGradient>
<clipPath id="clip0_1573_5806">
<rect width="64" height="64" fill="white" transform="translate(0.25)"/>
</clipPath>
</defs>
</svg>
