<svg width="148" height="116" viewBox="0 0 148 116" fill="none" xmlns="http://www.w3.org/2000/svg">
<path d="M75.4012 -0.125C54.5131 -0.125 37.5479 16.7736 37.5479 37.6424C37.5479 58.5112 75.4012 115.773 75.4012 115.773C75.4012 115.773 113.204 58.5112 113.204 37.6424C113.255 16.7736 96.2893 -0.125 75.4012 -0.125ZM75.4012 50.9781C69.2367 50.9781 64.1929 45.99 64.1929 39.7802C64.1929 33.6214 69.1857 28.5823 75.4012 28.5823C81.5658 28.5823 86.6095 33.6214 86.6095 39.7802C86.6095 45.9391 81.5658 50.9781 75.4012 50.9781Z" fill="#CCCCCC"/>
<path d="M141.58 67.0117C138.065 67.0117 135.161 69.8621 135.161 73.4251C135.161 76.988 141.58 86.6589 141.58 86.6589C141.58 86.6589 148 76.988 148 73.4251C148 69.8621 145.147 67.0117 141.58 67.0117ZM141.58 75.6646C140.511 75.6646 139.695 74.7993 139.695 73.7814C139.695 72.7125 140.561 71.8981 141.58 71.8981C142.65 71.8981 143.465 72.7634 143.465 73.7814C143.465 74.7993 142.65 75.6646 141.58 75.6646Z" fill="#1D1D1B"/>
<path d="M10.0882 86.1999C12.9581 86.1999 15.2847 83.8755 15.2847 81.0082C15.2847 78.1408 12.9581 75.8164 10.0882 75.8164C7.21818 75.8164 4.8916 78.1408 4.8916 81.0082C4.8916 83.8755 7.21818 86.1999 10.0882 86.1999Z" fill="white"/>
<path d="M14.7752 81.0094C14.7752 78.4233 12.6765 76.3266 10.088 76.3266C7.49935 76.3266 5.40077 78.4232 5.40077 81.0094C5.40082 83.5956 7.49939 85.6923 10.088 85.6923C12.6765 85.6922 14.7751 83.5956 14.7752 81.0094ZM15.7941 81.0094C15.794 84.1578 13.2392 86.7102 10.088 86.7103C6.93664 86.7103 4.38189 84.1578 4.38184 81.0094C4.38184 77.861 6.93661 75.3086 10.088 75.3086C13.2393 75.3086 15.7941 77.861 15.7941 81.0094Z" fill="#080717"/>
<path d="M12.9922 81.0081C12.9922 82.586 11.7185 83.8585 10.1391 83.8585C8.5598 83.8585 7.28613 82.586 7.28613 81.0081C7.28613 79.4302 8.5598 78.1577 10.1391 78.1577C11.7185 78.1068 12.9922 79.3793 12.9922 81.0081Z" fill="#080717"/>
<path d="M81.8711 29.599L98.9892 52.6565L59.9131 67.6719C59.9131 67.6719 65.1096 47.0576 67.1985 41.8658C69.1854 36.9794 71.6818 30.3625 72.7516 29.0391C75.299 25.8325 77.8972 24.0001 81.8711 29.599Z" fill="#93C0D2"/>
<path d="M80.9115 63.9165C91.7215 59.7331 99.8915 54.8119 99.1598 52.9245C98.4281 51.0371 89.0716 52.8983 78.2617 57.0817C67.4517 61.265 59.2817 66.1863 60.0134 68.0736C60.7452 69.961 70.1016 68.0998 80.9115 63.9165Z" fill="black"/>
<path d="M69.1846 8.17188L73.2603 9.24077C74.1773 9.49526 74.3302 10.6151 73.515 11.0731L71.9357 11.9893" fill="#93C0D2"/>
<path d="M72.4458 19.623C74.6365 18.2487 75.2988 15.5001 73.8723 13.515L70.0003 8.06877C68.5738 6.08368 65.6189 5.57469 63.4282 6.94898C61.2375 8.32326 60.5752 11.0718 62.0017 13.0569L65.8737 18.5032C67.3002 20.4373 70.2551 20.9463 72.4458 19.623Z" fill="#93C0D2"/>
<path d="M67.7596 15.3497L63.4801 17.0802C62.2064 17.5892 60.729 17.0802 60.2195 15.9096C59.7101 14.7389 60.3214 13.3646 61.5951 12.8556L65.8746 11.125L67.7596 15.3497Z" fill="#93C0D2"/>
<path d="M75.9649 14.0283C75.9378 14.0554 75.9054 14.0953 75.8499 14.1645C75.8056 14.22 75.7394 14.3018 75.6683 14.3743L75.6688 14.3748C75.6673 14.3764 75.6654 14.3777 75.6639 14.3793C75.6622 14.3809 75.661 14.3831 75.6594 14.3847L75.6589 14.3842C73.649 16.4935 70.2506 16.7802 68.001 14.9822L68.6378 14.1874C70.4603 15.6439 73.2696 15.4247 74.929 13.6749L74.939 13.665L74.9857 13.6128C75.0042 13.5908 75.0261 13.5635 75.0539 13.5288C75.1003 13.4709 75.1697 13.3833 75.2445 13.3086L75.9649 14.0283Z" fill="black"/>
<path d="M70.98 6.85596C71.2396 6.80883 71.4891 6.96689 71.5606 7.21484L71.5721 7.26554L71.6741 7.82524L71.681 7.87693C71.7014 8.13415 71.5237 8.37009 71.2641 8.41724C70.9873 8.46752 70.722 8.28414 70.6716 8.00766L70.5701 7.44747L70.5631 7.39577C70.5429 7.13863 70.7205 6.90309 70.98 6.85596Z" fill="black"/>
<path d="M68.4312 7.26221C68.6908 7.21508 68.9402 7.37314 69.0118 7.62109L69.0232 7.67179L69.1252 8.23149L69.1322 8.28318C69.1525 8.5404 68.9748 8.77634 68.7153 8.82349C68.4385 8.87377 68.1731 8.69039 68.1227 8.41391L68.0212 7.85372L68.0143 7.80202C67.994 7.54488 68.1717 7.30934 68.4312 7.26221Z" fill="black"/>
<path d="M21.1117 64.4693C23.8987 63.332 25.3731 60.4904 24.405 58.1224C23.4369 55.7543 20.3928 54.7566 17.6058 55.8939C14.8189 57.0312 13.3444 59.8728 14.3125 62.2408C15.2806 64.6089 18.3247 65.6066 21.1117 64.4693Z" fill="#93C0D2"/>
<path d="M28.9886 67.2674C24.0467 68.7944 16.15 69.0998 16.15 69.0998C8.04949 70.1178 1.42643 66.7584 1.12075 66.6566C0.101813 66.1476 -0.254813 64.926 0.254653 63.9081C0.764119 62.8901 1.98684 62.5338 3.00577 63.0428C3.00577 63.0428 3.76997 63.45 5.09458 63.8572C2.85293 62.2284 1.73211 60.7014 1.63021 60.5487C0.967906 59.6325 1.17169 58.36 2.08873 57.7492C2.75104 57.2911 3.56618 57.2402 4.22849 57.5965C4.48322 57.7492 4.73796 57.9528 4.94174 58.2073C4.94174 58.2073 5.24742 58.6145 5.85878 59.2253C5.40026 58.5636 5.19648 58.1055 5.14553 58.0037C4.63606 56.9857 5.09458 55.815 6.06257 55.306C6.67393 55.0006 7.33624 55.0515 7.89665 55.306C8.25328 55.5096 8.6099 55.815 8.76274 56.2222C8.76274 56.2731 10.444 59.4289 14.3159 61.6176C11.412 59.6834 10.2402 57.342 10.1892 57.1893C9.67978 56.1713 10.1383 55.0006 11.1063 54.4916C11.7176 54.1862 12.38 54.2371 12.9404 54.4916C13.297 54.6952 13.6027 55.0006 13.8065 55.3569C13.8574 55.4587 14.7235 57.0366 16.8123 58.36" fill="#93C0D2"/>
<path d="M11.0047 67.3674C11.0047 67.3674 7.13276 65.8404 5.04395 63.9062L11.0047 67.3674Z" fill="white"/>
<path d="M4.66996 63.5614C4.84932 63.3681 5.14391 63.3453 5.35007 63.5008L5.38988 63.5341L5.58093 63.7051C6.55992 64.5556 7.8954 65.3301 9.03773 65.9096C9.64191 66.2161 10.1827 66.4634 10.5716 66.6338C10.7658 66.7189 10.9218 66.7848 11.0288 66.8292C11.0823 66.8513 11.1237 66.8677 11.1512 66.8789C11.1649 66.8844 11.1753 66.8886 11.1821 66.8913C11.1854 66.8926 11.188 66.8937 11.1895 66.8943C11.1903 66.8946 11.1907 66.8951 11.191 66.8953H11.1915L11.2388 66.9166C11.4682 67.0351 11.5749 67.3102 11.4781 67.5554C11.3748 67.8168 11.0791 67.9453 10.8174 67.8422L10.8169 67.8417H10.8159C10.8153 67.8414 10.8144 67.8411 10.8134 67.8407C10.8112 67.8398 10.8084 67.8383 10.8044 67.8367C10.7964 67.8335 10.7847 67.8289 10.7696 67.8228C10.7394 67.8106 10.6952 67.793 10.6388 67.7696C10.5259 67.7229 10.3634 67.654 10.1621 67.5658C9.75981 67.3895 9.20144 67.1342 8.57653 66.8172C7.41435 66.2276 5.9868 65.4074 4.90827 64.4696L4.69732 64.2807L4.661 64.2434C4.49026 64.0498 4.49063 63.7548 4.66996 63.5614Z" fill="black"/>
<path d="M5.53392 58.7944C5.75647 58.6529 6.04714 58.7057 6.20707 58.9083L6.23742 58.9505L6.43494 59.2492C7.44804 60.7262 8.84106 61.9753 10.0266 62.8783C10.6558 63.3575 11.2196 63.7341 11.6251 63.9903C11.8277 64.1182 11.9906 64.2158 12.1018 64.281C12.1572 64.3136 12.1998 64.3381 12.2281 64.3541C12.2423 64.3621 12.2532 64.3682 12.26 64.372C12.2632 64.3738 12.2655 64.3752 12.2669 64.376C12.2676 64.3764 12.2682 64.3768 12.2684 64.377L12.3127 64.4043C12.5253 64.5508 12.5964 64.837 12.4694 65.0679C12.3423 65.2988 12.0623 65.3923 11.8246 65.2916L11.7774 65.2687H11.7769L11.7759 65.2682C11.7752 65.2678 11.7741 65.2669 11.7729 65.2662C11.7705 65.2649 11.7671 65.2631 11.7629 65.2608C11.7542 65.2559 11.7413 65.2486 11.7251 65.2394C11.6927 65.221 11.6457 65.194 11.5858 65.1589C11.4658 65.0885 11.2932 64.9851 11.0803 64.8507C10.6548 64.5819 10.0658 64.1886 9.40865 63.688C8.18223 62.7539 6.69345 61.4276 5.59263 59.8219L5.3777 59.4973L5.35183 59.4521C5.23586 59.2215 5.3114 58.936 5.53392 58.7944Z" fill="black"/>
<path d="M88.2783 52.8571C83.2677 81.8203 55.4371 101.094 26.5443 95.5451L25.4209 95.3507L28.0737 80.1082L29.3205 80.3249L29.3951 80.3394C49.7824 84.2952 69.4765 70.6999 73.0192 50.2227L88.2783 52.8571Z" fill="#93C0D2"/>
<path d="M27.8677 84.9297L20.1748 115.062L43.2536 96.1276L27.8677 84.9297Z" fill="#93C0D2"/>
<path d="M75.4398 52.0508C104.886 52.5878 128.188 77.1743 127.053 106.605L127.001 107.851L111.529 107.207L111.581 105.985C112.368 85.2401 95.9363 67.8985 75.1572 67.5195L75.4398 52.0508Z" fill="#93C0D2"/>
<path d="M117.024 115.875L142.599 96.1259L112.694 95.7188L111.063 109.156L117.024 115.875Z" fill="#93C0D2"/>
<path d="M69.7301 26.96C71.7366 24.3367 75.483 23.7766 78.1741 25.7253C80.908 27.7049 81.5178 31.524 79.5364 34.2554L78.9214 35.092C65.9104 52.5721 46.6348 64.3747 25.1279 68.0459L25.1031 68.0499L22.6577 68.457L22.502 68.4814C19.2297 68.9416 16.1687 66.7121 15.6222 63.4366C15.0671 60.1092 17.3172 56.9622 20.6477 56.4076L23.0687 56.0045L23.9438 55.8494C42.2951 52.486 58.6759 42.1951 69.6361 27.0867L69.7301 26.96Z" fill="#93C0D2"/>
<path d="M68.2224 31.668C86.6059 26.4282 106.315 27.5696 124.054 34.9849L124.897 35.3428L124.9 35.3443L127.142 36.3116C130.242 37.6489 131.669 41.2433 130.331 44.3402C128.993 47.4371 125.394 48.8637 122.295 47.5264L120.056 46.5601V46.5606C104.693 39.9424 87.545 38.8637 71.5767 43.4151C68.3299 44.3405 64.9467 42.4612 64.0203 39.2174C63.094 35.9735 64.9755 32.5934 68.2224 31.668Z" fill="#93C0D2"/>
<path d="M137.81 43.8025C136.995 42.6318 133.938 40.9522 131.136 39.4761C130.728 39.2725 130.27 39.018 130.066 38.9162C130.372 39.018 131.187 39.3234 132.613 39.527C132.868 39.5779 133.072 39.5779 133.326 39.527C134.447 39.3234 135.008 38.1527 135.161 37.491C135.161 37.3892 135.11 37.2365 135.008 37.1856L129.607 35.4041L125.481 33.5717C123.188 32.5537 120.59 32.401 118.144 33.1645C118.144 33.1645 118.144 33.1645 118.093 33.1645H118.042C118.042 33.1645 117.992 33.1645 117.992 33.2154C116.31 35.7604 115.801 38.2036 116.412 40.4941C117.482 44.5151 121.66 46.602 121.813 46.6529V46.602C122.679 47.1619 127.213 48.7907 129.556 49.4015C131.441 49.9105 132.97 50.0632 133.938 49.9105C134.396 49.8596 134.702 49.7069 134.957 49.5033C135.161 49.2997 135.262 48.9943 135.161 48.6889C135.161 48.6889 135.161 48.638 135.11 48.638C135.415 48.638 135.823 48.5871 136.179 48.5362C136.689 48.4344 137.147 48.3326 137.402 48.0781C137.555 47.9254 137.606 47.7727 137.555 47.5691C137.453 47.1619 137.147 46.7547 136.74 46.3475C137.096 46.2457 137.759 45.9403 138.014 45.3804C138.217 44.9732 138.115 44.4133 137.81 43.8025Z" fill="#93C0D2"/>
<path d="M122.95 37.4424C123.079 37.213 123.361 37.1226 123.597 37.2262L123.644 37.2495L124.029 37.4588C125.921 38.4471 127.345 38.5952 128.283 38.5096C128.786 38.4636 129.159 38.3495 129.399 38.2521C129.519 38.2033 129.607 38.1585 129.661 38.1283C129.688 38.1133 129.706 38.1019 129.717 38.0955C129.722 38.0923 129.725 38.0901 129.726 38.0896L129.725 38.0901C129.725 38.0903 129.724 38.0906 129.724 38.091L129.723 38.0915L129.722 38.092C129.867 37.9891 130.056 37.9694 130.22 38.0403L130.223 38.0418C130.227 38.0435 130.234 38.0466 130.245 38.0508C130.266 38.0592 130.3 38.0728 130.347 38.0901C130.441 38.1246 130.589 38.175 130.793 38.2357C131.149 38.3418 131.675 38.4785 132.385 38.611L132.701 38.6671L132.752 38.6786C133.001 38.7477 133.162 38.9955 133.117 39.2552C133.072 39.5149 132.838 39.6945 132.58 39.6767L132.529 39.6707L132.198 39.6116C131.453 39.4726 130.892 39.328 130.501 39.2114C130.316 39.1563 130.17 39.1061 130.06 39.0673C129.984 39.106 129.892 39.151 129.782 39.1955C129.457 39.3272 128.987 39.4673 128.375 39.5231C127.185 39.6318 125.497 39.4166 123.352 38.2516L123.143 38.1363L123.099 38.1084C122.888 37.9596 122.82 37.6719 122.95 37.4424Z" fill="#080717"/>
<path d="M127.548 41.6463C127.686 41.4284 127.97 41.3462 128.205 41.4639C128.232 41.4773 128.257 41.4934 128.281 41.5106C128.281 41.511 128.282 41.5113 128.283 41.5116C128.333 41.5353 128.416 41.5709 128.532 41.62C128.767 41.7188 129.093 41.8522 129.508 42.0256C130.327 42.3674 131.436 42.8424 132.57 43.396C133.701 43.9481 134.873 44.5863 135.811 45.256C136.28 45.5909 136.703 45.9425 137.035 46.3048C137.322 46.6182 137.563 46.9622 137.694 47.3318L137.743 47.4918L137.754 47.543C137.793 47.7979 137.634 48.0464 137.378 48.1127C137.123 48.179 136.863 48.0395 136.773 47.7975L136.757 47.7478L136.733 47.6688C136.665 47.4784 136.522 47.2516 136.284 46.9923C136.016 46.7002 135.654 46.395 135.219 46.0841C134.348 45.4624 133.234 44.8529 132.123 44.3106C131.015 43.7699 129.927 43.3036 129.115 42.9646C128.716 42.7976 128.369 42.6556 128.137 42.558C128.02 42.5089 127.92 42.4662 127.849 42.4327C127.816 42.4172 127.775 42.3969 127.738 42.375C127.724 42.3665 127.684 42.3429 127.643 42.3064C127.625 42.2907 127.576 42.2456 127.535 42.1737C127.495 42.1035 127.413 41.9103 127.522 41.6916L127.548 41.6463ZM128.461 42.0783C128.463 42.0714 128.466 42.0647 128.468 42.0579C128.466 42.0648 128.463 42.0714 128.461 42.0783ZM128.481 42.0012C128.482 41.9907 128.483 41.9802 128.484 41.9699C128.483 41.9804 128.482 41.9908 128.481 42.0012ZM128.487 41.9307C128.487 41.9239 128.487 41.9173 128.487 41.9108C128.487 41.9174 128.487 41.924 128.487 41.9307Z" fill="#080717"/>
<path d="M128.013 44.9852C128.188 44.8425 128.436 44.8338 128.62 44.9583C128.655 44.975 128.713 45.0008 128.795 45.0364C128.962 45.1086 129.204 45.2106 129.503 45.3366C130.097 45.5872 130.901 45.9282 131.716 46.2969C132.529 46.6645 133.365 47.0648 134.017 47.4352C134.342 47.6196 134.636 47.8048 134.863 47.9815C134.976 48.0697 135.083 48.1638 135.172 48.2633C135.255 48.3569 135.352 48.489 135.398 48.654C135.473 48.9248 135.314 49.2051 135.043 49.2803C134.785 49.352 134.518 49.211 134.428 48.9627C134.425 48.958 134.419 48.9499 134.41 48.9393C134.377 48.9024 134.322 48.8501 134.236 48.7837C134.066 48.6512 133.821 48.4947 133.514 48.3205C132.903 47.9735 132.101 47.588 131.296 47.2239C130.494 46.861 129.7 46.5244 129.106 46.274C128.811 46.1496 128.562 46.045 128.39 45.9703C128.305 45.9334 128.231 45.9011 128.178 45.8759C128.154 45.8644 128.122 45.8484 128.092 45.8312C128.082 45.8254 128.045 45.8044 128.007 45.7715C127.994 45.7605 127.935 45.7111 127.889 45.6274C127.864 45.5823 127.824 45.4931 127.825 45.3734C127.827 45.2361 127.884 45.1106 127.975 45.0199L128.013 44.9852ZM128.695 45.7397C128.707 45.7283 128.717 45.7159 128.728 45.7034C128.718 45.7158 128.707 45.7281 128.695 45.7397ZM128.745 45.681C128.749 45.6753 128.753 45.6696 128.757 45.6636C128.753 45.6695 128.749 45.6753 128.745 45.681ZM128.771 45.6418C128.775 45.6346 128.78 45.6273 128.783 45.6199C128.78 45.6273 128.775 45.6346 128.771 45.6418ZM128.796 45.5946C128.798 45.5893 128.801 45.5841 128.803 45.5787C128.801 45.584 128.798 45.5892 128.796 45.5946Z" fill="#080717"/>
<path d="M77.3802 35.6166C77.5294 35.4061 77.8173 35.3387 78.0469 35.4685C78.2916 35.6069 78.3778 35.9173 78.2394 36.1619L77.7957 35.9114C78.2391 36.162 78.239 36.1622 78.2389 36.1624V36.1629C78.2387 36.1633 78.2383 36.1637 78.238 36.1644C78.2371 36.1658 78.236 36.1682 78.2345 36.1708C78.2314 36.1761 78.2268 36.1837 78.221 36.1937C78.2095 36.2138 78.1926 36.2434 78.1703 36.2817C78.1255 36.3584 78.0589 36.4708 77.9723 36.6147C77.7989 36.9026 77.5436 37.3175 77.2135 37.8275C76.5537 38.8473 75.5944 40.2502 74.3956 41.7852C72.0805 44.7492 68.8405 48.2461 65.1072 50.4043L64.7446 50.6091C64.4981 50.7446 64.1882 50.6549 64.0525 50.4088C63.9169 50.1625 64.0066 49.8529 64.253 49.7174L64.5993 49.522C68.1618 47.4619 71.3054 44.0872 73.5926 41.1589C74.769 39.6527 75.7106 38.2751 76.3578 37.2748C76.6812 36.775 76.9308 36.3698 77.0991 36.0903C77.1833 35.9506 77.2472 35.8421 77.2897 35.7692C77.3109 35.7329 77.3269 35.7054 77.3374 35.6872C77.3426 35.6781 77.3464 35.6712 77.3489 35.6668C77.3501 35.6646 77.3513 35.6628 77.3519 35.6618L77.3524 35.6608L77.3802 35.6166Z" fill="#1D1D1B"/>
<path d="M81.5573 29.1982C81.7649 29.0357 82.0594 29.0596 82.2384 29.2455L82.2727 29.2847L91.1376 40.5845L91.1675 40.6273C91.3054 40.8453 91.2582 41.1367 91.0506 41.2993C90.843 41.4617 90.5484 41.438 90.3695 41.2521L90.3356 41.2123L81.4707 29.913L81.4409 29.8703C81.3029 29.6522 81.3497 29.3608 81.5573 29.1982Z" fill="#1D1D1B"/>
<path d="M94.9579 52.3008C95.216 52.2969 95.4405 52.4886 95.4714 52.7502C95.5043 53.0294 95.304 53.2825 95.0246 53.3154L94.4375 53.3894C88.1372 54.2379 74.6872 57.634 65.2551 64.4208C65.0268 64.5849 64.7086 64.533 64.5442 64.305C64.3799 64.0769 64.4318 63.7589 64.6601 63.5947C74.589 56.4505 88.7958 53.0225 94.9057 52.3043L94.9579 52.3008Z" fill="#1D1D1B"/>
<path d="M41.5169 90.3588C41.8801 90.3622 42.2433 90.3627 42.6065 90.3598L42.6588 90.3618C42.9158 90.3857 43.1182 90.6008 43.1205 90.8643C43.1227 91.1454 42.8963 91.3755 42.615 91.3778L42.0612 91.3798C41.8767 91.3797 41.6921 91.3785 41.5075 91.3768C41.2261 91.3741 41.0004 91.1444 41.003 90.8633C41.0056 90.5822 41.2356 90.3562 41.5169 90.3588ZM44.7857 90.3051C45.0667 90.2935 45.3039 90.5119 45.3155 90.7927C45.3272 91.0735 45.109 91.3108 44.828 91.3226C44.4593 91.3379 44.0902 91.3501 43.7215 91.3594L43.6961 90.3414C44.0592 90.3323 44.4225 90.3201 44.7857 90.3051ZM43.7215 91.3594C43.4403 91.3664 43.2067 91.1442 43.1996 90.8633C43.1925 90.5823 43.4148 90.3484 43.6961 90.3414L43.7215 91.3594ZM39.8831 90.3215C40.0646 90.3281 40.2463 90.3339 40.4278 90.3389C40.709 90.3467 40.9306 90.5809 40.9229 90.8618C40.9152 91.1428 40.6808 91.3646 40.3995 91.3569C40.2149 91.3518 40.0303 91.3458 39.8457 91.339L39.2915 91.3161L39.2398 91.3112C38.9843 91.2733 38.7943 91.0475 38.8064 90.7843C38.8193 90.5035 39.0573 90.2864 39.3383 90.2991L39.8831 90.3215ZM46.9643 90.1808C47.2449 90.1606 47.4888 90.3717 47.5091 90.6521C47.5293 90.9323 47.3185 91.176 47.038 91.1963C46.6699 91.223 46.3016 91.2469 45.9335 91.2679C45.6526 91.2839 45.4117 91.0694 45.3956 90.7887C45.3796 90.5081 45.5944 90.2675 45.8753 90.2514C46.2382 90.2307 46.6013 90.2071 46.9643 90.1808ZM37.1676 90.158L37.7099 90.2012C37.8908 90.2147 38.0717 90.2272 38.2527 90.239C38.5334 90.2573 38.746 90.4993 38.7278 90.7798C38.7095 91.0603 38.4672 91.2732 38.1865 91.255C38.0023 91.243 37.818 91.23 37.6337 91.2162L37.0815 91.172L37.0297 91.165C36.776 91.1174 36.5945 90.8843 36.6168 90.6217C36.6392 90.3593 36.8572 90.1603 37.1153 90.156L37.1676 90.158ZM49.138 89.992C49.4179 89.9637 49.6679 90.1676 49.6963 90.4473C49.7245 90.7269 49.5204 90.9767 49.2405 91.005C48.8736 91.0421 48.5065 91.0764 48.1395 91.1084C47.8592 91.1328 47.6122 90.9256 47.5877 90.6456C47.5633 90.3655 47.7706 90.1187 48.0509 90.0943C48.4132 90.0628 48.7756 90.0286 49.138 89.992ZM35.0018 89.9303C35.362 89.9755 35.7222 90.0173 36.0825 90.0551C36.3623 90.0844 36.5655 90.3347 36.5362 90.6143C36.5068 90.8939 36.2558 91.0969 35.976 91.0676C35.609 91.0291 35.242 90.9864 34.875 90.9404C34.5958 90.9053 34.3981 90.6511 34.4332 90.3722C34.4682 90.0933 34.7227 89.8954 35.0018 89.9303ZM51.36 89.7394C51.618 89.7329 51.8445 89.9225 51.8779 90.1838C51.9135 90.4627 51.7157 90.7179 51.4366 90.7535L50.3415 90.8862C50.062 90.9182 49.8094 90.7176 49.7774 90.4383C49.7453 90.1591 49.9457 89.9067 50.2251 89.8746C50.5859 89.8333 50.9469 89.7894 51.3077 89.7434L51.36 89.7394ZM32.7988 89.6087L32.851 89.6147L33.3884 89.7027C33.5676 89.7309 33.7469 89.7579 33.9262 89.7842C34.2046 89.825 34.3974 90.0836 34.3565 90.3618C34.3157 90.6398 34.0568 90.832 33.7784 90.7912C33.5957 90.7644 33.4129 90.737 33.2301 90.7082L32.6814 90.6188L32.6306 90.6073C32.3816 90.539 32.2201 90.2921 32.2639 90.0322C32.3078 89.7724 32.5412 89.5919 32.7988 89.6087ZM53.473 89.4407C53.7511 89.3986 54.0108 89.5898 54.0531 89.8677C54.0953 90.1456 53.9039 90.4051 53.6257 90.4473C53.2611 90.5026 52.8964 90.5558 52.5317 90.6068C52.253 90.6458 51.9956 90.4517 51.9565 90.1734C51.9175 89.895 52.1117 89.6378 52.3904 89.5988C52.7511 89.5483 53.1121 89.4955 53.473 89.4407ZM31.2455 89.3179L31.7759 89.4218L31.8266 89.4342C32.074 89.508 32.2302 89.7585 32.1809 90.0173C32.1314 90.2762 31.8938 90.4518 31.6366 90.4294L31.5848 90.4219L31.044 90.316C30.8638 90.2797 30.6834 90.2421 30.5032 90.2037L30.6097 89.7061L30.7156 89.2081C30.8922 89.2457 31.0689 89.2823 31.2455 89.3179ZM55.6297 89.0893C55.9069 89.0413 56.1707 89.2269 56.2188 89.5038C56.267 89.7808 56.0811 90.0442 55.8039 90.0924C55.4416 90.1553 55.0792 90.2162 54.7168 90.2753L54.665 90.2812C54.4073 90.2969 54.1742 90.1153 54.1317 89.8553C54.0864 89.5778 54.275 89.316 54.5526 89.2707L55.6297 89.0893ZM30.1112 89.5998C30.1699 89.3249 30.4405 89.1496 30.7156 89.2081L30.5032 90.2037C30.2281 90.145 30.0525 89.8747 30.1112 89.5998ZM29.6559 88.9705C29.9297 89.0351 30.0992 89.3093 30.0345 89.5829C29.9698 89.8564 29.6954 90.0257 29.4216 89.9611L29.6559 88.9705ZM27.9748 89.0729C28.0411 88.8178 28.2897 88.6583 28.5449 88.6976L28.5962 88.708L29.126 88.8422C29.3026 88.886 29.4793 88.9288 29.6559 88.9705L29.5385 89.4656L29.4216 89.9611C29.2413 89.9186 29.061 89.875 28.8808 89.8304L28.34 89.6932L28.2902 89.6778C28.0481 89.5881 27.9086 89.3279 27.9748 89.0729ZM57.8358 88.6867C58.0929 88.6635 58.3309 88.8381 58.3811 89.0967C58.4345 89.3727 58.2538 89.6398 57.9776 89.6932L56.891 89.898C56.6143 89.9488 56.3488 89.7659 56.2979 89.4894C56.2472 89.213 56.4302 88.9478 56.7069 88.8969C57.0659 88.8309 57.4249 88.763 57.784 88.6936L57.8358 88.6867ZM59.9786 88.2522C60.2353 88.2248 60.4759 88.3956 60.5304 88.6534C60.5885 88.9284 60.4126 89.1982 60.1373 89.2563L59.0577 89.4795C58.782 89.5353 58.5131 89.3573 58.4572 89.0818C58.4013 88.8064 58.5795 88.5377 58.8552 88.4819C59.2123 88.4096 59.5697 88.336 59.9269 88.2607L59.9786 88.2522ZM25.8737 88.4545C25.9512 88.2027 26.2066 88.0542 26.4598 88.1046L26.5106 88.1175L27.0295 88.2736C27.2023 88.3246 27.3751 88.3748 27.5479 88.4237C27.8186 88.5004 27.9759 88.782 27.8992 89.0525C27.8223 89.3228 27.5409 89.48 27.2703 89.4034C27.0937 89.3534 26.917 89.3024 26.7404 89.2503L26.211 89.0908L26.1623 89.0729C25.9243 88.9726 25.7962 88.7065 25.8737 88.4545ZM62.0677 87.7924C62.3422 87.7304 62.6151 87.9025 62.6772 88.1767C62.7392 88.4508 62.567 88.7235 62.2926 88.7856C61.9341 88.8666 61.5755 88.9462 61.217 89.0247L61.1652 89.0331C60.9087 89.0625 60.6664 88.8938 60.61 88.6365C60.5498 88.3618 60.7242 88.0901 60.999 88.03L62.0677 87.7924ZM24.4354 87.4291C24.7812 87.5524 25.1274 87.6718 25.4732 87.7865C25.7401 87.8751 25.8847 88.163 25.7961 88.4297C25.7075 88.6965 25.4189 88.8408 25.1518 88.7523C24.7988 88.6352 24.4456 88.5138 24.0926 88.3879L24.2642 87.9087L24.4354 87.4291ZM64.2524 87.2864C64.5083 87.252 64.7536 87.4159 64.8151 87.6721C64.8806 87.9455 64.712 88.22 64.4384 88.2855L63.3658 88.539L63.3145 88.5485C63.0583 88.5815 62.8137 88.4155 62.7538 88.1588C62.69 87.885 62.8604 87.6112 63.1344 87.5474L64.2011 87.2959L64.2524 87.2864ZM23.7841 87.7373C23.8787 87.4726 24.1704 87.3346 24.4354 87.4291L24.0926 88.3879C23.8277 88.2933 23.6895 88.0019 23.7841 87.7373ZM21.7537 86.939C21.8598 86.6786 22.1573 86.5531 22.4179 86.6591C22.754 86.7959 23.0903 86.9285 23.4264 87.0568L23.4742 87.0777C23.7048 87.1936 23.8145 87.4677 23.7204 87.7139C23.62 87.9765 23.3255 88.1079 23.0627 88.0077L22.5483 87.8083C22.3767 87.7407 22.2053 87.6718 22.0338 87.6021C21.7733 87.4961 21.6478 87.1993 21.7537 86.939ZM66.3305 86.7744C66.6034 86.7062 66.88 86.8717 66.9485 87.1443C67.0168 87.4169 66.8511 87.6932 66.5783 87.7616C66.2225 87.8506 65.8665 87.9389 65.5106 88.0261L65.4594 88.036C65.2037 88.0718 64.9576 87.9091 64.8947 87.6533C64.8277 87.3803 64.9946 87.1044 65.2678 87.0374L66.3305 86.7744ZM67.6455 87.4922C67.3729 87.5617 67.0951 87.3973 67.0256 87.1249C66.9561 86.8526 67.1208 86.5756 67.3932 86.506L67.6455 87.4922ZM68.5077 86.2222C68.7629 86.183 69.0116 86.3424 69.0779 86.5975C69.1485 86.8696 68.9846 87.1478 68.7122 87.2183L67.6455 87.4922L67.3932 86.506C67.7475 86.4157 68.1021 86.3244 68.4565 86.2326L68.5077 86.2222ZM19.7362 86.0418C19.8463 85.8024 20.1188 85.6891 20.3631 85.7724L20.4119 85.7917L20.9104 86.0169L21.4094 86.2361L21.4562 86.259C21.6816 86.3849 21.7794 86.6638 21.6746 86.9057C21.5697 87.1475 21.2993 87.2667 21.0532 87.1885L21.0044 87.1701L20.4955 86.9469L19.9865 86.7168L19.9402 86.6929C19.7177 86.5622 19.6262 86.2813 19.7362 86.0418ZM70.7093 86.1675L70.8406 86.6591C70.4863 86.7533 70.1318 86.8474 69.7774 86.9405L69.7261 86.9509C69.4711 86.9909 69.2221 86.8324 69.155 86.5776C69.0834 86.3057 69.2461 86.0273 69.5182 85.9558L70.5784 85.6754L70.7093 86.1675ZM70.5784 85.6754C70.8503 85.6032 71.1295 85.7651 71.2018 86.0368C71.274 86.3083 71.1123 86.5868 70.8406 86.6591L70.5784 85.6754ZM72.8327 85.5979L72.966 86.089C72.6119 86.1848 72.2575 86.2802 71.9033 86.3753L71.8521 86.3862C71.5973 86.4275 71.3473 86.2704 71.2789 86.0159C71.2059 85.7444 71.3674 85.465 71.6391 85.3921L72.6999 85.1063L72.8327 85.5979ZM17.7805 85.071C17.9005 84.8364 18.1777 84.7345 18.4183 84.8279L18.4661 84.8493L18.9526 85.0944L19.4387 85.333L19.4845 85.3583C19.7043 85.4937 19.79 85.7758 19.6751 86.0129C19.56 86.25 19.2852 86.3578 19.0427 86.2694L18.9944 86.249L18.4984 86.0055L18.0024 85.756L17.9571 85.7296C17.7404 85.5896 17.6606 85.3056 17.7805 85.071ZM72.6999 85.1063C72.9714 85.033 73.2512 85.1934 73.3247 85.4647C73.3983 85.736 73.2375 86.0155 72.966 86.089L72.6999 85.1063ZM74.8183 84.5302C75.0897 84.4561 75.37 84.6159 75.4442 84.8871C75.5184 85.1582 75.3584 85.4383 75.087 85.5124C74.7336 85.6089 74.3802 85.7051 74.0268 85.8012C73.7553 85.875 73.4753 85.715 73.4014 85.4438C73.3275 85.1726 73.4876 84.8928 73.7591 84.819C74.1121 84.723 74.4652 84.6266 74.8183 84.5302ZM16.3143 84.2752C16.4416 84.0444 16.722 83.951 16.9596 84.052L17.0063 84.0749L17.4929 84.3398C17.7407 84.4729 17.8336 84.7812 17.7004 85.0288C17.5671 85.2763 17.2581 85.3691 17.0103 85.236L16.5148 84.9666L16.4705 84.9393C16.258 84.7926 16.187 84.5061 16.3143 84.2752ZM76.9383 83.9506C77.2096 83.8764 77.4899 84.0359 77.5642 84.307C77.6385 84.5781 77.4787 84.858 77.2074 84.9323C76.8579 85.0279 76.4968 85.127 76.1472 85.2226C75.8759 85.2967 75.5956 85.1368 75.5213 84.8657C75.4472 84.5947 75.6068 84.3147 75.8781 84.2404C76.2351 84.1427 76.5812 84.0483 76.9383 83.9506ZM136.578 84.1763L136.622 84.2036C136.835 84.35 136.906 84.6367 136.779 84.8677C136.652 85.0986 136.372 85.1921 136.134 85.0914L136.087 85.0685L135.6 84.8046L135.841 84.3562L136.081 83.9074L136.578 84.1763ZM135.392 84.1156C135.524 83.8679 135.833 83.7747 136.081 83.9074L135.6 84.8046C135.352 84.6718 135.259 84.3634 135.392 84.1156ZM79.0587 83.3715C79.3302 83.2977 79.6101 83.4578 79.6841 83.7289C79.758 84.0002 79.5979 84.2799 79.3264 84.3537C78.9734 84.4498 78.6203 84.5461 78.2672 84.6425L78.2159 84.654C77.9614 84.6964 77.7109 84.5402 77.6413 84.2861C77.5671 84.015 77.7271 83.7349 77.9985 83.6608L79.0587 83.3715ZM135.089 83.3894C135.339 83.517 135.439 83.8234 135.311 84.0739C135.184 84.3244 134.877 84.424 134.626 84.2966L135.089 83.3894ZM133.415 83.1344C133.53 82.8971 133.805 82.7888 134.048 82.877L134.096 82.8973L134.592 83.1399C134.758 83.2219 134.923 83.3052 135.089 83.3894L134.857 83.8428L134.626 84.2966C134.464 84.214 134.302 84.1324 134.139 84.052L133.653 83.8139L133.607 83.7891C133.387 83.654 133.301 83.3718 133.415 83.1344ZM81.2334 82.7865C81.4882 82.7452 81.7382 82.9029 81.8066 83.1573C81.8794 83.4287 81.718 83.7077 81.4464 83.7806L80.3856 84.0664C80.1141 84.1398 79.8343 83.9793 79.7607 83.708C79.6874 83.4368 79.848 83.1572 80.1195 83.0837C80.4736 82.9879 80.8279 82.8925 81.1822 82.7974L81.2334 82.7865ZM83.3593 82.2218C83.6144 82.1818 83.8634 82.3408 83.9305 82.5956C84.002 82.8674 83.8394 83.1455 83.5673 83.2169L82.5071 83.4973C82.2352 83.5696 81.956 83.4081 81.8837 83.1364C81.8114 82.8648 81.9731 82.586 82.2449 82.5136C82.5992 82.4194 82.9537 82.3258 83.3081 82.2328L83.3593 82.2218ZM131.415 82.2447C131.519 82.0027 131.79 81.883 132.036 81.9609L132.085 81.9793L132.594 82.2019C132.763 82.2773 132.933 82.3535 133.103 82.4311C133.359 82.548 133.471 82.85 133.354 83.1056C133.237 83.3612 132.935 83.474 132.679 83.3571C132.513 83.2811 132.346 83.2058 132.18 83.1319L131.681 82.9137L131.634 82.8909C131.409 82.7653 131.31 82.4867 131.415 82.2447ZM85.44 81.6805C85.7126 81.611 85.9903 81.7755 86.0599 82.0478C86.1295 82.3202 85.9648 82.5976 85.6922 82.6672C85.338 82.7575 84.9834 82.8483 84.629 82.9401C84.3567 83.0106 84.0788 82.8473 84.0081 82.5752C83.9375 82.3031 84.1009 82.0255 84.3733 81.9549C84.7288 81.8628 85.0844 81.7712 85.44 81.6805ZM129.368 81.4389C129.462 81.1928 129.726 81.0614 129.976 81.1283L130.025 81.1442L130.54 81.3435L131.055 81.5488L131.102 81.5707C131.33 81.6912 131.434 81.9671 131.335 82.2114C131.236 82.4555 130.969 82.5813 130.721 82.5091L130.672 82.4917L130.168 82.2909L129.663 82.0961L129.615 82.0747C129.384 81.9591 129.274 81.6853 129.368 81.4389ZM87.5749 81.1467C87.8481 81.0798 88.1238 81.247 88.1908 81.52C88.2577 81.7929 88.0908 82.0683 87.8177 82.1353C87.4636 82.2221 87.1092 82.3097 86.755 82.3983C86.482 82.4666 86.2054 82.3011 86.137 82.0285C86.0687 81.7558 86.2343 81.4795 86.5072 81.4111C86.863 81.3221 87.219 81.2339 87.5749 81.1467ZM88.8844 81.8769C88.6108 81.9423 88.336 81.7739 88.2704 81.5006C88.2049 81.2272 88.3735 80.9527 88.647 80.8872L88.8844 81.8769ZM89.771 80.6243C90.0271 80.5913 90.2718 80.7573 90.3317 81.014C90.3955 81.2877 90.2251 81.5615 89.9511 81.6253L88.8844 81.8769L88.766 81.3818L88.647 80.8872C89.0046 80.8017 89.3621 80.717 89.7197 80.6337L89.771 80.6243ZM127.291 80.7257C127.374 80.4755 127.633 80.3328 127.885 80.3886L127.935 80.4026L128.465 80.5805C128.642 80.641 128.818 80.7027 128.995 80.7654C129.26 80.8597 129.398 81.1508 129.304 81.4156C129.21 81.6804 128.918 81.8189 128.653 81.7248C128.48 81.6633 128.307 81.6026 128.134 81.5433L127.615 81.3689L127.567 81.35C127.331 81.2446 127.209 80.9758 127.291 80.7257ZM91.9203 80.1396C92.1768 80.1102 92.4191 80.2789 92.4755 80.5363C92.5357 80.8108 92.3616 81.0819 92.0869 81.1422L91.0178 81.3803C90.7433 81.4423 90.4704 81.2702 90.4083 80.9961C90.3463 80.7219 90.5185 80.4497 90.7929 80.3876C91.1514 80.3066 91.5099 80.2265 91.8685 80.1481L91.9203 80.1396ZM125.816 79.7539C126.169 79.8534 126.522 79.9575 126.875 80.0656L126.925 80.0829C127.163 80.183 127.291 80.4493 127.214 80.7013C127.131 80.97 126.846 81.121 126.577 81.0388L126.059 80.8832C125.885 80.8324 125.712 80.7824 125.539 80.7336L125.678 80.244L125.816 79.7539ZM94.0278 79.6928C94.3035 79.637 94.5724 79.8154 94.6283 80.0909C94.6841 80.3663 94.5059 80.635 94.2303 80.6909C93.8732 80.7631 93.5158 80.8367 93.1586 80.9121L93.1069 80.9205C92.8502 80.9479 92.6091 80.7771 92.5546 80.5194C92.4965 80.2443 92.6729 79.974 92.9482 79.9159L94.0278 79.6928ZM125.187 80.1058C125.264 79.8353 125.545 79.6775 125.816 79.7539L125.539 80.7336C125.269 80.6572 125.111 80.3762 125.187 80.1058ZM96.1945 79.2742C96.4712 79.2235 96.7367 79.4064 96.7876 79.6828C96.8384 79.9592 96.6553 80.2244 96.3786 80.2753C96.0196 80.3413 95.6606 80.4092 95.3015 80.4786L95.2497 80.4861C94.9925 80.5093 94.7546 80.3342 94.7044 80.0755C94.651 79.7996 94.8317 79.5324 95.1079 79.479L96.1945 79.2742ZM123.613 79.1892L123.664 79.1982L124.205 79.3284C124.386 79.3728 124.566 79.4185 124.746 79.4651C125.018 79.5354 125.182 79.8133 125.112 80.0854C125.041 80.3574 124.764 80.521 124.491 80.4508C124.315 80.4051 124.138 80.3606 123.961 80.3171L123.431 80.1893L123.381 80.1749C123.137 80.0908 122.991 79.834 123.051 79.5774C123.112 79.3209 123.357 79.1559 123.613 79.1892ZM97.4557 80.0829C97.1786 80.1311 96.9149 79.9453 96.8667 79.6684C96.8185 79.3915 97.004 79.1281 97.2811 79.0799L97.4557 80.0829ZM98.4204 78.891C98.6781 78.8754 98.9108 79.0569 98.9533 79.317C98.9958 79.577 98.8329 79.823 98.5836 79.8901L98.5324 79.9015C98.1736 79.96 97.8146 80.0206 97.4557 80.0829L97.2811 79.0799C97.6434 79.0169 98.0058 78.9556 98.3682 78.8965L98.4204 78.891ZM121.449 78.7324L121.501 78.7399L122.041 78.8453C122.222 78.8814 122.402 78.9184 122.582 78.9566C122.858 79.015 123.033 79.2856 122.975 79.5605C122.916 79.8354 122.646 80.011 122.371 79.9527C122.194 79.9153 122.017 79.8788 121.84 79.8434L121.311 79.74L121.26 79.7275C121.012 79.6541 120.856 79.4039 120.905 79.145C120.954 78.886 121.192 78.7101 121.449 78.7324ZM100.606 78.5604C100.864 78.5506 101.092 78.7373 101.129 78.9984C101.168 79.2767 100.974 79.5339 100.695 79.573C100.334 79.6235 99.9734 79.6762 99.6125 79.731C99.3344 79.7732 99.0747 79.5824 99.0324 79.3045C98.9901 79.0267 99.1812 78.7673 99.4593 78.725C99.824 78.6696 100.189 78.616 100.554 78.5649L100.606 78.5604ZM119.307 78.372C119.489 78.3987 119.673 78.4264 119.855 78.4551L120.404 78.544L120.455 78.555C120.704 78.6231 120.866 78.8702 120.822 79.1301C120.778 79.39 120.545 79.5707 120.287 79.5541L120.235 79.5481L119.698 79.4606C119.518 79.4326 119.339 79.4057 119.16 79.3796C118.881 79.339 118.688 79.0806 118.729 78.8025C118.77 78.5244 119.028 78.3316 119.307 78.372ZM102.744 78.2856C103.023 78.2535 103.276 78.4537 103.308 78.7329C103.34 79.0121 103.14 79.2644 102.86 79.2966C102.5 79.338 102.139 79.3822 101.778 79.4283C101.499 79.464 101.243 79.2667 101.208 78.9879C101.172 78.7091 101.369 78.4539 101.648 78.4183C102.013 78.3716 102.379 78.3275 102.744 78.2856ZM117.109 78.0977C117.476 78.1359 117.843 78.1781 118.21 78.2239C118.489 78.2588 118.687 78.5131 118.652 78.7921C118.62 79.0535 118.394 79.2438 118.136 79.2379L118.084 79.234L117.543 79.1693C117.363 79.1487 117.183 79.129 117.003 79.1102C116.723 79.081 116.52 78.831 116.549 78.5515C116.578 78.272 116.829 78.0687 117.109 78.0977ZM103.947 79.1793C103.668 79.2077 103.418 79.0036 103.389 78.724C103.361 78.4444 103.565 78.1947 103.844 78.1663L103.947 79.1793ZM104.945 78.0624C105.226 78.0379 105.473 78.2451 105.498 78.5251C105.522 78.8051 105.315 79.0518 105.035 79.0764C104.672 79.108 104.31 79.1426 103.947 79.1793L103.844 78.1663C104.211 78.1291 104.578 78.0944 104.945 78.0624ZM114.898 77.9118L115.451 77.95C115.635 77.9637 115.819 77.9783 116.004 77.9938L116.055 78.0007C116.309 78.0483 116.49 78.281 116.468 78.5435C116.445 78.8237 116.198 79.0319 115.918 79.0083L115.376 78.9655L114.833 78.9278L114.781 78.9218C114.526 78.8793 114.34 78.65 114.357 78.387C114.374 78.124 114.588 77.9208 114.846 77.9113L114.898 77.9118ZM107.204 77.9018C107.462 77.9132 107.674 78.1181 107.689 78.381C107.706 78.6616 107.491 78.9027 107.21 78.9188L106.665 78.9521C106.484 78.9639 106.303 78.9762 106.121 78.9894L106.069 78.9909C105.811 78.9835 105.595 78.7815 105.576 78.5187C105.556 78.2384 105.767 77.9948 106.047 77.9744L106.599 77.9361C106.783 77.9241 106.967 77.9129 107.152 77.9023L107.204 77.9018ZM113.239 77.8288L113.793 77.8511L113.845 77.8561C114.101 77.8938 114.291 78.1198 114.279 78.383C114.266 78.6637 114.028 78.8809 113.747 78.8681L113.202 78.8458C113.021 78.8392 112.839 78.8337 112.658 78.8289C112.376 78.8212 112.155 78.5874 112.162 78.3064C112.17 78.0255 112.404 77.8039 112.685 77.8114C112.87 77.8163 113.055 77.8221 113.239 77.8288ZM109.415 77.8114C109.673 77.8308 109.879 78.0425 109.885 78.3059C109.893 78.5869 109.671 78.8206 109.389 78.8279L108.845 78.8438L108.3 78.8646L108.248 78.8641C107.99 78.8488 107.78 78.6403 107.769 78.377C107.758 78.0963 107.976 77.8595 108.257 77.8476L108.81 77.8268C108.995 77.8206 109.179 77.8151 109.364 77.8104L109.415 77.8114ZM111.578 77.7915C111.859 77.794 112.085 78.0239 112.083 78.3049C112.08 78.586 111.85 78.8118 111.569 78.8095C111.205 78.8062 110.842 78.8064 110.478 78.8095C110.197 78.8118 109.967 78.5855 109.965 78.3044C109.963 78.0235 110.189 77.7939 110.47 77.7915C110.839 77.7883 111.208 77.7882 111.578 77.7915Z" fill="black"/>
</svg>
