<svg width="23" height="14" viewBox="0 0 23 14" fill="none" xmlns="http://www.w3.org/2000/svg">
<path d="M15.3594 0.227933C15.7571 -0.103538 16.3371 -0.0739443 16.6992 0.280667L16.7686 0.355863L21.7686 6.35586L22.3018 6.99649L21.8047 7.59219C21.7812 7.62413 21.7565 7.6551 21.7295 7.68399L16.7686 13.6371C16.415 14.0613 15.7836 14.1186 15.3594 13.765C14.9352 13.4115 14.8779 12.7801 15.2314 12.3559L18.8604 8.00039H1C0.447715 8.00039 0 7.55268 0 7.00039C0 6.44811 0.447715 6.00039 1 6.00039H18.8672L15.2314 1.63711L15.1699 1.55508C14.8865 1.13495 14.9617 0.559414 15.3594 0.227933Z" fill="#A7A7A7"/>
</svg>
