<svg width="80" height="80" viewBox="0 0 80 80" fill="none" xmlns="http://www.w3.org/2000/svg">
<path d="M40 27.1667C38.988 27.1667 38.1667 26.3453 38.1667 25.3333V19.8333C38.1667 18.8213 38.988 18 40 18C41.012 18 41.8333 18.8213 41.8333 19.8333V25.3333C41.8333 26.3453 41.012 27.1667 40 27.1667ZM40 62C38.988 62 38.1667 61.1805 38.1667 60.1667V54.6667C38.1667 53.6528 38.988 52.8333 40 52.8333C41.012 52.8333 41.8333 53.6528 41.8333 54.6667V60.1667C41.8333 61.1805 41.012 62 40 62ZM40 62C38.988 62 38.1667 61.1805 38.1667 60.1667V54.6667C38.1667 53.6528 38.988 52.8333 40 52.8333C41.012 52.8333 41.8333 53.6528 41.8333 54.6667V60.1667C41.8333 61.1805 41.012 62 40 62ZM25.3333 41.8333H19.8333C18.8213 41.8333 18 41.012 18 40C18 38.988 18.8213 38.1667 19.8333 38.1667H25.3333C26.3453 38.1667 27.1667 38.988 27.1667 40C27.1667 41.012 26.3453 41.8333 25.3333 41.8333ZM60.1667 41.8333H54.6667C53.6528 41.8333 52.8333 41.012 52.8333 40C52.8333 38.988 53.6528 38.1667 54.6667 38.1667H60.1667C61.1805 38.1667 62 38.988 62 40C62 41.012 61.1805 41.8333 60.1667 41.8333ZM60.1667 41.8333H54.6667C53.6528 41.8333 52.8333 41.012 52.8333 40C52.8333 38.988 53.6528 38.1667 54.6667 38.1667H60.1667C61.1805 38.1667 62 38.988 62 40C62 41.012 61.1805 41.8333 60.1667 41.8333ZM27.2968 34.5C26.9852 34.5 26.6698 34.4212 26.382 34.2543L21.619 31.5043C20.7408 30.9983 20.442 29.8782 20.9462 29C21.4522 28.1237 22.5705 27.8212 23.4505 28.329L28.2135 31.079C29.0917 31.585 29.3923 32.7052 28.8863 33.5833C28.5453 34.1718 27.9312 34.5 27.2968 34.5ZM57.4625 51.9167C57.1508 51.9167 56.8355 51.8378 56.5477 51.671L51.7828 48.921C50.9047 48.415 50.604 47.293 51.1118 46.4167C51.6197 45.5403 52.7398 45.2378 53.6162 45.7457L58.381 48.4957C59.2592 49.0017 59.5598 50.1237 59.052 51C58.7128 51.5867 58.0968 51.9167 57.4625 51.9167ZM57.4625 51.9167C57.1508 51.9167 56.8355 51.8378 56.5477 51.671L51.7828 48.921C50.9047 48.415 50.604 47.293 51.1118 46.4167C51.6197 45.5403 52.7398 45.2378 53.6162 45.7457L58.381 48.4957C59.2592 49.0017 59.5598 50.1237 59.052 51C58.7128 51.5867 58.0968 51.9167 57.4625 51.9167ZM29.9148 59.2977C29.605 59.2977 29.2897 59.2188 29 59.052C28.1237 58.546 27.823 57.424 28.329 56.5477L31.079 51.7828C31.585 50.9083 32.7033 50.604 33.5833 51.1137C34.4597 51.6197 34.7603 52.7417 34.2543 53.618L31.5043 58.3828C31.1652 58.9695 30.5492 59.2977 29.9148 59.2977ZM47.3315 29.132C47.0198 29.132 46.7045 29.0532 46.4167 28.8863C45.5385 28.3803 45.2378 27.2583 45.7457 26.382L48.4957 21.619C49.0017 20.7408 50.1237 20.4402 51 20.9462C51.8782 21.4522 52.1788 22.5742 51.671 23.4505L48.921 28.2135C48.5818 28.8038 47.9658 29.132 47.3315 29.132ZM47.3315 29.132C47.0198 29.132 46.7045 29.0532 46.4167 28.8863C45.5385 28.3803 45.2378 27.2583 45.7457 26.382L48.4957 21.619C49.0017 20.7408 50.1237 20.4402 51 20.9462C51.8782 21.4522 52.1788 22.5742 51.671 23.4505L48.921 28.2135C48.5818 28.8038 47.9658 29.132 47.3315 29.132ZM52.7032 34.5C52.0688 34.5 51.4528 34.1718 51.1137 33.5833C50.6077 32.7052 50.9083 31.585 51.7847 31.079L56.5495 28.329C57.424 27.8212 58.5478 28.1237 59.0538 29C59.5598 29.8763 59.2592 30.9983 58.3828 31.5043L53.618 34.2543C53.3302 34.4212 53.0148 34.5 52.7032 34.5ZM22.5375 51.9167C21.9032 51.9167 21.2872 51.5885 20.948 51C20.442 50.1218 20.7427 49.0017 21.619 48.4957L26.382 45.7457C27.2602 45.2378 28.3785 45.5385 28.8863 46.4167C29.3923 47.2948 29.0917 48.415 28.2153 48.921L23.4523 51.671C23.1627 51.8378 22.8473 51.9167 22.5375 51.9167ZM22.5375 51.9167C21.9032 51.9167 21.2872 51.5885 20.948 51C20.442 50.1218 20.7427 49.0017 21.619 48.4957L26.382 45.7457C27.2602 45.2378 28.3785 45.5385 28.8863 46.4167C29.3923 47.2948 29.0917 48.415 28.2153 48.921L23.4523 51.671C23.1627 51.8378 22.8473 51.9167 22.5375 51.9167ZM32.6685 29.132C32.0342 29.132 31.4182 28.8038 31.079 28.2153L28.329 23.4523C27.823 22.5742 28.1218 21.454 29 20.9462C29.8782 20.4383 30.9983 20.7408 31.5043 21.6172L34.2543 26.3802C34.7603 27.2583 34.4615 28.3803 33.5833 28.8863C33.2937 29.0532 32.9783 29.132 32.6685 29.132ZM50.0852 59.2977C49.4508 59.2977 48.8348 58.9677 48.4957 58.381L45.7457 53.6162C45.2397 52.738 45.5403 51.6178 46.4167 51.1118C47.2893 50.6058 48.4132 50.9083 48.921 51.7828L51.671 56.5477C52.177 57.4258 51.8763 58.546 51 59.052C50.7122 59.2188 50.3968 59.2977 50.0852 59.2977ZM50.0852 59.2977C49.4508 59.2977 48.8348 58.9677 48.4957 58.381L45.7457 53.6162C45.2397 52.738 45.5403 51.6178 46.4167 51.1118C47.2893 50.6058 48.4132 50.9083 48.921 51.7828L51.671 56.5477C52.177 57.4258 51.8763 58.546 51 59.052C50.7122 59.2188 50.3968 59.2977 50.0852 59.2977Z" fill="url(#paint0_linear_1573_7772)"/>
<defs>
<linearGradient id="paint0_linear_1573_7772" x1="31.8152" y1="23.2096" x2="38.5437" y2="64.9668" gradientUnits="userSpaceOnUse">
<stop stop-color="#F9C032"/>
<stop offset="1" stop-color="#FD8337"/>
</linearGradient>
</defs>
</svg>
