<svg width="65" height="64" viewBox="0 0 65 64" fill="none" xmlns="http://www.w3.org/2000/svg">
<g clip-path="url(#clip0_1573_6046)">
<path fill-rule="evenodd" clip-rule="evenodd" d="M52.3307 7C52.8383 7.00017 53.25 7.41591 53.25 7.92881V32.0712C53.25 32.5841 52.8383 32.9998 52.3307 33H44.6648V26.151C44.6648 22.7953 41.6548 21.9426 40.1026 22.0129C34.2323 22.2786 30.0411 18.8975 28.8705 17.8516C27.4367 16.5962 25.4593 18.6396 26.758 20.0585C29.4691 23.036 33.3154 24.7326 34.3482 25.1283C35.7432 26.0023 35.7444 26.5815 35.7444 27.9389V33H12.1693C11.6616 32.9999 11.25 32.5841 11.25 32.0712V7.92881C11.25 7.41587 11.6616 7.00009 12.1693 7H52.3307ZM40.3736 11.6441C38.0899 11.6441 36.2386 13.5143 36.2386 15.8218C36.2386 18.1293 38.0898 20.0004 40.3736 20.0005C42.6577 20.0005 44.5097 18.1294 44.5097 15.8218C44.5095 13.5143 42.6576 11.6441 40.3736 11.6441Z" fill="#565D64"/>
<path fill-rule="evenodd" clip-rule="evenodd" d="M52.3307 7C52.8383 7.00017 53.25 7.41591 53.25 7.92881V32.0712C53.25 32.5841 52.8383 32.9998 52.3307 33H44.6648V26.151C44.6648 22.7953 41.6548 21.9426 40.1026 22.0129C34.2323 22.2786 30.0411 18.8975 28.8705 17.8516C27.4367 16.5962 25.4593 18.6396 26.758 20.0585C29.4691 23.036 33.3154 24.7326 34.3482 25.1283C35.7432 26.0023 35.7444 26.5815 35.7444 27.9389V33H12.1693C11.6616 32.9999 11.25 32.5841 11.25 32.0712V7.92881C11.25 7.41587 11.6616 7.00009 12.1693 7H52.3307ZM40.3736 11.6441C38.0899 11.6441 36.2386 13.5143 36.2386 15.8218C36.2386 18.1293 38.0898 20.0004 40.3736 20.0005C42.6577 20.0005 44.5097 18.1294 44.5097 15.8218C44.5095 13.5143 42.6576 11.6441 40.3736 11.6441Z" fill="url(#paint0_linear_1573_6046)"/>
<circle cx="5.75" cy="41.5" r="4.5" fill="#F1F1F1"/>
<circle cx="18.75" cy="41.5" r="4.5" fill="#F1F1F1"/>
<circle cx="31.75" cy="41.5" r="4.5" fill="#F1F1F1"/>
<circle cx="44.75" cy="41.5" r="4.5" fill="#F1F1F1"/>
<circle cx="12.75" cy="52.5" r="4.5" fill="#F1F1F1"/>
<circle cx="25.75" cy="52.5" r="4.5" fill="#F1F1F1"/>
<circle cx="38.75" cy="52.5" r="4.5" fill="#F1F1F1"/>
<circle cx="51.75" cy="52.5" r="4.5" fill="#F1F1F1"/>
<circle cx="57.75" cy="41.5" r="4.5" fill="#F1F1F1"/>
</g>
<defs>
<linearGradient id="paint0_linear_1573_6046" x1="24.4373" y1="10.0784" x2="26.9376" y2="35.1443" gradientUnits="userSpaceOnUse">
<stop stop-color="#F9C032"/>
<stop offset="1" stop-color="#FD8337"/>
</linearGradient>
<clipPath id="clip0_1573_6046">
<rect width="64" height="64" fill="white" transform="translate(0.25)"/>
</clipPath>
</defs>
</svg>
