<svg width="71" height="70" viewBox="0 0 71 70" fill="none" xmlns="http://www.w3.org/2000/svg">
<rect opacity="0.02" x="0.5" width="70" height="70" fill="#D9D9D9"/>
<path d="M31.5616 32.1904C21.0904 32.1904 12.5996 40.6812 12.5996 51.1456V56.0866C12.6065 58.8003 14.8131 61.0001 17.5269 61.0001H45.5896C48.3033 61.0001 50.5099 58.8003 50.5168 56.0866V51.1456C50.5168 40.6744 42.026 32.1836 31.5548 32.1836L31.5616 32.1904Z" fill="#0F3654"/>
<path d="M44.9443 22.3837C44.9443 29.778 38.948 35.7675 31.5605 35.7675C24.1731 35.7675 18.1699 29.778 18.1699 22.3837C18.1699 14.9894 24.1662 9 31.5605 9C38.9548 9 44.9443 14.9963 44.9443 22.3837Z" fill="white"/>
<path d="M34.5829 40.9961H55.3129C57.0262 40.9961 58.4104 42.3872 58.4104 44.0936V57.8954C58.4104 59.6086 57.0193 60.9929 55.3129 60.9929H34.5897C32.8765 60.9929 31.4922 59.6018 31.4922 57.8954V44.1005C31.4922 42.3872 32.8833 41.0029 34.5897 41.0029L34.5829 40.9961Z" fill="white"/>
<path d="M48.2272 40.9961H41.6621V47.102H48.2272V40.9961Z" fill="#246BEB"/>
</svg>
