<svg width="80" height="80" viewBox="0 0 80 80" fill="none" xmlns="http://www.w3.org/2000/svg">
<path d="M61 54.2429V56.8C61 57.3303 60.7357 57.815 60.3172 58.0522C53.3811 61.9826 46.3836 61.9826 39.4476 58.0522C38.6348 57.5917 37.8232 57.1911 37.0123 56.8505L36.9009 55.2149C36.24 49.5974 34.2164 45.3927 30.826 42.703C27.5002 40.0646 23.715 38.929 19.5204 39.3043L19 39.3653V23.2C19 22.6697 19.2643 22.1849 19.6828 21.9478C23.9708 19.5179 28.2823 18.5903 32.5882 19.1648V21.1C32.6042 26.1929 33.4995 29.9979 35.347 32.4987C36.4685 34.0169 37.7535 35.0022 40.0591 36.3462C40.2131 36.436 40.3712 36.5274 40.5822 36.6489C40.8447 36.7998 40.9886 36.8826 41.1079 36.9514C41.5346 37.1975 41.8511 37.383 42.1629 37.5709C42.9598 38.0515 43.6289 38.4932 44.2637 38.9684C44.8507 39.4077 45.3971 39.8685 45.9163 40.3676C46.9383 41.3502 47.6064 42.4641 48.1817 43.9844C48.3787 44.5052 48.4476 44.7129 48.8498 45.9665C49.8194 48.9882 50.5792 50.4202 52.3439 51.6836C54.9142 53.5238 57.3494 54.3931 59.6442 54.2429H61ZM61 51.4446L59.5303 51.4456C57.7943 51.5682 55.8404 50.875 53.6634 49.3164C52.4912 48.4772 51.9677 47.4905 51.1716 45.0096C50.75 43.6957 50.6756 43.4711 50.4523 42.8809C49.7368 40.99 48.8569 39.523 47.5145 38.2324C46.9174 37.6584 46.2921 37.131 45.6253 36.6319C44.9182 36.1027 44.1841 35.6181 43.3233 35.0991C42.996 34.9016 42.6674 34.7091 42.2284 34.4559C42.1076 34.3863 41.9623 34.3026 41.701 34.1524C41.4934 34.0329 41.3387 33.9434 41.1892 33.8563C39.1557 32.6709 38.0961 31.8585 37.2413 30.7013C35.8247 28.7837 35.073 25.5887 35.0588 21.095V19.6595C36.8928 20.1493 38.7248 20.9121 40.5524 21.9478C46.7929 25.484 52.9718 25.484 59.2123 21.9478C60.0336 21.4824 61 22.1593 61 23.2V51.4446ZM52.9706 35.8C53.9939 35.8 54.8235 34.8598 54.8235 33.7C54.8235 32.5402 53.9939 31.6 52.9706 31.6C51.9472 31.6 51.1176 32.5402 51.1176 33.7C51.1176 34.8598 51.9472 35.8 52.9706 35.8ZM34.4769 55.9805C29.9146 54.7663 25.3677 55.4569 20.7877 58.0522C19.9664 58.5176 19 57.8407 19 56.8V42.1799L19.7448 42.0926C23.3438 41.7709 26.5586 42.7354 29.4093 44.9969C32.1881 47.2015 33.8688 50.6843 34.4475 55.5468L34.4769 55.9805Z" fill="url(#paint0_linear_1573_7629)"/>
<defs>
<linearGradient id="paint0_linear_1573_7629" x1="32.1873" y1="23.9728" x2="38.6099" y2="63.8319" gradientUnits="userSpaceOnUse">
<stop stop-color="#F9C032"/>
<stop offset="1" stop-color="#FD8337"/>
</linearGradient>
</defs>
</svg>
