<svg width="65" height="64" viewBox="0 0 65 64" fill="none" xmlns="http://www.w3.org/2000/svg">
<path d="M42.25 33.8008V45.8008" stroke="#F1F1F1" stroke-width="16.2382" stroke-miterlimit="10" stroke-linecap="round"/>
<path d="M42.25 39.8008V47.9008" stroke="#F1F1F1" stroke-width="15.9437" stroke-miterlimit="10" stroke-linecap="square"/>
<path d="M44.25 23.9004C48.116 23.9004 51.25 20.7664 51.25 16.9004C51.25 13.0344 48.116 9.90039 44.25 9.90039C40.384 9.90039 37.25 13.0344 37.25 16.9004C37.25 20.7664 40.384 23.9004 44.25 23.9004Z" fill="#F1F1F1"/>
<path d="M27.1504 53.0996C27.3504 50.7996 27.5504 48.4996 27.9504 46.1996C28.3504 43.8996 28.7504 41.5996 29.3504 39.2996C29.9504 36.9996 30.7504 34.6996 31.9504 32.2996C32.5504 31.0996 33.3504 29.7996 34.5504 28.5996C34.8504 28.2996 35.1504 27.9996 35.6504 27.6996L36.2504 27.2996C36.4504 27.1996 36.7504 26.9996 36.9504 26.8996C37.9504 26.3996 39.2504 26.0996 40.4504 26.0996C42.9504 26.0996 44.9504 28.0996 44.9504 30.5996C44.9504 33.0996 42.9504 35.0996 40.4504 35.0996C40.6504 35.1996 40.7504 35.0996 40.7504 35.0996H40.6504C40.5504 35.0996 40.4504 35.1996 40.3504 35.2996C39.9504 35.5996 39.3504 36.0996 38.7504 36.7996C37.5504 38.1996 36.4504 39.9996 35.4504 41.7996C34.4504 43.6996 33.5504 45.5996 32.6504 47.6996C31.7504 49.6996 30.9504 51.7996 30.1504 53.8996C29.8504 54.7996 28.8504 55.1996 28.0504 54.8996C27.5504 54.4996 27.1504 53.7996 27.1504 53.0996Z" fill="#F1F1F1"/>
<path d="M52.8496 54.7004C52.1496 52.6004 51.4496 50.4004 50.7496 48.3004C49.9496 46.2004 49.1496 44.1004 48.2496 42.1004C47.3496 40.1004 46.3496 38.2004 45.2496 36.7004C44.7496 36.0004 44.1496 35.4004 43.7496 35.1004C43.5496 35.0004 43.4496 34.9004 43.4496 34.9004C43.4496 34.9004 43.6496 35.0004 43.8496 34.9004C41.3496 34.9004 39.3496 32.9004 39.3496 30.4004C39.3496 27.9004 41.3496 25.9004 43.8496 25.9004C45.1496 25.9004 46.5496 26.3004 47.5496 26.8004C48.6496 27.4004 49.3496 28.0004 49.9496 28.7004C51.1496 30.0004 51.8496 31.3004 52.4496 32.6004C53.5496 35.1004 54.1496 37.5004 54.6496 39.9004C55.1496 42.3004 55.4496 44.6004 55.7496 47.0004C55.9496 49.4004 56.1496 51.7004 56.1496 54.1004C56.1496 55.0004 55.4496 55.8004 54.5496 55.8004C53.7496 55.9004 53.1496 55.4004 52.8496 54.7004Z" fill="#F1F1F1"/>
<path d="M25.25 33.8008V44.8008" stroke="#77B5D1" stroke-width="17.7335" stroke-miterlimit="10" stroke-linecap="round"/>
<path d="M25.25 39.8008V46.9008" stroke="url(#paint0_linear_1573_6063)" stroke-width="17.9367" stroke-miterlimit="10" stroke-linecap="square"/>
<path d="M9.34961 54.0008C9.54961 51.5008 9.74961 49.0008 10.1496 46.5008C10.5496 44.0008 10.9496 41.5008 11.6496 38.9008C12.3496 36.4008 13.1496 33.8008 14.4496 31.2008C15.1496 29.9008 15.9496 28.5008 17.3496 27.1008C17.7496 26.8008 18.0496 26.4008 18.5496 26.1008C18.7496 25.9008 18.9496 25.8008 19.2496 25.6008C19.4496 25.5008 19.7496 25.3008 20.0496 25.2008C21.1496 24.6008 22.5496 24.3008 23.9496 24.3008C26.6496 24.3008 28.8496 26.5008 28.8496 29.2008C28.8496 31.9008 26.5496 34.0008 23.8496 34.0008C24.0496 34.1008 24.2496 33.9008 24.1496 34.0008H24.0496C23.9496 34.0008 23.8496 34.1008 23.7496 34.2008C23.2496 34.5008 22.6496 35.1008 21.9496 35.9008C20.6496 37.4008 19.4496 39.4008 18.4496 41.5008C17.3496 43.6008 16.3496 45.7008 15.4496 48.0008C14.5496 50.2008 13.6496 52.5008 12.8496 54.8008C12.5496 55.7008 11.4496 56.2008 10.5496 55.9008C9.74961 55.6008 9.34961 54.8008 9.34961 54.0008Z" fill="#56AAFF"/>
<path d="M9.34961 54.0008C9.54961 51.5008 9.74961 49.0008 10.1496 46.5008C10.5496 44.0008 10.9496 41.5008 11.6496 38.9008C12.3496 36.4008 13.1496 33.8008 14.4496 31.2008C15.1496 29.9008 15.9496 28.5008 17.3496 27.1008C17.7496 26.8008 18.0496 26.4008 18.5496 26.1008C18.7496 25.9008 18.9496 25.8008 19.2496 25.6008C19.4496 25.5008 19.7496 25.3008 20.0496 25.2008C21.1496 24.6008 22.5496 24.3008 23.9496 24.3008C26.6496 24.3008 28.8496 26.5008 28.8496 29.2008C28.8496 31.9008 26.5496 34.0008 23.8496 34.0008C24.0496 34.1008 24.2496 33.9008 24.1496 34.0008H24.0496C23.9496 34.0008 23.8496 34.1008 23.7496 34.2008C23.2496 34.5008 22.6496 35.1008 21.9496 35.9008C20.6496 37.4008 19.4496 39.4008 18.4496 41.5008C17.3496 43.6008 16.3496 45.7008 15.4496 48.0008C14.5496 50.2008 13.6496 52.5008 12.8496 54.8008C12.5496 55.7008 11.4496 56.2008 10.5496 55.9008C9.74961 55.6008 9.34961 54.8008 9.34961 54.0008Z" fill="url(#paint1_linear_1573_6063)"/>
<path d="M50.8495 31.6009C48.7495 31.5009 46.4495 31.5009 44.2495 31.5009C42.0495 31.6009 39.8495 31.7009 37.6495 32.0009C35.4495 32.2009 33.3495 32.5009 31.1495 33.0009C29.0495 33.4009 26.9495 33.9009 24.8495 34.1009L24.7495 34.0009C22.0495 34.2009 19.7495 32.3009 19.4495 29.6009C19.2495 27.1009 20.9495 24.9009 23.4495 24.4009C25.8495 24.0009 28.2495 23.9009 30.6495 24.0009C33.0495 24.1009 35.4495 24.3009 37.8495 24.7009C40.2495 25.0009 42.5495 25.5009 44.8495 26.0009C47.1495 26.6009 49.4495 27.2009 51.7495 28.1009C52.6495 28.5009 53.1495 29.5009 52.7495 30.4009C52.4495 31.2009 51.7495 31.6009 50.9495 31.6009H50.8495Z" fill="#56AAFF"/>
<path d="M50.8495 31.6009C48.7495 31.5009 46.4495 31.5009 44.2495 31.5009C42.0495 31.6009 39.8495 31.7009 37.6495 32.0009C35.4495 32.2009 33.3495 32.5009 31.1495 33.0009C29.0495 33.4009 26.9495 33.9009 24.8495 34.1009L24.7495 34.0009C22.0495 34.2009 19.7495 32.3009 19.4495 29.6009C19.2495 27.1009 20.9495 24.9009 23.4495 24.4009C25.8495 24.0009 28.2495 23.9009 30.6495 24.0009C33.0495 24.1009 35.4495 24.3009 37.8495 24.7009C40.2495 25.0009 42.5495 25.5009 44.8495 26.0009C47.1495 26.6009 49.4495 27.2009 51.7495 28.1009C52.6495 28.5009 53.1495 29.5009 52.7495 30.4009C52.4495 31.2009 51.7495 31.6009 50.9495 31.6009H50.8495Z" fill="url(#paint2_linear_1573_6063)"/>
<path d="M25.2492 21.6C29.0048 21.6 32.0492 18.5555 32.0492 14.8C32.0492 11.0445 29.0048 8 25.2492 8C21.4937 8 18.4492 11.0445 18.4492 14.8C18.4492 18.5555 21.4937 21.6 25.2492 21.6Z" fill="#56AAFF"/>
<path d="M25.2492 21.6C29.0048 21.6 32.0492 18.5555 32.0492 14.8C32.0492 11.0445 29.0048 8 25.2492 8C21.4937 8 18.4492 11.0445 18.4492 14.8C18.4492 18.5555 21.4937 21.6 25.2492 21.6Z" fill="url(#paint3_linear_1573_6063)"/>
<path d="M25.65 49.7C25.45 49.9 25.15 49.9 24.95 49.7L20.55 45.3C19.35 44.1 19.35 42.1 20.65 40.9C21.85 39.7 23.85 39.9 25.05 41.1L25.35 41.4L25.65 41.1C26.85 39.9 28.85 39.8 30.05 40.9C31.35 42.1 31.35 44.1 30.15 45.3L25.65 49.7Z" fill="#F1F1F1"/>
<defs>
<linearGradient id="paint0_linear_1573_6063" x1="25.564" y1="40.6414" x2="28.9894" y2="43.6356" gradientUnits="userSpaceOnUse">
<stop stop-color="#F9C032"/>
<stop offset="1" stop-color="#FD8337"/>
</linearGradient>
<linearGradient id="paint1_linear_1573_6063" x1="15.4723" y1="28.0526" x2="23.0324" y2="56.9258" gradientUnits="userSpaceOnUse">
<stop stop-color="#F9C032"/>
<stop offset="1" stop-color="#FD8337"/>
</linearGradient>
<linearGradient id="paint2_linear_1573_6063" x1="29.938" y1="25.165" x2="30.4186" y2="35.0106" gradientUnits="userSpaceOnUse">
<stop stop-color="#F9C032"/>
<stop offset="1" stop-color="#FD8337"/>
</linearGradient>
<linearGradient id="paint3_linear_1573_6063" x1="22.7194" y1="9.61024" x2="24.7991" y2="22.517" gradientUnits="userSpaceOnUse">
<stop stop-color="#F9C032"/>
<stop offset="1" stop-color="#FD8337"/>
</linearGradient>
</defs>
</svg>
