<svg width="65" height="64" viewBox="0 0 65 64" fill="none" xmlns="http://www.w3.org/2000/svg">
<path d="M58.5876 21.4541C57.5807 19.0908 55.6865 17.2172 53.3124 16.236C53.1404 16.1618 52.9939 16.0389 52.891 15.8825C52.788 15.726 52.7331 15.5428 52.7331 15.3555C52.7319 15.2216 52.7583 15.0889 52.8105 14.9656C52.8627 14.8423 52.9397 14.7311 53.0366 14.6388C53.0959 14.5823 53.1525 14.5269 53.195 14.4821C53.4952 14.1661 53.7601 13.8183 53.985 13.445C54.5764 12.4584 54.8696 11.3217 54.8293 10.1721C54.7889 9.02251 54.4167 7.90918 53.7576 6.96646C53.0985 6.02374 52.1806 5.29192 51.1147 4.85934C50.0489 4.42675 48.8806 4.31188 47.7509 4.52859C46.5998 4.73014 45.5359 5.2734 44.6977 6.08772C43.8595 6.90205 43.2857 7.94976 43.0509 9.09459C42.8339 10.0804 42.8708 11.1051 43.1582 12.0727C43.4456 13.0403 43.974 13.919 44.694 14.6265C44.7917 14.7191 44.87 14.8302 44.9241 14.9535C44.9783 15.0767 45.0073 15.2095 45.0094 15.3441V15.3491C45.0111 15.538 44.9569 15.7232 44.8537 15.8814C44.7506 16.0397 44.6029 16.1639 44.4294 16.2386C43.8936 16.4634 43.3786 16.7351 42.8906 17.0506C43.7432 18.0406 44.4474 19.1493 44.9812 20.3418C45.8495 22.3093 46.2864 24.4399 46.2624 26.5904V27.8766C46.2583 28.5984 46.0885 29.3095 45.7663 29.9554H57.5503C57.8234 29.9555 58.0938 29.9018 58.3461 29.7973C58.5984 29.6929 58.8276 29.5398 59.0207 29.3467C59.2138 29.1537 59.367 28.9245 59.4715 28.6722C59.576 28.4199 59.6298 28.1495 59.6297 27.8765V26.5903C59.6508 24.8237 59.2956 23.0728 58.5876 21.4541Z" fill="url(#paint0_linear_1323_8180)"/>
<path d="M15.6052 36.6875H9.04711C8.91009 36.6875 8.77442 36.7145 8.64784 36.7669C8.52126 36.8194 8.40625 36.8962 8.30938 36.9931C8.21251 37.09 8.13567 37.205 8.08326 37.3316C8.03084 37.4582 8.00388 37.5939 8.00391 37.7309V60.1125C8.00388 60.2495 8.03084 60.3852 8.08326 60.5118C8.13567 60.6384 8.2125 60.7534 8.30938 60.8503C8.40625 60.9472 8.52126 61.0241 8.64784 61.0765C8.77442 61.129 8.91009 61.156 9.04711 61.156H15.6052C15.9039 61.156 16.1997 61.0972 16.4757 60.9829C16.7517 60.8687 17.0025 60.7011 17.2137 60.4899C17.425 60.2787 17.5925 60.028 17.7068 59.752C17.8212 59.476 17.88 59.1802 17.88 58.8815V38.9615C17.88 38.6628 17.8211 38.3671 17.7067 38.0912C17.5924 37.8152 17.4248 37.5645 17.2136 37.3534C17.0023 37.1422 16.7516 36.9747 16.4756 36.8605C16.1996 36.7462 15.9039 36.6874 15.6052 36.6875Z" fill="#F1F1F1"/>
<path d="M56.8274 39.3643C56.4807 38.8364 56.0081 38.4032 55.4521 38.1037C54.8961 37.8041 54.2743 37.6477 53.6428 37.6485H51.0728C49.9701 37.6462 48.8918 37.9724 47.9753 38.5856C47.0588 39.1988 46.3459 40.0712 45.9273 41.0914C45.6788 41.6844 45.3326 42.2316 44.9031 42.7101C44.1732 43.8308 43.1856 44.7606 42.0228 45.4215C40.8601 46.0825 39.5559 46.4555 38.2195 46.5093L30.6072 46.5098C30.2492 46.5098 29.9058 46.3675 29.6526 46.1144C29.3995 45.8612 29.2572 45.5178 29.2572 45.1598C29.2572 44.8017 29.3995 44.4583 29.6526 44.2052C29.9058 43.952 30.2492 43.8098 30.6072 43.8098H38.1834C39.1568 43.7848 40.1025 43.4805 40.9078 42.9332V42.8875C40.9105 42.2005 40.7775 41.5197 40.5164 40.8842C40.2554 40.2488 39.8714 39.6711 39.3866 39.1843C38.9018 38.6976 38.3256 38.3114 37.6912 38.0478C37.0568 37.7842 36.3765 37.6485 35.6895 37.6485H30.1035C29.0828 37.6455 28.0716 37.8446 27.1282 38.2342C26.1848 38.6238 25.3277 39.1962 24.6065 39.9185L24.4639 40.0606C23.407 41.1159 22.0498 41.8188 20.5781 42.0733V56.9849H40.9495C43.97 56.9868 46.9246 56.1022 49.447 54.4407C51.9694 52.7792 53.9487 50.414 55.1395 47.6382L57.1463 42.9673C57.3966 42.3875 57.4985 41.7545 57.4428 41.1254C57.3871 40.4964 57.1756 39.8911 56.8274 39.3643Z" fill="#F1F1F1"/>
<path d="M5.98331 26.6038C5.96218 24.8366 6.31667 23.0851 7.02332 21.4651C8.02846 19.0998 9.92191 17.2235 12.2963 16.2398C12.4698 16.1652 12.6175 16.0409 12.7206 15.8827C12.8238 15.7244 12.878 15.5393 12.8763 15.3503V15.3453C12.8742 15.2107 12.8452 15.0779 12.7911 14.9547C12.7369 14.8314 12.6587 14.7202 12.561 14.6276C11.841 13.9202 11.3124 13.0415 11.025 12.074C10.7375 11.1064 10.7005 10.0816 10.9174 9.09585C11.1522 7.951 11.726 6.90328 12.5642 6.08893C13.4024 5.27459 14.4663 4.73131 15.6174 4.52975C16.8567 4.29063 18.14 4.45138 19.282 4.98882C20.4241 5.52627 21.3659 6.41261 21.9716 7.51998C22.5772 8.62735 22.8155 9.8985 22.6519 11.15C22.4883 12.4016 21.9314 13.5688 21.0615 14.4833C21.019 14.528 20.9623 14.5833 20.9032 14.64C20.8062 14.7323 20.7292 14.8436 20.677 14.9669C20.6248 15.0902 20.5985 15.2229 20.5997 15.3567C20.5997 15.5441 20.6546 15.7273 20.7575 15.8838C20.8605 16.0403 21.0071 16.1631 21.1791 16.2372C23.5531 17.2185 25.4473 19.0922 26.4542 21.4554C27.162 23.0742 27.5171 24.8251 27.4959 26.5916V27.8777C27.4959 28.4291 27.2769 28.9579 26.887 29.3477C26.4971 29.7376 25.9684 29.9566 25.417 29.9566H8.06222C7.51086 29.9566 6.9821 29.7376 6.59224 29.3477C6.20238 28.9579 5.98334 28.4291 5.98331 27.8777V26.6038Z" fill="url(#paint1_linear_1323_8180)"/>
<path d="M42.5209 21.454C41.514 19.0908 39.62 17.2171 37.246 16.2359C37.0739 16.1618 36.9272 16.039 36.8241 15.8825C36.721 15.726 36.6661 15.5427 36.666 15.3554C36.6648 15.2214 36.6912 15.0887 36.7434 14.9654C36.7957 14.8421 36.8727 14.7308 36.9697 14.6385C37.0288 14.582 37.0855 14.5266 37.1279 14.4818C37.4283 14.1659 37.6932 13.8181 37.9179 13.4447C38.5092 12.4581 38.8023 11.3215 38.762 10.172C38.7216 9.02249 38.3494 7.90925 37.6904 6.96659C37.0313 6.02393 36.1136 5.29213 35.0478 4.8595C33.9821 4.42687 32.8139 4.3119 31.6843 4.52846C30.5332 4.73003 29.4693 5.2733 28.6311 6.08762C27.7929 6.90194 27.2191 7.94963 26.9843 9.09446C26.7673 10.0802 26.8042 11.105 27.0917 12.0726C27.3791 13.0402 27.9076 13.9189 28.6276 14.6264C28.7253 14.719 28.8035 14.8301 28.8576 14.9534C28.9117 15.0766 28.9407 15.2094 28.9428 15.344V15.349C28.9445 15.5379 28.8904 15.7231 28.7872 15.8813C28.684 16.0396 28.5364 16.1638 28.3628 16.2385C27.827 16.4632 27.3121 16.735 26.8242 17.0505C27.6767 18.0405 28.3807 19.1491 28.9142 20.3417C29.7827 22.3091 30.2197 24.4398 30.1957 26.5903V27.8765C30.1916 28.5982 30.0219 29.3093 29.6997 29.9552H41.4838C41.7568 29.9552 42.0272 29.9014 42.2794 29.797C42.5316 29.6925 42.7608 29.5394 42.9538 29.3464C43.1469 29.1533 43.3 28.9241 43.4045 28.6719C43.509 28.4197 43.5627 28.1494 43.5627 27.8764V26.5902C43.5839 24.8236 43.2288 23.0727 42.5209 21.454Z" fill="url(#paint2_linear_1323_8180)"/>
<defs>
<linearGradient id="paint0_linear_1323_8180" x1="39.8076" y1="6.89913" x2="58.7884" y2="32.4513" gradientUnits="userSpaceOnUse">
<stop stop-color="#75EEEB" stop-opacity="0.5"/>
<stop offset="0.08" stop-color="#61DCE4" stop-opacity="0.5"/>
<stop offset="0.2" stop-color="#47C6DC" stop-opacity="0.5"/>
<stop offset="0.32" stop-color="#38B8D7" stop-opacity="0.5"/>
<stop offset="0.41" stop-color="#33B4D6" stop-opacity="0.5"/>
<stop offset="0.45" stop-color="#3DA6D0" stop-opacity="0.5"/>
<stop offset="0.63" stop-color="#6476BD" stop-opacity="0.5"/>
<stop offset="0.79" stop-color="#8153B0" stop-opacity="0.5"/>
<stop offset="0.91" stop-color="#923EA8" stop-opacity="0.5"/>
<stop offset="1" stop-color="#9937A5" stop-opacity="0.5"/>
</linearGradient>
<linearGradient id="paint1_linear_1323_8180" x1="2.0201" y1="6.89925" x2="19.2003" y2="36.6224" gradientUnits="userSpaceOnUse">
<stop stop-color="#75EEEB" stop-opacity="0.5"/>
<stop offset="0.08" stop-color="#61DCE4" stop-opacity="0.5"/>
<stop offset="0.2" stop-color="#47C6DC" stop-opacity="0.5"/>
<stop offset="0.32" stop-color="#38B8D7" stop-opacity="0.5"/>
<stop offset="0.41" stop-color="#33B4D6" stop-opacity="0.5"/>
<stop offset="0.45" stop-color="#3DA6D0" stop-opacity="0.5"/>
<stop offset="0.63" stop-color="#6476BD" stop-opacity="0.5"/>
<stop offset="0.79" stop-color="#8153B0" stop-opacity="0.5"/>
<stop offset="0.91" stop-color="#923EA8" stop-opacity="0.5"/>
<stop offset="1" stop-color="#9937A5" stop-opacity="0.5"/>
</linearGradient>
<linearGradient id="paint2_linear_1323_8180" x1="23.7413" y1="6.89911" x2="42.722" y2="32.4505" gradientUnits="userSpaceOnUse">
<stop stop-color="#75EEEB" stop-opacity="0.5"/>
<stop offset="0.08" stop-color="#61DCE4" stop-opacity="0.5"/>
<stop offset="0.2" stop-color="#47C6DC" stop-opacity="0.5"/>
<stop offset="0.32" stop-color="#38B8D7" stop-opacity="0.5"/>
<stop offset="0.41" stop-color="#33B4D6" stop-opacity="0.5"/>
<stop offset="0.45" stop-color="#3DA6D0" stop-opacity="0.5"/>
<stop offset="0.63" stop-color="#6476BD" stop-opacity="0.5"/>
<stop offset="0.79" stop-color="#8153B0" stop-opacity="0.5"/>
<stop offset="0.91" stop-color="#923EA8" stop-opacity="0.5"/>
<stop offset="1" stop-color="#9937A5" stop-opacity="0.5"/>
</linearGradient>
</defs>
</svg>
