<svg width="70" height="70" viewBox="0 0 70 70" fill="none" xmlns="http://www.w3.org/2000/svg">
<rect opacity="0.02" width="70" height="70" fill="#D9D9D9"/>
<path d="M54.7358 55.981C54.7358 58.7164 52.5175 60.9271 49.7897 60.9271H20.4351C17.6998 60.9271 15.489 58.7089 15.489 55.981V39.7862C15.489 37.0508 17.7073 34.84 20.4351 34.84L35.1087 24.4082L49.7822 34.84C52.5175 34.84 54.7283 37.0583 54.7283 39.7862V55.981H54.7358Z" fill="#F9C032"/>
<path d="M34.4639 5.38122C34.4639 4.42197 35.1383 4.03227 35.9702 4.5119L46.1772 10.4023C47.009 10.8819 47.009 11.6613 46.1772 12.1409L35.9702 18.0388C35.1383 18.5184 34.4639 18.1287 34.4639 17.1695V5.38122Z" fill="#E6DEDD"/>
<path d="M61.1358 39.1119L36.7799 17.911C36.7349 17.8735 36.6974 17.8435 36.6525 17.8061C36.6525 17.8061 36.6525 17.8061 36.645 17.7986C36.0829 17.3864 35.371 17.199 34.6815 17.3189C34.2768 17.3864 33.9096 17.5587 33.5799 17.7986C33.5799 17.7986 33.5799 17.7986 33.5724 17.8061C33.5274 17.836 33.4824 17.8735 33.445 17.911L8.8717 39.1119C7.81502 40.0337 7.70261 41.6374 8.62439 42.6941L10.2956 44.6051C11.2174 45.6618 12.8211 45.7742 13.8778 44.8524L35.1087 26.5592L56.1222 44.8524C57.1789 45.7742 58.7826 45.6618 59.7044 44.6051L61.3756 42.6941C62.2974 41.6374 62.185 40.0337 61.1283 39.1119H61.1358Z" fill="#0F3654"/>
<path d="M34.9784 50.053C34.0685 48.248 31.2287 44.4678 23.9421 46.4356C23.9421 46.4356 26.371 55.4384 34.2446 51.5399L33.0852 60.9273H37.0111L35.859 51.6212C43.6079 55.3274 46.0074 46.443 46.0074 46.443C38.7208 44.4752 35.881 48.2554 34.9711 50.0604L34.9784 50.053Z" fill="#FD8337"/>
</svg>
