<svg width="56" height="56" viewBox="0 0 56 56" fill="none" xmlns="http://www.w3.org/2000/svg">
<path d="M29.333 48.3337C29.8853 48.3337 30.333 48.7814 30.333 49.3337C30.333 49.8399 29.9568 50.2583 29.4687 50.3245L29.333 50.3337H26.6663C26.1141 50.3337 25.6663 49.8859 25.6663 49.3337C25.6663 48.8274 26.0425 48.409 26.5306 48.3428L26.6663 48.3337H29.333ZM31.9997 45.667C32.552 45.667 32.9997 46.1147 32.9997 46.667C32.9997 47.1733 32.6235 47.5916 32.1354 47.6579L31.9997 47.667H23.9997C23.4474 47.667 22.9997 47.2193 22.9997 46.667C22.9997 46.1607 23.3759 45.7423 23.864 45.6761L23.9997 45.667H31.9997ZM33.333 43.0003C33.8853 43.0003 34.333 43.448 34.333 44.0003C34.333 44.5066 33.9568 44.925 33.4687 44.9912L33.333 45.0003H22.6663C22.1141 45.0003 21.6663 44.5526 21.6663 44.0003C21.6663 43.4941 22.0425 43.0757 22.5306 43.0095L22.6663 43.0003H33.333ZM27.9997 12.3337C35.1794 12.3337 40.9997 18.154 40.9997 25.3337C40.9997 28.3988 39.1721 31.7123 35.5934 35.3136C34.8541 36.0576 34.4121 37.0418 34.3433 38.082L34.3338 38.3669L34.3332 40.6678C34.3325 41.5302 33.677 42.2393 32.8367 42.325L32.6663 42.3337H23.333C22.4701 42.3337 21.7603 41.6778 21.6749 40.8374L21.6663 40.667L21.6663 38.3684C21.6662 37.2238 21.2134 36.1256 20.4065 35.3138C16.8274 31.7126 14.9997 28.399 14.9997 25.3337C14.9997 18.154 20.82 12.3337 27.9997 12.3337ZM16.0358 36.1797C16.3938 36.5377 16.4236 37.0995 16.1253 37.4915L16.0358 37.5939L13.2074 40.4223C12.8169 40.8128 12.1837 40.8128 11.7932 40.4223C11.4352 40.0643 11.4054 39.5025 11.7037 39.1105L11.7932 39.0081L14.6216 36.1797C15.0121 35.7891 15.6453 35.7891 16.0358 36.1797ZM41.3893 36.0902L41.4917 36.1797L44.3201 39.0081C44.7106 39.3986 44.7106 40.0318 44.3201 40.4223C43.9621 40.7803 43.4002 40.8101 43.0083 40.5118L42.9059 40.4223L40.0774 37.5939C39.6869 37.2034 39.6869 36.5702 40.0774 36.1797C40.4354 35.8217 40.9973 35.7919 41.3893 36.0902ZM27.9997 14.3337C21.9245 14.3337 16.9997 19.2585 16.9997 25.3337C16.9997 27.7716 18.5827 30.6415 21.8251 33.9039C22.9257 35.0114 23.5757 36.4833 23.6575 38.0347L23.6663 38.3683L23.665 40.3337H32.333L32.3338 38.3664C32.3342 36.9171 32.8313 35.519 33.7312 34.3998L33.9459 34.1466L34.1748 33.9039C37.4168 30.6414 38.9997 27.7715 38.9997 25.3337C38.9997 19.2585 34.0748 14.3337 27.9997 14.3337ZM10.0566 23.1589C10.6089 23.1589 11.0566 23.6066 11.0566 24.1589C11.0566 24.6651 10.6804 25.0835 10.1923 25.1497L10.0566 25.1589H6.05664C5.50436 25.1589 5.05664 24.7111 5.05664 24.1589C5.05664 23.6526 5.43285 23.2342 5.92095 23.168L6.05664 23.1589H10.0566ZM50.0566 23.1589C50.6089 23.1589 51.0566 23.6066 51.0566 24.1589C51.0566 24.6651 50.6804 25.0835 50.1923 25.1497L50.0566 25.1589H46.0566C45.5044 25.1589 45.0566 24.7111 45.0566 24.1589C45.0566 23.6526 45.4328 23.2342 45.9209 23.168L46.0566 23.1589H50.0566ZM29.333 16.3337C33.5672 16.3337 36.9997 19.7661 36.9997 24.0003C36.9997 24.5526 36.552 25.0003 35.9997 25.0003C35.4474 25.0003 34.9997 24.5526 34.9997 24.0003C34.9997 20.8707 32.4626 18.3337 29.333 18.3337C28.7807 18.3337 28.333 17.8859 28.333 17.3337C28.333 16.7814 28.7807 16.3337 29.333 16.3337ZM13.105 7.8059L13.2074 7.8954L16.0358 10.7238C16.4263 11.1143 16.4263 11.7475 16.0358 12.138C15.6778 12.496 15.116 12.5259 14.724 12.2275L14.6216 12.138L11.7932 9.30961C11.4027 8.91909 11.4027 8.28592 11.7932 7.8954C12.1512 7.53742 12.713 7.50759 13.105 7.8059ZM44.3201 7.8954C44.6781 8.25338 44.7079 8.81525 44.4096 9.20721L44.3201 9.30961L41.4917 12.138C41.1011 12.5286 40.468 12.5286 40.0774 12.138C39.7195 11.7801 39.6896 11.2182 39.988 10.8262L40.0774 10.7238L42.9059 7.8954C43.2964 7.50487 43.9296 7.50487 44.3201 7.8954ZM28.0566 2.49219C28.5629 2.49219 28.9813 2.86839 29.0475 3.35649L29.0566 3.49219V7.49219C29.0566 8.04447 28.6089 8.49219 28.0566 8.49219C27.5504 8.49219 27.132 8.11598 27.0658 7.62788L27.0566 7.49219V3.49219C27.0566 2.9399 27.5044 2.49219 28.0566 2.49219Z" fill="white"/>
</svg>
