<svg width="32" height="32" viewBox="0 0 32 32" fill="none" xmlns="http://www.w3.org/2000/svg">
<circle cx="16" cy="16" r="16" fill="#F8F8F8"/>
<path d="M22 21.25H23.125C23.6218 21.2485 24.0979 21.0505 24.4492 20.6992C24.8005 20.3479 24.9985 19.8718 25 19.375V11.875C24.9985 11.3782 24.8005 10.9021 24.4492 10.5508C24.0979 10.1995 23.6218 10.0015 23.125 10H8.875C8.37818 10.0015 7.90212 10.1995 7.55081 10.5508C7.1995 10.9021 7.00148 11.3782 7 11.875V19.375C7.00148 19.8718 7.1995 20.3479 7.55081 20.6992C7.90212 21.0505 8.37818 21.2485 8.875 21.25H10" stroke="#666666" stroke-width="1.5" stroke-linejoin="round"/>
<path d="M20.86 15.25H11.14C10.5104 15.25 10 15.7604 10 16.39V23.86C10 24.4896 10.5104 25 11.14 25H20.86C21.4896 25 22 24.4896 22 23.86V16.39C22 15.7604 21.4896 15.25 20.86 15.25Z" stroke="#666666" stroke-width="1.5" stroke-linejoin="round"/>
<path d="M22 10V8.875C21.9985 8.37818 21.8005 7.90212 21.4492 7.55081C21.0979 7.1995 20.6218 7.00148 20.125 7H11.875C11.3782 7.00148 10.9021 7.1995 10.5508 7.55081C10.1995 7.90212 10.0015 8.37818 10 8.875V10" stroke="#666666" stroke-width="1.5" stroke-linejoin="round"/>
<path d="M22.375 13.75C22.9963 13.75 23.5 13.2463 23.5 12.625C23.5 12.0037 22.9963 11.5 22.375 11.5C21.7537 11.5 21.25 12.0037 21.25 12.625C21.25 13.2463 21.7537 13.75 22.375 13.75Z" fill="#666666"/>
</svg>
