<svg width="14" height="16" viewBox="0 0 14 16" fill="none" xmlns="http://www.w3.org/2000/svg">
<path d="M5.75061 0.999511L0.75061 4.99951C0.276179 5.37906 0 5.95368 0 6.56125V14.4C0 14.8243 0.163888 15.2313 0.455612 15.5314C0.747335 15.8314 1.143 16 1.55556 16H3.66667C4.21895 16 4.66667 15.5523 4.66667 15V11.4C4.66667 10.8477 5.11438 10.4 5.66667 10.4H8.33333C8.88562 10.4 9.33333 10.8477 9.33333 11.4V15C9.33333 15.5523 9.78105 16 10.3333 16H12.4444C12.857 16 13.2527 15.8314 13.5444 15.5314C13.8361 15.2313 14 14.8243 14 14.4V6.56125C14 5.95368 13.7238 5.37906 13.2494 4.99951L8.24939 0.999512C7.51895 0.415162 6.48105 0.415161 5.75061 0.999511Z" fill="#222222"/>
</svg>
