<svg width="65" height="64" viewBox="0 0 65 64" fill="none" xmlns="http://www.w3.org/2000/svg">
<path d="M60.5 50.9905V54.4C60.5 55.107 60.1475 55.7534 59.5895 56.0696C50.3415 61.3101 41.0114 61.3101 31.7634 56.0696C30.6798 55.4555 29.5976 54.9214 28.5164 54.4673L28.3679 52.2866C27.4867 44.7965 24.7885 39.1903 20.268 35.6041C15.8337 32.0861 10.7867 30.5721 5.1939 31.0725L4.5 31.1538V9.6C4.5 8.89296 4.85246 8.24658 5.41046 7.93038C11.1277 4.69059 16.8764 3.45372 22.6176 4.21972V6.8C22.639 13.5905 23.8327 18.6639 26.2959 21.9983C27.7913 24.0225 29.5047 25.3362 32.5788 27.1283C32.7841 27.248 32.9949 27.3699 33.2763 27.5319C33.6263 27.7331 33.8181 27.8434 33.9772 27.9352C34.5461 28.2633 34.9682 28.5106 35.3838 28.7612C36.4464 29.402 37.3385 29.9909 38.185 30.6245C38.9675 31.2102 39.6961 31.8246 40.3883 32.4901C41.7511 33.8002 42.6419 35.2855 43.4089 37.3126C43.6717 38.007 43.7634 38.2839 44.2997 39.9554C45.5925 43.9843 46.6056 45.8936 48.9585 47.5781C52.3856 50.0317 55.6325 51.1908 58.6923 50.9905H60.5ZM60.5 47.2594L58.5404 47.2608C56.2258 47.4243 53.6206 46.5 50.7178 44.4218C49.155 43.3029 48.4569 41.9874 47.3955 38.6795C46.8334 36.9275 46.7342 36.6282 46.4364 35.8412C45.4824 33.32 44.3092 31.364 42.5193 29.6432C41.7232 28.8779 40.8894 28.1747 40.0004 27.5092C39.0576 26.8036 38.0788 26.1575 36.9311 25.4654C36.4946 25.2022 36.0565 24.9454 35.4712 24.6079C35.3102 24.515 35.1164 24.4035 34.768 24.2032C34.4912 24.0439 34.2849 23.9246 34.0856 23.8084C31.3743 22.2278 29.9615 21.1447 28.8217 19.6017C26.9329 17.0449 25.9306 12.7849 25.9118 6.79333V4.87927C28.3571 5.53242 30.7997 6.54946 33.2366 7.93038C41.5572 12.6454 49.7957 12.6454 58.1163 7.93038C59.2115 7.3098 60.5 8.21235 60.5 9.6V47.2594ZM49.7941 26.4C51.1586 26.4 52.2647 25.1464 52.2647 23.6C52.2647 22.0536 51.1586 20.8 49.7941 20.8C48.4296 20.8 47.3235 22.0536 47.3235 23.6C47.3235 25.1464 48.4296 26.4 49.7941 26.4ZM25.1359 53.3073C19.0528 51.6884 12.9903 52.6092 6.88366 56.0696C5.78853 56.6902 4.5 55.7876 4.5 54.4V34.9065L5.49302 34.7901C10.2918 34.3613 14.5781 35.6472 18.379 38.6626C22.0841 41.602 24.3251 46.2458 25.0967 52.7291L25.1359 53.3073Z" fill="url(#paint0_linear_1323_8123)"/>
<defs>
<linearGradient id="paint0_linear_1323_8123" x1="-5.81356" y1="9.4331" x2="28.4189" y2="79.7254" gradientUnits="userSpaceOnUse">
<stop stop-color="#75EEEB" stop-opacity="0.5"/>
<stop offset="0.08" stop-color="#61DCE4" stop-opacity="0.5"/>
<stop offset="0.2" stop-color="#47C6DC" stop-opacity="0.5"/>
<stop offset="0.32" stop-color="#38B8D7" stop-opacity="0.5"/>
<stop offset="0.41" stop-color="#33B4D6" stop-opacity="0.5"/>
<stop offset="0.45" stop-color="#3DA6D0" stop-opacity="0.5"/>
<stop offset="0.63" stop-color="#6476BD" stop-opacity="0.5"/>
<stop offset="0.79" stop-color="#8153B0" stop-opacity="0.5"/>
<stop offset="0.91" stop-color="#923EA8" stop-opacity="0.5"/>
<stop offset="1" stop-color="#9937A5" stop-opacity="0.5"/>
</linearGradient>
</defs>
</svg>
