<svg width="71" height="70" viewBox="0 0 71 70" fill="none" xmlns="http://www.w3.org/2000/svg">
<rect opacity="0.02" x="0.800781" width="70" height="70" fill="#D9D9D9"/>
<path d="M25.646 53.9357C25.646 51.1511 27.9035 48.8936 30.6881 48.8936C33.4728 48.8936 35.7302 51.1511 35.7302 53.9357V59.8994C35.7302 60.5073 36.2229 61 36.8307 61H49.5754V14.6382C49.5754 13.1896 48.3843 12 46.9239 12H14.4605C13.0001 12 11.8008 13.1896 11.8008 14.6382V59C11.8008 60.1046 12.6962 61 13.8008 61H24.5455C25.1533 61 25.646 60.5073 25.646 59.8994V53.9357ZM43.2198 38.3087C43.2198 39.0208 42.6324 39.6035 41.9144 39.6035H33.9597C33.2418 39.6035 32.6543 39.0208 32.6543 38.3087V31.2682C32.6543 30.5561 33.2418 29.9734 33.9597 29.9734H41.9144C42.6324 29.9734 43.2198 30.5561 43.2198 31.2682V38.3087ZM32.483 19.0566C32.483 18.3445 33.0704 17.7618 33.7884 17.7618H41.7431C42.4611 17.7618 43.0485 18.3445 43.0485 19.0566V26.0971C43.0485 26.8092 42.4611 27.3919 41.7431 27.3919H33.7884C33.0704 27.3919 32.483 26.8092 32.483 26.0971V19.0566ZM18.3522 19.0566C18.3522 18.3445 18.9396 17.7618 19.6576 17.7618H27.6123C28.3303 17.7618 28.9177 18.3445 28.9177 19.0566V26.0971C28.9177 26.8092 28.3303 27.3919 27.6123 27.3919H19.6576C18.9396 27.3919 18.3522 26.8092 18.3522 26.0971V19.0566ZM18.5154 38.3087V31.2682C18.5154 30.5561 19.1028 29.9734 19.8208 29.9734H27.7755C28.4934 29.9734 29.0809 30.5561 29.0809 31.2682V38.3087C29.0809 39.0208 28.4934 39.6035 27.7755 39.6035H19.8208C19.1028 39.6035 18.5154 39.0208 18.5154 38.3087Z" fill="#E0EEFF"/>
<path d="M60.4037 33.9624C60.4037 32.5138 59.2125 31.3242 57.7521 31.3242H46.4605C45.0001 31.3242 43.8008 32.5057 43.8008 33.9624V61.0075H60.4037V33.9624ZM57.3768 44.1994H46.795V42.2572H57.3768V44.1994ZM57.3768 38.4456H46.795V36.4791H57.3768V38.4456Z" fill="#0F3654"/>
<path d="M19.657 17.7539H27.6117C28.3296 17.7539 28.917 18.3366 28.917 19.0487V26.0892C28.917 26.8013 28.3296 27.384 27.6117 27.384H19.657C18.939 27.384 18.3516 26.8013 18.3516 26.0892V19.0487C18.3516 18.3366 18.939 17.7539 19.657 17.7539Z" fill="#246BEB"/>
<path d="M33.7878 17.7542H41.7425C42.4605 17.7542 43.0479 18.3368 43.0479 19.049V26.0814C43.0479 26.7935 42.4605 27.3762 41.7425 27.3762H33.7878C33.0698 27.3762 32.4824 26.7935 32.4824 26.0814V19.0409C32.4824 18.3288 33.0698 17.7461 33.7878 17.7461V17.7542Z" fill="#246BEB"/>
<path d="M19.821 29.9805H27.7757C28.4937 29.9805 29.0811 30.5631 29.0811 31.2753V38.3157C29.0811 39.0279 28.4937 39.6105 27.7757 39.6105H19.821C19.103 39.6105 18.5156 39.0279 18.5156 38.3157V31.2753C18.5156 30.5631 19.103 29.9805 19.821 29.9805Z" fill="#246BEB"/>
<path d="M33.9597 29.9805H41.9144C42.6324 29.9805 43.2198 30.5631 43.2198 31.2753V38.3157C43.2198 39.0279 42.6324 39.6105 41.9144 39.6105H33.9597C33.2417 39.6105 32.6543 39.0279 32.6543 38.3157V31.2753C32.6543 30.5631 33.2417 29.9805 33.9597 29.9805Z" fill="#246BEB"/>
<path d="M57.3767 36.4805H46.7949V38.4469H57.3767V36.4805Z" fill="white"/>
<path d="M57.3767 42.2578H46.7949V44.2H57.3767V42.2578Z" fill="white"/>
<path d="M35.7306 48.8945H25.6465V61.0009H35.7306V48.8945Z" fill="white"/>
</svg>
