<svg width="148" height="113" viewBox="0 0 148 113" fill="none" xmlns="http://www.w3.org/2000/svg">
<path d="M49.0568 37.3417L49.2288 20.0156C49.2288 20.0156 47.2823 18.8835 46.7016 19.9617C46.1316 21.0399 43.7119 27.3795 43.7119 27.3795C43.7119 27.3795 48.4868 38.4199 49.0568 37.3417Z" fill="#F9C032"/>
<path d="M29.2797 20.4904C30.0755 19.2721 42.9591 24.9972 42.9591 24.9972C42.9591 24.9972 46.5618 28.8678 47.4436 30.9594C48.3255 33.0403 49.1106 35.0133 49.0675 37.3422C49.0245 39.671 49.2504 52.9109 49.2504 52.9109L37.7648 30.3449L33.3663 26.2155C33.3663 26.2155 27.8171 22.733 29.2797 20.4904Z" fill="#F9C032"/>
<path d="M43.8111 25.7928C44.0144 25.6214 44.3179 25.6477 44.4889 25.8516L44.1207 26.162C44.4705 25.8672 44.4881 25.8525 44.489 25.8518L44.4892 25.8519C44.4893 25.8521 44.4895 25.8523 44.4897 25.8525C44.4902 25.8531 44.4908 25.8538 44.4916 25.8547C44.4932 25.8566 44.4954 25.8594 44.4983 25.863C44.5042 25.87 44.5128 25.8803 44.524 25.8938C44.5462 25.9207 44.5787 25.9603 44.6203 26.0114C44.7035 26.1137 44.8232 26.2626 44.9705 26.4505C45.2651 26.8262 45.6709 27.3589 46.1166 27.9878C46.9758 29.2003 47.9999 30.7939 48.6541 32.3203L48.7161 32.4677L48.725 32.4908C48.8106 32.7312 48.6939 32.9991 48.4562 33.098C48.2185 33.1969 47.9468 33.0905 47.8375 32.8601L47.8274 32.8373L47.7692 32.6992C47.156 31.2687 46.179 29.7415 45.3322 28.5465C44.8974 27.9328 44.5013 27.4128 44.2141 27.0466C44.0706 26.8636 43.9545 26.7192 43.8746 26.6209C43.8347 26.5718 43.8038 26.5342 43.783 26.5091C43.7727 26.4966 43.7649 26.4872 43.7597 26.481C43.7571 26.4779 43.7552 26.4756 43.7539 26.4742C43.7534 26.4735 43.7529 26.473 43.7527 26.4727C43.7526 26.4726 43.7525 26.4724 43.7525 26.4724L43.7524 26.4723C43.7524 26.4723 43.7524 26.4723 43.7525 26.4722C43.5816 26.2683 43.6078 25.9642 43.8111 25.7928Z" fill="#080717"/>
<path d="M49.2404 54.3575C49.2404 54.3575 49.2404 47.9424 48.9501 41.8508C48.8748 40.2767 48.0144 38.6486 47.1649 36.9236C45.3581 33.2686 43.702 30.4438 42.5298 28.6001C41.5404 27.026 39.8412 26.0556 37.9807 25.991L25.5273 25.5273C25.5273 25.5273 23.6023 28.4707 26.3124 29.6028C27.4953 30.0988 35.8191 32.4492 35.8191 32.4492C35.8191 32.4492 39.1422 37.5273 37.529 40.6648C35.9159 43.8131 34.4318 41.4411 33.4209 40.2874C32.7326 39.5112 26.3339 46.5516 29.6032 52.6325C31.4636 56.0934 37.7119 63.9963 42.9922 70.4977L49.2404 54.3575Z" fill="#F9C032"/>
<path d="M46.2779 34.2114C46.4229 34.4347 46.3599 34.7334 46.1372 34.8787C45.9145 35.024 45.6165 34.9609 45.4716 34.7376L46.2779 34.2114ZM32.7183 25.1839C32.7193 25.1839 32.7208 25.184 32.7227 25.1841C32.7266 25.1842 32.7324 25.1843 32.74 25.1846C32.755 25.1851 32.7772 25.186 32.8061 25.187C32.864 25.1891 32.9486 25.1924 33.0564 25.1968C33.2719 25.2056 33.58 25.2191 33.951 25.2381C34.6925 25.276 35.6878 25.3357 36.6994 25.4226C37.7082 25.5092 38.745 25.6239 39.5651 25.7736C39.9733 25.8481 40.3444 25.9342 40.6369 26.0356C40.7827 26.0861 40.9237 26.1454 41.0449 26.2173C41.1505 26.2799 41.284 26.3769 41.3748 26.5245L41.3923 26.5547L41.446 26.6491C41.7696 27.204 42.9036 28.9815 44.0045 30.6929C44.5876 31.5994 45.156 32.4791 45.5786 33.1322C45.7899 33.4587 45.9648 33.7285 46.0868 33.9167C46.1478 34.0108 46.1956 34.0845 46.2281 34.1347C46.2444 34.1597 46.2568 34.1789 46.2652 34.1918C46.2694 34.1983 46.2726 34.2032 46.2748 34.2065C46.2758 34.2081 46.2767 34.2093 46.2772 34.2101C46.2774 34.2105 46.2776 34.2109 46.2777 34.2111C46.2778 34.2112 46.2779 34.2113 46.2779 34.2113C46.278 34.2114 46.2779 34.2114 45.8747 34.4745C45.4716 34.7376 45.4715 34.7376 45.4715 34.7375L45.4714 34.7373C45.4712 34.7371 45.471 34.7368 45.4707 34.7364C45.4702 34.7355 45.4694 34.7342 45.4683 34.7326C45.4662 34.7293 45.4629 34.7244 45.4588 34.718C45.4503 34.705 45.4379 34.6858 45.4216 34.6607C45.389 34.6104 45.3412 34.5366 45.2801 34.4424C45.158 34.254 44.983 33.9839 44.7715 33.6572C44.3486 33.0036 43.7797 32.1232 43.1959 31.2157C42.067 29.4606 40.8618 27.572 40.571 27.058C40.5668 27.0552 40.5616 27.0515 40.5551 27.0476C40.5101 27.0209 40.435 26.9862 40.3223 26.9472C40.0978 26.8693 39.7821 26.7936 39.3928 26.7226C38.6179 26.5811 37.6168 26.4695 36.6173 26.3836C35.6205 26.298 34.637 26.2391 33.9019 26.2015C33.5346 26.1827 33.2299 26.1693 33.0171 26.1606C32.9108 26.1563 32.8274 26.153 32.7708 26.1509C32.7426 26.1499 32.7209 26.1491 32.7065 26.1486C32.6992 26.1484 32.6937 26.1482 32.6901 26.1481C32.6883 26.148 32.687 26.148 32.6861 26.148C32.6857 26.148 32.6853 26.1479 32.6851 26.1479H32.6849C32.6849 26.1472 32.6855 26.1293 32.7008 25.6659C32.7162 25.2001 32.7168 25.1844 32.7169 25.1839H32.7183ZM32.7167 25.1839L32.6848 26.1479C32.4193 26.1391 32.2112 25.9161 32.22 25.6499C32.2288 25.3837 32.4512 25.1751 32.7167 25.1839Z" fill="#080717"/>
<path d="M45.8842 112.137C52.9282 77.1294 48.7663 46.0566 48.6373 45.5391L40.6791 50.3261L32.7102 55.0701C32.7317 55.1671 39.808 74.876 27.118 112.127C26.8814 112.827 34.0975 112.127 34.0975 112.127C34.0975 112.127 45.7766 112.666 45.8842 112.137Z" fill="#F9C032"/>
<path d="M2.8675 31.8868L16.9878 40.5984C19.827 42.3558 23.5479 41.4609 25.2901 38.6145L33.9796 24.4582C35.7325 21.6118 34.8399 17.8814 32.0008 16.1348L17.8912 7.41239C15.0521 5.65497 11.3311 6.54985 9.58891 9.39621L0.888722 23.5525C-0.853467 26.3989 0.0283819 30.1294 2.8675 31.8868Z" fill="#93C0D2"/>
<path d="M19.4275 15.4895C20.9818 14.6989 22.4695 14.6399 23.5691 15.3562C24.6687 16.0727 25.2178 17.4589 25.1263 19.2011C25.0403 20.8397 25.0242 21.1575 25.0081 21.4751C24.9919 21.7936 24.9757 22.112 24.8897 23.751L23.9289 23.7002C24.0149 22.0616 24.031 21.7438 24.0471 21.4262C24.0633 21.1077 24.0794 20.7893 24.1655 19.1503C24.2461 17.6149 23.7572 16.6292 23.0448 16.1651C22.3326 15.7011 21.2347 15.6525 19.8649 16.3486L19.865 16.3487C18.6921 16.9528 17.218 17.7079 15.6901 18.4846L15.2549 17.6243C16.7812 16.8484 18.2538 16.0941 19.4253 15.4907L19.4264 15.49L19.4275 15.4895Z" fill="white"/>
<path d="M23.6315 22.3858L24.3923 23.4931L25.255 22.4672L25.2562 22.4658L25.2574 22.4643L26.5372 20.9657L27.268 21.5931L25.9883 23.0916L24.3153 25.0816L22.8393 22.933L22.8382 22.9315L22.8372 22.9299L21.7295 21.2912L22.526 20.75L23.6315 22.3858Z" fill="white"/>
<path d="M13.1086 19.7457C10.1842 21.244 11.9646 20.33 9.05362 21.8161C7.68819 22.5132 7.07993 23.4303 7.03447 24.28C6.98906 25.129 7.4952 26.1052 8.78466 26.9436C9.88196 27.6554 11.2705 28.5619 12.7107 29.4993L12.1867 30.3083C10.7448 29.3698 9.35863 28.4648 8.26207 27.7535L8.26165 27.7532C6.79842 26.8019 6.00343 25.5409 6.07362 24.2284C6.14378 22.9164 7.0681 21.7473 8.61704 20.9565C11.5349 19.4669 9.74492 20.3857 12.6708 18.8867L13.1086 19.7457Z" fill="white"/>
<path d="M14.0907 18.7199L12.1197 22.8468L11.2519 22.4302L12.6793 19.4411L9.42676 18.8434L9.60025 17.8945L14.0907 18.7199Z" fill="white"/>
<path d="M24.5874 26.4037C24.5014 28.1282 24.4153 29.7782 24.3399 31.0949L24.34 31.095C24.2486 32.837 23.5578 34.1573 22.3892 34.753C21.2208 35.3484 19.7478 35.1313 18.2852 34.1805C15.5319 32.3906 17.2201 33.4901 14.4775 31.7002L15.0024 30.8918C17.7445 32.6814 16.0559 31.5815 18.8088 33.3711C20.0992 34.21 21.1965 34.2787 21.9531 33.8931C22.7094 33.5076 23.2986 32.5798 23.3792 31.0442V31.0431L23.3793 31.042C23.4545 29.7284 23.5404 28.0801 23.6264 26.3555L24.5874 26.4037Z" fill="white"/>
<path d="M18.25 31.1609L16.2806 31.312L16.2794 31.3121L14.9441 31.4072L15.3969 32.6737L15.3972 32.6745L15.3974 32.6752L16.0534 34.5297L15.1466 34.8521L14.4912 32.9991L13.6104 30.5352L16.2112 30.3499L18.1766 30.1992L18.25 31.1609Z" fill="white"/>
<path d="M33.4421 40.3726C32.8506 39.51 28.9253 34.6151 27.495 33.4292C26.796 32.8577 25.5377 32.1677 24.3763 31.8227C24.8172 31.9089 22.8814 31.3591 23.9569 31.7149C22.9029 31.4885 22.0103 31.6071 21.8168 32.448C21.3866 34.324 24.5161 37.2674 25.3226 40.3402C26.1292 43.413 26.5056 48.793 30.689 54.2809C31.8505 55.8011 34.6143 57.9143 37.4427 60.6205C39.7333 60.5774 41.5723 59.8874 42.723 58.4965C45.6804 54.9062 34.0336 41.2351 33.4421 40.3726Z" fill="#F9C032"/>
<path d="M111.69 112.136C86.3856 53.915 91.5692 24.5889 91.5692 24.5889L101.872 22.605L106.453 23.2304C107.464 23.1765 108.271 22.508 108.518 21.5161C108.765 20.5134 108.357 19.543 107.475 19.0255C107.012 18.756 106.507 18.5511 105.969 18.4217C103.786 17.915 99.9467 16.8692 98.8713 16.384C98.9358 16.2438 99.3445 15.2412 99.3875 15.0902L99.2477 11.7802C99.3122 11.5646 98.2906 10.0767 98.1615 9.91501L102.388 10.2277L103.496 10.8854C105.227 11.8988 106.754 13.225 107.959 14.8422C108.873 16.0713 109.991 17.2573 110.873 17.2573C111.508 17.2573 112.142 16.9986 112.529 16.4918C112.927 15.9635 113.024 15.2951 112.809 14.6805C112.798 14.6697 112.798 14.6589 112.787 14.6482L107.926 8.66433C107.84 8.50261 105.206 6.72363 105.023 6.66973L100.452 4.39479C96.3548 3.23037 91.8918 3.42444 87.8912 4.95544L86.4394 5.50531C86.4179 5.51609 86.3964 5.52687 86.3641 5.53765C81.7398 7.90962 78.3737 12.3948 77.3735 17.5376C77.3735 17.5376 69.5767 45.9042 93.6232 112.147" fill="white"/>
<path d="M98.4029 16.0393C98.5157 15.7982 98.8022 15.6944 99.0427 15.8075H99.0428C99.0429 15.8075 99.043 15.8076 99.0432 15.8077C99.0436 15.8079 99.0444 15.8082 99.0453 15.8086C99.0472 15.8095 99.05 15.8109 99.0538 15.8126C99.0615 15.8162 99.0731 15.8216 99.0884 15.8287C99.119 15.843 99.1646 15.8641 99.2236 15.8913C99.3418 15.9456 99.5142 16.0241 99.7301 16.1204C100.162 16.3131 100.767 16.577 101.459 16.8611C102.85 17.432 104.567 18.0742 105.936 18.3939H105.936C106.471 18.5169 106.932 18.7132 107.335 18.9407L107.415 18.9865L107.416 18.987L107.457 19.0118C109.18 20.0714 108.558 22.7732 106.486 22.8715L106.486 22.8714L101.629 23.1068L91.7853 25.0555C91.7472 25.2382 91.6954 25.5089 91.6385 25.8711C91.5189 26.6334 91.3762 27.8008 91.2887 29.4039C91.1137 32.6101 91.1592 37.5597 92.0511 44.4979C93.8209 58.2665 98.9234 79.8642 112.246 111.204L112.562 111.946L112.571 111.969C112.66 112.209 112.546 112.478 112.309 112.58C112.073 112.681 111.8 112.578 111.688 112.349L111.678 112.326L111.361 111.583C98.0112 80.1787 92.8802 58.4947 91.0968 44.6211C90.1981 37.6294 90.1495 32.6208 90.328 29.3512C90.4172 27.7165 90.5632 26.5166 90.6881 25.7211C90.7505 25.3234 90.8076 25.0268 90.8497 24.8275C90.8708 24.7279 90.888 24.6526 90.9003 24.6012C90.9065 24.5755 90.9114 24.5557 90.9149 24.5419C90.9167 24.535 90.9181 24.5295 90.9191 24.5256C90.9197 24.5236 90.9201 24.522 90.9204 24.5207C90.9206 24.5201 90.9207 24.5194 90.9208 24.519C90.9212 24.5186 90.9323 24.5211 91.3858 24.6431L90.9211 24.518C90.9687 24.3405 91.1127 24.2055 91.2925 24.1699L101.477 22.1537L101.512 22.1481C101.523 22.1467 101.535 22.1456 101.547 22.1451L106.44 21.908L106.44 21.9079L106.491 21.9045C107.546 21.8106 107.894 20.3867 106.931 19.8198L106.864 19.7815C106.551 19.605 106.204 19.4548 105.807 19.3548L105.721 19.3342L105.72 19.3338C104.271 18.9958 102.494 18.3282 101.095 17.7538C100.392 17.4651 99.7773 17.1973 99.3388 17.0016C99.1194 16.9037 98.9438 16.8237 98.8228 16.7681C98.7623 16.7404 98.7154 16.7186 98.6835 16.7038C98.6676 16.6964 98.6554 16.6907 98.6471 16.6869C98.6429 16.6849 98.6398 16.6834 98.6376 16.6824C98.6365 16.6819 98.6357 16.6815 98.6351 16.6813L98.6343 16.6809C98.6342 16.6808 98.6341 16.6808 98.8384 16.2441L98.6342 16.6807C98.3936 16.5676 98.2901 16.2805 98.4029 16.0393Z" fill="#080717"/>
<path d="M87.8584 4.65818C91.7872 3.22225 96.0675 3.05141 100.099 4.155L100.294 4.20933L100.294 4.20965L101.875 4.66239L101.876 4.6626L102.076 4.72157C106.276 5.98735 109.797 8.88997 111.837 12.794L112.73 14.4976L112.739 14.5169C112.748 14.5363 112.756 14.5564 112.763 14.5769C113.099 15.6463 112.357 16.7476 111.253 16.8387L111.2 16.8423C111.199 16.8423 111.199 16.8424 111.198 16.8424C109.698 16.9158 108.27 16.1459 107.512 14.8468H107.511L105.472 11.3503L97.0643 9.80548L97.04 9.80032C96.7923 9.74166 96.6314 9.49789 96.6778 9.24408C96.7242 8.99025 96.961 8.81956 97.2133 8.85282L97.2378 8.85661L105.863 10.4415L105.888 10.447C106.015 10.4776 106.125 10.5587 106.191 10.6724L108.342 14.3598L108.369 14.4057C108.951 15.3642 110.023 15.9336 111.15 15.8789C111.639 15.8526 111.981 15.3782 111.855 14.9023L110.985 13.2427L110.985 13.2421C109.035 9.51038 105.646 6.75034 101.61 5.58979V5.58968L100.03 5.13714V5.13704C96.1361 4.02926 91.9886 4.17532 88.1879 5.56441L88.0072 5.63159C88.0067 5.63177 88.0062 5.63193 88.0057 5.63211L86.5583 6.17214C82.1551 8.4038 79.0425 12.5526 78.1044 17.4119C78.0961 17.4549 78.0819 17.4965 78.0624 17.5356C78.0623 17.5358 78.0623 17.536 78.0621 17.5363C78.0615 17.5375 78.0603 17.5401 78.0585 17.544C78.0548 17.5517 78.0487 17.5647 78.0403 17.5831C78.0236 17.6199 77.9978 17.6783 77.9646 17.7593C77.8981 17.9212 77.8014 18.1733 77.6862 18.5234C77.4557 19.2235 77.1511 20.3155 76.8653 21.8613C76.2938 24.953 75.7979 29.8599 76.1231 37.0748C76.7737 51.5064 80.7091 75.1611 93.8829 111.971C93.9726 112.222 93.8426 112.498 93.5925 112.588C93.3424 112.678 93.067 112.548 92.9773 112.297C79.7816 75.4255 75.8181 51.6732 75.162 37.1183C74.8339 29.8399 75.3327 24.8587 75.9193 21.6855C76.2126 20.0989 76.5278 18.9645 76.7725 18.2211C76.8948 17.8494 76.9995 17.5755 77.0749 17.3918C77.1127 17.3 77.1431 17.2308 77.1647 17.1831C77.1671 17.1779 77.1694 17.173 77.1716 17.1683C78.1817 12.035 81.4835 7.65405 86.1481 5.29919L86.1721 5.28792C86.1802 5.28439 86.1884 5.281 86.1966 5.27792L87.6685 4.72862L87.8584 4.65818Z" fill="#080717"/>
<path d="M92.9297 6.79101C93.061 6.56907 93.3421 6.49123 93.5673 6.61012L93.5889 6.62223L97.6325 9.02652L97.633 9.02684L97.7182 9.07885C99.4923 10.1877 100.33 12.3371 99.7647 14.3689L99.7645 14.3697L99.4957 15.3293L99.4956 15.3292C99.252 16.2023 98.6357 16.9103 97.8032 17.2698L97.8031 17.2699C96.8068 17.6998 95.6696 17.5573 94.8136 16.8896L94.773 16.8573C94.768 16.8533 94.763 16.8491 94.7581 16.8448L94.6721 16.7693L94.6538 16.7525C94.471 16.5749 94.4573 16.2829 94.6268 16.0887C94.7963 15.8945 95.0868 15.8695 95.2866 16.0276L95.3057 16.0433L95.3824 16.1106C95.9624 16.576 96.7378 16.6793 97.4226 16.3839L97.4751 16.3603C98.0137 16.1097 98.4091 15.6433 98.5692 15.069L98.5694 15.0684L98.8379 14.1096L98.8586 14.0324C99.2738 12.4108 98.577 10.7124 97.1417 9.8562L93.098 7.45191L93.0771 7.43875C92.865 7.29766 92.7984 7.01297 92.9297 6.79101Z" fill="#080717"/>
<path d="M89.3882 8.27509C89.5259 8.0571 89.8092 7.98749 90.0308 8.11295L90.052 8.12569L93.7188 10.4543L93.7991 10.5063C95.4452 11.5969 96.2184 13.6095 95.7244 15.525L95.6995 15.6176L95.4522 16.5017C95.452 16.5022 95.4519 16.5027 95.4517 16.5032C95.1743 17.4828 94.4876 18.2987 93.5616 18.7348L93.4712 18.7758C93.4698 18.7765 93.4684 18.7771 93.4669 18.7777C92.6047 19.1445 91.6064 19.0414 90.8419 18.4732L90.0138 17.8588L90.5863 17.0835L91.4144 17.6981L91.4147 17.6983L91.4604 17.7311C91.936 18.0604 92.5479 18.1189 93.0868 17.8914C93.7927 17.5829 94.3179 16.9751 94.5262 16.2397L94.7731 15.3571L94.7927 15.2838C95.1902 13.7429 94.5525 12.1236 93.2048 11.2697L93.2044 11.2694L89.5372 8.94063L89.5166 8.92684C89.3088 8.77957 89.2505 8.49309 89.3882 8.27509ZM89.9134 17.1842C90.0715 16.9701 90.3727 16.9251 90.5863 17.0835L90.0138 17.8588C89.8003 17.7003 89.7553 17.3983 89.9134 17.1842Z" fill="#080717"/>
<path d="M86.2009 10.5255C86.353 10.3173 86.6403 10.267 86.853 10.4072L86.8734 10.4214L90.2835 12.9264C91.0609 13.4331 91.4293 14.3748 91.2047 15.2718L91.1935 15.3148C91.1932 15.3159 91.1929 15.317 91.1926 15.3181L90.5258 17.7008L90.5257 17.7007C90.2011 18.869 89.3689 19.8342 88.2623 20.33L88.2093 20.3533L88.2067 20.3544C87.5127 20.6487 86.7096 20.6103 86.0491 20.2319L86.0482 20.2314L84.5319 19.3581V19.358C83.7387 18.9046 83.3227 17.9924 83.4975 17.0982C83.4991 17.0832 83.5014 17.0684 83.5044 17.0536L83.5182 16.9902C83.8279 15.6681 85.2822 14.9527 86.5217 15.5262C86.763 15.6378 86.8682 15.9244 86.7569 16.1662C86.6455 16.4081 86.3598 16.5136 86.1186 16.402C85.4293 16.0831 84.6207 16.4855 84.4532 17.2182C84.4515 17.233 84.4491 17.2478 84.446 17.2624C84.3431 17.7414 84.5538 18.2368 84.9687 18.4963L85.0094 18.5206L85.0111 18.5217L86.5266 19.3944L86.5636 19.415C86.9499 19.621 87.4195 19.6403 87.8303 19.4666C88.6968 19.0925 89.3481 18.3452 89.5991 17.4412L89.5994 17.4403L90.2651 15.0609C90.4031 14.5537 90.1968 14.0149 89.7501 13.7292L89.7245 13.7116L86.3047 11.1995L86.285 11.1844C86.0876 11.0233 86.0488 10.7336 86.2009 10.5255Z" fill="#080717"/>
<path d="M123.025 50.2268C121.874 50.2268 120.712 50.1405 119.572 49.9788C106.194 48.0704 96.8595 35.6176 98.763 22.2052C100.462 10.1836 110.883 1.10547 122.992 1.10547C124.143 1.10547 125.304 1.19172 126.455 1.35345C132.918 2.26989 138.65 5.6769 142.587 10.9276C146.523 16.1782 148.19 22.6472 147.265 29.127C145.565 41.1594 135.145 50.2268 123.025 50.2268Z" fill="white"/>
<path d="M122.992 1.58066C124.11 1.58066 125.25 1.65613 126.39 1.81786C139.499 3.68309 148.651 15.8987 146.791 29.0416C145.092 41.0416 134.789 49.7424 123.024 49.7424C121.905 49.7424 120.776 49.6669 119.636 49.5052C106.527 47.64 97.375 35.4243 99.2354 22.2815C100.935 10.2815 111.237 1.58066 122.992 1.58066ZM122.992 0.621094C110.646 0.621094 100.01 9.87177 98.2783 22.1521C96.3426 35.8232 105.86 48.5241 119.496 50.4648C120.669 50.6265 121.852 50.7127 123.024 50.7127C128.982 50.7127 134.767 48.5564 139.306 44.6319C143.898 40.675 146.888 35.1871 147.748 29.1925C148.683 22.5834 146.995 15.985 142.973 10.6373C138.962 5.27878 133.122 1.81786 126.519 0.879854C125.358 0.707347 124.164 0.621094 122.992 0.621094Z" fill="#080717"/>
<path d="M133.79 12.3632L131.348 12.7622C130.305 12.9347 128.692 12.6759 127.756 12.1907H127.746C126.81 11.7056 125.337 11.7918 124.466 12.3848L123.842 12.8053C122.971 13.3983 122.508 14.4118 122.81 15.0694C123.111 15.7163 122.562 16.5789 121.584 16.9778L121.551 16.9886C120.573 17.3875 119.788 17.9481 119.798 18.2392C119.809 18.5304 120.573 19.0155 121.487 19.3066C122.412 19.5977 123.853 20.3632 124.692 20.9886L125.423 21.5384C126.262 22.1746 126.1 22.7783 125.046 22.8754L124.993 22.8861C123.949 22.994 122.766 22.7891 122.369 22.4441C121.971 22.0991 121.067 21.8619 120.347 21.9266C119.626 21.9913 118.637 22.8107 118.142 23.7379L117.561 24.8376C117.067 25.7649 116.884 27.091 117.164 27.7702C117.432 28.4495 118.336 29.1287 119.164 29.2905C119.992 29.4414 120.702 30.4333 120.734 31.4899L120.809 33.9913C120.841 35.0479 121.11 36.7406 121.39 37.7541L121.454 37.9805C121.745 38.994 122.412 39.6301 122.949 39.3821C123.487 39.1341 124.347 38.1853 124.874 37.2797L128.38 31.2312C128.907 30.3147 128.853 29.2905 128.251 28.9454C127.649 28.6004 127.122 27.5977 127.09 26.7029C127.047 25.808 127.66 25.4414 128.445 25.8835C129.23 26.3255 130.079 26.7676 130.327 26.8646C130.574 26.9616 131.273 26.5735 131.886 25.9913C132.488 25.4091 133.295 25.7433 133.682 26.7244L133.94 27.4037C134.317 28.3848 135.403 28.8161 136.349 28.3525L136.478 28.2878C137.425 27.8242 138.478 28.2662 138.812 29.2689L139.167 30.3147C139.511 31.3174 140.264 31.4145 140.855 30.5411L143.135 27.188C143.727 26.3147 144.823 24.9994 145.576 24.2554L146.878 22.9724C146.308 17.8619 144.103 13.1395 140.748 9.44141L137.328 11.0802C136.424 11.6193 134.833 12.1907 133.79 12.3632Z" fill="#93C0D2"/>
<path d="M102.3 23.9633C101.838 23.1655 101.408 22.3353 101.419 22.2706C101.429 22.2059 101.655 21.7423 101.913 21.2464C102.171 20.7504 102.505 20.2113 102.58 20.1898C102.655 20.1682 103.419 20.1898 104.279 20.2221C105.14 20.2652 106.548 19.8124 107.43 19.2302L110.366 17.2679C111.237 16.6857 111.506 15.4674 110.958 14.5617L110.624 14.0226C110.076 13.117 109.248 12.8582 108.774 13.4297C108.301 14.0011 107.828 14.5402 107.71 14.6264C107.71 14.6264 107.71 14.6264 107.581 14.6156C107.484 14.6049 107.484 14.6049 107.484 14.6049C107.376 14.4863 107 13.7531 106.645 12.9553C106.29 12.1682 105.978 11.338 106 11.2733C106.021 11.2086 106.559 10.4539 107.194 9.61294L107.86 8.71807C108.312 8.11429 108.678 7.13316 108.828 6.23828C103.774 9.93639 100.16 15.5968 99.2139 22.2814C99.1924 22.4 99.1817 22.5294 99.1709 22.648C99.9452 23.2733 100.913 23.9849 101.58 24.4162C102.451 24.966 102.763 24.7612 102.3 23.9633Z" fill="#93C0D2"/>
<path d="M108.506 26.4956C107.829 25.687 106.829 25.7517 106.269 26.6465L105.409 28.0374C104.85 28.9322 104.678 30.4848 105.022 31.4767L105.291 32.253C105.635 33.2449 105.925 34.0859 105.936 34.1182C105.947 34.1506 105.807 35.0886 105.656 36.1344L105.431 37.6223C105.269 38.6681 105.312 40.1236 105.527 40.8676C105.732 41.6115 106.388 41.5037 106.979 40.6304L111.851 33.3743C112.442 32.501 112.367 31.1209 111.69 30.3123L108.506 26.4956Z" fill="#93C0D2"/>
<path d="M119.282 8.1232L119.819 6.68924C120.185 5.69733 119.658 4.89948 118.647 4.91026C117.636 4.92105 114.517 5.9453 114.517 5.9453C113.485 6.17172 112.904 7.1852 113.227 8.18789L113.969 10.5275C114.281 11.5302 115.281 11.9183 116.184 11.3685L116.969 10.8941C117.873 10.3658 118.916 9.11512 119.282 8.1232Z" fill="#93C0D2"/>
<path d="M100.15 4.67578L101.849 5.16096C105.936 6.32538 109.367 9.12861 111.335 12.913L112.281 14.7351C112.528 15.5221 111.969 16.3308 111.152 16.3739C109.829 16.4386 108.571 15.7593 107.904 14.6165C106.538 12.2769 104.226 10.6488 101.57 10.1637L97.6553 9.49519" fill="white"/>
<path d="M99.6883 4.54166C99.7588 4.29349 100.011 4.14641 100.259 4.20378L100.283 4.20989L101.982 4.69506H101.982C106.13 5.87707 109.622 8.69644 111.666 12.5059L111.762 12.688L111.762 12.6882L112.708 14.5104L112.718 14.5292C112.727 14.5483 112.734 14.5681 112.741 14.5882L112.756 14.639C113.053 15.6922 112.317 16.7602 111.231 16.8499L111.178 16.8535C111.177 16.8535 111.177 16.8536 111.176 16.8536C109.675 16.927 108.247 16.1572 107.49 14.8581V14.8579C106.194 12.6397 104.003 11.0967 101.486 10.6365L97.5752 9.96871L97.5509 9.96387C97.3025 9.90833 97.1385 9.66661 97.1817 9.41226C97.2249 9.15787 97.4595 8.98409 97.7123 9.01416L97.7367 9.01774L101.651 9.68622L101.657 9.68717C104.408 10.1897 106.808 11.8573 108.252 14.2561L108.32 14.3709V14.371L108.347 14.4169C108.929 15.3754 110.001 15.9449 111.128 15.8902C111.617 15.864 111.959 15.3891 111.833 14.913L110.909 13.1339L110.818 12.9627C108.898 9.38244 105.616 6.73336 101.719 5.62288H101.718L100.019 5.1377L99.9956 5.13023C99.7546 5.048 99.6178 4.78983 99.6883 4.54166Z" fill="#080717"/>
<path d="M73.3948 112.134L56.6827 86.431L79.8796 84.1237L90.2682 70.431C90.8919 69.6116 90.7199 68.4364 89.9025 67.8326C88.0743 66.4741 85.4933 66.8191 84.0953 68.6197L78.0084 76.3933L53.5854 71.8757L61.1027 66.8084C62.5222 65.8488 62.5975 63.7787 61.2532 62.7221C60.608 62.2154 59.7584 62.0536 58.9626 62.2908L52.1014 64.3609C42.6376 67.2181 37.4326 77.3744 40.6373 86.7437L51.8755 112.145C51.8755 112.134 70.2008 112.35 73.3948 112.134Z" fill="#93C0D2"/>
<path d="M83.3947 64.9562C81.3084 64.0505 78.8779 64.9778 77.9101 67.0479L71.9092 79.2311L78.9747 78.5303L84.3411 67.4144C84.7605 66.4656 84.3303 65.3659 83.3947 64.9562Z" fill="#93C0D2"/>
<path d="M75.2643 65.8089C73.1027 65.0973 70.769 66.2402 69.9947 68.3857L65.1123 81.0542L72.0811 79.7173L76.4258 68.1593C76.7592 67.189 76.2322 66.1216 75.2643 65.8089Z" fill="#93C0D2"/>
<path d="M82.8784 69.6996C82.9847 69.4555 83.2683 69.344 83.5118 69.4506C83.7553 69.5571 83.8665 69.8414 83.7602 70.0856L77.4367 84.6084L77.4262 84.6309C77.3127 84.8593 77.0392 84.9607 76.8033 84.8575C76.5598 84.7509 76.4487 84.4666 76.555 84.2225L82.8784 69.6996Z" fill="#080717"/>
<path d="M73.6538 74.5759C73.7465 74.3263 74.0235 74.1992 74.2725 74.2922C74.5215 74.3851 74.6482 74.6628 74.5555 74.9124L70.7162 85.2521C70.6235 85.5017 70.3465 85.6287 70.0976 85.5358C69.8486 85.4429 69.7219 85.1652 69.8145 84.9156L73.6538 74.5759Z" fill="#080717"/>
<path d="M51.6545 73.8601C51.7135 73.609 51.9585 73.4503 52.2088 73.4961L52.2331 73.5012L52.3655 73.5334C55.1242 74.2235 56.528 75.8009 57.2267 77.2393C57.5775 77.9617 57.7468 78.64 57.8287 79.1383C57.8471 79.2504 57.8609 79.3538 57.8716 79.4468L65.3233 78.7057L66.9897 74.4937C67.0877 74.2461 67.3672 74.125 67.6142 74.2232C67.8612 74.3214 67.982 74.6017 67.8841 74.8493L66.1096 79.3345C66.0474 79.4917 65.908 79.604 65.7432 79.6321L65.7099 79.6366L57.4721 80.456C57.3354 80.4696 57.1994 80.424 57.0984 80.3306C56.9975 80.2372 56.9411 80.105 56.9436 79.9673C56.9436 79.9662 56.9436 79.9646 56.9436 79.9625C56.9436 79.9566 56.9436 79.9463 56.9433 79.9321C56.9428 79.9035 56.9413 79.8589 56.9376 79.8002C56.9304 79.6825 56.9144 79.5089 56.8793 79.295C56.8088 78.8661 56.6628 78.2816 56.3617 77.6616C55.7768 76.4573 54.5918 75.0839 52.1307 74.4688L52.0125 74.4402L51.9886 74.4339C51.7441 74.3629 51.5955 74.1113 51.6545 73.8601Z" fill="#080717"/>
<path d="M56.634 85.9516C56.8983 85.9251 57.1341 86.1185 57.1606 86.3835C57.187 86.6486 56.9941 86.885 56.7298 86.9115L52.7507 87.3104C52.4863 87.3369 52.2506 87.1435 52.2241 86.8785C52.1977 86.6135 52.3905 86.3771 52.6549 86.3506L56.634 85.9516Z" fill="#080717"/>
<path d="M58.2725 54.1291L60.6922 49.6655C60.7782 49.5146 60.7674 49.3313 60.6814 49.1804C58.1004 44.9216 57.9606 39.5739 60.3265 35.2181C62.7677 30.7221 67.4673 27.9297 72.5756 27.9297C75.1997 27.9297 77.7807 28.6844 80.0283 30.1076C85.9109 33.8273 88.1478 41.4176 85.2334 47.7464C82.9857 52.6089 78.2754 55.7248 72.9197 55.865C72.7477 55.865 72.5971 55.962 72.5111 56.113L70.0806 60.5766L58.2725 54.1291Z" fill="white"/>
<path d="M72.5871 27.4688V28.4283C75.1251 28.4283 77.6093 29.1507 79.7817 30.5307C85.4599 34.121 87.6215 41.4526 84.8039 47.5658C82.6316 52.2666 78.0825 55.2639 72.9097 55.4041C72.5656 55.4148 72.2537 55.6089 72.0924 55.9108L69.8985 59.9324L58.9292 53.9377L61.1231 49.8946C61.2844 49.5927 61.2736 49.2262 61.1016 48.9351C58.6066 44.8272 58.4775 39.6628 60.7682 35.458C63.1233 31.113 67.6616 28.4175 72.5978 28.4175L72.5871 27.4688ZM72.5871 27.4688C67.4788 27.4688 62.5319 30.1965 59.9186 35.0051C57.3698 39.6952 57.6924 45.183 60.2842 49.4418L57.6279 54.3259L70.2857 61.2477L72.942 56.3636C78.2223 56.2235 83.2661 53.2046 85.675 47.9647C88.6862 41.4418 86.3525 33.5496 80.2979 29.7113C77.8782 28.1803 75.2111 27.4688 72.5871 27.4688Z" fill="#080717"/>
<path d="M66.1344 37.3132C66.4909 36.8927 67.1156 36.7034 67.711 36.7488C68.3326 36.7961 68.9974 37.0997 69.4661 37.7613C69.9313 38.4179 70.168 39.3752 70.0532 40.6732C69.9743 41.5653 69.7284 42.634 69.2625 43.9079C70.0136 44.5448 70.9112 45.0476 71.9407 45.3042L72.0403 45.3282L72.0411 45.3283L72.3671 45.403C72.8405 45.5095 73.328 45.6096 73.8192 45.6949C74.2918 45.0577 74.7312 44.5178 75.1153 44.124C76.547 42.6548 78.2972 41.8527 79.6332 41.755C80.2894 41.707 80.9459 41.8242 81.3743 42.2435C81.8402 42.6996 81.8943 43.3617 81.6443 44.0628L81.6442 44.063C80.9578 45.9849 79.2822 46.72 77.456 46.8862C76.435 46.9791 75.3298 46.9 74.249 46.741C73.9253 47.1939 73.584 47.6925 73.2318 48.2241C72.2444 49.7142 71.1892 51.4341 70.22 53.0675C69.2512 54.7002 68.3702 56.2431 67.7314 57.378C67.412 57.9453 67.1533 58.4104 66.9745 58.7336C66.8851 58.8951 66.8157 59.0212 66.7686 59.1068C66.7451 59.1496 66.7272 59.1823 66.7152 59.2042C66.7092 59.2152 66.7047 59.2234 66.7016 59.229C66.7001 59.2317 66.699 59.2338 66.6983 59.2352C66.6979 59.2358 66.6976 59.2363 66.6974 59.2366C66.6974 59.2368 66.6973 59.237 66.6972 59.2371C66.6971 59.2371 66.691 59.2337 66.2751 59.0055C65.8588 58.7771 65.8532 58.774 65.8532 58.7739C65.8532 58.7738 65.8534 58.7737 65.8535 58.7735C65.8537 58.7731 65.8539 58.7725 65.8543 58.7718C65.8551 58.7703 65.8563 58.7682 65.8579 58.7654C65.861 58.7597 65.8657 58.7512 65.8718 58.74C65.884 58.7177 65.9021 58.6846 65.9258 58.6414C65.9733 58.5551 66.0432 58.4281 66.1331 58.2657C66.3129 57.9407 66.5728 57.4735 66.8935 56.9038C67.5348 55.7648 68.4195 54.2152 69.3931 52.5743C70.3664 50.9342 71.4305 49.1992 72.4303 47.6904C72.6897 47.2988 72.9462 46.9206 73.1966 46.5618C72.7233 46.4711 72.262 46.3704 71.8227 46.2678V46.2677C70.6999 46.0072 69.7203 45.4977 68.8928 44.8497C68.7684 45.1478 68.6331 45.4559 68.4862 45.7742V45.7743C67.4291 48.0622 65.8887 50.901 64.6173 53.1604C63.9806 54.2917 63.4097 55.2807 62.9979 55.987C62.792 56.3402 62.6258 56.6228 62.5111 56.8172C62.4537 56.9143 62.4092 56.9895 62.3789 57.0404C62.3638 57.0659 62.3523 57.0853 62.3445 57.0984C62.3406 57.105 62.3376 57.1099 62.3356 57.1133C62.3346 57.1149 62.3339 57.1162 62.3334 57.1171C62.3331 57.1175 62.3329 57.1178 62.3327 57.118C62.3327 57.1181 62.3327 57.1183 62.3326 57.1183C62.3325 57.1184 62.3277 57.1154 61.9197 56.8708C61.5225 56.6326 61.5074 56.6236 61.5068 56.6232L61.5069 56.623C61.5071 56.6229 61.5072 56.6225 61.5075 56.6221C61.5079 56.6213 61.5086 56.6201 61.5096 56.6185C61.5115 56.6153 61.5144 56.6106 61.5182 56.6042C61.5258 56.5914 61.5372 56.5723 61.5521 56.5471C61.582 56.4968 61.6261 56.4223 61.6831 56.3258C61.797 56.1328 61.9623 55.8517 62.1672 55.5002C62.5771 54.7971 63.1455 53.8125 63.7792 52.6864C65.0484 50.431 66.573 47.6201 67.613 45.3689C67.8066 44.9496 67.9782 44.5511 68.1298 44.1729C67.4966 43.5398 66.9809 42.8292 66.5888 42.1138C66.0932 41.2093 65.7828 40.2763 65.6847 39.4508C65.5893 38.6475 65.6853 37.8468 66.1334 37.3145L66.1344 37.3132ZM80.7021 42.9337C80.5622 42.7968 80.2447 42.6775 79.7033 42.7171C78.6438 42.7946 77.1032 43.4642 75.8034 44.7982L75.8033 44.7983C75.5374 45.0709 75.2352 45.4294 74.9053 45.8557C75.7565 45.9576 76.5959 45.9959 77.369 45.9255C79.0084 45.7763 80.231 45.1584 80.7384 43.7379C80.913 43.2478 80.8045 43.0339 80.7021 42.9337ZM67.6381 37.7106C67.2509 37.6811 66.9682 37.8193 66.8676 37.9379C66.6764 38.1662 66.5566 38.6332 66.6401 39.3367C66.7212 40.0192 66.9854 40.8342 67.4321 41.6494C67.7199 42.1745 68.0784 42.691 68.5032 43.1666C68.8514 42.1395 69.0329 41.2877 69.0948 40.5879C69.1964 39.4392 68.9747 38.7334 68.6817 38.3199C68.3924 37.9115 67.9992 37.7381 67.6381 37.7106Z" fill="#282D33"/>
<path d="M55.1223 64.8901L62.8331 69.1057C64.1774 69.8389 65.8658 69.3429 66.6079 67.9952L70.2751 61.2459L57.6819 54.3672L54.0147 61.1057C53.2834 62.4642 53.7781 64.1569 55.1223 64.8901Z" fill="#080717"/>
<path d="M55.6248 56.4219L54.8838 57.7852L68.5577 65.2554L69.2987 63.8921L55.6248 56.4219Z" fill="#080717"/>
<path d="M57.1502 53.8359L56.4092 55.1992L70.0831 62.6695L70.8241 61.3062L57.1502 53.8359Z" fill="#080717"/>
</svg>
