<svg width="40" height="40" viewBox="0 0 40 40" fill="none" xmlns="http://www.w3.org/2000/svg">
<path d="M13.3109 5.27406C13.3468 5.05814 13.3398 4.83727 13.2903 4.62405C13.2409 4.41084 13.1499 4.20945 13.0226 4.0314C12.8953 3.85334 12.7342 3.7021 12.5485 3.58631C12.3627 3.47052 12.156 3.39245 11.9401 3.35656C11.7242 3.32066 11.5033 3.32765 11.2901 3.37711C11.0768 3.42658 10.8755 3.51755 10.6974 3.64485C10.5194 3.77214 10.3681 3.93326 10.2523 4.119C10.1365 4.30474 10.0585 4.51147 10.0226 4.72739L5.02257 34.7274C4.98667 34.9433 4.99366 35.1642 5.04312 35.3774C5.09258 35.5906 5.18356 35.792 5.31085 35.97C5.43815 36.1481 5.59927 36.2993 5.78501 36.4151C5.97075 36.5309 6.17748 36.609 6.3934 36.6449C6.60931 36.6808 6.83018 36.6738 7.0434 36.6243C7.25662 36.5749 7.458 36.4839 7.63606 36.3566C7.81411 36.2293 7.96535 36.0682 8.08114 35.8824C8.19693 35.6967 8.275 35.49 8.3109 35.2741L13.3109 5.27406ZM29.9776 4.72739C29.9051 4.29133 29.6623 3.90193 29.3027 3.64485C28.9431 3.38776 28.4961 3.28406 28.0601 3.35656C27.624 3.42905 27.2346 3.6718 26.9775 4.0314C26.7204 4.391 26.6167 4.838 26.6892 5.27406L31.6892 35.2741C31.7251 35.49 31.8032 35.6967 31.919 35.8824C32.0348 36.0682 32.186 36.2293 32.3641 36.3566C32.5421 36.4839 32.7435 36.5749 32.9567 36.6243C33.1699 36.6738 33.3908 36.6808 33.6067 36.6449C33.8226 36.609 34.0294 36.5309 34.2151 36.4151C34.4009 36.2993 34.562 36.1481 34.6893 35.97C34.8166 35.792 34.9075 35.5906 34.957 35.3774C35.0065 35.1642 35.0135 34.9433 34.9776 34.7274L29.9776 4.72739ZM21.6659 5.00072C21.6659 4.5587 21.4903 4.13477 21.1777 3.82221C20.8652 3.50965 20.4413 3.33406 19.9992 3.33406C19.5572 3.33406 19.1333 3.50965 18.8207 3.82221C18.5082 4.13477 18.3326 4.5587 18.3326 5.00072V10.0007C18.3326 10.4428 18.5082 10.8667 18.8207 11.1792C19.1333 11.4918 19.5572 11.6674 19.9992 11.6674C20.4413 11.6674 20.8652 11.4918 21.1777 11.1792C21.4903 10.8667 21.6659 10.4428 21.6659 10.0007V5.00072ZM18.3326 22.5007C18.3326 22.9428 18.5082 23.3667 18.8207 23.6792C19.1333 23.9918 19.5572 24.1674 19.9992 24.1674C20.4413 24.1674 20.8652 23.9918 21.1777 23.6792C21.4903 23.3667 21.6659 22.9428 21.6659 22.5007V17.5007C21.6659 17.0587 21.4903 16.6348 21.1777 16.3222C20.8652 16.0097 20.4413 15.8341 19.9992 15.8341C19.5572 15.8341 19.1333 16.0097 18.8207 16.3222C18.5082 16.6348 18.3326 17.0587 18.3326 17.5007V22.5007ZM18.3326 30.0007C18.3326 29.5587 18.5082 29.1348 18.8207 28.8222C19.1333 28.5097 19.5572 28.3341 19.9992 28.3341C20.4413 28.3341 20.8652 28.5097 21.1777 28.8222C21.4903 29.1348 21.6659 29.5587 21.6659 30.0007V35.0007C21.6659 35.4427 21.4903 35.8667 21.1777 36.1792C20.8652 36.4918 20.4413 36.6674 19.9992 36.6674C19.5572 36.6674 19.1333 36.4918 18.8207 36.1792C18.5082 35.8667 18.3326 35.4427 18.3326 35.0007V30.0007Z" fill="#A7A7A7"/>
</svg>
