<svg width="80" height="80" viewBox="0 0 80 80" fill="none" xmlns="http://www.w3.org/2000/svg">
<path d="M47.125 41.3516V50.3516" stroke="#F1F1F1" stroke-width="12.1786" stroke-miterlimit="10" stroke-linecap="round"/>
<path d="M47.125 45.8516V51.9266" stroke="#F1F1F1" stroke-width="11.9578" stroke-miterlimit="10" stroke-linecap="square"/>
<path d="M48.625 33.9258C51.5245 33.9258 53.875 31.5753 53.875 28.6758C53.875 25.7763 51.5245 23.4258 48.625 23.4258C45.7255 23.4258 43.375 25.7763 43.375 28.6758C43.375 31.5753 45.7255 33.9258 48.625 33.9258Z" fill="#F1F1F1"/>
<path d="M35.8008 55.8242C35.9508 54.0992 36.1008 52.3742 36.4008 50.6492C36.7008 48.9242 37.0008 47.1992 37.4508 45.4742C37.9008 43.7492 38.5008 42.0242 39.4008 40.2242C39.8508 39.3242 40.4508 38.3492 41.3508 37.4492C41.5758 37.2242 41.8008 36.9992 42.1758 36.7742L42.6258 36.4742C42.7758 36.3992 43.0008 36.2492 43.1508 36.1742C43.9008 35.7992 44.8758 35.5742 45.7758 35.5742C47.6508 35.5742 49.1508 37.0742 49.1508 38.9492C49.1508 40.8242 47.6508 42.3242 45.7758 42.3242C45.9258 42.3992 46.0008 42.3242 46.0008 42.3242H45.9258C45.8508 42.3242 45.7758 42.3992 45.7008 42.4742C45.4008 42.6992 44.9508 43.0742 44.5008 43.5992C43.6008 44.6492 42.7758 45.9992 42.0258 47.3492C41.2758 48.7742 40.6008 50.1992 39.9258 51.7742C39.2508 53.2742 38.6508 54.8492 38.0508 56.4242C37.8258 57.0992 37.0758 57.3992 36.4758 57.1742C36.1008 56.8742 35.8008 56.3492 35.8008 55.8242Z" fill="#F1F1F1"/>
<path d="M55.0742 57.0258C54.5492 55.4508 54.0242 53.8008 53.4992 52.2258C52.8992 50.6508 52.2992 49.0758 51.6242 47.5758C50.9492 46.0758 50.1992 44.6508 49.3742 43.5258C48.9992 43.0008 48.5492 42.5508 48.2492 42.3258C48.0992 42.2508 48.0242 42.1758 48.0242 42.1758C48.0242 42.1758 48.1742 42.2508 48.3242 42.1758C46.4492 42.1758 44.9492 40.6758 44.9492 38.8008C44.9492 36.9258 46.4492 35.4258 48.3242 35.4258C49.2992 35.4258 50.3492 35.7258 51.0992 36.1008C51.9242 36.5508 52.4492 37.0008 52.8992 37.5258C53.7992 38.5008 54.3242 39.4758 54.7742 40.4508C55.5992 42.3258 56.0492 44.1258 56.4242 45.9258C56.7992 47.7258 57.0242 49.4508 57.2492 51.2508C57.3992 53.0508 57.5492 54.7758 57.5492 56.5758C57.5492 57.2508 57.0242 57.8508 56.3492 57.8508C55.7492 57.9258 55.2992 57.5508 55.0742 57.0258Z" fill="#F1F1F1"/>
<path d="M34.375 41.3516V49.6016" stroke="#77B5D1" stroke-width="13.3001" stroke-miterlimit="10" stroke-linecap="round"/>
<path d="M34.375 45.8516V51.1766" stroke="url(#paint0_linear_1573_7581)" stroke-width="13.4525" stroke-miterlimit="10" stroke-linecap="square"/>
<path d="M22.4492 56.5016C22.5992 54.6266 22.7492 52.7516 23.0492 50.8766C23.3492 49.0016 23.6492 47.1266 24.1742 45.1766C24.6992 43.3016 25.2992 41.3516 26.2742 39.4016C26.7992 38.4266 27.3992 37.3766 28.4492 36.3266C28.7492 36.1016 28.9742 35.8016 29.3492 35.5766C29.4992 35.4266 29.6492 35.3516 29.8742 35.2016C30.0242 35.1266 30.2492 34.9766 30.4742 34.9016C31.2992 34.4516 32.3492 34.2266 33.3992 34.2266C35.4242 34.2266 37.0742 35.8766 37.0742 37.9016C37.0742 39.9266 35.3492 41.5016 33.3242 41.5016C33.4742 41.5766 33.6242 41.4266 33.5492 41.5016H33.4742C33.3992 41.5016 33.3242 41.5766 33.2492 41.6516C32.8742 41.8766 32.4242 42.3266 31.8992 42.9266C30.9242 44.0516 30.0242 45.5516 29.2742 47.1266C28.4492 48.7016 27.6992 50.2766 27.0242 52.0016C26.3492 53.6516 25.6742 55.3766 25.0742 57.1016C24.8492 57.7766 24.0242 58.1516 23.3492 57.9266C22.7492 57.7016 22.4492 57.1016 22.4492 56.5016Z" fill="#56AAFF"/>
<path d="M22.4492 56.5016C22.5992 54.6266 22.7492 52.7516 23.0492 50.8766C23.3492 49.0016 23.6492 47.1266 24.1742 45.1766C24.6992 43.3016 25.2992 41.3516 26.2742 39.4016C26.7992 38.4266 27.3992 37.3766 28.4492 36.3266C28.7492 36.1016 28.9742 35.8016 29.3492 35.5766C29.4992 35.4266 29.6492 35.3516 29.8742 35.2016C30.0242 35.1266 30.2492 34.9766 30.4742 34.9016C31.2992 34.4516 32.3492 34.2266 33.3992 34.2266C35.4242 34.2266 37.0742 35.8766 37.0742 37.9016C37.0742 39.9266 35.3492 41.5016 33.3242 41.5016C33.4742 41.5766 33.6242 41.4266 33.5492 41.5016H33.4742C33.3992 41.5016 33.3242 41.5766 33.2492 41.6516C32.8742 41.8766 32.4242 42.3266 31.8992 42.9266C30.9242 44.0516 30.0242 45.5516 29.2742 47.1266C28.4492 48.7016 27.6992 50.2766 27.0242 52.0016C26.3492 53.6516 25.6742 55.3766 25.0742 57.1016C24.8492 57.7766 24.0242 58.1516 23.3492 57.9266C22.7492 57.7016 22.4492 57.1016 22.4492 56.5016Z" fill="url(#paint1_linear_1573_7581)"/>
<path d="M53.5737 39.6997C51.9987 39.6247 50.2737 39.6247 48.6237 39.6247C46.9737 39.6997 45.3237 39.7747 43.6737 39.9997C42.0237 40.1497 40.4487 40.3747 38.7987 40.7497C37.2237 41.0497 35.6487 41.4247 34.0737 41.5747L33.9987 41.4997C31.9737 41.6497 30.2487 40.2247 30.0237 38.1997C29.8737 36.3247 31.1487 34.6747 33.0237 34.2997C34.8237 33.9997 36.6237 33.9247 38.4237 33.9997C40.2237 34.0747 42.0237 34.2247 43.8237 34.5247C45.6237 34.7497 47.3487 35.1247 49.0737 35.4997C50.7987 35.9497 52.5237 36.3997 54.2487 37.0747C54.9237 37.3747 55.2987 38.1247 54.9987 38.7997C54.7737 39.3997 54.2487 39.6997 53.6487 39.6997H53.5737Z" fill="#56AAFF"/>
<path d="M53.5737 39.6997C51.9987 39.6247 50.2737 39.6247 48.6237 39.6247C46.9737 39.6997 45.3237 39.7747 43.6737 39.9997C42.0237 40.1497 40.4487 40.3747 38.7987 40.7497C37.2237 41.0497 35.6487 41.4247 34.0737 41.5747L33.9987 41.4997C31.9737 41.6497 30.2487 40.2247 30.0237 38.1997C29.8737 36.3247 31.1487 34.6747 33.0237 34.2997C34.8237 33.9997 36.6237 33.9247 38.4237 33.9997C40.2237 34.0747 42.0237 34.2247 43.8237 34.5247C45.6237 34.7497 47.3487 35.1247 49.0737 35.4997C50.7987 35.9497 52.5237 36.3997 54.2487 37.0747C54.9237 37.3747 55.2987 38.1247 54.9987 38.7997C54.7737 39.3997 54.2487 39.6997 53.6487 39.6997H53.5737Z" fill="url(#paint2_linear_1573_7581)"/>
<path d="M34.3734 32.2C37.1901 32.2 39.4734 29.9167 39.4734 27.1C39.4734 24.2833 37.1901 22 34.3734 22C31.5568 22 29.2734 24.2833 29.2734 27.1C29.2734 29.9167 31.5568 32.2 34.3734 32.2Z" fill="#56AAFF"/>
<path d="M34.3734 32.2C37.1901 32.2 39.4734 29.9167 39.4734 27.1C39.4734 24.2833 37.1901 22 34.3734 22C31.5568 22 29.2734 24.2833 29.2734 27.1C29.2734 29.9167 31.5568 32.2 34.3734 32.2Z" fill="url(#paint3_linear_1573_7581)"/>
<path d="M34.6745 53.275C34.5245 53.425 34.2995 53.425 34.1495 53.275L30.8495 49.975C29.9495 49.075 29.9495 47.575 30.9245 46.675C31.8245 45.775 33.3245 45.925 34.2245 46.825L34.4495 47.05L34.6745 46.825C35.5745 45.925 37.0745 45.85 37.9745 46.675C38.9495 47.575 38.9495 49.075 38.0495 49.975L34.6745 53.275Z" fill="#F1F1F1"/>
<defs>
<linearGradient id="paint0_linear_1573_7581" x1="34.689" y1="46.482" x2="37.2513" y2="49.4683" gradientUnits="userSpaceOnUse">
<stop stop-color="#F9C032"/>
<stop offset="1" stop-color="#FD8337"/>
</linearGradient>
<linearGradient id="paint1_linear_1573_7581" x1="27.0412" y1="37.0404" x2="32.7113" y2="58.6953" gradientUnits="userSpaceOnUse">
<stop stop-color="#F9C032"/>
<stop offset="1" stop-color="#FD8337"/>
</linearGradient>
<linearGradient id="paint2_linear_1573_7581" x1="37.89" y1="34.8727" x2="38.2505" y2="42.257" gradientUnits="userSpaceOnUse">
<stop stop-color="#F9C032"/>
<stop offset="1" stop-color="#FD8337"/>
</linearGradient>
<linearGradient id="paint3_linear_1573_7581" x1="32.4761" y1="23.2077" x2="34.0358" y2="32.8878" gradientUnits="userSpaceOnUse">
<stop stop-color="#F9C032"/>
<stop offset="1" stop-color="#FD8337"/>
</linearGradient>
</defs>
</svg>
