<svg width="80" height="80" viewBox="0 0 80 80" fill="none" xmlns="http://www.w3.org/2000/svg">
<path d="M20.0017 56.2227C19.9624 53.1775 20.6214 50.1593 21.9353 47.368C23.804 43.2921 27.3244 40.0589 31.7389 38.364C32.0616 38.2354 32.336 38.0213 32.5279 37.7486C32.7197 37.4759 32.8204 37.1568 32.8173 36.8313V36.8227C32.8134 36.5907 32.7595 36.3619 32.6588 36.1495C32.5581 35.9371 32.4127 35.7455 32.2311 35.586C30.8924 34.367 29.9097 32.8529 29.3752 31.1856C28.8407 29.5184 28.7719 27.7526 29.1752 26.0539C29.6117 24.0812 30.6785 22.2758 32.2369 20.8726C33.7954 19.4694 35.7733 18.5332 37.9136 18.1859C40.2178 17.7738 42.6036 18.0508 44.7269 18.9769C46.8503 19.903 48.6013 21.4303 49.7273 23.3385C50.8534 25.2466 51.2964 27.437 50.9923 29.5936C50.6882 31.7502 49.6527 33.7615 48.0354 35.3373C47.9563 35.4144 47.8509 35.5096 47.7411 35.6073C47.5607 35.7664 47.4175 35.958 47.3205 36.1705C47.2234 36.3829 47.1745 36.6116 47.1768 36.8423C47.1767 37.1651 47.2788 37.4808 47.4702 37.7505C47.6617 38.0201 47.9341 38.2319 48.254 38.3595C52.6679 40.0504 56.1895 43.279 58.0616 47.3512C59.3775 50.1406 60.0377 53.1576 59.9983 56.2016V58.4178C59.9983 59.3678 59.5911 60.2789 58.8662 60.9507C58.1414 61.6225 57.1583 62 56.1332 62H23.8668C22.8417 62 21.8586 61.6225 21.1338 60.9507C20.4089 60.2789 20.0017 59.3678 20.0017 58.4178V56.2227Z" fill="url(#paint0_linear_1573_7718)"/>
<defs>
<linearGradient id="paint0_linear_1573_7718" x1="32.5593" y1="23.2096" x2="39.9215" y2="64.746" gradientUnits="userSpaceOnUse">
<stop stop-color="#FFD774"/>
<stop offset="1" stop-color="#FD8337"/>
</linearGradient>
</defs>
</svg>
