<svg width="148" height="116" viewBox="0 0 148 116" fill="none" xmlns="http://www.w3.org/2000/svg">
<path d="M43.5665 74.1691C35.9275 78.3662 30.2598 83.6002 28.8799 87.3035L34.0054 44.7402C33.759 40.1975 38.1453 36.8398 42.433 38.2718L44.7493 39.2593L64.5122 69.7746C61.8509 67.2563 52.8812 69.0833 43.5665 74.1691Z" fill="#93C0D2"/>
<path d="M50.3265 86.482C60.3295 80.9951 66.934 73.7937 65.078 70.3972C63.222 67.0007 53.6083 68.6954 43.6053 74.1823C33.6022 79.6692 26.9978 86.8706 28.8538 90.2671C30.7098 93.6635 40.3234 91.9689 50.3265 86.482Z" fill="#1D1D1B"/>
<path d="M69.8341 13.9287C71.4605 17.9283 74.319 20.5947 76.241 19.8046C78.1631 19.0146 78.3603 15.1632 76.7339 11.1142C75.1075 7.06526 72.249 4.44826 70.327 5.2383C68.4049 6.02834 68.2077 9.92915 69.8341 13.9287Z" fill="#93C0D2"/>
<path d="M85.5862 23.7826C90.0484 21.9624 91.8019 15.9003 89.5027 10.2426C87.2035 4.5848 81.7223 1.47386 77.2602 3.29406C72.798 5.11427 71.0445 11.1764 73.3437 16.8341C75.6429 22.4919 81.1241 25.6028 85.5862 23.7826Z" fill="#93C0D2"/>
<path d="M46.6221 28.5934C47.1149 25.8776 45.2914 23.31 42.6301 22.8162L35.336 21.483C32.6254 20.9892 30.0626 22.8162 29.5698 25.4826C29.0769 28.1983 30.9004 30.766 33.5618 31.2597L40.8558 32.5929C43.5665 33.0867 46.1292 31.3091 46.6221 28.5934Z" fill="#93C0D2"/>
<path d="M39.4268 27.0119L38.934 31.8015C38.7862 33.2335 37.5048 34.2704 36.0755 34.1222C34.6463 33.9741 33.6113 32.6903 33.7592 31.2584L34.3013 26.4688L39.4268 27.0119Z" fill="#93C0D2"/>
<path d="M33.8564 21.829L39.0313 20.002C40.2141 19.607 41.2983 20.7426 40.8548 21.8783L39.9677 24.0509" fill="#93C0D2"/>
<path d="M44.689 22.1094C46.2202 23.5299 46.2794 25.8661 44.9133 27.349L44.9128 27.3499C43.4949 28.884 41.1626 28.9434 39.6826 27.5746L40.3516 26.8489C41.4343 27.8501 43.1431 27.8108 44.1894 26.6787C45.1884 25.5939 45.1489 23.8818 44.019 22.8336L44.689 22.1094Z" fill="#1D1D1B"/>
<path d="M36.7514 27.3427L36.2721 27.4569L35.7922 27.5707L35.1025 24.6573L36.0613 24.4297L36.7514 27.3427Z" fill="#1D1D1B"/>
<path d="M52.4371 69.032L46.6709 56.1938C64.7089 48.0959 76.1428 30.0238 75.7485 10.2234L89.7944 9.97656C90.2873 35.4059 75.6006 58.5639 52.4371 69.032Z" fill="#93C0D2"/>
<path d="M75.2518 3.80088C75.4283 3.62365 75.7138 3.60566 75.9117 3.76713C76.1094 3.92858 76.1496 4.212 76.0123 4.42099L75.9824 4.46198C74.6144 6.14525 73.6075 8.04451 73.0596 9.63166C72.7852 10.4266 72.6323 11.1245 72.599 11.6656C72.568 12.1687 72.6462 12.4385 72.7222 12.5572L72.754 12.5991L72.7631 12.6088L72.8401 12.6912C73.2337 13.0988 73.7645 13.4325 74.2099 13.5076C74.4343 13.5454 74.6036 13.5134 74.7321 13.4319C74.8609 13.3501 75.0157 13.1756 75.1277 12.7983C75.2053 12.537 75.48 12.3883 75.7408 12.466C76.0016 12.5438 76.1504 12.8186 76.0729 13.0799C75.9138 13.616 75.6436 14.0223 75.2595 14.2661C74.8752 14.5101 74.4438 14.5487 74.0462 14.4816C73.2768 14.3519 72.5184 13.8125 72.0306 13.2694L72.0311 13.2689C71.6544 12.8629 71.577 12.2255 71.6152 11.6048C71.6558 10.9455 71.836 10.1559 72.1283 9.30907C72.7139 7.61268 73.7771 5.6111 75.2182 3.83801L75.2518 3.80088Z" fill="black"/>
<path d="M79.8802 5.06349C80.1131 4.9225 80.4161 4.99703 80.5569 5.23033C80.6976 5.46363 80.6226 5.76672 80.3899 5.90782L80.3904 5.9083C80.39 5.90857 80.3891 5.90904 80.388 5.90975C80.3851 5.91153 80.3802 5.91486 80.3731 5.9194C80.3588 5.92849 80.3362 5.94303 80.3062 5.96328C80.2461 6.0038 80.156 6.06643 80.0429 6.1523C79.8166 6.32418 79.4983 6.58748 79.1405 6.946C78.4243 7.66358 77.5554 8.75825 76.9448 10.264C76.3201 11.8047 76.1448 12.8589 76.1613 13.5849C76.1774 14.2962 76.3776 14.715 76.5574 14.9954C76.7108 15.2344 77.0561 15.5155 77.4723 15.6512C77.8752 15.7824 78.276 15.7583 78.6072 15.5094C78.825 15.3458 79.1341 15.3901 79.2974 15.6083C79.4606 15.8264 79.4164 16.1361 79.1987 16.2997C78.5443 16.7914 77.7868 16.792 77.1672 16.59C76.5608 16.3924 76.0188 15.9819 75.7286 15.5297C75.4649 15.1187 75.1969 14.5251 75.1761 13.6071C75.1556 12.7038 75.3748 11.5115 76.0314 9.89225C76.7022 8.23789 77.6566 7.03621 78.4436 6.24777C78.8373 5.8533 79.1903 5.56071 79.4475 5.36535C79.5762 5.26763 79.6813 5.19414 79.7556 5.14402C79.7927 5.11897 79.8221 5.09958 79.8432 5.08615C79.8537 5.07944 79.8625 5.07456 79.8687 5.07072C79.8717 5.06886 79.874 5.06708 79.8759 5.0659C79.8768 5.06537 79.8777 5.06484 79.8783 5.06445L79.8793 5.06349H79.8797C79.8799 5.06339 79.88 5.06336 80.1348 5.4859L80.2065 5.60404L79.8802 5.06349Z" fill="black"/>
<path d="M84.1677 7.12042C84.3821 6.95246 84.6922 6.99045 84.8598 7.20529C85.017 7.40668 84.9933 7.69214 84.8131 7.86542L84.7751 7.89869C84.7749 7.89884 84.7741 7.89878 84.7736 7.89918C84.7726 7.89997 84.7711 7.90172 84.7688 7.90352C84.7643 7.90712 84.757 7.91246 84.7477 7.91991C84.7288 7.93495 84.7005 7.95804 84.6639 7.9879C84.5906 8.04769 84.4839 8.13585 84.3525 8.24829C84.0893 8.47362 83.7278 8.79494 83.337 9.17749C82.5447 9.95299 81.6719 10.9414 81.2179 11.874L81.216 11.8783C80.7283 12.8556 80.4026 13.6438 80.2433 14.2879C80.0855 14.9256 80.1037 15.3712 80.2399 15.7026C80.4387 16.1107 80.7362 16.2962 81.0701 16.3821C81.4281 16.4741 81.8274 16.4491 82.1809 16.4023C82.3088 16.3829 82.5662 16.273 82.8899 16.032C83.2001 15.8009 83.5246 15.4844 83.7894 15.1197C84.297 14.4204 84.5162 13.6574 84.2091 12.9739L84.1408 12.8379L84.1181 12.793C84.0179 12.5637 84.1057 12.2909 84.328 12.1652C84.5502 12.0398 84.8284 12.1055 84.9724 12.3099L84.9994 12.3528L85.0595 12.4661C85.6512 13.6394 85.2078 14.8442 84.5864 15.7002C84.2599 16.1501 83.8638 16.5374 83.478 16.8247C83.1526 17.0671 82.7948 17.268 82.4659 17.3513L82.3268 17.3797C82.3241 17.3801 82.3212 17.3803 82.3186 17.3807C81.9347 17.432 81.3763 17.4805 80.8251 17.3388C80.2865 17.2002 79.7584 16.8797 79.4116 16.2475L79.3447 16.1169L79.3351 16.0952C79.0806 15.4894 79.1007 14.8017 79.2865 14.0506C79.4489 13.3937 79.748 12.6488 80.1537 11.8045L80.3342 11.4366C80.8663 10.3462 81.8399 9.26226 82.6483 8.47107C83.0583 8.06976 83.4366 7.73355 83.7124 7.4975C83.8504 7.37939 83.9633 7.2859 84.0421 7.22168C84.0814 7.18967 84.1122 7.16493 84.1335 7.14791C84.1441 7.13944 84.1523 7.13269 84.1581 7.12814C84.1609 7.12591 84.1632 7.12409 84.1648 7.12283C84.1655 7.12226 84.1663 7.12175 84.1667 7.12139L84.1677 7.1209C84.1693 7.12284 84.1904 7.14947 84.4714 7.50956L84.1677 7.12042Z" fill="black"/>
<path d="M69.6685 10.7235C69.938 10.6862 70.1865 10.8745 70.2239 11.1444V11.1449C70.224 11.1453 70.2243 11.1459 70.2244 11.1468C70.2247 11.149 70.2251 11.1529 70.2258 11.1579C70.2273 11.168 70.2298 11.1838 70.2331 11.2047C70.2396 11.2466 70.2502 11.3097 70.2648 11.3918C70.2942 11.5564 70.3406 11.7971 70.4087 12.0953C70.5451 12.6923 70.7674 13.5175 71.109 14.4272C71.797 16.2593 72.9474 18.374 74.8024 19.6982H74.8019C75.9968 20.55 77.5528 21.0022 78.8433 21.2379C79.4828 21.3546 80.045 21.4159 80.4465 21.4481C80.647 21.4641 80.807 21.4728 80.9158 21.4775C80.97 21.4798 81.0116 21.4811 81.039 21.4818C81.0526 21.4822 81.0629 21.4827 81.0693 21.4828H81.0775L81.1275 21.4862C81.3758 21.5145 81.5672 21.7272 81.5641 21.9829C81.5609 22.2385 81.3643 22.4462 81.1155 22.4684L81.065 22.4704H81.05C81.0412 22.4702 81.0286 22.4698 81.0125 22.4694C80.9801 22.4685 80.9332 22.4667 80.8734 22.4641C80.7538 22.4589 80.5817 22.4499 80.3681 22.4327C79.9411 22.3986 79.3453 22.3334 78.6667 22.2095C77.4047 21.9791 75.8122 21.5377 74.491 20.6799L74.2306 20.5025C72.143 19.0122 70.903 16.6831 70.1864 14.7749C69.8258 13.8146 69.592 12.9454 69.4481 12.3157C69.3761 12.0006 69.3264 11.7444 69.2945 11.5659C69.2786 11.4766 69.267 11.4064 69.2594 11.358C69.2556 11.3339 69.2527 11.3152 69.2507 11.3021C69.2498 11.2956 69.2493 11.2903 69.2488 11.2867C69.2486 11.2849 69.248 11.2834 69.2479 11.2823V11.2804C69.2495 11.28 69.2771 11.2759 69.7359 11.2124L69.2479 11.2799C69.2106 11.0098 69.3989 10.7608 69.6685 10.7235Z" fill="black"/>
<path d="M53.303 51.8287C53.5174 51.6902 53.7987 51.7398 53.9546 51.9353L53.9845 51.9763L61.7712 64.0737C61.9187 64.3029 61.8527 64.6088 61.624 64.7565C61.3953 64.9042 61.0905 64.838 60.9429 64.609L53.1557 52.5115L53.1307 52.4676C53.0172 52.2447 53.0885 51.9673 53.303 51.8287Z" fill="#1D1D1B"/>
<path d="M50.7977 7.966L48.2349 9.00321L47.8662 8.08751L50.4286 7.05078L50.7977 7.966Z" fill="#080717"/>
<path d="M58.8208 4.8614L56.2088 5.84895L55.8604 4.92505L58.4728 3.9375L58.8208 4.8614Z" fill="#080717"/>
<path d="M53.3693 9.40546L52.9751 12.1704L51.999 12.031L52.3932 9.26562L53.3693 9.40546Z" fill="#080717"/>
<path d="M54.6991 0.869148L54.2554 3.68376L53.2822 3.52945L53.7255 0.714844L54.6991 0.869148Z" fill="#080717"/>
<path d="M51.3649 4.25946L50.7512 5.03195L48.583 3.30374L49.1962 2.53125L51.3649 4.25946Z" fill="#080717"/>
<path d="M58.1113 9.63837L57.5059 10.4176L55.2881 8.68939L55.8935 7.91016L58.1113 9.63837Z" fill="#080717"/>
<path d="M148 51.7021V11.4102H107.784L148 51.7021Z" fill="#F9C032"/>
<path d="M122.421 22.4219L85.8518 59.0105L71.2638 44.3454L-0.000976562 115.745H29.2245L71.2638 73.6756L85.8518 88.2913L137.009 37.0376L122.421 22.4219Z" fill="#F9C032"/>
<path d="M62.7373 85.2781C62.7373 87.5001 61.5052 90.2158 59.3367 91.549C57.1189 92.8822 53.9647 92.7834 51.7962 92.7834C47.4592 92.7834 47.1143 89.8208 47.1143 85.3275C47.1143 80.8341 50.6134 77.1802 54.9504 77.1802C59.2381 77.1308 62.7373 80.7847 62.7373 85.2781Z" fill="#93C0D2"/>
<path d="M54.5574 90.7596C54.0645 90.7596 53.5224 90.7102 53.0296 90.6114L5.6183 79.9953C0.788462 78.909 -0.93648 72.8849 2.56269 69.3791L33.7102 38.1726C36.3715 35.5062 40.7578 35.2594 43.5177 37.7776C46.5241 40.4934 46.5733 45.1348 43.7642 47.9493L22.4242 69.3298L56.0852 76.8845C59.88 77.7239 62.2457 81.4766 61.4078 85.2787C60.6686 88.4882 57.8101 90.7596 54.5574 90.7596Z" fill="#93C0D2"/>
<path d="M58.8577 86.6134C59.1297 86.6205 59.3444 86.8472 59.3375 87.1198L59.3265 87.3295C59.2382 88.4109 58.6838 89.9878 57.7026 91.2228C56.6727 92.519 55.1038 93.5114 53.0557 93.0643L52.8565 93.0166L52.8084 93.0016C52.5741 92.9147 52.4392 92.6623 52.5032 92.4148C52.5674 92.1673 52.8078 92.0126 53.0548 92.0507L53.1039 92.0609L53.2574 92.0975C54.832 92.4433 56.0516 91.7155 56.9316 90.608C57.8561 89.4443 58.3306 87.9414 58.3523 87.0947L58.3562 87.0441C58.3878 86.7958 58.6026 86.6069 58.8577 86.6134Z" fill="#1D1D1B"/>
<path d="M55.017 86.6136C55.2889 86.6228 55.5021 86.8508 55.493 87.1232C55.4405 88.7026 54.9155 90.2753 53.9765 91.6342C53.4848 92.3458 52.7065 92.8303 51.931 93.0698L51.776 93.1141L51.7558 93.1189C49.7642 93.5623 47.8407 92.287 47.3626 90.353L47.3212 90.1635L47.3193 90.1534L47.0729 88.7213L47.0666 88.6711C47.0493 88.4215 47.2233 88.1942 47.4747 88.1508C47.7262 88.1074 47.9659 88.2633 48.033 88.5043L48.0441 88.5535L48.2886 89.9755L48.3199 90.1158C48.6739 91.5486 50.089 92.4718 51.5311 92.1569C52.1809 91.9813 52.805 91.5948 53.166 91.0725C54.0011 89.8639 54.4618 88.4737 54.5078 87.0905C54.5169 86.8179 54.745 86.6045 55.017 86.6136Z" fill="#1D1D1B"/>
<path d="M46.3261 87.8502L46.3757 87.8579L50.4666 88.6974C50.7331 88.7522 50.9048 89.0128 50.8502 89.2799C50.7956 89.547 50.5354 89.7193 50.2688 89.6647L46.1783 88.8252L46.1292 88.8126C45.8909 88.7379 45.7432 88.4931 45.7943 88.2427C45.8455 87.9922 46.0775 87.8249 46.3261 87.8502Z" fill="#1D1D1B"/>
<path d="M30.8669 70.3881C30.9317 70.1409 31.1722 69.9868 31.4189 70.0254L31.4685 70.0361L58.131 77.0473L58.1974 77.0699L58.3812 77.1495C59.299 77.558 60.1779 78.1139 60.9667 78.9042C64.2146 82.1584 64.2147 87.4582 60.9667 90.7124C59.3443 92.3379 57.197 93.1779 55.0488 93.1779C54.7768 93.1778 54.5561 92.9566 54.5559 92.6841C54.5559 92.4114 54.7767 92.1904 55.0488 92.1903C56.9419 92.1903 58.8366 91.45 60.2698 90.0141C63.1329 87.1456 63.1328 82.471 60.2698 79.6024C59.5414 78.8727 58.7198 78.3657 57.8412 77.9919L31.2182 70.9908L31.1701 70.9759C30.9361 70.8882 30.8021 70.6353 30.8669 70.3881Z" fill="#1D1D1B"/>
<path d="M11.8792 78.7139L7.88734 82.7132L7.19043 82.015L11.1822 78.0156L11.8792 78.7139Z" fill="#1D1D1B"/>
<path d="M6.84648 83.8084L5.46662 85.1417L4.78223 84.4309L6.16208 83.0977L6.84648 83.8084Z" fill="#1D1D1B"/>
<path d="M29.4241 105.823L25.4323 109.823L24.7354 109.124L28.7272 105.125L29.4241 105.823Z" fill="#1D1D1B"/>
<path d="M24.3426 110.914L22.9627 112.247L22.2783 111.536L23.6582 110.203L24.3426 110.914Z" fill="#1D1D1B"/>
<path d="M14.7365 95.7988L8.18132 102.317L7.4873 101.616L14.042 95.0977L14.7365 95.7988Z" fill="#1D1D1B"/>
<path d="M7.1414 103.41L5.76154 104.743L5.07715 104.033L6.45701 102.699L7.1414 103.41Z" fill="#1D1D1B"/>
<path d="M4.73373 105.772L3.40296 107.106L2.70605 106.408L4.03682 105.074L4.73373 105.772Z" fill="#1D1D1B"/>
<path d="M97.5636 27.6193L95.5426 28.4091L95.1846 27.4891L97.205 26.6992L97.5636 27.6193Z" fill="#080717"/>
<path d="M103.724 25.2013L101.703 25.9911L101.345 25.0711L103.365 24.2812L103.724 25.2013Z" fill="#080717"/>
<path d="M99.5977 28.6097L99.3022 30.7824L98.3252 30.6489L98.6212 28.4766L99.5977 28.6097Z" fill="#080717"/>
<path d="M100.584 22.0432L100.289 24.216L99.3115 24.0825L99.6075 21.9102L100.584 22.0432Z" fill="#080717"/>
<path d="M98.0307 24.5481L97.429 25.3303L95.7041 23.997L96.3057 23.2148L98.0307 24.5481Z" fill="#080717"/>
<path d="M103.204 28.6966L102.603 29.4787L100.878 28.1454L101.48 27.3633L103.204 28.6966Z" fill="#080717"/>
</svg>
