<svg width="60" height="60" viewBox="0 0 60 60" fill="none" xmlns="http://www.w3.org/2000/svg">
<path d="M43.1398 27.6979C42.0148 28.8229 40.8852 29.9525 39.7602 31.0775C37.9602 32.8775 36.1648 34.6729 34.3648 36.4729C33.9523 36.8854 33.5352 37.3025 33.1227 37.715C33.5633 37.715 34.0086 37.715 34.4492 37.715C33.5633 36.8291 32.6727 35.9385 31.7867 35.0525C30.732 33.9979 29.682 32.9479 28.6273 31.8932C27.8305 31.0963 27.0336 30.2994 26.232 29.4979C25.3273 28.5932 24.4227 27.6885 23.518 26.7838C22.4773 25.7432 21.4555 24.6838 20.4008 23.6666C20.382 23.6479 20.3633 23.6291 20.3445 23.6104C20.3445 24.051 20.3445 24.4963 20.3445 24.9369C21.4695 23.8119 22.5992 22.6822 23.7242 21.5572C25.5242 19.7572 27.3195 17.9619 29.1195 16.1619C29.532 15.7494 29.9492 15.3322 30.3617 14.9197C29.9211 14.9197 29.4758 14.9197 29.0352 14.9197C29.5039 15.3885 29.9727 15.8572 30.4414 16.326C31.5617 17.4463 32.682 18.5666 33.807 19.6916C35.1617 21.0463 36.5211 22.4057 37.8758 23.7604C39.0523 24.9369 40.2289 26.1135 41.4055 27.29C41.9727 27.8572 42.5305 28.4479 43.1164 29.001C43.1258 29.0104 43.1305 29.015 43.1398 29.0244C43.4867 29.3713 44.1242 29.3994 44.4664 29.0244C44.8086 28.6494 44.8367 28.0682 44.4664 27.6979C43.9977 27.2291 43.5289 26.7604 43.0602 26.2916C41.9398 25.1713 40.8195 24.051 39.6945 22.926C38.3398 21.5713 36.9805 20.2119 35.6258 18.8572C34.4492 17.6807 33.2727 16.5041 32.0961 15.3275C31.5289 14.7604 30.9711 14.1697 30.3852 13.6166C30.3758 13.6072 30.3711 13.6025 30.3617 13.5932C30.0055 13.2369 29.3961 13.2322 29.0352 13.5932C27.9102 14.7182 26.7805 15.8479 25.6555 16.9729C23.8555 18.7729 22.0602 20.5682 20.2602 22.3682C19.8477 22.7807 19.4305 23.1979 19.018 23.6104C18.6617 23.9666 18.657 24.576 19.018 24.9369C19.9039 25.8229 20.7945 26.7135 21.6805 27.5994C22.7352 28.6541 23.7852 29.7041 24.8398 30.7588C25.6367 31.5557 26.4336 32.3525 27.2352 33.1541C28.1398 34.0588 29.0445 34.9635 29.9492 35.8682C30.9898 36.9088 32.0164 37.9588 33.0664 38.9854C33.0852 39.0041 33.1039 39.0229 33.1227 39.0416C33.4789 39.3979 34.0883 39.4025 34.4492 39.0416C35.5742 37.9166 36.7039 36.7869 37.8289 35.6619C39.6289 33.8619 41.4242 32.0666 43.2242 30.2666C43.6367 29.8541 44.0539 29.4369 44.4664 29.0244C44.8133 28.6775 44.8414 28.04 44.4664 27.6979C44.0914 27.3557 43.5102 27.3275 43.1398 27.6979Z" fill="white"/>
<path d="M46.9164 29.6432C46.9164 29.6854 46.8977 29.9432 46.9118 29.8119C46.9258 29.6854 46.8883 29.9057 46.8789 29.9432C46.8555 30.0275 46.8274 30.1072 46.7993 30.1916C46.8039 30.1775 46.8743 30.051 46.818 30.14C46.7852 30.1916 46.7618 30.2525 46.7289 30.3088C46.6915 30.3697 46.5977 30.4963 46.7008 30.3697C46.6493 30.4307 46.5977 30.4869 46.5414 30.5432C46.5368 30.5479 46.5368 30.5479 46.5321 30.5525C46.4805 30.6041 46.4289 30.6557 46.3727 30.7119C46.0961 30.9885 45.8243 31.2604 45.5477 31.5369C44.5352 32.5494 43.5227 33.5619 42.5149 34.5697C41.3149 35.7697 40.1196 36.965 38.9196 38.165C38.0664 39.0182 37.218 39.8666 36.3649 40.7197C36.2289 40.8557 36.0977 40.9916 35.9571 41.1275C35.9243 41.1604 35.8914 41.1885 35.8586 41.2213C35.8446 41.2354 35.7555 41.315 35.8493 41.2354C35.9477 41.151 35.8352 41.24 35.8071 41.2588C35.7508 41.2963 35.6946 41.3291 35.6383 41.3619C35.6008 41.3807 35.5586 41.3994 35.5211 41.4229C35.4133 41.4791 35.6805 41.3713 35.5633 41.4041C35.4461 41.4369 35.268 41.4557 35.1602 41.5072C35.1836 41.4979 35.3852 41.4885 35.2164 41.4979C35.1836 41.4979 35.1508 41.5025 35.1227 41.5025C35.0383 41.5072 34.9539 41.4979 34.8649 41.4932C34.7618 41.4932 34.9493 41.5072 34.9539 41.5072C34.9305 41.4932 34.8883 41.4932 34.8602 41.4885C34.7852 41.4744 34.7149 41.4557 34.6399 41.4322C34.6071 41.4229 34.5789 41.4088 34.5461 41.3994C34.4243 41.3666 34.7008 41.4791 34.5883 41.4182C34.5227 41.3807 34.4524 41.3479 34.3868 41.3104C34.3586 41.2916 34.1664 41.1463 34.2602 41.2307C34.3586 41.315 34.1711 41.1463 34.1524 41.1229C34.0961 41.0666 34.0446 41.0104 33.993 40.9494C34.1149 41.0994 33.9555 40.8744 33.9274 40.8229C33.9086 40.79 33.8946 40.7525 33.8758 40.7244C33.8055 40.6119 33.918 40.8697 33.8805 40.7432C33.8618 40.6729 33.8336 40.6025 33.8149 40.5322C33.8008 40.4854 33.7961 40.4338 33.7821 40.3869C33.7539 40.2744 33.7961 40.4572 33.7914 40.4525C33.7586 40.4385 33.7821 40.19 33.7821 40.1572C33.7821 40.1197 33.7868 40.0822 33.7868 40.0447C33.7868 39.9322 33.7774 40.1057 33.7774 40.1104C33.768 40.0354 33.8149 39.9322 33.8336 39.8572C33.8524 39.7963 33.9555 39.5854 33.8571 39.7682C33.8993 39.6885 33.9368 39.6088 33.9836 39.5338C33.9977 39.5104 34.0868 39.3744 34.0211 39.4729C33.9602 39.5619 34.0305 39.4588 34.0446 39.4447C34.0821 39.4025 34.1243 39.3604 34.1618 39.3182C34.2227 39.2525 34.2883 39.1916 34.3539 39.126C34.3821 39.0979 34.4149 39.065 34.443 39.0369C34.6211 38.8588 34.7993 38.6807 34.9774 38.5025C35.9008 37.5791 36.8243 36.6557 37.7477 35.7322C38.9477 34.5322 40.1477 33.3322 41.3477 32.1322C42.2336 31.2463 43.1196 30.3604 44.0055 29.4744C44.1508 29.3291 44.3008 29.1791 44.4461 29.0338C44.5352 28.9447 44.6243 28.851 44.718 28.7619C44.7555 28.7244 44.793 28.6916 44.8305 28.6588C44.9571 28.5369 44.7086 28.7291 44.8539 28.64C44.9196 28.5979 44.9852 28.5557 45.0508 28.5182C45.0789 28.5041 45.1071 28.49 45.1399 28.4713C45.2946 28.3916 45.018 28.5088 45.1258 28.476C45.2477 28.4432 45.4211 28.4244 45.5289 28.3729C45.5243 28.3729 45.3368 28.3869 45.4399 28.3869C45.4727 28.3869 45.5055 28.3822 45.5336 28.3822C45.618 28.3775 45.7024 28.3822 45.7914 28.3869C45.9602 28.3916 45.6133 28.3494 45.8289 28.3916C45.9039 28.4057 45.9743 28.4244 46.0493 28.4479C46.0821 28.4572 46.1102 28.4713 46.143 28.4807C46.2461 28.5088 46.0633 28.4479 46.068 28.4479C46.1336 28.4479 46.2414 28.5369 46.3024 28.5697C46.3258 28.5838 46.4477 28.6869 46.4664 28.6822C46.4196 28.6963 46.3352 28.5697 46.4336 28.6635C46.4571 28.6869 46.4852 28.7104 46.5086 28.7338C46.5743 28.7947 46.6352 28.865 46.6914 28.9354C46.593 28.8088 46.6868 28.94 46.7196 28.9963C46.7477 29.0385 46.7664 29.0854 46.7946 29.1275C46.8039 29.1416 46.8555 29.2588 46.8086 29.151C46.7618 29.0432 46.8086 29.1604 46.818 29.1791C46.8321 29.226 46.8508 29.2729 46.8602 29.3197C46.8696 29.3479 46.9258 29.5166 46.9071 29.5354C46.9118 29.526 46.8977 29.3572 46.8977 29.5072C46.9118 29.5447 46.9164 29.5963 46.9164 29.6432C46.9258 30.1354 47.343 30.6041 47.8539 30.5807C48.3555 30.5572 48.8008 30.1682 48.7915 29.6432C48.7774 28.7525 48.4071 27.8572 47.718 27.2807C47.0993 26.7604 46.3024 26.4416 45.4821 26.5025C44.6899 26.5588 43.9727 26.8729 43.4055 27.4307C43.3024 27.5338 43.1993 27.6416 43.0914 27.7447C42.4164 28.4197 41.7461 29.09 41.0711 29.765C39.8571 30.9791 38.643 32.1932 37.4289 33.4072C36.3368 34.4994 35.2493 35.5869 34.1571 36.6791C33.8571 36.9791 33.5618 37.2744 33.2618 37.5744C32.8727 37.9635 32.4602 38.3479 32.2258 38.8588C31.8227 39.7447 31.818 40.6822 32.2118 41.5729C32.5633 42.365 33.2758 42.9463 34.0821 43.2275C35.2118 43.6213 36.4821 43.2557 37.3164 42.426C37.9539 41.7932 38.5868 41.1557 39.2243 40.5182C40.4102 39.3322 41.6008 38.1416 42.7868 36.9557C43.9446 35.7979 45.1071 34.64 46.2649 33.4775C46.7993 32.9432 47.3383 32.4182 47.8633 31.8791C48.4493 31.2791 48.7727 30.4916 48.7868 29.6525C48.7961 29.1604 48.3508 28.6916 47.8493 28.715C47.3383 28.7291 46.9258 29.1182 46.9164 29.6432Z" fill="white"/>
<path d="M29.6861 12.4127C29.6861 12.4549 29.6674 12.7127 29.6814 12.5815C29.6955 12.4549 29.658 12.6752 29.6486 12.7127C29.6252 12.7971 29.5971 12.8768 29.5689 12.9611C29.5736 12.9471 29.6439 12.8205 29.5877 12.9096C29.5549 12.9611 29.5314 13.0221 29.4986 13.0783C29.4611 13.1393 29.3674 13.2658 29.4705 13.1393C29.4189 13.2002 29.3674 13.2611 29.3111 13.3174C29.2549 13.3736 29.1986 13.4299 29.1424 13.4861C29.0814 13.5471 29.0205 13.608 28.9642 13.6643C28.7299 13.8986 28.4955 14.133 28.2611 14.3674C27.2767 15.3518 26.2924 16.3361 25.308 17.3205C24.1127 18.5158 22.9221 19.7065 21.7267 20.9018C20.9158 21.7127 20.1049 22.5236 19.2892 23.3393C19.1158 23.5127 18.9424 23.6861 18.7689 23.8596C18.7455 23.883 18.7174 23.9111 18.6939 23.9346C18.6705 23.958 18.6424 23.9768 18.6189 24.0049C18.5299 24.094 18.7549 23.9158 18.6517 23.9815C18.5955 24.019 18.5439 24.0565 18.483 24.0893C18.4455 24.1127 18.408 24.1315 18.3658 24.1502C18.3377 24.1643 18.2064 24.2065 18.3283 24.169C18.4549 24.1315 18.2392 24.1971 18.1971 24.2065C18.1361 24.2252 18.0705 24.2346 18.0096 24.2486C17.8408 24.2861 18.1924 24.2393 17.9721 24.2486C17.8877 24.2533 17.8033 24.2533 17.7142 24.2486C17.6908 24.2486 17.6439 24.2346 17.6205 24.2393C17.6252 24.2393 17.8127 24.2721 17.7096 24.2486C17.6346 24.2299 17.5642 24.2205 17.4892 24.1971C17.4564 24.1877 17.2174 24.1174 17.358 24.1596C17.4799 24.1971 17.2736 24.1174 17.2361 24.094C17.1705 24.0565 17.1049 24.0096 17.0392 23.9674C16.9502 23.9111 17.0955 24.0143 17.0955 24.0096C17.0721 24.0049 17.0064 23.9299 16.9924 23.9205C16.9361 23.869 16.8846 23.8127 16.833 23.7565C16.7955 23.719 16.7533 23.6205 16.8377 23.7611C16.8142 23.719 16.7814 23.6768 16.7533 23.6346C16.7346 23.6018 16.7158 23.569 16.6971 23.5361C16.683 23.508 16.6127 23.3627 16.6642 23.4799C16.7111 23.583 16.6314 23.3815 16.6221 23.344C16.6174 23.3252 16.5424 23.1143 16.5658 23.0908C16.5705 23.0861 16.5752 23.2736 16.5752 23.1565C16.5752 23.0955 16.5658 23.0346 16.5658 22.9736C16.5658 22.9455 16.5564 22.7627 16.5752 22.7533C16.5799 22.7486 16.5236 22.9877 16.5752 22.7815C16.5846 22.744 16.5892 22.7111 16.5986 22.6736C16.6221 22.5893 16.6502 22.5096 16.6783 22.4252C16.6221 22.5986 16.6924 22.4111 16.7299 22.3455C16.7627 22.2893 16.8892 22.1158 16.7767 22.2518C16.8283 22.1908 16.8799 22.1346 16.9361 22.0783C16.9408 22.0736 16.9408 22.0736 16.9455 22.069C16.9642 22.0502 16.983 22.0315 17.0017 22.0127C17.2221 21.7924 17.4424 21.5721 17.6627 21.3518C18.6142 20.4002 19.5658 19.4486 20.5174 18.4971C21.7221 17.2924 22.9267 16.0877 24.1267 14.8877C25.0502 13.9643 25.9736 13.0408 26.8971 12.1174C27.0939 11.9205 27.2861 11.7236 27.483 11.5315C27.4924 11.5221 27.5064 11.508 27.5158 11.4986C27.5486 11.4658 27.5814 11.4377 27.6142 11.4049C27.7408 11.283 27.4924 11.4752 27.6377 11.3861C27.7033 11.344 27.7689 11.3018 27.8346 11.2643C27.8627 11.2502 27.8908 11.2361 27.9236 11.2174C28.0783 11.1377 27.8017 11.2549 27.9096 11.2221C28.0314 11.1893 28.2049 11.1705 28.3127 11.119C28.308 11.119 28.1205 11.133 28.2236 11.133C28.2564 11.133 28.2892 11.1283 28.3174 11.1283C28.4017 11.1236 28.4861 11.1283 28.5752 11.133C28.7439 11.1377 28.3971 11.0955 28.6127 11.1377C28.6877 11.1518 28.758 11.1705 28.833 11.194C28.8658 11.2033 28.8939 11.2174 28.9267 11.2268C29.0299 11.2549 28.8471 11.194 28.8517 11.194C28.9174 11.194 29.0299 11.283 29.0861 11.3158C29.1096 11.3299 29.2314 11.433 29.2502 11.4283C29.2033 11.4424 29.1189 11.3158 29.2174 11.4096C29.2408 11.433 29.2689 11.4565 29.2924 11.4799C29.358 11.5408 29.4189 11.6111 29.4752 11.6815C29.3721 11.5549 29.4705 11.6861 29.5033 11.7424C29.5314 11.7846 29.5502 11.8315 29.5783 11.8736C29.5877 11.8877 29.6392 12.0049 29.5924 11.8971C29.5455 11.7893 29.5924 11.9065 29.6017 11.9252C29.6158 11.9721 29.6346 12.019 29.6439 12.0658C29.6533 12.094 29.7096 12.2627 29.6908 12.2815C29.6955 12.2721 29.6814 12.1033 29.6814 12.2533C29.6814 12.3143 29.6861 12.3658 29.6861 12.4127C29.6955 12.9049 30.1127 13.3736 30.6236 13.3502C31.1252 13.3268 31.5705 12.9377 31.5611 12.4127C31.5471 11.5221 31.1767 10.6268 30.4877 10.0502C29.8689 9.52989 29.0721 9.21114 28.2517 9.27208C27.3892 9.33302 26.6674 9.70802 26.0627 10.3127C25.3267 11.0486 24.5861 11.7893 23.8502 12.5252C22.6267 13.7486 21.408 14.9674 20.1846 16.1908C19.0783 17.2971 17.9674 18.408 16.8611 19.5143C16.1908 20.1846 15.3142 20.883 14.9392 21.769C14.2174 23.4799 15.1549 25.4533 16.9174 26.0111C17.6955 26.2549 18.5439 26.1518 19.2705 25.7955C19.6877 25.594 20.0158 25.2658 20.3392 24.9424C20.9064 24.3752 21.4736 23.808 22.0408 23.2408C23.2221 22.0596 24.3986 20.883 25.5799 19.7018C26.7236 18.558 27.8674 17.4143 29.0111 16.2705C29.5502 15.7315 30.0892 15.2018 30.6236 14.658C31.2189 14.0533 31.5471 13.2658 31.5611 12.4127C31.5705 11.9205 31.1252 11.4518 30.6236 11.4752C30.108 11.4986 29.6955 11.8877 29.6861 12.4127Z" fill="white"/>
<path d="M37.8897 21.1696C37.674 21.3852 37.4631 21.5961 37.2475 21.8118C37.6881 21.8118 38.1334 21.8118 38.574 21.8118C37.8006 21.0383 37.0225 20.2602 36.249 19.4868C36.249 19.9274 36.249 20.3727 36.249 20.8133C36.4318 20.6305 36.6193 20.443 36.8022 20.2602C36.8303 20.2321 36.8584 20.2039 36.8865 20.1758C36.9053 20.1571 36.924 20.143 36.9428 20.1243C37.0881 19.9789 36.8068 20.1993 36.9662 20.1055C36.9756 20.1008 37.1397 20.0118 37.1397 20.0071C37.1068 20.0211 37.0693 20.0352 37.0365 20.0493C37.0787 20.0352 37.1162 20.0164 37.1584 20.0071C37.21 19.993 37.2662 19.9836 37.3178 19.9696C37.3881 19.9555 37.36 19.9602 37.2287 19.9789C37.2615 19.9743 37.2943 19.9743 37.3272 19.9743C37.3834 19.9743 37.435 19.9743 37.4865 19.9743C37.6928 19.9743 37.2943 19.9227 37.4912 19.9743C37.5568 19.993 37.6178 20.0071 37.6787 20.0258C37.8428 20.0774 37.5756 19.9602 37.6647 20.0211C37.7162 20.0586 37.7818 20.0914 37.8381 20.1243C37.9272 20.1711 37.7209 20.0024 37.8334 20.1243C37.885 20.1805 37.9412 20.2321 37.9881 20.2883C37.8568 20.1289 37.9975 20.3258 38.0162 20.3539C38.1147 20.5086 37.9928 20.2133 38.0443 20.4055C38.0584 20.4664 38.0725 20.5274 38.0912 20.5883C38.1053 20.6586 38.1053 20.6352 38.0865 20.5227C38.0912 20.5602 38.0912 20.5977 38.0912 20.6352C38.0912 20.6821 38.11 20.7758 38.0865 20.8227C38.1053 20.7102 38.1053 20.6868 38.0912 20.7571C38.0865 20.7946 38.0772 20.8321 38.0678 20.8649C38.049 20.9305 37.9553 21.0852 38.0584 20.9211C38.0209 20.9868 37.9834 21.0571 37.9459 21.118C38.0256 20.9821 37.9459 21.1133 37.8897 21.1696C37.5522 21.5258 37.51 22.1493 37.8897 22.4961C38.2553 22.8336 38.8553 22.8758 39.2162 22.4961C39.8818 21.7977 40.1631 20.7618 39.8303 19.8336C39.5256 18.9899 38.799 18.2961 37.8943 18.1414C37.0318 17.9961 36.1975 18.2399 35.5647 18.8493C35.349 19.0602 35.1381 19.2758 34.9272 19.4868C34.5709 19.843 34.5662 20.4524 34.9272 20.8133C35.7006 21.5868 36.4787 22.3649 37.2522 23.1383C37.6084 23.4946 38.2178 23.4993 38.5787 23.1383C38.7943 22.9227 39.0053 22.7118 39.2209 22.4961C39.5678 22.1493 39.5959 21.5118 39.2209 21.1696C38.8412 20.8227 38.26 20.7993 37.8897 21.1696Z" fill="white"/>
<path d="M24.9047 30.8298C25.6782 31.6032 26.4563 32.3814 27.2297 33.1548C27.2297 32.7142 27.2297 32.2689 27.2297 31.8282C26.6297 32.4282 26.025 33.0329 25.425 33.6329C23.9953 35.0626 22.5703 36.4876 21.1407 37.9173C19.4532 39.6048 17.7657 41.2923 16.0782 42.9798C14.7 44.3579 13.3219 45.736 11.9485 47.1095C11.55 47.5079 11.1469 47.911 10.7485 48.3095C10.6547 48.4032 10.5563 48.5017 10.4625 48.5954C10.4438 48.6142 10.425 48.6329 10.4063 48.6517C10.3875 48.6704 10.3313 48.7454 10.3032 48.7454C10.3313 48.722 10.3594 48.7032 10.3875 48.6798C10.3594 48.6985 10.336 48.7173 10.3078 48.736C10.261 48.7642 10.2141 48.7876 10.1672 48.8157C10.0032 48.9095 10.2141 48.7923 10.2141 48.797C10.2094 48.8204 10.0594 48.8392 10.0313 48.8485C9.82972 48.9142 10.2422 48.8485 10.0313 48.8532C9.98909 48.8532 9.94691 48.8579 9.90472 48.8579C9.91409 48.8579 9.77816 48.8532 9.77816 48.8532C9.77816 48.8485 10.0032 48.8954 9.80628 48.8532C9.75472 48.8439 9.70316 48.8251 9.65159 48.811C9.47347 48.7689 9.69847 48.8345 9.69378 48.8345C9.66097 48.8392 9.58128 48.7782 9.54847 48.7595C9.52034 48.7454 9.49222 48.7267 9.46409 48.7079C9.37972 48.6517 9.39378 48.6564 9.49691 48.736C9.43128 48.7267 9.33284 48.5767 9.29066 48.5251C9.42659 48.6939 9.28128 48.4876 9.26253 48.4595C9.23441 48.4173 9.20628 48.3001 9.26253 48.4782C9.24847 48.4314 9.22972 48.3845 9.21566 48.3376C9.21097 48.3282 9.16878 48.0892 9.18753 48.2439C9.20628 48.3939 9.18753 48.1595 9.18753 48.1454C9.18753 48.1079 9.18753 48.0704 9.19222 48.0329C9.19691 47.9626 9.19222 47.9814 9.18284 48.0985C9.14066 48.0564 9.35628 47.6673 9.22972 47.897C9.26253 47.836 9.41253 47.6204 9.29066 47.7657C9.32816 47.7235 9.36566 47.6814 9.40316 47.6439C9.42191 47.6251 9.44534 47.6017 9.46409 47.5829C9.73128 47.3157 9.99847 47.0485 10.2703 46.7767C11.4938 45.5532 12.7172 44.3298 13.9407 43.1064C15.6047 41.4423 17.2735 39.7735 18.9375 38.1095C20.475 36.572 22.0125 35.0345 23.55 33.497C24.4032 32.6439 25.2563 31.7907 26.1094 30.9376C26.1516 30.8954 26.1891 30.8579 26.2313 30.8157C26.5782 30.4689 26.6063 29.8314 26.2313 29.4892C25.8563 29.147 25.275 29.1189 24.9047 29.4892C24.286 30.1079 23.6625 30.7314 23.0438 31.3501C21.586 32.8079 20.1282 34.2657 18.6703 35.7235C16.9594 37.4345 15.2438 39.1501 13.5328 40.861C12.1688 42.2251 10.8 43.5939 9.43597 44.9579C9.06566 45.3282 8.69534 45.6985 8.32503 46.0689C8.25003 46.1439 8.17503 46.2189 8.10003 46.2939C7.48597 46.9173 7.23284 47.747 7.36878 48.6048C7.56566 49.8142 8.69066 50.7095 9.90003 50.7142C10.5985 50.7142 11.2594 50.4235 11.7516 49.936C11.986 49.7064 12.2157 49.472 12.4453 49.2423C13.6407 48.047 14.836 46.8517 16.0313 45.6564C17.7141 43.9735 19.4016 42.286 21.0844 40.6032C22.6594 39.0282 24.2391 37.4485 25.8141 35.8735C26.686 35.0017 27.5625 34.1251 28.4344 33.2532C28.4766 33.211 28.5141 33.1735 28.5563 33.1314C28.9125 32.7751 28.9172 32.1657 28.5563 31.8048C27.7828 31.0314 27.0047 30.2532 26.2313 29.4798C25.8844 29.1329 25.2469 29.1048 24.9047 29.4798C24.5625 29.8782 24.5344 30.4595 24.9047 30.8298Z" fill="white"/>
<path d="M22.903 49.7813C22.903 49.6641 22.9077 49.5422 22.917 49.425C22.917 49.3969 22.917 49.2797 22.9311 49.2656C22.9264 49.3078 22.9217 49.3453 22.9123 49.3875C22.917 49.3453 22.9264 49.3031 22.9311 49.2609C22.9733 49.0359 23.0295 48.8109 23.1045 48.5953C23.1233 48.5484 23.1467 48.4969 23.1561 48.45C23.1889 48.3187 23.0577 48.6609 23.1467 48.4734C23.1889 48.3797 23.2358 48.2859 23.2827 48.1969C23.3295 48.1078 23.3811 48.0187 23.4373 47.9344C23.4702 47.8828 23.5827 47.6438 23.6436 47.6344C23.6202 47.6672 23.5967 47.6953 23.5733 47.7281C23.5967 47.6953 23.6248 47.6672 23.653 47.6344C23.6858 47.5969 23.7186 47.5594 23.7514 47.5219C23.8264 47.4375 23.9061 47.3578 23.9858 47.2828C24.0608 47.2125 24.1358 47.1469 24.2155 47.0813C24.3702 46.9453 24.0842 47.1656 24.192 47.0953C24.253 47.0578 24.3092 47.0109 24.3655 46.9734C24.5342 46.8609 24.7123 46.7578 24.8952 46.6687C24.928 46.6547 25.0264 46.5891 25.0639 46.5938C25.003 46.5844 24.8952 46.6594 25.0123 46.6172C25.1295 46.575 25.2467 46.5328 25.3686 46.5C25.4905 46.4672 25.6123 46.4344 25.7342 46.4109C25.7764 46.4016 25.8186 46.3969 25.8608 46.3875C26.0811 46.35 25.6405 46.4062 25.8655 46.3875C26.0155 46.3734 26.1702 46.3641 26.3202 46.3641C26.3483 46.3641 26.3764 46.3641 26.4045 46.3641C26.578 46.3641 26.7514 46.3641 26.9248 46.3641C28.7623 46.3641 30.6045 46.3641 32.442 46.3641C35.0717 46.3641 37.7061 46.3641 40.3358 46.3641C42.342 46.3641 44.3483 46.3641 46.3545 46.3641C46.6873 46.3641 47.0248 46.3641 47.3577 46.3641C47.5123 46.3641 47.6623 46.3781 47.8123 46.3875C48.0373 46.4062 47.5967 46.3453 47.817 46.3875C47.8592 46.3969 47.9014 46.4016 47.9436 46.4109C48.0655 46.4344 48.192 46.4625 48.3092 46.5C48.4217 46.5328 48.5248 46.5703 48.6327 46.6078C48.7686 46.6547 48.717 46.5797 48.6092 46.5938C48.6467 46.5891 48.7452 46.6547 48.778 46.6687C48.9795 46.7672 49.1764 46.8797 49.3592 47.0062C49.392 47.0297 49.4248 47.0531 49.4577 47.0766C49.6358 47.1984 49.2983 46.9406 49.4623 47.0813C49.5373 47.1469 49.617 47.2125 49.692 47.2828C49.767 47.3531 49.8373 47.4234 49.9077 47.4984C49.9498 47.5453 49.9873 47.5875 50.0295 47.6344C50.0577 47.6672 50.0811 47.6953 50.1092 47.7281C50.0858 47.6953 50.0623 47.6672 50.0389 47.6344C50.0905 47.6438 50.203 47.8641 50.2311 47.9109C50.292 48.0047 50.3483 48.1031 50.3998 48.2016C50.4467 48.2906 50.4936 48.3844 50.5358 48.4781C50.6108 48.6422 50.5123 48.4266 50.5123 48.4266C50.5358 48.4312 50.5873 48.6328 50.5967 48.6609C50.6623 48.8578 50.7139 49.0641 50.7514 49.2703C50.7655 49.3453 50.7514 49.5188 50.7561 49.275C50.7561 49.3172 50.7655 49.3641 50.7702 49.4016C50.7795 49.5328 50.7842 49.6594 50.7889 49.7906C51.103 49.4766 51.4123 49.1672 51.7264 48.8531C50.742 48.8531 49.753 48.8531 48.7686 48.8531C46.4014 48.8531 44.0295 48.8531 41.6623 48.8531C38.7936 48.8531 35.9295 48.8531 33.0608 48.8531C30.5811 48.8531 28.1014 48.8531 25.6264 48.8531C24.4217 48.8531 23.2123 48.8297 22.0123 48.8531C21.9936 48.8531 21.9795 48.8531 21.9608 48.8531C21.4686 48.8531 20.9998 49.2844 21.0233 49.7906C21.0467 50.2969 21.4358 50.7281 21.9608 50.7281C22.9452 50.7281 23.9342 50.7281 24.9186 50.7281C27.2858 50.7281 29.6577 50.7281 32.0248 50.7281C34.8936 50.7281 37.7577 50.7281 40.6264 50.7281C43.1061 50.7281 45.5858 50.7281 48.0608 50.7281C49.2655 50.7281 50.4748 50.7516 51.6748 50.7281C51.6936 50.7281 51.7077 50.7281 51.7264 50.7281C52.2327 50.7281 52.6686 50.2969 52.6639 49.7906C52.6498 47.5781 51.2717 45.6375 49.2233 44.8313C48.4686 44.5359 47.6764 44.4891 46.8748 44.4891C45.0327 44.4891 43.1858 44.4891 41.3436 44.4891C38.6483 44.4891 35.9483 44.4891 33.253 44.4891C31.2327 44.4891 29.2077 44.4891 27.1873 44.4891C26.7702 44.4891 26.3436 44.4703 25.9264 44.5078C23.7655 44.7 21.9092 46.1438 21.253 48.225C21.0936 48.7266 21.0186 49.2656 21.0186 49.7953C21.0139 50.2875 21.4545 50.7563 21.9561 50.7328C22.4764 50.6953 22.8983 50.3063 22.903 49.7813Z" fill="white"/>
</svg>
