<svg width="149" height="116" viewBox="0 0 149 116" fill="none" xmlns="http://www.w3.org/2000/svg">
<path d="M133.336 71.708C141.987 71.2798 148.653 63.9148 148.225 55.2576C147.798 46.6005 140.438 39.9295 131.786 40.3576C123.135 40.7858 116.469 48.1508 116.897 56.808C117.325 65.4651 124.685 72.1361 133.336 71.708Z" fill="#F9C032"/>
<path d="M143.312 50.5938C146.338 56.5379 143.928 63.8221 137.993 66.8473C132.053 69.8755 124.774 67.4633 121.751 61.525L122.704 61.0386C125.462 66.4555 132.1 68.6498 137.507 65.8932C142.92 63.1337 145.113 56.4914 142.359 51.0802L143.312 50.5938Z" fill="#080717"/>
<path d="M109.006 49.3359H30.001V77.8315H109.006V49.3359Z" fill="#F9C032"/>
<path d="M96.7487 58.0703V59.1416H59.0127V58.0703H96.7487Z" fill="#080717"/>
<path d="M96.7487 63.0508V64.122H59.0127V63.0508H96.7487Z" fill="#080717"/>
<path d="M96.7487 68.0312V69.1025H59.0127V68.0312H96.7487Z" fill="#080717"/>
<path d="M50.6104 68.3464C53.2442 65.7108 53.2442 61.4376 50.6104 58.802C47.9766 56.1664 43.7064 56.1664 41.0726 58.802C38.4388 61.4376 38.4388 65.7108 41.0726 68.3464C43.7064 70.982 47.9766 70.982 50.6104 68.3464Z" fill="#080717"/>
<path d="M126.697 26.5378L123.205 55.8978L43.6902 46.4264L47.1826 17.0664L126.697 26.5378ZM44.8798 45.4892L122.268 54.7074L125.508 27.4749L48.1191 18.2568L44.8798 45.4892Z" fill="#080717"/>
<path d="M112.869 34.2347L112.743 35.2986L75.2744 30.853L75.4009 29.7891L112.869 34.2347Z" fill="#080717"/>
<path d="M112.282 39.2183L112.155 40.2817L74.6865 35.7827L74.8141 34.7188L112.282 39.2183Z" fill="#080717"/>
<path d="M111.693 44.1449L111.567 45.2088L74.0986 40.7632L74.2251 39.6992L111.693 44.1449Z" fill="#080717"/>
<path d="M54.4129 32.8866C54.875 28.8974 58.5123 26.0079 62.4998 26.4705L62.4993 26.4711C66.5432 26.9338 69.3733 30.5765 68.9115 34.5631C68.4493 38.5521 64.8119 41.4416 60.8245 40.9791C56.8382 40.5166 53.9507 36.8768 54.4129 32.8866ZM62.3764 27.5345C58.9774 27.1402 55.8704 29.6071 55.4761 33.0095C55.082 36.4109 57.5473 39.52 60.9473 39.9147C64.3464 40.309 67.4535 37.8422 67.8477 34.4396C68.2422 31.0347 65.8269 27.929 62.3775 27.5345H62.3764Z" fill="#080717"/>
<path d="M103.929 74.94L25.8408 86.957L30.1692 115.122L108.257 103.105L103.929 74.94Z" fill="#93C0D2"/>
<path d="M93.2971 86.4493L55.9892 92.1807L55.8271 91.122L93.1345 85.3906L93.2971 86.4493Z" fill="#080717"/>
<path d="M94.047 91.379L56.793 97.1104L56.6299 96.0517L93.8844 90.3203L94.047 91.379Z" fill="#080717"/>
<path d="M94.8498 96.3048L57.5419 102.036L57.3799 100.977L94.6872 95.2461L94.8498 96.3048Z" fill="#080717"/>
<path d="M47.3385 93.6068C44.5732 91.5775 40.6875 92.1759 38.6595 94.943C36.6317 97.7101 37.2293 101.598 39.9944 103.628C42.7596 105.657 46.6455 105.059 48.6735 102.292C50.7015 99.525 50.1038 95.6362 47.3385 93.6068ZM47.9716 92.7429C51.2137 95.1222 51.9145 99.6815 49.5368 102.926C47.1591 106.17 42.6033 106.871 39.3613 104.492C36.1194 102.112 35.4188 97.5537 37.7962 94.3095C40.1738 91.0653 44.7296 90.3638 47.9716 92.7429Z" fill="#080717"/>
<path d="M111.148 65.4062C115.142 65.4062 118.916 66.9609 121.747 69.7912L122.014 70.0595C124.73 72.8614 126.19 76.5326 126.136 80.4112C126.134 84.4047 124.58 88.1783 121.753 91.0088L121.754 91.0093C118.922 93.8987 115.144 95.4549 111.148 95.4549C102.877 95.4549 96.1611 88.734 96.1611 80.4573C96.1612 76.4595 97.7161 72.6808 100.547 69.8482C103.378 66.9613 107.155 65.4062 111.148 65.4062ZM97.2317 80.4573C97.2317 88.1424 103.469 94.3837 111.148 94.3837C114.861 94.3837 118.362 92.9404 120.99 90.2592L120.993 90.2556L121.236 90.0066C123.711 87.4057 125.065 84.003 125.065 80.4039V80.3966L125.066 80.0493C125.026 76.4692 123.593 73.1036 120.997 70.5559L120.993 70.5523C118.364 67.9215 114.861 66.4775 111.148 66.4775C107.436 66.4775 103.935 67.9208 101.307 70.602L101.304 70.6056C98.6747 73.2364 97.2317 76.7421 97.2317 80.4573Z" fill="#282D33"/>
<path d="M128.347 92.8243L137.658 102.141L132.927 106.876L123.616 97.5586L128.347 92.8243ZM132.927 105.361L136.144 102.141L128.347 94.3393L125.13 97.5586L132.927 105.361Z" fill="#282D33"/>
<path d="M128.007 92.4487L127.26 93.2165L125.658 91.6567L122.444 94.8731L124.003 96.4763L123.235 97.2233L120.94 94.8632L125.648 90.1523L128.007 92.4487Z" fill="#282D33"/>
<path d="M123.682 91.8678L122.915 92.6158L120.774 90.4199L121.541 89.6719L123.682 91.8678Z" fill="#282D33"/>
<path d="M130.043 7.66426H122.657C123.031 6.80725 123.459 5.78955 123.567 5.25392C123.674 4.71828 123.567 3.43277 123.567 3.43277C123.567 2.46863 122.764 1.71875 121.854 1.71875H120.997V4.39691C120.997 4.39691 117.946 7.93207 117.946 9.37827V17.8412C117.946 18.8054 118.696 19.5553 119.659 19.5553H125.761C126.725 19.5553 127.795 18.7518 128.116 17.8412L131.221 9.37827C131.488 8.41414 131.007 7.66426 130.043 7.66426Z" fill="#93C0D2"/>
<path d="M118.963 9.00391H116.661V18.4846H118.963V9.00391Z" fill="#93C0D2"/>
<path d="M113.984 7.66406H109.862V19.6086H113.984V7.66406Z" fill="#93C0D2"/>
<path d="M9.6083 0.113281H28.396C33.588 0.113281 37.7631 4.2912 37.7631 9.48683C37.7631 14.4682 33.8557 18.539 28.9313 18.8604V26.627L21.2235 18.9139H9.6083C4.41626 18.9139 0.241211 14.6824 0.241211 9.48683C0.241211 4.2912 4.41626 0.113281 9.6083 0.113281Z" fill="#080717"/>
<path d="M29.3066 6.16406V7.23532H7.5752V6.16406H29.3066Z" fill="white"/>
<path d="M29.3066 11.1484V12.2197H7.5752V11.1484H29.3066Z" fill="white"/>
<path d="M38.727 44.4629C38.7269 36.89 32.5917 30.7509 25.024 30.7509C17.4564 30.7511 11.3216 36.89 11.3215 44.4629C11.3215 52.0358 17.4563 58.1753 25.024 58.1754C32.5918 58.1754 38.727 52.0359 38.727 44.4629ZM39.7976 44.4629C39.7976 52.6276 33.183 59.2466 25.024 59.2466C16.8651 59.2465 10.251 52.6275 10.251 44.4629C10.2511 36.2984 16.8651 29.6798 25.024 29.6797C33.183 29.6797 39.7974 36.2983 39.7976 44.4629Z" fill="#080717"/>
<path d="M33.2141 51.0532C33.2141 51.0532 33.2141 50.5176 33.2141 50.1962C33.2141 47.4109 30.966 45.2148 28.2361 45.2148C27.3262 45.2148 24.1682 45.2148 23.2582 45.2148C20.4748 45.2148 18.2803 47.4645 18.2803 50.1962C18.2803 50.464 18.2803 51.0532 18.2803 51.0532H33.2141Z" fill="#080717"/>
<path d="M29.0386 39.4278C29.0386 41.2489 27.5399 42.7487 25.72 42.7487C23.9001 42.7487 22.4014 41.2489 22.4014 39.4278C22.4014 37.6066 23.9001 36.1069 25.72 36.1069C27.5934 36.0533 29.0386 37.5531 29.0386 39.4278Z" fill="#080717"/>
<path d="M127.901 55.5514C128.817 55.5514 129.56 54.808 129.56 53.8909C129.56 52.9739 128.817 52.2305 127.901 52.2305C126.984 52.2305 126.241 52.9739 126.241 53.8909C126.241 54.808 126.984 55.5514 127.901 55.5514Z" fill="#080717"/>
<path d="M133.254 52.5514C134.17 52.5514 134.913 51.808 134.913 50.8909C134.913 49.9739 134.17 49.2305 133.254 49.2305C132.338 49.2305 131.595 49.9739 131.595 50.8909C131.595 51.808 132.338 52.5514 133.254 52.5514Z" fill="#080717"/>
</svg>
