<svg width="130" height="130" viewBox="0 0 130 130" fill="none" xmlns="http://www.w3.org/2000/svg">
<rect width="130" height="130" rx="65" fill="#F8F8F8"/>
<rect x="40" y="28" width="50" height="75" fill="#D9D9D9"/>
<rect x="40" y="28" width="50" height="75" fill="url(#paint0_linear_925_710)"/>
<path d="M82.8438 109C85.5374 109 88.1206 107.93 90.0253 106.025C91.93 104.121 93 101.537 93 98.8438L93 31.6562C93 28.9626 91.93 26.3794 90.0253 24.4747C88.1206 22.57 85.5373 21.5 82.8437 21.5L46.9062 21.5C44.2126 21.5 41.6294 22.57 39.7247 24.4747C37.82 26.3794 36.75 28.9627 36.75 31.6563L36.75 98.8438C36.75 101.537 37.82 104.121 39.7247 106.025C41.6294 107.93 44.2126 109 46.9062 109L82.8438 109ZM86.75 98.8438C86.75 101 85 102.75 82.8437 102.75L46.9062 102.75C44.75 102.75 43 101 43 98.8438L43 31.6563C43 29.5 44.75 27.75 46.9062 27.75L82.8437 27.75C85 27.75 86.75 29.5 86.75 31.6563L86.75 98.8438ZM71.125 40.25C71.9538 40.25 72.7487 39.9208 73.3347 39.3347C73.9208 38.7487 74.25 37.9538 74.25 37.125C74.25 36.2962 73.9208 35.5013 73.3347 34.9153C72.7487 34.3292 71.9538 34 71.125 34L58.625 34C57.7962 34 57.0013 34.3292 56.4153 34.9153C55.8292 35.5013 55.5 36.2962 55.5 37.125C55.5 37.9538 55.8292 38.7487 56.4153 39.3347C57.0013 39.9208 57.7962 40.25 58.625 40.25L71.125 40.25Z" fill="#FFE3AE"/>
<defs>
<linearGradient id="paint0_linear_925_710" x1="55.6991" y1="36.88" x2="72.3751" y2="105.874" gradientUnits="userSpaceOnUse">
<stop stop-color="#F9C032"/>
<stop offset="1" stop-color="#FD8337"/>
</linearGradient>
</defs>
</svg>
