<svg width="56" height="56" viewBox="0 0 56 56" fill="none" xmlns="http://www.w3.org/2000/svg">
<path d="M26.3991 48.4277C26.3328 48.5077 26.2622 48.5854 26.1872 48.6603L25.2444 49.6031C23.9427 50.9049 21.8321 50.9049 20.5304 49.6031C19.888 48.9607 19.5626 48.1214 19.5542 47.2794C18.7123 47.2711 17.8729 46.9457 17.2305 46.3033C16.5535 45.6262 16.2286 44.7304 16.2558 43.8433C15.4583 43.8042 14.6722 43.4801 14.0631 42.871C13.4207 42.2286 13.0953 41.3893 13.087 40.5473C12.245 40.539 11.4057 40.2136 10.7633 39.5712C9.46154 38.2695 9.46154 36.1589 10.7633 34.8572L11.436 34.1845L1.29192 24.0404C0.901392 23.6499 0.901392 23.0168 1.29192 22.6262C1.68244 22.2357 2.31561 22.2357 2.70613 22.6262L12.8502 32.7703L13.5917 32.0287C14.8935 30.727 17.004 30.727 18.3058 32.0287C18.7464 32.4693 19.0378 33.0026 19.1802 33.5658C20.3293 33.2011 21.6371 33.4744 22.5484 34.3858C23.5006 35.338 23.7563 36.7229 23.3154 37.9075C23.8492 38.0566 24.3532 38.341 24.773 38.7608C25.9839 39.9717 26.0684 41.8825 25.0265 43.1911C25.4495 43.3535 25.8461 43.6052 26.1872 43.9463C26.8472 44.6063 27.1726 45.4742 27.1633 46.3392L29.1109 48.3583C29.1243 48.372 29.1243 48.372 29.138 48.3855C29.6468 48.8825 30.4623 48.8729 30.9593 48.3641C30.9688 48.3543 30.9688 48.3543 30.9781 48.3444C31.4759 47.8133 31.4489 46.9791 30.9178 46.4812L29.3085 44.9729C29.217 44.8871 29.1353 44.7947 29.0635 44.6971L29.0789 44.6858L28.747 44.362C28.5595 44.0786 28.4657 43.8468 28.4657 43.6667C28.4657 43.1144 28.9134 42.6667 29.4657 42.6667C29.7243 42.6667 30.0295 42.8418 30.3813 43.192L31.7922 44.5597L32.2855 45.022C32.3689 45.1002 32.4473 45.1816 32.5208 45.2659L35.2518 47.9133C35.779 48.4224 36.6191 48.4078 37.1282 47.8806C37.5951 47.3971 37.6236 46.6518 37.2223 46.1364L33.983 43.0186L33.9983 43.0045L32.8338 41.88C32.7451 41.7944 32.6661 41.7025 32.5967 41.6058C32.4742 41.4351 32.399 41.2263 32.399 41C32.399 40.4477 32.8467 40 33.399 40C33.7506 40 34.0598 40.1814 34.2381 40.4558L38.4846 44.5566C38.5569 44.6264 38.6254 44.6988 38.6901 44.7733L39.7358 45.7799C40.2657 46.2904 41.1091 46.2752 41.6677 45.6983L41.6908 45.6774C41.7017 45.6661 41.7017 45.6661 41.7123 45.6546C42.2112 45.1129 42.1765 44.2694 41.6349 43.7706L37.5413 40.0004C37.4986 39.9612 37.4581 39.9205 37.4196 39.8785L37.4319 39.8672L37.4283 39.8639C37.0146 39.498 36.9759 38.866 37.3418 38.4524C37.7077 38.0387 38.3397 38 38.7534 38.3659C40.0329 39.4977 41.0117 40.4081 41.6938 41.1015C42.1624 41.5781 43.4054 41.406 43.7947 40.8736C44.3207 40.1542 44.3679 39.3473 43.8305 38.6889C43.2547 37.9835 38.6368 33.4287 30.1789 25.2312L24.8446 28.0663L24.6323 28.1497C22.1498 28.8099 20.3024 28.2046 19.4714 26.2727C18.6822 24.4381 19.129 22.754 20.7759 21.448L24.4079 18.917C22.3576 18.8682 20.3418 19.0722 18.3587 19.5286L17.8317 19.6499L12.2307 14.269C11.8324 13.8864 11.8197 13.2533 12.2024 12.8551C12.585 12.4568 13.218 12.4441 13.6163 12.8267L18.442 17.4629C22.1981 16.6795 26.0597 16.7289 30.0174 17.6085C30.0943 17.6255 30.1672 17.6511 30.2352 17.6838C31.5578 17.9727 32.9105 18.5191 34.2907 19.3181L42.3262 11.2925C42.717 10.9022 43.3501 10.9026 43.7404 11.2933C44.1307 11.6841 44.1303 12.3173 43.7395 12.7075L34.5823 21.8536L33.9061 21.424C31.428 19.8497 29.1525 19.225 27.0577 19.508L21.9698 23.0513C21.0719 23.7647 20.8803 24.4868 21.3086 25.4825C21.6863 26.3606 22.4681 26.6337 24.0101 26.2449L30.5254 22.7821L31.048 23.2885C35.328 27.4351 38.6373 30.6594 40.9993 32.9854L52.5967 21.2957C52.9857 20.9036 53.6189 20.9011 54.0109 21.2901C54.403 21.6791 54.4055 22.3122 54.0165 22.7043L42.4218 34.3913C44.1207 36.0776 45.1015 37.0833 45.3798 37.4242C46.5418 38.8478 46.4365 40.649 45.4091 42.0541C45.0065 42.6047 44.3837 43.0019 43.6891 43.2117C44.3191 44.4222 44.1613 45.9478 43.1835 47.0095C43.1658 47.0287 43.1478 47.0478 43.1297 47.0666L43.059 47.135C42.0755 48.1537 40.5998 48.4108 39.3682 47.8931C39.2216 48.3943 38.9548 48.8682 38.5669 49.2699C37.2905 50.5916 35.1843 50.6284 33.858 49.3476L33.1176 48.6254C32.9684 49.0173 32.7418 49.3873 32.4373 49.7122C32.4217 49.7288 32.4059 49.7453 32.39 49.7616C31.1211 51.0606 29.0395 51.0851 27.7404 49.8162C27.7171 49.7934 27.6941 49.7703 27.6715 49.7468L26.3991 48.4277ZM18.7772 42.871L20.1252 41.523L18.6447 43.0035C18.124 43.5242 18.124 44.3684 18.6447 44.8891C19.1654 45.4098 20.0097 45.4098 20.5304 44.8891L23.3588 42.0606C23.8795 41.54 23.8795 40.6957 23.3588 40.175C22.8381 39.6543 21.9939 39.6543 21.4732 40.175L18.7772 42.871ZM16.8915 33.4429C16.3708 32.9222 15.5266 32.9222 15.0059 33.4429L12.1775 36.2714C11.6568 36.7921 11.6568 37.6363 12.1775 38.157C12.6982 38.6777 13.5424 38.6777 14.0631 38.157L16.8915 35.3286C17.4122 34.8079 17.4122 33.9636 16.8915 33.4429ZM20.9834 35.9948C20.4627 35.4741 19.5931 35.4994 19.0412 36.0514L15.7225 39.3261C15.1705 39.878 15.1452 40.7476 15.6659 41.2683C16.1866 41.789 17.0561 41.7636 17.6081 41.2117L20.9268 37.937C21.4787 37.3851 21.5041 36.5155 20.9834 35.9948ZM22.8874 45.3605L21.9446 46.3033C21.4239 46.824 21.4239 47.6682 21.9446 48.1889C22.4653 48.7096 23.3095 48.7096 23.8302 48.1889L24.773 47.2461C25.2937 46.7254 25.2937 45.8812 24.773 45.3605C24.2523 44.8398 23.4081 44.8398 22.8874 45.3605Z" fill="white"/>
</svg>
