<svg width="121" height="120" viewBox="0 0 121 120" fill="none" xmlns="http://www.w3.org/2000/svg">
<path d="M96 32C96 36.831 91.5152 41 86.0338 41H37.9662C32.4848 41 28 36.831 28 32C28 27.169 32.4848 23 37.9662 23H86.0338C91.5152 23 96 27.169 96 32Z" fill="#F1F1F1"/>
<path d="M86 50.5C86 55.0626 81.5152 59 76.0338 59H27.9662C22.4848 59 18 55.0626 18 50.5C18 45.9374 22.4848 42 27.9662 42H76.0338C81.5152 42 86 45.9374 86 50.5Z" fill="#F1F1F1"/>
<path d="M96 68.5C96 73.0626 91.5152 77 86.0338 77H37.9662C32.4848 77 28 73.0626 28 68.5C28 63.9374 32.4848 60 37.9662 60H86.0338C91.5152 60 96 63.9374 96 68.5Z" fill="#F1F1F1"/>
<path d="M86 86.5C86 91.0626 81.5152 95 76.0338 95H27.9662C22.4848 95 18 91.0626 18 86.5C18 81.9374 22.4848 78 27.9662 78H76.0338C81.5152 78 86 81.9374 86 86.5Z" fill="#F1F1F1"/>
<path d="M88 97C103.464 97 116 84.464 116 69C116 53.536 103.464 41 88 41C72.536 41 60 53.536 60 69C60 84.464 72.536 97 88 97Z" fill="url(#paint0_linear_719_1487)" stroke="white" stroke-width="4"/>
<path d="M102.455 62.7628H99.8227L100.236 61.4534C100.52 60.552 100.021 59.5899 99.1198 59.306C98.2183 59.0193 97.259 59.5182 96.9723 60.4197L96.2308 62.7656H90.4474L89.7803 60.2873C89.5791 59.5403 88.9009 59 88.1291 59H87.8727C87.1256 59 86.4641 59.51 86.2408 60.2239L85.4469 62.7628H79.6772L79.0487 60.45C78.8006 59.5375 77.8606 59.0055 76.9482 59.2536C76.0357 59.5017 75.4982 60.4555 75.7463 61.3679L76.1239 62.76H73.7119C72.7663 62.76 72 63.5264 72 64.4719C72 65.4174 72.7663 66.1838 73.7119 66.1838H77.0557L80.6035 79.2364C80.8019 79.9697 81.4635 80.2123 82.2216 80.5541H82.2547C83.0017 80.5541 83.6633 80.0248 83.8866 79.3109L87.892 66.4594L91.3323 79.2309C91.5307 79.9642 92.1896 80.2095 92.9477 80.5541H92.9835C93.7278 80.5541 94.3894 80.0138 94.6154 79.2998L98.7476 66.181H102.458C103.404 66.181 104.17 65.4147 104.17 64.4692C104.17 63.5236 103.404 62.7573 102.458 62.7573L102.455 62.7628ZM82.3649 72.6371L80.609 66.1838H84.38L82.3649 72.6371ZM93.1103 72.6343L91.3709 66.1838H95.1502L93.1103 72.6343Z" fill="white"/>
<defs>
<linearGradient id="paint0_linear_719_1487" x1="76.7927" y1="52.7043" x2="95.3539" y2="86.2686" gradientUnits="userSpaceOnUse">
<stop stop-color="#FFE39E"/>
<stop offset="1" stop-color="#F9C032"/>
</linearGradient>
</defs>
</svg>
