<svg width="65" height="64" viewBox="0 0 65 64" fill="none" xmlns="http://www.w3.org/2000/svg">
<path d="M44 23.8984C47.866 23.8984 51 20.7644 51 16.8984C51 13.0324 47.866 9.89844 44 9.89844C40.134 9.89844 37 13.0324 37 16.8984C37 20.7644 40.134 23.8984 44 23.8984Z" fill="#F1F1F1"/>
<path d="M26.9004 53.0977C27.1004 50.7977 27.3004 48.4977 27.7004 46.1977C28.1004 43.8977 28.5004 41.5977 29.1004 39.2977C29.7004 36.9977 30.5004 34.6977 31.7004 32.2977C32.3004 31.0977 33.1004 29.7977 34.3004 28.5977C34.6004 28.2977 34.9004 27.9977 35.4004 27.6977L36.0004 27.2977C36.2004 27.1977 36.5004 26.9977 36.7004 26.8977C37.7004 26.3977 39.0004 26.0977 40.2004 26.0977C42.7004 26.0977 44.7004 28.0977 44.7004 30.5977C44.7004 33.0977 42.7004 35.0977 40.2004 35.0977C40.4004 35.1977 40.5004 35.0977 40.5004 35.0977H40.4004C40.3004 35.0977 40.2004 35.1977 40.1004 35.2977C39.7004 35.5977 39.1004 36.0977 38.5004 36.7977C37.3004 38.1977 36.2004 39.9977 35.2004 41.7977C34.2004 43.6977 33.3004 45.5977 32.4004 47.6977C31.5004 49.6977 30.7004 51.7977 29.9004 53.8977C29.6004 54.7977 28.6004 55.1977 27.8004 54.8977C27.3004 54.4977 26.9004 53.7977 26.9004 53.0977Z" fill="#F1F1F1"/>
<path d="M52.5996 54.6984C51.8996 52.5984 51.1996 50.3984 50.4996 48.2984C49.6996 46.1984 48.8996 44.0984 47.9996 42.0984C47.0996 40.0984 46.0996 38.1984 44.9996 36.6984C44.4996 35.9984 43.8996 35.3984 43.4996 35.0984C43.2996 34.9984 43.1996 34.8984 43.1996 34.8984C43.1996 34.8984 43.3996 34.9984 43.5996 34.8984C41.0996 34.8984 39.0996 32.8984 39.0996 30.3984C39.0996 27.8984 41.0996 25.8984 43.5996 25.8984C44.8996 25.8984 46.2996 26.2984 47.2996 26.7984C48.3996 27.3984 49.0996 27.9984 49.6996 28.6984C50.8996 29.9984 51.5996 31.2984 52.1996 32.5984C53.2996 35.0984 53.8996 37.4984 54.3996 39.8984C54.8996 42.2984 55.1996 44.5984 55.4996 46.9984C55.6996 49.3984 55.8996 51.6984 55.8996 54.0984C55.8996 54.9984 55.1996 55.7984 54.2996 55.7984C53.4996 55.8984 52.8996 55.3984 52.5996 54.6984Z" fill="#F1F1F1"/>
<rect x="34" y="30" width="16" height="26" fill="#F1F1F1"/>
<rect x="16" y="29" width="18" height="27" fill="url(#paint0_linear_1323_8160)"/>
<path d="M9.09961 54.0008C9.29961 51.5008 9.49961 49.0008 9.89961 46.5008C10.2996 44.0008 10.6996 41.5008 11.3996 38.9008C12.0996 36.4008 12.8996 33.8008 14.1996 31.2008C14.8996 29.9008 15.6996 28.5008 17.0996 27.1008C17.4996 26.8008 17.7996 26.4008 18.2996 26.1008C18.4996 25.9008 18.6996 25.8008 18.9996 25.6008C19.1996 25.5008 19.4996 25.3008 19.7996 25.2008C20.8996 24.6008 22.2996 24.3008 23.6996 24.3008C26.3996 24.3008 28.5996 26.5008 28.5996 29.2008C28.5996 31.9008 26.2996 34.0008 23.5996 34.0008C23.7996 34.1008 23.9996 33.9008 23.8996 34.0008H23.7996C23.6996 34.0008 23.5996 34.1008 23.4996 34.2008C22.9996 34.5008 22.3996 35.1008 21.6996 35.9008C20.3996 37.4008 19.1996 39.4008 18.1996 41.5008C17.0996 43.6008 16.0996 45.7008 15.1996 48.0008C14.2996 50.2008 13.3996 52.5008 12.5996 54.8008C12.2996 55.7008 11.1996 56.2008 10.2996 55.9008C9.49961 55.6008 9.09961 54.8008 9.09961 54.0008Z" fill="url(#paint1_linear_1323_8160)"/>
<path d="M50.5995 31.6009C48.4995 31.5009 46.1995 31.5009 43.9995 31.5009C41.7995 31.6009 39.5995 31.7009 37.3995 32.0009C35.1995 32.2009 33.0995 32.5009 30.8995 33.0009C28.7995 33.4009 26.6995 33.9009 24.5995 34.1009L24.4995 34.0009C21.7995 34.2009 19.4995 32.3009 19.1995 29.6009C18.9995 27.1009 20.6995 24.9009 23.1995 24.4009C25.5995 24.0009 27.9995 23.9009 30.3995 24.0009C32.7995 24.1009 35.1995 24.3009 37.5995 24.7009C39.9995 25.0009 42.2995 25.5009 44.5995 26.0009C46.8995 26.6009 49.1995 27.2009 51.4995 28.1009C52.3995 28.5009 52.8995 29.5009 52.4995 30.4009C52.1995 31.2009 51.4995 31.6009 50.6995 31.6009H50.5995Z" fill="url(#paint2_linear_1323_8160)"/>
<path d="M24.9992 21.6C28.7548 21.6 31.7992 18.5555 31.7992 14.8C31.7992 11.0445 28.7548 8 24.9992 8C21.2437 8 18.1992 11.0445 18.1992 14.8C18.1992 18.5555 21.2437 21.6 24.9992 21.6Z" fill="url(#paint3_linear_1323_8160)"/>
<path d="M25.4 49.7C25.2 49.9 24.9 49.9 24.7 49.7L20.3 45.3C19.1 44.1 19.1 42.1 20.4 40.9C21.6 39.7 23.6 39.9 24.8 41.1L25.1 41.4L25.4 41.1C26.6 39.9 28.6 39.8 29.8 40.9C31.1 42.1 31.1 44.1 29.9 45.3L25.4 49.7Z" fill="#F1F1F1"/>
<defs>
<linearGradient id="paint0_linear_1323_8160" x1="12.6849" y1="31.6195" x2="32.6565" y2="58.9591" gradientUnits="userSpaceOnUse">
<stop stop-color="#75EEEB" stop-opacity="0.5"/>
<stop offset="0.08" stop-color="#61DCE4" stop-opacity="0.5"/>
<stop offset="0.2" stop-color="#47C6DC" stop-opacity="0.5"/>
<stop offset="0.32" stop-color="#38B8D7" stop-opacity="0.5"/>
<stop offset="0.41" stop-color="#33B4D6" stop-opacity="0.5"/>
<stop offset="0.45" stop-color="#3DA6D0" stop-opacity="0.5"/>
<stop offset="0.63" stop-color="#6476BD" stop-opacity="0.5"/>
<stop offset="0.79" stop-color="#8153B0" stop-opacity="0.5"/>
<stop offset="0.91" stop-color="#923EA8" stop-opacity="0.5"/>
<stop offset="1" stop-color="#9937A5" stop-opacity="0.5"/>
</linearGradient>
<linearGradient id="paint1_linear_1323_8160" x1="23" y1="24.5" x2="3.68152" y2="66.1941" gradientUnits="userSpaceOnUse">
<stop stop-color="#75EEEB"/>
<stop offset="0.08" stop-color="#61DCE4"/>
<stop offset="0.2" stop-color="#47C6DC"/>
<stop offset="0.32" stop-color="#38B8D7"/>
<stop offset="0.41" stop-color="#33B4D6"/>
<stop offset="0.45" stop-color="#3DA6D0"/>
<stop offset="0.63" stop-color="#6476BD"/>
<stop offset="0.79" stop-color="#8153B0"/>
<stop offset="0.91" stop-color="#923EA8"/>
<stop offset="1" stop-color="#9937A5"/>
</linearGradient>
<linearGradient id="paint2_linear_1323_8160" x1="13.0221" y1="24.9482" x2="15.9316" y2="42.9926" gradientUnits="userSpaceOnUse">
<stop stop-color="#75EEEB"/>
<stop offset="0.08" stop-color="#61DCE4"/>
<stop offset="0.2" stop-color="#47C6DC"/>
<stop offset="0.32" stop-color="#38B8D7"/>
<stop offset="0.41" stop-color="#33B4D6"/>
<stop offset="0.45" stop-color="#3DA6D0"/>
<stop offset="0.63" stop-color="#6476BD"/>
<stop offset="0.79" stop-color="#8153B0"/>
<stop offset="0.91" stop-color="#923EA8"/>
<stop offset="1" stop-color="#9937A5"/>
</linearGradient>
<linearGradient id="paint3_linear_1323_8160" x1="15.6945" y1="9.31947" x2="24.0081" y2="26.3904" gradientUnits="userSpaceOnUse">
<stop stop-color="#75EEEB" stop-opacity="0.5"/>
<stop offset="0.08" stop-color="#61DCE4" stop-opacity="0.5"/>
<stop offset="0.2" stop-color="#47C6DC" stop-opacity="0.5"/>
<stop offset="0.32" stop-color="#38B8D7" stop-opacity="0.5"/>
<stop offset="0.41" stop-color="#33B4D6" stop-opacity="0.5"/>
<stop offset="0.45" stop-color="#3DA6D0" stop-opacity="0.5"/>
<stop offset="0.63" stop-color="#6476BD" stop-opacity="0.5"/>
<stop offset="0.79" stop-color="#8153B0" stop-opacity="0.5"/>
<stop offset="0.91" stop-color="#923EA8" stop-opacity="0.5"/>
<stop offset="1" stop-color="#9937A5" stop-opacity="0.5"/>
</linearGradient>
</defs>
</svg>
