<svg width="71" height="70" viewBox="0 0 71 70" fill="none" xmlns="http://www.w3.org/2000/svg">
<rect opacity="0.02" x="0.199219" width="70" height="70" fill="#D9D9D9"/>
<g clip-path="url(#clip0_1248_7233)">
<path d="M56.1992 28.5079C56.1992 40.3908 46.8015 50.0158 35.1992 50.0158C23.5969 50.0158 14.1992 40.3908 14.1992 28.5079C14.1992 16.625 23.605 7 35.1992 7C46.7935 7 56.1992 16.6332 56.1992 28.5079Z" fill="#E0EEFF"/>
<path d="M45.7073 51.8025C45.7073 53.772 44.1463 55.3707 42.2234 55.3707H28.1831C26.2601 55.3707 24.6992 53.772 24.6992 51.8025C24.6992 49.833 26.2601 48.2344 28.1831 48.2344H42.2234C44.1463 48.2344 45.7073 49.833 45.7073 51.8025Z" fill="#0F3654"/>
<path d="M35.1988 64.0009C33.2758 64.0009 31.7148 62.4023 31.7148 60.4328V58.076C31.7148 56.1065 33.2758 54.5078 35.1988 54.5078C37.1217 54.5078 38.6827 56.1065 38.6827 58.076V60.4328C38.6827 62.4023 37.1217 64.0009 35.1988 64.0009Z" fill="#E6DEDD"/>
<path d="M45.7073 56.9314C45.7073 58.9009 44.1463 60.4996 42.2234 60.4996H28.1831C26.2601 60.4996 24.6992 58.9009 24.6992 56.9314C24.6992 54.962 26.2601 53.3633 28.1831 53.3633H42.2234C44.1463 53.3633 45.7073 54.962 45.7073 56.9314Z" fill="#0F3654"/>
<path d="M37.9838 29.4386C37.9838 31.0126 36.7367 32.2898 35.1999 32.2898C33.6631 32.2898 32.416 31.0126 32.416 29.4386V20.613C32.416 19.039 33.6631 17.7617 35.1999 17.7617C36.7367 17.7617 37.9838 19.039 37.9838 20.613V29.4386Z" fill="#246BEB"/>
<path d="M37.9838 37.777C37.9838 39.351 36.7367 40.6283 35.1999 40.6283C33.6631 40.6283 32.416 39.351 32.416 37.777C32.416 36.2031 33.6631 34.9258 35.1999 34.9258C36.7367 34.9258 37.9838 36.2031 37.9838 37.777Z" fill="#246BEB"/>
</g>
<defs>
<clipPath id="clip0_1248_7233">
<rect width="42" height="57" fill="white" transform="translate(14.1992 7)"/>
</clipPath>
</defs>
</svg>
