<svg width="140" height="70" viewBox="0 0 140 70" fill="none" xmlns="http://www.w3.org/2000/svg">
<path d="M137.417 36.6746C139.542 36.6746 140.755 37.5259 139.479 38.1223L72.0617 69.6385C71.0303 70.1205 68.9697 70.1205 67.9383 69.6385L0.520872 38.1223C-0.754747 37.5259 0.457991 36.6746 2.58324 36.6746L21.3205 36.6746C26.8433 36.6746 31.3205 32.1975 31.3205 26.6746L31.3205 10C31.3205 4.47715 35.7976 -4.55483e-06 41.3205 -4.31342e-06L98.6783 -1.80623e-06C104.201 -1.56482e-06 108.678 4.47715 108.678 10L108.678 26.6746C108.678 32.1975 113.155 36.6746 118.678 36.6746L137.417 36.6746Z" fill="url(#paint0_linear_1641_5330)" fill-opacity="0.2"/>
<defs>
<linearGradient id="paint0_linear_1641_5330" x1="75.147" y1="70.1129" x2="88.2454" y2="2.53893" gradientUnits="userSpaceOnUse">
<stop stop-color="#FFDC84"/>
<stop offset="1" stop-color="#FF6200"/>
</linearGradient>
</defs>
</svg>
