<svg width="70" height="70" viewBox="0 0 70 70" fill="none" xmlns="http://www.w3.org/2000/svg">
<rect opacity="0.02" width="70" height="70" fill="#D9D9D9"/>
<path d="M24.8453 53.9357C24.8453 51.1511 27.1027 48.8936 29.8873 48.8936C32.672 48.8936 34.9294 51.1511 34.9294 53.9357V59.8994C34.9294 60.5073 35.4221 61 36.03 61H48.7747V14.6382C48.7747 13.1896 47.5835 12 46.1231 12H13.6597C12.1993 12 11 13.1896 11 14.6382V59C11 60.1046 11.8954 61 13 61H23.7447C24.3525 61 24.8453 60.5073 24.8453 59.8994V53.9357ZM42.419 38.3087C42.419 39.0208 41.8316 39.6035 41.1137 39.6035H33.159C32.441 39.6035 31.8536 39.0208 31.8536 38.3087V31.2682C31.8536 30.5561 32.441 29.9734 33.159 29.9734H41.1137C41.8316 29.9734 42.419 30.5561 42.419 31.2682V38.3087ZM31.6822 19.0566C31.6822 18.3445 32.2697 17.7618 32.9876 17.7618H40.9423C41.6603 17.7618 42.2477 18.3445 42.2477 19.0566V26.0971C42.2477 26.8092 41.6603 27.3919 40.9423 27.3919H32.9876C32.2697 27.3919 31.6822 26.8092 31.6822 26.0971V19.0566ZM17.5514 19.0566C17.5514 18.3445 18.1388 17.7618 18.8568 17.7618H26.8115C27.5295 17.7618 28.1169 18.3445 28.1169 19.0566V26.0971C28.1169 26.8092 27.5295 27.3919 26.8115 27.3919H18.8568C18.1388 27.3919 17.5514 26.8092 17.5514 26.0971V19.0566ZM17.7146 38.3087V31.2682C17.7146 30.5561 18.302 29.9734 19.02 29.9734H26.9747C27.6926 29.9734 28.2801 30.5561 28.2801 31.2682V38.3087C28.2801 39.0208 27.6926 39.6035 26.9747 39.6035H19.02C18.302 39.6035 17.7146 39.0208 17.7146 38.3087Z" fill="white"/>
<path d="M59.6029 33.9624C59.6029 32.5138 58.4117 31.3242 56.9513 31.3242H45.6597C44.1993 31.3242 43 32.5057 43 33.9624V61.0075H59.6029V33.9624ZM56.576 44.1994H45.9942V42.2572H56.576V44.1994ZM56.576 38.4456H45.9942V36.4791H56.576V38.4456Z" fill="#0F3654"/>
<path d="M18.8567 17.7539H26.8114C27.5293 17.7539 28.1168 18.3366 28.1168 19.0487V26.0892C28.1168 26.8013 27.5293 27.384 26.8114 27.384H18.8567C18.1387 27.384 17.5513 26.8013 17.5513 26.0892V19.0487C17.5513 18.3366 18.1387 17.7539 18.8567 17.7539Z" fill="#F9C032"/>
<path d="M32.9875 17.7542H40.9422C41.6602 17.7542 42.2476 18.3368 42.2476 19.049V26.0814C42.2476 26.7935 41.6602 27.3762 40.9422 27.3762H32.9875C32.2696 27.3762 31.6821 26.7935 31.6821 26.0814V19.0409C31.6821 18.3288 32.2696 17.7461 32.9875 17.7461V17.7542Z" fill="#F9C032"/>
<path d="M19.0197 29.9805H26.9744C27.6924 29.9805 28.2798 30.5631 28.2798 31.2753V38.3157C28.2798 39.0279 27.6924 39.6105 26.9744 39.6105H19.0197C18.3018 39.6105 17.7144 39.0279 17.7144 38.3157V31.2753C17.7144 30.5631 18.3018 29.9805 19.0197 29.9805Z" fill="#F9C032"/>
<path d="M33.1589 29.9805H41.1136C41.8316 29.9805 42.419 30.5631 42.419 31.2753V38.3157C42.419 39.0279 41.8316 39.6105 41.1136 39.6105H33.1589C32.4409 39.6105 31.8535 39.0279 31.8535 38.3157V31.2753C31.8535 30.5631 32.4409 29.9805 33.1589 29.9805Z" fill="#F9C032"/>
<path d="M56.5759 36.4805H45.9941V38.4469H56.5759V36.4805Z" fill="white"/>
<path d="M56.5759 42.2578H45.9941V44.2H56.5759V42.2578Z" fill="white"/>
<path d="M34.9293 48.8945H24.8452V61.0009H34.9293V48.8945Z" fill="#F9C032"/>
</svg>
