<svg width="65" height="64" viewBox="0 0 65 64" fill="none" xmlns="http://www.w3.org/2000/svg">
<path fill-rule="evenodd" clip-rule="evenodd" d="M17.0938 29C18.0552 29 18.9769 29.3735 19.6567 30.0379C20.3366 30.7024 20.7188 31.6032 20.7188 32.5429V45.1911C21.7027 45.5357 22.5137 46.2364 22.9844 47.1485C23.455 46.2364 24.2661 45.5357 25.25 45.1911V32.5429C25.25 31.6032 25.6322 30.7024 26.312 30.0379C26.9918 29.3735 27.9136 29 28.875 29H36.125C37.0864 29 38.0082 29.3735 38.688 30.0379C39.3678 30.7024 39.75 31.6032 39.75 32.5429V45.1911C40.7339 45.5357 41.545 46.2364 42.0156 47.1485C42.4863 46.2364 43.2973 45.5357 44.2812 45.1911V32.5429C44.2812 31.6032 44.6634 30.7024 45.3433 30.0379C46.0231 29.3735 46.9448 29 47.9062 29H55.1562C56.1177 29 57.0394 29.3735 57.7192 30.0379C58.3991 30.7024 58.7812 31.6032 58.7812 32.5429V45.1911C59.6844 45.5053 60.4452 46.1209 60.9292 46.9297C61.4132 47.7384 61.5891 48.6885 61.4265 49.6119C61.264 50.5351 60.7732 51.3725 60.0406 51.9767C59.3079 52.5809 58.3806 52.9131 57.4219 52.9143H52.3649V58.2286H60.5938C60.8341 58.2286 61.0645 58.322 61.2345 58.4881C61.4045 58.6542 61.5 58.8794 61.5 59.1143C61.5 59.3492 61.4045 59.5744 61.2345 59.7405C61.0645 59.9066 60.8341 60 60.5938 60H4.40625C4.1659 60 3.93546 59.9066 3.7655 59.7405C3.59555 59.5744 3.5 59.3492 3.5 59.1143C3.5 58.8794 3.59555 58.6542 3.7655 58.4881C3.93546 58.322 4.1659 58.2286 4.40625 58.2286H12.5625V52.9143H7.57812C6.61944 52.9131 5.69209 52.5809 4.95938 51.9767C4.22678 51.3725 3.73603 50.5351 3.57346 49.6119C3.41094 48.6885 3.58685 47.7384 4.07083 46.9297C4.55483 46.1209 5.31562 45.5053 6.21875 45.1911V32.5429C6.21875 31.6032 6.60094 30.7024 7.28076 30.0379C7.96058 29.3735 8.88234 29 9.84375 29H17.0938ZM22.9844 50.7173C22.6473 51.3754 22.1296 51.9297 21.4896 52.3175C20.8497 52.7052 20.1123 52.9118 19.3594 52.9143H14.375V58.2286H31.5938V52.9143H26.6094C25.8565 52.9118 25.1191 52.7052 24.4792 52.3175C23.8392 51.9297 23.3215 51.3754 22.9844 50.7173ZM42.0156 50.7173C41.6785 51.3754 41.1608 51.9297 40.5208 52.3175C39.8809 52.7052 39.1435 52.9118 38.3906 52.9143H33.4062V58.2286H50.5524V52.9143H45.6406C44.8877 52.9118 44.1503 52.7052 43.5104 52.3175C42.8704 51.9297 42.3527 51.3754 42.0156 50.7173Z" fill="url(#paint0_linear_1323_8127)"/>
<path d="M32.5 22C34.28 22 36.0201 21.4722 37.5001 20.4832C38.9802 19.4943 40.1337 18.0887 40.8149 16.4442C41.4961 14.7996 41.6743 12.99 41.3271 11.2442C40.9798 9.49836 40.1226 7.89472 38.864 6.63604C37.6053 5.37737 36.0016 4.5202 34.2558 4.17294C32.51 3.82567 30.7004 4.0039 29.0558 4.68509C27.4113 5.36628 26.0057 6.51983 25.0168 7.99987C24.0278 9.47991 23.5 11.22 23.5 13C23.5 15.387 24.4482 17.6761 26.136 19.364C27.8239 21.0518 30.1131 22 32.5 22ZM32.5 6C33.8845 6 35.2378 6.41055 36.389 7.17972C37.5401 7.94889 38.4373 9.04214 38.9672 10.3212C39.497 11.6003 39.6356 13.0078 39.3655 14.3656C39.0954 15.7235 38.4287 16.9708 37.4497 17.9498C36.4708 18.9287 35.2235 19.5954 33.8656 19.8655C32.5078 20.1356 31.1003 19.997 29.8212 19.4672C28.5421 18.9373 27.4489 18.0401 26.6797 16.889C25.9105 15.7379 25.5 14.3845 25.5 13C25.5 11.1435 26.2375 9.36301 27.5503 8.05026C28.863 6.7375 30.6435 6 32.5 6Z" fill="#F1F1F1"/>
<path d="M33.67 16.55C33.7392 16.6671 33.8316 16.7688 33.9414 16.8489C34.0513 16.9291 34.1763 16.986 34.3089 17.0162C34.4415 17.0463 34.5789 17.0492 34.7126 17.0244C34.8464 16.9997 34.9736 16.948 35.0867 16.8724C35.1997 16.7968 35.2962 16.6989 35.3701 16.5848C35.444 16.4707 35.4939 16.3426 35.5167 16.2086C35.5395 16.0745 35.5347 15.9372 35.5026 15.805C35.4705 15.6729 35.4117 15.5487 35.33 15.44L33.5 12.7V8C33.5 7.73478 33.3946 7.48043 33.2071 7.29289C33.0196 7.10536 32.7652 7 32.5 7C32.2348 7 31.9804 7.10536 31.7929 7.29289C31.6054 7.48043 31.5 7.73478 31.5 8V13C31.5015 13.196 31.5606 13.3873 31.67 13.55L33.67 16.55Z" fill="#F1F1F1"/>
<defs>
<linearGradient id="paint0_linear_1323_8127" x1="-7.1819" y1="32.0076" x2="4.55367" y2="77.0934" gradientUnits="userSpaceOnUse">
<stop stop-color="#75EEEB" stop-opacity="0.5"/>
<stop offset="0.08" stop-color="#61DCE4" stop-opacity="0.5"/>
<stop offset="0.2" stop-color="#47C6DC" stop-opacity="0.5"/>
<stop offset="0.32" stop-color="#38B8D7" stop-opacity="0.5"/>
<stop offset="0.41" stop-color="#33B4D6" stop-opacity="0.5"/>
<stop offset="0.45" stop-color="#3DA6D0" stop-opacity="0.5"/>
<stop offset="0.63" stop-color="#6476BD" stop-opacity="0.5"/>
<stop offset="0.79" stop-color="#8153B0" stop-opacity="0.5"/>
<stop offset="0.91" stop-color="#923EA8" stop-opacity="0.5"/>
<stop offset="1" stop-color="#9937A5" stop-opacity="0.5"/>
</linearGradient>
</defs>
</svg>
