<svg width="70" height="70" viewBox="0 0 70 70" fill="none" xmlns="http://www.w3.org/2000/svg">
<rect opacity="0.02" width="70" height="70" fill="#D9D9D9"/>
<path d="M31.0621 32.1904C20.5909 32.1904 12.1001 40.6812 12.1001 51.1456V56.0866C12.107 58.8003 14.3136 61.0001 17.0273 61.0001H45.09C47.8038 61.0001 50.0104 58.8003 50.0173 56.0866V51.1456C50.0173 40.6744 41.5265 32.1836 31.0553 32.1836L31.0621 32.1904Z" fill="#0F3654"/>
<path d="M44.4457 22.3837C44.4457 29.778 38.4494 35.7675 31.062 35.7675C23.6745 35.7675 17.6714 29.778 17.6714 22.3837C17.6714 14.9894 23.6677 9 31.062 9C38.4563 9 44.4457 14.9963 44.4457 22.3837Z" fill="#E6DEDD"/>
<path d="M34.0841 40.9961H54.8141C56.5274 40.9961 57.9117 42.3872 57.9117 44.0936V57.8954C57.9117 59.6086 56.5205 60.9929 54.8141 60.9929H34.0909C32.3777 60.9929 30.9934 59.6018 30.9934 57.8954V44.1005C30.9934 42.3872 32.3846 41.0029 34.0909 41.0029L34.0841 40.9961Z" fill="white"/>
<path d="M47.7287 40.9961H41.1636V47.102H47.7287V40.9961Z" fill="#FD8337"/>
</svg>
