<svg width="48" height="48" viewBox="0 0 48 48" fill="none" xmlns="http://www.w3.org/2000/svg">
<path d="M37.1398 21.6979C36.0148 22.8229 34.8852 23.9525 33.7602 25.0775C31.9602 26.8775 30.1648 28.6729 28.3648 30.4729C27.9523 30.8854 27.5352 31.3025 27.1227 31.715C27.5633 31.715 28.0086 31.715 28.4492 31.715C27.5633 30.8291 26.6727 29.9385 25.7867 29.0525C24.732 27.9979 23.682 26.9479 22.6273 25.8932C21.8305 25.0963 21.0336 24.2994 20.232 23.4979C19.3273 22.5932 18.4227 21.6885 17.518 20.7838C16.4773 19.7432 15.4555 18.6838 14.4008 17.6666C14.382 17.6479 14.3633 17.6291 14.3445 17.6104C14.3445 18.051 14.3445 18.4963 14.3445 18.9369C15.4695 17.8119 16.5992 16.6822 17.7242 15.5572C19.5242 13.7572 21.3195 11.9619 23.1195 10.1619C23.532 9.74942 23.9492 9.33223 24.3617 8.91973C23.9211 8.91973 23.4758 8.91973 23.0352 8.91973C23.5039 9.38848 23.9727 9.85723 24.4414 10.326C25.5617 11.4463 26.682 12.5666 27.807 13.6916C29.1617 15.0463 30.5211 16.4057 31.8758 17.7604C33.0523 18.9369 34.2289 20.1135 35.4055 21.29C35.9727 21.8572 36.5305 22.4479 37.1164 23.001C37.1258 23.0104 37.1305 23.015 37.1398 23.0244C37.4867 23.3713 38.1242 23.3994 38.4664 23.0244C38.8086 22.6494 38.8367 22.0682 38.4664 21.6979C37.9977 21.2291 37.5289 20.7604 37.0602 20.2916C35.9398 19.1713 34.8195 18.051 33.6945 16.926C32.3398 15.5713 30.9805 14.2119 29.6258 12.8572C28.4492 11.6807 27.2727 10.5041 26.0961 9.32754C25.5289 8.76035 24.9711 8.16973 24.3852 7.6166C24.3758 7.60723 24.3711 7.60254 24.3617 7.59317C24.0055 7.23692 23.3961 7.23223 23.0352 7.59317C21.9102 8.71817 20.7805 9.84785 19.6555 10.9729C17.8555 12.7729 16.0602 14.5682 14.2602 16.3682C13.8477 16.7807 13.4305 17.1979 13.018 17.6104C12.6617 17.9666 12.657 18.576 13.018 18.9369C13.9039 19.8229 14.7945 20.7135 15.6805 21.5994C16.7352 22.6541 17.7852 23.7041 18.8398 24.7588C19.6367 25.5557 20.4336 26.3525 21.2352 27.1541C22.1398 28.0588 23.0445 28.9635 23.9492 29.8682C24.9898 30.9088 26.0164 31.9588 27.0664 32.9854C27.0852 33.0041 27.1039 33.0229 27.1227 33.0416C27.4789 33.3979 28.0883 33.4025 28.4492 33.0416C29.5742 31.9166 30.7039 30.7869 31.8289 29.6619C33.6289 27.8619 35.4242 26.0666 37.2242 24.2666C37.6367 23.8541 38.0539 23.4369 38.4664 23.0244C38.8133 22.6775 38.8414 22.04 38.4664 21.6979C38.0914 21.3557 37.5102 21.3275 37.1398 21.6979Z" fill="#222222"/>
<path d="M40.9164 23.6432C40.9164 23.6854 40.8977 23.9432 40.9118 23.8119C40.9258 23.6854 40.8883 23.9057 40.8789 23.9432C40.8555 24.0275 40.8274 24.1072 40.7993 24.1916C40.8039 24.1775 40.8743 24.051 40.818 24.14C40.7852 24.1916 40.7618 24.2525 40.7289 24.3088C40.6915 24.3697 40.5977 24.4963 40.7008 24.3697C40.6493 24.4307 40.5977 24.4869 40.5414 24.5432C40.5368 24.5479 40.5368 24.5479 40.5321 24.5525C40.4805 24.6041 40.4289 24.6557 40.3727 24.7119C40.0961 24.9885 39.8243 25.2604 39.5477 25.5369C38.5352 26.5494 37.5227 27.5619 36.5149 28.5697C35.3149 29.7697 34.1196 30.965 32.9196 32.165C32.0664 33.0182 31.218 33.8666 30.3649 34.7197C30.2289 34.8557 30.0977 34.9916 29.9571 35.1275C29.9243 35.1604 29.8914 35.1885 29.8586 35.2213C29.8446 35.2354 29.7555 35.315 29.8493 35.2354C29.9477 35.151 29.8352 35.24 29.8071 35.2588C29.7508 35.2963 29.6946 35.3291 29.6383 35.3619C29.6008 35.3807 29.5586 35.3994 29.5211 35.4229C29.4133 35.4791 29.6805 35.3713 29.5633 35.4041C29.4461 35.4369 29.268 35.4557 29.1602 35.5072C29.1836 35.4979 29.3852 35.4885 29.2164 35.4979C29.1836 35.4979 29.1508 35.5025 29.1227 35.5025C29.0383 35.5072 28.9539 35.4979 28.8649 35.4932C28.7618 35.4932 28.9493 35.5072 28.9539 35.5072C28.9305 35.4932 28.8883 35.4932 28.8602 35.4885C28.7852 35.4744 28.7149 35.4557 28.6399 35.4322C28.6071 35.4229 28.5789 35.4088 28.5461 35.3994C28.4243 35.3666 28.7008 35.4791 28.5883 35.4182C28.5227 35.3807 28.4524 35.3479 28.3868 35.3104C28.3586 35.2916 28.1664 35.1463 28.2602 35.2307C28.3586 35.315 28.1711 35.1463 28.1524 35.1229C28.0961 35.0666 28.0446 35.0104 27.993 34.9494C28.1149 35.0994 27.9555 34.8744 27.9274 34.8229C27.9086 34.79 27.8946 34.7525 27.8758 34.7244C27.8055 34.6119 27.918 34.8697 27.8805 34.7432C27.8618 34.6729 27.8336 34.6025 27.8149 34.5322C27.8008 34.4854 27.7961 34.4338 27.7821 34.3869C27.7539 34.2744 27.7961 34.4572 27.7914 34.4525C27.7586 34.4385 27.7821 34.19 27.7821 34.1572C27.7821 34.1197 27.7868 34.0822 27.7868 34.0447C27.7868 33.9322 27.7774 34.1057 27.7774 34.1104C27.768 34.0354 27.8149 33.9322 27.8336 33.8572C27.8524 33.7963 27.9555 33.5854 27.8571 33.7682C27.8993 33.6885 27.9368 33.6088 27.9836 33.5338C27.9977 33.5104 28.0868 33.3744 28.0211 33.4729C27.9602 33.5619 28.0305 33.4588 28.0446 33.4447C28.0821 33.4025 28.1243 33.3604 28.1618 33.3182C28.2227 33.2525 28.2883 33.1916 28.3539 33.126C28.3821 33.0979 28.4149 33.065 28.443 33.0369C28.6211 32.8588 28.7993 32.6807 28.9774 32.5025C29.9008 31.5791 30.8243 30.6557 31.7477 29.7322C32.9477 28.5322 34.1477 27.3322 35.3477 26.1322C36.2336 25.2463 37.1196 24.3604 38.0055 23.4744C38.1508 23.3291 38.3008 23.1791 38.4461 23.0338C38.5352 22.9447 38.6243 22.851 38.718 22.7619C38.7555 22.7244 38.793 22.6916 38.8305 22.6588C38.9571 22.5369 38.7086 22.7291 38.8539 22.64C38.9196 22.5979 38.9852 22.5557 39.0508 22.5182C39.0789 22.5041 39.1071 22.49 39.1399 22.4713C39.2946 22.3916 39.018 22.5088 39.1258 22.476C39.2477 22.4432 39.4211 22.4244 39.5289 22.3729C39.5243 22.3729 39.3368 22.3869 39.4399 22.3869C39.4727 22.3869 39.5055 22.3822 39.5336 22.3822C39.618 22.3775 39.7024 22.3822 39.7914 22.3869C39.9602 22.3916 39.6133 22.3494 39.8289 22.3916C39.9039 22.4057 39.9743 22.4244 40.0493 22.4479C40.0821 22.4572 40.1102 22.4713 40.143 22.4807C40.2461 22.5088 40.0633 22.4479 40.068 22.4479C40.1336 22.4479 40.2414 22.5369 40.3024 22.5697C40.3258 22.5838 40.4477 22.6869 40.4664 22.6822C40.4196 22.6963 40.3352 22.5697 40.4336 22.6635C40.4571 22.6869 40.4852 22.7104 40.5086 22.7338C40.5743 22.7947 40.6352 22.865 40.6914 22.9354C40.593 22.8088 40.6868 22.94 40.7196 22.9963C40.7477 23.0385 40.7664 23.0854 40.7946 23.1275C40.8039 23.1416 40.8555 23.2588 40.8086 23.151C40.7618 23.0432 40.8086 23.1604 40.818 23.1791C40.8321 23.226 40.8508 23.2729 40.8602 23.3197C40.8696 23.3479 40.9258 23.5166 40.9071 23.5354C40.9118 23.526 40.8977 23.3572 40.8977 23.5072C40.9118 23.5447 40.9164 23.5963 40.9164 23.6432C40.9258 24.1354 41.343 24.6041 41.8539 24.5807C42.3555 24.5572 42.8008 24.1682 42.7915 23.6432C42.7774 22.7525 42.4071 21.8572 41.718 21.2807C41.0993 20.7604 40.3024 20.4416 39.4821 20.5025C38.6899 20.5588 37.9727 20.8729 37.4055 21.4307C37.3024 21.5338 37.1993 21.6416 37.0914 21.7447C36.4164 22.4197 35.7461 23.09 35.0711 23.765C33.8571 24.9791 32.643 26.1932 31.4289 27.4072C30.3368 28.4994 29.2493 29.5869 28.1571 30.6791C27.8571 30.9791 27.5618 31.2744 27.2618 31.5744C26.8727 31.9635 26.4602 32.3479 26.2258 32.8588C25.8227 33.7447 25.818 34.6822 26.2118 35.5729C26.5633 36.365 27.2758 36.9463 28.0821 37.2275C29.2118 37.6213 30.4821 37.2557 31.3164 36.426C31.9539 35.7932 32.5868 35.1557 33.2243 34.5182C34.4102 33.3322 35.6008 32.1416 36.7868 30.9557C37.9446 29.7979 39.1071 28.64 40.2649 27.4775C40.7993 26.9432 41.3383 26.4182 41.8633 25.8791C42.4493 25.2791 42.7727 24.4916 42.7868 23.6525C42.7961 23.1604 42.3508 22.6916 41.8493 22.715C41.3383 22.7291 40.9258 23.1182 40.9164 23.6432Z" fill="#222222"/>
<path d="M23.6861 6.4127C23.6861 6.45489 23.6674 6.7127 23.6814 6.58145C23.6955 6.45489 23.658 6.6752 23.6486 6.7127C23.6252 6.79708 23.5971 6.87677 23.5689 6.96114C23.5736 6.94708 23.6439 6.82052 23.5877 6.90958C23.5549 6.96114 23.5314 7.02208 23.4986 7.07833C23.4611 7.13927 23.3674 7.26583 23.4705 7.13927C23.4189 7.2002 23.3674 7.26114 23.3111 7.31739C23.2549 7.37364 23.1986 7.42989 23.1424 7.48614C23.0814 7.54708 23.0205 7.60802 22.9642 7.66427C22.7299 7.89864 22.4955 8.13302 22.2611 8.36739C21.2767 9.35177 20.2924 10.3361 19.308 11.3205C18.1127 12.5158 16.9221 13.7065 15.7267 14.9018C14.9158 15.7127 14.1049 16.5236 13.2892 17.3393C13.1158 17.5127 12.9424 17.6861 12.7689 17.8596C12.7455 17.883 12.7174 17.9111 12.6939 17.9346C12.6705 17.958 12.6424 17.9768 12.6189 18.0049C12.5299 18.094 12.7549 17.9158 12.6517 17.9815C12.5955 18.019 12.5439 18.0565 12.483 18.0893C12.4455 18.1127 12.408 18.1315 12.3658 18.1502C12.3377 18.1643 12.2064 18.2065 12.3283 18.169C12.4549 18.1315 12.2392 18.1971 12.1971 18.2065C12.1361 18.2252 12.0705 18.2346 12.0096 18.2486C11.8408 18.2861 12.1924 18.2393 11.9721 18.2486C11.8877 18.2533 11.8033 18.2533 11.7142 18.2486C11.6908 18.2486 11.6439 18.2346 11.6205 18.2393C11.6252 18.2393 11.8127 18.2721 11.7096 18.2486C11.6346 18.2299 11.5642 18.2205 11.4892 18.1971C11.4564 18.1877 11.2174 18.1174 11.358 18.1596C11.4799 18.1971 11.2736 18.1174 11.2361 18.094C11.1705 18.0565 11.1049 18.0096 11.0392 17.9674C10.9502 17.9111 11.0955 18.0143 11.0955 18.0096C11.0721 18.0049 11.0064 17.9299 10.9924 17.9205C10.9361 17.869 10.8846 17.8127 10.833 17.7565C10.7955 17.719 10.7533 17.6205 10.8377 17.7611C10.8142 17.719 10.7814 17.6768 10.7533 17.6346C10.7346 17.6018 10.7158 17.569 10.6971 17.5361C10.683 17.508 10.6127 17.3627 10.6642 17.4799C10.7111 17.583 10.6314 17.3815 10.6221 17.344C10.6174 17.3252 10.5424 17.1143 10.5658 17.0908C10.5705 17.0861 10.5752 17.2736 10.5752 17.1565C10.5752 17.0955 10.5658 17.0346 10.5658 16.9736C10.5658 16.9455 10.5564 16.7627 10.5752 16.7533C10.5799 16.7486 10.5236 16.9877 10.5752 16.7815C10.5846 16.744 10.5892 16.7111 10.5986 16.6736C10.6221 16.5893 10.6502 16.5096 10.6783 16.4252C10.6221 16.5986 10.6924 16.4111 10.7299 16.3455C10.7627 16.2893 10.8892 16.1158 10.7767 16.2518C10.8283 16.1908 10.8799 16.1346 10.9361 16.0783C10.9408 16.0736 10.9408 16.0736 10.9455 16.069C10.9642 16.0502 10.983 16.0315 11.0017 16.0127C11.2221 15.7924 11.4424 15.5721 11.6627 15.3518C12.6142 14.4002 13.5658 13.4486 14.5174 12.4971C15.7221 11.2924 16.9267 10.0877 18.1267 8.8877C19.0502 7.96427 19.9736 7.04083 20.8971 6.11739C21.0939 5.92052 21.2861 5.72364 21.483 5.53145C21.4924 5.52208 21.5064 5.50802 21.5158 5.49864C21.5486 5.46583 21.5814 5.4377 21.6142 5.40489C21.7408 5.28302 21.4924 5.4752 21.6377 5.38614C21.7033 5.34395 21.7689 5.30177 21.8346 5.26427C21.8627 5.2502 21.8908 5.23614 21.9236 5.21739C22.0783 5.1377 21.8017 5.25489 21.9096 5.22208C22.0314 5.18927 22.2049 5.17052 22.3127 5.11895C22.308 5.11895 22.1205 5.13302 22.2236 5.13302C22.2564 5.13302 22.2892 5.12833 22.3174 5.12833C22.4017 5.12364 22.4861 5.12833 22.5752 5.13302C22.7439 5.1377 22.3971 5.09552 22.6127 5.1377C22.6877 5.15177 22.758 5.17052 22.833 5.19395C22.8658 5.20333 22.8939 5.21739 22.9267 5.22677C23.0299 5.25489 22.8471 5.19395 22.8517 5.19395C22.9174 5.19395 23.0299 5.28302 23.0861 5.31583C23.1096 5.32989 23.2314 5.43302 23.2502 5.42833C23.2033 5.44239 23.1189 5.31583 23.2174 5.40958C23.2408 5.43302 23.2689 5.45645 23.2924 5.47989C23.358 5.54083 23.4189 5.61114 23.4752 5.68145C23.3721 5.55489 23.4705 5.68614 23.5033 5.74239C23.5314 5.78458 23.5502 5.83145 23.5783 5.87364C23.5877 5.8877 23.6392 6.00489 23.5924 5.89708C23.5455 5.78927 23.5924 5.90645 23.6017 5.9252C23.6158 5.97208 23.6346 6.01895 23.6439 6.06583C23.6533 6.09395 23.7096 6.2627 23.6908 6.28145C23.6955 6.27208 23.6814 6.10333 23.6814 6.25333C23.6814 6.31427 23.6861 6.36583 23.6861 6.4127C23.6955 6.90489 24.1127 7.37364 24.6236 7.3502C25.1252 7.32677 25.5705 6.9377 25.5611 6.4127C25.5471 5.52208 25.1767 4.62677 24.4877 4.0502C23.8689 3.52989 23.0721 3.21114 22.2517 3.27208C21.3892 3.33302 20.6674 3.70802 20.0627 4.3127C19.3267 5.04864 18.5861 5.78927 17.8502 6.5252C16.6267 7.74864 15.408 8.96739 14.1846 10.1908C13.0783 11.2971 11.9674 12.408 10.8611 13.5143C10.1908 14.1846 9.31424 14.883 8.93924 15.769C8.21737 17.4799 9.15487 19.4533 10.9174 20.0111C11.6955 20.2549 12.5439 20.1518 13.2705 19.7955C13.6877 19.594 14.0158 19.2658 14.3392 18.9424C14.9064 18.3752 15.4736 17.808 16.0408 17.2408C17.2221 16.0596 18.3986 14.883 19.5799 13.7018C20.7236 12.558 21.8674 11.4143 23.0111 10.2705C23.5502 9.73145 24.0892 9.20177 24.6236 8.65802C25.2189 8.05333 25.5471 7.26583 25.5611 6.4127C25.5705 5.92052 25.1252 5.45177 24.6236 5.4752C24.108 5.49864 23.6955 5.8877 23.6861 6.4127Z" fill="#222222"/>
<path d="M31.8897 15.1696C31.674 15.3852 31.4631 15.5961 31.2475 15.8118C31.6881 15.8118 32.1334 15.8118 32.574 15.8118C31.8006 15.0383 31.0225 14.2602 30.249 13.4868C30.249 13.9274 30.249 14.3727 30.249 14.8133C30.4318 14.6305 30.6193 14.443 30.8022 14.2602C30.8303 14.2321 30.8584 14.2039 30.8865 14.1758C30.9053 14.1571 30.924 14.143 30.9428 14.1243C31.0881 13.9789 30.8068 14.1993 30.9662 14.1055C30.9756 14.1008 31.1397 14.0118 31.1397 14.0071C31.1068 14.0211 31.0693 14.0352 31.0365 14.0493C31.0787 14.0352 31.1162 14.0164 31.1584 14.0071C31.21 13.993 31.2662 13.9836 31.3178 13.9696C31.3881 13.9555 31.36 13.9602 31.2287 13.9789C31.2615 13.9743 31.2943 13.9743 31.3272 13.9743C31.3834 13.9743 31.435 13.9743 31.4865 13.9743C31.6928 13.9743 31.2943 13.9227 31.4912 13.9743C31.5568 13.993 31.6178 14.0071 31.6787 14.0258C31.8428 14.0774 31.5756 13.9602 31.6647 14.0211C31.7162 14.0586 31.7818 14.0914 31.8381 14.1243C31.9272 14.1711 31.7209 14.0024 31.8334 14.1243C31.885 14.1805 31.9412 14.2321 31.9881 14.2883C31.8568 14.1289 31.9975 14.3258 32.0162 14.3539C32.1147 14.5086 31.9928 14.2133 32.0443 14.4055C32.0584 14.4664 32.0725 14.5274 32.0912 14.5883C32.1053 14.6586 32.1053 14.6352 32.0865 14.5227C32.0912 14.5602 32.0912 14.5977 32.0912 14.6352C32.0912 14.6821 32.11 14.7758 32.0865 14.8227C32.1053 14.7102 32.1053 14.6868 32.0912 14.7571C32.0865 14.7946 32.0772 14.8321 32.0678 14.8649C32.049 14.9305 31.9553 15.0852 32.0584 14.9211C32.0209 14.9868 31.9834 15.0571 31.9459 15.118C32.0256 14.9821 31.9459 15.1133 31.8897 15.1696C31.5522 15.5258 31.51 16.1493 31.8897 16.4961C32.2553 16.8336 32.8553 16.8758 33.2162 16.4961C33.8818 15.7977 34.1631 14.7618 33.8303 13.8336C33.5256 12.9899 32.799 12.2961 31.8943 12.1414C31.0318 11.9961 30.1975 12.2399 29.5647 12.8493C29.349 13.0602 29.1381 13.2758 28.9272 13.4868C28.5709 13.843 28.5662 14.4524 28.9272 14.8133C29.7006 15.5868 30.4787 16.3649 31.2522 17.1383C31.6084 17.4946 32.2178 17.4993 32.5787 17.1383C32.7943 16.9227 33.0053 16.7118 33.2209 16.4961C33.5678 16.1493 33.5959 15.5118 33.2209 15.1696C32.8412 14.8227 32.26 14.7993 31.8897 15.1696Z" fill="#222222"/>
<path d="M18.9047 24.8298C19.6782 25.6032 20.4563 26.3814 21.2297 27.1548C21.2297 26.7142 21.2297 26.2689 21.2297 25.8282C20.6297 26.4282 20.025 27.0329 19.425 27.6329C17.9953 29.0626 16.5703 30.4876 15.1407 31.9173C13.4532 33.6048 11.7657 35.2923 10.0782 36.9798C8.70003 38.3579 7.32191 39.736 5.94847 41.1095C5.55003 41.5079 5.14691 41.911 4.74847 42.3095C4.65472 42.4032 4.55628 42.5017 4.46253 42.5954C4.44378 42.6142 4.42503 42.6329 4.40628 42.6517C4.38753 42.6704 4.33128 42.7454 4.30316 42.7454C4.33128 42.722 4.35941 42.7032 4.38753 42.6798C4.35941 42.6985 4.33597 42.7173 4.30784 42.736C4.26097 42.7642 4.21409 42.7876 4.16722 42.8157C4.00316 42.9095 4.21409 42.7923 4.21409 42.797C4.20941 42.8204 4.05941 42.8392 4.03128 42.8485C3.82972 42.9142 4.24222 42.8485 4.03128 42.8532C3.98909 42.8532 3.94691 42.8579 3.90472 42.8579C3.91409 42.8579 3.77816 42.8532 3.77816 42.8532C3.77816 42.8485 4.00316 42.8954 3.80628 42.8532C3.75472 42.8439 3.70316 42.8251 3.65159 42.811C3.47347 42.7689 3.69847 42.8345 3.69378 42.8345C3.66097 42.8392 3.58128 42.7782 3.54847 42.7595C3.52034 42.7454 3.49222 42.7267 3.46409 42.7079C3.37972 42.6517 3.39378 42.6564 3.49691 42.736C3.43128 42.7267 3.33284 42.5767 3.29066 42.5251C3.42659 42.6939 3.28128 42.4876 3.26253 42.4595C3.23441 42.4173 3.20628 42.3001 3.26253 42.4782C3.24847 42.4314 3.22972 42.3845 3.21566 42.3376C3.21097 42.3282 3.16878 42.0892 3.18753 42.2439C3.20628 42.3939 3.18753 42.1595 3.18753 42.1454C3.18753 42.1079 3.18753 42.0704 3.19222 42.0329C3.19691 41.9626 3.19222 41.9814 3.18284 42.0985C3.14066 42.0564 3.35628 41.6673 3.22972 41.897C3.26253 41.836 3.41253 41.6204 3.29066 41.7657C3.32816 41.7235 3.36566 41.6814 3.40316 41.6439C3.42191 41.6251 3.44534 41.6017 3.46409 41.5829C3.73128 41.3157 3.99847 41.0485 4.27034 40.7767C5.49378 39.5532 6.71722 38.3298 7.94066 37.1064C9.60472 35.4423 11.2735 33.7735 12.9375 32.1095C14.475 30.572 16.0125 29.0345 17.55 27.497C18.4032 26.6439 19.2563 25.7907 20.1094 24.9376C20.1516 24.8954 20.1891 24.8579 20.2313 24.8157C20.5782 24.4689 20.6063 23.8314 20.2313 23.4892C19.8563 23.147 19.275 23.1189 18.9047 23.4892C18.286 24.1079 17.6625 24.7314 17.0438 25.3501C15.586 26.8079 14.1282 28.2657 12.6703 29.7235C10.9594 31.4345 9.24378 33.1501 7.53284 34.861C6.16878 36.2251 4.80003 37.5939 3.43597 38.9579C3.06566 39.3282 2.69534 39.6985 2.32503 40.0689C2.25003 40.1439 2.17503 40.2189 2.10003 40.2939C1.48597 40.9173 1.23284 41.747 1.36878 42.6048C1.56566 43.8142 2.69066 44.7095 3.90003 44.7142C4.59847 44.7142 5.25941 44.4235 5.75159 43.936C5.98597 43.7064 6.21566 43.472 6.44534 43.2423C7.64066 42.047 8.83597 40.8517 10.0313 39.6564C11.7141 37.9735 13.4016 36.286 15.0844 34.6032C16.6594 33.0282 18.2391 31.4485 19.8141 29.8735C20.686 29.0017 21.5625 28.1251 22.4344 27.2532C22.4766 27.211 22.5141 27.1735 22.5563 27.1314C22.9125 26.7751 22.9172 26.1657 22.5563 25.8048C21.7828 25.0314 21.0047 24.2532 20.2313 23.4798C19.8844 23.1329 19.2469 23.1048 18.9047 23.4798C18.5625 23.8782 18.5344 24.4595 18.9047 24.8298Z" fill="#222222"/>
<path d="M16.903 43.7813C16.903 43.6641 16.9077 43.5422 16.917 43.425C16.917 43.3969 16.917 43.2797 16.9311 43.2656C16.9264 43.3078 16.9217 43.3453 16.9123 43.3875C16.917 43.3453 16.9264 43.3031 16.9311 43.2609C16.9733 43.0359 17.0295 42.8109 17.1045 42.5953C17.1233 42.5484 17.1467 42.4969 17.1561 42.45C17.1889 42.3187 17.0577 42.6609 17.1467 42.4734C17.1889 42.3797 17.2358 42.2859 17.2827 42.1969C17.3295 42.1078 17.3811 42.0187 17.4373 41.9344C17.4702 41.8828 17.5827 41.6438 17.6436 41.6344C17.6202 41.6672 17.5967 41.6953 17.5733 41.7281C17.5967 41.6953 17.6248 41.6672 17.653 41.6344C17.6858 41.5969 17.7186 41.5594 17.7514 41.5219C17.8264 41.4375 17.9061 41.3578 17.9858 41.2828C18.0608 41.2125 18.1358 41.1469 18.2155 41.0813C18.3702 40.9453 18.0842 41.1656 18.192 41.0953C18.253 41.0578 18.3092 41.0109 18.3655 40.9734C18.5342 40.8609 18.7123 40.7578 18.8952 40.6687C18.928 40.6547 19.0264 40.5891 19.0639 40.5938C19.003 40.5844 18.8952 40.6594 19.0123 40.6172C19.1295 40.575 19.2467 40.5328 19.3686 40.5C19.4905 40.4672 19.6123 40.4344 19.7342 40.4109C19.7764 40.4016 19.8186 40.3969 19.8608 40.3875C20.0811 40.35 19.6405 40.4062 19.8655 40.3875C20.0155 40.3734 20.1702 40.3641 20.3202 40.3641C20.3483 40.3641 20.3764 40.3641 20.4045 40.3641C20.578 40.3641 20.7514 40.3641 20.9248 40.3641C22.7623 40.3641 24.6045 40.3641 26.442 40.3641C29.0717 40.3641 31.7061 40.3641 34.3358 40.3641C36.342 40.3641 38.3483 40.3641 40.3545 40.3641C40.6873 40.3641 41.0248 40.3641 41.3577 40.3641C41.5123 40.3641 41.6623 40.3781 41.8123 40.3875C42.0373 40.4062 41.5967 40.3453 41.817 40.3875C41.8592 40.3969 41.9014 40.4016 41.9436 40.4109C42.0655 40.4344 42.192 40.4625 42.3092 40.5C42.4217 40.5328 42.5248 40.5703 42.6327 40.6078C42.7686 40.6547 42.717 40.5797 42.6092 40.5938C42.6467 40.5891 42.7452 40.6547 42.778 40.6687C42.9795 40.7672 43.1764 40.8797 43.3592 41.0062C43.392 41.0297 43.4248 41.0531 43.4577 41.0766C43.6358 41.1984 43.2983 40.9406 43.4623 41.0813C43.5373 41.1469 43.617 41.2125 43.692 41.2828C43.767 41.3531 43.8373 41.4234 43.9077 41.4984C43.9498 41.5453 43.9873 41.5875 44.0295 41.6344C44.0577 41.6672 44.0811 41.6953 44.1092 41.7281C44.0858 41.6953 44.0623 41.6672 44.0389 41.6344C44.0905 41.6438 44.203 41.8641 44.2311 41.9109C44.292 42.0047 44.3483 42.1031 44.3998 42.2016C44.4467 42.2906 44.4936 42.3844 44.5358 42.4781C44.6108 42.6422 44.5123 42.4266 44.5123 42.4266C44.5358 42.4312 44.5873 42.6328 44.5967 42.6609C44.6623 42.8578 44.7139 43.0641 44.7514 43.2703C44.7655 43.3453 44.7514 43.5188 44.7561 43.275C44.7561 43.3172 44.7655 43.3641 44.7702 43.4016C44.7795 43.5328 44.7842 43.6594 44.7889 43.7906C45.103 43.4766 45.4123 43.1672 45.7264 42.8531C44.742 42.8531 43.753 42.8531 42.7686 42.8531C40.4014 42.8531 38.0295 42.8531 35.6623 42.8531C32.7936 42.8531 29.9295 42.8531 27.0608 42.8531C24.5811 42.8531 22.1014 42.8531 19.6264 42.8531C18.4217 42.8531 17.2123 42.8297 16.0123 42.8531C15.9936 42.8531 15.9795 42.8531 15.9608 42.8531C15.4686 42.8531 14.9998 43.2844 15.0233 43.7906C15.0467 44.2969 15.4358 44.7281 15.9608 44.7281C16.9452 44.7281 17.9342 44.7281 18.9186 44.7281C21.2858 44.7281 23.6577 44.7281 26.0248 44.7281C28.8936 44.7281 31.7577 44.7281 34.6264 44.7281C37.1061 44.7281 39.5858 44.7281 42.0608 44.7281C43.2655 44.7281 44.4748 44.7516 45.6748 44.7281C45.6936 44.7281 45.7077 44.7281 45.7264 44.7281C46.2327 44.7281 46.6686 44.2969 46.6639 43.7906C46.6498 41.5781 45.2717 39.6375 43.2233 38.8313C42.4686 38.5359 41.6764 38.4891 40.8748 38.4891C39.0327 38.4891 37.1858 38.4891 35.3436 38.4891C32.6483 38.4891 29.9483 38.4891 27.253 38.4891C25.2327 38.4891 23.2077 38.4891 21.1873 38.4891C20.7702 38.4891 20.3436 38.4703 19.9264 38.5078C17.7655 38.7 15.9092 40.1438 15.253 42.225C15.0936 42.7266 15.0186 43.2656 15.0186 43.7953C15.0139 44.2875 15.4545 44.7563 15.9561 44.7328C16.4764 44.6953 16.8983 44.3063 16.903 43.7813Z" fill="#222222"/>
</svg>
