<svg width="20" height="14" viewBox="0 0 20 14" fill="none" xmlns="http://www.w3.org/2000/svg">
<path fill-rule="evenodd" clip-rule="evenodd" d="M13.7682 0.359841C13.4147 -0.0644362 12.7841 -0.12176 12.3598 0.231804C11.9355 0.585368 11.8782 1.21593 12.2318 1.64021L15.865 6.00002H1C0.447715 6.00002 0 6.44774 0 7.00002C0 7.55231 0.447715 8.00002 1 8.00002H15.865L12.2318 12.3598C11.8782 12.7841 11.9355 13.4147 12.3598 13.7682C12.7841 14.1218 13.4147 14.0645 13.7682 13.6402L18.764 7.64523C18.7671 7.64163 18.7701 7.63801 18.7731 7.63436L19.3017 7.00003L18.7732 6.36576C18.7701 6.36207 18.7671 6.3584 18.764 6.35475L13.7682 0.359841Z" fill="#222222"/>
</svg>
