<svg width="32" height="32" viewBox="0 0 32 32" fill="none" xmlns="http://www.w3.org/2000/svg">
<circle cx="16" cy="16" r="16" fill="#F8F8F8"/>
<path d="M23 21C22.7348 21 22.4804 20.8946 22.2929 20.7071C22.1054 20.5196 22 20.2652 22 20C22 19.7348 22.1054 19.4804 22.2929 19.2929C22.4804 19.1054 22.7348 19 23 19C23.2652 19 23.5196 18.8946 23.7071 18.7071C23.8946 18.5196 24 18.2652 24 18V10C24 9.73478 23.8946 9.48043 23.7071 9.29289C23.5196 9.10536 23.2652 9 23 9H9C8.73478 9 8.48043 9.10536 8.29289 9.29289C8.10536 9.48043 8 9.73478 8 10V18C8 18.2652 8.10536 18.5196 8.29289 18.7071C8.48043 18.8946 8.73478 19 9 19H19C19.2652 19 19.5196 19.1054 19.7071 19.2929C19.8946 19.4804 20 19.7348 20 20C20 20.2652 19.8946 20.5196 19.7071 20.7071C19.5196 20.8946 19.2652 21 19 21H9C8.20435 21 7.44129 20.6839 6.87868 20.1213C6.31607 19.5587 6 18.7956 6 18V10C6 9.20435 6.31607 8.44129 6.87868 7.87868C7.44129 7.31607 8.20435 7 9 7H23C23.7956 7 24.5587 7.31607 25.1213 7.87868C25.6839 8.44129 26 9.20435 26 10V18C26 18.7956 25.6839 19.5587 25.1213 20.1213C24.5587 20.6839 23.7956 21 23 21Z" fill="#666666"/>
<path d="M20.29 12.71C20.1073 12.5184 20.0037 12.2648 20 12C20.0037 11.7352 20.1073 11.4816 20.29 11.29C20.4816 11.1073 20.7352 11.0037 21 11C21.2648 11.0037 21.5184 11.1073 21.71 11.29C21.8927 11.4816 21.9963 11.7352 22 12C21.9963 12.2648 21.8927 12.5184 21.71 12.71C21.5184 12.8927 21.2648 12.9963 21 13C20.7352 12.9963 20.4816 12.8927 20.29 12.71Z" fill="#666666"/>
<path d="M21 17H11C10.7348 17 10.4804 16.8946 10.2929 16.7071C10.1054 16.5196 10 16.2652 10 16C10 15.7348 10.1054 15.4804 10.2929 15.2929C10.4804 15.1054 10.7348 15 11 15H21C21.2652 15 21.5196 15.1054 21.7071 15.2929C21.8946 15.4804 22 15.7348 22 16C22 16.2652 21.8946 16.5196 21.7071 16.7071C21.5196 16.8946 21.2652 17 21 17Z" fill="#666666"/>
<path d="M12 26C11.7348 26 11.4804 25.8946 11.2929 25.7071C11.1054 25.5196 11 25.2652 11 25V23C11 22.7348 11.1054 22.4804 11.2929 22.2929C11.4804 22.1054 11.7348 22 12 22C12.2652 22 12.5196 22.1054 12.7071 22.2929C12.8946 22.4804 13 22.7348 13 23V25C13 25.2652 12.8946 25.5196 12.7071 25.7071C12.5196 25.8946 12.2652 26 12 26Z" fill="#666666"/>
<path d="M16 26C15.7348 26 15.4804 25.8946 15.2929 25.7071C15.1054 25.5196 15 25.2652 15 25V23C15 22.7348 15.1054 22.4804 15.2929 22.2929C15.4804 22.1054 15.7348 22 16 22C16.2652 22 16.5196 22.1054 16.7071 22.2929C16.8946 22.4804 17 22.7348 17 23V25C17 25.2652 16.8946 25.5196 16.7071 25.7071C16.5196 25.8946 16.2652 26 16 26Z" fill="#666666"/>
<path d="M20 26C19.7348 26 19.4804 25.8946 19.2929 25.7071C19.1054 25.5196 19 25.2652 19 25V23C19 22.7348 19.1054 22.4804 19.2929 22.2929C19.4804 22.1054 19.7348 22 20 22C20.2652 22 20.5196 22.1054 20.7071 22.2929C20.8946 22.4804 21 22.7348 21 23V25C21 25.2652 20.8946 25.5196 20.7071 25.7071C20.5196 25.8946 20.2652 26 20 26Z" fill="#666666"/>
</svg>
