<svg width="28" height="20" viewBox="0 0 28 20" fill="none" xmlns="http://www.w3.org/2000/svg">
<path d="M9.7879 15.6347L24.403 0.534521C24.7479 0.178174 25.1503 0 25.6101 0C26.07 0 26.4724 0.178174 26.8173 0.534521C27.1622 0.890869 27.3346 1.31433 27.3346 1.8049C27.3346 2.29547 27.1622 2.71834 26.8173 3.0735L10.995 19.4655C10.6501 19.8218 10.2478 20 9.7879 20C9.32803 20 8.92565 19.8218 8.58075 19.4655L1.16542 11.804C0.82052 11.4477 0.654969 11.0248 0.668765 10.5354C0.682561 10.046 0.862483 9.62257 1.20853 9.26503C1.55458 8.9075 1.96444 8.72932 2.4381 8.73051C2.91176 8.7317 3.32104 8.90987 3.66594 9.26503L9.7879 15.6347Z" fill="#222222"/>
</svg>
