<svg width="80" height="80" viewBox="0 0 80 80" fill="none" xmlns="http://www.w3.org/2000/svg">
<rect x="21.668" y="33.5879" width="36.6667" height="23.8333" fill="#F1F1F1"/>
<path d="M54.6667 25.3486V21.6743C54.6667 19.6534 53.0167 18 51 18C48.9833 18 47.3333 19.6534 47.3333 21.6743V25.3486H32.6667V21.6743C32.6667 19.6534 31.0167 18 29 18C26.9833 18 25.3333 19.6534 25.3333 21.6743V25.3486H21.6667C19.65 25.3486 18 27.0021 18 29.023V58.3257C18 60.3466 19.65 62 21.6667 62H58.3333C60.35 62 62 60.3466 62 58.3257V29.023C62 27.0021 60.35 25.3486 58.3333 25.3486H54.6667ZM32.6667 54.6514H25.3333V47.3027H32.6667V54.6514ZM43.6667 54.6514H36.3333V47.3027H43.6667V54.6514ZM43.6667 43.6284H36.3333V36.2797H43.6667V43.6284ZM54.6667 54.6514H47.3333V47.3027H54.6667V54.6514ZM54.6667 43.6284H47.3333V36.2797H54.6667V43.6284Z" fill="#231F20"/>
<path d="M54.6667 25.3486V21.6743C54.6667 19.6534 53.0167 18 51 18C48.9833 18 47.3333 19.6534 47.3333 21.6743V25.3486H32.6667V21.6743C32.6667 19.6534 31.0167 18 29 18C26.9833 18 25.3333 19.6534 25.3333 21.6743V25.3486H21.6667C19.65 25.3486 18 27.0021 18 29.023V58.3257C18 60.3466 19.65 62 21.6667 62H58.3333C60.35 62 62 60.3466 62 58.3257V29.023C62 27.0021 60.35 25.3486 58.3333 25.3486H54.6667ZM32.6667 54.6514H25.3333V47.3027H32.6667V54.6514ZM43.6667 54.6514H36.3333V47.3027H43.6667V54.6514ZM43.6667 43.6284H36.3333V36.2797H43.6667V43.6284ZM54.6667 54.6514H47.3333V47.3027H54.6667V54.6514ZM54.6667 43.6284H47.3333V36.2797H54.6667V43.6284Z" fill="url(#paint0_linear_1573_7729)"/>
<defs>
<linearGradient id="paint0_linear_1573_7729" x1="31.8152" y1="23.2096" x2="38.5437" y2="64.9668" gradientUnits="userSpaceOnUse">
<stop stop-color="#FFD774"/>
<stop offset="1" stop-color="#FD8337"/>
</linearGradient>
</defs>
</svg>
