<svg width="65" height="64" viewBox="0 0 65 64" fill="none" xmlns="http://www.w3.org/2000/svg">
<g clip-path="url(#clip0_1323_8143)">
<path fill-rule="evenodd" clip-rule="evenodd" d="M52.5807 7C53.0883 7.00017 53.5 7.41591 53.5 7.92881V32.0712C53.5 32.5841 53.0883 32.9998 52.5807 33H44.9148V26.151C44.9148 22.7953 41.9048 21.9426 40.3526 22.0129C34.4823 22.2786 30.2911 18.8975 29.1205 17.8516C27.6867 16.5962 25.7093 18.6396 27.008 20.0585C29.7191 23.036 33.5654 24.7326 34.5982 25.1283C35.9932 26.0023 35.9944 26.5815 35.9944 27.9389V33H12.4193C11.9116 32.9999 11.5 32.5841 11.5 32.0712V7.92881C11.5 7.41587 11.9116 7.00009 12.4193 7H52.5807ZM40.6236 11.6441C38.3399 11.6441 36.4886 13.5143 36.4886 15.8218C36.4886 18.1293 38.3398 20.0004 40.6236 20.0005C42.9077 20.0005 44.7597 18.1294 44.7597 15.8218C44.7595 13.5143 42.9076 11.6441 40.6236 11.6441Z" fill="url(#paint0_linear_1323_8143)"/>
<circle cx="6" cy="41.5" r="4.5" fill="#F1F1F1"/>
<circle cx="19" cy="41.5" r="4.5" fill="#F1F1F1"/>
<circle cx="32" cy="41.5" r="4.5" fill="#F1F1F1"/>
<circle cx="45" cy="41.5" r="4.5" fill="#F1F1F1"/>
<circle cx="13" cy="52.5" r="4.5" fill="#F1F1F1"/>
<circle cx="26" cy="52.5" r="4.5" fill="#F1F1F1"/>
<circle cx="39" cy="52.5" r="4.5" fill="#F1F1F1"/>
<circle cx="52" cy="52.5" r="4.5" fill="#F1F1F1"/>
<circle cx="58" cy="41.5" r="4.5" fill="#F1F1F1"/>
</g>
<defs>
<linearGradient id="paint0_linear_1323_8143" x1="3.76483" y1="9.52251" x2="14.9231" y2="46.5345" gradientUnits="userSpaceOnUse">
<stop stop-color="#75EEEB" stop-opacity="0.5"/>
<stop offset="0.08" stop-color="#61DCE4" stop-opacity="0.5"/>
<stop offset="0.2" stop-color="#47C6DC" stop-opacity="0.5"/>
<stop offset="0.32" stop-color="#38B8D7" stop-opacity="0.5"/>
<stop offset="0.41" stop-color="#33B4D6" stop-opacity="0.5"/>
<stop offset="0.45" stop-color="#3DA6D0" stop-opacity="0.5"/>
<stop offset="0.63" stop-color="#6476BD" stop-opacity="0.5"/>
<stop offset="0.79" stop-color="#8153B0" stop-opacity="0.5"/>
<stop offset="0.91" stop-color="#923EA8" stop-opacity="0.5"/>
<stop offset="1" stop-color="#9937A5" stop-opacity="0.5"/>
</linearGradient>
<clipPath id="clip0_1323_8143">
<rect width="64" height="64" fill="white" transform="translate(0.5)"/>
</clipPath>
</defs>
</svg>
