<svg width="70" height="70" viewBox="0 0 70 70" fill="none" xmlns="http://www.w3.org/2000/svg">
<rect opacity="0.02" width="70" height="70" fill="#D9D9D9"/>
<path d="M54.7351 55.9829C54.7351 58.7183 52.5168 60.9291 49.7889 60.9291H20.4344C17.6991 60.9291 15.4883 58.7108 15.4883 55.9829V39.7881C15.4883 37.0528 17.7065 34.842 20.4344 34.842L35.1079 24.4102L49.7814 34.842C52.5168 34.842 54.7276 37.0603 54.7276 39.7881V55.9829H54.7351Z" fill="white"/>
<path d="M34.4629 5.38317C34.4629 4.42392 35.1374 4.03422 35.9692 4.51385L46.1762 10.4042C47.0081 10.8839 47.0081 11.6633 46.1762 12.1429L35.9692 18.0408C35.1374 18.5204 34.4629 18.1307 34.4629 17.1714V5.38317Z" fill="#E6DEDD"/>
<path d="M61.1358 39.1138L36.7799 17.9129C36.7349 17.8755 36.6974 17.8455 36.6525 17.808C36.6525 17.808 36.6525 17.808 36.645 17.8005C36.0829 17.3883 35.371 17.201 34.6815 17.3209C34.2768 17.3883 33.9096 17.5607 33.5799 17.8005C33.5799 17.8005 33.5799 17.8005 33.5724 17.808C33.5274 17.838 33.4824 17.8755 33.445 17.9129L8.8717 39.1138C7.81502 40.0356 7.70261 41.6394 8.62439 42.696L10.2956 44.607C11.2174 45.6637 12.8211 45.7761 13.8778 44.8543L35.1087 26.5612L56.1222 44.8543C57.1789 45.7761 58.7826 45.6637 59.7044 44.607L61.3756 42.696C62.2974 41.6394 62.185 40.0356 61.1283 39.1138H61.1358Z" fill="#0F3654"/>
<path d="M34.9777 50.053C34.0678 48.248 31.228 44.4678 23.9414 46.4356C23.9414 46.4356 26.3703 55.4384 34.2439 51.5399L33.0845 60.9273H37.0103L35.8583 51.6212C43.6071 55.3274 46.0067 46.443 46.0067 46.443C38.7201 44.4752 35.8803 48.2554 34.9704 50.0604L34.9777 50.053Z" fill="#246BEB"/>
</svg>
