<svg width="60" height="60" viewBox="0 0 60 60" fill="none" xmlns="http://www.w3.org/2000/svg">
<path d="M29.7695 20.9734C29.7695 21.1937 29.7602 21.4094 29.7461 21.6297C29.7367 21.7281 29.7273 21.8219 29.718 21.9203C29.7039 22.0422 29.7648 22.0422 29.7227 21.8969C29.7367 21.9438 29.6992 22.0422 29.6945 22.0891C29.6289 22.4969 29.5305 22.8953 29.4039 23.2891C29.343 23.4766 29.2727 23.6641 29.1977 23.8469C29.132 24.0109 29.2211 23.8047 29.2211 23.7953C29.2258 23.8281 29.1602 23.9359 29.1461 23.9641C29.1039 24.0578 29.057 24.1516 29.0102 24.2453C28.8227 24.6109 28.6117 24.9625 28.3727 25.3C28.3445 25.3422 28.1852 25.5672 28.2648 25.45C28.3445 25.3328 28.1758 25.5578 28.1477 25.5953C28.0164 25.7547 27.8805 25.9047 27.7398 26.0547C27.5992 26.2 27.4492 26.3453 27.2992 26.4812C27.2289 26.5422 27.1633 26.6031 27.0883 26.6641C27.0508 26.6969 27.0086 26.7297 26.9711 26.7625C26.957 26.7766 26.9383 26.7859 26.9242 26.8C26.8445 26.8609 26.8586 26.8516 26.9664 26.7672C26.9383 26.8281 26.7695 26.9125 26.718 26.95C26.6523 26.9969 26.582 27.0437 26.5164 27.0906C26.3383 27.2078 26.1508 27.3203 25.9633 27.4234C25.7898 27.5172 25.6164 27.6063 25.4383 27.6906C25.4008 27.7094 25.3633 27.7234 25.3258 27.7422C25.1289 27.8359 25.5227 27.6672 25.3211 27.7469C25.2227 27.7844 25.1289 27.8219 25.0305 27.8594C24.6367 28.0047 24.2289 28.1172 23.8164 28.1969C23.7227 28.2156 23.6289 28.2344 23.5352 28.2484C23.493 28.2531 23.418 28.2812 23.3758 28.2719C23.4883 28.3 23.5398 28.2531 23.432 28.2625C23.2164 28.2859 23.0008 28.3047 22.7852 28.3141C22.3492 28.3328 21.9133 28.3094 21.4773 28.2625C21.2992 28.2437 21.5242 28.2766 21.5336 28.2719C21.4914 28.2859 21.3883 28.2484 21.3414 28.2437C21.2477 28.2297 21.1539 28.2109 21.0602 28.1922C20.8539 28.15 20.6477 28.0984 20.4461 28.0422C20.2539 27.9859 20.0664 27.925 19.8789 27.8594C19.7805 27.8219 19.6867 27.7844 19.5883 27.7469C19.4758 27.7047 19.5648 27.7797 19.6398 27.7703C19.5977 27.775 19.5133 27.7141 19.4711 27.6953C19.0961 27.5219 18.7352 27.3203 18.393 27.0953C18.318 27.0437 18.2383 26.9922 18.1633 26.9406C18.107 26.9031 17.9664 26.8375 17.9383 26.7766C17.9711 26.8 17.9992 26.8234 18.032 26.8469C18.0086 26.8281 17.9852 26.8094 17.9617 26.7906C17.9242 26.7578 17.882 26.725 17.8445 26.6922C17.7602 26.6219 17.6711 26.5469 17.5914 26.4719C17.2961 26.2047 17.0195 25.9187 16.7617 25.6094C16.7289 25.5719 16.6961 25.5297 16.6633 25.4922C16.6586 25.4828 16.6492 25.4781 16.6445 25.4688C16.5836 25.3891 16.593 25.4031 16.6773 25.5109C16.6164 25.4828 16.5508 25.3422 16.5133 25.2859C16.3867 25.1078 16.2695 24.9297 16.1617 24.7422C16.068 24.5828 15.9789 24.4187 15.8945 24.2547C15.8477 24.1609 15.8008 24.0672 15.7586 23.9734C15.7398 23.9359 15.7258 23.8984 15.707 23.8609C15.6227 23.6781 15.7727 24.0297 15.7023 23.8562C15.5477 23.4672 15.4164 23.0687 15.318 22.6609C15.2758 22.4734 15.2336 22.2859 15.2055 22.0984C15.1961 22.0562 15.1633 21.9484 15.1773 21.9062C15.1727 21.9203 15.2055 22.1406 15.1867 21.9625C15.1727 21.8453 15.1633 21.7281 15.1539 21.6062C15.1211 21.1797 15.1211 20.7531 15.1586 20.3266C15.168 20.2188 15.1773 20.1109 15.1914 20.0031C15.2008 19.8953 15.1539 19.9469 15.182 20.0594C15.1727 20.0172 15.2008 19.9422 15.2055 19.9C15.243 19.6797 15.2852 19.4594 15.3367 19.2438C15.4305 18.8547 15.5617 18.4797 15.707 18.1094C15.7867 17.9031 15.618 18.3016 15.7117 18.1047C15.7305 18.0672 15.7445 18.0297 15.7633 17.9922C15.8055 17.8984 15.8523 17.8047 15.8992 17.7109C15.993 17.5281 16.0914 17.3453 16.1992 17.1719C16.293 17.0125 16.3961 16.8578 16.5039 16.7078C16.5414 16.6562 16.6211 16.4875 16.6867 16.4594C16.6117 16.4922 16.5789 16.5906 16.6539 16.5016C16.7008 16.4453 16.743 16.3891 16.7898 16.3328C17.0477 16.0281 17.3242 15.7375 17.6195 15.475C17.6945 15.4047 17.7742 15.3391 17.8539 15.2734C17.8914 15.2453 18.1164 15.0766 17.9992 15.1563C17.882 15.2359 18.107 15.0766 18.1492 15.0484C18.2477 14.9781 18.3508 14.9078 18.4539 14.8422C18.782 14.6313 19.1242 14.4391 19.4805 14.275C19.5133 14.2609 19.6164 14.1906 19.6492 14.2C19.6398 14.2 19.4336 14.2844 19.5977 14.2234C19.6961 14.1859 19.7898 14.1484 19.8883 14.1109C20.0852 14.0406 20.2867 13.975 20.4883 13.9187C20.6711 13.8672 20.8586 13.825 21.0414 13.7828C21.1445 13.7594 21.2523 13.7406 21.3555 13.7266C21.407 13.7172 21.4633 13.7125 21.5148 13.7031C21.6039 13.6891 21.2992 13.7266 21.5195 13.7031C21.9414 13.6562 22.368 13.6375 22.7945 13.6562C23.0008 13.6656 23.207 13.6797 23.4133 13.7031C23.4789 13.7125 23.6289 13.75 23.3898 13.6984C23.432 13.7078 23.4742 13.7125 23.5164 13.7172C23.643 13.7359 23.7695 13.7594 23.8914 13.7875C24.2945 13.8719 24.6883 13.9844 25.0727 14.125C25.1617 14.1578 25.2461 14.1906 25.3352 14.2281C25.532 14.3031 25.1898 14.1578 25.3117 14.2188C25.3586 14.2422 25.4055 14.2609 25.4523 14.2844C25.6398 14.3687 25.8227 14.4625 26.0055 14.5656C26.1742 14.6594 26.343 14.7625 26.507 14.8703C26.582 14.9219 26.6617 14.9734 26.7367 15.025C26.7789 15.0531 26.8211 15.0859 26.8633 15.1141C26.8867 15.1328 26.9148 15.1516 26.9383 15.1703C27.018 15.2313 27.0039 15.2172 26.8961 15.1375C27.0414 15.1891 27.2055 15.3906 27.318 15.4938C27.4727 15.6297 27.618 15.7703 27.7586 15.9203C27.8992 16.0656 28.0352 16.2203 28.1664 16.3797C28.2133 16.4359 28.2977 16.5016 28.3211 16.5719C28.2977 16.5391 28.2742 16.5109 28.2508 16.4781C28.2742 16.5109 28.3023 16.5438 28.3258 16.5766C28.3633 16.6281 28.3961 16.675 28.4336 16.7266C28.6633 17.0547 28.8695 17.4016 29.0523 17.7578C29.0945 17.8422 29.1367 17.9266 29.1742 18.0109C29.1977 18.0578 29.2164 18.1047 29.2398 18.1516C29.3008 18.2734 29.1555 17.9313 29.2305 18.1281C29.3055 18.3203 29.3805 18.5172 29.4461 18.7141C29.5773 19.1172 29.6711 19.5297 29.7414 19.9469C29.7461 19.9891 29.7508 20.0313 29.7602 20.0734C29.7133 19.8484 29.7461 19.9563 29.7508 20.0172C29.7602 20.125 29.7742 20.2328 29.7836 20.3406C29.7648 20.5328 29.7695 20.7531 29.7695 20.9734C29.7695 21.4656 30.2008 21.9344 30.707 21.9109C31.2133 21.8875 31.6445 21.4984 31.6445 20.9734C31.6352 19.0984 31.068 17.2094 29.9664 15.6813C28.8508 14.1297 27.332 12.9672 25.5414 12.3062C21.9836 10.9984 17.7695 12.1469 15.3695 15.0766C14.1414 16.5813 13.4055 18.3766 13.2555 20.3172C13.1102 22.1875 13.5789 24.1187 14.5492 25.7266C15.4867 27.2781 16.9023 28.5719 18.557 29.3219C20.3617 30.1375 22.3445 30.3766 24.2945 29.9922C27.9461 29.2703 30.9461 26.1766 31.5086 22.4922C31.5836 21.9906 31.6352 21.4844 31.6398 20.9781C31.6398 20.4859 31.2086 20.0172 30.7023 20.0406C30.2008 20.0594 29.7742 20.4484 29.7695 20.9734Z" fill="white"/>
<path d="M46.3787 23.5743C46.3787 23.729 46.374 23.879 46.36 24.0337C46.3553 24.1087 46.3459 24.1837 46.3412 24.2587C46.3178 24.493 46.3694 24.104 46.3319 24.329C46.285 24.629 46.21 24.929 46.1162 25.2196C46.0694 25.3602 46.0225 25.4962 45.9662 25.6321C45.9053 25.7868 46.0459 25.468 45.9522 25.6649C45.9147 25.7399 45.8819 25.8149 45.8444 25.8899C45.7084 26.1571 45.5584 26.4102 45.385 26.654C45.3522 26.7009 45.2912 26.8227 45.2397 26.8509C45.235 26.8555 45.3662 26.7055 45.2912 26.7805C45.2725 26.804 45.2537 26.8274 45.235 26.8509C45.1319 26.9774 45.024 27.0993 44.9069 27.2165C44.8084 27.3196 44.7053 27.418 44.5975 27.5118C44.5506 27.554 44.5037 27.5915 44.4569 27.6337C44.424 27.6618 44.3959 27.6852 44.3631 27.7134C44.2319 27.8259 44.4803 27.6337 44.3819 27.6993C44.1381 27.8727 43.899 28.0415 43.6365 28.1821C43.51 28.2524 43.3834 28.318 43.2522 28.379C43.224 28.393 43.1959 28.4024 43.1678 28.4165C43.0553 28.4774 43.3365 28.3509 43.2194 28.393C43.1397 28.4212 43.0647 28.454 42.985 28.4821C42.699 28.5852 42.4037 28.6696 42.1084 28.7259C42.0334 28.7399 41.9631 28.754 41.8881 28.7634C41.6678 28.8009 42.024 28.754 41.8506 28.768C41.6912 28.7868 41.5272 28.8009 41.3631 28.8055C41.0444 28.8149 40.735 28.8009 40.4162 28.768C40.2428 28.7493 40.599 28.7962 40.3787 28.7634C40.3037 28.7493 40.2334 28.7399 40.1584 28.7259C40.0037 28.693 39.849 28.6555 39.699 28.6134C39.5584 28.5759 39.4178 28.529 39.2819 28.4774C39.2115 28.454 39.1459 28.4259 39.0803 28.3977C38.9537 28.3509 39.1037 28.4305 39.1319 28.4212C39.1178 28.4259 39.0334 28.379 39.0194 28.3696C38.7475 28.243 38.4897 28.0977 38.2365 27.9384C38.1147 27.8587 38.0022 27.7743 37.885 27.6899C37.7819 27.6196 38.0209 27.8071 37.9319 27.7227C37.9084 27.704 37.885 27.6852 37.8615 27.6665C37.8006 27.6149 37.735 27.5634 37.674 27.5071C37.4537 27.3102 37.2475 27.0946 37.06 26.8696C37.0319 26.8368 37.0084 26.804 36.9803 26.7759C36.91 26.6962 37.0365 26.8462 37.0319 26.8462C36.985 26.818 36.9381 26.7196 36.9053 26.6727C36.8162 26.5462 36.7319 26.4196 36.6522 26.2884C36.5772 26.1665 36.5069 26.0399 36.4412 25.9134C36.4084 25.8477 36.3756 25.7821 36.3475 25.7212C36.3287 25.6837 36.3147 25.6462 36.2959 25.6087C36.2397 25.5009 36.3803 25.829 36.3053 25.6321C36.1975 25.3602 36.1084 25.0837 36.0381 24.7977C36.0053 24.6524 35.9725 24.5071 35.949 24.3618C35.949 24.3618 35.9209 24.2446 35.9303 24.2352C35.9256 24.2399 35.9584 24.479 35.9397 24.2915C35.9303 24.2071 35.9209 24.118 35.9162 24.0337C35.8928 23.7196 35.8928 23.4009 35.9209 23.0868C35.9256 23.0118 35.935 22.9368 35.9444 22.8618C35.9631 22.6884 35.9115 23.0634 35.949 22.8243C35.9725 22.6696 36.0053 22.5102 36.0428 22.3555C36.1131 22.0602 36.2162 21.779 36.324 21.493C36.3615 21.3946 36.2912 21.5774 36.2912 21.5727C36.2865 21.5634 36.3334 21.479 36.3428 21.4602C36.3709 21.3946 36.4037 21.329 36.4365 21.2634C36.5069 21.1274 36.5819 20.9915 36.6615 20.8602C36.7365 20.7384 36.8162 20.6165 36.8959 20.4993C36.9381 20.443 36.9803 20.3821 37.0225 20.3259C37.0834 20.2415 36.9709 20.3962 36.9709 20.3962C36.9662 20.3821 37.0553 20.293 37.0694 20.279C37.2569 20.054 37.4631 19.8384 37.6834 19.6415C37.735 19.5946 37.7912 19.5477 37.8475 19.5009C37.8709 19.4821 37.8944 19.4634 37.9178 19.4446C38.0444 19.3368 37.8803 19.468 37.8709 19.4774C37.9319 19.379 38.1475 19.2759 38.2459 19.2102C38.4944 19.0462 38.7569 18.9009 39.0287 18.779C39.0475 18.7696 39.1319 18.7227 39.1412 18.7274C39.1459 18.7274 38.9631 18.7977 39.0615 18.7602C39.1319 18.7368 39.1975 18.7087 39.2631 18.6805C39.4084 18.6243 39.5584 18.5774 39.7084 18.5352C39.849 18.493 39.9944 18.4602 40.1397 18.4321C40.2147 18.418 40.285 18.404 40.36 18.3899C40.4022 18.3852 40.449 18.3805 40.4865 18.3712C40.4397 18.3852 40.299 18.3946 40.4303 18.3805C40.7537 18.3477 41.0819 18.3337 41.41 18.343C41.5506 18.3477 41.6912 18.3618 41.8319 18.3759C42.0756 18.404 41.6959 18.3524 41.8694 18.3805C41.9537 18.3946 42.0381 18.4087 42.1225 18.4274C42.4319 18.4884 42.7365 18.5727 43.0319 18.6852C43.0881 18.7087 43.149 18.7321 43.2053 18.7509C43.374 18.8165 43.1584 18.7274 43.1537 18.7274C43.1631 18.7227 43.2662 18.779 43.2662 18.779C43.4069 18.8446 43.5428 18.9149 43.6787 18.9899C43.8053 19.0602 43.9272 19.1352 44.049 19.2102C44.1475 19.2759 44.3631 19.3743 44.424 19.4774C44.4287 19.4821 44.274 19.3555 44.3537 19.4259C44.3819 19.454 44.4194 19.4774 44.4475 19.5055C44.5037 19.5524 44.5553 19.5993 44.6115 19.6462C44.724 19.7493 44.8365 19.8524 44.9397 19.9649C45.0381 20.068 45.1319 20.1759 45.2256 20.2837C45.2444 20.3071 45.2631 20.3305 45.2819 20.354C45.3475 20.429 45.3475 20.3727 45.249 20.3071C45.3053 20.3446 45.3569 20.4524 45.3944 20.504C45.5631 20.7477 45.7178 21.0009 45.8537 21.268C45.8865 21.3337 45.9194 21.3993 45.9475 21.4649C45.9615 21.493 45.9709 21.5212 45.985 21.5493C46.0412 21.6618 45.9194 21.3759 45.9615 21.4977C46.0131 21.643 46.074 21.7884 46.1209 21.9384C46.2147 22.229 46.285 22.529 46.3365 22.829C46.374 23.0493 46.3272 22.693 46.3412 22.8665C46.3506 22.9415 46.3553 23.0165 46.3647 23.0915C46.374 23.2462 46.3787 23.4102 46.3787 23.5743C46.3834 24.0665 46.81 24.5352 47.3162 24.5118C47.8225 24.4884 48.2584 24.0993 48.2537 23.5743C48.2397 20.5696 46.3319 17.9071 43.5194 16.8759C40.7959 15.8774 37.5428 16.7587 35.7053 18.9993C34.749 20.1665 34.1819 21.5446 34.0553 23.0493C33.9334 24.493 34.299 25.993 35.0444 27.2305C35.7662 28.4259 36.8584 29.4384 38.1381 30.0149C39.5537 30.6524 41.0865 30.8352 42.61 30.5305C45.4037 29.9727 47.7147 27.5821 48.1459 24.7602C48.2069 24.3665 48.249 23.9727 48.249 23.5743C48.2537 23.0821 47.8178 22.6134 47.3115 22.6368C46.8053 22.6602 46.3834 23.0493 46.3787 23.5743Z" fill="white"/>
<path d="M35.6476 41.9781C35.6476 43.0047 35.6476 44.0312 35.6476 45.0578C35.6476 45.2031 35.6429 45.3438 35.6429 45.4891C35.6429 45.7047 35.6992 45.2875 35.6429 45.4937C35.6336 45.5359 35.6242 45.5781 35.6148 45.6156C35.6101 45.6297 35.5679 45.7938 35.5586 45.7938C35.5586 45.7938 35.6617 45.6016 35.5632 45.7656C35.5351 45.8078 35.5164 45.8547 35.4882 45.9016C35.4789 45.9203 35.4648 45.9344 35.4554 45.9531C35.3992 46.0375 35.4086 46.0234 35.4929 45.9109C35.507 45.9531 35.2679 46.1453 35.2398 46.1734C35.0898 46.3141 35.4132 46.075 35.2351 46.1734C35.1976 46.1922 35.1648 46.2156 35.132 46.2391C35.1179 46.2484 34.9773 46.3328 34.9679 46.3234C35.0054 46.3094 35.0429 46.2906 35.0757 46.2766C35.0382 46.2906 34.9961 46.3047 34.9586 46.3187C34.9164 46.3328 34.8789 46.3422 34.8367 46.3516C34.8179 46.3562 34.7945 46.3609 34.7757 46.3656C34.6726 46.3844 34.6914 46.3797 34.8367 46.3609C34.832 46.375 34.6586 46.3703 34.6398 46.3703C34.6164 46.3703 34.5929 46.3703 34.5695 46.3703C33.2429 46.375 31.9164 46.3703 30.5898 46.3703C28.0539 46.3703 25.5179 46.3703 22.9773 46.3703C20.3664 46.3703 17.7554 46.3703 15.1445 46.3703C13.5976 46.3703 12.0461 46.3703 10.4992 46.3703C10.4101 46.3703 10.3257 46.3703 10.2367 46.3703C10.2132 46.3703 10.2039 46.3703 10.1711 46.3703C10.1476 46.3703 10.1289 46.3703 10.1054 46.3656C10.0023 46.3562 10.0211 46.3609 10.1617 46.375C10.157 46.3844 10.0257 46.3469 10.007 46.3422C9.95544 46.3281 9.90856 46.3094 9.857 46.3C9.65544 46.2484 10.0351 46.4031 9.85231 46.3C9.80544 46.2766 9.76325 46.2531 9.71638 46.225C9.68825 46.2109 9.66481 46.1922 9.63669 46.1781C9.55231 46.1219 9.56638 46.1313 9.67887 46.2156C9.64137 46.225 9.48669 46.0422 9.45856 46.0094C9.4445 45.9953 9.43044 45.9812 9.41637 45.9625C9.35075 45.8828 9.36481 45.9016 9.44919 46.0094C9.43981 46.0141 9.35544 45.8687 9.35075 45.8547C9.332 45.8172 9.31325 45.7797 9.2945 45.7469C9.19138 45.5641 9.34606 45.9437 9.2945 45.7422C9.28044 45.6812 9.257 45.625 9.24294 45.5594C9.23825 45.5406 9.23356 45.5172 9.22887 45.4984C9.21012 45.3953 9.21481 45.4141 9.23356 45.5594C9.20544 45.55 9.22419 45.1328 9.22419 45.0906C9.22419 44.8234 9.22419 44.5562 9.22419 44.2891C9.22419 43.6516 9.22419 43.0094 9.22419 42.3719C9.22419 42.2406 9.22419 42.1141 9.22419 41.9828C9.22419 41.7859 9.22887 41.5891 9.24294 41.3922C9.25231 41.2609 9.26169 41.1344 9.27575 41.0031C9.28044 40.9609 9.28512 40.9187 9.28981 40.8766C9.30387 40.7734 9.29919 40.7922 9.28044 40.9328C9.28512 40.8906 9.2945 40.8484 9.29919 40.8062C9.3695 40.3469 9.47262 39.8922 9.61325 39.4469C9.67887 39.2359 9.74919 39.0297 9.82887 38.8234C9.84762 38.7766 9.86637 38.725 9.88512 38.6781C9.96481 38.4719 9.79606 38.8703 9.88981 38.6734C9.94138 38.5609 9.99294 38.4484 10.0445 38.3359C10.2414 37.9281 10.4711 37.5344 10.7242 37.1594C10.7804 37.075 10.8414 36.9906 10.9023 36.9062C10.9258 36.8687 10.9726 36.7797 11.0101 36.7562C10.9867 36.7891 10.9633 36.8172 10.9398 36.85C10.9633 36.8172 10.9914 36.7844 11.0148 36.7516C11.1554 36.5781 11.3008 36.4047 11.4554 36.2406C11.7601 35.9125 12.0882 35.6031 12.4398 35.3172C12.482 35.2844 12.5336 35.2234 12.5851 35.2047C12.3836 35.2984 12.5242 35.2516 12.5898 35.2047C12.6742 35.1438 12.7539 35.0828 12.8382 35.0266C13.0304 34.8906 13.232 34.7641 13.4382 34.6469C13.6257 34.5391 13.8179 34.4359 14.0101 34.3375C14.1039 34.2906 14.1976 34.2484 14.2914 34.2063C14.3336 34.1875 14.4179 34.1312 14.4601 34.1312C14.3336 34.1828 14.3148 34.1922 14.4086 34.1547C14.4461 34.1406 14.4836 34.1219 14.5257 34.1078C14.957 33.9391 15.3976 33.8031 15.8476 33.7C16.0539 33.6531 16.2648 33.6109 16.4757 33.5781C16.5367 33.5687 16.607 33.5453 16.6679 33.55C16.4195 33.5406 16.6023 33.5594 16.6726 33.55C16.8039 33.5359 16.9304 33.5219 17.0617 33.5172C17.2961 33.5031 17.5304 33.4938 17.7601 33.4938C18.5523 33.4938 19.3445 33.4938 20.132 33.4938C22.4101 33.4938 24.6836 33.4938 26.9617 33.4938C27.0226 33.4938 27.0836 33.4938 27.1398 33.4938C27.3554 33.4938 27.5711 33.5031 27.7914 33.5172C27.9226 33.5266 28.0586 33.5359 28.1898 33.5547C28.2273 33.5594 28.4898 33.5969 28.2554 33.5594C28.3351 33.5734 28.4101 33.5828 28.4898 33.5969C29.0664 33.6953 29.6336 33.8453 30.1773 34.0516C30.2383 34.075 30.2992 34.0984 30.3554 34.1219C30.3882 34.1359 30.6226 34.2391 30.4164 34.1453C30.5336 34.1969 30.6507 34.2484 30.7633 34.3047C31.0398 34.4359 31.307 34.5812 31.5648 34.7406C31.7804 34.8719 31.9914 35.0125 32.1976 35.1625C32.2586 35.2047 32.3242 35.2516 32.3804 35.2984C32.2164 35.1578 32.3429 35.2703 32.3851 35.3031C32.5023 35.3969 32.6195 35.4953 32.732 35.5937C33.1164 35.9312 33.4726 36.3016 33.7961 36.7C33.8336 36.7469 33.8664 36.7891 33.9039 36.8359C33.9929 36.9484 33.7726 36.6531 33.9039 36.8406C33.9789 36.9438 34.0539 37.0469 34.1289 37.1547C34.2789 37.375 34.4242 37.6047 34.5554 37.8391C34.6773 38.0547 34.7898 38.275 34.8929 38.4953C34.9164 38.5469 34.9398 38.6031 34.9679 38.6547C35.0711 38.875 34.8976 38.4672 34.982 38.6922C35.0336 38.8234 35.0851 38.9547 35.132 39.0906C35.3007 39.5641 35.4273 40.0516 35.5211 40.5484C35.5351 40.6187 35.5445 40.6937 35.5586 40.7641C35.5679 40.8109 35.6195 41.05 35.5679 40.8062C35.5914 40.9234 35.5961 41.05 35.6054 41.1719C35.6382 41.4297 35.6476 41.7016 35.6476 41.9781C35.6476 42.4703 36.0789 42.9391 36.5851 42.9156C37.0914 42.8922 37.5226 42.5031 37.5226 41.9781C37.5132 39.5969 36.6929 37.3328 35.2164 35.4672C33.7586 33.625 31.607 32.3078 29.3054 31.8344C28.2039 31.6094 27.1117 31.6094 25.9961 31.6094C24.7211 31.6094 23.4508 31.6094 22.1758 31.6094C20.9664 31.6094 19.7523 31.6094 18.5429 31.6094C17.4273 31.6094 16.3211 31.6422 15.2289 31.9094C11.3007 32.8656 8.14137 36.2312 7.50387 40.2344C7.29762 41.5422 7.35387 42.8734 7.35387 44.1906C7.35387 44.6406 7.32575 45.1 7.36325 45.55C7.47106 46.7828 8.35231 47.9125 9.59919 48.1656C10.0679 48.2594 10.5414 48.2359 11.0195 48.2359C11.7976 48.2359 12.5804 48.2359 13.3586 48.2359C15.8476 48.2359 18.332 48.2359 20.8211 48.2359C23.5539 48.2359 26.2867 48.2359 29.0195 48.2359C30.7445 48.2359 32.4742 48.2359 34.1992 48.2359C34.3351 48.2359 34.4711 48.2359 34.607 48.2359C35.3992 48.2312 36.1961 47.9172 36.7351 47.3266C37.1898 46.825 37.4476 46.2203 37.5039 45.55C37.5179 45.3906 37.5132 45.2313 37.5132 45.0672C37.5132 44.4391 37.5132 43.8109 37.5132 43.1828C37.5132 42.7797 37.5132 42.3766 37.5132 41.9734C37.5132 41.4813 37.082 41.0125 36.5757 41.0359C36.0789 41.0594 35.6476 41.4484 35.6476 41.9781Z" fill="white"/>
<path d="M50.7663 39.5125C50.7663 40.1172 50.7663 40.7219 50.7663 41.3313C50.7663 41.6969 50.7663 42.0578 50.7663 42.4234C50.7663 42.5078 50.7616 42.5875 50.7663 42.6719C50.7663 42.6766 50.7663 42.6812 50.7663 42.6859V42.7516C50.7522 42.7375 50.8178 42.5734 50.7803 42.6578C50.7709 42.6813 50.7616 42.7234 50.7569 42.7469C50.7241 42.925 50.7616 42.6812 50.785 42.6953C50.785 42.6953 50.7475 42.7703 50.7428 42.775C50.6491 42.9578 50.7569 42.7469 50.7663 42.7562C50.7709 42.7609 50.6397 42.8875 50.6397 42.8828C50.6022 42.8453 50.8178 42.7797 50.6819 42.8406C50.6584 42.85 50.6256 42.8687 50.6022 42.8828C50.5178 42.9438 50.6819 42.8312 50.6866 42.85C50.6866 42.8547 50.5834 42.8781 50.5694 42.8828C50.4053 42.9344 50.7522 42.8875 50.5647 42.8781C50.5506 42.8781 50.5319 42.8781 50.5178 42.8781C50.4147 42.8781 50.3069 42.8781 50.2038 42.8781C49.7491 42.8781 49.2897 42.8781 48.835 42.8781C47.2928 42.8781 45.7506 42.8781 44.2038 42.8781C42.5631 42.8781 40.9178 42.8781 39.2772 42.8781C38.3959 42.8781 37.5053 42.8453 36.6194 42.8781C36.6053 42.8781 36.5913 42.8781 36.5772 42.8781C36.8913 43.1922 37.2006 43.5016 37.5147 43.8156C37.5147 42.8828 37.5616 41.9359 37.4678 41.0078C37.2803 39.1844 36.6569 37.4172 35.5694 35.9313C34.9272 35.0594 34.1913 34.3188 33.3334 33.6578C33.3944 34.15 33.46 34.6375 33.5209 35.1297C33.5772 35.0828 33.6334 35.0312 33.6897 34.9844C33.7178 34.9609 33.9147 34.8109 33.7319 34.9469C33.8303 34.8719 33.9288 34.8016 34.0319 34.7313C34.2803 34.5672 34.5381 34.4172 34.8006 34.2859C34.8663 34.2531 34.9366 34.225 35.0022 34.1922C35.2272 34.0844 34.8194 34.2578 35.0538 34.1688C35.1709 34.1266 35.2881 34.0797 35.4053 34.0422C35.6959 33.9438 35.9866 33.8688 36.2866 33.8125C36.3569 33.7984 36.4413 33.775 36.5163 33.775C36.2819 33.7797 36.5303 33.775 36.5725 33.7703C36.7038 33.7563 36.8303 33.7469 36.9616 33.7422C37.0741 33.7375 37.1866 33.7328 37.3038 33.7328C37.4069 33.7328 37.51 33.7328 37.6131 33.7328C38.7756 33.7328 39.9428 33.7328 41.1053 33.7328C42.2725 33.7328 43.4397 33.7328 44.6022 33.7328C44.7147 33.7328 44.8272 33.7328 44.9397 33.7328C44.9725 33.7328 45.01 33.7328 45.0428 33.7328C45.1741 33.7328 45.3053 33.7375 45.4366 33.7469C45.5397 33.7563 45.7366 33.7328 45.8256 33.7844C45.7834 33.7797 45.7459 33.775 45.7038 33.7703C45.7459 33.775 45.7881 33.7844 45.8303 33.7891C45.8913 33.7984 45.9569 33.8125 46.0178 33.8219C46.1209 33.8406 46.2241 33.8641 46.3272 33.8922C46.5709 33.9531 46.8147 34.0234 47.0491 34.1125C47.11 34.1359 47.1663 34.1594 47.2225 34.1781C47.4194 34.2531 47.0772 34.1078 47.1991 34.1688C47.3022 34.2203 47.4053 34.2625 47.5084 34.3141C47.7288 34.4266 47.9444 34.5484 48.1506 34.6844C48.2538 34.75 48.3569 34.8203 48.4553 34.8953C48.4741 34.9094 48.4881 34.9188 48.5069 34.9328C48.5866 34.9938 48.5725 34.9797 48.4647 34.9C48.5209 34.9094 48.61 35.0172 48.6569 35.0547C48.8538 35.2188 49.0366 35.3969 49.21 35.5844C49.2991 35.6828 49.3881 35.7813 49.4725 35.8844C49.4959 35.9172 49.5803 35.9875 49.5897 36.0297C49.5147 35.9266 49.4959 35.9078 49.5381 35.9594C49.5569 35.9828 49.5756 36.0063 49.5944 36.0344C49.7538 36.25 49.8944 36.475 50.0256 36.7094C50.0959 36.8359 50.1616 36.9625 50.2272 37.0938C50.2459 37.1312 50.2647 37.1688 50.2788 37.2063C50.2975 37.2438 50.3116 37.2812 50.3303 37.3187C50.2788 37.1922 50.2694 37.1734 50.3069 37.2672C50.4053 37.5203 50.4944 37.7781 50.5647 38.0406C50.5975 38.1625 50.6256 38.2891 50.6538 38.4109C50.6678 38.4719 50.6772 38.5375 50.6913 38.5984C50.7006 38.6641 50.7194 38.95 50.7053 38.6688C50.7288 38.95 50.7663 39.2266 50.7663 39.5125C50.7709 40.0047 51.1975 40.4734 51.7038 40.45C52.21 40.4266 52.6459 40.0375 52.6413 39.5125C52.6319 37.3188 51.6756 35.1578 49.9975 33.7328C48.5584 32.5141 46.7772 31.8672 44.8928 31.8672C42.5397 31.8672 40.1866 31.8672 37.8381 31.8672C37.2569 31.8672 36.6897 31.8813 36.1131 31.9656C34.6553 32.1766 33.3147 32.8469 32.2084 33.8078C31.9881 34 31.9131 34.3188 31.9506 34.5953C31.9928 34.9094 32.1569 35.0922 32.3959 35.2797C32.2131 35.1391 32.4334 35.3125 32.4803 35.35C32.56 35.4156 32.6397 35.4859 32.7194 35.5516C32.8788 35.6875 33.0288 35.8328 33.1788 35.9828C33.3194 36.1234 33.4553 36.2688 33.5819 36.4141C33.6428 36.4844 33.7038 36.5547 33.7647 36.625C33.7928 36.6625 33.8256 36.6953 33.8538 36.7328C33.8725 36.7562 33.9897 36.9156 33.91 36.8031C33.8209 36.6812 33.9569 36.8688 33.9616 36.8781C33.9897 36.9156 34.0178 36.9531 34.0413 36.9906C34.0975 37.0656 34.1491 37.1453 34.2006 37.2203C34.3178 37.3938 34.4303 37.5766 34.5334 37.7547C34.6272 37.9188 34.7163 38.0828 34.8006 38.2516C34.8428 38.3359 34.885 38.4203 34.9225 38.5047C34.9413 38.5469 34.96 38.5891 34.9788 38.6312C35.0678 38.8234 34.9225 38.4859 34.9928 38.6688C35.1428 39.0438 35.2741 39.4281 35.3772 39.8172C35.4288 40.0141 35.4756 40.2156 35.5131 40.4172C35.5319 40.525 35.5506 40.6328 35.5694 40.7406C35.5741 40.7781 35.5975 40.8578 35.5928 40.8859C35.5881 40.8531 35.5834 40.8156 35.5788 40.7828C35.5834 40.8203 35.5881 40.8578 35.5928 40.8906C35.6538 41.4109 35.6538 41.9359 35.6538 42.4563C35.6538 42.9063 35.6538 43.3563 35.6538 43.8063C35.6538 44.3125 36.085 44.7438 36.5913 44.7438C37.3413 44.7438 38.0959 44.7438 38.8459 44.7438C40.4959 44.7438 42.1459 44.7438 43.7913 44.7438C45.3991 44.7438 47.0022 44.7438 48.61 44.7438C49.1116 44.7438 49.6131 44.7438 50.1147 44.7438C50.5413 44.7438 50.9538 44.7531 51.3616 44.5797C52.1397 44.2516 52.6225 43.5109 52.6459 42.6672C52.6506 42.4375 52.6459 42.2031 52.6459 41.9688C52.6459 41.2 52.6459 40.4312 52.6459 39.6625C52.6459 39.6062 52.6459 39.5547 52.6459 39.4984C52.6459 39.0062 52.2147 38.5375 51.7084 38.5609C51.1975 38.5984 50.7663 38.9875 50.7663 39.5125Z" fill="white"/>
</svg>
