<svg width="256" height="236" viewBox="0 0 256 236" fill="none" xmlns="http://www.w3.org/2000/svg">
<g clip-path="url(#clip0_1210_6243)">
<path d="M153.121 236C175.034 236 192.797 230.683 192.797 224.125C192.797 217.567 175.034 212.25 153.121 212.25C131.209 212.25 113.445 217.567 113.445 224.125C113.445 230.683 131.209 236 153.121 236Z" fill="#080717"/>
<path d="M17.5459 152.277V163.354" stroke="black" stroke-width="2"/>
<path d="M23.128 157.865H11.9629" stroke="black" stroke-width="2"/>
<path d="M40.2744 165.549V189.299" stroke="black" stroke-width="2"/>
<path d="M52.137 177.424H28.4111" stroke="black" stroke-width="2"/>
<path d="M70.2805 67.3556L22.7291 59.173L20.7354 46.5996L70.2805 67.3556Z" fill="#080717"/>
<path d="M70.2808 50.3924L36.3867 37.3201L40.773 27.6406L70.2808 50.3924Z" fill="#080717"/>
<path d="M66.4927 76.0387L44.96 83.4231L45.259 75.1406L66.4927 76.0387Z" fill="#080717"/>
<path d="M209.943 90.4082L255.9 105.277L255.999 118.05L209.943 90.4082Z" fill="#080717"/>
<path d="M207.352 99.9883L230.081 119.846L221.109 127.031L207.352 99.9883Z" fill="#080717"/>
<path d="M214.928 82.3257L237.358 78.2344L235.763 86.3172L214.928 82.3257Z" fill="#080717"/>
<path d="M136.026 98.1311L126.372 101.328L141.684 147.656L151.337 144.459L136.026 98.1311Z" fill="white" stroke="#080717" stroke-width="2" stroke-miterlimit="10" stroke-linecap="round" stroke-linejoin="round"/>
<path d="M134.679 155.372C135.776 147.987 133.981 140.403 129.794 134.117L127.402 130.524L136.872 124.238C140.461 121.843 142.854 117.851 143.053 113.461C143.153 111.864 141.657 110.666 140.162 111.066L121.121 116.255C113.645 118.25 108.76 125.236 109.259 132.919L110.255 147.588L130.093 223.727C130.093 223.727 161.595 241.09 187.215 223.727L152.025 169.642L158.505 166.947C165.483 165.55 171.664 161.559 175.85 155.971L178.143 153.077L170.069 121.144L140.262 124.936" fill="#DBDBDB"/>
<path d="M152.923 159.262L149.334 160.46C143.652 162.356 137.471 159.262 135.577 153.475L122.119 112.661L146.443 104.578L159.901 145.392C161.695 151.179 158.605 157.366 152.923 159.262Z" fill="#080717"/>
<path d="M129.499 101.497C145.295 95.3252 149.613 68.5564 139.143 41.7074C128.673 14.8584 107.381 -1.90374 91.5852 4.26816C75.7894 10.44 71.4717 37.2088 81.9414 64.0578C92.4111 90.9068 113.703 107.669 129.499 101.497Z" fill="#080717" stroke="#080717" stroke-width="2" stroke-miterlimit="10" stroke-linecap="round" stroke-linejoin="round"/>
<path d="M135.485 99.3101C150.101 93.5991 153.462 67.204 142.993 40.355C132.523 13.5059 112.187 -3.62982 97.5705 2.08118C82.9543 7.79219 79.5928 34.1873 90.0625 61.0363C100.532 87.8853 120.868 105.021 135.485 99.3101Z" fill="white" stroke="#080717" stroke-width="2" stroke-miterlimit="10" stroke-linecap="round" stroke-linejoin="round"/>
<path d="M133.764 91.6574C145.611 87.0285 147.993 64.7566 139.085 41.9119C130.177 19.0671 113.351 4.30022 101.504 8.92915C89.6575 13.5581 87.2753 35.8299 96.1835 58.6747C105.092 81.5194 121.917 96.2863 133.764 91.6574Z" fill="white" stroke="#080717" stroke-width="2" stroke-miterlimit="10" stroke-linecap="round" stroke-linejoin="round"/>
<path d="M110.256 147.788L109.259 133.019C108.76 125.335 113.745 118.35 121.122 116.255L140.162 111.066C141.658 110.666 143.153 111.864 143.053 113.461C142.754 117.851 140.461 121.843 136.873 124.238L127.402 130.524L129.795 134.117C133.982 140.403 135.676 147.987 134.679 155.472" fill="#DBDBDB"/>
<path d="M171.166 131.521C169.272 131.521 167.477 130.722 166.181 129.225C164.088 126.83 158.605 125.433 156.312 125.134C152.624 124.635 150.131 121.242 150.53 117.65C151.029 113.958 154.418 111.463 158.007 111.862C159.203 112.062 170.169 113.658 176.15 120.444C178.543 123.238 178.343 127.429 175.552 129.924C174.356 131.022 172.761 131.521 171.166 131.521Z" fill="#DBDBDB" stroke="#080717" stroke-width="2" stroke-miterlimit="10" stroke-linecap="round" stroke-linejoin="round"/>
<path d="M171.863 144.294C169.969 144.294 168.174 143.496 166.878 141.999C164.785 139.604 159.402 138.207 157.009 137.907C153.321 137.408 150.829 134.016 151.327 130.423C151.825 126.731 155.215 124.236 158.804 124.735C160 124.935 170.966 126.532 176.947 133.317C179.34 136.111 179.14 140.302 176.349 142.797C174.953 143.695 173.358 144.294 171.863 144.294Z" fill="#DBDBDB" stroke="#080717" stroke-width="2" stroke-miterlimit="10" stroke-linecap="round" stroke-linejoin="round"/>
<path d="M167.477 154.073C165.384 151.678 159.901 150.281 157.608 149.982C153.919 149.483 151.427 146.09 151.826 142.498C152.324 138.805 155.714 136.211 159.303 136.71C160.499 136.909 171.465 138.506 177.446 145.292C179.838 148.086 179.639 152.277 176.848 154.772" fill="#DBDBDB"/>
<path d="M167.477 154.073C165.384 151.678 159.901 150.281 157.608 149.982C153.919 149.483 151.427 146.09 151.826 142.498C152.324 138.805 155.714 136.211 159.303 136.71C160.499 136.909 171.465 138.506 177.446 145.292C179.838 148.086 179.639 152.277 176.848 154.772" stroke="#080717" stroke-width="2" stroke-miterlimit="10" stroke-linecap="round" stroke-linejoin="round"/>
<path d="M125.608 66.9581H185.521C196.686 66.9581 205.857 57.8774 205.857 46.6012V43.2084C205.857 32.0321 196.786 22.8516 185.521 22.8516H125.608C114.443 22.8516 105.271 31.9323 105.271 43.2084V46.6012C105.271 57.8774 114.443 66.9581 125.608 66.9581Z" fill="#FFD256"/>
<path d="M126.704 51.4902V79.0319L149.632 54.1845L126.704 51.4902Z" fill="#FFD256"/>
<path d="M122.916 39.916H186.218" stroke="#1D1D1B" stroke-width="2" stroke-miterlimit="10"/>
<path d="M122.916 47.998H186.218" stroke="#1D1D1B" stroke-width="2" stroke-miterlimit="10"/>
<path d="M80.1495 140.302H20.3365C9.07165 140.302 0 131.221 0 119.945V116.552C0 105.376 9.07165 96.1953 20.3365 96.1953H80.2492C91.4143 96.1953 100.586 105.276 100.586 116.552V119.945C100.486 131.221 91.4143 140.302 80.1495 140.302Z" fill="black"/>
<path d="M79.0534 124.834V152.376L56.125 127.528L79.0534 124.834Z" fill="black"/>
<path d="M82.9409 113.26H19.6387" stroke="white" stroke-width="2" stroke-miterlimit="10"/>
<path d="M82.9409 121.342H19.6387" stroke="white" stroke-width="2" stroke-miterlimit="10"/>
<path d="M172.96 76.3379H186.119C192.898 76.3379 198.281 81.8263 198.281 88.5121C198.281 94.7988 193.496 99.9878 187.415 100.686V107.173L180.536 100.786H172.96C166.181 100.786 160.798 95.2977 160.798 88.6119C160.798 81.8263 166.181 76.3379 172.96 76.3379Z" stroke="#282D33" stroke-width="2"/>
<path d="M171.464 86.2168H187.613" stroke="#282D33" stroke-width="2"/>
<path d="M171.464 91.4062H187.613" stroke="#282D33" stroke-width="2"/>
</g>
<defs>
<clipPath id="clip0_1210_6243">
<rect width="256" height="236" fill="white"/>
</clipPath>
</defs>
</svg>
