<svg width="256" height="256" viewBox="0 0 256 256" fill="none" xmlns="http://www.w3.org/2000/svg">
<path d="M31.6499 132.449H168.9C171.1 132.449 172.9 134.249 172.9 136.449V165.949C172.9 168.149 171.1 169.949 168.9 169.949H31.6499C29.4499 169.949 27.6499 168.149 27.6499 165.949V136.449C27.6499 134.199 29.4499 132.449 31.6499 132.449Z" fill="white"/>
<path d="M168.9 170.449H31.6499C29.1499 170.449 27.1499 168.449 27.1499 165.949V136.449C27.1499 133.949 29.1499 131.949 31.6499 131.949H168.85C171.35 131.949 173.35 133.949 173.35 136.449V165.949C173.4 168.399 171.35 170.449 168.9 170.449ZM31.6499 132.899C29.6999 132.899 28.1499 134.449 28.1499 136.399V165.899C28.1499 167.849 29.6999 169.399 31.6499 169.399H168.85C170.8 169.399 172.35 167.849 172.35 165.899V136.399C172.35 134.449 170.8 132.899 168.85 132.899H31.6499Z" fill="#231815"/>
<path d="M47.4 162.65C53.7236 162.65 58.8499 157.524 58.8499 151.2C58.8499 144.876 53.7236 139.75 47.4 139.75C41.0763 139.75 35.95 144.876 35.95 151.2C35.95 157.524 41.0763 162.65 47.4 162.65Z" fill="#EEEEEF"/>
<path d="M162.3 142.051H64.75V145.051H162.3V142.051Z" fill="#EEEEEF"/>
<path d="M162.3 149.398H64.75V152.398H162.3V149.398Z" fill="#EEEEEF"/>
<path d="M147.3 156.5H64.75V159.5H147.3V156.5Z" fill="#EEEEEF"/>
<path d="M17.7 123.898H182.95V144.898C182.95 147.098 181.15 148.898 178.95 148.898H21.7C19.5 148.898 17.7 147.098 17.7 144.898V123.898Z" fill="#231815"/>
<path d="M178.95 149.398H21.7C19.2 149.398 17.2 147.398 17.2 144.898V123.898C17.2 123.598 17.4 123.398 17.7 123.398H182.95C183.25 123.398 183.45 123.598 183.45 123.898V144.898C183.45 147.348 181.4 149.398 178.95 149.398ZM18.2 124.398V144.898C18.2 146.848 19.75 148.398 21.7 148.398H178.95C180.9 148.398 182.45 146.848 182.45 144.898V124.398H18.2Z" fill="#231815"/>
<path d="M21.7 31.6992H178.95C181.15 31.6992 182.95 33.4992 182.95 35.6992V142.899C182.95 145.099 181.15 146.899 178.95 146.899H21.7C19.5 146.899 17.7 145.099 17.7 142.899V35.6992C17.7 33.4492 19.5 31.6992 21.7 31.6992Z" fill="white"/>
<path d="M178.95 147.399H21.7C19.2 147.399 17.2 145.399 17.2 142.899V35.6992C17.2 33.1992 19.2 31.1992 21.7 31.1992H178.95C181.45 31.1992 183.45 33.1992 183.45 35.6992V142.899C183.45 145.399 181.4 147.399 178.95 147.399ZM21.7 32.1992C19.75 32.1992 18.2 33.7492 18.2 35.6992V142.899C18.2 144.849 19.75 146.399 21.7 146.399H178.95C180.9 146.399 182.45 144.849 182.45 142.899V35.6992C182.45 33.7492 180.9 32.1992 178.95 32.1992H21.7Z" fill="#231815"/>
<path d="M172.1 89.0508H28.55C28.25 89.0508 28.05 88.8508 28.05 88.5508C28.05 88.2508 28.25 88.0508 28.55 88.0508H172.1C172.4 88.0508 172.6 88.2508 172.6 88.5508C172.6 88.8508 172.4 89.0508 172.1 89.0508Z" fill="#231815"/>
<path d="M41.2499 70.4992C48.7885 70.4992 54.8999 64.3879 54.8999 56.8492C54.8999 49.3105 48.7885 43.1992 41.2499 43.1992C33.7112 43.1992 27.5999 49.3105 27.5999 56.8492C27.5999 64.3879 33.7112 70.4992 41.2499 70.4992Z" fill="#231815"/>
<path d="M41.2499 124.999C48.7885 124.999 54.8999 118.888 54.8999 111.349C54.8999 103.811 48.7885 97.6992 41.2499 97.6992C33.7112 97.6992 27.5999 103.811 27.5999 111.349C27.5999 118.888 33.7112 124.999 41.2499 124.999Z" fill="#F9C032"/>
<path d="M172.1 44.4492H61.25V47.4492H172.1V44.4492Z" fill="#EEEEEF"/>
<path d="M144.15 51.1484H61.25V54.1484H144.15V51.1484Z" fill="#EEEEEF"/>
<path d="M172.1 100.398H61.25V103.398H172.1V100.398Z" fill="#EEEEEF"/>
<path d="M129.6 107.098H61.25V110.098H129.6V107.098Z" fill="#EEEEEF"/>
<path d="M46.3499 117.849C45.9499 117.849 45.6 117.599 45.45 117.249L41.15 106.999L36.8499 117.149C36.6499 117.649 36.0499 117.899 35.5499 117.699C35.0499 117.499 34.8 116.899 35 116.399L40.25 104.049C40.4 103.699 40.75 103.449 41.15 103.449C41.55 103.449 41.8999 103.699 42.0499 104.049L47.25 116.499C47.45 116.999 47.2 117.599 46.7 117.799C46.6 117.849 46.4499 117.849 46.3499 117.849Z" fill="#F7F7F7"/>
<path d="M45 114.699H37.55C37 114.699 36.55 114.249 36.55 113.699C36.55 113.149 37 112.699 37.55 112.699H45C45.55 112.699 46 113.149 46 113.699C46 114.249 45.55 114.699 45 114.699Z" fill="#F7F7F7"/>
<path d="M41.25 63.3977C38.2 63.3977 35.75 60.9477 35.75 57.8977V55.0977C35.75 52.0477 38.2 49.5977 41.25 49.5977C44.3 49.5977 46.75 52.0477 46.75 55.0977V57.8977C46.75 60.8977 44.3 63.3977 41.25 63.3977ZM41.25 51.5477C39.3 51.5477 37.75 53.0977 37.75 55.0477V57.8477C37.75 59.7977 39.3 61.3477 41.25 61.3477C43.2 61.3477 44.75 59.7977 44.75 57.8477V55.0477C44.75 53.1477 43.2 51.5477 41.25 51.5477Z" fill="#F7F7F7"/>
<path d="M46.0999 63.848C45.8499 63.848 45.5999 63.748 45.4499 63.598L41.6499 60.148C41.2499 59.798 41.1999 59.148 41.5999 58.748C41.9499 58.348 42.5999 58.298 42.9999 58.698L46.7999 62.148C47.1999 62.498 47.2499 63.148 46.8499 63.548C46.6499 63.748 46.3499 63.848 46.0999 63.848Z" fill="#F7F7F7"/>
<path d="M76.15 58.8008H61.75V73.2008H76.15V58.8008Z" fill="#EEEEEF"/>
<path d="M94.15 58.8008H79.75V73.2008H94.15V58.8008Z" fill="#EEEEEF"/>
<path d="M111.8 58.8008H97.3999V73.2008H111.8V58.8008Z" fill="#EEEEEF"/>
<path d="M69.0998 115.699H105.8C110.1 115.699 113.6 119.199 113.6 123.499C113.6 127.799 110.1 131.299 105.8 131.299H69.0998C64.7998 131.299 61.2998 127.799 61.2998 123.499C61.2498 119.199 64.7498 115.699 69.0998 115.699Z" fill="#F9C032"/>
<path d="M67.95 121.547V126.497C67.95 126.697 68.2 126.797 68.35 126.697L71.4 124.347C71.65 124.147 71.65 123.747 71.4 123.547L68.35 121.297C68.2 121.197 67.95 121.347 67.95 121.547Z" fill="#231815"/>
<path d="M84.45 128.948C84.15 128.948 83.95 128.748 83.95 128.448V119.598C83.95 119.298 84.15 119.098 84.45 119.098C84.75 119.098 84.95 119.298 84.95 119.598V128.448C84.95 128.748 84.7 128.948 84.45 128.948Z" fill="#231815"/>
<path d="M82.05 127.948C81.75 127.948 81.55 127.748 81.55 127.448V120.598C81.55 120.298 81.75 120.098 82.05 120.098C82.35 120.098 82.55 120.298 82.55 120.598V127.448C82.55 127.748 82.35 127.948 82.05 127.948Z" fill="#231815"/>
<path d="M79.6499 126.948C79.3499 126.948 79.1499 126.748 79.1499 126.448V121.598C79.1499 121.298 79.3499 121.098 79.6499 121.098C79.9499 121.098 80.1499 121.298 80.1499 121.598V126.448C80.1499 126.748 79.8999 126.948 79.6499 126.948Z" fill="#231815"/>
<path d="M77.45 125.948C77.15 125.948 76.95 125.748 76.95 125.448V122.598C76.95 122.298 77.15 122.098 77.45 122.098C77.75 122.098 77.95 122.298 77.95 122.598V125.448C77.95 125.748 77.7 125.948 77.45 125.948Z" fill="#231815"/>
<path d="M86.8999 127.948C86.5999 127.948 86.3999 127.748 86.3999 127.448V120.598C86.3999 120.298 86.5999 120.098 86.8999 120.098C87.1999 120.098 87.3999 120.298 87.3999 120.598V127.448C87.3999 127.748 87.1999 127.948 86.8999 127.948Z" fill="#231815"/>
<path d="M89.3499 126.948C89.0499 126.948 88.8499 126.748 88.8499 126.448V121.598C88.8499 121.298 89.0499 121.098 89.3499 121.098C89.6499 121.098 89.8499 121.298 89.8499 121.598V126.448C89.8499 126.748 89.5999 126.948 89.3499 126.948Z" fill="#231815"/>
<path d="M91.55 125.948C91.25 125.948 91.05 125.748 91.05 125.448V122.598C91.05 122.298 91.25 122.098 91.55 122.098C91.85 122.098 92.05 122.298 92.05 122.598V125.448C92.05 125.748 91.8 125.948 91.55 125.948Z" fill="#231815"/>
<path d="M98.8999 128.948C98.5999 128.948 98.3999 128.748 98.3999 128.448V119.598C98.3999 119.298 98.5999 119.098 98.8999 119.098C99.1999 119.098 99.3999 119.298 99.3999 119.598V128.448C99.3999 128.748 99.1999 128.948 98.8999 128.948Z" fill="#231815"/>
<path d="M96.55 127.948C96.25 127.948 96.05 127.748 96.05 127.448V120.598C96.05 120.298 96.25 120.098 96.55 120.098C96.85 120.098 97.05 120.298 97.05 120.598V127.448C97.05 127.748 96.8 127.948 96.55 127.948Z" fill="#231815"/>
<path d="M94.0999 126.948C93.7999 126.948 93.5999 126.748 93.5999 126.448V121.598C93.5999 121.298 93.7999 121.098 94.0999 121.098C94.3999 121.098 94.5999 121.298 94.5999 121.598V126.448C94.5999 126.748 94.3999 126.948 94.0999 126.948Z" fill="#231815"/>
<path d="M101.4 127.948C101.1 127.948 100.9 127.748 100.9 127.448V120.598C100.9 120.298 101.1 120.098 101.4 120.098C101.7 120.098 101.9 120.298 101.9 120.598V127.448C101.9 127.748 101.65 127.948 101.4 127.948Z" fill="#231815"/>
<path d="M103.8 126.948C103.5 126.948 103.3 126.748 103.3 126.448V121.598C103.3 121.298 103.5 121.098 103.8 121.098C104.1 121.098 104.3 121.298 104.3 121.598V126.448C104.3 126.748 104.1 126.948 103.8 126.948Z" fill="#231815"/>
<path d="M106 125.948C105.7 125.948 105.5 125.748 105.5 125.448V122.598C105.5 122.298 105.7 122.098 106 122.098C106.3 122.098 106.5 122.298 106.5 122.598V125.448C106.5 125.748 106.3 125.948 106 125.948Z" fill="#231815"/>
<path d="M173.05 144.448C173.05 144.448 170.25 146.098 171.5 148.598C168.55 147.848 166.85 151.998 168.95 153.998C170.9 155.498 180.65 156.548 181.65 149.598C182.65 142.648 173.05 144.448 173.05 144.448Z" fill="#231815"/>
<path d="M146.3 187.05C146.3 187.05 144.85 167.4 144.4 160.05C144.2 156.7 144 156.6 145.9 153.45C147.8 150.3 149.65 144.8 149.25 142.05C148.75 138.5 145.45 137.65 145.45 137.65C145.45 137.65 145.55 122.1 145.45 119.75C145.35 116.95 145.75 114.5 142.15 114.5C138.4 114.5 138.8 118.75 138.65 121.55C138.45 124.8 137.85 130.55 137.85 132.9C136.7 133.05 135.8 131.25 134.1 131.35C132.4 131.45 132.1 132.8 130.8 133.15C129.1 133.6 128.1 132.65 126.8 132.8C125.25 132.95 124.85 134.75 123.75 135C122.65 135.25 121.8 134.4 119.85 134.9C117.6 135.5 118.4 141.25 118.4 141.25C118.4 141.25 118.95 146.2 119.25 148.4C119.85 153.15 121.55 154.7 123.45 155.7C123.45 160.5 122.25 210.7 122.25 210.7C122.25 210.7 124.75 221.55 139.35 225.35C150.75 228.3 158.4 221.85 158.4 221.85L170.5 191.5L146.3 187.05Z" fill="white"/>
<path d="M145.45 226.651C143.6 226.651 141.55 226.401 139.4 225.851C131.7 223.851 127.35 219.901 125.1 216.901C122.6 213.651 121.95 210.901 121.95 210.801C121.95 210.751 121.95 210.701 121.95 210.701C121.95 210.201 123.1 162.201 123.1 156.001C121.25 155.001 119.5 153.301 118.9 148.451C118.6 146.251 118.05 141.301 118.05 141.251C117.95 140.651 117.25 135.101 119.85 134.351C121.1 134.001 121.95 134.201 122.6 134.351C123.05 134.451 123.4 134.501 123.75 134.451C124.05 134.401 124.35 134.051 124.7 133.651C125.2 133.051 125.8 132.351 126.9 132.251C127.55 132.201 128.1 132.351 128.65 132.501C129.35 132.701 129.95 132.851 130.8 132.651C131.25 132.551 131.55 132.251 131.9 131.901C132.45 131.401 133.05 130.851 134.15 130.801C135.2 130.751 136 131.301 136.65 131.801C136.95 132.001 137.2 132.201 137.4 132.301C137.45 130.851 137.65 128.651 137.8 126.551C137.95 124.751 138.1 122.901 138.2 121.551C138.2 121.201 138.25 120.851 138.25 120.501C138.35 117.751 138.45 114.051 142.25 114.051C145.9 114.051 145.95 116.501 146 118.851C146 119.151 146 119.451 146.05 119.801C146.15 121.951 146.05 134.951 146.05 137.351C147 137.701 149.4 138.901 149.85 142.051C150.25 144.951 148.35 150.551 146.4 153.751C144.75 156.501 144.75 156.701 144.9 159.301L144.95 160.051C145.35 166.751 146.6 183.851 146.8 186.651L170.6 191.051C170.75 191.101 170.85 191.151 170.95 191.301C171 191.451 171.05 191.601 171 191.751L159.1 222.101C159.05 222.201 159 222.251 158.95 222.301C158.85 222.301 153.6 226.651 145.45 226.651ZM122.95 210.651C123.05 211.051 123.75 213.501 125.95 216.351C128.15 219.201 132.3 222.951 139.7 224.901C150.05 227.601 157.3 222.301 158.2 221.601L169.85 191.951L146.3 187.601C146.05 187.551 145.9 187.401 145.9 187.151C145.9 186.951 144.45 167.451 144 160.151L143.95 159.401C143.8 156.601 143.8 156.201 145.6 153.301C147.45 150.201 149.25 144.851 148.9 142.251C148.45 139.051 145.5 138.251 145.5 138.251C145.3 138.201 145.1 138.001 145.1 137.751C145.1 137.601 145.2 122.151 145.1 119.901C145.1 119.601 145.1 119.251 145.05 118.951C145 116.401 144.85 115.151 142.3 115.151C139.7 115.151 139.4 117.451 139.3 120.651C139.3 121.001 139.3 121.401 139.25 121.701C139.15 123.101 139 124.951 138.85 126.751C138.65 129.201 138.45 131.701 138.45 133.051C138.45 133.301 138.25 133.501 138 133.551C137.25 133.651 136.7 133.201 136.1 132.801C135.5 132.351 134.95 131.951 134.25 132.001C133.5 132.051 133.05 132.401 132.6 132.851C132.2 133.201 131.75 133.601 131.05 133.801C129.95 134.101 129.1 133.851 128.35 133.651C127.85 133.501 127.4 133.401 126.95 133.451C126.25 133.501 125.85 134.001 125.4 134.501C125 135.001 124.55 135.451 123.9 135.601C123.35 135.751 122.8 135.601 122.35 135.501C121.7 135.351 121.05 135.201 120.05 135.501C118.55 135.901 118.8 139.901 119 141.301C119 141.351 119.55 146.301 119.85 148.451C120.4 153.051 122.05 154.501 123.8 155.351C123.95 155.451 124.05 155.601 124.05 155.801C124.1 160.401 123 208.551 122.95 210.651Z" fill="#231815"/>
<path d="M145.3 137.597C145.3 137.597 130.7 136.397 129.7 140.747C129.45 141.897 129.7 143.147 131.3 143.997C134.25 145.547 139.6 144.847 139.6 144.847C139.6 144.847 138.95 147.497 140.9 149.597" fill="white"/>
<path d="M140.9 150.097C140.75 150.097 140.65 150.047 140.55 149.947C139.05 148.347 138.95 146.447 139 145.447C137.45 145.597 133.55 145.747 131.05 144.497C128.95 143.397 129 141.647 129.2 140.697C130.25 136.097 143.75 137.047 145.3 137.197C145.6 137.197 145.8 137.447 145.75 137.747C145.75 137.997 145.5 138.247 145.2 138.197C145.15 138.197 141.55 137.897 137.85 138.147C133.25 138.447 130.5 139.447 130.15 140.947C129.9 142.147 130.35 143.047 131.5 143.647C134.3 145.097 139.45 144.447 139.5 144.447C139.65 144.447 139.85 144.497 139.95 144.597C140.05 144.697 140.1 144.897 140.05 145.047C140.05 145.147 139.5 147.447 141.25 149.347C141.45 149.547 141.45 149.847 141.25 150.047C141.15 150.047 141.05 150.097 140.9 150.097Z" fill="#231815"/>
<path d="M181.85 144.652C181.85 144.652 182.25 147.602 180.95 149.502C179.65 151.402 177.05 151.352 177.05 151.352C177.05 151.352 178.9 158.052 186.95 158.452C196 158.902 199.1 151.352 199.1 151.352C199.1 151.352 194.15 151.602 194 149.102C193.65 143.402 193.8 136.152 193.8 136.152" fill="white"/>
<path d="M187.75 158.951C187.5 158.951 187.25 158.951 187 158.951C182.65 158.751 180.1 156.751 178.65 155.101C177.1 153.301 176.65 151.601 176.6 151.501L176.4 150.851H177.05C177.05 150.851 179.4 150.801 180.5 149.201C181.65 147.501 181.3 144.751 181.3 144.701L182.3 144.551C182.3 144.701 182.7 147.751 181.35 149.751C180.35 151.201 178.7 151.651 177.75 151.751C178.4 153.351 180.7 157.601 187 157.901C194.05 158.251 197.3 153.601 198.3 151.801C196.75 151.751 193.65 151.351 193.5 149.051C193.15 143.401 193.3 136.101 193.3 136.051H194.3C194.3 136.101 194.15 143.351 194.5 148.951C194.65 150.951 199.05 150.751 199.1 150.751L199.9 150.701L199.6 151.451C199.6 151.601 196.45 158.951 187.75 158.951Z" fill="#231815"/>
<path d="M145.95 187.45C145.95 187.45 150.15 164.2 153.2 160.85C156.25 157.5 158.9 152.65 177.8 151.25C178.15 154.05 182.8 156.8 187.4 156.65C193.65 156.45 197.65 151.55 197.65 151.55C197.65 151.55 219 151.75 225.95 159.4C232.25 166.3 239.15 191.55 239.15 191.55L215.45 196.5C215.45 196.5 219.35 230.55 220 234.25H156.9C156.9 234.25 159.6 203.5 159.9 200.8C159 199.05 154.65 194.7 154.1 189.05C149.05 188.1 145.95 187.45 145.95 187.45Z" fill="#F9C032"/>
<path d="M191.15 137.851C191.15 137.851 197.45 138.151 198.1 131.601C198.55 126.901 194.25 125.801 192 128.051C193.45 113.601 182.75 113.001 177.95 114.201C173.8 115.251 171.4 118.051 170.35 126.501C169.95 129.851 167.45 131.801 167.45 133.101C167.45 134.251 169.55 135.101 169.55 135.101C169.55 135.101 169.5 147.051 179.35 147.051C182.9 147.051 185.45 145.351 187.3 143.701" fill="white"/>
<path d="M179.35 147.6C176.65 147.6 174.4 146.75 172.65 145C169.5 141.85 169.1 136.85 169.05 135.5C168.4 135.2 166.95 134.35 166.95 133.2C166.95 132.5 167.4 131.8 168 130.9C168.75 129.75 169.65 128.35 169.9 126.5C171 117.3 173.9 114.75 177.85 113.75C180.95 112.95 185.75 113.05 189 115.85C191.7 118.2 192.9 121.95 192.6 127C193.75 126.35 195.15 126.25 196.35 126.8C198 127.6 198.8 129.35 198.6 131.65C198.05 137.2 193.5 138.5 191.15 138.35C190.85 138.35 190.65 138.1 190.65 137.85C190.65 137.55 190.9 137.35 191.15 137.35C191.4 137.35 196.95 137.55 197.55 131.55C197.75 129.7 197.1 128.3 195.85 127.7C194.7 127.15 193.25 127.45 192.3 128.4C192.15 128.55 191.9 128.6 191.75 128.5C191.55 128.4 191.45 128.2 191.45 128C192 122.7 190.9 118.85 188.25 116.6C185.3 114.05 180.9 114 178 114.7C174.3 115.65 171.8 117.95 170.8 126.6C170.55 128.7 169.5 130.25 168.75 131.4C168.3 132.1 167.9 132.75 167.9 133.15C167.9 133.7 168.95 134.4 169.7 134.65C169.9 134.75 170 134.9 170 135.1C170 135.15 170.05 140.95 173.3 144.25C174.85 145.8 176.85 146.55 179.25 146.55C182 146.55 184.5 145.5 186.85 143.3C187.05 143.1 187.35 143.15 187.55 143.35C187.75 143.55 187.7 143.85 187.5 144.05C185.05 146.45 182.35 147.6 179.35 147.6Z" fill="#231815"/>
<path d="M174.45 129.799C175.03 129.799 175.5 129.329 175.5 128.749C175.5 128.169 175.03 127.699 174.45 127.699C173.87 127.699 173.4 128.169 173.4 128.749C173.4 129.329 173.87 129.799 174.45 129.799Z" fill="#231815"/>
<path d="M178.8 127.15C178.65 127.15 178.5 127.1 178.4 126.95C177.75 126.1 177 125.6 176.2 125.45C174.95 125.25 173.95 126.05 173.9 126.05C173.7 126.2 173.35 126.2 173.2 125.95C173.05 125.75 173.05 125.4 173.3 125.25C173.35 125.2 174.65 124.2 176.3 124.45C177.4 124.6 178.35 125.25 179.15 126.35C179.3 126.55 179.25 126.9 179.05 127.05C179 127.15 178.9 127.15 178.8 127.15Z" fill="#231815"/>
<path d="M193.05 134.849C193.05 134.849 195.1 134.599 195.65 132.299C196.2 129.999 193.9 129.099 192.8 130.499C191.75 131.899 191.6 133.049 192.25 134.549C191.75 135.299 190.4 136.799 187.6 137.549C185.25 138.199 182.7 138.049 182.7 138.049C182.7 138.049 182.4 136.599 181.15 136.149C180 135.699 178.9 136.049 178.55 136.849C178.15 137.699 178.75 138.749 179.85 139.149C180.7 139.449 182.2 138.899 182.2 138.899C182.2 138.899 185.25 139.249 188.45 138.149C191.7 136.949 193.05 134.849 193.05 134.849Z" fill="#F9C032"/>
<path d="M172.55 136.098L177.05 136.798C177.05 136.798 177.2 142.098 175.4 141.898C173.2 141.648 172.55 136.098 172.55 136.098Z" fill="white"/>
<path d="M175.5 142.398C175.45 142.398 175.4 142.398 175.35 142.398C172.8 142.098 172.1 136.748 172.05 136.148C172.05 135.998 172.1 135.848 172.2 135.748C172.3 135.648 172.45 135.598 172.6 135.598L177.1 136.298C177.35 136.348 177.5 136.548 177.5 136.798C177.5 137.198 177.55 140.948 176.35 142.048C176.15 142.298 175.85 142.398 175.5 142.398ZM173.15 136.698C173.45 138.698 174.3 141.298 175.5 141.398C175.6 141.398 175.65 141.398 175.75 141.298C176.35 140.748 176.55 138.648 176.6 137.198L173.15 136.698Z" fill="#231815"/>
<path d="M173.5 119.297C173.5 119.297 165.3 118.347 166.45 110.197C167 106.297 172.3 102.797 176.8 105.997C179.95 108.247 182.95 107.197 185.5 105.947C188.05 104.697 197.6 102.997 201.55 113.297C207.25 115.147 207.85 120.597 206.15 125.747C205.15 128.797 206.3 132.547 207.5 133.597C211.1 136.647 214.05 135.547 217.3 141.097C219.4 144.697 217.65 149.547 217.65 149.547C217.65 149.547 222.6 151.547 219.45 156.447C212 167.897 188.9 161.897 193.1 147.797C189.15 146.097 189.05 140.047 190.75 137.847C190.75 137.847 197.7 137.497 198 131.597C198.3 125.697 193.05 126.347 191.9 128.497C190.9 130.347 189.05 135.697 187.35 135.697C185.65 135.697 188.05 131.747 188.25 130.247C188.55 128.047 185.85 127.847 183.45 127.597C178.9 126.997 174.25 123.797 173.5 119.297Z" fill="#231815"/>
<path d="M173.85 139.45C173.85 139.45 175.3 139.1 176.45 140.7L173.85 139.45Z" fill="white"/>
<path d="M176.4 141.2C176.25 141.2 176.1 141.15 176 141C175.05 139.7 174 139.95 173.95 139.95C173.7 140 173.4 139.85 173.35 139.6C173.3 139.35 173.45 139.05 173.7 139C173.75 139 175.5 138.55 176.8 140.45C176.95 140.7 176.9 141 176.7 141.15C176.6 141.15 176.5 141.2 176.4 141.2Z" fill="#231815"/>
<path d="M212.1 198.098C212 198.098 211.9 198.048 211.8 197.998C211.7 197.898 211.6 197.798 211.6 197.648L209.1 178.198C209.05 177.948 209.25 177.698 209.55 177.648C209.8 177.598 210.05 177.798 210.1 178.098L212.5 196.998L238.7 191.298C238.95 191.248 239.25 191.398 239.3 191.698C239.35 191.998 239.2 192.248 238.9 192.298L212.15 198.098H212.1Z" fill="#231815"/>
<path d="M157.6 234.799C157.3 234.799 157.1 234.549 157.1 234.249C157.1 233.999 158.9 210.999 160.1 200.999C151.6 192.199 154.55 186.299 156.15 183.149C156.35 182.749 156.55 182.349 156.7 182.049C157.9 179.199 157.15 175.999 157.15 175.949C157.1 175.699 157.25 175.399 157.5 175.349C157.75 175.299 158.05 175.449 158.1 175.699C158.15 175.849 158.9 179.249 157.6 182.399C157.45 182.749 157.25 183.149 157.05 183.549C155.45 186.749 152.8 192.049 161 200.449C161.1 200.549 161.15 200.699 161.15 200.849C159.95 210.699 158.15 234.049 158.15 234.299C158.05 234.599 157.85 234.799 157.6 234.799Z" fill="#231815"/>
<path d="M212.1 197.596L214.7 217.246C214.7 217.246 181.6 222.696 178.25 221.846C175.5 221.146 175.85 218.846 174.1 218.396C172.6 218.046 171.35 219.446 169.85 219.046C168.4 218.646 167.45 216.996 165.75 217.246C164.05 217.496 163.9 218.396 162.05 218.446C160.2 218.496 160.05 216.696 158.25 216.496C156.35 216.296 155.35 217.596 154.15 217.546C152.95 217.496 150.3 216.096 150.6 216.996C151.15 218.896 155.6 234.296 155.6 234.296H235.7C235.7 234.296 242.95 231.196 242.4 222.946C241.85 214.696 237.2 192.246 237.2 192.246L212.1 197.596Z" fill="white"/>
<path d="M235.65 234.797H155.55C155.35 234.797 155.15 234.647 155.05 234.447C155.05 234.447 150.6 219.047 150.05 217.147C149.95 216.747 150.15 216.497 150.2 216.397C150.6 215.997 151.35 216.247 152.5 216.597C153.1 216.797 153.75 216.997 154.15 217.047C154.55 217.047 154.95 216.897 155.45 216.647C156.15 216.297 157.05 215.897 158.3 215.997C159.35 216.097 159.9 216.647 160.4 217.147C160.9 217.597 161.25 217.997 162 217.947C162.9 217.947 163.3 217.697 163.8 217.447C164.25 217.197 164.75 216.947 165.6 216.797C166.85 216.597 167.75 217.247 168.55 217.797C169 218.147 169.45 218.447 169.95 218.597C170.6 218.797 171.15 218.547 171.85 218.297C172.55 218.047 173.35 217.747 174.2 217.947C175.2 218.197 175.65 218.897 176.05 219.547C176.55 220.297 177 221.047 178.35 221.397C180.95 222.047 204.6 218.397 214.1 216.847L211.6 197.697C211.55 197.447 211.75 197.197 212 197.147L237.1 191.747C237.25 191.697 237.35 191.747 237.5 191.797C237.6 191.847 237.7 191.997 237.7 192.097C237.75 192.297 242.4 214.647 242.9 222.847C243.45 231.347 235.95 234.647 235.9 234.697C235.8 234.797 235.75 234.797 235.65 234.797ZM155.95 233.797H235.55C236.4 233.397 242.35 230.397 241.85 222.947C241.4 215.497 237.45 196.147 236.75 192.797L212.65 197.997L215.15 217.197C215.2 217.447 215 217.697 214.75 217.747C213.4 217.947 181.5 223.247 178.1 222.347C176.4 221.897 175.75 220.897 175.25 220.097C174.8 219.447 174.55 219.047 174 218.947C173.4 218.797 172.85 218.997 172.25 219.247C171.5 219.547 170.7 219.847 169.75 219.547C169.1 219.347 168.55 218.997 168.05 218.597C167.3 218.097 166.7 217.647 165.85 217.747C165.15 217.847 164.75 218.097 164.35 218.297C163.8 218.597 163.2 218.897 162.1 218.947C160.95 218.997 160.35 218.397 159.8 217.847C159.35 217.397 158.95 217.047 158.3 216.997C157.35 216.897 156.65 217.247 156 217.547C155.45 217.797 154.85 218.097 154.2 218.047C153.7 217.997 153 217.797 152.3 217.547C152 217.447 151.55 217.297 151.25 217.247C151.95 219.997 155.3 231.597 155.95 233.797Z" fill="#231815"/>
<path d="M186.55 159.247C186.5 159.247 186.5 159.247 186.55 159.247C178.9 158.997 176.1 153.947 175.95 153.747C175.8 153.497 175.9 153.197 176.15 153.047C176.4 152.897 176.7 152.997 176.85 153.247C176.9 153.297 179.6 157.997 186.6 158.247C186.9 158.247 187.1 158.497 187.1 158.747C187 158.997 186.8 159.247 186.55 159.247Z" fill="#231815"/>
<path d="M170.4 108.497C170.3 108.497 170.15 108.447 170.05 108.397C169.85 108.197 169.8 107.897 170 107.697C170 107.697 172.1 105.347 175.45 107.047C175.7 107.197 175.8 107.497 175.65 107.697C175.5 107.947 175.2 108.047 175 107.897C172.35 106.547 170.85 108.247 170.8 108.347C170.7 108.447 170.55 108.497 170.4 108.497Z" fill="white"/>
<path d="M212.7 202.248L237.4 192.648L212.1 197.598L212.7 202.248Z" fill="#231815"/>
<path d="M146.7 192.548C146.45 192.548 146.2 192.348 146.2 192.098L145.6 184.148C145.6 183.848 145.8 183.648 146.05 183.598C146.3 183.598 146.55 183.798 146.6 184.048L147.2 191.998C147.25 192.248 147.05 192.498 146.7 192.548C146.75 192.548 146.75 192.548 146.7 192.548Z" fill="#231815"/>
<path d="M154.8 189.601C154.75 189.601 154.7 189.601 154.7 189.601L146.25 187.551C146 187.501 145.8 187.201 145.9 186.951C145.95 186.701 146.25 186.501 146.5 186.601L154.95 188.651C155.2 188.701 155.4 189.001 155.3 189.251C155.25 189.451 155 189.601 154.8 189.601Z" fill="#231815"/>
<path d="M146.6 190.4L152.4 191.75C152.4 191.75 154.7 199.15 160.6 200.8C156.55 196.75 154.8 193.45 154.6 189C151.25 188.2 146.35 187 146.35 187L146.6 190.4Z" fill="#231815"/>
<path d="M214.65 217.75C214.4 217.75 214.2 217.55 214.15 217.35C214.1 217.1 214.3 216.8 214.55 216.8L217.95 216.25C218.2 216.2 218.5 216.4 218.5 216.65C218.55 216.9 218.35 217.2 218.1 217.2L214.7 217.75C214.75 217.75 214.7 217.75 214.65 217.75Z" fill="#231815"/>
<path d="M145.55 119.801C145.45 117.001 145.3 114.551 142.25 114.551C139.05 114.551 138.9 118.801 138.75 121.601" fill="white"/>
<path d="M138.75 122.101C138.45 122.101 138.25 121.851 138.25 121.551V121.351C138.4 118.451 138.65 114.051 142.25 114.051C145.8 114.051 145.9 117.101 146.05 119.751C146.05 120.051 145.85 120.251 145.55 120.251C145.3 120.251 145.05 120.051 145.05 119.751C144.9 116.701 144.75 115.001 142.25 115.001C139.8 115.001 139.4 118.001 139.25 121.351V121.551C139.25 121.901 139 122.101 138.75 122.101Z" fill="#231815"/>
<path d="M123.55 155.648C123.55 155.648 125.1 156.148 126.95 156.348L123.55 155.648Z" fill="white"/>
<path d="M126.95 156.849C126.9 156.849 126.9 156.849 126.95 156.849C125.05 156.699 123.5 156.149 123.4 156.149C123.15 156.049 123 155.799 123.1 155.499C123.2 155.249 123.45 155.099 123.75 155.199C123.75 155.199 125.25 155.699 127 155.849C127.3 155.849 127.5 156.099 127.45 156.399C127.4 156.649 127.2 156.849 126.95 156.849Z" fill="#231815"/>
<path d="M123.75 159.6L126.95 156.35L123.95 156L123.75 159.6Z" fill="#231815"/>
<path d="M132.75 144.948C132.75 144.948 138 146.098 139.45 148.048C139.6 147.048 139.5 146.448 139.6 144.848C134.85 144.998 132.75 144.948 132.75 144.948Z" fill="#231815"/>
<path d="M143.143 101.139L140.446 101.258L140.852 110.449L143.549 110.329L143.143 101.139Z" fill="#F9C032"/>
<path d="M133.441 103.497L131.037 104.727L135.228 112.916L137.631 111.687L133.441 103.497Z" fill="#F9C032"/>
<path d="M151.279 103.313L146.279 111.035L148.546 112.503L153.546 104.78L151.279 103.313Z" fill="#F9C032"/>
<path d="M81.3499 183.348H139.95C140.85 183.348 141.65 183.948 141.85 184.798L154.45 228.648H174.55C175.65 228.648 176.55 229.548 176.55 230.648V234.598H95.3999C94.4999 234.598 93.6999 233.998 93.4499 233.098L80.3499 184.598C80.1999 183.998 80.6499 183.348 81.3499 183.348Z" fill="#231815"/>
<path d="M117.05 214.349C120.06 214.349 122.5 211.909 122.5 208.899C122.5 205.889 120.06 203.449 117.05 203.449C114.04 203.449 111.6 205.889 111.6 208.899C111.6 211.909 114.04 214.349 117.05 214.349Z" fill="white"/>
<path d="M184 201.901C183.95 201.901 183.85 201.901 183.8 201.851C180.35 200.151 179.1 197.851 178.6 196.201C178.1 194.401 178.4 193.001 178.45 192.951C178.5 192.701 178.8 192.501 179.05 192.601C179.3 192.651 179.5 192.951 179.4 193.201C179.35 193.401 178.3 198.101 184.2 200.951C184.45 201.051 184.55 201.351 184.45 201.601C184.4 201.801 184.2 201.901 184 201.901Z" fill="#231815"/>
<path d="M187.7 143.949C187.7 143.949 184.05 149.149 180.4 150.699C181.65 149.099 182.2 146.699 182.2 146.699C182.2 146.699 182.75 146.649 184.65 145.699C186.55 144.749 187.7 143.949 187.7 143.949Z" fill="#231815"/>
<path d="M185.25 222L189.75 221.5C189.75 221.5 192.6 225.65 191.2 233.8C187.85 233.85 187.2 233.9 186.25 233.9C187.15 225.9 185.2 222 185.25 222Z" fill="#F9C032"/>
<path d="M220.6 37.9016L211.6 34.4016L202.6 30.9016L210.15 24.9016L217.65 18.8516L219.15 28.4016L220.6 37.9016Z" fill="#CCCCCC"/>
<path d="M223.05 54.0008C216.65 54.0008 211.45 48.8008 211.45 42.4008C211.45 36.0008 216.65 30.8008 223.05 30.8008C229.45 30.8008 234.65 36.0008 234.65 42.4008C234.65 48.8008 229.45 54.0008 223.05 54.0008ZM223.05 31.7508C217.2 31.7508 212.45 36.5008 212.45 42.3508C212.45 48.2008 217.2 52.9508 223.05 52.9508C228.9 52.9508 233.65 48.2008 233.65 42.3508C233.65 36.5008 228.9 31.7508 223.05 31.7508Z" fill="#231815"/>
<path d="M232.785 94.02L227.613 101.93L235.522 107.102L240.694 99.192L232.785 94.02Z" fill="#FAFAFA"/>
<path d="M44.2 223.052C49.0049 223.052 52.9 219.157 52.9 214.352C52.9 209.547 49.0049 205.652 44.2 205.652C39.3951 205.652 35.5 209.547 35.5 214.352C35.5 219.157 39.3951 223.052 44.2 223.052Z" fill="#F9C032"/>
<path d="M25.55 217.201C25.35 217.201 25.15 217.101 25.1 216.851L17.4 196.001C17.35 195.901 17.35 195.751 17.4 195.601C17.45 195.501 17.55 195.401 17.7 195.351L38.6 187.651C38.7 187.601 38.85 187.601 39 187.651C39.1 187.701 39.2001 187.801 39.25 187.951L46.9501 208.851C47 208.951 47 209.101 46.9501 209.251C46.9001 209.351 46.8001 209.451 46.6501 209.501L25.75 217.201C25.65 217.201 25.6 217.201 25.55 217.201ZM18.5 196.101L25.85 216.051L45.8 208.701L38.4501 188.751L18.5 196.101Z" fill="#231815"/>
</svg>
