<svg width="256" height="257" viewBox="0 0 256 257" fill="none" xmlns="http://www.w3.org/2000/svg">
<path d="M188.228 26.8474L179.674 31.3125L184.139 39.8672L192.693 35.4022L188.228 26.8474Z" fill="#AAAAAA"/>
<path d="M75.05 96.0958C72.45 94.8458 69.85 93.5958 66.2 95.9958C62.55 98.3958 56.05 107.746 60.95 116.396C65.5 124.496 51.35 130.246 54.05 140.846C55.95 148.396 62.55 146.896 65.1 145.846C67.65 144.796 72.6 139.096 73.15 128.896C73.95 114.546 64.45 110.896 66.55 105.146C68.55 99.3958 77.65 97.3458 75.05 96.0958Z" fill="#231815"/>
<path d="M83.9 126.547C83.9 126.547 82.95 134.697 83.45 136.247C83.95 137.797 79.8 141.447 74.9 140.797C70 140.147 69.25 137.197 69.25 137.197C69.25 137.197 71.45 133.697 70.8 128.847C76.25 130.097 80.05 127.797 83.9 126.547Z" fill="white"/>
<path d="M76.05 141.349C75.65 141.349 75.2 141.299 74.8 141.249C69.6 140.549 68.75 137.448 68.7 137.298C68.65 137.148 68.7 136.999 68.75 136.899C68.75 136.849 70.85 133.499 70.25 128.899C70.25 128.749 70.3 128.549 70.4 128.449C70.5 128.349 70.7 128.299 70.85 128.349C75.1 129.299 78.35 128.099 81.45 126.849C82.2 126.549 82.95 126.249 83.7 125.999C83.9 125.949 84.15 125.999 84.3 126.199C84.4 126.299 84.4 126.449 84.35 126.599C83.95 129.799 83.55 134.949 83.9 135.999C84.1 136.599 83.85 137.399 83.2 138.199C81.85 139.899 79.1 141.349 76.05 141.349ZM69.75 137.249C70 137.849 71.1 139.748 74.95 140.298C78.45 140.798 81.35 138.999 82.45 137.649C82.95 137.049 83.05 136.599 83 136.399C82.55 134.999 83.1 129.449 83.35 127.299C82.85 127.449 82.4 127.649 81.9 127.849C78.95 128.999 75.6 130.249 71.4 129.499C71.7 133.499 70.2 136.449 69.75 137.249Z" fill="#231815"/>
<path d="M70.5 133.947C70.5 133.947 77 131.347 78.55 129.297C75.5 130.697 71.35 129.597 71.35 129.597L70.5 133.947Z" fill="#231815"/>
<path d="M82.4 127.797C85.05 125.747 86.45 123.647 87.75 120.397C92.95 120.847 94.05 115.047 92.7 113.047C91.9 111.847 90.7 111.547 89.8 111.447C87.7 111.297 87.25 112.997 86.95 114.197C87.4 110.897 89 99.1974 78 96.6474C72.7 95.3974 71.15 96.0474 68.75 98.1974C65.05 101.497 65.1 110.397 64.6 116.447C64.05 122.547 65.85 127.247 71.4 129.647C73.35 130.497 76.6 130.297 78.95 129.197" fill="white"/>
<path d="M74.35 130.596C73.2 130.596 72.1 130.396 71.2 130.046C65.8 127.796 63.45 123.296 64.1 116.346C64.2 115.396 64.25 114.346 64.3 113.296C64.7 107.396 65.15 100.646 68.4 97.7464C71 95.4464 72.75 94.8464 78.1 96.0964C85 97.6964 88.25 102.896 87.75 111.546C88.25 111.146 88.9 110.846 89.9 110.946C91.4 111.046 92.5 111.646 93.2 112.746C94.1 114.146 93.95 116.596 92.9 118.396C91.9 120.096 90.2 120.996 88.15 120.896C86.75 124.196 85.3 126.196 82.75 128.146C82.55 128.296 82.2 128.296 82.05 128.046C81.9 127.846 81.9 127.496 82.15 127.346C84.6 125.446 86 123.496 87.35 120.196C87.45 119.996 87.65 119.846 87.85 119.896C90.2 120.096 91.45 118.946 92.05 117.896C93 116.296 93 114.246 92.35 113.296C91.8 112.446 91 112.046 89.8 111.946C88.25 111.846 87.9 112.796 87.5 114.196L87.45 114.296C87.4 114.546 87.15 114.696 86.85 114.646C86.6 114.596 86.4 114.346 86.45 114.096C87.75 104.396 84.85 98.6964 77.85 97.0964C72.6 95.8964 71.3 96.5464 69.05 98.4964C66.1 101.146 65.65 107.896 65.25 113.346C65.2 114.396 65.1 115.446 65 116.396C64.45 122.846 66.55 126.996 71.5 129.046C73.35 129.796 76.4 129.646 78.65 128.596C78.9 128.496 79.2 128.596 79.3 128.846C79.4 129.096 79.3 129.396 79.05 129.496C77.7 130.246 75.95 130.596 74.35 130.596Z" fill="#231815"/>
<path d="M76.1 114.145C76.5694 114.145 76.95 113.765 76.95 113.295C76.95 112.826 76.5694 112.445 76.1 112.445C75.6306 112.445 75.25 112.826 75.25 113.295C75.25 113.765 75.6306 114.145 76.1 114.145Z" fill="#231815"/>
<path d="M68.8 112.895C69.2694 112.895 69.65 112.515 69.65 112.045C69.65 111.576 69.2694 111.195 68.8 111.195C68.3306 111.195 67.95 111.576 67.95 112.045C67.95 112.515 68.3306 112.895 68.8 112.895Z" fill="#231815"/>
<path d="M79.25 111.997C79.1 111.997 78.9 111.897 78.85 111.747C78.85 111.747 78.4 111.097 77.7 110.947C77.2 110.847 76.7 110.997 76.1 111.397C75.85 111.547 75.55 111.497 75.4 111.247C75.25 110.997 75.3 110.697 75.55 110.547C76.35 109.997 77.15 109.797 77.9 109.947C79.05 110.197 79.65 111.147 79.7 111.197C79.85 111.447 79.8 111.747 79.55 111.897C79.45 111.997 79.35 111.997 79.25 111.997Z" fill="#231815"/>
<path d="M69.7 110.446C69.5 110.446 69.35 110.346 69.25 110.196C69.25 110.196 69 109.796 68.55 109.646C68.15 109.546 67.65 109.646 67.1 109.946C66.85 110.096 66.55 109.996 66.4 109.746C66.25 109.496 66.35 109.196 66.6 109.046C67.4 108.596 68.15 108.446 68.85 108.646C69.7 108.896 70.1 109.596 70.15 109.696C70.3 109.946 70.2 110.246 69.95 110.346C69.85 110.446 69.8 110.446 69.7 110.446Z" fill="#231815"/>
<path d="M67.55 116.298C65.15 116.298 63.2 114.348 63.2 111.948C63.2 109.548 65.15 107.598 67.55 107.598C69.95 107.598 71.9 109.548 71.9 111.948C71.9 114.348 69.95 116.298 67.55 116.298ZM67.55 108.648C65.7 108.648 64.2 110.148 64.2 111.998C64.2 113.848 65.7 115.348 67.55 115.348C69.4 115.348 70.9 113.848 70.9 111.998C70.9 110.148 69.4 108.648 67.55 108.648Z" fill="#F9C032"/>
<path d="M77.4 117.997C75 117.997 73.05 116.047 73.05 113.647C73.05 111.247 75 109.297 77.4 109.297C79.8 109.297 81.75 111.247 81.75 113.647C81.7 116.047 79.8 117.997 77.4 117.997ZM77.4 110.347C75.55 110.347 74.05 111.847 74.05 113.697C74.05 115.547 75.55 117.047 77.4 117.047C79.25 117.047 80.75 115.547 80.75 113.697C80.75 111.847 79.25 110.347 77.4 110.347Z" fill="#F9C032"/>
<path d="M73.75 113.049C73.6 113.049 73.5 112.999 73.4 112.899C72.75 112.249 71.65 112.649 71.6 112.699C71.35 112.799 71.05 112.699 70.95 112.449C70.85 112.199 70.95 111.899 71.2 111.799C71.25 111.749 72.95 111.049 74.1 112.249C74.3 112.449 74.3 112.749 74.1 112.949C74 112.999 73.85 113.049 73.75 113.049Z" fill="#F9C032"/>
<path d="M86.35 87.3472C81.35 85.1972 67.25 84.8472 65.65 95.5972C63.5 109.797 82.55 105.547 84.4 110.547C86.25 115.547 83.1 120.547 84.15 120.147C87.1 119.147 86.35 112.047 88.85 111.547C91.35 111.047 93.9 113.297 93 116.697C92.1 120.097 87.75 120.347 87.75 120.347C87.75 120.347 88.1 122.797 83.3 126.997C81.6 133.647 83.05 136.447 83.05 136.447L105.35 147.647C105.35 147.647 110.85 145.897 108.7 140.347C105.35 131.797 109.1 131.647 109.7 126.497C110.3 121.347 104.45 119.797 105.4 113.097C106.45 105.647 105.4 101.847 97.3 98.3472C91.75 95.9972 92.45 89.9972 86.35 87.3472Z" fill="#231815"/>
<path d="M86.95 114.445L81.2 114.195C80.9 114.195 80.7 113.945 80.7 113.695C80.7 113.395 80.95 113.195 81.2 113.195L86.9 113.445C87.2 113.445 87.4 113.695 87.4 113.945C87.45 114.195 87.2 114.445 86.95 114.445Z" fill="#F9C032"/>
<path d="M57 140.297C57 140.297 48.5 142.697 41.5 148.647C34 154.997 22.95 186.147 22.95 186.147L44.3 196.147L57 140.297Z" fill="#231815"/>
<path d="M89 114.748C88.9 114.748 88.8 114.698 88.7 114.648C88.45 114.498 88.4 114.198 88.55 113.948C88.95 113.398 89.4 113.098 89.9 113.098C90.7 113.098 91.25 113.848 91.3 113.948C91.45 114.198 91.4 114.498 91.15 114.648C90.9 114.798 90.6 114.748 90.45 114.498C90.35 114.348 90.1 114.098 89.85 114.098C89.65 114.098 89.45 114.348 89.35 114.498C89.3 114.648 89.15 114.748 89 114.748Z" fill="#231815"/>
<path d="M110.1 146.997C110.1 146.997 95.1 140.297 83.05 135.797C82.3 138.147 77.35 140.697 73.75 139.847C69.55 138.847 69.35 136.247 69.35 136.247C69.35 136.247 54.65 140.747 50.95 143.347C47.25 145.947 47.15 154.197 45.65 158.697C44.15 163.197 35.5 163.697 33.2 175.297C31.4 184.397 39.15 191.697 38.85 194.997C38.55 198.297 28.55 233.947 28.55 233.947H104L109.5 178.297C109.55 178.247 120.7 152.597 110.1 146.997Z" fill="#231815"/>
<path d="M104 234.447C103.7 234.397 103.45 234.197 103.5 233.897L109 178.247C109.05 177.997 109.25 177.797 109.55 177.797C109.8 177.847 110.05 178.047 110 178.347L104.5 233.997C104.5 234.247 104.25 234.447 104 234.447Z" fill="white"/>
<path d="M28.6 234.446C28.55 234.446 28.5 234.446 28.45 234.446C28.2 234.396 28.05 234.096 28.1 233.846C28.2 233.496 38.1 198.146 38.35 194.946C38.45 193.946 37.5 192.246 36.45 190.296C34.35 186.496 31.5 181.246 32.7 175.246C34.15 167.746 38.35 164.646 41.45 162.396C43.25 161.096 44.65 160.046 45.15 158.546C45.25 158.296 45.5 158.146 45.8 158.246C46.05 158.346 46.2 158.596 46.1 158.896C45.5 160.696 43.9 161.896 42.05 163.246C38.95 165.496 35.1 168.346 33.7 175.446C32.6 181.096 35.35 186.146 37.35 189.846C38.55 192.046 39.5 193.746 39.35 195.096C39.05 198.396 29.45 232.696 29.05 234.146C29 234.296 28.8 234.446 28.6 234.446Z" fill="white"/>
<path d="M73.85 193.547C73.75 193.547 73.7 193.547 73.65 193.497C65.7 189.497 65.65 181.597 65.65 181.547C65.65 181.247 65.85 181.047 66.15 181.047C66.45 181.047 66.65 181.247 66.65 181.547C66.65 181.847 66.75 188.897 74.1 192.597C74.35 192.697 74.45 193.047 74.3 193.247C74.2 193.447 74.05 193.547 73.85 193.547Z" fill="white"/>
<path d="M67.5 178.644C67.45 178.644 67.4 178.644 67.4 178.644L55.3 175.494C55.15 175.444 55.05 175.394 55 175.244C54.95 175.144 54.9 174.994 54.95 174.844L59.15 158.744C59.2 158.544 59.4 158.344 59.65 158.344C59.7 158.344 59.75 158.344 59.75 158.344L71.85 161.494C72 161.544 72.1 161.594 72.15 161.744C72.2 161.844 72.25 161.994 72.2 162.144L68 178.244C67.9 178.494 67.7 178.644 67.5 178.644Z" fill="white"/>
<path d="M59.55 158.945L71.65 162.095L67.5 178.145L55.4 174.995L59.55 158.945ZM59.55 157.945C59.1 157.945 58.7 158.245 58.6 158.695L54.4 174.795C54.25 175.345 54.6 175.895 55.1 175.995L67.2 179.145C67.3 179.145 67.35 179.195 67.45 179.195C67.9 179.195 68.3 178.895 68.4 178.445L72.6 162.345C72.75 161.795 72.4 161.245 71.9 161.145L59.8 157.995C59.75 157.945 59.65 157.945 59.55 157.945Z" fill="#231815"/>
<path d="M90 138.697C90 138.697 82.1 144.197 78.4 147.297C75.25 149.947 65.9 159.097 65.9 159.097C65.9 159.097 64.8 155.197 64.15 150.647C63.2 144.347 64.2 138.297 64.2 138.297L61.35 139.147C61.35 139.147 60.3 144.247 61.4 151.097C62 154.797 62.95 159.197 63.3 160.747C63.4 161.097 63.65 161.347 64 161.447L66.3 161.997C66.6 162.047 66.9 161.997 67.1 161.797C68.95 160.297 76.3 152.747 79.4 150.097C83.2 146.847 93.25 139.697 93.25 139.697L90 138.697Z" fill="#F9C032"/>
<path d="M76.1 143.799C74.9 143.799 73.6 143.599 72.1 143.099C71.85 142.999 71.7 142.749 71.8 142.449C71.9 142.199 72.15 142.049 72.45 142.149C79.15 144.399 82.65 139.999 82.7 139.949C82.85 139.749 83.2 139.699 83.4 139.849C83.6 139.999 83.65 140.349 83.5 140.549C83.45 140.599 82.5 141.849 80.6 142.749C79.5 143.349 78 143.799 76.1 143.799Z" fill="white"/>
<path d="M54.35 184.047C60.5 184.647 99.3 201.197 99.3 201.197L126 196.647C126 196.647 128.75 214.197 129.5 218.847C131.25 229.297 115.55 238.697 104.3 231.097C91.25 222.297 53.2 192.497 53.2 192.497" fill="white"/>
<path d="M113.45 234.346C110.15 234.346 106.85 233.396 104.05 231.496C91.1 222.746 53.3 193.196 52.9 192.896C52.7 192.746 52.65 192.396 52.8 192.196C52.95 191.996 53.3 191.946 53.5 192.096C53.9 192.396 91.7 221.946 104.6 230.646C111.1 234.996 118.45 233.296 122.85 230.496C127.4 227.596 129.75 223.146 129.05 218.896C128.35 214.746 126.1 200.096 125.6 197.196L99.4 201.646C99.3 201.646 99.2 201.646 99.1 201.596C98.7 201.446 60.3 185.096 54.3 184.496C54.05 184.446 53.8 184.246 53.85 183.946C53.9 183.696 54.1 183.496 54.4 183.496C60.45 184.096 96.45 199.396 99.35 200.646L125.9 196.096C126.05 196.096 126.15 196.096 126.3 196.196C126.4 196.296 126.5 196.396 126.5 196.546C126.55 196.746 129.25 214.146 130 218.746C130.8 223.396 128.25 228.246 123.35 231.396C120.3 233.396 116.85 234.346 113.45 234.346Z" fill="#231815"/>
<path d="M116.15 151.695C122.95 159.495 127.9 183.995 129.55 197.095C116.4 198.995 105.2 200.495 99.35 201.245C99.35 201.245 90.85 161.895 95.6 152.995C100.35 144.095 109.3 143.845 116.15 151.695Z" fill="#231815"/>
<path d="M129.55 197.598C129.3 197.598 129.1 197.398 129.05 197.148C127.45 184.748 122.2 159.148 116.7 153.248C111.9 148.098 104.25 143.798 91.95 139.298C91.7 139.198 91.55 138.898 91.65 138.648C91.75 138.398 92.05 138.248 92.3 138.348C104.8 142.898 112.55 147.248 117.45 152.548C123.1 158.648 128.45 184.498 130.05 196.998C130.1 197.248 129.9 197.498 129.6 197.548C129.6 197.598 129.55 197.598 129.55 197.598Z" fill="white"/>
<path d="M99.3 201.746C99.05 201.746 98.85 201.596 98.8 201.346C98.75 201.196 95.5 186.046 94.2 172.546C94.15 172.296 94.35 172.046 94.65 171.996C94.95 171.996 95.15 172.146 95.2 172.446C96.55 185.846 99.75 200.996 99.8 201.146C99.85 201.396 99.7 201.696 99.4 201.746C99.4 201.746 99.35 201.746 99.3 201.746Z" fill="white"/>
<path d="M24.1 186.547C24.1 186.547 16.05 206.897 16.05 213.247C16.05 219.597 19.8 226.747 28.55 226.747C37.3 226.747 90.25 197.497 90.25 197.497L98 200.747C98 200.747 98.15 189.897 92.05 186.597C87.85 184.747 77.9 188.147 70.55 189.547C62.75 191.047 37.65 194.747 37.65 194.747L37.95 193.497" fill="white"/>
<path d="M28.6 227.197C19.65 227.197 15.6 219.947 15.6 213.197C15.6 206.847 23.35 187.147 23.7 186.347C23.8 186.097 24.1 185.947 24.35 186.047C24.6 186.147 24.75 186.447 24.65 186.697C24.55 186.897 16.65 207.047 16.65 213.197C16.65 219.447 20.4 226.197 28.65 226.197C37.2 226.197 89.6 197.297 90.1 196.997C90.25 196.947 90.4 196.897 90.55 196.997L97.6 199.947C97.5 197.497 96.75 189.647 91.95 186.997C89.05 185.697 82.85 187.197 76.9 188.647C74.75 189.147 72.7 189.647 70.8 189.997C63.1 191.497 38.15 195.197 37.9 195.197C37.75 195.197 37.55 195.147 37.45 195.047C37.35 194.947 37.3 194.747 37.35 194.597L37.65 193.347C37.7 193.097 38 192.897 38.25 192.997C38.5 193.047 38.7 193.347 38.6 193.597L38.45 194.147C42.65 193.497 63.65 190.397 70.6 189.047C72.5 188.697 74.5 188.197 76.65 187.697C82.8 186.247 89.15 184.697 92.4 186.147C98.7 189.547 98.65 200.297 98.6 200.747C98.6 200.897 98.5 201.047 98.35 201.147C98.2 201.247 98.05 201.247 97.9 201.197L90.35 198.047C86.15 200.297 37.2 227.197 28.6 227.197Z" fill="#231815"/>
<path d="M55.7 184.297L50.95 178.797C49.65 177.497 48.05 176.647 46.25 176.347C43.05 175.797 38 174.947 36.55 174.797C34.8 174.597 34.95 178.197 37.55 178.697C39.9 179.147 41.95 179.447 41.95 179.447L32.9 178.997L26.55 179.997C25.85 180.097 25.3 180.747 25.4 181.497C25.45 182.297 26.15 182.847 26.95 182.747L29.05 182.497L23.55 183.147C22.65 183.247 22.05 184.047 22.1 184.897V185.097C22.2 186.047 23.05 186.697 24 186.597L26.8 186.297L25.75 186.397C24.8 186.497 24.1 187.347 24.15 188.297C24.2 189.247 25.05 189.997 26 189.947L28.2 189.847L27.4 189.897C26.55 189.947 25.9 190.697 26 191.547C26.1 192.347 26.75 192.947 27.6 192.947L31.5 192.797L37.15 193.097C37.15 193.097 41.15 194.047 43.05 193.847L54.15 192.247" fill="white"/>
<path d="M42.45 194.347C40.5 194.347 37.5 193.647 37.05 193.597L31.45 193.297L27.6 193.447C26.55 193.497 25.6 192.697 25.5 191.597C25.45 191.197 25.55 190.747 25.75 190.397C24.65 190.297 23.75 189.447 23.65 188.297C23.6 187.847 23.7 187.447 23.9 187.047C23.4 187.097 22.85 186.897 22.45 186.597C22 186.247 21.7 185.697 21.65 185.097V184.897C21.55 183.747 22.4 182.747 23.55 182.597L25.3 182.397C25.1 182.147 25 181.797 24.95 181.447C24.85 180.497 25.55 179.597 26.55 179.447L32.9 178.447C32.95 178.447 32.95 178.447 33 178.447L36.25 178.597C35.3 177.897 34.85 176.697 35 175.697C35.15 174.747 35.8 174.197 36.7 174.297C38.35 174.497 44.55 175.547 46.4 175.847C48.3 176.197 50.05 177.097 51.4 178.447L56.15 183.997C56.35 184.197 56.3 184.497 56.1 184.697C55.9 184.897 55.55 184.847 55.4 184.647L50.65 179.147C49.45 177.947 47.95 177.147 46.25 176.847C44.4 176.547 38.2 175.447 36.6 175.297C36.3 175.247 36.1 175.447 36 175.897C35.85 176.697 36.4 177.947 37.7 178.247C40 178.697 42.05 178.947 42.05 178.947C42.3 178.997 42.5 179.197 42.5 179.497C42.5 179.747 42.25 179.947 42 179.947L33 179.497L26.7 180.497C26.25 180.547 25.9 180.997 25.95 181.447C25.95 181.697 26.1 181.897 26.25 182.047C26.45 182.197 26.7 182.297 26.95 182.247L29.05 181.997C29.35 181.947 29.55 182.147 29.6 182.447C29.65 182.697 29.45 182.947 29.15 182.997L23.65 183.647C23.05 183.697 22.6 184.247 22.65 184.897V185.097C22.7 185.397 22.85 185.697 23.1 185.897C23.35 186.097 23.65 186.197 23.95 186.147L26.75 185.847C27.05 185.847 27.25 185.997 27.3 186.297C27.35 186.547 27.15 186.797 26.85 186.847L25.8 186.947C25.1 186.997 24.6 187.647 24.65 188.297C24.7 188.997 25.3 189.497 25.95 189.497L28.15 189.397C28.4 189.397 28.65 189.597 28.65 189.847C28.65 190.097 28.45 190.347 28.2 190.347L27.4 190.397C27.1 190.397 26.85 190.547 26.7 190.747C26.5 190.947 26.45 191.247 26.45 191.497C26.5 192.047 26.95 192.447 27.5 192.447L31.4 192.297L37.1 192.597C37.15 192.597 37.15 192.597 37.2 192.597C37.25 192.597 41.15 193.497 42.9 193.347L54 191.747C54.25 191.697 54.55 191.897 54.55 192.147C54.6 192.397 54.4 192.697 54.15 192.697L43.05 194.297C42.9 194.347 42.65 194.347 42.45 194.347Z" fill="#231815"/>
<path d="M73.9 189.396L78.7 188.246C78.7 188.246 81 191.246 81.95 193.846C82.8 196.196 83.6 200.696 83.6 200.696L78.9 203.246C78.9 203.246 78.15 198.246 77.1 195.446C75.75 192.046 73.9 189.346 73.9 189.396Z" fill="#F9C032"/>
<path d="M70.95 119.746C70.85 119.746 70.7 119.696 70.6 119.646C70.1 119.196 69.85 118.646 69.9 118.146C69.95 117.796 70.1 117.246 70.8 116.796C71.3 116.496 71.4 115.596 71.4 115.246C71.4 114.946 71.6 114.746 71.9 114.746C72.2 114.746 72.4 114.946 72.4 115.246C72.4 115.396 72.35 116.946 71.35 117.596C71.15 117.696 70.95 117.896 70.9 118.146C70.9 118.346 71 118.596 71.25 118.846C71.45 119.046 71.5 119.346 71.3 119.546C71.25 119.696 71.1 119.746 70.95 119.746Z" fill="#231815"/>
<path d="M73.25 124.248C71.55 124.248 70.25 123.548 70.2 123.498C69.95 123.348 69.85 123.048 70 122.798C70.15 122.548 70.45 122.448 70.7 122.598C70.85 122.648 73.8 124.248 76.4 122.048C76.6 121.898 76.95 121.898 77.1 122.098C77.3 122.298 77.25 122.648 77.05 122.798C75.75 123.948 74.4 124.248 73.25 124.248Z" fill="#231815"/>
<path d="M71.5 91.7967C71.4 91.7967 71.3 91.7467 71.2 91.6967C71 91.4967 70.95 91.1967 71.15 90.9967C71.25 90.8967 73.4 88.2967 77.65 87.7967C77.9 87.7467 78.15 87.9467 78.2 88.2467C78.25 88.4967 78.05 88.7467 77.75 88.7967C73.95 89.2467 71.95 91.5967 71.9 91.6467C71.8 91.7467 71.65 91.7967 71.5 91.7967Z" fill="white"/>
<path d="M102.4 203.048C102.35 203.048 102.25 203.048 102.2 202.998L97.9 201.098C97.65 200.998 97.55 200.698 97.65 200.448C97.75 200.198 98.05 200.098 98.3 200.198L102.6 202.098C102.85 202.198 102.95 202.498 102.85 202.748C102.75 202.948 102.55 203.048 102.4 203.048Z" fill="#231815"/>
<path d="M54 141.746C53.8 141.746 53.6 141.596 53.55 141.396C53.45 141.146 53.6 140.846 53.85 140.746C53.9 140.696 61.35 138.046 65.65 136.896C65.9 136.846 66.2 136.996 66.25 137.246C66.3 137.496 66.15 137.796 65.9 137.846C61.65 138.996 54.25 141.646 54.2 141.696C54.1 141.746 54.05 141.746 54 141.746Z" fill="white"/>
<path d="M29.1 182.497L32.6 182.047L38.05 182.397" fill="white"/>
<path d="M29.1 182.997C28.85 182.997 28.65 182.797 28.6 182.547C28.55 182.297 28.75 182.047 29.05 181.997L32.55 181.547C32.6 181.547 32.6 181.547 32.65 181.547L38.15 181.897C38.45 181.897 38.65 182.147 38.6 182.447C38.6 182.747 38.35 182.947 38.05 182.897L32.6 182.547L29.15 182.997C29.1 182.997 29.1 182.997 29.1 182.997Z" fill="#231815"/>
<path d="M27 186.247L32.45 185.797L37.55 186.047" fill="white"/>
<path d="M27 186.747C26.75 186.747 26.5 186.547 26.5 186.297C26.5 185.997 26.7 185.797 26.95 185.747L32.4 185.297H32.45L37.55 185.547C37.85 185.547 38.05 185.797 38.05 186.047C38.05 186.347 37.8 186.547 37.55 186.547L32.5 186.297L27 186.747Z" fill="#231815"/>
<path d="M28.05 189.848L33.5 189.398L37.55 189.598" fill="white"/>
<path d="M28.05 190.348C27.8 190.348 27.55 190.148 27.55 189.898C27.55 189.598 27.75 189.398 28 189.348L33.45 188.898H33.5L37.55 189.098C37.85 189.098 38.05 189.348 38.05 189.598C38.05 189.848 37.8 190.098 37.55 190.098L33.55 189.898L28.05 190.348Z" fill="#231815"/>
<path d="M143.7 71.4969L140 68.0469H93.75C92.65 68.0469 91.75 67.1469 91.75 66.0469V32.2969C91.75 31.1969 92.65 30.2969 93.75 30.2969H143.4C144.5 30.2969 145.4 31.1969 145.4 32.2969V70.7469C145.4 71.5969 144.35 72.0469 143.7 71.4969Z" fill="#F9C032"/>
<path d="M83.3 79.0469C83.15 79.0469 83.05 78.9969 82.95 78.8969C82.9 78.8469 82.8 78.6969 82.8 78.5469V39.7969C82.8 38.9469 83.5 38.2969 84.3 38.2969H133.95C134.75 38.2969 135.45 38.9469 135.45 39.7969V73.5469C135.45 74.3469 134.75 75.0469 133.95 75.0469H89C88.9 75.0469 88.8 75.0969 88.7 75.1469L83.6 78.9469C83.5 78.9969 83.4 79.0469 83.3 79.0469Z" fill="white"/>
<path d="M133.9 38.7969C134.45 38.7969 134.9 39.2469 134.9 39.7969V73.5469C134.9 74.0969 134.45 74.5469 133.9 74.5469H89C88.8 74.5469 88.55 74.5969 88.4 74.7469L83.3 78.5469V39.7969C83.3 39.2469 83.75 38.7969 84.3 38.7969H133.9ZM133.9 37.7969H84.25C83.15 37.7969 82.25 38.6969 82.25 39.7969V78.5469C82.25 79.1469 82.75 79.5469 83.25 79.5469C83.45 79.5469 83.65 79.4969 83.85 79.3469L88.95 75.5469H133.85C134.95 75.5469 135.85 74.6469 135.85 73.5469V39.7969C135.9 38.6969 135 37.7969 133.9 37.7969Z" fill="#231815"/>
<path d="M115.55 47.6953L111.45 47.1953C111.4 48.4953 110.35 49.4953 109.05 49.4953C107.75 49.4953 106.7 48.4453 106.65 47.1953L102.55 47.6953L97.1 50.5953L99.35 54.0953L102.55 52.8953V64.7953H115.5V52.8953L118.7 54.0953L120.95 50.5953L115.55 47.6953Z" fill="#231815"/>
<path d="M154.55 109.348C154.55 109.348 157.8 117.998 157.3 124.298C159.4 126.598 171.1 127.198 174.95 124.298C174.35 123.248 173.55 116.748 174.95 114.198C160.25 110.848 154.55 109.348 154.55 109.348Z" fill="white"/>
<path d="M166.15 126.749C165.95 126.749 165.7 126.749 165.5 126.749C162.4 126.699 158.3 126.099 156.95 124.649C156.85 124.549 156.8 124.399 156.8 124.299C157.25 118.199 154.1 109.649 154.05 109.599C154.05 109.549 154 109.499 154 109.449C154 109.299 154.05 109.149 154.2 109.049C154.3 108.949 154.5 108.899 154.65 108.949C154.7 108.949 160.5 110.449 175.05 113.799C175.2 113.849 175.35 113.949 175.4 114.099C175.45 114.249 175.45 114.399 175.4 114.549C174.15 116.849 174.85 123.199 175.4 124.149C175.5 124.349 175.45 124.649 175.25 124.799C173.55 125.999 170.15 126.749 166.15 126.749ZM157.85 124.099C160 125.949 170.45 126.599 174.35 124.099C173.8 122.349 173.25 117.249 174.25 114.549C163.25 112.049 157.4 110.599 155.35 110.049C156.15 112.399 158.15 118.949 157.85 124.099Z" fill="#231815"/>
<path d="M147.25 103.648C147.25 103.648 150.9 108.698 152.05 113.498C152.5 115.448 155.55 117.198 156.5 115.848C157.45 114.498 153.15 104.448 152.7 105.198C151.95 106.448 147.8 105.048 147.25 103.648Z" fill="#231815"/>
<path d="M157.8 114.099C155.2 112.499 153.2 109.099 152.75 106.499C147.4 107.799 142.8 100.549 146.75 97.5492C150.25 94.8992 153.6 99.6992 153.6 99.6992C153.6 99.6992 147.75 88.3992 154.75 83.0992C161.75 77.7992 176.55 76.6992 180.4 86.5992C180.4 86.5992 182.25 96.0992 181.75 104.349C181.25 112.599 177.35 118.099 170.8 118.649C167.7 118.899 165.2 118.149 163.05 116.699" fill="white"/>
<path d="M169.6 119.199C167.05 119.199 164.8 118.499 162.7 117.099C162.45 116.949 162.4 116.649 162.55 116.399C162.7 116.149 163 116.099 163.25 116.249C165.5 117.749 167.9 118.349 170.7 118.099C176.8 117.599 180.75 112.449 181.2 104.299C181.65 96.4989 180 87.4489 179.85 86.7489C178.6 83.5489 176 81.2989 172.35 80.2489C166.85 78.6989 159.55 80.0489 155 83.4989C152.25 85.5989 151.25 88.8489 152 93.2989C152.55 96.6489 154 99.4489 154 99.4989C154.1 99.7489 154.05 99.9989 153.8 100.149C153.55 100.299 153.3 100.199 153.15 99.9989C153.15 99.9989 151.5 97.5989 149.4 97.2989C148.55 97.1489 147.8 97.3989 147 97.9489C145.6 98.9989 145.3 100.749 146.2 102.649C147.25 104.849 149.75 106.699 152.55 105.999C152.7 105.949 152.85 105.999 152.95 106.049C153.05 106.149 153.15 106.249 153.15 106.399C153.55 108.749 155.4 112.099 157.95 113.649C158.2 113.799 158.25 114.099 158.1 114.349C157.95 114.599 157.65 114.649 157.4 114.499C154.75 112.899 152.85 109.649 152.2 107.049C149.1 107.549 146.35 105.449 145.2 103.049C144.1 100.749 144.5 98.4489 146.25 97.0989C147.25 96.3489 148.3 96.0489 149.4 96.2489C150.35 96.3989 151.2 96.8989 151.9 97.4489C150.6 93.6989 149 86.6489 154.25 82.6989C159.05 79.0989 166.7 77.6489 172.45 79.2989C176.45 80.4489 179.25 82.8989 180.65 86.4489C180.65 86.4989 180.65 86.4989 180.65 86.5489C180.65 86.6489 182.5 96.1989 182 104.399C181.5 113.099 177.2 118.599 170.55 119.149C170.4 119.199 170 119.199 169.6 119.199Z" fill="#231815"/>
<path d="M152.2 97.8986C152.2 97.8986 154.15 100.299 154.3 103.649C154.45 106.249 156.4 105.649 156.2 102.449C156 99.2986 155.55 96.7486 156.9 95.5486C158.25 94.3486 159.7 92.5986 160.65 90.8986C169.75 95.0986 182.15 93.4986 185.1 87.0486C188.1 80.3986 184.45 73.4986 177.8 71.3986C166.45 67.7986 155.5 72.6986 153.8 78.0486C147.25 74.9986 140.85 82.0486 142 89.7986C143 96.3986 145.35 99.0486 145.35 99.0486C145.35 99.0486 147.75 94.8486 152.2 97.8986Z" fill="#231815"/>
<path d="M156.8 122.05C156.8 122.05 156.7 124.2 162.35 124.75C167.35 125.2 174.45 124.15 174.8 121.25C180.85 121.9 200.55 127.3 206 130.1C211.45 132.9 215.4 145.15 217.25 154.25C219.35 164.55 227.6 234.25 227.6 234.25H135.75C135.75 234.25 117.25 150.3 125.65 139.5C134.75 127.85 156.8 122.05 156.8 122.05Z" fill="#F9C032"/>
<path d="M172.55 169.75C172.3 169.75 172.1 169.55 172.05 169.35L169.1 151.25C169.05 151 169.25 150.7 169.5 150.7L183.15 148.5C183.15 148.5 183.2 148.5 183.25 148.5C183.5 148.5 183.7 148.7 183.75 148.9L186.7 167C186.75 167.25 186.55 167.55 186.3 167.55L172.65 169.75C172.6 169.75 172.55 169.75 172.55 169.75Z" fill="white"/>
<path d="M183.25 148.949L186.2 167.049L172.55 169.249L169.6 151.149L183.25 148.949ZM183.25 147.949C183.2 147.949 183.15 147.949 183.1 147.949L169.45 150.149C168.9 150.249 168.55 150.749 168.65 151.299L171.6 169.399C171.7 169.899 172.1 170.249 172.6 170.249C172.65 170.249 172.7 170.249 172.75 170.249L186.4 168.049C186.95 167.949 187.3 167.449 187.2 166.899L184.25 148.799C184.15 148.299 183.75 147.949 183.25 147.949Z" fill="#231815"/>
<path d="M128.05 136.848C113.9 148.298 113.45 168.398 115.1 200.548L151 194.248C151 194.248 150.4 185.398 149.1 164.948C149.1 164.948 148.95 149.398 142.65 144.598" fill="#F9C032"/>
<path d="M115.05 201.048C114.95 201.048 114.85 200.998 114.75 200.948C114.65 200.848 114.55 200.748 114.55 200.598C112.95 169.598 113.05 148.348 127.7 136.498C127.9 136.348 128.25 136.348 128.4 136.548C128.55 136.748 128.55 137.098 128.35 137.248C114.15 148.748 114 169.548 115.55 199.948L150.45 193.848C150.3 191.798 149.7 182.698 148.6 164.998C148.6 164.798 148.35 149.598 142.35 144.998C142.15 144.848 142.1 144.498 142.25 144.298C142.4 144.098 142.75 144.048 142.95 144.198C149.35 149.098 149.55 164.298 149.6 164.948C150.85 185.098 151.45 194.148 151.5 194.248C151.5 194.498 151.35 194.748 151.1 194.798L115.2 201.098C115.15 201.048 115.1 201.048 115.05 201.048Z" fill="#231815"/>
<path d="M204.85 130.047C204.85 130.047 217.35 134.747 222.45 147.997C227.55 161.247 234.2 182.947 234.2 182.947L214.7 180.097C214.7 180.097 197.85 140.747 204.85 130.047Z" fill="#F9C032"/>
<path d="M204.85 130.047C204.85 130.047 217.85 134.747 222.9 147.997C227.95 161.247 234.2 182.947 234.2 182.947L219.4 183.347C219.4 183.347 217.1 171.297 214.15 161.547" fill="#F9C032"/>
<path d="M219.4 183.798C219.15 183.798 218.95 183.648 218.9 183.398C218.9 183.298 216.6 171.248 213.7 161.648C213.6 161.398 213.75 161.098 214.05 161.048C214.3 160.948 214.6 161.098 214.65 161.398C217.25 170.048 219.4 180.648 219.8 182.848L233.55 182.498C232.5 178.848 226.95 160.048 222.45 148.198C217.55 135.298 204.85 130.598 204.7 130.548C204.45 130.448 204.3 130.148 204.4 129.898C204.5 129.648 204.8 129.498 205.05 129.598C205.2 129.648 218.3 134.548 223.4 147.848C228.4 160.948 234.65 182.598 234.7 182.848C234.75 182.998 234.7 183.148 234.6 183.298C234.5 183.398 234.35 183.498 234.2 183.498L219.4 183.798Z" fill="#231815"/>
<path d="M195.45 175.898C191.05 177.548 150.3 194.348 150.3 194.348L117.75 200.048C117.75 200.048 118.2 206.848 119.05 219.448C119.65 228.148 130.75 234.148 138.9 233.348C149.65 232.798 182.3 208.498 201.9 195.148C205.35 192.798 209.4 194.798 215.35 191.748" fill="white"/>
<path d="M137.4 233.949C132.75 233.949 127.5 231.999 123.75 228.799C120.6 226.149 118.8 222.899 118.6 219.499C117.75 206.899 117.3 200.099 117.3 200.099C117.3 199.849 117.45 199.599 117.7 199.549L150.2 193.849C151.85 193.149 191.05 176.999 195.35 175.399C195.6 175.299 195.9 175.449 196 175.699C196.1 175.949 195.95 176.249 195.7 176.349C191.35 177.949 150.95 194.649 150.55 194.799C150.5 194.799 150.5 194.799 150.45 194.849L118.35 200.449C118.45 202.149 118.9 208.699 119.65 219.399C119.9 223.399 122.4 226.299 124.45 228.049C128.4 231.399 134.2 233.349 138.95 232.849C147.65 232.399 171.25 215.949 190.15 202.749C194.3 199.849 198.2 197.099 201.7 194.749C203.45 193.549 205.3 193.399 207.4 193.249C209.65 193.049 212.15 192.849 215.2 191.299C215.45 191.149 215.75 191.249 215.85 191.499C216 191.749 215.9 192.049 215.65 192.149C212.4 193.799 209.8 193.999 207.45 194.199C205.5 194.349 203.75 194.499 202.25 195.549C198.75 197.949 194.85 200.649 190.7 203.549C171.65 216.849 147.95 233.399 139 233.849C138.4 233.899 137.9 233.949 137.4 233.949Z" fill="#231815"/>
<path d="M117.95 203L150.95 194.25L117.75 200.05L117.95 203Z" fill="#231815"/>
<path d="M150.3 184.451C150.15 179.751 155.05 173.451 165.15 175.001C182 177.601 221 190.101 221 190.101L219.4 183.501L234.15 182.901C234.15 182.901 237.8 195.701 239.65 207.001C241.3 216.901 236.15 224.551 225.25 223.451C212.35 222.101 170.4 192.451 164.05 188.501C159.05 190.451 150.95 194.251 150.95 194.251C150.95 194.251 150.45 188.651 150.3 184.451Z" fill="white"/>
<path d="M227.4 224.05C226.7 224.05 226 224 225.25 223.95C214.45 222.85 184.3 202.65 169.85 192.9C167.15 191.1 165.15 189.75 164.05 189.05C159.1 191 151.25 194.65 151.2 194.65C151.05 194.7 150.9 194.7 150.75 194.65C150.6 194.55 150.5 194.4 150.5 194.25C150.5 194.2 150 188.6 149.85 184.45C149.75 181.9 151 179.25 153.2 177.35C156.1 174.75 160.4 173.75 165.3 174.5C180.65 176.85 214.6 187.55 220.4 189.35L219 183.6C218.95 183.45 219 183.3 219.1 183.2C219.2 183.1 219.35 183 219.5 183L234.25 182.4C234.5 182.4 234.7 182.55 234.75 182.75C234.8 182.9 238.4 195.75 240.25 206.9C241.15 212.4 240.05 217.15 237.1 220.3C234.7 222.8 231.4 224.05 227.4 224.05ZM164.1 188C164.2 188 164.3 188.05 164.35 188.1C165.45 188.8 167.5 190.15 170.4 192.1C183.7 201 214.75 221.85 225.35 222.95C230.05 223.45 233.85 222.3 236.35 219.6C239.05 216.7 240.1 212.25 239.25 207.05C237.6 197 234.45 185.6 233.85 183.4L220.1 183.95L221.55 189.95C221.6 190.15 221.55 190.3 221.4 190.45C221.25 190.55 221.1 190.6 220.9 190.55C220.5 190.45 181.75 178 165.1 175.45C160.5 174.75 156.5 175.65 153.8 178.05C151.85 179.75 150.75 182.15 150.8 184.35C150.9 187.6 151.25 191.75 151.4 193.4C153.45 192.45 159.75 189.55 163.9 187.95C163.95 188 164.05 188 164.1 188Z" fill="#231815"/>
<path d="M220.55 188.1L221.2 189.75L236.25 192.55L234.95 187.75L220.55 188.1Z" fill="#231815"/>
<path d="M148.35 99.7998C148.35 99.7998 149.85 98.6498 151.15 100.05L148.35 99.7998Z" fill="white"/>
<path d="M151.1 100.548C150.95 100.548 150.85 100.498 150.75 100.398C149.8 99.3984 148.75 100.148 148.65 100.198C148.45 100.348 148.1 100.298 147.95 100.098C147.8 99.8984 147.85 99.5484 148.05 99.3984C148.7 98.8984 150.2 98.3484 151.5 99.6984C151.7 99.8984 151.7 100.198 151.5 100.398C151.35 100.498 151.25 100.548 151.1 100.548Z" fill="#231815"/>
<path d="M167.2 99.7469C167.669 99.7469 168.05 99.3663 168.05 98.8969C168.05 98.4274 167.669 98.0469 167.2 98.0469C166.731 98.0469 166.35 98.4274 166.35 98.8969C166.35 99.3663 166.731 99.7469 167.2 99.7469Z" fill="#231815"/>
<path d="M176.6 99.4969C177.069 99.4969 177.45 99.1163 177.45 98.6469C177.45 98.1774 177.069 97.7969 176.6 97.7969C176.131 97.7969 175.75 98.1774 175.75 98.6469C175.75 99.1163 176.131 99.4969 176.6 99.4969Z" fill="#231815"/>
<path d="M173.65 105.898C173.5 105.898 173.35 105.848 173.25 105.748C173.05 105.548 173.1 105.198 173.3 105.048C173.55 104.848 173.7 104.598 173.7 104.348C173.7 104.098 173.45 103.898 173.25 103.798C172.25 103.148 172.2 101.598 172.2 101.398C172.2 101.148 172.45 100.898 172.7 100.898C173 100.898 173.2 101.148 173.2 101.398C173.2 101.698 173.3 102.648 173.8 102.948C174.5 103.398 174.65 103.948 174.7 104.298C174.75 104.848 174.45 105.398 174 105.798C173.9 105.848 173.8 105.898 173.65 105.898Z" fill="#231815"/>
<path d="M164.25 97.1492C164.15 97.1492 164.05 97.0992 163.95 97.0492C163.75 96.8992 163.7 96.5492 163.85 96.3492C163.9 96.2992 164.6 95.3992 165.75 95.2992C166.5 95.2492 167.3 95.4992 168 96.1492C168.2 96.3492 168.25 96.6492 168.05 96.8492C167.85 97.0492 167.55 97.0992 167.35 96.8992C166.85 96.4492 166.35 96.2492 165.85 96.2992C165.1 96.3492 164.6 96.9492 164.6 96.9492C164.5 97.0992 164.4 97.1492 164.25 97.1492Z" fill="#231815"/>
<path d="M175.7 96.9971C175.6 96.9971 175.55 96.9971 175.45 96.9471C175.2 96.7971 175.1 96.4971 175.25 96.2971C175.3 96.1971 175.7 95.4971 176.55 95.2471C177.25 95.0471 178 95.1971 178.8 95.6471C179.05 95.7971 179.1 96.0971 179 96.3471C178.85 96.5971 178.55 96.6471 178.3 96.5471C177.75 96.2471 177.25 96.1471 176.85 96.2471C176.35 96.3971 176.15 96.7971 176.15 96.7971C176.05 96.8971 175.85 96.9971 175.7 96.9971Z" fill="#231815"/>
<path d="M172 114.098C171.9 114.098 171.8 114.098 171.75 114.098C168.2 113.848 168.2 108.798 168.2 108.598C168.2 108.298 168.4 108.098 168.7 108.098H175.65C175.8 108.098 175.9 108.148 176 108.248C176.1 108.348 176.15 108.498 176.15 108.598C176.15 108.748 175.95 111.748 174.25 113.248C173.6 113.798 172.85 114.098 172 114.098ZM169.2 109.048C169.3 110.198 169.75 112.898 171.8 113.048C172.5 113.098 173.05 112.898 173.55 112.498C174.55 111.598 174.95 109.898 175.05 109.048H169.2Z" fill="#231815"/>
<path d="M174.9 176.949L181.1 178.199C181.1 178.199 176.65 184.999 175.55 195.549C170.5 192.599 169.15 191.449 169.15 191.449C169.15 191.449 170.75 180.399 174.9 176.949Z" fill="#231815"/>
<path d="M177.25 123.148C177.25 123.148 174.35 127.748 167.1 127.748L177.25 123.148Z" fill="#F9C032"/>
<path d="M167.1 128.248C166.8 128.248 166.6 128.048 166.6 127.748C166.6 127.448 166.8 127.248 167.1 127.248C174 127.248 176.7 123.098 176.85 122.898C177 122.648 177.3 122.598 177.55 122.748C177.8 122.898 177.85 123.198 177.7 123.448C177.55 123.598 174.6 128.248 167.1 128.248Z" fill="#231815"/>
<path d="M150.95 124.098L176.25 148.198C176.25 148.198 177.9 141.348 178.65 136.398C179.65 129.498 180.25 122.348 180.25 122.348L183.7 123.148C183.7 123.148 183.2 130.048 182 137.248C181.3 141.448 179.7 148.498 179.25 150.648C179.15 151.048 178.85 151.298 178.45 151.348L175.6 151.748C175.3 151.798 175.05 151.698 174.8 151.498L147.35 125.298L150.95 124.098Z" fill="#231815"/>
<path d="M222.1 190.999C222.05 190.999 222 190.999 221.95 190.999L220.15 190.399C219.9 190.299 219.75 190.049 219.85 189.749C219.95 189.499 220.2 189.349 220.5 189.449L222.3 190.049C222.55 190.149 222.7 190.399 222.6 190.699C222.5 190.849 222.3 190.999 222.1 190.999Z" fill="#231815"/>
<path d="M163 116.699C163 116.699 165.35 122.299 174.45 122.049C173.95 119.499 173.95 118.149 173.95 118.149C173.95 118.149 167.25 119.399 163 116.699Z" fill="#231815"/>
<path d="M182.5 77.9977C182.3 77.9977 182.15 77.8977 182.05 77.6977C181.05 75.5477 178.9 74.7977 178.85 74.7977C178.6 74.6977 178.45 74.4477 178.55 74.1477C178.65 73.8977 178.9 73.7477 179.2 73.8477C179.3 73.8977 181.8 74.7477 183 77.2977C183.1 77.5477 183 77.8477 182.75 77.9477C182.6 77.9977 182.55 77.9977 182.5 77.9977Z" fill="white"/>
<path d="M174.1 113.097C173.95 113.097 173.8 113.047 173.7 112.897C172.4 111.097 169.45 111.547 169.4 111.547C169.15 111.597 168.85 111.397 168.85 111.147C168.8 110.897 169 110.597 169.25 110.597C169.4 110.597 172.9 110.047 174.55 112.347C174.7 112.547 174.65 112.897 174.45 113.047C174.3 113.097 174.2 113.097 174.1 113.097Z" fill="#231815"/>
<path d="M195.45 175.898L204.95 169.148C207.35 167.098 210.3 165.848 213.4 165.498C217.6 164.998 223.3 164.398 224.95 164.348C227.15 164.298 225.6 168.748 223.3 169.148C220.3 169.648 217.15 170.048 217.15 170.048L227.65 170.848L235.5 172.798C236.4 172.998 236.95 173.898 236.8 174.798C236.65 175.798 235.7 176.448 234.7 176.248L232.1 175.698L238.95 177.098C240.05 177.348 240.75 178.348 240.55 179.448L240.5 179.698C240.3 180.848 239.15 181.648 238 181.348L234.55 180.698L235.9 180.948C237.1 181.198 237.9 182.298 237.7 183.498C237.5 184.698 236.4 185.498 235.2 185.348L232.45 184.998L233.45 185.148C234.5 185.298 235.25 186.348 235.05 187.398C234.85 188.398 233.95 189.098 232.9 188.948L228 188.348L222.7 187.698C222.7 187.698 219.95 187.598 217.65 188.248C215.9 188.748 212.6 187.448 210.3 186.848L199.9 183.698" fill="white"/>
<path d="M233.15 189.448C233.05 189.448 232.95 189.448 232.85 189.448L222.65 188.198C222.65 188.198 222.6 188.198 222.45 188.198C221.8 188.198 219.6 188.248 217.8 188.748C216.3 189.148 214 188.448 211.95 187.848C211.35 187.648 210.75 187.498 210.2 187.348L199.8 184.148C199.55 184.048 199.4 183.798 199.45 183.548C199.55 183.298 199.8 183.148 200.05 183.198L210.45 186.348C210.95 186.498 211.55 186.648 212.2 186.848C214.15 187.398 216.3 188.048 217.5 187.748C219.85 187.098 222.6 187.148 222.7 187.148L232.95 188.398C233.7 188.498 234.4 187.998 234.55 187.248C234.6 186.848 234.55 186.498 234.3 186.148C234.05 185.848 233.75 185.648 233.35 185.548L232.35 185.398C232.1 185.348 231.9 185.098 231.95 184.848C232 184.598 232.25 184.398 232.5 184.398L235.25 184.748C236.15 184.848 237.05 184.248 237.2 183.298C237.35 182.398 236.75 181.548 235.9 181.348L234.5 181.148C234.25 181.098 234.05 180.848 234.1 180.548C234.15 180.298 234.4 180.098 234.7 180.148L236.05 180.398C236.1 180.398 236.1 180.398 236.15 180.398L238.2 180.798C238.65 180.898 239.1 180.848 239.45 180.598C239.8 180.348 240.05 179.998 240.15 179.548L240.2 179.298C240.35 178.448 239.8 177.698 239 177.498L232 176.148C231.75 176.098 231.55 175.848 231.6 175.548C231.65 175.298 231.9 175.098 232.2 175.148L234.8 175.698C235.15 175.748 235.5 175.698 235.75 175.498C236.05 175.298 236.2 174.998 236.25 174.648C236.35 173.998 235.95 173.398 235.3 173.248L227.5 171.298L217.05 170.498C216.8 170.498 216.6 170.248 216.6 169.998C216.6 169.748 216.8 169.498 217.05 169.498C217.1 169.498 220.25 169.098 223.2 168.598C224.5 168.398 225.6 166.398 225.5 165.348C225.45 164.898 225.25 164.798 224.95 164.848C223.7 164.898 219.6 165.298 213.45 165.998C210.4 166.348 207.55 167.548 205.25 169.548L195.7 176.298C195.45 176.448 195.15 176.398 195 176.198C194.85 175.948 194.9 175.648 195.1 175.498L204.6 168.748C207.05 166.648 210.05 165.348 213.3 164.998C217.65 164.498 223.25 163.898 224.9 163.848C225.75 163.848 226.4 164.348 226.45 165.298C226.6 166.798 225.25 169.348 223.3 169.648C222.75 169.748 222.25 169.798 221.7 169.898L227.6 170.348C227.65 170.348 227.65 170.348 227.7 170.348L235.55 172.298C236.65 172.598 237.4 173.698 237.25 174.848C237.15 175.348 236.95 175.748 236.6 176.098L239 176.598C240.35 176.898 241.25 178.148 241 179.548L240.95 179.798C240.85 180.498 240.4 181.098 239.85 181.498C239.25 181.898 238.55 181.998 237.85 181.848C238.15 182.348 238.25 182.948 238.15 183.598C237.9 185.048 236.65 185.998 235.2 185.898C235.5 186.398 235.6 186.948 235.45 187.548C235.3 188.648 234.3 189.448 233.15 189.448Z" fill="#231815"/>
<path d="M224.6 174.801L228.45 175.001L232.1 175.651" fill="white"/>
<path d="M232.1 176.15C232.05 176.15 232.05 176.15 232 176.15L228.35 175.5L224.55 175.3C224.25 175.3 224.05 175.05 224.1 174.8C224.15 174.55 224.35 174.3 224.6 174.35L228.4 174.55H228.45L232.15 175.2C232.4 175.25 232.6 175.5 232.55 175.8C232.55 176 232.35 176.15 232.1 176.15Z" fill="#231815"/>
<path d="M234.55 180.699L229.3 179.599L224.45 179.449" fill="white"/>
<path d="M234.55 181.2C234.5 181.2 234.5 181.2 234.45 181.2L229.25 180.15L224.4 180C224.1 180 223.9 179.75 223.9 179.5C223.9 179.2 224.15 179 224.4 179L229.3 179.15C229.35 179.15 229.35 179.15 229.4 179.15L234.65 180.2C234.9 180.25 235.1 180.5 235.05 180.8C235 181 234.8 181.2 234.55 181.2Z" fill="#231815"/>
<path d="M232.45 184.998L229.15 184.298L223.85 183.898" fill="white"/>
<path d="M232.45 185.498C232.4 185.498 232.4 185.498 232.35 185.498L229.05 184.798L223.8 184.398C223.5 184.398 223.3 184.148 223.35 183.848C223.35 183.548 223.6 183.348 223.9 183.398L229.2 183.798H229.25L232.55 184.498C232.8 184.548 233 184.798 232.95 185.098C232.9 185.348 232.7 185.498 232.45 185.498Z" fill="#231815"/>
<path d="M43.9 82.7992C48.3459 82.7992 51.95 79.1951 51.95 74.7492C51.95 70.3033 48.3459 66.6992 43.9 66.6992C39.4541 66.6992 35.85 70.3033 35.85 74.7492C35.85 79.1951 39.4541 82.7992 43.9 82.7992Z" fill="#F9C032"/>
<path d="M37.4 90.9989C37.35 90.9989 37.25 90.9989 37.2 90.9489L23.4 85.2989C23.15 85.1989 23 84.8989 23.15 84.6489L28.8 70.8489C28.9 70.5989 29.2 70.4489 29.45 70.5989L43.25 76.2489C43.35 76.2989 43.45 76.3989 43.5 76.4989C43.55 76.5989 43.55 76.7489 43.5 76.8989L37.85 90.6989C37.8 90.7989 37.7 90.8989 37.6 90.9489C37.55 90.9489 37.5 90.9989 37.4 90.9989ZM24.25 84.5489L37.15 89.8489L42.45 76.9489L29.55 71.6489L24.25 84.5489Z" fill="#231815"/>
<path d="M224.45 92.5469L215.95 91.5469L207.45 90.4969L212.55 83.6469L217.7 76.7969L221.1 84.6469L224.45 92.5469Z" fill="#EEEEEE"/>
<path d="M227.55 106.198C221.85 106.198 217.15 101.548 217.15 95.7984C217.15 90.0484 221.8 85.3984 227.55 85.3984C233.3 85.3984 237.95 90.0484 237.95 95.7984C237.95 101.548 233.25 106.198 227.55 106.198ZM227.55 86.4484C222.4 86.4484 218.15 90.6484 218.15 95.8484C218.15 101.048 222.35 105.248 227.55 105.248C232.75 105.248 236.95 101.048 236.95 95.8484C236.95 90.6484 232.7 86.4484 227.55 86.4484Z" fill="#231815"/>
<path d="M162.5 189.35L184.2 207.45L188.55 204.4L164.1 188.5L162.5 189.35Z" fill="#231815"/>
<path d="M72.8 207.297L90.55 197.797L91.65 198.197L75.4 209.347L72.8 207.297Z" fill="#231815"/>
<path d="M71.5548 29.9228L69.9761 32.1133L77.44 37.4925L79.0187 35.302L71.5548 29.9228Z" fill="#F9C032"/>
<path d="M79.6603 24.0276L77.3138 25.3633L81.865 33.359L84.2116 32.0233L79.6603 24.0276Z" fill="#F9C032"/>
<path d="M67.3603 40.1203L67.3448 42.8203L76.5448 42.8733L76.5603 40.1733L67.3603 40.1203Z" fill="#F9C032"/>
</svg>
