<svg width="201" height="200" viewBox="0 0 201 200" fill="none" xmlns="http://www.w3.org/2000/svg">
<g clip-path="url(#clip0_1433_9145)">
<path d="M51.1588 108.48C58.8999 105.918 61.2792 92.0682 56.473 77.5455C51.6667 63.0228 41.4951 53.3267 33.7539 55.8886C26.0128 58.4505 23.6335 72.3003 28.4397 86.823C33.246 101.346 43.4176 111.042 51.1588 108.48Z" fill="#080717"/>
<path d="M155.873 101.028C150.992 99.9913 149.223 89.0711 151.846 76.6257C154.47 64.1803 160.57 54.9683 165.451 56.0054C170.331 57.0425 172.101 67.9628 169.477 80.4082C166.854 92.7925 160.753 102.066 155.873 101.028Z" fill="#080717"/>
<path d="M118.414 126.527C120.61 126.405 121.648 124.392 120.732 122.013L93.8895 47.5845C93.2794 45.8763 91.8152 44.1682 90.5951 43.8631L2.01319 28.6114C0.793053 28.4894 0.243992 30.2586 0.85406 32.6379L27.8801 133.665C28.7952 136.96 31.3575 139.217 33.5537 138.729L118.414 126.527Z" stroke="#080717" stroke-width="2" stroke-miterlimit="10" stroke-linecap="round" stroke-linejoin="round"/>
<path d="M10.0662 38.4953C10.3712 39.7154 10.0052 40.6915 9.21207 40.6305C8.41898 40.5695 7.50388 39.5324 7.19884 38.2512C6.89381 37.0311 7.25985 36.055 8.05294 36.116C8.84603 36.177 9.76113 37.2141 10.0662 38.4953Z" fill="black"/>
<path d="M14.2751 38.8598C14.5802 40.08 14.2141 40.9951 13.4211 40.9341C12.628 40.8731 11.7129 39.8359 11.4078 38.6158C11.1028 37.3957 11.4688 36.4196 12.2619 36.5416C13.055 36.5416 13.9701 37.6397 14.2751 38.8598Z" fill="black"/>
<path d="M18.4246 39.2274C18.7296 40.4475 18.3636 41.3626 17.5705 41.3016C16.7774 41.2406 15.8623 40.2035 15.5572 38.9834C15.2522 37.7632 15.6182 36.8481 16.4113 36.9091C17.2044 36.9701 18.1195 38.0073 18.4246 39.2274Z" fill="black"/>
<path d="M181.312 123.172C183.02 123.904 184.79 122.379 185.278 119.756L199.858 40.6298C200.163 38.8607 199.553 37.5185 198.516 37.6405L144.647 42.155C143.61 42.216 142.573 43.2531 142.329 44.4123L132.507 98.0373C132.202 99.8675 133.3 102.003 135.069 102.735L181.312 123.172Z" stroke="#080717" stroke-width="2" stroke-miterlimit="10" stroke-linecap="round" stroke-linejoin="round"/>
<path d="M148.552 46.8552C148.43 47.5262 147.759 48.0753 147.088 48.1363C146.417 48.1363 145.99 47.6483 146.112 46.9772C146.234 46.3061 146.905 45.7571 147.576 45.696C148.247 45.635 148.674 46.1841 148.552 46.8552Z" fill="black"/>
<path d="M152.151 46.7319C152.029 47.4639 151.358 48.013 150.687 48.013C150.016 48.013 149.589 47.4639 149.711 46.7929C149.833 46.1218 150.504 45.5117 151.175 45.5117C151.846 45.5117 152.273 46.0608 152.151 46.7319Z" fill="black"/>
<path d="M155.751 46.6093C155.629 47.3414 154.958 47.9514 154.287 47.9514C153.616 47.9514 153.189 47.4024 153.311 46.6703C153.433 45.9382 154.104 45.3891 154.775 45.3281C155.446 45.3281 155.873 45.8772 155.751 46.6093Z" fill="black"/>
<path d="M120.733 89.7391H42.7659C38.1904 89.7391 34.0419 87.2378 31.9067 83.1503L31.0526 81.5031C27.0261 73.8773 28.8563 64.4822 35.384 58.8086H120.794V89.7391H120.733Z" fill="#A0AFC1"/>
<path d="M154.958 89.7391H106.823V58.8086H160.631C163.743 58.8086 166.366 61.2489 166.549 64.3602L166.915 69.8508C167.22 75.2194 165.939 80.527 163.133 85.1025C161.363 87.9699 158.313 89.7391 154.958 89.7391Z" fill="#FCCC42"/>
<path d="M74.0619 94.0681L83.579 86.0762L77.5393 80.8906L69.3034 88.7605C67.9612 90.0416 67.8392 92.1769 68.9983 93.58C70.2795 95.1662 72.5367 95.3492 74.0619 94.0681Z" fill="#FCCC42"/>
<path d="M79.6132 98.7048L89.0692 90.7129L83.0295 85.5273L74.7936 93.3972C73.4515 94.6784 73.3295 96.8136 74.4886 98.2168C75.7697 99.8029 78.088 99.986 79.6132 98.7048Z" fill="#FCCC42"/>
<path d="M85.9583 103.343L94.6823 96.8148L88.8257 89.25L80.8948 97.791C79.6136 99.1941 79.5526 101.268 80.7728 102.733C82.0539 104.258 84.3722 104.563 85.9583 103.343Z" fill="#FCCC42"/>
<path d="M91.1443 106.028L96.6349 103.466L92.9745 96.3281L87.7889 101.026C86.6298 102.063 86.4468 103.893 87.4229 105.113C88.277 106.272 89.8631 106.699 91.1443 106.028Z" fill="#FCCC42"/>
<path d="M131.347 60.4549C127.077 61.5531 122.562 61.4921 118.292 60.3329L108.531 57.7096C105.664 56.9166 102.613 57.7096 100.417 59.7229L77.3564 80.8922L96.4516 103.587L120.671 91.8125L131.286 89.1282V60.4549H131.347Z" fill="#FCCC42"/>
<path d="M111.887 97.4242L113.656 96.082L115.669 88.8222C115.852 88.0901 116.401 87.48 117.133 87.175C118.78 86.5649 120.489 87.7851 120.489 89.4933L120.367 98.4003C120.306 101.39 117.499 103.525 114.632 102.732L111.765 101.939L111.887 97.4242Z" fill="#A0AFC1"/>
<path d="M105.908 99.1342L107.799 91.2033C108.043 89.5561 109.569 88.458 111.216 88.641C112.68 88.824 113.778 90.1051 113.839 91.5693L114.205 103.222C114.266 106.15 111.155 108.041 108.653 106.577L105.664 104.869L105.908 99.1342Z" fill="#A0AFC1"/>
<path d="M99.5632 102.062L94.8047 104.319L100.539 107.919C102.797 109.322 105.664 107.736 105.725 105.113L105.969 95.9616C106.03 94.1314 104.322 92.7282 102.553 93.1553C101.454 93.3993 100.6 94.3754 100.417 95.5345L99.5632 102.062Z" fill="#A0AFC1"/>
<path d="M99.563 101.817L80.5898 78.3906" stroke="#0B0B16" stroke-width="2" stroke-miterlimit="10" stroke-linecap="round" stroke-linejoin="round"/>
<path d="M74.7939 93.4596L85.2261 84.3086" stroke="#0B0B16" stroke-width="2" stroke-miterlimit="10" stroke-linecap="round" stroke-linejoin="round"/>
<path d="M80.9561 97.7306L90.4121 90.7148" stroke="#0B0B16" stroke-width="2" stroke-miterlimit="10" stroke-linecap="round" stroke-linejoin="round"/>
<path d="M86.8125 102.185L95.4755 96.8164" stroke="#0B0B16" stroke-width="2" stroke-miterlimit="10" stroke-linecap="round" stroke-linejoin="round"/>
<path d="M113.899 95.0469L114.082 100.293" stroke="#0B0B16" stroke-width="2" stroke-miterlimit="10" stroke-linecap="round" stroke-linejoin="round"/>
<path d="M105.908 99.1328L105.786 105.111" stroke="#0B0B16" stroke-width="2" stroke-miterlimit="10" stroke-linecap="round" stroke-linejoin="round"/>
<path d="M116.523 92.7908L118.658 92.2417L123.356 86.3241C123.844 85.714 124.576 85.3479 125.369 85.4089C127.138 85.47 128.236 87.2392 127.565 88.8863L123.966 97.0002C122.746 99.7456 119.329 100.6 117.011 98.7694L114.632 96.9392L116.523 92.7908Z" fill="#A0AFC1"/>
<path d="M120.732 90.2266L120.55 99.2556" stroke="#0B0B16" stroke-width="2" stroke-miterlimit="10" stroke-linecap="round" stroke-linejoin="round"/>
<path d="M119.146 64.7263L102.43 56.7954C97.0008 54.2332 90.8391 53.5621 84.9824 54.9652L74.6113 57.4665C69.2427 58.7477 62.1049 60.8829 56.6143 60.4558L58.2614 86.2617C61.4338 86.8108 64.5451 87.6649 67.5345 88.885L68.8766 89.2511L87.6057 71.6201C90.9001 68.1427 94.6825 66.1295 99.38 67.1056L110.971 69.4849C113.656 70.0339 116.523 69.4849 118.841 68.0207L119.39 67.6547C120.488 66.9226 120.366 65.2754 119.146 64.7263Z" fill="#A0AFC1"/>
<path d="M99.4409 115.363C93.8283 122.44 88.2156 129.456 82.542 136.533C88.2766 151.784 98.9528 163.742 112.13 170.269C121.098 160.142 130.005 150.015 138.973 139.888C122.379 136.655 108.287 127.748 99.4409 115.363Z" fill="white" stroke="black" stroke-width="2"/>
<path d="M109.69 161.606C113.107 157.702 116.523 153.736 119.94 149.832" stroke="#1D1D1B" stroke-width="2" stroke-miterlimit="10"/>
<path d="M99.7461 153.982C104.444 148.491 109.141 142.94 113.839 137.449" stroke="#1D1D1B" stroke-width="2" stroke-miterlimit="10"/>
<path d="M95.3535 149.345C98.8309 145.197 102.308 141.048 105.786 136.961" stroke="#1D1D1B" stroke-width="2" stroke-miterlimit="10"/>
<path d="M162.217 120.488L165.633 127.748" stroke="#282D33" stroke-width="2"/>
<path d="M126.711 138.362L163.62 119.816C164.413 119.45 165.572 120.243 166.182 121.646L167.341 124.086C168.013 125.428 167.891 126.831 167.097 127.197L130.188 145.743" fill="#1D1D1B"/>
<path d="M162.4 120.364L165.878 127.746L167.098 127.197C167.891 126.831 168.013 125.428 167.342 124.086L166.183 121.645C165.512 120.303 164.414 119.51 163.621 119.815L162.4 120.364Z" fill="#FCCC42"/>
<path d="M123.233 144.463L126.65 139.582L129.212 145.012L123.233 144.463Z" fill="white"/>
<path d="M126.528 140.804L128.175 144.342L124.271 143.976L126.528 140.804ZM126.772 138.363L122.136 144.952L130.25 145.684L126.772 138.363Z" fill="#080717"/>
<path d="M126.101 145.318L124.393 141.719L122.136 144.952L126.101 145.318Z" fill="#1D1D1B"/>
</g>
<defs>
<clipPath id="clip0_1433_9145">
<rect width="200.59" height="143" fill="white" transform="translate(0 28)"/>
</clipPath>
</defs>
</svg>
