<svg width="256" height="256" viewBox="0 0 256 256" fill="none" xmlns="http://www.w3.org/2000/svg">
<path d="M60.9502 167.051H239.65V188.051C239.65 190.251 237.85 192.051 235.65 192.051H64.9502C62.7502 192.051 60.9502 190.251 60.9502 188.051V167.051Z" fill="#231815"/>
<path d="M235.65 192.551H64.9502C62.4502 192.551 60.4502 190.551 60.4502 188.051V167.051C60.4502 166.751 60.6502 166.551 60.9502 166.551H239.65C239.95 166.551 240.15 166.751 240.15 167.051V188.051C240.15 190.501 238.1 192.551 235.65 192.551ZM61.4502 167.551V188.051C61.4502 190.001 63.0002 191.551 64.9502 191.551H235.65C237.6 191.551 239.15 190.001 239.15 188.051V167.551H61.4502Z" fill="#231815"/>
<path d="M64.6001 31.6992H235.3C237.5 31.6992 239.3 33.4992 239.3 35.6992V186.149C239.3 188.349 237.5 190.149 235.3 190.149H64.6001C62.4001 190.149 60.6001 188.349 60.6001 186.149V35.6992C60.6001 33.4492 62.3501 31.6992 64.6001 31.6992Z" fill="white"/>
<path d="M235.25 190.649H64.6001C62.1001 190.649 60.1001 188.649 60.1001 186.149V35.6992C60.1001 33.1992 62.1001 31.1992 64.6001 31.1992H235.3C237.8 31.1992 239.8 33.1992 239.8 35.6992V186.149C239.75 188.649 237.75 190.649 235.25 190.649ZM64.6001 32.1992C62.6501 32.1992 61.1001 33.7492 61.1001 35.6992V186.149C61.1001 188.099 62.6501 189.649 64.6001 189.649H235.3C237.25 189.649 238.8 188.099 238.8 186.149V35.6992C238.8 33.7492 237.25 32.1992 235.3 32.1992H64.6001Z" fill="#231815"/>
<path d="M159 112.448C166.677 112.448 172.9 106.225 172.9 98.5484C172.9 90.8717 166.677 84.6484 159 84.6484C151.323 84.6484 145.1 90.8717 145.1 98.5484C145.1 106.225 151.323 112.448 159 112.448Z" fill="#F9C032"/>
<path d="M129.6 74.3998C132.8 73.6498 135.95 75.6498 136.7 78.8498L142.5 104.2C143.25 107.4 141.25 110.55 138.05 111.3C134.85 112.05 131.7 110.05 130.95 106.85L125.15 81.4998C124.4 78.2998 126.4 75.1498 129.6 74.3998Z" fill="#EEEEEF"/>
<path d="M172.3 115.048H129.75C129.5 115.048 129.3 114.898 129.25 114.648L124.2 91.298C124.15 91.148 124.2 90.998 124.3 90.898C124.4 90.798 124.5 90.698 124.65 90.698L178.7 86.998L181.2 76.948C181.25 76.798 181.3 76.698 181.45 76.648L187.55 72.998C187.8 72.848 188.1 72.948 188.25 73.148C188.4 73.398 188.3 73.698 188.1 73.848L182.15 77.398L179.6 87.548C179.6 87.598 179.6 87.598 179.55 87.648L172.75 114.698C172.75 114.898 172.55 115.048 172.3 115.048ZM130.15 114.048H171.9L178.45 87.998L125.3 91.648L130.15 114.048Z" fill="#231815"/>
<path d="M127.25 103.449C127 103.449 126.75 103.249 126.75 102.949C126.75 102.649 126.95 102.449 127.25 102.449L175.8 100.199C176.1 100.199 176.3 100.399 176.3 100.699C176.3 100.999 176.1 101.199 175.8 101.199L127.25 103.449Z" fill="#231815"/>
<path d="M136.65 114.697C136.4 114.697 136.2 114.497 136.15 114.247L133.35 90.5967C133.3 90.3467 133.5 90.0967 133.8 90.0467C134.05 89.9967 134.3 90.1967 134.35 90.4967L137.15 114.147C137.2 114.397 137 114.647 136.7 114.697C136.7 114.697 136.7 114.697 136.65 114.697Z" fill="#231815"/>
<path d="M145.45 114.698C145.2 114.698 144.95 114.498 144.95 114.248L143.15 89.8977C143.15 89.5977 143.35 89.3977 143.6 89.3477C143.85 89.3477 144.1 89.5477 144.15 89.7977L145.95 114.148C146 114.448 145.8 114.698 145.45 114.698C145.5 114.698 145.5 114.698 145.45 114.698Z" fill="#231815"/>
<path d="M154.3 115.048C154.25 115.048 154.25 115.048 154.3 115.048C154 115.048 153.8 114.798 153.8 114.548L154.65 89.0977C154.65 88.7977 154.9 88.5977 155.15 88.5977C155.45 88.5977 155.65 88.8477 155.65 89.0977L154.8 114.548C154.75 114.848 154.55 115.048 154.3 115.048Z" fill="#231815"/>
<path d="M164.35 115.046H164.3C164.05 114.996 163.85 114.746 163.85 114.496L166.9 88.1961C166.95 87.9461 167.2 87.7461 167.45 87.7461C167.7 87.7961 167.9 88.0461 167.9 88.2961L164.85 114.596C164.85 114.846 164.6 115.046 164.35 115.046Z" fill="#231815"/>
<path d="M169 127.348H130.1C129.8 127.348 129.6 127.148 129.6 126.848C129.6 126.548 129.8 126.348 130.1 126.348H168.6L172.4 112.098C172.45 111.848 172.75 111.698 173 111.748C173.25 111.798 173.45 112.098 173.35 112.348L169.45 126.948C169.45 127.198 169.25 127.348 169 127.348Z" fill="#231815"/>
<path d="M136.1 136.299C134 136.299 132.3 134.599 132.3 132.499C132.3 130.399 134 128.699 136.1 128.699C138.2 128.699 139.9 130.399 139.9 132.499C139.9 134.599 138.15 136.299 136.1 136.299ZM136.1 129.699C134.55 129.699 133.3 130.949 133.3 132.499C133.3 134.049 134.55 135.299 136.1 135.299C137.65 135.299 138.9 134.049 138.9 132.499C138.9 130.949 137.6 129.699 136.1 129.699Z" fill="#231815"/>
<path d="M136.1 134.098C135.2 134.098 134.5 133.398 134.5 132.498C134.5 131.598 135.2 130.898 136.1 130.898C137 130.898 137.7 131.598 137.7 132.498C137.7 133.398 136.95 134.098 136.1 134.098ZM136.1 131.898C135.75 131.898 135.5 132.148 135.5 132.498C135.5 132.848 135.75 133.098 136.1 133.098C136.45 133.098 136.7 132.848 136.7 132.498C136.7 132.148 136.4 131.898 136.1 131.898Z" fill="#231815"/>
<path d="M166.3 136.346C164.2 136.346 162.5 134.646 162.5 132.546C162.5 130.446 164.2 128.746 166.3 128.746C168.4 128.746 170.1 130.446 170.1 132.546C170.1 134.646 168.4 136.346 166.3 136.346ZM166.3 129.746C164.75 129.746 163.5 130.996 163.5 132.546C163.5 134.096 164.75 135.346 166.3 135.346C167.85 135.346 169.1 134.096 169.1 132.546C169.1 130.996 167.85 129.746 166.3 129.746Z" fill="#231815"/>
<path d="M166.3 134.149C165.4 134.149 164.7 133.449 164.7 132.549C164.7 131.649 165.4 130.949 166.3 130.949C167.2 130.949 167.9 131.649 167.9 132.549C167.9 133.449 167.15 134.149 166.3 134.149ZM166.3 131.949C165.95 131.949 165.7 132.199 165.7 132.549C165.7 132.899 165.95 133.149 166.3 133.149C166.65 133.149 166.9 132.899 166.9 132.549C166.9 132.199 166.6 131.949 166.3 131.949Z" fill="#231815"/>
<path d="M127.2 175.7C121.9 175.7 117.6 171.4 117.6 166.1C117.6 160.8 121.9 156.5 127.2 156.5H175.45C180.75 156.5 185.05 160.8 185.05 166.1C185.05 171.4 180.75 175.7 175.45 175.7H127.2Z" fill="#F9C032"/>
<path d="M175.4 156.949C180.45 156.949 184.5 161.049 184.5 166.049C184.5 171.049 180.4 175.149 175.4 175.149H127.15C122.1 175.149 118.05 171.049 118.05 166.049C118.05 161.049 122.15 156.949 127.15 156.949H175.4ZM175.4 155.949H127.15C121.55 155.949 117.05 160.499 117.05 166.049C117.05 171.599 121.6 176.149 127.15 176.149H175.4C181 176.149 185.5 171.599 185.5 166.049C185.5 160.499 181 155.949 175.4 155.949Z" fill="#231815"/>
<path d="M239.65 46.6992H60.9502V35.6992C60.9502 33.4992 62.7502 31.6992 64.9502 31.6992H235.65C237.85 31.6992 239.65 33.4992 239.65 35.6992V46.6992Z" fill="black"/>
<path d="M239.65 47.1992H60.9502C60.6502 47.1992 60.4502 46.9992 60.4502 46.6992V35.6992C60.4502 33.1992 62.4502 31.1992 64.9502 31.1992H235.65C238.15 31.1992 240.15 33.1992 240.15 35.6992V46.7492C240.15 46.9992 239.9 47.1992 239.65 47.1992ZM61.4502 46.1992H239.15V35.6992C239.15 33.7492 237.6 32.1992 235.65 32.1992H64.9502C63.0002 32.1992 61.4502 33.7492 61.4502 35.6992V46.1992Z" fill="#231815"/>
<path d="M71.8 42.1484C73.1808 42.1484 74.3 41.0291 74.3 39.6484C74.3 38.2677 73.1808 37.1484 71.8 37.1484C70.4193 37.1484 69.3 38.2677 69.3 39.6484C69.3 41.0291 70.4193 42.1484 71.8 42.1484Z" fill="white"/>
<path d="M81.8 42.1484C83.1808 42.1484 84.3 41.0291 84.3 39.6484C84.3 38.2677 83.1808 37.1484 81.8 37.1484C80.4193 37.1484 79.3 38.2677 79.3 39.6484C79.3 41.0291 80.4193 42.1484 81.8 42.1484Z" fill="white"/>
<path d="M91.8 42.1484C93.1808 42.1484 94.3 41.0291 94.3 39.6484C94.3 38.2677 93.1808 37.1484 91.8 37.1484C90.4193 37.1484 89.3 38.2677 89.3 39.6484C89.3 41.0291 90.4193 42.1484 91.8 42.1484Z" fill="white"/>
<path d="M88.55 55.8477H70.55V61.8477H88.55V55.8477Z" fill="#EEEEEF"/>
<path d="M45.75 124.648L52 124.998L59.9 132.648C59.9 132.648 59 136.798 59.45 139.398C54.95 142.248 44.7 138.698 45.05 135.448C45.4 132.198 45.75 124.648 45.75 124.648Z" fill="white"/>
<path d="M55.15 140.898C52.3 140.898 49.15 139.998 47 138.698C45.35 137.698 44.5 136.498 44.6 135.348C44.9 132.148 45.25 124.648 45.3 124.598C45.3 124.348 45.55 124.098 45.8 124.098C45.85 124.098 45.85 124.098 45.9 124.098L52.1 124.448C52.2 124.448 52.35 124.498 52.4 124.598L60.3 132.248C60.4 132.348 60.5 132.548 60.45 132.698C60.45 132.748 59.55 136.798 60 139.248C60.05 139.448 59.95 139.648 59.8 139.748C58.55 140.598 56.9 140.898 55.15 140.898ZM46.25 125.148C46.15 126.898 45.85 132.698 45.6 135.448C45.55 136.148 46.25 137.048 47.55 137.848C50.7 139.798 56.1 140.698 59 139.148C58.7 136.848 59.25 133.748 59.45 132.848L51.8 125.498L46.25 125.148Z" fill="#231815"/>
<path d="M47.3 125.449C46.1 125.449 40.55 123.849 41.1 118.599C41.65 113.349 46.2 114.199 47.7 115.649C49.2 117.099 46.9 109.949 49.15 103.899C50.65 99.7994 59.55 92.2994 66.55 99.8494C66.55 99.8494 69.35 102.849 70.6 109.999C71.45 112.849 73.65 113.799 73.65 114.799C73.65 115.799 72.4 116.199 71.3 116.599C71.3 118.099 72.75 129.599 65.85 131.699C58.95 133.799 53.9 130.549 52.1 128.149" fill="white"/>
<path d="M61.4 132.8C56.4 132.8 52.95 130.15 51.65 128.4C51.5 128.2 51.55 127.85 51.75 127.7C51.95 127.55 52.3 127.6 52.45 127.8C54 129.9 58.75 133.25 65.65 131.15C71.45 129.4 70.95 120.3 70.8 117.35C70.8 117 70.75 116.7 70.75 116.55C70.75 116.35 70.9 116.15 71.1 116.1L71.25 116.05C72.35 115.65 73.15 115.35 73.15 114.8C73.15 114.55 72.8 114.2 72.4 113.75C71.65 112.95 70.65 111.9 70.15 110.15V110.1C68.95 103.25 66.25 100.25 66.25 100.2C63.9 97.7005 61.2 96.7005 58.2 97.3005C54.05 98.1505 50.55 101.85 49.7 104.1C48.45 107.5 48.65 111.3 48.8 113.6C48.9 115.35 48.95 116.1 48.4 116.35C48.1 116.5 47.8 116.4 47.45 116.1C46.7 115.35 45.05 114.85 43.75 115.35C42.55 115.8 41.85 116.95 41.7 118.75C41.55 120.3 42 121.7 43 122.8C44.55 124.5 46.9 125.05 47.45 125.05C47.75 125.05 47.95 125.25 47.95 125.55C47.95 125.85 47.75 126.05 47.45 126.05C46.7 126.05 44.05 125.45 42.25 123.5C41.05 122.2 40.55 120.55 40.7 118.7C40.95 115.9 42.35 114.85 43.4 114.45C44.95 113.9 46.75 114.35 47.85 115.15C47.85 114.75 47.8 114.2 47.8 113.7C47.65 111.35 47.45 107.4 48.75 103.8C49.7 101.25 53.4 97.3005 58 96.4005C61.3 95.7505 64.45 96.8505 67 99.6005C67.1 99.7505 69.9 102.8 71.15 109.95C71.6 111.45 72.5 112.4 73.15 113.15C73.75 113.75 74.2 114.25 74.2 114.85C74.2 116.1 72.95 116.6 71.85 117C71.85 117.1 71.85 117.25 71.85 117.4C72 120.6 72.55 130.25 66 132.25C64.3 132.6 62.8 132.8 61.4 132.8Z" fill="#231815"/>
<path d="M50.45 111.699C52.85 109.499 66.85 109.099 69.95 98.4494C72.05 91.0494 66.65 87.4494 62.8 86.4994C58.7 85.4494 52.55 85.7994 46.9 88.5494C41.6 91.0994 37.85 93.1994 36.45 97.1994C35.55 99.8494 35.9 102.199 35.9 102.199C35.9 102.199 30.85 105.449 31.9 112.449C33.3 121.949 39.25 119.199 42.55 131.049C43.2 133.349 46.8 134.099 47.25 130.249C47.75 126.399 47.5 124.899 47.5 124.899C47.5 124.899 41.45 124.549 41.6 119.149C41.7 114.749 46.05 115.499 47.4 117.549C48.7 119.499 51.2 122.499 52.1 120.999C52.7 120.149 48.05 113.949 50.45 111.699Z" fill="#231815"/>
<path d="M64.9499 113.901C65.5298 113.901 65.9999 113.431 65.9999 112.851C65.9999 112.271 65.5298 111.801 64.9499 111.801C64.37 111.801 63.8999 112.271 63.8999 112.851C63.8999 113.431 64.37 113.901 64.9499 113.901Z" fill="#231815"/>
<path d="M60.3 111.249C60.2 111.249 60.1 111.249 60.05 111.199C59.8 111.049 59.75 110.749 59.9 110.499C59.95 110.449 60.8 109.049 62.4 108.649C63.45 108.399 64.6 108.649 65.75 109.349C66 109.499 66.05 109.799 65.9 110.049C65.75 110.299 65.45 110.349 65.2 110.199C64.3 109.599 63.4 109.399 62.6 109.599C61.4 109.899 60.7 110.949 60.7 110.999C60.65 111.149 60.45 111.249 60.3 111.249Z" fill="#231815"/>
<path d="M62.7 120.198L67.6999 119.148C67.6999 119.148 68.3 125.448 65.8 125.948C63.3 126.448 62.7 120.198 62.7 120.198Z" fill="white"/>
<path d="M65.5999 126.449C65.1999 126.449 64.7999 126.299 64.4499 126.049C62.7499 124.799 62.2999 120.699 62.2499 120.249C62.1999 119.999 62.3999 119.749 62.6499 119.699L67.6499 118.649C67.7999 118.599 67.9499 118.649 68.0499 118.749C68.1499 118.849 68.2499 118.949 68.2499 119.099C68.2999 119.799 68.8499 125.849 65.9499 126.449C65.8499 126.449 65.6999 126.449 65.5999 126.449ZM63.2499 120.599C63.4499 121.949 63.9999 124.499 64.9999 125.249C65.2499 125.399 65.4499 125.499 65.7499 125.449C67.2499 125.149 67.3499 121.599 67.2499 119.749L63.2499 120.599Z" fill="#231815"/>
<path d="M64.8999 90.0004C64.7999 90.0004 64.7499 90.0004 64.6499 89.9504C61.6999 88.2004 58.4499 88.6505 58.4499 88.6505C58.1999 88.7005 57.8999 88.5004 57.8999 88.2504C57.8999 88.0004 58.0499 87.7004 58.2999 87.7004C58.4499 87.7004 61.8999 87.1504 65.1499 89.1004C65.3999 89.2504 65.4499 89.5505 65.3499 89.8005C65.2499 89.9505 65.0999 90.0004 64.8999 90.0004Z" fill="white"/>
<path d="M67.5501 123.648C67.5501 123.648 66.1 122.548 63.55 123.148L67.5501 123.648Z" fill="white"/>
<path d="M67.5501 124.149C67.4501 124.149 67.3501 124.099 67.2501 124.049C67.2001 123.999 65.9501 123.099 63.6501 123.649C63.4001 123.699 63.1001 123.549 63.0501 123.299C63.0001 123.049 63.1501 122.749 63.4001 122.699C66.1501 121.999 67.7501 123.199 67.8501 123.249C68.0501 123.399 68.1001 123.749 67.9501 123.949C67.8501 124.099 67.7001 124.149 67.5501 124.149Z" fill="#231815"/>
<path d="M51.8 128.551C51.8 128.551 54.1501 134.901 58.9001 136.051C59.1501 134.201 59.75 132.301 59.75 132.301C59.75 132.301 54.8 131.601 51.8 128.551Z" fill="#231815"/>
<path d="M43.55 120.099C43.25 120.099 43.05 119.899 43.05 119.599C43.05 119.449 43.0501 118.299 43.9001 117.749C44.4501 117.399 45.2 117.399 46.05 117.799C46.3 117.899 46.4 118.199 46.3 118.449C46.2 118.699 45.9001 118.799 45.6501 118.699C45.2501 118.549 44.7501 118.349 44.4501 118.549C44.1001 118.749 44.05 119.399 44.05 119.549C44.05 119.849 43.8 120.099 43.55 120.099Z" fill="#231815"/>
<path d="M20 192.199C20 192.199 15.45 218.399 15.05 220.749C14.65 223.099 15.25 233.049 27 232.999H30.2L29.4 194.249L20 192.199Z" fill="white"/>
<path d="M26.95 233.5C22.65 233.5 19.4 232.2 17.2 229.65C14.4 226.35 14.35 222.05 14.6 220.7C14.95 218.45 19.25 193.75 19.5 192.25V192.2C19.55 191.9 19.85 191.7 20.1 191.75L29.55 193.8C29.8 193.85 29.95 194.05 29.95 194.3L30.75 233.05C30.75 233.2 30.7 233.3 30.6 233.4C30.5 233.5 30.4 233.55 30.25 233.55H27C26.95 233.5 26.95 233.5 26.95 233.5ZM20.4 192.8C19.75 196.5 15.9 218.7 15.55 220.8C15.35 221.95 15.4 225.95 17.95 228.95C19.95 231.3 22.95 232.5 27 232.45H29.7L28.95 194.6L20.4 192.8Z" fill="#231815"/>
<path d="M33.15 149.598L18 191.298L26.5 193.348L33.15 149.598Z" fill="#F9C032"/>
<path d="M38.4 139.55C40.3 138 44.3 134.5 45.05 135.4C48.5 139.65 57.3 139.55 59.7 138.1C70.85 143.55 81.05 157.95 82.15 171.5C83.4 187.2 82.6 220.35 87.55 230.2C88.65 232.4 86.45 234.55 86.45 234.55H23.3C23.05 234.8 26.05 149.6 38.4 139.55Z" fill="#F9C032"/>
<path d="M25.8999 193.949C25.8499 193.949 25.7999 193.949 25.7499 193.949L17.8499 191.799C17.5999 191.749 17.4499 191.449 17.4999 191.199C17.5499 190.949 17.8499 190.799 18.0999 190.849L25.4499 192.849C26.9999 181.099 28.4999 171.349 30.0999 161.049L30.8499 156.099C30.8999 155.849 31.1499 155.649 31.3999 155.699C31.6499 155.749 31.8499 155.999 31.7999 156.249L31.0499 161.199C29.4999 171.599 27.9499 181.499 26.3999 193.499C26.3999 193.649 26.2999 193.749 26.1999 193.849C26.0999 193.899 25.9999 193.949 25.8999 193.949Z" fill="#231815"/>
<path d="M54.0998 200.599L84.0998 188.049C84.0998 188.049 74.5998 163.749 70.8498 157.699C68.3998 153.699 63.1998 144.049 51.6498 146.949C40.0998 149.799 41.9998 163.649 44.6498 173.199" fill="#F9C032"/>
<path d="M54.0999 201.097C53.8999 201.097 53.6999 200.997 53.6499 200.797C53.5499 200.547 53.6499 200.247 53.8999 200.147L83.4499 187.797C82.1499 184.447 73.7999 163.447 70.3999 157.947C70.2499 157.747 70.1499 157.497 69.9999 157.247C67.4499 153.047 63.1499 146.097 52.5999 148.697C49.2499 149.547 46.7999 151.247 45.2499 153.847C42.1499 159.147 43.4499 167.147 45.0499 172.997C45.0999 173.247 44.9499 173.547 44.6999 173.597C44.4499 173.647 44.1499 173.497 44.0999 173.247C41.6499 164.497 41.7499 157.797 44.3999 153.347C46.0499 150.497 48.7499 148.597 52.3499 147.747C63.6499 144.947 68.2999 152.647 70.8499 156.747C70.9999 156.997 71.1499 157.197 71.2499 157.397C74.9999 163.397 84.1499 186.847 84.5499 187.847C84.6499 188.097 84.5499 188.397 84.2999 188.497L54.2999 201.047C54.2499 201.097 54.1999 201.097 54.0999 201.097Z" fill="#231815"/>
<path d="M54.0999 200.597L61.9999 224.847C61.9999 224.847 65.1999 235.847 77.8999 232.297C85.6499 230.147 104.8 221.397 120.25 214.997C126.95 212.197 126.5 213.597 130.4 211.547C133.15 210.097 142.45 205.547 143.25 204.047C143.95 202.747 144.75 201.597 143.9 199.947C143.6 199.297 141.65 197.847 141.5 196.797C141.35 195.747 142 194.447 141.6 193.047C141.2 191.647 140.2 191.647 139.75 190.597C139.3 189.547 139.6 188.247 139.2 187.447C138.85 186.697 136.8 185.147 136.8 185.147C136.8 185.147 150.7 176.097 152.7 174.697C156.05 172.347 153.3 167.397 149.9 168.497C146.95 169.447 139.7 173.597 130.85 177.347C129.7 177.847 126.15 176.147 125.15 176.747C120.85 179.247 118.15 181.647 116.85 182.647C114.5 184.497 113.45 186.947 110.8 188.097C108.15 189.247 87.5499 197.897 87.5499 197.897L84.0999 188.147L54.0999 200.597Z" fill="white"/>
<path d="M73.1999 233.498C66.0499 233.498 62.4999 228.298 61.5499 224.998L53.6499 200.748C53.5999 200.548 53.6499 200.298 53.8499 200.148C53.8999 200.098 53.9499 200.098 53.9999 200.098L83.9499 187.598C84.0999 187.548 84.1999 187.548 84.3499 187.598C84.4999 187.648 84.5499 187.748 84.5999 187.898L87.8999 197.148C91.0499 195.848 108.25 188.548 110.65 187.548C112.15 186.898 113.1 185.798 114.15 184.648C114.9 183.798 115.65 182.948 116.65 182.198C116.85 182.048 117.1 181.848 117.4 181.598C118.9 180.398 121.35 178.398 124.95 176.298C125.65 175.898 126.8 176.198 128.2 176.548C129.15 176.798 130.3 177.098 130.7 176.898C135.35 174.948 139.6 172.848 143 171.148C146 169.648 148.4 168.498 149.8 168.048C151.85 167.398 153.6 168.648 154.35 170.098C155.1 171.598 155 173.748 153.05 175.148C151.3 176.398 140.35 183.498 137.7 185.248C138.35 185.798 139.4 186.698 139.65 187.298C139.9 187.798 139.9 188.348 139.95 188.898C140 189.448 140 189.998 140.2 190.498C140.35 190.848 140.6 191.048 140.9 191.298C141.3 191.648 141.8 192.048 142.05 192.998C142.35 193.948 142.2 194.848 142.05 195.598C142 196.048 141.9 196.498 141.95 196.798C142 197.248 142.8 198.098 143.35 198.648C143.8 199.098 144.15 199.448 144.3 199.798C145.2 201.598 144.5 202.848 143.8 204.048L143.65 204.348C143 205.548 138.75 207.898 132.15 211.248C131.5 211.548 131 211.848 130.6 212.048C128.65 213.048 127.7 213.248 126.55 213.498C125.35 213.748 123.8 214.098 120.4 215.498C115.75 217.448 110.7 219.598 105.85 221.698C94.3499 226.648 83.4499 231.298 77.9999 232.848C76.2499 233.248 74.6499 233.498 73.1999 233.498ZM54.7499 200.898L62.4999 224.698C62.6499 225.148 65.6999 235.148 77.7499 231.798C83.0999 230.298 93.9999 225.648 105.45 220.698C110.3 218.598 115.35 216.448 120 214.498C123.5 213.048 125.05 212.698 126.3 212.448C127.45 212.198 128.25 212.048 130.1 211.048C130.5 210.848 131.05 210.548 131.65 210.248C134.8 208.648 142.1 204.898 142.75 203.748L142.9 203.448C143.55 202.248 144.05 201.398 143.35 200.098C143.25 199.948 142.9 199.548 142.6 199.198C141.85 198.448 141.05 197.598 140.9 196.798C140.85 196.298 140.9 195.798 141 195.298C141.1 194.598 141.2 193.848 141 193.148C140.8 192.498 140.5 192.248 140.15 191.948C139.8 191.648 139.45 191.348 139.2 190.748C138.95 190.098 138.9 189.448 138.85 188.848C138.8 188.348 138.8 187.898 138.65 187.598C138.45 187.148 137.2 186.098 136.4 185.498C136.25 185.398 136.2 185.248 136.2 185.098C136.2 184.948 136.3 184.798 136.45 184.698C136.6 184.598 150.35 175.648 152.35 174.248C153.9 173.148 153.85 171.548 153.35 170.498C152.8 169.398 151.55 168.448 150.05 168.948C148.7 169.398 146.35 170.548 143.4 171.998C140 173.698 135.75 175.798 131.05 177.748C130.35 178.048 129.15 177.748 127.9 177.448C127.05 177.248 125.75 176.898 125.4 177.098C121.85 179.148 119.4 181.148 117.95 182.298C117.65 182.548 117.4 182.748 117.15 182.898C116.25 183.598 115.5 184.448 114.8 185.248C113.7 186.498 112.65 187.698 110.95 188.398C108.3 189.498 87.6999 198.198 87.6999 198.198C87.5499 198.248 87.4499 198.248 87.2999 198.198C87.1499 198.148 87.0999 198.048 87.0499 197.898L83.7499 188.648L54.7499 200.898Z" fill="#231815"/>
<path d="M82.5498 200.548C82.3498 200.548 82.1498 200.448 82.0998 200.248C81.9998 199.998 82.0998 199.698 82.3498 199.598L90.3498 196.198C90.5998 196.098 90.8998 196.198 90.9998 196.448C91.0998 196.698 90.9998 196.998 90.7498 197.098L82.7498 200.498C82.6998 200.498 82.5998 200.548 82.5498 200.548Z" fill="#231815"/>
<path d="M119.35 184.249C119.15 184.249 119 184.149 118.9 183.999C118.75 183.749 118.85 183.449 119.1 183.299L130.6 176.899C130.85 176.749 131.15 176.849 131.3 177.099C131.45 177.349 131.35 177.649 131.1 177.799L119.6 184.199C119.55 184.199 119.45 184.249 119.35 184.249Z" fill="#231815"/>
<path d="M105.8 190.698L110.2 188.848C110.2 188.848 114.3 195.098 116.55 200.798C117.85 204.048 120.75 214.298 120.75 214.298L115.55 216.548C115.55 216.548 112.85 205.798 111.6 202.398C109.7 197.248 105.8 190.698 105.8 190.698Z" fill="#F9C032"/>
<path d="M114.85 208.648C117.611 208.648 119.85 206.41 119.85 203.648C119.85 200.887 117.611 198.648 114.85 198.648C112.088 198.648 109.85 200.887 109.85 203.648C109.85 206.41 112.088 208.648 114.85 208.648Z" fill="white"/>
<path d="M114.85 209.148C111.8 209.148 109.35 206.698 109.35 203.648C109.35 200.598 111.8 198.148 114.85 198.148C117.9 198.148 120.35 200.598 120.35 203.648C120.35 206.698 117.85 209.148 114.85 209.148ZM114.85 199.148C112.35 199.148 110.35 201.148 110.35 203.648C110.35 206.148 112.35 208.148 114.85 208.148C117.35 208.148 119.35 206.148 119.35 203.648C119.35 201.148 117.3 199.148 114.85 199.148Z" fill="#231815"/>
<path d="M83.4501 188.348L55.1001 203.648L54.1001 200.598L83.4501 188.348Z" fill="#231815"/>
<path d="M19.65 194.649L25.6 196.599L25.85 193.849L20 192.199L19.65 194.649Z" fill="#231815"/>
<path d="M55.8 141.248C55.35 141.248 54.9 141.248 54.45 141.148C54.2 141.098 54 140.848 54 140.598C54.05 140.348 54.3 140.148 54.55 140.148C58.55 140.598 60.8 138.748 60.85 138.698C61.05 138.498 61.4 138.548 61.55 138.748C61.75 138.948 61.7 139.248 61.5 139.448C61.4 139.598 59.4 141.248 55.8 141.248Z" fill="#231815"/>
<path d="M192.927 149.784L185.816 155.621L187.529 157.708L194.64 151.871L192.927 149.784Z" fill="#F9C032"/>
<path d="M184.448 144.372L180.406 152.637L182.832 153.823L186.873 145.558L184.448 144.372Z" fill="#F9C032"/>
<path d="M197.756 159.691L188.577 160.32L188.762 163.014L197.941 162.385L197.756 159.691Z" fill="#F9C032"/>
<path d="M40.55 36.35C44.8578 36.35 48.35 32.8578 48.35 28.55C48.35 24.2422 44.8578 20.75 40.55 20.75C36.2422 20.75 32.75 24.2422 32.75 28.55C32.75 32.8578 36.2422 36.35 40.55 36.35Z" fill="#F9C032"/>
<path d="M34.35 49.0486C34.3 49.0486 34.25 49.0486 34.2001 49.0486L16.15 43.3986C16 43.3486 15.9 43.2486 15.85 43.1486C15.8 43.0486 15.8 42.8986 15.8 42.7486L21.4 24.6486C21.5 24.3986 21.75 24.2486 22.05 24.2986L40.1 29.9986C40.35 30.0986 40.5 30.3486 40.4501 30.6486L34.85 48.6986C34.8 48.8486 34.7 48.9486 34.6 48.9986C34.5 48.9986 34.45 49.0486 34.35 49.0486ZM16.9 42.5986L34 47.8986L39.3 30.7986L22.2 25.4986L16.9 42.5986Z" fill="#231815"/>
<path d="M223.85 224.348L213.7 225.398L203.6 226.448L207.75 217.148L211.85 207.898L217.85 216.098L223.85 224.348Z" fill="#FAFAFA"/>
<path d="M226.8 241.499C219.8 241.499 214.15 235.799 214.15 228.849C214.15 221.849 219.85 216.199 226.8 216.199C233.75 216.199 239.45 221.899 239.45 228.849C239.45 235.799 233.75 241.499 226.8 241.499ZM226.8 217.199C220.35 217.199 215.15 222.449 215.15 228.849C215.15 235.249 220.4 240.499 226.8 240.499C233.2 240.499 238.45 235.249 238.45 228.849C238.45 222.449 233.2 217.199 226.8 217.199Z" fill="#231815"/>
<path d="M155.179 227.975L148.486 231.469L151.979 238.162L158.672 234.668L155.179 227.975Z" fill="#EEEEEE"/>
</svg>
