<svg width="256" height="257" viewBox="0 0 256 257" fill="none" xmlns="http://www.w3.org/2000/svg">
<path d="M61.2 167.699H239.9V188.699C239.9 190.899 238.1 192.699 235.9 192.699H65.2C63 192.699 61.2 190.899 61.2 188.699V167.699Z" fill="#231815"/>
<path d="M235.9 193.199H65.2C62.7 193.199 60.7 191.199 60.7 188.699V167.699C60.7 167.399 60.9 167.199 61.2 167.199H239.9C240.2 167.199 240.4 167.399 240.4 167.699V188.699C240.4 191.149 238.4 193.199 235.9 193.199ZM61.7 168.199V188.699C61.7 190.649 63.25 192.199 65.2 192.199H235.9C237.85 192.199 239.4 190.649 239.4 188.699V168.199H61.7Z" fill="#231815"/>
<path d="M65.2 31.8477H235.9C238.1 31.8477 239.9 33.6477 239.9 35.8477V186.798C239.9 188.998 238.1 190.798 235.9 190.798H65.2C63 190.798 61.2 188.998 61.2 186.798V35.8477C61.2 33.5977 63 31.8477 65.2 31.8477Z" fill="white"/>
<path d="M235.9 191.298H65.2C62.7 191.298 60.7 189.298 60.7 186.798V35.8477C60.7 33.3477 62.7 31.3477 65.2 31.3477H235.9C238.4 31.3477 240.4 33.3477 240.4 35.8477V186.798C240.4 189.298 238.4 191.298 235.9 191.298ZM65.2 32.3477C63.25 32.3477 61.7 33.8977 61.7 35.8477V186.798C61.7 188.748 63.25 190.298 65.2 190.298H235.9C237.85 190.298 239.4 188.748 239.4 186.798V35.8477C239.4 33.8977 237.85 32.3477 235.9 32.3477H65.2Z" fill="#231815"/>
<path d="M61.2 165.699H239.9V186.699C239.9 188.899 238.1 190.699 235.9 190.699H65.2C63 190.699 61.2 188.899 61.2 186.699V165.699Z" fill="white"/>
<path d="M235.9 191.199H65.2C62.7 191.199 60.7 189.199 60.7 186.699V165.699C60.7 165.399 60.9 165.199 61.2 165.199H239.9C240.2 165.199 240.4 165.399 240.4 165.699V186.699C240.4 189.149 238.4 191.199 235.9 191.199ZM61.7 166.199V186.699C61.7 188.649 63.25 190.199 65.2 190.199H235.9C237.85 190.199 239.4 188.649 239.4 186.699V166.199H61.7Z" fill="#231815"/>
<path d="M163.45 171.699H182.7C186.25 171.699 189.1 174.549 189.1 178.099C189.1 181.649 186.25 184.499 182.7 184.499H163.45C159.9 184.499 157.05 181.649 157.05 178.099C157.1 174.549 159.95 171.699 163.45 171.699Z" fill="white"/>
<path d="M182.7 184.999H163.5C159.7 184.999 156.6 181.899 156.6 178.099C156.6 174.299 159.7 171.199 163.5 171.199H182.75C186.55 171.199 189.65 174.299 189.65 178.099C189.6 181.899 186.5 184.999 182.7 184.999ZM163.5 172.199C160.25 172.199 157.6 174.849 157.6 178.099C157.6 181.349 160.25 183.999 163.5 183.999H182.75C186 183.999 188.65 181.349 188.65 178.099C188.65 174.849 186 172.199 182.75 172.199H163.5Z" fill="#231815"/>
<path d="M239.9 46.8477H61.2V35.8477C61.2 33.6477 63 31.8477 65.2 31.8477H235.9C238.1 31.8477 239.9 33.6477 239.9 35.8477V46.8477Z" fill="black"/>
<path d="M239.9 47.3477H61.2C60.9 47.3477 60.7 47.1477 60.7 46.8477V35.8477C60.7 33.3477 62.7 31.3477 65.2 31.3477H235.9C238.4 31.3477 240.4 33.3477 240.4 35.8477V46.8977C240.4 47.1477 240.2 47.3477 239.9 47.3477ZM61.7 46.3477H239.4V35.8477C239.4 33.8977 237.85 32.3477 235.9 32.3477H65.2C63.25 32.3477 61.7 33.8977 61.7 35.8477V46.3477Z" fill="#231815"/>
<path d="M72.1 42.2969C73.4807 42.2969 74.6 41.1776 74.6 39.7969C74.6 38.4162 73.4807 37.2969 72.1 37.2969C70.7193 37.2969 69.6 38.4162 69.6 39.7969C69.6 41.1776 70.7193 42.2969 72.1 42.2969Z" fill="white"/>
<path d="M82.1 42.2969C83.4807 42.2969 84.6 41.1776 84.6 39.7969C84.6 38.4162 83.4807 37.2969 82.1 37.2969C80.7193 37.2969 79.6 38.4162 79.6 39.7969C79.6 41.1776 80.7193 42.2969 82.1 42.2969Z" fill="white"/>
<path d="M92.1 42.2969C93.4807 42.2969 94.6 41.1776 94.6 39.7969C94.6 38.4162 93.4807 37.2969 92.1 37.2969C90.7193 37.2969 89.6 38.4162 89.6 39.7969C89.6 41.1776 90.7193 42.2969 92.1 42.2969Z" fill="white"/>
<path d="M212.4 79.0961L200.8 77.7461C200.7 81.3461 197.75 84.2961 194.1 84.2961C190.45 84.2961 187.5 81.3961 187.4 77.7461L175.8 79.0961L160.45 87.1961L166.85 97.0961L175.85 93.6461V127.296H212.5V93.6461L221.5 97.0961L227.9 87.1961L212.4 79.0961Z" fill="#F9C032"/>
<path d="M94.75 60.4492H76.75V66.4492H94.75V60.4492Z" fill="#EEEEEF"/>
<path d="M125.9 80.3984H77.25V85.3984H125.9V80.3984Z" fill="white"/>
<path d="M125.45 80.8984V84.8984H77.8V80.8984H125.45ZM126.45 79.8984H76.8V85.8984H126.45V79.8984Z" fill="#231815"/>
<path d="M143.8 92.5977H76.75V95.5977H143.8V92.5977Z" fill="#EEEEEF"/>
<path d="M143.8 99.7969H76.75V102.797H143.8V99.7969Z" fill="#EEEEEF"/>
<path d="M133.8 106.996H76.75V109.996H133.8V106.996Z" fill="#EEEEEF"/>
<path d="M182.85 135.398H176.7V141.548H182.85V135.398Z" fill="#F9C032"/>
<path d="M182.35 135.898V141.048H177.2V135.898H182.35ZM183.35 134.898H176.2V142.048H183.35V134.898Z" fill="#231815"/>
<path d="M192.25 135.398H186.1V141.548H192.25V135.398Z" fill="white"/>
<path d="M191.75 135.898V141.048H186.6V135.898H191.75ZM192.75 134.898H185.6V142.048H192.75V134.898Z" fill="#231815"/>
<path d="M201.6 135.398H195.45V141.548H201.6V135.398Z" fill="white"/>
<path d="M201.1 135.898V141.048H195.95V135.898H201.1ZM202.1 134.898H194.95V142.048H202.1V134.898Z" fill="#231815"/>
<path d="M210.85 135.398H204.7V141.548H210.85V135.398Z" fill="white"/>
<path d="M210.4 135.898V141.048H205.25V135.898H210.4ZM211.4 134.898H204.25V142.048H211.4V134.898Z" fill="#231815"/>
<path d="M201 183.948C197.75 183.948 195.1 181.298 195.1 178.048C195.1 174.798 197.75 172.148 201 172.148H220.25C223.5 172.148 226.15 174.798 226.15 178.048C226.15 181.298 223.5 183.948 220.25 183.948H201Z" fill="#F9C032"/>
<path d="M220.2 172.699C223.15 172.699 225.6 175.099 225.6 178.099C225.6 181.099 223.2 183.499 220.2 183.499H201C198.05 183.499 195.6 181.099 195.6 178.099C195.6 175.099 198 172.699 201 172.699H220.2ZM220.2 171.699H201C197.5 171.699 194.6 174.549 194.6 178.099C194.6 181.649 197.45 184.499 201 184.499H220.25C223.75 184.499 226.65 181.649 226.65 178.099C226.65 174.549 223.75 171.699 220.2 171.699Z" fill="#231815"/>
<path d="M210.8 123.047C207.75 123.047 204.4 122.547 201 121.497C190.2 118.147 182.95 110.497 184.8 104.447C185.75 101.447 188.65 99.2973 193.1 98.3973C197.4 97.4973 202.65 97.8973 207.8 99.4973C213 101.097 217.5 103.747 220.55 106.897C223.7 110.147 224.9 113.597 223.95 116.597C222.7 120.697 217.45 123.047 210.8 123.047ZM197.9 98.8973C196.25 98.8973 194.7 99.0473 193.25 99.3473C189.2 100.197 186.55 102.097 185.75 104.747C184.05 110.297 191 117.397 201.25 120.547C211.5 123.747 221.3 121.797 223 116.247C223.8 113.597 222.7 110.547 219.8 107.547C216.85 104.497 212.5 101.947 207.45 100.397C204.2 99.3973 200.95 98.8973 197.9 98.8973Z" fill="#231815"/>
<path d="M212.5 121.847C211.2 121.847 209.75 121.647 208.2 121.197C204 119.997 199.55 117.197 195.7 113.347C191.85 109.497 189.1 105.047 187.85 100.847C186.6 96.4965 187.15 92.8965 189.35 90.6965C191.55 88.4965 195.15 87.9465 199.5 89.1965C203.7 90.3965 208.15 93.1965 212 97.0465C220 105.047 222.85 115.197 218.35 119.697C216.9 121.147 214.9 121.847 212.5 121.847ZM195.2 89.5465C193.05 89.5465 191.3 90.1965 190.05 91.3965C188.1 93.3465 187.65 96.5965 188.8 100.547C189.95 104.597 192.65 108.897 196.4 112.597C200.1 116.297 204.4 118.997 208.45 120.197C212.4 121.347 215.65 120.897 217.6 118.947C221.7 114.847 218.85 105.297 211.25 97.6965C207.55 93.9965 203.25 91.2965 199.2 90.0965C197.75 89.7465 196.4 89.5465 195.2 89.5465Z" fill="#231815"/>
<path d="M177.9 111.896C175.9 111.896 174.15 111.346 172.7 110.296C169.75 108.146 168.5 104.096 169.15 98.8458C169.8 93.7458 172.2 88.0958 176 82.9458C179.75 77.7958 184.4 73.7958 189.05 71.5958C193.8 69.3958 198.05 69.3458 201 71.4958C203.95 73.6458 205.2 77.6958 204.55 82.9458C203.9 88.0458 201.5 93.6958 197.7 98.8458C193.95 103.996 189.3 107.996 184.65 110.196C182.25 111.296 179.95 111.896 177.9 111.896ZM176.8 83.5458C173.15 88.5458 170.8 94.0458 170.15 98.9958C169.55 103.846 170.65 107.546 173.3 109.496C175.95 111.446 179.85 111.346 184.25 109.296C188.75 107.196 193.25 103.246 196.95 98.2458C200.6 93.2458 202.95 87.7458 203.6 82.7958C204.2 77.9458 203.1 74.2458 200.45 72.2958C197.8 70.3458 193.9 70.4458 189.5 72.4958C184.95 74.5958 180.45 78.5458 176.8 83.5458Z" fill="#231815"/>
<path d="M69.25 144.248L70.15 147.998C70.15 147.998 69.3 149.248 65.4 149.748C61.5 150.248 59.8 148.998 59.8 148.998L58.15 142.998C55.8 142.098 54.4 141.148 53.4 140.048C53.4 140.048 46.65 141.048 44.15 136.648C41.65 132.248 46.2 127.648 49.85 130.248C49.85 130.248 50.4 130.498 51.2 131.648C51.05 130.948 44.9 119.048 56.75 113.898C67 109.448 72.9 119.598 72.9 119.598C72.9 119.598 82.85 136.548 70.6 143.098C67.85 144.548 64.55 144.648 61.6 143.998" fill="white"/>
<path d="M63.6 150.396C60.8 150.396 59.55 149.496 59.5 149.446C59.4 149.396 59.35 149.296 59.3 149.196L57.75 143.396C55.8 142.646 54.4 141.746 53.25 140.596C51.95 140.746 46.15 141.096 43.75 136.946C42.25 134.246 43.1 131.646 44.7 130.246C46.25 128.846 48.35 128.646 50.05 129.796C47.55 122.196 49.85 116.496 56.65 113.546C67.2 108.996 73.35 119.346 73.45 119.446C73.7 119.846 78.95 128.996 76.8 136.596C75.95 139.696 73.95 142.046 70.9 143.646C70.55 143.846 70.15 143.996 69.8 144.146V144.196L70.7 147.946C70.75 148.096 70.7 148.246 70.65 148.346C70.55 148.496 69.55 149.796 65.55 150.346C64.8 150.346 64.15 150.396 63.6 150.396ZM60.2 148.696C60.65 148.946 62.3 149.646 65.3 149.246C68.1 148.896 69.2 148.146 69.55 147.846L68.75 144.396C66.1 145.146 63.45 144.946 61.45 144.496C61.2 144.446 61 144.196 61.05 143.896C61.1 143.646 61.35 143.446 61.65 143.496C63.95 143.996 67.35 144.196 70.35 142.646C73.15 141.146 74.95 138.996 75.75 136.196C77.8 128.996 72.55 119.946 72.5 119.846C72.5 119.796 71.05 117.346 68.4 115.446C64.9 112.946 61.05 112.546 57 114.346C50.2 117.296 48.3 123.046 51.55 130.996C51.65 131.246 51.7 131.396 51.75 131.496C51.8 131.746 51.7 131.946 51.45 132.046C51.25 132.146 51 132.096 50.85 131.896C50.1 130.896 49.65 130.646 49.65 130.646L49.6 130.596C47.95 129.446 46.35 129.996 45.35 130.896C44.1 132.046 43.35 134.196 44.6 136.346C46.9 140.396 53.25 139.496 53.35 139.496C53.5 139.496 53.7 139.546 53.8 139.646C54.9 140.846 56.35 141.746 58.35 142.496C58.5 142.546 58.6 142.696 58.65 142.846L60.2 148.696Z" fill="#231815"/>
<path d="M63.4 128.498C63.9799 128.498 64.45 128.028 64.45 127.448C64.45 126.869 63.9799 126.398 63.4 126.398C62.8201 126.398 62.35 126.869 62.35 127.448C62.35 128.028 62.8201 128.498 63.4 128.498Z" fill="#231815"/>
<path d="M70.45 125.397C71.0299 125.397 71.5 124.927 71.5 124.347C71.5 123.767 71.0299 123.297 70.45 123.297C69.8701 123.297 69.4 123.767 69.4 124.347C69.4 124.927 69.8701 125.397 70.45 125.397Z" fill="#231815"/>
<path d="M72.2 132.148C72.1 132.148 72 132.098 71.95 132.048C71.7 131.898 71.65 131.598 71.8 131.348C72.05 130.948 72.1 130.448 71.9 130.148C71.75 129.898 71.5 129.798 71.1 129.848C69.35 129.998 68.4 127.948 68.35 127.848C68.25 127.598 68.35 127.298 68.6 127.198C68.85 127.098 69.15 127.198 69.25 127.448C69.25 127.498 69.95 128.948 71 128.848C71.75 128.798 72.4 129.098 72.75 129.648C73.15 130.298 73.1 131.198 72.6 131.898C72.5 132.048 72.35 132.148 72.2 132.148Z" fill="#231815"/>
<path d="M69.7 139.299C67.35 139.299 66.45 136.149 66.1 134.949C66.05 134.799 66.1 134.649 66.15 134.499C66.25 134.399 66.4 134.299 66.55 134.299L72.1 133.949C72.25 133.949 72.4 133.999 72.5 134.099C72.6 134.199 72.65 134.349 72.65 134.499C72.6 134.949 72.25 139.149 69.95 139.349C69.85 139.299 69.75 139.299 69.7 139.299ZM67.25 135.249C67.75 136.749 68.5 138.399 69.85 138.299C70.9 138.199 71.4 136.199 71.55 134.949L67.25 135.249Z" fill="#231815"/>
<path d="M59.2 126.749C59.15 126.749 59.1 126.749 59.05 126.749C58.8 126.699 58.65 126.399 58.7 126.149C58.7 126.099 59.15 124.499 60.5 123.899C61.35 123.499 62.3 123.599 63.35 124.099C63.6 124.199 63.7 124.499 63.6 124.749C63.5 124.999 63.2 125.099 62.95 124.999C62.15 124.649 61.5 124.549 60.95 124.799C60.05 125.199 59.7 126.399 59.7 126.399C59.65 126.599 59.45 126.749 59.2 126.749Z" fill="#231815"/>
<path d="M68 122.898C67.95 122.848 67.95 122.898 68 122.898C67.7 122.898 67.5 122.648 67.5 122.348C67.5 122.298 67.6 120.848 68.65 120.248C69.4 119.798 70.35 119.898 71.5 120.398C71.75 120.498 71.85 120.798 71.75 121.048C71.65 121.298 71.35 121.398 71.1 121.298C70.55 121.048 69.75 120.748 69.2 121.098C68.6 121.448 68.5 122.398 68.5 122.398C68.45 122.648 68.25 122.898 68 122.898Z" fill="#231815"/>
<path d="M49.6 130.647C49.6 130.647 51.25 132.047 52.25 133.897C53.65 136.497 56.15 133.497 54.75 132.097C53.35 130.697 52.4 127.147 54.1 126.747C55.8 126.347 57.75 126.097 57.85 120.447C61 121.997 65.05 121.997 66 117.097C67.65 119.647 69.2 119.947 72.1 119.797C75.45 119.647 77.25 115.597 76.15 112.497C75.05 109.397 72.15 109.247 72.15 109.247C72.15 109.247 73.75 104.147 67.95 101.947C62.2 99.7475 58.6 104.597 58.6 104.597C58.6 104.597 51.15 102.397 44.2 106.997C37.25 111.597 38 122.447 35.1 125.947C32.2 129.447 26 133.797 28.6 140.947C31.2 148.097 40.55 144.647 40.55 144.647C40.55 144.647 39.85 148.347 42 150.097C44.15 151.897 46 151.897 48.6 151.597C50.15 152.997 55.95 155.597 59.2 151.097C60.25 149.597 58.75 145.397 58.1 142.997C55.7 142.097 53.35 140.047 53.35 140.047C53.35 140.047 49.4 139.797 48.15 139.347C47 138.947 45.1 137.747 44.4 136.647C44 136.047 43.65 134.547 43.7 133.847C43.75 133.147 44.2 131.697 44.8 131.147C45.35 130.597 46.15 129.897 47.4 129.847C48.75 129.847 49.6 130.647 49.6 130.647Z" fill="#231815"/>
<path d="M110.55 174.798L115.2 184.948C115.2 184.948 122 171.448 122.45 169.898C122.9 168.348 122.15 163.898 122.5 161.748C122.85 159.598 124.75 154.198 125.7 152.898C127.35 150.648 129.4 151.848 129.4 151.848C129.4 151.848 134.1 138.598 136.2 135.098C138.45 131.348 143.25 132.898 141.8 137.048C140.9 139.698 137.8 149.798 137.8 149.798C137.8 149.798 140 149.048 141.5 149.748C143 150.448 143 152.148 143.85 152.648C144.7 153.148 146.6 153.048 147.4 153.648C149 154.848 148.5 155.948 149.5 156.798C150.7 157.848 152.35 157.198 153.25 158.248C154.45 159.698 153.35 161.998 153.35 161.998C153.35 161.998 150.05 170.948 145.65 174.548C144 175.898 140.65 176.598 140.65 176.598C140.65 176.598 132.35 214.648 126.6 219.398C120.4 224.548 110.55 222.348 105.7 215.398L99.5 187.798L110.55 174.798Z" fill="white"/>
<path d="M118.6 222.697C117.95 222.697 117.3 222.647 116.6 222.547C112.15 221.947 107.9 219.397 105.3 215.647C105.25 215.597 105.25 215.547 105.2 215.447L99 187.847C98.95 187.697 99 187.547 99.1 187.397L110.15 174.397C110.25 174.297 110.35 174.247 110.5 174.197C110.65 174.197 110.8 174.247 110.85 174.347C110.9 174.397 110.95 174.447 110.95 174.497L115.2 183.697C117.65 178.847 121.6 170.747 121.95 169.647C122.15 168.947 122.05 167.347 122 165.797C121.9 164.247 121.8 162.647 122 161.547C122.35 159.297 124.3 153.847 125.3 152.447C126.55 150.747 128.15 150.747 129.1 151.047C130 148.547 133.9 137.847 135.8 134.697C137.15 132.397 139.4 131.897 140.9 132.597C142.05 133.147 143.15 134.647 142.3 137.047C141.55 139.247 139.3 146.447 138.55 148.897C139.4 148.747 140.7 148.597 141.7 149.097C142.7 149.547 143.15 150.447 143.5 151.147C143.7 151.547 143.9 151.947 144.1 152.047C144.4 152.247 145 152.347 145.55 152.397C146.35 152.547 147.15 152.647 147.65 153.047C148.7 153.797 148.95 154.597 149.2 155.197C149.35 155.597 149.45 155.947 149.8 156.247C150.3 156.647 150.85 156.747 151.5 156.847C152.2 156.947 153.05 157.047 153.6 157.747C155 159.397 153.8 161.947 153.75 162.047C153.65 162.397 150.4 171.097 145.9 174.797C144.45 175.997 141.9 176.647 141 176.897C140.15 180.797 132.45 215.047 126.85 219.647C124.65 221.697 121.75 222.697 118.6 222.697ZM106.2 215.197C108.65 218.647 112.6 221.047 116.75 221.597C120.35 222.097 123.75 221.147 126.35 218.997C131.9 214.397 140.15 176.847 140.25 176.447C140.3 176.247 140.45 176.097 140.65 176.047C140.7 176.047 143.95 175.347 145.45 174.097C149.7 170.597 152.95 161.847 153 161.747C153 161.697 153.95 159.647 153 158.497C152.7 158.097 152.25 158.047 151.5 157.947C150.8 157.847 150 157.747 149.3 157.097C148.75 156.647 148.6 156.147 148.4 155.647C148.2 155.097 148 154.547 147.2 153.947C146.85 153.697 146.15 153.597 145.5 153.497C144.8 153.397 144.15 153.297 143.7 152.997C143.2 152.697 142.95 152.197 142.7 151.647C142.4 151.047 142.1 150.397 141.4 150.097C140.1 149.497 138.1 150.147 138.05 150.197C137.85 150.247 137.7 150.197 137.55 150.097C137.4 149.947 137.35 149.747 137.4 149.597C137.45 149.497 140.5 139.497 141.45 136.847C142.05 135.097 141.4 134.047 140.55 133.647C139.45 133.147 137.8 133.547 136.7 135.347C134.65 138.747 129.95 151.897 129.95 151.997C129.9 152.147 129.8 152.247 129.65 152.297C129.5 152.347 129.35 152.347 129.25 152.247C129.1 152.147 127.55 151.347 126.2 153.147C125.3 154.397 123.4 159.697 123.05 161.797C122.9 162.797 123 164.347 123.05 165.847C123.15 167.547 123.25 169.147 123 170.047C122.5 171.597 116 184.597 115.7 185.147C115.6 185.297 115.45 185.447 115.25 185.447C115.05 185.447 114.9 185.347 114.8 185.147L110.45 175.697L100.1 187.947L106.2 215.197Z" fill="#231815"/>
<path d="M112.4 177.847L108.2 182.497C108.2 182.497 108.2 181.497 107.95 180.697C107.55 179.497 107.4 178.797 107.4 178.797C107.4 178.797 109.35 175.647 111 174.547C111.95 176.747 112.4 177.847 112.4 177.847Z" fill="#231815"/>
<path d="M110.2 195.846C110.15 195.846 110.05 195.846 110 195.796C109.75 195.696 109.65 195.396 109.75 195.146L114.8 184.796C114.9 184.546 115.2 184.446 115.45 184.546C115.7 184.646 115.8 184.946 115.7 185.196L110.65 195.546C110.55 195.746 110.4 195.846 110.2 195.846Z" fill="#012967"/>
<path d="M71.25 138.196C71.1 138.196 70.9 138.096 70.8 137.946C70.2 136.946 68.1 137.646 68.1 137.646C67.85 137.746 67.55 137.596 67.45 137.346C67.35 137.096 67.5 136.796 67.75 136.696C67.85 136.646 70.6 135.746 71.6 137.396C71.75 137.646 71.65 137.946 71.45 138.096C71.45 138.146 71.35 138.196 71.25 138.196Z" fill="#231815"/>
<path d="M76.4 129.649C76.4 129.649 78.4 129.549 78.85 131.649C81.1 131.399 82.65 134.349 81.5 136.999C80.35 139.649 77.7 140.199 75.5 138.899C76.65 136.099 77.15 131.899 76.4 129.649Z" fill="#231815"/>
<path d="M24.35 182.549L45.4 188.499L45.9 235.249H111.45C111.45 235.249 105.9 216.999 103.75 201.549C103.15 197.049 105.2 195.549 106.65 191.049C107.65 187.999 109.15 183.449 107.3 178.749C109.75 175.749 110.9 174.499 110.9 174.499C110.9 174.499 101.35 157.549 99.15 153.699C96.95 149.849 91 147.599 86.8 146.949C77.4 145.499 70.3 146.599 70.3 146.599C70.3 146.599 69.85 148.549 66.2 149.049C60.6 149.849 60 148.049 60 148.049C60.2 147.949 41.5 155.049 38.8 156.649C36.1 158.249 32 159.099 24.35 182.549Z" fill="#F9C032"/>
<path d="M89.45 184.149C89.45 184.149 95.15 183.699 99.35 184.549C101.2 184.949 103.8 183.699 102.75 181.099C101.3 177.499 92.2 177.999 92.2 177.999C92.2 177.999 92.8 176.099 96.95 173.499C98.25 172.699 101.6 171.499 100.7 169.249C99.8 166.849 96.7 167.649 93.65 169.349C90.55 171.049 84.55 175.799 84.55 175.799C84.55 175.799 85.65 174.049 87.85 169.649C90.05 165.249 89.3 163.199 88.05 162.599C86.8 161.999 85.15 162.349 83.15 166.899C80.65 172.549 77.05 173.799 77.05 173.799C77.05 173.799 78.1 172.549 79 169.699C79.9 166.849 80.15 164.649 77.8 164.699C75.7 164.749 75.6 167.849 73.45 171.199C71.9 173.649 66.05 177.349 66.05 177.349" fill="white"/>
<path d="M100.1 185.098C99.85 185.098 99.55 185.048 99.3 184.998C95.25 184.148 89.6 184.598 89.55 184.598C89.25 184.598 89.05 184.398 89 184.148C89 183.848 89.2 183.648 89.45 183.598C89.7 183.598 95.3 183.148 99.5 183.998C100.5 184.198 101.65 183.848 102.2 183.198C102.6 182.698 102.65 182.048 102.35 181.248C101.25 178.598 94.75 178.298 92.3 178.448C92.15 178.448 92 178.398 91.9 178.248C91.8 178.098 91.75 177.948 91.8 177.798C91.85 177.698 92.5 175.698 96.75 172.998C97 172.848 97.3 172.698 97.65 172.498C99.4 171.548 100.85 170.698 100.3 169.348C100.1 168.798 99.75 168.498 99.3 168.298C98.2 167.898 96.3 168.398 93.95 169.698C90.95 171.348 85 176.048 84.9 176.098C84.7 176.248 84.45 176.248 84.25 176.098C84.05 175.948 84.05 175.648 84.15 175.448C84.15 175.448 85.3 173.648 87.4 169.348C89.3 165.448 88.9 163.498 87.85 162.998C87.45 162.798 87.1 162.748 86.7 162.898C86 163.148 84.95 164.048 83.6 167.048C81.05 172.848 77.35 174.148 77.2 174.198C77 174.248 76.75 174.198 76.65 173.998C76.5 173.798 76.55 173.548 76.7 173.398C76.7 173.398 77.7 172.148 78.55 169.448C78.8 168.698 79.55 166.348 78.95 165.498C78.9 165.398 78.65 165.098 77.85 165.098C76.9 165.098 76.45 166.048 75.7 167.848C75.25 168.898 74.75 170.098 73.9 171.348C72.3 173.848 66.6 177.498 66.35 177.648C66.1 177.798 65.8 177.748 65.65 177.498C65.5 177.248 65.55 176.948 65.8 176.798C65.85 176.748 71.55 173.148 73.05 170.798C73.8 169.598 74.3 168.448 74.75 167.398C75.55 165.548 76.2 164.098 77.8 164.048C78.65 164.048 79.35 164.298 79.75 164.848C80.4 165.748 80.35 167.198 79.5 169.698C79.15 170.748 78.8 171.598 78.5 172.248C79.7 171.348 81.4 169.598 82.75 166.598C83.95 163.898 85.15 162.348 86.4 161.898C87.05 161.648 87.7 161.698 88.35 162.048C91.15 163.448 89.05 168.298 88.35 169.748C87.5 171.498 86.8 172.798 86.3 173.748C88.35 172.198 91.5 169.848 93.5 168.798C96.2 167.298 98.25 166.848 99.7 167.348C100.45 167.598 101 168.148 101.3 168.998C102.2 171.248 99.65 172.598 98.15 173.398C97.85 173.548 97.55 173.748 97.3 173.848C94.85 175.398 93.7 176.698 93.15 177.398C95.55 177.398 101.95 177.648 103.3 180.848C103.75 181.948 103.65 182.998 103 183.798C102.3 184.648 101.2 185.098 100.1 185.098Z" fill="#231815"/>
<path d="M61.6 144.047C61.6 144.047 62.5 146.297 69.3 146.247C69.05 145.047 68.75 144.447 68.75 144.447C68.75 144.447 62.7 144.697 61.6 144.047Z" fill="#231815"/>
<path d="M49.8 137.296C49.8 137.296 47.75 137.646 46.6 135.546C45.45 133.446 47.45 131.996 48.85 133.046C50.25 134.096 50.7 135.196 50.5 136.796C51.2 137.396 52.9 138.446 55.8 138.396C58.25 138.346 60.6 137.496 60.6 137.496C60.6 137.496 60.5 136.046 61.6 135.246C62.6 134.546 63.7 134.546 64.3 135.196C64.9 135.946 64.65 137.096 63.7 137.746C63 138.246 61.35 138.146 61.35 138.146C61.35 138.146 58.5 139.346 55.15 139.146C51.7 138.946 49.8 137.296 49.8 137.296Z" fill="#F9C032"/>
<path d="M46.45 188.646L45.5 192.946L60.05 180.746C60.05 180.746 65.1 176.396 70.45 176.446C73.5 176.446 76.6 177.346 79.1 178.296C82.2 179.496 84.4 180.846 84.4 180.846C84.4 180.846 96.75 188.196 95.2 192.996C94.4 195.496 88.95 189.296 82.1 187.946C76.95 186.896 74.3 190.746 74.3 190.746C74.3 190.746 47.35 230.796 38 233.246C28.95 235.596 19.45 228.096 18.45 220.796C17 210.446 25 182.746 25 182.746" fill="white"/>
<path d="M34.5 234.098C31.3 234.098 28.05 233.098 25.1 231.148C21.2 228.548 18.4 224.548 17.9 220.798C16.5 210.548 24.2 183.748 24.5 182.598C24.6 182.348 24.85 182.198 25.1 182.248C25.35 182.348 25.5 182.598 25.45 182.848C25.4 183.148 17.5 210.598 18.9 220.648C19.4 224.148 22 227.848 25.65 230.298C29.45 232.848 33.9 233.698 37.8 232.698C46.85 230.348 73.55 190.798 73.8 190.398C73.9 190.248 76.7 186.298 82.15 187.398C85.6 188.098 88.7 189.998 91 191.348C92.5 192.248 94.05 193.198 94.55 192.998C94.6 192.998 94.65 192.948 94.7 192.798C95.85 189.148 87.45 183.198 84.15 181.198C84.1 181.198 81.95 179.848 78.95 178.698C75.85 177.498 73 176.898 70.5 176.898H70.45C65.3 176.898 60.45 181.048 60.4 181.098L45.8 193.298C45.65 193.448 45.4 193.448 45.2 193.348C45 193.248 44.95 192.998 44.95 192.798L45.9 188.498C45.95 188.248 46.25 188.048 46.5 188.098C46.75 188.148 46.95 188.448 46.9 188.698L46.25 191.548L59.7 180.298C59.9 180.098 64.95 175.848 70.45 175.848C73.1 175.848 76.05 176.498 79.25 177.698C82.35 178.898 84.55 180.198 84.6 180.298C85.1 180.598 97.25 187.898 95.6 193.048C95.45 193.598 95.1 193.798 94.85 193.898C93.9 194.248 92.55 193.448 90.45 192.148C88.1 190.748 85.2 188.948 81.9 188.298C77.15 187.348 74.7 190.748 74.6 190.898C73.5 192.548 47.4 231.098 38.05 233.598C36.95 233.948 35.75 234.098 34.5 234.098Z" fill="#231815"/>
<path d="M28.5 209.449C28.35 209.449 28.25 209.399 28.15 209.299C27.95 209.099 27.95 208.799 28.15 208.599L45.15 192.599C45.35 192.399 45.65 192.399 45.85 192.599C46.05 192.799 46.05 193.099 45.85 193.299L28.85 209.299C28.75 209.399 28.6 209.449 28.5 209.449Z" fill="#231815"/>
<path d="M87.9 178.5C87.9 178.5 90 177.7 96.75 178.2L87.9 178.5Z" fill="white"/>
<path d="M87.9 178.999C87.7 178.999 87.5 178.899 87.45 178.699C87.35 178.449 87.5 178.149 87.75 178.049C87.85 177.999 90 177.199 96.8 177.699C97.1 177.699 97.3 177.949 97.25 178.249C97.25 178.549 97 178.749 96.7 178.699C90.2 178.199 88.1 178.949 88.05 178.949C88 178.949 87.95 178.999 87.9 178.999Z" fill="#231815"/>
<path d="M25.5 182.898C25.5 182.898 34.15 188.048 45.75 191.748L46.45 188.648L25.5 182.898Z" fill="#231815"/>
<path d="M64.8 152.099C61.05 152.099 58 150.399 57.85 150.299C57.6 150.149 57.55 149.849 57.65 149.599C57.8 149.349 58.1 149.299 58.35 149.399C58.4 149.399 62.3 151.599 66.5 150.899C70.6 150.249 72.05 147.049 72.05 146.999C72.15 146.749 72.45 146.649 72.7 146.749C72.95 146.849 73.05 147.149 72.95 147.399C72.9 147.549 71.3 151.099 66.65 151.849C66.05 152.049 65.4 152.099 64.8 152.099Z" fill="#231815"/>
<path d="M58.4 182.797C58.4 182.797 67.25 185.997 71.75 193.497C69.35 196.947 68.85 197.597 68.85 197.597C68.85 197.597 63.95 189.297 54.5 185.997C57.1 183.847 58.4 182.797 58.4 182.797Z" fill="#F9C032"/>
<path d="M74.4 115.097C74.35 115.097 74.35 115.097 74.3 115.097C74.05 115.047 73.85 114.797 73.9 114.497C74.3 112.247 72 111.297 71.9 111.247C71.65 111.147 71.5 110.847 71.6 110.597C71.7 110.347 72 110.197 72.25 110.297C73.35 110.747 75.3 112.197 74.9 114.647C74.85 114.897 74.6 115.097 74.4 115.097Z" fill="white"/>
<path d="M129.45 151.848C129.45 151.848 141.1 155.298 142.65 160.698C142.95 161.798 141.7 162.948 139.95 163.098C136.65 163.398 131.95 160.698 131.95 160.698C131.95 160.698 131.55 163.398 128.95 164.598" fill="white"/>
<path d="M128.95 165.099C128.75 165.099 128.6 164.999 128.5 164.799C128.4 164.549 128.5 164.249 128.75 164.149C131.1 163.099 131.45 160.749 131.5 160.649C131.5 160.499 131.65 160.349 131.8 160.249C131.95 160.199 132.1 160.199 132.25 160.249C132.3 160.299 136.8 162.849 139.95 162.549C140.9 162.449 141.7 162.099 142.1 161.549C142.25 161.299 142.3 161.049 142.25 160.799C140.8 155.699 129.5 152.349 129.4 152.299C129.15 152.199 129 151.949 129.05 151.699C129.15 151.449 129.4 151.299 129.65 151.349C130.15 151.499 141.55 154.899 143.2 160.549C143.35 161.099 143.25 161.649 142.9 162.149C142.35 162.949 141.3 163.499 140.05 163.599C137.3 163.849 133.75 162.199 132.35 161.449C132.05 162.399 131.25 164.149 129.2 165.049C129.05 165.049 129 165.099 128.95 165.099Z" fill="#231815"/>
<path d="M139.8 177.048C137.8 177.048 136.45 176.398 136.35 176.348C136.1 176.248 136 175.948 136.1 175.698C136.2 175.448 136.5 175.348 136.75 175.448C136.8 175.498 139.4 176.648 142.45 175.598C142.7 175.498 143 175.648 143.1 175.898C143.2 176.148 143.05 176.448 142.8 176.548C141.75 176.898 140.7 177.048 139.8 177.048Z" fill="#012967"/>
<path d="M136.55 175.898C136.55 175.898 139.25 176.798 140.7 176.598C139.8 180.348 135.25 198.198 135.25 198.198L136.55 175.898Z" fill="#231815"/>
<path d="M111.45 235.798C111.2 235.798 111 235.648 110.95 235.398C110.15 231.048 107.45 219.598 105.45 211.248C104.35 206.498 103.45 202.748 103.25 201.698C102.9 199.948 104 196.598 105.25 192.698C106.45 188.898 107.75 184.998 107.65 182.498C107.55 177.598 101.45 172.048 101.4 171.998C101.2 171.798 101.2 171.498 101.35 171.298C101.55 171.098 101.85 171.098 102.05 171.248C102.3 171.498 108.5 177.148 108.65 182.498C108.7 185.198 107.45 189.198 106.2 193.048C105.1 196.498 103.95 200.048 104.25 201.548C104.45 202.548 105.35 206.298 106.45 211.048C108.45 219.398 111.15 230.898 111.95 235.248C112 235.498 111.8 235.798 111.55 235.848C111.55 235.798 111.5 235.798 111.45 235.798Z" fill="#231815"/>
<path d="M128.95 164.597C128.95 164.597 138 165.797 139.95 163.097C137.3 163.447 132.15 161.297 132.15 161.297C132.15 161.297 130.3 164.547 128.95 164.597Z" fill="#231815"/>
<path d="M38.2 39.6469C43.4743 39.6469 47.75 35.3712 47.75 30.0969C47.75 24.8226 43.4743 20.5469 38.2 20.5469C32.9257 20.5469 28.65 24.8226 28.65 30.0969C28.65 35.3712 32.9257 39.6469 38.2 39.6469Z" fill="#F9C032"/>
<path d="M28.95 48.5463C28.85 48.5463 28.8 48.5463 28.7 48.4963L13 40.3463C12.75 40.1963 12.65 39.8963 12.8 39.6963L20.9 23.9463C21.05 23.6963 21.35 23.5963 21.55 23.7463L37.3 31.8463C37.55 31.9963 37.65 32.2963 37.5 32.4963L29.4 48.2463C29.35 48.4463 29.15 48.5463 28.95 48.5463ZM13.9 39.6963L28.75 47.3463L36.4 32.4963L21.55 24.8463L13.9 39.6963Z" fill="#231815"/>
<path d="M180.45 223.55L170.8 226.75L161.1 229.9L163.2 219.95L165.25 210L172.85 216.75L180.45 223.55Z" fill="#EEEEEE"/>
<path d="M184.3 239.999C177.3 239.999 171.65 234.299 171.65 227.349C171.65 220.349 177.35 214.699 184.3 214.699C191.3 214.699 196.95 220.399 196.95 227.349C196.95 234.299 191.25 239.999 184.3 239.999ZM184.3 215.649C177.85 215.649 172.65 220.899 172.65 227.299C172.65 233.699 177.9 238.949 184.3 238.949C190.7 238.949 195.95 233.699 195.95 227.299C195.95 220.899 190.7 215.649 184.3 215.649Z" fill="#231815"/>
<path d="M227.792 205.388L223.161 210.02L227.792 214.651L232.424 210.02L227.792 205.388Z" fill="#CCCCCC"/>
<path d="M99.3022 122.283L90.6671 125.457L91.5986 127.991L100.234 124.817L99.3022 122.283Z" fill="#F9C032"/>
<path d="M93.0941 114.406L86.5603 120.883L88.4611 122.8L94.9949 116.324L93.0941 114.406Z" fill="#F9C032"/>
<path d="M91.7449 130.86L91.0338 133.465L99.909 135.888L100.62 133.283L91.7449 130.86Z" fill="#F9C032"/>
</svg>
