<svg width="200" height="200" viewBox="0 0 200 200" fill="none" xmlns="http://www.w3.org/2000/svg">
<g clip-path="url(#clip0_1433_9613)">
<path d="M10.1053 82.1901L24.6579 88.4962C25.2816 86.6945 26.8062 84.1998 30.2018 81.705C34.3597 78.6559 41.2202 77.9629 44.6158 67.1524C48.5658 54.4708 35.5378 47.3331 34.2211 46.7787C34.2211 46.7787 34.2211 46.7787 34.1518 46.7787H34.0825C32.5579 46.0857 18.6983 41.5813 12.115 53.0848C6.5018 62.9252 10.6597 68.3998 11.2834 73.5278C11.8378 77.6857 11.0062 80.5269 10.1053 82.1901Z" fill="#F9C032"/>
<path d="M18.906 95.9113L8.5806 91.4069C6.98674 90.7139 6.29376 88.8429 6.98674 87.249L9.34288 81.8438L25.4201 88.9122L23.0639 94.3174C22.371 95.9113 20.4999 96.6043 18.906 95.9113Z" fill="black"/>
<path d="M16.273 97.7125L9.06602 94.594C7.95725 94.1089 7.47216 92.7923 7.95725 91.6835L9.62041 87.9414L20.8467 92.8616L19.1836 96.6037C18.6985 97.7125 17.3818 98.1975 16.273 97.7125Z" fill="black"/>
<path d="M20.6047 69.6215L15.3525 81.6953L16.6235 82.2482L21.8757 70.1743L20.6047 69.6215Z" fill="black"/>
<path d="M25.3938 71.7543L20.1416 83.8281L21.4125 84.381L26.6647 72.3072L25.3938 71.7543Z" fill="black"/>
<path d="M17.8655 67.737L17.3125 69.0078L29.385 74.2613L29.938 72.9905L17.8655 67.737Z" fill="black"/>
<path d="M150.157 46.7113C139.069 32.5745 114.815 22.5262 91.1839 22.3876C90.976 22.3876 90.7681 22.3876 90.6295 22.3876C68.4541 22.3876 49.4664 30.7727 37.2699 46.0183L36.1611 45.1174C48.7734 29.456 68.3155 20.8631 91.2532 21.0017C115.3 21.1402 139.97 31.3964 151.266 45.8797L150.157 46.7113Z" fill="#1D1D1B"/>
<path d="M152.443 48.0285L139.484 42.8311L144.751 33.9609L152.443 48.0285ZM141.563 42.1381L149.394 45.2566L144.751 36.7329L141.563 42.1381Z" fill="#1D1D1B"/>
<path d="M20.5 178.31L46.1403 142.205C53.2088 132.226 65.821 127.86 77.5324 131.187L121.398 143.73C127.774 145.531 133.387 149.551 137.129 155.025L143.019 178.31C143.089 178.31 20.5 176.716 20.5 178.31Z" fill="#080717"/>
<path d="M100.817 138.321L91.9465 110.324L69.0088 117.601L76.9781 142.756C73.6518 146.29 71.5035 150.309 73.7904 153.774C79.2649 162.367 94.9956 153.774 101.856 147.607C108.786 141.439 108.786 141.439 108.786 141.439L100.817 138.321Z" fill="white"/>
<path d="M80.9976 158.141C80.4432 158.141 79.8888 158.072 79.3344 158.003C76.6318 157.656 74.5528 156.34 73.1669 154.191C71.0879 150.934 72.1274 147.054 76.1467 142.619L68.2467 117.81C68.1774 117.602 68.1774 117.463 68.316 117.255C68.3853 117.117 68.5239 116.978 68.7318 116.909L91.6695 109.633C92.016 109.494 92.4318 109.702 92.5704 110.118L101.371 137.768L109.063 140.817C109.271 140.886 109.479 141.094 109.479 141.371C109.548 141.579 109.41 141.856 109.271 141.995L102.341 148.162C97.837 152.251 88.4125 158.141 80.9976 158.141ZM69.8405 118.087L77.602 142.619C77.6713 142.826 77.602 143.104 77.4634 143.312C73.652 147.4 72.6125 150.796 74.3449 153.498C75.523 155.3 77.2555 156.409 79.5423 156.686C83.2844 157.171 92.5704 155.092 101.441 147.123L107.539 141.648L100.609 138.876C100.401 138.807 100.262 138.669 100.193 138.461L91.5309 111.157L69.8405 118.087Z" fill="#080717"/>
<path d="M96.3123 127.098L90.5605 108.941L69.0088 115.802L75.1763 135.205C82.7991 135.829 90.6991 133.057 96.3123 127.098Z" fill="#080717"/>
<path d="M111.627 114.068C118.903 103.049 117.101 88.0118 106.845 79.0723L103.242 75.8846C95.2724 68.8854 83.0759 69.717 76.0768 77.6863L61.4549 94.4565C54.4558 102.426 55.2873 114.622 63.2566 121.621L66.0979 124.116C75.5917 132.432 89.1049 133.125 99.2917 126.749C100.886 128.482 103.242 129.591 105.806 129.591C110.726 129.591 114.676 125.641 114.676 120.721C114.676 118.087 113.498 115.662 111.627 114.068Z" fill="white"/>
<path d="M84.5316 131.671C77.7404 131.671 70.9491 129.315 65.6825 124.602L62.8413 122.108C54.5948 114.831 53.7632 102.219 60.9702 93.9725L75.5921 77.2717C82.7992 69.0252 95.4114 68.1243 103.727 75.4006L107.331 78.5883C117.518 87.4585 119.666 102.566 112.528 114C114.33 115.801 115.369 118.227 115.369 120.791C115.369 126.058 111.073 130.354 105.806 130.354C103.381 130.354 100.955 129.384 99.2228 127.721C94.6492 130.354 89.5904 131.671 84.5316 131.671ZM90.5606 71.8664C85.3632 71.8664 80.2351 74.0146 76.5623 78.1725L61.9404 94.8734C55.2184 102.566 55.9807 114.346 63.6728 121.068L66.5141 123.563C75.4535 131.394 88.7588 132.502 98.8763 126.127C99.1535 125.919 99.5 125.988 99.7772 126.266C101.371 127.929 103.45 128.899 105.806 128.899C110.311 128.899 113.983 125.226 113.983 120.722C113.983 118.366 112.944 116.148 111.211 114.554C110.934 114.346 110.865 113.93 111.073 113.653C118.211 102.773 116.201 88.1515 106.43 79.5585L102.826 76.3708C99.2921 73.391 94.9263 71.8664 90.5606 71.8664Z" fill="#080717"/>
<path d="M105.737 111.85C108.093 111.85 110.172 112.751 111.766 114.206L114.607 110.949C121.467 103.119 120.705 91.1995 112.805 84.3389L103.173 75.8846C95.2034 68.8854 83.0069 69.717 76.0078 77.6863C76.0078 77.6863 85.5017 71.2416 102.203 94.6644L100.332 98.3372C99.0841 100.901 98.7376 103.812 99.4999 106.514L99.985 108.316L96.2429 113.167C94.7876 115.038 95.1341 117.671 96.9359 119.196C97.7675 115.038 101.371 111.85 105.737 111.85Z" fill="#080717"/>
<path d="M66.2368 99.5853C65.6825 99.5853 65.0588 99.516 64.5044 99.4467C62.0789 98.9616 59.9307 97.5757 58.4754 95.566C57.0895 93.4871 56.5351 90.9923 57.0202 88.5669C57.5053 86.1414 58.8912 83.9932 60.9009 82.5379C62.9798 81.152 65.4746 80.5976 67.9 81.0827C70.3254 81.5678 72.4737 82.9537 73.9289 84.9634C75.3149 87.0423 75.8693 89.5371 75.3842 91.9625C74.8991 94.3879 73.5132 96.5362 71.5035 97.9914C69.9789 99.0309 68.1772 99.5853 66.2368 99.5853ZM66.2368 82.2607C64.643 82.2607 63.1184 82.7458 61.7325 83.6467C60 84.8248 58.8219 86.6958 58.4061 88.7748C57.9904 90.8537 58.4754 93.002 59.6535 94.7344C60.8316 96.4669 62.7026 97.645 64.7816 98.0607C66.8605 98.4765 69.0088 97.9915 70.7412 96.8134C72.4737 95.6353 73.6518 93.7643 74.0675 91.6853C74.4833 89.6064 73.9982 87.4581 72.8202 85.7257C71.6421 83.9932 69.7711 82.8151 67.6921 82.3993C67.207 82.33 66.7219 82.2607 66.2368 82.2607Z" fill="#91C9C0"/>
<path d="M82.8686 111.089C82.3142 111.089 81.7598 111.02 81.1361 110.951C76.0774 109.98 72.6818 105.129 73.6519 100.001C74.6221 94.9426 79.473 91.547 84.6011 92.5172C89.6598 93.4873 93.0554 98.3382 92.0853 103.466C91.1844 107.971 87.2344 111.089 82.8686 111.089ZM82.8686 93.7645C79.1265 93.7645 75.7309 96.4672 75.0379 100.279C74.2063 104.575 77.1169 108.802 81.4133 109.565C85.7098 110.396 89.937 107.486 90.6993 103.189C91.5309 98.8926 88.6204 94.6654 84.3239 93.9031C83.8388 93.8338 83.3537 93.7645 82.8686 93.7645Z" fill="#91C9C0"/>
<path d="M101.163 113.376C101.024 113.376 100.886 113.306 100.747 113.237L90.4909 105.476C90.2137 105.268 90.1444 104.783 90.3523 104.506C90.5602 104.228 91.0453 104.159 91.3225 104.367L101.579 112.128C101.856 112.336 101.925 112.821 101.717 113.099C101.579 113.306 101.371 113.376 101.163 113.376Z" fill="#91C9C0"/>
<path d="M76.5626 95.9804C76.424 95.9804 76.2161 95.9111 76.0775 95.8418L73.7213 93.7628C73.4442 93.4856 73.3749 93.0698 73.652 92.7926C73.9292 92.5154 74.345 92.4461 74.6222 92.7233L76.9784 94.8023C77.2556 95.0795 77.3249 95.4953 77.0477 95.7725C76.9091 95.9111 76.7705 95.9804 76.5626 95.9804Z" fill="#91C9C0"/>
<path d="M85.7101 102.218C84.8093 103.396 83.5619 103.881 82.7996 103.327C82.0373 102.773 82.1759 101.387 83.0075 100.209C83.9084 99.0306 85.1557 98.5455 85.918 99.0999C86.6803 99.6543 86.611 101.04 85.7101 102.218Z" fill="#080717"/>
<path d="M72.1965 93.0035C71.2956 94.1815 70.0482 94.6666 69.2859 94.1122C68.5237 93.5579 68.6622 92.1719 69.4938 90.9938C70.3947 89.8158 71.6421 89.3307 72.4044 89.8851C73.1666 90.4394 73.028 91.8947 72.1965 93.0035Z" fill="#080717"/>
<path d="M69.9093 111.021C67.6224 111.021 65.8207 109.497 65.1277 108.388C64.9198 108.041 64.9891 107.626 65.3356 107.418C65.6821 107.21 66.0979 107.279 66.3058 107.626C66.3751 107.764 68.454 110.675 71.6417 109.289C71.9882 109.15 72.404 109.289 72.5426 109.635C72.6812 109.982 72.5426 110.398 72.1961 110.536C71.4338 110.883 70.6715 111.021 69.9093 111.021Z" fill="#080717"/>
<path d="M92.8472 96.6076C92.5007 96.6076 92.2235 96.3997 92.1542 96.0532C91.1841 91.8953 86.3332 90.3015 86.2639 90.3015C85.9174 90.1629 85.7095 89.8164 85.8481 89.4006C85.9867 89.0541 86.3332 88.8462 86.749 88.9848C86.9569 89.0541 92.3621 90.8559 93.5402 95.776C93.6095 96.1225 93.4016 96.5383 93.0551 96.6076C92.9165 96.6076 92.8472 96.6076 92.8472 96.6076Z" fill="#080717"/>
<path d="M77.1855 85.7251C76.9083 85.7251 76.7004 85.5865 76.5618 85.3093C76.4925 85.1707 74.7601 81.4286 70.5329 80.8742C70.1864 80.8049 69.9092 80.4585 69.9092 80.112C69.9785 79.7655 70.325 79.4883 70.6715 79.4883C75.7302 80.1813 77.7399 84.5471 77.8092 84.7549C77.9478 85.1014 77.8092 85.5172 77.4627 85.6558C77.3934 85.6558 77.2548 85.7251 77.1855 85.7251Z" fill="#080717"/>
<path d="M99.7075 120.999C99.5689 120.999 99.4303 120.999 99.361 120.86C99.0145 120.652 98.9452 120.237 99.1531 119.89C99.2224 119.751 101.579 116.009 105.043 115.316C106.637 114.97 108.231 115.316 109.756 116.425C110.102 116.633 110.171 117.049 109.894 117.395C109.686 117.742 109.271 117.811 108.924 117.534C107.746 116.702 106.499 116.425 105.321 116.702C102.41 117.326 100.331 120.652 100.331 120.652C100.193 120.93 99.9847 120.999 99.7075 120.999Z" fill="#080717"/>
<path d="M113.776 88.6364C113.637 88.6364 113.499 88.5671 113.36 88.4978C113.083 88.2899 113.014 87.8048 113.291 87.5277C115.092 85.3101 113.221 81.9145 113.221 81.8452C113.014 81.4987 113.152 81.0829 113.499 80.875C113.845 80.6671 114.261 80.8057 114.469 81.1522C114.538 81.2908 116.825 85.3794 114.399 88.3592C114.192 88.5671 113.984 88.6364 113.776 88.6364Z" fill="#080717"/>
<path d="M114.954 87.4579C114.746 87.4579 114.607 87.3886 114.469 87.25C114.191 86.9728 114.191 86.5571 114.469 86.2799C115.924 84.8246 117.518 85.3097 118.211 85.7255C118.557 85.9334 118.627 86.3492 118.419 86.6957C118.211 87.0421 117.795 87.1114 117.448 86.9035C117.31 86.8342 116.409 86.3492 115.439 87.3193C115.3 87.3886 115.162 87.4579 114.954 87.4579Z" fill="#080717"/>
<path d="M39.9726 129.938V101.734C39.9726 98.6155 38.2401 95.6357 35.5375 94.1111C34.5673 93.5567 33.4585 93.5567 32.4883 94.1111C31.5182 94.6655 30.9638 95.6357 30.9638 96.7444V117.049C30.0629 116.494 28.9541 116.217 27.8454 116.217H27.6375C25.6278 116.217 23.7568 117.187 22.5787 118.851C22.2322 118.781 21.8164 118.712 21.4699 118.712H21.262C19.1138 118.712 17.1734 119.751 16.0647 121.553V121.623C15.5796 121.484 15.0252 121.415 14.4708 121.415C10.6594 121.415 7.47168 124.533 7.47168 128.414V178.308C7.47168 178.516 7.61028 178.308 7.81817 178.308H37.8243C38.0322 178.308 38.1708 178.516 38.1708 178.308V153.015L38.5173 152.668C41.9822 149.203 43.8533 144.699 43.8533 139.779V136.314C43.8533 133.542 42.2594 131.186 39.9726 129.938Z" fill="white"/>
<path d="M29.5079 161.883C29.3 161.883 29.1614 161.814 29.0228 161.675C28.7456 161.398 28.7456 160.983 29.0228 160.705L37.8237 151.904C41.0807 148.647 42.8132 144.351 42.8132 139.777V136.312C42.8132 132.917 40.0412 130.214 36.7149 130.214H23.9641C23.2018 130.214 22.5088 130.561 22.093 131.115C21.6079 131.669 21.4 132.432 21.5386 133.125C21.8851 135.134 23.479 136.659 25.4193 136.936L33.0421 138.114C33.3886 138.183 33.5965 138.461 33.5965 138.807C33.5965 139.154 33.3886 139.431 33.0421 139.5C33.0421 139.5 30.8246 139.985 28.6763 141.371C25.9044 143.173 24.5184 145.668 24.5184 148.717C24.5184 149.133 24.2413 149.41 23.8255 149.41C23.4097 149.41 23.1325 149.133 23.1325 148.717C23.1325 145.183 24.7956 142.203 27.9834 140.193C28.6763 139.777 29.3693 139.361 29.993 139.084L25.1421 138.322C22.5781 137.906 20.5684 135.897 20.0834 133.333C19.8755 132.224 20.222 131.046 20.9149 130.214C21.6772 129.313 22.7167 128.828 23.8948 128.828H36.6456C40.8035 128.828 44.1298 132.224 44.1298 136.312V139.777C44.1298 144.697 42.1895 149.34 38.7246 152.875L29.993 161.675C29.8544 161.814 29.6465 161.883 29.5079 161.883Z" fill="#080717"/>
<path d="M39.626 130.768C39.2102 130.768 38.933 130.491 38.933 130.075V101.801C38.933 99.0294 37.4084 96.4654 34.983 95.0794C34.3593 94.7329 33.597 94.7329 32.9733 95.0794C32.3496 95.4259 32.0032 96.1189 32.0032 96.8119V117.186C32.0032 117.601 31.726 117.879 31.3102 117.879C30.8944 117.879 30.6172 117.601 30.6172 117.186V96.8119C30.6172 95.5645 31.2409 94.525 32.2803 93.9014C33.3198 93.2777 34.5672 93.2777 35.676 93.9014C38.5172 95.4952 40.3189 98.5443 40.3189 101.801V130.075C40.3189 130.422 39.9724 130.768 39.626 130.768Z" fill="#080717"/>
<path d="M33.6663 129.936C33.2506 129.936 32.9734 129.659 32.9734 129.243V122.452C32.9734 119.61 30.6865 117.323 27.8453 117.323H27.6374C25.9049 117.323 24.2418 118.224 23.3409 119.68C23.133 120.026 22.7172 120.095 22.3707 119.887C22.0242 119.68 21.9549 119.264 22.1628 118.917C23.3409 117.046 25.4199 115.938 27.6374 115.938H27.8453C31.4488 115.938 34.3593 118.848 34.3593 122.452V129.243C34.3593 129.659 34.0128 129.936 33.6663 129.936Z" fill="#080717"/>
<path d="M27.221 130.145C26.8052 130.145 26.5281 129.868 26.5281 129.452V124.948C26.5281 122.106 24.2412 119.82 21.4 119.82H21.1921C19.4596 119.82 17.7965 120.72 16.8956 122.176C16.6877 122.522 16.2719 122.591 15.9254 122.384C15.5789 122.176 15.5096 121.76 15.7175 121.413C16.8956 119.542 18.9745 118.434 21.1921 118.434H21.4C25.0035 118.434 27.914 121.344 27.914 124.948V129.452C27.914 129.868 27.6368 130.145 27.221 130.145Z" fill="#080717"/>
<path d="M37.8238 178.999C37.4081 178.999 37.1309 178.722 37.1309 178.306V153.982C37.1309 153.566 37.4081 153.289 37.8238 153.289C38.2396 153.289 38.5168 153.566 38.5168 153.982V178.306C38.5168 178.722 38.1703 178.999 37.8238 178.999Z" fill="#080717"/>
<path d="M7.74865 178.998C7.33286 178.998 7.05566 178.721 7.05566 178.305V128.479C7.05566 124.46 10.3127 121.203 14.332 121.203C18.3513 121.203 21.6083 124.46 21.6083 128.479V137.973C21.6083 139.29 20.4995 140.399 19.1829 140.399C16.3416 140.399 13.9855 138.112 13.9855 135.201V130.697C13.9855 130.281 14.2627 130.004 14.6785 130.004C15.0943 130.004 15.3715 130.281 15.3715 130.697V135.201C15.3715 137.28 17.0346 139.013 19.1829 139.013C19.7372 139.013 20.2223 138.528 20.2223 137.973V128.479C20.2223 125.222 17.589 122.589 14.332 122.589C11.075 122.589 8.44163 125.222 8.44163 128.479V178.305C8.44163 178.721 8.16444 178.998 7.74865 178.998Z" fill="#080717"/>
<path d="M16.3416 131.53H13.0152C12.5995 131.53 12.3223 131.253 12.3223 130.838C12.3223 130.422 12.5995 130.145 13.0152 130.145H16.3416C16.7574 130.145 17.0345 130.422 17.0345 130.838C17.0345 131.184 16.6881 131.53 16.3416 131.53Z" fill="#080717"/>
<path d="M130.338 178.309L130.407 163.064L129.714 149.62C129.368 143.522 131.447 137.562 135.466 132.988L147.039 119.822C148.009 118.713 149.533 118.297 150.989 118.782H151.058C153.275 119.544 154.315 122.178 153.137 124.257C150.642 128.553 147.108 134.79 147.108 134.79L163.393 139.225L182.242 131.672C184.044 130.979 186.123 131.672 187.093 133.335L187.162 133.404C187.786 134.444 187.44 135.83 186.331 136.384C178.777 140.403 152.305 154.887 152.305 154.887L155.077 178.309H130.338Z" fill="white"/>
<path d="M155.007 179.001C154.661 179.001 154.384 178.724 154.314 178.378L151.543 154.955C151.543 154.678 151.681 154.4 151.889 154.262C152.166 154.123 178.5 139.709 185.914 135.759C186.261 135.551 186.538 135.274 186.607 134.858C186.746 134.443 186.677 134.096 186.469 133.75L186.4 133.68C185.568 132.294 183.905 131.74 182.38 132.364L163.531 139.917C163.393 139.986 163.254 139.986 163.115 139.917L146.83 135.482C146.622 135.413 146.484 135.274 146.345 135.066C146.276 134.858 146.276 134.65 146.414 134.443L152.443 123.909C152.928 123.078 152.998 122.177 152.651 121.276C152.305 120.375 151.612 119.751 150.78 119.405H150.711C149.602 118.989 148.355 119.335 147.523 120.236L135.95 133.403C132 137.838 130.06 143.59 130.337 149.48L131.03 162.924L130.961 178.239C130.961 178.585 130.614 178.932 130.268 178.932C129.852 178.932 129.575 178.585 129.575 178.239L129.644 162.993L128.951 149.55C128.605 143.243 130.753 137.214 134.911 132.433L146.484 119.266C147.662 117.95 149.464 117.464 151.127 118.019H151.196C152.443 118.435 153.483 119.405 153.899 120.721C154.384 121.969 154.245 123.355 153.621 124.533L148.008 134.304L163.185 138.462L181.757 130.978C183.905 130.146 186.261 130.908 187.439 132.918L187.508 132.987C187.924 133.68 187.993 134.443 187.785 135.205C187.578 135.967 187.093 136.591 186.4 136.937C179.47 140.61 156.186 153.361 152.79 155.232L155.562 178.239C155.631 178.585 155.354 178.932 154.938 179.001C155.077 179.001 155.077 179.001 155.007 179.001Z" fill="#080717"/>
<path d="M171.986 139.777L179.332 126.957C180.025 125.779 179.054 124.324 177.669 124.462C175.936 124.67 174.342 125.571 173.303 126.957L164.294 138.461L171.986 139.777Z" fill="white"/>
<path d="M171.986 140.471C171.847 140.471 171.778 140.471 171.639 140.402C171.293 140.194 171.223 139.778 171.362 139.432L178.708 126.612C178.915 126.265 178.915 125.919 178.708 125.572C178.5 125.226 178.153 125.087 177.807 125.156C176.282 125.295 174.896 126.127 173.926 127.374L164.917 138.877C164.709 139.155 164.224 139.224 163.947 139.016C163.67 138.808 163.6 138.323 163.808 138.046L172.817 126.542C173.926 125.018 175.728 123.978 177.599 123.77C178.5 123.701 179.331 124.048 179.816 124.81C180.301 125.572 180.301 126.473 179.886 127.305L172.54 140.125C172.471 140.333 172.263 140.471 171.986 140.471Z" fill="#080717"/>
<path d="M146.415 146.984L157.572 141.025L163.67 128.482C164.502 126.749 166.165 125.64 168.105 125.433C169.353 125.363 170.254 126.541 169.907 127.719L164.64 144.074L146.415 146.984Z" fill="white"/>
<path d="M146.415 147.678C146.138 147.678 145.93 147.539 145.791 147.331C145.583 146.985 145.722 146.569 146.068 146.361L157.017 140.54L163.046 128.205C164.016 126.265 165.888 124.948 168.036 124.81C168.867 124.74 169.63 125.087 170.115 125.71C170.6 126.334 170.738 127.166 170.531 127.928L165.264 144.282C165.125 144.629 164.779 144.837 164.363 144.698C164.016 144.56 163.809 144.213 163.947 143.797L169.214 127.443C169.352 127.096 169.283 126.75 169.006 126.473C168.798 126.195 168.452 126.057 168.105 126.057C166.442 126.195 164.987 127.235 164.224 128.69L158.126 141.233C158.057 141.372 157.988 141.441 157.849 141.51L146.692 147.47C146.623 147.678 146.484 147.678 146.415 147.678Z" fill="#080717"/>
<path d="M168.105 89.7446L163.947 92.4472C159.027 95.7043 151.404 93.7639 145.791 87.4578C139.346 80.2508 137.891 69.9946 142.534 64.5894L146.692 61.8867C142.049 67.292 143.504 77.5481 149.949 84.7551C155.632 91.1306 163.185 93.0016 168.105 89.7446Z" fill="black"/>
<path d="M146.762 61.9567C151.405 56.5514 160.413 58.0067 166.858 65.2137C173.303 72.4207 174.758 82.6768 170.115 88.0821C165.472 93.4874 156.463 92.0321 150.019 84.8251C143.574 77.6181 142.119 67.3619 146.762 61.9567Z" fill="#F9C032"/>
<path d="M149.879 65.4214C153.275 61.4714 159.928 62.5109 164.64 67.8469C169.352 73.1135 170.461 80.667 166.996 84.617C163.6 88.567 156.948 87.5276 152.236 82.1916C147.523 76.9249 146.414 69.3714 149.879 65.4214Z" fill="#F9C032"/>
<path d="M143.02 52.3242H141.634V56.6207H143.02V52.3242Z" fill="#080717"/>
<path d="M144.475 53.8477H140.179V55.2336H144.475V53.8477Z" fill="#080717"/>
<path d="M143.92 95.7734H142.534V103.604H143.92V95.7734Z" fill="#080717"/>
<path d="M147.108 98.9609H139.277V100.347H147.108V98.9609Z" fill="#080717"/>
<path d="M155.424 76.7188H154.038V84.4109H155.424V76.7188Z" fill="#080717"/>
<path d="M158.543 79.9062H150.851V81.2922H158.543V79.9062Z" fill="#080717"/>
<path d="M165.818 69.4398C164.848 69.4398 163.878 69.3012 162.977 69.024C162.908 69.024 162.838 68.9547 162.838 68.9547L159.374 66.6679C159.096 66.46 158.958 66.1135 159.096 65.767C159.235 65.4205 159.581 65.2819 159.928 65.4205C165.264 67.0836 172.263 62.7872 175.589 55.8573C178.361 49.8977 177.599 43.7301 173.718 41.1661C173.372 40.9582 173.303 40.5424 173.51 40.1959C173.718 39.8494 174.134 39.7801 174.481 39.988L177.945 42.2749C182.381 45.2547 183.42 52.1152 180.302 58.6986C177.253 65.1433 171.224 69.4398 165.818 69.4398ZM163.462 67.7766C168.798 69.3705 175.728 65.074 178.985 58.1442C181.688 52.4617 180.995 46.5021 177.53 43.7994C179.054 47.2644 178.916 51.9073 176.767 56.481C173.788 62.7872 167.897 67.0836 162.561 67.2222L163.462 67.7766Z" fill="black"/>
<path d="M162.354 67.1541C161.384 67.1541 160.413 67.0155 159.512 66.7383C157.087 65.976 155.285 64.3128 154.176 61.8181C152.652 58.2839 152.929 53.7102 155.008 49.2751C158.542 41.6523 166.304 37.0786 172.333 38.9497C174.758 39.712 176.56 41.3751 177.669 43.8699C179.193 47.4041 178.916 51.9778 176.837 56.4128C173.788 62.8576 167.759 67.1541 162.354 67.1541ZM159.928 65.4216C165.264 67.0848 172.263 62.7883 175.59 55.8585C177.461 51.8392 177.738 47.612 176.421 44.4935C175.52 42.4146 173.996 41.0286 171.917 40.3357C166.581 38.6725 159.582 42.969 156.255 49.8988C154.384 53.9181 154.107 58.1453 155.424 61.2637C156.325 63.3427 157.919 64.7979 159.928 65.4216Z" fill="black"/>
<path d="M185.083 83.9922C181.064 83.9922 177.876 80.7351 177.876 76.7851C177.876 72.7658 181.133 69.5781 185.083 69.5781C189.102 69.5781 192.29 72.8351 192.29 76.7851C192.29 80.7351 189.033 83.9922 185.083 83.9922ZM185.083 70.8948C181.826 70.8948 179.262 73.5281 179.262 76.7158C179.262 79.9729 181.895 82.5369 185.083 82.5369C188.34 82.5369 190.904 79.9036 190.904 76.7158C190.904 73.5281 188.271 70.8948 185.083 70.8948Z" fill="black"/>
<path d="M184.182 79.6949C184.113 79.6949 184.043 79.6949 183.974 79.6949C182.796 79.487 181.618 77.5466 181.271 76.9923L182.45 76.2993C183.004 77.2694 183.766 78.1703 184.113 78.3089C184.736 77.9624 186.469 75.6063 187.786 73.5273L188.964 74.2896C185.845 79.2098 184.667 79.6949 184.182 79.6949Z" fill="black"/>
</g>
<defs>
<clipPath id="clip0_1433_9613">
<rect width="185.581" height="158" fill="white" transform="translate(6.70996 21)"/>
</clipPath>
</defs>
</svg>
