<svg width="920" height="688" viewBox="0 0 920 688" fill="none" xmlns="http://www.w3.org/2000/svg">
<rect x="320" width="280" height="92" rx="20" fill="url(#paint0_linear_1798_7067)" fill-opacity="0.25"/>
<path d="M426.145 37.8438V39.8828C426.121 42.5078 426.121 45.4609 425.301 49.8906L422.676 49.6094C423.496 45.4844 423.496 42.4727 423.52 39.9297H410.863V37.8438H426.145ZM428.16 52.2109V54.3438H408.848V52.2109H415.973V44.8516H418.551V52.2109H428.16ZM448.902 46.0938V48.1797H429.59V46.0938H434.09V43.3984C432.496 42.7305 431.582 41.6641 431.582 40.2812C431.582 37.75 434.559 36.25 439.223 36.25C443.887 36.25 446.84 37.75 446.863 40.2812C446.852 41.6758 445.938 42.7422 444.332 43.3984V46.0938H448.902ZM439.223 49.4688C443.793 49.4453 446.535 50.8047 446.559 53.2422C446.535 55.7031 443.793 57.0391 439.223 57.0391C434.605 57.0391 431.84 55.7031 431.84 53.2422C431.84 50.8047 434.605 49.4453 439.223 49.4688ZM439.223 51.4375C436.129 51.4375 434.465 52.0469 434.488 53.2422C434.465 54.4375 436.129 55.0703 439.223 55.0703C442.246 55.0703 443.934 54.4375 443.957 53.2422C443.934 52.0469 442.246 51.4375 439.223 51.4375ZM439.223 38.2656C436.082 38.2656 434.277 38.9688 434.301 40.2812C434.277 41.5703 436.082 42.25 439.223 42.25C442.34 42.25 444.168 41.5703 444.168 40.2812C444.168 38.9688 442.34 38.2656 439.223 38.2656ZM436.715 46.0938H441.73V44.0781C440.969 44.1836 440.125 44.2422 439.223 44.2422C438.32 44.2422 437.477 44.1836 436.715 44.0781V46.0938ZM467.559 45.2031V47.3125H461.301V52.4453H469.691V54.5547H450.332V52.4453H458.676V47.3125H452.559V37.5859H455.23V45.2031H467.559ZM490.41 46.0469V48.1328H471.074V46.0469H479.465V44.0312H473.441V36.8594H488.066V38.8984H476.043V41.9688H488.184V44.0312H482.02V46.0469H490.41ZM480.707 49.3516C485.277 49.3516 488.02 50.7344 488.043 53.2188C488.02 55.6797 485.277 57.0859 480.707 57.0859C476.09 57.0859 473.324 55.6797 473.324 53.2188C473.324 50.7344 476.09 49.3516 480.707 49.3516ZM480.707 51.3438C477.613 51.3438 475.949 52 475.973 53.2188C475.949 54.4375 477.613 55.0703 480.707 55.0703C483.73 55.0703 485.418 54.4375 485.441 53.2188C485.418 52 483.73 51.3438 480.707 51.3438ZM511.152 48.2266V50.2891H502.715V57.0859H500.137V50.2891H491.793V48.2266H511.152ZM496.715 36.7422V39.3438H506.184V36.7422H508.809V46.0234H494.137V36.7422H496.715ZM496.715 43.9141H506.184V41.4062H496.715V43.9141Z" fill="#222222"/>
<path d="M459.314 126.758V127.83H452.863V129.289H457.486V132.664H448.205V134.193H457.961V135.248H446.834V131.68H456.133V130.326H446.799V129.289H451.51V127.83H445.094V126.758H459.314ZM452.863 119.709V121.168H457.873V122.258H452.969C453.224 123.813 455.667 124.798 458.541 124.982L458.119 126.037C455.509 125.817 453.153 125.009 452.195 123.523C451.237 125.009 448.882 125.817 446.254 126.037L445.85 124.982C448.706 124.798 451.149 123.813 451.422 122.258H446.553V121.168H451.51V119.709H452.863ZM465.924 124.596C465.906 127.109 467.717 129.869 469.984 130.941L469.193 132.031C467.436 131.179 465.95 129.315 465.256 127.197C464.535 129.5 462.962 131.521 461.213 132.418L460.369 131.328C462.619 130.238 464.553 127.268 464.57 124.596V122.557H460.932V121.414H469.439V122.557H465.924V124.596ZM472.727 119.797V126.125H475.346V127.303H472.727V135.424H471.355V119.797H472.727Z" fill="#222222"/>
<path opacity="0.2" d="M460 153L450 146L470 146L460 153Z" fill="#F18435"/>
<path opacity="0.4" d="M460 158L450 151L470 151L460 158Z" fill="#F18435"/>
<rect x="320" y="188" width="280" height="92" rx="20" fill="url(#paint1_linear_1798_7067)" fill-opacity="0.25"/>
<path d="M438.578 240.375V242.508H419.219V240.375H427.562V235.758H421.352V225.539H436.352V235.758H430.141V240.375H438.578ZM423.906 227.625V233.719H433.773V227.625H423.906ZM449.266 226.195V228.281H443.219V231.75H448.891V233.789H443.219V237.914C445.832 237.891 447.648 237.797 449.805 237.469L450.016 239.602C447.555 240.023 445.469 240.094 442.164 240.094H440.734V226.195H449.266ZM458.242 223.898V245.086H455.734V234.328H453.555V244.055H451.094V224.273H453.555V232.219H455.734V223.898H458.242ZM478.445 223.898V239.438H475.844V231.82H472.516V229.734H475.844V223.898H478.445ZM472.609 225.656V227.766H470.734V234C471.648 233.93 472.551 233.848 473.406 233.742L473.57 235.617C469.398 236.344 464.594 236.438 461.008 236.438L460.727 234.281L463.117 234.258V227.766H461.266V225.656H472.609ZM478.984 242.555V244.664H464.523V238.102H467.148V242.555H478.984ZM465.648 234.234C466.492 234.211 467.348 234.188 468.203 234.141V227.766H465.648V234.234ZM498.648 233.836V235.922H483.789V225.75H498.484V227.859H486.367V233.836H498.648ZM500.805 240.234V242.391H481.445V240.234H500.805Z" fill="#222222"/>
<path d="M459.314 314.758V315.83H452.863V317.289H457.486V320.664H448.205V322.193H457.961V323.248H446.834V319.68H456.133V318.326H446.799V317.289H451.51V315.83H445.094V314.758H459.314ZM452.863 307.709V309.168H457.873V310.258H452.969C453.224 311.813 455.667 312.798 458.541 312.982L458.119 314.037C455.509 313.817 453.153 313.009 452.195 311.523C451.237 313.009 448.882 313.817 446.254 314.037L445.85 312.982C448.706 312.798 451.149 311.813 451.422 310.258H446.553V309.168H451.51V307.709H452.863ZM465.924 312.596C465.906 315.109 467.717 317.869 469.984 318.941L469.193 320.031C467.436 319.179 465.95 317.315 465.256 315.197C464.535 317.5 462.962 319.521 461.213 320.418L460.369 319.328C462.619 318.238 464.553 315.268 464.57 312.596V310.557H460.932V309.414H469.439V310.557H465.924V312.596ZM472.727 307.797V314.125H475.346V315.303H472.727V323.424H471.355V307.797H472.727Z" fill="#222222"/>
<path opacity="0.2" d="M460 341L450 334L470 334L460 341Z" fill="#F18435"/>
<path opacity="0.4" d="M460 346L450 339L470 339L460 346Z" fill="#F18435"/>
<rect x="320" y="376" width="280" height="124" rx="20" fill="url(#paint2_linear_1798_7067)" fill-opacity="0.25"/>
<path d="M372.086 416.984C372.062 420.758 373.961 424.602 377.242 426.172L375.648 428.258C373.352 427.098 371.699 424.859 370.797 422.164C369.871 425.047 368.137 427.438 365.711 428.656L364.117 426.57C367.516 424.953 369.461 420.898 369.484 416.984V413.609H372.086V416.984ZM381.109 411.898V420.195H384.367V422.422H381.109V433.086H378.508V411.898H381.109ZM402.906 411.898V433.086H400.305V411.898H402.906ZM385.352 427.203C387.039 427.191 388.949 427.191 390.953 427.133V425.188C388.562 424.812 387.016 423.348 387.016 421.344C387.016 418.953 389.125 417.359 392.219 417.359C395.336 417.359 397.492 418.953 397.492 421.344C397.492 423.336 395.934 424.789 393.555 425.164V427.039C395.418 426.957 397.293 426.805 399.062 426.57L399.25 428.516C394.586 429.312 389.547 429.359 385.727 429.359L385.352 427.203ZM398.688 414.336V416.398H385.797V414.336H390.953V411.969H393.555V414.336H398.688ZM392.219 419.352C390.625 419.375 389.477 420.102 389.5 421.344C389.477 422.562 390.625 423.289 392.219 423.266C393.883 423.289 394.984 422.562 394.984 421.344C394.984 420.102 393.883 419.375 392.219 419.352ZM413.781 415.531C413.781 418.109 415.492 420.711 418.773 421.812L417.461 423.828C415.094 423.055 413.418 421.449 412.492 419.469C411.566 421.684 409.797 423.465 407.289 424.297L405.953 422.234C409.328 421.133 411.133 418.32 411.133 415.555V415.273H406.727V413.188H418.164V415.273H413.781V415.531ZM423.742 425.539V433.086H421.141V427.625H409.305V425.539H423.742ZM423.742 411.898V424.531H421.141V419.281H417.531V417.148H421.141V411.898H423.742ZM444.438 411.898V433.086H441.812V411.898H444.438ZM438.109 414.148C438.109 420.453 435.672 425.82 428.242 429.336L426.883 427.25C432.426 424.613 435.004 421.027 435.461 416.211H427.961V414.148H438.109ZM453.367 412.836C456.109 412.812 458.266 414.395 458.805 416.727H462.625V411.898H465.227V423.266H462.625V418.836H458.828C458.301 421.215 456.121 422.82 453.367 422.82C450.109 422.82 447.766 420.734 447.766 417.805C447.766 414.922 450.109 412.812 453.367 412.836ZM453.367 415.016C451.539 415.016 450.25 416.094 450.25 417.805C450.25 419.492 451.539 420.617 453.367 420.617C455.148 420.617 456.414 419.492 456.438 417.805C456.414 416.094 455.148 415.016 453.367 415.016ZM453.836 424.25V426.5H462.625V424.25H465.227V432.828H451.258V424.25H453.836ZM453.836 430.719H462.625V428.516H453.836V430.719ZM493.258 424.531V426.664H484.844V433.086H482.266V426.664H473.898V424.531H493.258ZM491.172 420.711V422.773H476.383V412.812H490.938V414.875H478.961V416.75H490.469V418.766H478.961V420.711H491.172ZM502.258 417.922C502.258 421.203 504.203 424.93 507.555 426.477L506.102 428.539C503.711 427.414 501.941 425.141 500.992 422.492C500.031 425.398 498.18 427.883 495.742 429.055L494.219 427.016C497.594 425.422 499.633 421.438 499.656 417.922V416.141H495.039V413.984H506.688V416.141H502.258V417.922ZM511.258 411.898V420.148H514.516V422.328H511.258V433.086H508.656V411.898H511.258ZM534.766 428.398V430.531H515.406V428.398H523.773V423.523H526.375V428.398H534.766ZM533.102 413.609V415.742H526.422C526.504 418.789 529.645 421.59 533.992 422.234L532.961 424.297C529.375 423.641 526.445 421.754 525.086 419.117C523.715 421.789 520.809 423.746 517.281 424.414L516.25 422.352C520.48 421.637 523.598 418.789 523.68 415.742H517.023V413.609H533.102ZM552.859 411.898V417.125H555.812V419.281H552.859V424.273H550.258V411.898H552.859ZM541.75 425.117V426.945H550.258V425.117H552.859V432.828H539.172V425.117H541.75ZM541.75 430.766H550.258V428.961H541.75V430.766ZM548.734 413.867V415.953H536.172V413.867H541.164V411.734H543.766V413.867H548.734ZM542.453 416.68C545.523 416.68 547.609 418.156 547.633 420.406C547.609 422.656 545.523 424.133 542.453 424.133C539.359 424.133 537.25 422.656 537.25 420.406C537.25 418.156 539.359 416.68 542.453 416.68ZM542.453 418.602C540.836 418.602 539.781 419.281 539.781 420.406C539.781 421.555 540.836 422.211 542.453 422.211C544.07 422.211 545.148 421.555 545.148 420.406C545.148 419.281 544.07 418.602 542.453 418.602Z" fill="#222222"/>
<path d="M432.13 459.148C432.147 455.826 433.044 453.066 434.661 450.729H435.997C434.802 452.469 433.694 456.02 433.694 459.148C433.694 462.277 434.802 465.846 435.997 467.586H434.661C433.044 465.23 432.147 462.471 432.13 459.148ZM442.589 454.596C442.571 457.109 444.382 459.869 446.649 460.941L445.858 462.031C444.101 461.179 442.615 459.315 441.921 457.197C441.2 459.5 439.627 461.521 437.878 462.418L437.034 461.328C439.284 460.238 441.218 457.268 441.235 454.596V452.557H437.597V451.414H446.104V452.557H442.589V454.596ZM449.392 449.797V456.125H452.011V457.303H449.392V465.424H448.021V449.797H449.392ZM465.81 449.797V461.381H464.421V455.369H461.556V454.227H464.421V449.797H465.81ZM461.661 451.203V452.346H460.062V457.408C460.844 457.355 461.608 457.276 462.329 457.18L462.417 458.199C459.306 458.744 455.685 458.797 453.065 458.797L452.89 457.619L454.911 457.602V452.346H453.329V451.203H461.661ZM466.231 463.93V465.09H455.737V460.361H457.126V463.93H466.231ZM456.247 457.584C457.056 457.566 457.882 457.54 458.708 457.496V452.346H456.247V457.584ZM481.032 457.32V458.463H470.239V451.256H480.874V452.398H471.61V457.32H481.032ZM482.72 462.137V463.297H468.411V462.137H482.72ZM487.87 459.148C487.853 462.471 486.956 465.23 485.339 467.586H484.003C485.198 465.846 486.306 462.277 486.306 459.148C486.306 456.02 485.198 452.469 484.003 450.729H485.339C486.956 453.066 487.853 455.826 487.87 459.148Z" fill="#222222"/>
<path d="M459.314 534.758V535.83H452.863V537.289H457.486V540.664H448.205V542.193H457.961V543.248H446.834V539.68H456.133V538.326H446.799V537.289H451.51V535.83H445.094V534.758H459.314ZM452.863 527.709V529.168H457.873V530.258H452.969C453.224 531.813 455.667 532.798 458.541 532.982L458.119 534.037C455.509 533.817 453.153 533.009 452.195 531.523C451.237 533.009 448.882 533.817 446.254 534.037L445.85 532.982C448.706 532.798 451.149 531.813 451.422 530.258H446.553V529.168H451.51V527.709H452.863ZM465.924 532.596C465.906 535.109 467.717 537.869 469.984 538.941L469.193 540.031C467.436 539.179 465.95 537.315 465.256 535.197C464.535 537.5 462.962 539.521 461.213 540.418L460.369 539.328C462.619 538.238 464.553 535.268 464.57 532.596V530.557H460.932V529.414H469.439V530.557H465.924V532.596ZM472.727 527.797V534.125H475.346V535.303H472.727V543.424H471.355V527.797H472.727Z" fill="#222222"/>
<path opacity="0.2" d="M460 561L450 554L470 554L460 561Z" fill="#F18435"/>
<path opacity="0.4" d="M460 566L450 559L470 559L460 566Z" fill="#F18435"/>
<rect x="320" y="596" width="280" height="92" rx="20" fill="url(#paint3_linear_1798_7067)" fill-opacity="0.25"/>
<path d="M367.176 644.531C367.176 640.125 368.488 636.445 370.691 633.305H373.504C371.887 635.625 370.27 640.336 370.27 644.531C370.27 648.727 371.887 653.438 373.504 655.781H370.691C368.488 652.617 367.176 648.961 367.176 644.531ZM393.168 631.898V653.086H390.66V631.898H393.168ZM388.879 632.273V652.055H386.418V645.375H383.652C382.867 647.461 381.461 648.645 379.668 648.633C376.902 648.656 375.098 645.727 375.098 641.062C375.098 636.398 376.902 633.516 379.668 633.516C381.461 633.516 382.855 634.688 383.652 636.75H386.418V632.273H388.879ZM379.668 635.977C378.285 635.953 377.465 637.758 377.488 641.062C377.465 644.367 378.285 646.172 379.668 646.148C381.074 646.172 381.941 644.367 381.941 641.062C381.941 637.758 381.074 635.953 379.668 635.977ZM384.168 638.859C384.273 639.539 384.332 640.277 384.332 641.062C384.332 641.836 384.273 642.562 384.191 643.242H386.418V638.859H384.168ZM413.254 631.898V653.109H410.629V631.898H413.254ZM399.355 633.633V638.93H404.488V633.633H407.066V648.117H396.754V633.633H399.355ZM399.355 645.984H404.488V640.969H399.355V645.984ZM422.676 644.531C422.676 648.961 421.363 652.617 419.16 655.781H416.348C417.965 653.438 419.582 648.727 419.582 644.531C419.582 640.336 417.965 635.625 416.348 633.305H419.16C421.363 636.445 422.676 640.125 422.676 644.531ZM432.918 636.984C432.895 640.758 434.793 644.602 438.074 646.172L436.48 648.258C434.184 647.098 432.531 644.859 431.629 642.164C430.703 645.047 428.969 647.438 426.543 648.656L424.949 646.57C428.348 644.953 430.293 640.898 430.316 636.984V633.609H432.918V636.984ZM441.941 631.898V640.195H445.199V642.422H441.941V653.086H439.34V631.898H441.941ZM463.738 631.898V653.086H461.137V631.898H463.738ZM446.184 647.203C447.871 647.191 449.781 647.191 451.785 647.133V645.188C449.395 644.812 447.848 643.348 447.848 641.344C447.848 638.953 449.957 637.359 453.051 637.359C456.168 637.359 458.324 638.953 458.324 641.344C458.324 643.336 456.766 644.789 454.387 645.164V647.039C456.25 646.957 458.125 646.805 459.895 646.57L460.082 648.516C455.418 649.312 450.379 649.359 446.559 649.359L446.184 647.203ZM459.52 634.336V636.398H446.629V634.336H451.785V631.969H454.387V634.336H459.52ZM453.051 639.352C451.457 639.375 450.309 640.102 450.332 641.344C450.309 642.562 451.457 643.289 453.051 643.266C454.715 643.289 455.816 642.562 455.816 641.344C455.816 640.102 454.715 639.375 453.051 639.352ZM474.613 635.531C474.613 638.109 476.324 640.711 479.605 641.812L478.293 643.828C475.926 643.055 474.25 641.449 473.324 639.469C472.398 641.684 470.629 643.465 468.121 644.297L466.785 642.234C470.16 641.133 471.965 638.32 471.965 635.555V635.273H467.559V633.188H478.996V635.273H474.613V635.531ZM484.574 645.539V653.086H481.973V647.625H470.137V645.539H484.574ZM484.574 631.898V644.531H481.973V639.281H478.363V637.148H481.973V631.898H484.574ZM505.27 631.898V653.086H502.645V631.898H505.27ZM498.941 634.148C498.941 640.453 496.504 645.82 489.074 649.336L487.715 647.25C493.258 644.613 495.836 641.027 496.293 636.211H488.793V634.148H498.941ZM514.199 632.836C516.941 632.812 519.098 634.395 519.637 636.727H523.457V631.898H526.059V643.266H523.457V638.836H519.66C519.133 641.215 516.953 642.82 514.199 642.82C510.941 642.82 508.598 640.734 508.598 637.805C508.598 634.922 510.941 632.812 514.199 632.836ZM514.199 635.016C512.371 635.016 511.082 636.094 511.082 637.805C511.082 639.492 512.371 640.617 514.199 640.617C515.98 640.617 517.246 639.492 517.27 637.805C517.246 636.094 515.98 635.016 514.199 635.016ZM514.668 644.25V646.5H523.457V644.25H526.059V652.828H512.09V644.25H514.668ZM514.668 650.719H523.457V648.516H514.668V650.719ZM554.09 641.719V643.852H534.754V641.719H554.09ZM551.863 637.969V640.055H537.121V632.578H551.746V634.688H539.723V637.969H551.863ZM544.387 645.328C548.957 645.305 551.699 646.711 551.723 649.172C551.699 651.656 548.957 653.062 544.387 653.062C539.77 653.062 537.004 651.656 537.004 649.172C537.004 646.711 539.77 645.305 544.387 645.328ZM544.387 647.32C541.293 647.32 539.629 647.977 539.652 649.172C539.629 650.414 541.293 651.047 544.387 651.047C547.41 651.047 549.098 650.414 549.121 649.172C549.098 647.977 547.41 647.32 544.387 647.32Z" fill="#222222"/>
<rect y="362" width="232" height="148" rx="20" fill="url(#paint4_linear_1798_7067)" fill-opacity="0.1"/>
<path d="M55.4023 399.656V409.734H45.1836V399.656H55.4023ZM47.7617 401.742V407.648H52.8242V401.742H47.7617ZM61.7539 397.922V413.039H59.1289V397.922H61.7539ZM62.3398 416.414V418.523H47.7383V411.609H50.3633V416.414H62.3398ZM81.5586 397.898V403.992H84.5117V406.172H81.5586V413.18H78.9102V397.898H81.5586ZM75.793 399.516C75.793 405.141 72.1367 409.148 65.8555 410.977L64.7773 408.914C69.6172 407.52 72.5 404.883 72.957 401.648H65.668V399.516H75.793ZM82.3555 416.555V418.664H67.9414V411.609H70.5898V416.555H82.3555ZM104.926 410.531V412.664H96.5117V419.086H93.9336V412.664H85.5664V410.531H104.926ZM102.84 406.711V408.773H88.0508V398.812H102.605V400.875H90.6289V402.75H102.137V404.766H90.6289V406.711H102.84ZM113.926 403.922C113.926 407.203 115.871 410.93 119.223 412.477L117.77 414.539C115.379 413.414 113.609 411.141 112.66 408.492C111.699 411.398 109.848 413.883 107.41 415.055L105.887 413.016C109.262 411.422 111.301 407.438 111.324 403.922V402.141H106.707V399.984H118.355V402.141H113.926V403.922ZM122.926 397.898V406.148H126.184V408.328H122.926V419.086H120.324V397.898H122.926ZM146.41 408.375V410.461H138.23V414.352H135.582V410.461H127.051V408.375H146.41ZM144.277 416.531V418.664H129.418V412.383H132.043V416.531H144.277ZM136.707 398.367C141.277 398.367 144.301 400.031 144.301 402.703C144.301 405.375 141.277 407.016 136.707 407.016C132.137 407.016 129.113 405.375 129.113 402.703C129.113 400.031 132.137 398.367 136.707 398.367ZM136.707 400.43C133.801 400.43 131.902 401.25 131.926 402.703C131.902 404.109 133.801 404.93 136.707 404.93C139.637 404.93 141.512 404.109 141.512 402.703C141.512 401.25 139.637 400.43 136.707 400.43ZM167.129 408.094V410.18H147.816V408.094H152.316V405.398C150.723 404.73 149.809 403.664 149.809 402.281C149.809 399.75 152.785 398.25 157.449 398.25C162.113 398.25 165.066 399.75 165.09 402.281C165.078 403.676 164.164 404.742 162.559 405.398V408.094H167.129ZM157.449 411.469C162.02 411.445 164.762 412.805 164.785 415.242C164.762 417.703 162.02 419.039 157.449 419.039C152.832 419.039 150.066 417.703 150.066 415.242C150.066 412.805 152.832 411.445 157.449 411.469ZM157.449 413.438C154.355 413.438 152.691 414.047 152.715 415.242C152.691 416.438 154.355 417.07 157.449 417.07C160.473 417.07 162.16 416.438 162.184 415.242C162.16 414.047 160.473 413.438 157.449 413.438ZM157.449 400.266C154.309 400.266 152.504 400.969 152.527 402.281C152.504 403.57 154.309 404.25 157.449 404.25C160.566 404.25 162.395 403.57 162.395 402.281C162.395 400.969 160.566 400.266 157.449 400.266ZM154.941 408.094H159.957V406.078C159.195 406.184 158.352 406.242 157.449 406.242C156.547 406.242 155.703 406.184 154.941 406.078V408.094ZM176.129 402.984C176.105 406.758 178.004 410.602 181.285 412.172L179.691 414.258C177.395 413.098 175.742 410.859 174.84 408.164C173.914 411.047 172.18 413.438 169.754 414.656L168.16 412.57C171.559 410.953 173.504 406.898 173.527 402.984V399.609H176.129V402.984ZM185.152 397.898V406.195H188.41V408.422H185.152V419.086H182.551V397.898H185.152Z" fill="#222222"/>
<path d="M55.5049 445.148C55.5225 441.826 56.4189 439.066 58.0361 436.729H59.3721C58.1768 438.469 57.0693 442.02 57.0693 445.148C57.0693 448.277 58.1768 451.846 59.3721 453.586H58.0361C56.4189 451.23 55.5225 448.471 55.5049 445.148ZM68.8291 437.168V444.41H61.499V437.168H68.8291ZM62.8525 438.311V443.303H67.4756V438.311H62.8525ZM73.5752 435.814V447.047H72.2041V435.814H73.5752ZM74.0674 449.754V450.896H63.4854V445.957H64.8564V449.754H74.0674ZM88.4463 435.797V440.561H90.8018V441.721H88.4463V447.24H87.0576V435.797H88.4463ZM84.2275 437.01C84.2275 441.035 81.3447 444.023 76.8447 445.43L76.2471 444.322C79.9912 443.153 82.4346 440.921 82.7334 438.17H76.8975V437.01H84.2275ZM89.167 449.93V451.09H78.6553V446.08H80.0264V449.93H89.167ZM106.077 445.271V446.414H99.5732V451.424H98.2197V446.414H91.7686V445.271H106.077ZM104.46 442.529V443.654H93.6846V436.535H104.284V437.66H95.0557V439.488H103.915V440.596H95.0557V442.529H104.46ZM112.634 440.596C112.616 443.109 114.427 445.869 116.694 446.941L115.903 448.031C114.146 447.179 112.66 445.315 111.966 443.197C111.245 445.5 109.672 447.521 107.923 448.418L107.079 447.328C109.329 446.238 111.263 443.268 111.28 440.596V438.557H107.642V437.414H116.149V438.557H112.634V440.596ZM119.437 435.797V442.125H122.056V443.303H119.437V451.424H118.065V435.797H119.437ZM128.19 440.596C128.173 443.109 129.983 445.869 132.251 446.941L131.46 448.031C129.702 447.179 128.217 445.315 127.522 443.197C126.802 445.5 125.229 447.521 123.479 448.418L122.636 447.328C124.886 446.238 126.819 443.268 126.837 440.596V438.557H123.198V437.414H131.706V438.557H128.19V440.596ZM134.993 435.797V442.125H137.612V443.303H134.993V451.424H133.622V435.797H134.993ZM157.265 444.709V445.852H153.485V451.424H152.097V445.852H148.089V451.424H146.665V445.852H142.956V444.709H157.265ZM150.075 436.43C153.362 436.43 155.577 437.748 155.577 439.84C155.577 441.914 153.362 443.232 150.075 443.215C146.788 443.232 144.573 441.914 144.573 439.84C144.573 437.748 146.788 436.43 150.075 436.43ZM150.075 437.555C147.632 437.555 145.979 438.451 145.997 439.84C145.979 441.229 147.632 442.107 150.075 442.107C152.501 442.107 154.171 441.229 154.171 439.84C154.171 438.451 152.501 437.555 150.075 437.555ZM171.415 435.797V451.424H170.026V435.797H171.415ZM164.296 440.895C164.296 443.514 166.124 446.045 168.479 447.047L167.706 448.119C165.904 447.319 164.375 445.623 163.646 443.549C162.942 445.746 161.422 447.548 159.62 448.4L158.847 447.328C161.167 446.273 162.942 443.637 162.942 440.895V439.646H159.269V438.521H162.925V436.096H164.296V438.521H167.935V439.646H164.296V440.895ZM176.653 448.822L175.282 453.604H173.981L174.948 448.822H176.653ZM95.4072 459.797V471.381H94.0186V465.369H91.1533V464.227H94.0186V459.797H95.4072ZM91.2588 461.203V462.346H89.6592V467.408C90.4414 467.355 91.2061 467.276 91.9268 467.18L92.0146 468.199C88.9033 468.744 85.2822 468.797 82.6631 468.797L82.4873 467.619L84.5088 467.602V462.346H82.9268V461.203H91.2588ZM95.8291 473.93V475.09H85.335V470.361H86.7236V473.93H95.8291ZM85.8447 467.584C86.6533 467.566 87.4795 467.54 88.3057 467.496V462.346H85.8447V467.584ZM110.63 467.32V468.463H99.8369V461.256H110.472V462.398H101.208V467.32H110.63ZM112.317 472.137V473.297H98.0088V472.137H112.317ZM127.856 467.742V468.885H121.511V472.084H120.122V468.885H113.548V467.742H127.856ZM126.257 473.912V475.09H115.394V470.52H116.782V473.912H126.257ZM120.685 460.201C124.024 460.219 126.187 461.414 126.187 463.348C126.187 465.281 124.024 466.459 120.685 466.459C117.345 466.459 115.165 465.281 115.165 463.348C115.165 461.414 117.345 460.219 120.685 460.201ZM120.685 461.326C118.259 461.326 116.624 462.1 116.642 463.348C116.624 464.561 118.259 465.334 120.685 465.334C123.11 465.334 124.728 464.561 124.728 463.348C124.728 462.1 123.11 461.326 120.685 461.326ZM143.36 467.531V468.674H129.122V467.531H132.655V465.334C131.407 464.851 130.704 464.051 130.704 462.996C130.704 461.15 132.813 460.096 136.241 460.096C139.634 460.096 141.761 461.15 141.761 462.996C141.761 464.042 141.066 464.842 139.827 465.316V467.531H143.36ZM136.241 469.869C139.599 469.869 141.603 470.836 141.62 472.629C141.603 474.404 139.599 475.389 136.241 475.389C132.849 475.389 130.845 474.404 130.845 472.629C130.845 470.836 132.849 469.869 136.241 469.869ZM136.241 470.924C133.728 470.941 132.233 471.557 132.251 472.629C132.233 473.684 133.728 474.316 136.241 474.316C138.72 474.316 140.231 473.684 140.231 472.629C140.231 471.557 138.72 470.941 136.241 470.924ZM136.241 461.186C133.692 461.186 132.11 461.871 132.128 462.996C132.11 464.139 133.692 464.807 136.241 464.807C138.772 464.807 140.354 464.139 140.354 462.996C140.354 461.871 138.772 461.186 136.241 461.186ZM134.026 467.531H138.456V465.703C137.797 465.817 137.059 465.879 136.241 465.879C135.424 465.879 134.686 465.817 134.026 465.703V467.531ZM148.581 469.148C148.563 472.471 147.667 475.23 146.05 477.586H144.714C145.909 475.846 147.017 472.277 147.017 469.148C147.017 466.02 145.909 462.469 144.714 460.729H146.05C147.667 463.066 148.563 465.826 148.581 469.148Z" fill="#222222"/>
<path opacity="0.2" d="M269 436L262 446L262 426L269 436Z" fill="#F18435"/>
<path opacity="0.4" d="M274 436L267 446L267 426L274 436Z" fill="#F18435"/>
<path opacity="0.2" d="M651 436L658 426L658 446L651 436Z" fill="#F18435"/>
<path opacity="0.4" d="M646 436L653 426L653 446L646 436Z" fill="#F18435"/>
<rect x="688" y="374" width="232" height="124" rx="20" fill="url(#paint5_linear_1798_7067)" fill-opacity="0.1"/>
<path d="M764.145 411.656V421.734H753.926V411.656H764.145ZM756.504 413.742V419.648H761.566V413.742H756.504ZM770.496 409.922V425.039H767.871V409.922H770.496ZM771.082 428.414V430.523H756.48V423.609H759.105V428.414H771.082ZM790.301 409.898V415.992H793.254V418.172H790.301V425.18H787.652V409.898H790.301ZM784.535 411.516C784.535 417.141 780.879 421.148 774.598 422.977L773.52 420.914C778.359 419.52 781.242 416.883 781.699 413.648H774.41V411.516H784.535ZM791.098 428.555V430.664H776.684V423.609H779.332V428.555H791.098ZM813.598 419.062V420.984H805.254V422.531H811.23V427.5H799.184V428.953H811.816V430.898H796.629V425.719H808.676V424.406H796.605V422.531H802.676V420.984H794.379V419.062H813.598ZM805.254 409.852V411.633H811.746V413.578H805.535C806.039 415.078 808.5 416.203 812.73 416.414L811.957 418.359C808.16 418.125 805.301 417.094 803.965 415.383C802.629 417.094 799.781 418.125 795.949 418.359L795.223 416.414C799.406 416.203 801.867 415.078 802.418 413.578H796.23V411.633H802.676V409.852H805.254ZM822.668 415.922C822.668 419.203 824.613 422.93 827.965 424.477L826.512 426.539C824.121 425.414 822.352 423.141 821.402 420.492C820.441 423.398 818.59 425.883 816.152 427.055L814.629 425.016C818.004 423.422 820.043 419.438 820.066 415.922V414.141H815.449V411.984H827.098V414.141H822.668V415.922ZM831.668 409.898V418.148H834.926V420.328H831.668V431.086H829.066V409.898H831.668ZM843.41 415.922C843.41 419.203 845.355 422.93 848.707 424.477L847.254 426.539C844.863 425.414 843.094 423.141 842.145 420.492C841.184 423.398 839.332 425.883 836.895 427.055L835.371 425.016C838.746 423.422 840.785 419.438 840.809 415.922V414.141H836.191V411.984H847.84V414.141H843.41V415.922ZM852.41 409.898V418.148H855.668V420.328H852.41V431.086H849.809V409.898H852.41Z" fill="#222222"/>
<path d="M753.753 457.148C753.771 453.826 754.667 451.066 756.284 448.729H757.62C756.425 450.469 755.317 454.02 755.317 457.148C755.317 460.277 756.425 463.846 757.62 465.586H756.284C754.667 463.23 753.771 460.471 753.753 457.148ZM771.841 447.797V463.424H770.452V447.797H771.841ZM767.218 449.502C767.2 454.002 765.108 457.975 759.87 460.488L759.114 459.363C763.342 457.359 765.495 454.362 765.812 450.627H759.835V449.502H767.218ZM778.784 448.535C780.885 448.518 782.476 449.739 782.774 451.541H786.044V447.797H787.433V456.182H786.044V452.684H782.792C782.511 454.529 780.902 455.76 778.784 455.76C776.411 455.76 774.724 454.283 774.724 452.139C774.724 450.012 776.411 448.518 778.784 448.535ZM778.784 449.713C777.185 449.695 776.042 450.697 776.042 452.139C776.042 453.562 777.185 454.6 778.784 454.6C780.366 454.6 781.491 453.562 781.491 452.139C781.491 450.697 780.366 449.695 778.784 449.713ZM778.749 456.973V458.959H786.044V456.973H787.433V463.213H777.36V456.973H778.749ZM778.749 462.088H786.044V460.066H778.749V462.088ZM792.601 460.822L791.229 465.604H789.929L790.896 460.822H792.601ZM812.587 447.797V463.424H811.251V455.303H809.124V462.633H807.806V448.131H809.124V454.125H811.251V447.797H812.587ZM803.78 452.068C803.78 454.934 804.958 457.447 807.19 458.59L806.364 459.662C804.782 458.801 803.701 457.254 803.147 455.338C802.611 457.518 801.513 459.223 799.86 460.189L798.999 459.135C801.249 457.904 802.444 455.232 802.444 452.068V450.82H799.368V449.66H806.681V450.82H803.78V452.068ZM826.931 447.797V452.455H829.304V453.615H826.931V459.117H825.56V447.797H826.931ZM822.413 449.15V450.311H816.823V455.18C819.961 455.18 821.745 455.101 823.837 454.67L824.013 455.812C821.815 456.234 819.952 456.34 816.665 456.34H815.452V449.15H822.413ZM827.651 461.93V463.09H817.157V457.975H818.511V461.93H827.651ZM849.044 455.232V456.393H834.788V455.232H849.044ZM847.374 452.613V453.738H836.599V448.43H847.269V449.59H837.952V452.613H847.374ZM841.907 457.764C845.265 457.764 847.269 458.783 847.286 460.576C847.269 462.387 845.265 463.389 841.907 463.389C838.532 463.389 836.511 462.387 836.511 460.576C836.511 458.783 838.532 457.764 841.907 457.764ZM841.907 458.836C839.394 458.854 837.899 459.486 837.917 460.576C837.899 461.684 839.394 462.299 841.907 462.299C844.386 462.299 845.897 461.684 845.897 460.576C845.897 459.486 844.386 458.854 841.907 458.836ZM854.247 457.148C854.229 460.471 853.333 463.23 851.716 465.586H850.38C851.575 463.846 852.683 460.277 852.683 457.148C852.683 454.02 851.575 450.469 850.38 448.729H851.716C853.333 451.066 854.229 453.826 854.247 457.148Z" fill="#222222"/>
<defs>
<linearGradient id="paint0_linear_1798_7067" x1="284.364" y1="40.9748" x2="590.421" y2="103.621" gradientUnits="userSpaceOnUse">
<stop stop-color="white"/>
<stop offset="0.0748864" stop-color="#FFE5A3"/>
<stop offset="1" stop-color="#FFBE1C"/>
</linearGradient>
<linearGradient id="paint1_linear_1798_7067" x1="284.364" y1="228.975" x2="590.421" y2="291.621" gradientUnits="userSpaceOnUse">
<stop stop-color="white"/>
<stop offset="0.0748864" stop-color="#FFE5A3"/>
<stop offset="1" stop-color="#FFBE1C"/>
</linearGradient>
<linearGradient id="paint2_linear_1798_7067" x1="284.364" y1="431.227" x2="596.055" y2="478.562" gradientUnits="userSpaceOnUse">
<stop stop-color="white"/>
<stop offset="0.0748864" stop-color="#FFE5A3"/>
<stop offset="1" stop-color="#FFBE1C"/>
</linearGradient>
<linearGradient id="paint3_linear_1798_7067" x1="284.364" y1="636.975" x2="590.421" y2="699.621" gradientUnits="userSpaceOnUse">
<stop stop-color="white"/>
<stop offset="0.0748864" stop-color="#FFE5A3"/>
<stop offset="1" stop-color="#FFBE1C"/>
</linearGradient>
<linearGradient id="paint4_linear_1798_7067" x1="-29.5273" y1="427.916" x2="231.784" y2="455.465" gradientUnits="userSpaceOnUse">
<stop stop-color="white"/>
<stop offset="0.0748864" stop-color="#FFE5A3"/>
<stop offset="1" stop-color="#FFBE1C"/>
</linearGradient>
<linearGradient id="paint5_linear_1798_7067" x1="658.473" y1="429.227" x2="918.57" y2="461.955" gradientUnits="userSpaceOnUse">
<stop stop-color="white"/>
<stop offset="0.0748864" stop-color="#FFE5A3"/>
<stop offset="1" stop-color="#FFBE1C"/>
</linearGradient>
</defs>
</svg>
