<svg width="16" height="16" viewBox="0 0 16 16" fill="none" xmlns="http://www.w3.org/2000/svg">
<path d="M8 0.799805C8 0.799805 3.0512 5.07181 0.2856 7.38541C0.197598 7.46208 0.126696 7.5564 0.0774946 7.66225C0.0282932 7.76809 0.00189089 7.8831 0 7.99981C0 8.21198 0.0842854 8.41546 0.234315 8.56549C0.384344 8.71552 0.587827 8.79981 0.8 8.79981H2.4V14.3998C2.4 14.612 2.48429 14.8155 2.63431 14.9655C2.78434 15.1155 2.98783 15.1998 3.2 15.1998H5.6C5.81217 15.1998 6.01566 15.1155 6.16569 14.9655C6.31571 14.8155 6.4 14.612 6.4 14.3998V11.1998H9.6V14.3998C9.6 14.612 9.68429 14.8155 9.83432 14.9655C9.98434 15.1155 10.1878 15.1998 10.4 15.1998H12.8C13.0122 15.1998 13.2157 15.1155 13.3657 14.9655C13.5157 14.8155 13.6 14.612 13.6 14.3998V8.79981H15.2C15.4122 8.79981 15.6157 8.71552 15.7657 8.56549C15.9157 8.41546 16 8.21198 16 7.99981C15.9989 7.88086 15.9707 7.76373 15.9176 7.65728C15.8645 7.55083 15.7879 7.45786 15.6936 7.38541C12.9472 5.07181 8 0.799805 8 0.799805Z" fill="white"/>
</svg>
