<svg width="20" height="20" viewBox="0 0 20 20" fill="none" xmlns="http://www.w3.org/2000/svg">
<g clip-path="url(#clip0_473_11858)">
<circle cx="10" cy="10" r="10" fill="#F06A35"/>
<path d="M12.6213 15.6593C13.4485 15.5465 14.0966 15.215 14.7047 14.5938C15.1446 14.1443 15.42 13.6579 15.6 13.0123C15.6747 12.7441 15.6809 12.6135 15.6946 11.0388C15.705 9.85031 15.6964 9.29365 15.6654 9.15317C15.6206 8.94944 15.4934 8.76028 15.3483 8.68146C15.3036 8.65716 15.0176 8.62622 14.7127 8.61273C14.2016 8.59002 14.1444 8.58007 13.9831 8.48552C13.7273 8.33552 13.6568 8.1737 13.6561 7.73408C13.6547 6.89415 13.3052 6.11437 12.6146 5.41053C12.1226 4.90918 11.5737 4.56981 10.9473 4.37964C10.7973 4.33406 10.4615 4.31856 9.33674 4.30536C7.57194 4.28444 7.18021 4.32065 6.57934 4.55993C5.47165 5.00113 4.67586 5.93091 4.38552 7.12298C4.331 7.34689 4.3204 7.70567 4.30749 9.76694C4.29141 12.3492 4.30915 12.7284 4.47047 13.2402C4.60389 13.663 4.73838 13.9221 5.01545 14.2898C5.54333 14.9904 6.33444 15.4963 7.1254 15.6392C7.50184 15.7072 12.1457 15.7242 12.6213 15.6594V15.6593Z" fill="white"/>
<path d="M12.4754 11.6183C12.7806 11.9034 12.7162 12.4108 12.3484 12.6193L11.9703 12.6808L9.73909 12.7066C8.23476 12.7206 7.78274 12.691 7.69036 12.6544L7.68748 12.6531C7.50589 12.574 7.33685 12.3544 7.30765 12.1595C7.27981 11.974 7.37313 11.7189 7.51606 11.5894L7.54786 11.5618C7.68878 11.446 7.85089 11.4252 9.18019 11.4206L10.7175 11.419C12.2715 11.4201 12.2851 11.4407 12.4754 11.6183ZM10.285 7.41029C10.522 7.53 10.625 7.69875 10.625 7.96753C10.625 8.20089 10.5355 8.36704 10.3369 8.50103L10.2984 8.52563C10.2018 8.58332 10.107 8.59334 9.35796 8.59918L8.87457 8.60192C8.27536 8.60315 7.81411 8.5906 7.74041 8.57027C7.31753 8.45373 7.15952 7.84702 7.47034 7.53325L7.49926 7.50455C7.66563 7.34337 7.77149 7.32671 8.74627 7.3252L9.48084 7.32577C10.1016 7.32866 10.1512 7.34272 10.285 7.41029Z" fill="#F06A35"/>
</g>
<defs>
<clipPath id="clip0_473_11858">
<rect width="20" height="20" fill="white"/>
</clipPath>
</defs>
</svg>
