<svg width="20" height="20" viewBox="0 0 20 20" fill="none" xmlns="http://www.w3.org/2000/svg">
<g clip-path="url(#clip0_473_11869)">
<circle cx="10" cy="10" r="10" fill="url(#paint0_linear_473_11869)"/>
<circle cx="10" cy="10" r="10" fill="url(#paint1_radial_473_11869)"/>
<path d="M10.2106 4C8.52405 4 8.31235 4.00739 7.64999 4.03751C6.98887 4.06781 6.53759 4.17245 6.14276 4.32602C5.73427 4.48463 5.38781 4.69682 5.04266 5.0421C4.6972 5.38731 4.485 5.73377 4.3259 6.14208C4.17189 6.53703 4.06713 6.9885 4.03738 7.64931C4.00776 8.31173 4 8.52349 4 10.2101C4 11.8966 4.00745 12.1077 4.03751 12.77C4.06794 13.4311 4.17258 13.8824 4.32603 14.2772C4.48475 14.6857 4.69695 15.0322 5.04222 15.3773C5.38731 15.7228 5.73377 15.9355 6.14195 16.0941C6.5371 16.2477 6.98844 16.3523 7.64943 16.3826C8.31185 16.4127 8.52336 16.4201 10.2098 16.4201C11.8965 16.4201 12.1075 16.4127 12.7699 16.3826C13.431 16.3523 13.8828 16.2477 14.2779 16.0941C14.6862 15.9355 15.0322 15.7228 15.3772 15.3773C15.7227 15.0322 15.9348 14.6857 16.094 14.2774C16.2466 13.8824 16.3514 13.431 16.3825 12.7701C16.4122 12.1078 16.42 11.8966 16.42 10.2101C16.42 8.52349 16.4122 8.31185 16.3825 7.64943C16.3514 6.98831 16.2466 6.5371 16.094 6.14226C15.9348 5.73377 15.7227 5.38731 15.3772 5.0421C15.0318 4.6967 14.6864 4.4845 14.2776 4.32609C13.8817 4.17245 13.4301 4.06775 12.769 4.03751C12.1066 4.00739 11.8957 4 10.2086 4H10.2106ZM9.65346 5.1191C9.81883 5.11886 10.0033 5.1191 10.2106 5.1191C11.8687 5.1191 12.0652 5.12507 12.72 5.15481C13.3254 5.18251 13.6541 5.28367 13.873 5.36868C14.1628 5.48121 14.3694 5.61578 14.5866 5.83319C14.804 6.05054 14.9385 6.25752 15.0513 6.54734C15.1363 6.76593 15.2376 7.09457 15.2652 7.70004C15.2949 8.3547 15.3014 8.55131 15.3014 10.2086C15.3014 11.866 15.2949 12.0626 15.2652 12.7172C15.2375 13.3227 15.1363 13.6513 15.0513 13.87C14.9388 14.1598 14.804 14.3662 14.5866 14.5834C14.3693 14.8007 14.1629 14.9353 13.873 15.0478C13.6543 15.1332 13.3254 15.2341 12.72 15.2618C12.0653 15.2916 11.8687 15.298 10.2106 15.298C8.55237 15.298 8.35582 15.2916 7.70122 15.2618C7.09575 15.2339 6.76711 15.1327 6.54803 15.0477C6.25827 14.9351 6.05123 14.8006 5.83388 14.5833C5.61653 14.3659 5.48202 14.1594 5.36918 13.8695C5.28417 13.6508 5.18288 13.3222 5.15531 12.7167C5.12556 12.0621 5.1196 11.8655 5.1196 10.2071C5.1196 8.54876 5.12556 8.35315 5.15531 7.69849C5.18301 7.09301 5.28417 6.76438 5.36918 6.54548C5.48177 6.25566 5.61653 6.04868 5.83394 5.83133C6.05129 5.61398 6.25827 5.47941 6.54809 5.36663C6.76699 5.28125 7.09575 5.18033 7.70122 5.15251C8.27409 5.12662 8.4961 5.11886 9.65346 5.11755V5.1191ZM13.5255 6.15021C13.114 6.15021 12.7803 6.48369 12.7803 6.89516C12.7803 7.30658 13.114 7.64036 13.5255 7.64036C13.9369 7.64036 14.2707 7.30658 14.2707 6.89516C14.2707 6.48375 13.9369 6.14996 13.5255 6.14996V6.15021ZM10.2106 7.02092C8.4494 7.02092 7.02148 8.44884 7.02148 10.2101C7.02148 11.9713 8.4494 13.3985 10.2106 13.3985C11.9718 13.3985 13.3992 11.9713 13.3992 10.2101C13.3992 8.44891 11.9717 7.02092 10.2104 7.02092H10.2106ZM10.2106 8.14002C11.3538 8.14002 12.2806 9.06674 12.2806 10.2101C12.2806 11.3533 11.3538 12.2801 10.2106 12.2801C9.0673 12.2801 8.14058 11.3533 8.14058 10.2101C8.14058 9.06674 9.0673 8.14002 10.2106 8.14002Z" fill="white"/>
</g>
<defs>
<linearGradient id="paint0_linear_473_11869" x1="2.5" y1="3.5" x2="13.5" y2="19" gradientUnits="userSpaceOnUse">
<stop offset="0.0375" stop-color="#4366CA"/>
<stop offset="0.27678" stop-color="#9136C6"/>
<stop offset="0.634948" stop-color="#F44E53"/>
<stop offset="1" stop-color="#DF4063"/>
</linearGradient>
<radialGradient id="paint1_radial_473_11869" cx="0" cy="0" r="1" gradientUnits="userSpaceOnUse" gradientTransform="translate(7.5 19.5) rotate(-62.1759) scale(20.3531)">
<stop offset="0.09375" stop-color="#FFC553"/>
<stop offset="0.505208" stop-color="#E8486B" stop-opacity="0"/>
</radialGradient>
<clipPath id="clip0_473_11869">
<rect width="20" height="20" fill="white"/>
</clipPath>
</defs>
</svg>
