<svg width="80" height="80" viewBox="0 0 80 80" fill="none" xmlns="http://www.w3.org/2000/svg">
<path d="M53.3472 26.912V32.0001M53.3472 26.912C53.3472 24.4992 55.376 22.544 57.8752 22.544C60.3712 22.544 62.4 24.4992 62.4 26.9088V32.0001M53.3472 26.912V18.1792C53.3472 15.7696 51.3216 13.8144 48.8223 13.8144C46.3231 13.8144 44.2943 15.7664 44.2943 18.1792M44.2943 18.1792V32.0001M44.2943 18.1792V12.3648C44.2943 9.95201 42.2719 8 39.7695 8C37.2671 8 35.2447 9.95201 35.2447 12.3648V21.088M35.2447 21.088C35.2447 18.6784 33.2159 16.7232 30.7167 16.7232C28.2207 16.7232 26.1919 18.6752 26.1919 21.088V42.0385C26.1919 43.3697 24.4863 44.0001 23.5583 43.0145L16.2303 35.2097C15.6073 34.4877 14.7723 33.9808 13.8443 33.7613C12.9163 33.5418 11.9427 33.6209 11.0623 33.9873C7.83664 35.3217 7.07824 40.0289 9.17425 42.7425C12.7647 47.3889 16.4383 53.7281 19.4079 59.3185C23.4399 66.9121 31.3919 72.0002 40.2303 72.0002M35.2447 21.088V32.0001M43.1999 51.0529V52.2881C43.1999 56.1345 43.1999 58.0577 43.6735 59.8177C44.2653 62.0007 45.3788 64.0072 46.9183 65.6641C48.1663 67.0145 49.8176 68.0641 53.1168 70.1665C54.592 71.1074 55.3312 71.5778 56.1184 71.7986C57.088 72.0674 58.1152 72.0674 59.0848 71.7986C59.8688 71.5778 60.608 71.1074 62.0832 70.1665C65.3824 68.0641 67.0336 67.0145 68.2816 65.6641C69.8211 64.0072 70.9347 62.0007 71.5264 59.8177C72 58.0577 72 56.1377 72 52.2881V51.0529C72 48.6593 72 47.4625 71.5456 46.4513C71.2605 45.8271 70.8598 45.2625 70.3648 44.7873C69.5552 44.0193 68.4064 43.5969 66.1088 42.7553L61.392 41.0273C59.5168 40.3425 58.5792 40.0001 57.6 40.0001C56.6208 40.0001 55.6832 40.3425 53.808 41.0305L49.0911 42.7585C46.7935 43.5969 45.6447 44.0161 44.8351 44.7873C44.339 45.2622 43.9372 45.8269 43.6511 46.4513C43.1999 47.4625 43.1999 48.6593 43.1999 51.0529Z" stroke="#9AC3FF" stroke-width="4.80001" stroke-linecap="round" stroke-linejoin="round"/>
<path d="M57.8547 47.1346C57.6262 47.0479 57.3738 47.0479 57.1453 47.1346L51.1453 49.4109C50.7569 49.5583 50.5 49.9304 50.5 50.3459V55.0814C50.5002 56.3965 50.8624 57.6855 51.5459 58.8041C52.2294 59.9227 53.2073 60.8266 54.37 61.4147L57.0484 62.7713C57.3323 62.9151 57.6677 62.9152 57.9517 62.7715L60.63 61.4167C61.793 60.8285 62.7711 59.9243 63.4546 58.8053C64.1382 57.6863 64.5001 56.3969 64.5 55.0814V50.3459C64.5 49.9304 64.2431 49.5583 63.8547 49.4109L57.8547 47.1346ZM57.5 50.978C57.9269 50.9778 58.3426 51.1158 58.6864 51.3718C59.0302 51.6278 59.284 51.9884 59.4107 52.4008C59.5374 52.8132 59.5304 53.2557 59.3906 53.6638C59.2509 54.0719 58.9857 54.424 58.634 54.6687C58.5505 54.7223 58.5 54.8147 58.5 54.9139V58.0599C58.4997 58.3177 58.4021 58.5658 58.2272 58.7533C58.0522 58.9408 57.813 59.0536 57.5586 59.0687C57.3042 59.0838 57.0536 59.0001 56.8582 58.8346C56.6627 58.6691 56.5371 58.4343 56.507 58.1782L56.5 58.0599V55.3293C56.5 54.9735 56.2958 54.6573 56.0516 54.3985C55.8824 54.2191 55.7461 54.0087 55.651 53.7767C55.4822 53.3649 55.4525 52.9084 55.5665 52.4778C55.6805 52.0473 55.9318 51.6669 56.2814 51.3957C56.6311 51.1244 57.0594 50.9776 57.5 50.978Z" fill="#9AC3FF"/>
</svg>
