<svg width="80" height="80" viewBox="0 0 80 80" fill="none" xmlns="http://www.w3.org/2000/svg">
<g clip-path="url(#clip0_1035_5713)">
<circle cx="40" cy="40" r="40" fill="white"/>
<path d="M54.4177 30.759L55.498 29.6763C56.3582 28.8158 57.525 28.3323 58.7417 28.332C59.9584 28.3318 61.1253 28.8149 61.9858 29.6751C62.8463 30.5353 63.3299 31.7021 63.3301 32.9188C63.3303 34.1355 62.8472 35.3025 61.987 36.163L60.9067 37.2456M54.4177 30.759C54.4177 30.759 54.553 33.055 56.5807 35.0826C58.6083 37.1103 60.9067 37.2456 60.9067 37.2456M54.4177 30.759L44.4777 40.699C43.801 41.371 43.465 41.7093 43.1757 42.0803C42.8334 42.519 42.5425 42.9903 42.303 43.4943C42.1 43.919 41.9507 44.3693 41.6497 45.2723L40.686 48.1656L40.3733 49.1013M60.9067 37.2456L50.9667 47.1856C50.29 47.8623 49.954 48.1983 49.583 48.4876C49.1443 48.8298 48.673 49.1207 48.169 49.3603C47.7443 49.5633 47.294 49.7126 46.391 50.0136L43.4977 50.9773L42.562 51.29M40.3733 49.1013L40.063 50.0393C39.9907 50.257 39.9804 50.4906 40.0333 50.7138C40.0861 50.937 40.2 51.1412 40.3622 51.3034C40.5244 51.4656 40.7286 51.5795 40.9518 51.6324C41.1751 51.6852 41.4086 51.6749 41.6263 51.6026L42.562 51.29M40.3733 49.1013L42.562 51.29" stroke="#246BEB" stroke-width="3.5"/>
<path d="M30.6667 42.3346H36.5M30.6667 33.0013H45.8333M30.6667 51.668H34.1667M58.2653 19.4026C55.533 16.668 51.1323 16.668 42.3333 16.668H37.6667C28.8677 16.668 24.467 16.668 21.7347 19.4026C19.0023 22.1373 19 26.5356 19 35.3346V44.668C19 53.467 19 57.8676 21.7347 60.6C24.4693 63.3323 28.8677 63.3346 37.6667 63.3346H42.3333C51.1323 63.3346 55.533 63.3346 58.2653 60.6C60.468 58.3996 60.895 55.1213 60.979 49.3346" stroke="#246BEB" stroke-width="3.5" stroke-linecap="round"/>
</g>
<defs>
<clipPath id="clip0_1035_5713">
<rect width="80" height="80" fill="white"/>
</clipPath>
</defs>
</svg>
