<svg width="46" height="46" viewBox="0 0 46 46" fill="none" xmlns="http://www.w3.org/2000/svg">
<mask id="path-1-inside-1_30_51008" fill="white">
<path fill-rule="evenodd" clip-rule="evenodd" d="M11.8892 21.5664L15.1111 18.3445L15.1113 18.3447L21.5552 11.9008L21.555 11.9006L23.166 10.2896L36.5147 23.6384C37.0321 24.1558 37.1323 24.9324 36.8152 25.5502L38.1147 26.8497L30.0599 34.9045L28.596 33.4406C26.598 34.3073 24.22 33.8972 22.6251 32.3023L11.8892 21.5664Z"/>
</mask>
<path fill-rule="evenodd" clip-rule="evenodd" d="M11.8892 21.5664L15.1111 18.3445L15.1113 18.3447L21.5552 11.9008L21.555 11.9006L23.166 10.2896L36.5147 23.6384C37.0321 24.1558 37.1323 24.9324 36.8152 25.5502L38.1147 26.8497L30.0599 34.9045L28.596 33.4406C26.598 34.3073 24.22 33.8972 22.6251 32.3023L11.8892 21.5664Z" fill="white"/>
<path d="M15.1111 18.3445L15.9823 17.4732L15.1111 16.602L14.2398 17.4732L15.1111 18.3445ZM11.8892 21.5664L11.0179 20.6951L10.1466 21.5664L11.0179 22.4377L11.8892 21.5664ZM15.1113 18.3447L14.24 19.2159L15.1113 20.0872L15.9825 19.2159L15.1113 18.3447ZM21.5552 11.9008L22.4264 12.772L23.2977 11.9008L22.4264 11.0295L21.5552 11.9008ZM21.555 11.9006L20.6838 11.0293L19.8125 11.9006L20.6838 12.7719L21.555 11.9006ZM23.166 10.2896L24.0372 9.41839L23.166 8.54713L22.2947 9.41838L23.166 10.2896ZM36.8152 25.5502L35.719 24.9875L35.3089 25.7864L35.9439 26.4214L36.8152 25.5502ZM38.1147 26.8497L38.9859 27.7209L39.8572 26.8497L38.9859 25.9784L38.1147 26.8497ZM30.0599 34.9045L29.1886 35.7757L30.0599 36.647L30.9311 35.7757L30.0599 34.9045ZM28.596 33.4406L29.4672 32.5693L28.8746 31.9766L28.1056 32.3102L28.596 33.4406ZM14.2398 17.4732L11.0179 20.6951L12.7604 22.4377L15.9823 19.2157L14.2398 17.4732ZM15.9825 17.4734L15.9823 17.4732L14.2398 19.2157L14.24 19.2159L15.9825 17.4734ZM20.6839 11.0295L14.24 17.4734L15.9825 19.2159L22.4264 12.772L20.6839 11.0295ZM20.6838 12.7719L20.6839 12.772L22.4264 11.0295L22.4263 11.0293L20.6838 12.7719ZM22.2947 9.41838L20.6838 11.0293L22.4263 12.7719L24.0372 11.1609L22.2947 9.41838ZM37.386 22.7671L24.0372 9.41839L22.2947 11.1609L35.6435 24.5097L37.386 22.7671ZM37.9114 26.1128C38.4657 25.0329 38.2927 23.6739 37.386 22.7671L35.6435 24.5097C35.7715 24.6377 35.7989 24.8319 35.719 24.9875L37.9114 26.1128ZM38.9859 25.9784L37.6864 24.6789L35.9439 26.4214L37.2434 27.7209L38.9859 25.9784ZM30.9311 35.7757L38.9859 27.7209L37.2434 25.9784L29.1886 34.0332L30.9311 35.7757ZM27.7247 34.3118L29.1886 35.7757L30.9311 34.0332L29.4672 32.5693L27.7247 34.3118ZM21.7538 33.1736C23.7129 35.1327 26.6329 35.6352 29.0863 34.5709L28.1056 32.3102C26.5631 32.9793 24.727 32.6617 23.4963 31.4311L21.7538 33.1736ZM11.0179 22.4377L21.7538 33.1736L23.4963 31.4311L12.7604 20.6951L11.0179 22.4377Z" fill="#1D8163" mask="url(#path-1-inside-1_30_51008)"/>
<rect x="28.3669" y="35.8086" width="14.3518" height="6.9762" rx="1.02679" transform="rotate(-45 28.3669 35.8086)" fill="#E7F7F2" stroke="#1D8163" stroke-width="1.23214"/>
<mask id="path-4-inside-2_30_51008" fill="white">
<path fill-rule="evenodd" clip-rule="evenodd" d="M35.0908 10.8813C34.617 10.4076 33.9985 10.167 33.3776 10.1597C33.3241 9.61153 33.0874 9.07789 32.6676 8.65805C31.7052 7.69569 30.1449 7.69569 29.1826 8.65805L29.0837 8.7569C28.9662 8.511 28.8057 8.28055 28.602 8.07687C27.6396 7.11451 26.0793 7.11451 25.117 8.07687L24.5364 8.65746L22.7936 10.4002L7.11125 26.0826L15.8238 34.7952L17.7423 32.8767C19.5946 33.1582 21.5329 32.5712 22.93 31.1741L35.5721 18.532C36.5344 17.5696 36.5344 16.0093 35.5721 15.047C35.3683 14.8433 35.1378 14.6827 34.8919 14.5652L35.0908 14.3663C36.0531 13.4039 36.0531 11.8436 35.0908 10.8813Z"/>
</mask>
<path fill-rule="evenodd" clip-rule="evenodd" d="M35.0908 10.8813C34.617 10.4076 33.9985 10.167 33.3776 10.1597C33.3241 9.61153 33.0874 9.07789 32.6676 8.65805C31.7052 7.69569 30.1449 7.69569 29.1826 8.65805L29.0837 8.7569C28.9662 8.511 28.8057 8.28055 28.602 8.07687C27.6396 7.11451 26.0793 7.11451 25.117 8.07687L24.5364 8.65746L22.7936 10.4002L7.11125 26.0826L15.8238 34.7952L17.7423 32.8767C19.5946 33.1582 21.5329 32.5712 22.93 31.1741L35.5721 18.532C36.5344 17.5696 36.5344 16.0093 35.5721 15.047C35.3683 14.8433 35.1378 14.6827 34.8919 14.5652L35.0908 14.3663C36.0531 13.4039 36.0531 11.8436 35.0908 10.8813Z" fill="white"/>
<path d="M33.3776 10.1597L32.1513 10.2794L32.2586 11.3787L33.363 11.3917L33.3776 10.1597ZM29.0837 8.7569L27.9719 9.28799L28.7229 10.8602L29.955 9.62816L29.0837 8.7569ZM7.11125 26.0826L6.24 25.2113L5.36874 26.0826L6.24 26.9539L7.11125 26.0826ZM15.8238 34.7952L14.9526 35.6664L15.8238 36.5377L16.6951 35.6664L15.8238 34.7952ZM17.7423 32.8767L17.9275 31.6585L17.3116 31.5649L16.8711 32.0054L17.7423 32.8767ZM34.8919 14.5652L34.0206 13.6939L32.7885 14.9261L34.3609 15.677L34.8919 14.5652ZM33.363 11.3917C33.6752 11.3954 33.9823 11.5154 34.2195 11.7525L35.962 10.01C35.2518 9.29977 34.3217 8.93864 33.3922 8.92763L33.363 11.3917ZM31.7963 9.52931C32.007 9.74001 32.1245 10.0049 32.1513 10.2794L34.6039 10.0399C34.5237 9.2182 34.1678 8.41577 33.5388 7.78679L31.7963 9.52931ZM30.0538 9.52931C30.535 9.04812 31.3151 9.04812 31.7963 9.52931L33.5388 7.78679C32.0953 6.34325 29.7548 6.34325 28.3113 7.78679L30.0538 9.52931ZM29.955 9.62816L30.0538 9.52931L28.3113 7.78679L28.2124 7.88564L29.955 9.62816ZM27.7307 8.94813C27.8341 9.05152 27.9139 9.16656 27.9719 9.28799L30.1955 8.22581C30.0186 7.85544 29.7772 7.50957 29.4733 7.20562L27.7307 8.94813ZM25.9882 8.94813C26.4694 8.46695 27.2496 8.46695 27.7307 8.94813L29.4733 7.20562C28.0297 5.76207 25.6893 5.76207 24.2457 7.20562L25.9882 8.94813ZM25.4076 9.52872L25.9882 8.94813L24.2457 7.20562L23.6651 7.78621L25.4076 9.52872ZM23.6649 11.2715L25.4076 9.52872L23.6651 7.78621L21.9224 9.52897L23.6649 11.2715ZM7.98251 26.9539L23.6649 11.2715L21.9224 9.52897L6.24 25.2113L7.98251 26.9539ZM16.6951 33.9239L7.98251 25.2113L6.24 26.9539L14.9526 35.6664L16.6951 33.9239ZM16.8711 32.0054L14.9526 33.9239L16.6951 35.6664L18.6136 33.7479L16.8711 32.0054ZM22.0587 30.3028C20.9469 31.4147 19.4042 31.883 17.9275 31.6585L17.5572 34.0948C19.785 34.4334 22.1189 33.7277 23.8013 32.0453L22.0587 30.3028ZM34.7008 17.6608L22.0587 30.3028L23.8013 32.0453L36.4433 19.4033L34.7008 17.6608ZM34.7008 15.9182C35.182 16.3994 35.182 17.1796 34.7008 17.6608L36.4433 19.4033C37.8869 17.9597 37.8869 15.6193 36.4433 14.1757L34.7008 15.9182ZM34.3609 15.677C34.4823 15.7351 34.5974 15.8148 34.7008 15.9182L36.4433 14.1757C36.1393 13.8717 35.7933 13.6303 35.4229 13.4534L34.3609 15.677ZM34.2195 13.4951L34.0206 13.6939L35.7631 15.4365L35.962 15.2376L34.2195 13.4951ZM34.2195 11.7525C34.7007 12.2337 34.7007 13.0139 34.2195 13.4951L35.962 15.2376C37.4056 13.794 37.4056 11.4536 35.962 10.01L34.2195 11.7525Z" fill="#1D8163" mask="url(#path-4-inside-2_30_51008)"/>
<path d="M25.6977 13.3045L28.0211 10.9811C28.6626 10.3395 28.6626 9.29934 28.0211 8.65777V8.65777C27.3795 8.01619 26.3393 8.01619 25.6977 8.65777L23.3743 10.9811" stroke="#1D8163" stroke-width="1.23214" stroke-linecap="round"/>
<path d="M32.8422 20.4475L35.0784 18.2112C35.7681 17.5216 35.7681 16.4033 35.0784 15.7136V15.7136C34.3887 15.024 33.2705 15.024 32.5808 15.7136L30.3446 17.9499" stroke="#1D8163" stroke-width="1.23214" stroke-linecap="round"/>
<path d="M28.0211 15.629L32.087 11.5632C32.7285 10.9216 32.7285 9.88138 32.087 9.2398V9.2398C31.4454 8.59823 30.4052 8.59823 29.7636 9.2398L25.6978 13.3057" stroke="#1D8163" stroke-width="1.23214" stroke-linecap="round"/>
<path d="M30.3448 17.9532L34.4107 13.8874C35.0523 13.2458 35.0523 12.2056 34.4107 11.564V11.564C33.7691 10.9224 32.7289 10.9224 32.0873 11.564L28.0215 15.6299" stroke="#1D8163" stroke-width="1.23214" stroke-linecap="round"/>
<rect x="6.9751" y="24.8713" width="14.3518" height="7.15923" rx="1.02679" transform="rotate(45 6.9751 24.8713)" fill="#E7F7F2" stroke="#1D8163" stroke-width="1.23214"/>
<rect x="17.6177" y="6.4139" width="9.62352" height="6.02721" rx="3.01361" transform="rotate(45 17.6177 6.4139)" fill="white" stroke="#FBFBFB" stroke-width="1.23214"/>
<rect x="13.8032" y="7.68343" width="13.2198" height="6.02721" rx="3.01361" transform="rotate(45 13.8032 7.68343)" fill="white" stroke="#FBFBFB" stroke-width="1.23214"/>
<rect x="11.2603" y="10.2264" width="13.2198" height="6.02721" rx="3.01361" transform="rotate(45 11.2603 10.2264)" fill="white" stroke="#FBFBFB" stroke-width="1.23214"/>
<rect x="9.56494" y="13.617" width="10.8223" height="6.02721" rx="3.01361" transform="rotate(45 9.56494 13.617)" fill="white" stroke="#FBFBFB" stroke-width="1.23214"/>
<path d="M18.3237 9.03701C19.5165 8.16538 21.1665 8.29295 22.2111 9.33755L22.7036 9.83008L21.933 10.6007L21.1624 11.3713L18.4263 12.6392C17.8557 12.9036 17.1808 12.7838 16.7361 12.3391C16.0858 11.6888 16.169 10.6116 16.9116 10.0689L18.3237 9.03701Z" fill="white"/>
<path d="M22.7036 9.83008L22.2111 9.33755C21.1665 8.29295 19.5165 8.16538 18.3237 9.03701L16.9116 10.0689C16.169 10.6116 16.0858 11.6888 16.7361 12.3391V12.3391C17.1808 12.7838 17.8557 12.9036 18.4263 12.6392L21.1624 11.3713L21.4321 11.1016" stroke="#1D8163" stroke-width="1.23214"/>
<rect x="17.6177" y="8.15641" width="7.15923" height="3.56293" rx="1.78146" transform="rotate(45 17.6177 8.15641)" fill="white" stroke="#1D8163" stroke-width="1.23214"/>
<rect x="13.8032" y="9.42594" width="10.7555" height="3.56293" rx="1.78146" transform="rotate(45 13.8032 9.42594)" fill="white" stroke="#1D8163" stroke-width="1.23214"/>
<rect x="11.2603" y="11.9689" width="10.7555" height="3.56293" rx="1.78146" transform="rotate(45 11.2603 11.9689)" fill="white" stroke="#1D8163" stroke-width="1.23214"/>
<rect x="9.56494" y="15.3595" width="8.358" height="3.56293" rx="1.78146" transform="rotate(45 9.56494 15.3595)" fill="white" stroke="#1D8163" stroke-width="1.23214"/>
<path d="M18.3237 9.03701C19.5165 8.16538 21.1665 8.29295 22.2111 9.33755L22.7036 9.83008L21.933 10.6007L21.1624 11.3713L18.4263 12.6392C17.8557 12.9036 17.1808 12.7838 16.7361 12.3391C16.0858 11.6888 16.169 10.6116 16.9116 10.0689L18.3237 9.03701Z" fill="white"/>
<path d="M22.7036 9.83008L22.2111 9.33755C21.1665 8.29295 19.5165 8.16538 18.3237 9.03701L16.9116 10.0689C16.169 10.6116 16.0858 11.6888 16.7361 12.3391V12.3391C17.1808 12.7838 17.8557 12.9036 18.4263 12.6392L21.1624 11.3713L21.4321 11.1016" stroke="#1D8163" stroke-width="1.23214"/>
<rect x="34.4102" y="19.6953" width="1.64286" height="18.8929" transform="rotate(45 34.4102 19.6953)" fill="#FBFBFB"/>
</svg>
