<svg width="48" height="54" viewBox="0 0 48 54" fill="none" xmlns="http://www.w3.org/2000/svg">
<circle cx="24.2835" cy="29.5011" r="11.8917" fill="#E7F7F2" stroke="#1D8163" stroke-width="1.5" stroke-linecap="round" stroke-linejoin="round"/>
<path d="M25.1426 23.2734H18.8472C18.7222 23.2734 18.6208 23.4146 18.6208 23.5886V35.4162C18.6208 35.5903 18.7222 35.7314 18.8472 35.7314H21.9949H25.1426C25.2676 35.7314 25.3689 35.5903 25.3689 35.4162V23.5886C25.3689 23.4146 25.2676 23.2734 25.1426 23.2734Z" fill="white"/>
<path d="M25.3689 35.4162V23.5886C25.3689 23.4146 25.2676 23.2734 25.1426 23.2734H18.8472C18.7222 23.2734 18.6208 23.4146 18.6208 23.5886V35.4162" stroke="#1D8163" stroke-width="1.5" stroke-linecap="round" stroke-linejoin="round"/>
<rect x="20.178" y="24.8281" width="1.55724" height="1.55724" rx="0.5" fill="#1D8163"/>
<rect x="20.178" y="27.4258" width="1.55724" height="1.55724" rx="0.5" fill="#1D8163"/>
<rect x="20.178" y="30.0156" width="1.55724" height="1.55724" rx="0.5" fill="#1D8163"/>
<rect x="20.178" y="32.6133" width="1.55724" height="1.55724" rx="0.5" fill="#1D8163"/>
<rect x="22.2542" y="24.8281" width="1.55724" height="1.55724" rx="0.5" fill="#1D8163"/>
<rect x="22.2542" y="30.0156" width="1.55724" height="1.55724" rx="0.5" fill="#1D8163"/>
<rect x="22.2542" y="27.4258" width="1.55724" height="1.55724" rx="0.5" fill="#1D8163"/>
<rect x="22.2542" y="32.6133" width="1.55724" height="1.55724" rx="0.5" fill="#1D8163"/>
<path d="M30.887 28.9844H25.5602C25.4544 28.9844 25.3687 29.0608 25.3687 29.1551V35.5617C25.3687 35.656 25.4544 35.7324 25.5602 35.7324H30.887C30.9928 35.7324 31.0785 35.656 31.0785 35.5617V29.1551C31.0785 29.0608 30.9928 28.9844 30.887 28.9844Z" fill="white"/>
<path d="M31.0785 35.5617V29.1551C31.0785 29.0608 30.9928 28.9844 30.887 28.9844H25.5602C25.4544 28.9844 25.3687 29.0608 25.3687 29.1551V35.5617" stroke="#1D8163" stroke-width="1.5" stroke-linecap="round" stroke-linejoin="round"/>
<rect x="26.4067" y="32.6172" width="1.55724" height="1.55724" rx="0.5" fill="#1D8163"/>
<rect x="26.4067" y="30.5391" width="1.55724" height="1.55724" rx="0.5" fill="#1D8163"/>
<rect x="28.4832" y="32.6172" width="1.55724" height="1.55724" rx="0.5" fill="#1D8163"/>
<rect x="28.4832" y="30.5391" width="1.55724" height="1.55724" rx="0.5" fill="#1D8163"/>
<path d="M37.2563 48.5321C37.2563 45.5653 39.6615 43.1602 42.6283 43.1602V43.1602C45.5952 43.1602 48.0003 45.5653 48.0003 48.5321V48.9798H37.2563V48.5321Z" fill="white"/>
<path d="M38.0063 48.5304C38.0063 47.9234 38.1259 47.3224 38.3582 46.7616C38.5904 46.2009 38.9309 45.6913 39.3601 45.2622C39.7893 44.833 40.2988 44.4925 40.8596 44.2602C41.4203 44.028 42.0213 43.9084 42.6283 43.9084C43.2353 43.9084 43.8363 44.028 44.3971 44.2602C44.9578 44.4925 45.4673 44.833 45.8965 45.2622C46.3257 45.6913 46.6662 46.2009 46.8984 46.7616C47.1307 47.3224 47.2503 47.9234 47.2503 48.5304" stroke="#1D8163" stroke-width="1.5" stroke-linecap="round"/>
<ellipse cx="42.5831" cy="40.7733" rx="3.15999" ry="3.15999" fill="white"/>
<path d="M42.5831 39.3636C42.8996 39.3636 43.213 39.4259 43.5053 39.5471C43.7977 39.6682 44.0634 39.8457 44.2872 40.0695C44.511 40.2933 44.6885 40.5589 44.8096 40.8513C44.9307 41.1437 44.9931 41.4571 44.9931 41.7736C44.9931 42.0901 44.9307 42.4035 44.8096 42.6959C44.6885 42.9883 44.511 43.2539 44.2872 43.4777C44.0634 43.7015 43.7977 43.879 43.5053 44.0001C43.213 44.1213 42.8996 44.1836 42.5831 44.1836C42.2666 44.1836 41.9532 44.1213 41.6608 44.0001C41.3684 43.879 41.1028 43.7015 40.879 43.4777C40.6552 43.2539 40.4777 42.9883 40.3565 42.6959C40.2354 42.4035 40.1731 42.0901 40.1731 41.7736C40.1731 41.4571 40.2354 41.1437 40.3565 40.8513C40.4777 40.5589 40.6552 40.2933 40.879 40.0695C41.1028 39.8457 41.3684 39.6682 41.6608 39.5471C41.9532 39.4259 42.2666 39.3636 42.5831 39.3636L42.5831 39.3636Z" stroke="#1D8163" stroke-width="1.5" stroke-linecap="round"/>
<path d="M0.499756 48.5321C0.499756 45.5653 2.90487 43.1602 5.87172 43.1602V43.1602C8.83857 43.1602 11.2437 45.5653 11.2437 48.5321V48.9798H0.499756V48.5321Z" fill="white"/>
<path d="M1.24976 48.5304C1.24976 47.9234 1.36931 47.3224 1.60158 46.7616C1.83386 46.2009 2.17431 45.6913 2.6035 45.2622C3.03269 44.833 3.54221 44.4925 4.10297 44.2602C4.66373 44.028 5.26475 43.9084 5.87172 43.9084C6.47868 43.9084 7.07971 44.028 7.64047 44.2602C8.20123 44.4925 8.71075 44.833 9.13994 45.2622C9.56913 45.6913 9.90958 46.2009 10.1419 46.7616C10.3741 47.3224 10.4937 47.9234 10.4937 48.5304" stroke="#1D8163" stroke-width="1.5" stroke-linecap="round"/>
<ellipse cx="5.82674" cy="40.7733" rx="3.15999" ry="3.15999" fill="white"/>
<path d="M5.82674 39.3636C6.14322 39.3636 6.45661 39.4259 6.749 39.5471C7.0414 39.6682 7.30707 39.8457 7.53086 40.0695C7.75465 40.2933 7.93217 40.5589 8.05328 40.8513C8.17439 41.1437 8.23673 41.4571 8.23673 41.7736C8.23673 42.0901 8.17439 42.4035 8.05328 42.6959C7.93217 42.9883 7.75465 43.2539 7.53086 43.4777C7.30707 43.7015 7.0414 43.879 6.749 44.0001C6.45661 44.1213 6.14322 44.1836 5.82674 44.1836C5.51025 44.1836 5.19687 44.1213 4.90447 44.0001C4.61208 43.879 4.34641 43.7015 4.12262 43.4777C3.89883 43.2539 3.72131 42.9883 3.6002 42.6959C3.47908 42.4035 3.41675 42.0901 3.41675 41.7736C3.41675 41.4571 3.47908 41.1437 3.6002 40.8513C3.72131 40.5589 3.89883 40.2933 4.12262 40.0695C4.34641 39.8457 4.61208 39.6682 4.90448 39.5471C5.19687 39.4259 5.51025 39.3636 5.82674 39.3636L5.82674 39.3636Z" stroke="#1D8163" stroke-width="1.5" stroke-linecap="round"/>
<path d="M18.8779 10.1532C18.8779 7.18636 21.283 4.78125 24.2499 4.78125V4.78125C27.2167 4.78125 29.6219 7.18636 29.6219 10.1532V10.6009H18.8779V10.1532Z" fill="white"/>
<path d="M19.6279 10.1515C19.6279 9.54451 19.7475 8.94349 19.9798 8.38273C20.212 7.82196 20.5525 7.31244 20.9817 6.88325C21.4109 6.45407 21.9204 6.11361 22.4811 5.88134C23.0419 5.64906 23.6429 5.52951 24.2499 5.52951C24.8569 5.52951 25.4579 5.64906 26.0186 5.88134C26.5794 6.11361 27.0889 6.45407 27.5181 6.88325C27.9473 7.31244 28.2878 7.82196 28.52 8.38273C28.7523 8.94349 28.8719 9.54451 28.8719 10.1515" stroke="#1D8163" stroke-width="1.5" stroke-linecap="round"/>
<ellipse cx="24.2049" cy="3.39046" rx="3.15999" ry="3.15999" fill="white"/>
<path d="M24.2049 0.980801C24.5214 0.980801 24.8348 1.04314 25.1272 1.16425C25.4196 1.28536 25.6852 1.46288 25.909 1.68667C26.1328 1.91046 26.3103 2.17613 26.4315 2.46853C26.5526 2.76092 26.6149 3.07431 26.6149 3.39079C26.6149 3.70728 26.5526 4.02066 26.4315 4.31305C26.3103 4.60545 26.1328 4.87112 25.909 5.09491C25.6852 5.3187 25.4196 5.49622 25.1272 5.61733C24.8348 5.73844 24.5214 5.80078 24.2049 5.80078C23.8884 5.80078 23.575 5.73844 23.2826 5.61733C22.9903 5.49622 22.7246 5.3187 22.5008 5.09491C22.277 4.87112 22.0995 4.60545 21.9784 4.31305C21.8573 4.02066 21.7949 3.70728 21.7949 3.39079C21.7949 3.07431 21.8573 2.76092 21.9784 2.46853C22.0995 2.17613 22.277 1.91046 22.5008 1.68667C22.7246 1.46288 22.9903 1.28536 23.2826 1.16425C23.575 1.04314 23.8884 0.980801 24.2049 0.980801L24.2049 0.980801Z" stroke="#1D8163" stroke-width="1.5" stroke-linecap="round"/>
</svg>
