<svg width="56" height="56" viewBox="0 0 56 56" fill="none" xmlns="http://www.w3.org/2000/svg">
<path d="M3.00024 13.8874V32.6127C3.00024 32.8477 3.08307 33.0753 3.23416 33.2554L14.2373 46.3699C14.3884 46.55 14.4712 46.7776 14.4712 47.0127V50.9987C14.4712 51.551 14.9189 51.9987 15.4712 51.9987L24.3687 51.9988C24.9209 51.9988 25.3687 51.5511 25.3687 50.9988V40.7045C25.3687 38.3919 22.0055 33.7185 17.1784 33.0258C16.9125 32.9877 16.6607 32.8684 16.4715 32.6712C13.2361 29.2977 11.118 26.8086 8.51912 27.854C8.35345 27.9206 8.16219 27.8052 8.16219 27.6266V18.71C8.16219 15.2172 5.87031 13.5983 4.0921 13.0133C3.52442 12.8265 3.00024 13.2898 3.00024 13.8874Z" fill="white"/>
<path d="M25.3687 51.9994V40.705C25.3687 38.3854 21.9849 33.6903 17.1338 33.0201C16.8971 32.9874 16.6733 32.8819 16.5078 32.7095C12.9661 29.019 10.7635 26.3711 7.81991 28.215C7.35097 28.5087 7.31072 29.1564 7.67249 29.5751C11.417 33.9088 13.748 36.7956 14.4713 37.7327" stroke="#1D8163" stroke-width="1.5" stroke-linecap="round" stroke-linejoin="round"/>
<path d="M8.16219 24.06C8.16219 22.8711 8.16219 22.99 8.16219 18.71C8.16219 15.2172 5.87031 13.5983 4.0921 13.0133C3.52442 12.8265 3.00024 13.2898 3.00024 13.8874V32.6127C3.00024 32.8477 3.08307 33.0753 3.23416 33.2554L14.2373 46.3699C14.3884 46.55 14.4712 46.7776 14.4712 47.0127V51.9987M25.3687 51.9988V40.7045C25.3687 38.3919 22.0055 33.7185 17.1784 33.0258C16.9125 32.9877 16.6607 32.8684 16.4715 32.6712" stroke="#1D8163" stroke-width="1.5" stroke-linecap="round" stroke-linejoin="round"/>
<path d="M53.0002 13.8874V32.6127C53.0002 32.8477 52.9174 33.0753 52.7663 33.2554L41.7632 46.3699C41.6121 46.55 41.5293 46.7776 41.5293 47.0127V50.9987C41.5293 51.551 41.0815 51.9987 40.5293 51.9987L31.6318 51.9988C31.0795 51.9988 30.6318 51.5511 30.6318 50.9988V40.7045C30.6318 38.3919 33.995 33.7185 38.8221 33.0258C39.0879 32.9877 39.3398 32.8684 39.529 32.6712C42.7644 29.2977 44.8825 26.8086 47.4814 27.854C47.647 27.9206 47.8383 27.8052 47.8383 27.6266V18.71C47.8383 15.2172 50.1302 13.5983 51.9084 13.0133C52.4761 12.8265 53.0002 13.2898 53.0002 13.8874Z" fill="white"/>
<path d="M30.6318 51.9994V40.705C30.6318 38.3854 34.0156 33.6903 38.8667 33.0201C39.1034 32.9874 39.3272 32.8819 39.4927 32.7095C43.0343 29.019 45.237 26.3711 48.1806 28.215C48.6495 28.5087 48.6898 29.1564 48.328 29.5751C44.5835 33.9088 42.2525 36.7956 41.5292 37.7327" stroke="#1D8163" stroke-width="1.5" stroke-linecap="round" stroke-linejoin="round"/>
<path d="M47.8383 24.06C47.8383 22.8711 47.8383 22.99 47.8383 18.71C47.8383 15.2172 50.1302 13.5983 51.9084 13.0133C52.4761 12.8265 53.0002 13.2898 53.0002 13.8874V32.6127C53.0002 32.8477 52.9174 33.0753 52.7663 33.2554L41.7632 46.3699C41.6121 46.55 41.5293 46.7776 41.5293 47.0127V51.9987M30.6318 51.9988V40.7045C30.6318 38.3919 33.995 33.7185 38.8221 33.0258C39.0879 32.9877 39.3398 32.8684 39.529 32.6712" stroke="#1D8163" stroke-width="1.5" stroke-linecap="round" stroke-linejoin="round"/>
<path d="M26.3882 5.58278C26.6812 4.64831 28.0037 4.64831 28.2966 5.58278L30.2245 11.7324C30.3553 12.1494 30.7417 12.4333 31.1787 12.4333H37.4916C38.4516 12.4333 38.86 13.6546 38.0931 14.2321L32.9251 18.1237C32.5871 18.3782 32.4458 18.8179 32.5724 19.2217L34.5318 25.4716C34.8226 26.3993 33.7526 27.1544 32.976 26.5696L27.9439 22.7804C27.5878 22.5122 27.0971 22.5122 26.7409 22.7804L21.7088 26.5696C20.9322 27.1544 19.8622 26.3993 20.153 25.4716L22.1124 19.2217C22.239 18.8179 22.0977 18.3782 21.7597 18.1237L16.5917 14.2321C15.8248 13.6546 16.2332 12.4333 17.1932 12.4333H23.5061C23.9431 12.4333 24.3295 12.1494 24.4603 11.7324L26.3882 5.58278Z" fill="#E7F7F2" stroke="#1D8163" stroke-width="1.5" stroke-linecap="round" stroke-linejoin="round"/>
</svg>
