<svg width="38" height="38" viewBox="0 0 38 38" fill="none" xmlns="http://www.w3.org/2000/svg">
<path d="M28.6512 4.50157C28.6512 4.23124 28.7578 3.97181 28.9479 3.7796L29.5622 3.15835C30.0637 2.65121 30.7473 2.36583 31.4605 2.36583H32.1423C32.7094 2.36583 33.1691 2.82554 33.1691 3.39261V32.8854C33.1691 33.4525 32.7094 33.9122 32.1423 33.9122H31.3644C30.9557 33.9122 30.5546 34.0231 30.2039 34.2331L28.6512 35.1628V4.50157Z" fill="white" stroke="#1D8163" stroke-width="1.23214" stroke-linecap="round"/>
<rect x="6.95312" y="4.01349" width="22.8235" height="32.3947" rx="1.64286" fill="#E7F7F2"/>
<path d="M18.3649 36.4082H8.59598C7.68866 36.4082 6.95312 35.6727 6.95312 34.7653V5.65635C6.95312 4.74902 7.68866 4.01349 8.59598 4.01349H28.1338C29.0411 4.01349 29.7767 4.74902 29.7767 5.65635V34.7653C29.7767 35.6727 29.0411 36.4082 28.1338 36.4082H22.9162" stroke="#1D8163" stroke-width="1.23214" stroke-linecap="round"/>
<path d="M8.15625 3.74584C8.5288 3.68334 9.05598 3.56896 9.54526 3.41346C10.41 3.13866 11.5826 2.54108 12.4899 2.54108C16.9716 2.54108 26.3571 2.54108 31.0467 2.54108" stroke="#1D8163" stroke-width="1.23214" stroke-linecap="round" stroke-linejoin="round"/>
<path d="M35.7998 19.4631C37.4354 21.0886 37.4916 23.6784 35.9704 25.3674L29.8416 31.4556L23.713 25.3674C22.1919 23.6784 22.2488 21.0845 23.8836 19.4631C25.5202 17.8398 28.1396 17.7851 29.8424 19.299C31.5404 17.7874 34.1643 17.8376 35.7998 19.4631Z" fill="white" stroke="#1D8163" stroke-width="1.23214" stroke-linecap="round" stroke-linejoin="round"/>
<circle cx="22.0111" cy="8.94828" r="2.40952" fill="white"/>
<circle cx="13.5775" cy="8.94828" r="2.40952" fill="white"/>
<path d="M13.5781 9.77008V15.1915C13.5781 17.5203 15.466 19.4082 17.7948 19.4082V19.4082C20.1236 19.4082 22.0115 17.5203 22.0115 15.1915V9.77008" stroke="#1D8163" stroke-width="1.23214" stroke-linecap="round"/>
<path d="M21.2903 10.914C20.8831 10.8049 20.5145 10.584 20.2263 10.2762C19.9381 9.96852 19.7417 9.58627 19.6595 9.17275C19.5772 8.75923 19.6123 8.33095 19.7609 7.93635C19.9094 7.54175 20.1654 7.19659 20.4999 6.93993C20.8343 6.68326 21.234 6.52533 21.6536 6.484C22.0732 6.44268 22.496 6.51961 22.8741 6.70608C23.2522 6.89256 23.5706 7.18115 23.7933 7.53919C24.0159 7.89723 24.1339 8.31044 24.1339 8.73206" stroke="#1D8163" stroke-width="1.23214" stroke-linecap="round"/>
<path d="M13.0755 10.9138C12.6682 10.8047 12.2997 10.5838 12.0114 10.2761C11.7232 9.96833 11.5269 9.58609 11.4446 9.17257C11.3624 8.75905 11.3975 8.33076 11.546 7.93616C11.6945 7.54157 11.9505 7.19641 12.285 6.93974C12.6195 6.68308 13.0192 6.52515 13.4387 6.48382C13.8583 6.4425 14.2811 6.51942 14.6593 6.7059C15.0374 6.89238 15.3558 7.18096 15.5784 7.53901C15.8011 7.89705 15.9191 8.31025 15.9191 8.73187" stroke="#1D8163" stroke-width="1.23214" stroke-linecap="round"/>
<path d="M5.01813 1.91996L8.39833 1.4867L9.71322 4.63067L5.62564 11.7106L0.930543 8.99986L5.01813 1.91996Z" fill="white" stroke="#1D8163" stroke-width="1.23214" stroke-linecap="round" stroke-linejoin="round"/>
<circle cx="6.74089" cy="4.35552" r="0.903571" transform="rotate(30 6.74089 4.35552)" fill="#1D8163"/>
</svg>
