<svg width="46" height="46" viewBox="0 0 46 46" fill="none" xmlns="http://www.w3.org/2000/svg">
<path d="M5.99888 38.2073V18.2675C5.99888 17.8783 6.21894 17.5225 6.56718 17.3488L30.623 5.34388C31.3057 5.0032 32.1083 5.49966 32.1083 6.26261V38.2073C32.1083 38.7743 31.6486 39.2341 31.0815 39.2341H7.02567C6.45859 39.2341 5.99888 38.7743 5.99888 38.2073Z" fill="#E7F7F2" stroke="#1D8163" stroke-width="1.23214" stroke-linecap="round" stroke-linejoin="round"/>
<rect x="11.7215" y="21.391" width="28.0169" height="17.8433" rx="1.02679" fill="white" stroke="#1D8163" stroke-width="1.23214" stroke-linecap="round"/>
<rect x="21.2606" y="31.5646" width="8.94145" height="7.66975" rx="1.02679" fill="white" stroke="#1D8163" stroke-width="1.23214" stroke-linecap="round"/>
<rect x="11.7215" y="19.4834" width="28.0169" height="7.66975" rx="1.02679" fill="#E7F7F2" stroke="#1D8163" stroke-width="1.23214" stroke-linecap="round" stroke-linejoin="round"/>
<rect width="40.6944" height="3.17925" rx="1.58962" transform="matrix(1 0 0 -1 2.83984 42.3937)" fill="white"/>
<path d="M23.187 42.3937H4.42947C3.55154 42.3937 2.83984 41.682 2.83984 40.8041V40.8041C2.83984 39.9261 3.55154 39.2144 4.42947 39.2144H41.9446C42.8225 39.2144 43.5342 39.9261 43.5342 40.8041V40.8041C43.5342 41.682 42.8225 42.3937 41.9446 42.3937H38.6509M26.0356 42.3937H35.904" stroke="#1D8163" stroke-width="1.23214" stroke-linecap="round"/>
<path d="M25.7305 32.309V38.5149" stroke="#1D8163" stroke-width="1.23214" stroke-linecap="round" stroke-linejoin="round"/>
<path d="M37.1758 24.59H14.2852" stroke="#1D8163" stroke-width="1.23214" stroke-linecap="round" stroke-linejoin="round"/>
<path d="M30.1797 29.6766H21.2778" stroke="#1D8163" stroke-width="1.23214" stroke-linecap="round" stroke-linejoin="round"/>
<path d="M35.2695 15.6879H28.911" stroke="#1D8163" stroke-width="1.23214" stroke-linecap="round" stroke-linejoin="round"/>
<path d="M35.2695 13.1442H28.911" stroke="#1D8163" stroke-width="1.23214" stroke-linecap="round" stroke-linejoin="round"/>
</svg>
