<svg width="71" height="70" viewBox="0 0 71 70" fill="none" xmlns="http://www.w3.org/2000/svg">
<rect opacity="0.02" x="0.5" width="70" height="70" fill="#D9D9D9"/>
<path d="M25.3453 53.9357C25.3453 51.1511 27.6027 48.8936 30.3873 48.8936C33.172 48.8936 35.4294 51.1511 35.4294 53.9357V59.8994C35.4294 60.5073 35.9221 61 36.53 61H49.2747V14.6382C49.2747 13.1896 48.0835 12 46.6231 12H14.1597C12.6993 12 11.5 13.1896 11.5 14.6382V59C11.5 60.1046 12.3954 61 13.5 61H24.2447C24.8525 61 25.3453 60.5073 25.3453 59.8994V53.9357ZM42.919 38.3087C42.919 39.0208 42.3316 39.6035 41.6137 39.6035H33.659C32.941 39.6035 32.3536 39.0208 32.3536 38.3087V31.2682C32.3536 30.5561 32.941 29.9734 33.659 29.9734H41.6137C42.3316 29.9734 42.919 30.5561 42.919 31.2682V38.3087ZM32.1822 19.0566C32.1822 18.3445 32.7697 17.7618 33.4876 17.7618H41.4423C42.1603 17.7618 42.7477 18.3445 42.7477 19.0566V26.0971C42.7477 26.8092 42.1603 27.3919 41.4423 27.3919H33.4876C32.7697 27.3919 32.1822 26.8092 32.1822 26.0971V19.0566ZM18.0514 19.0566C18.0514 18.3445 18.6388 17.7618 19.3568 17.7618H27.3115C28.0295 17.7618 28.6169 18.3445 28.6169 19.0566V26.0971C28.6169 26.8092 28.0295 27.3919 27.3115 27.3919H19.3568C18.6388 27.3919 18.0514 26.8092 18.0514 26.0971V19.0566ZM18.2146 38.3087V31.2682C18.2146 30.5561 18.802 29.9734 19.52 29.9734H27.4747C28.1926 29.9734 28.7801 30.5561 28.7801 31.2682V38.3087C28.7801 39.0208 28.1926 39.6035 27.4747 39.6035H19.52C18.802 39.6035 18.2146 39.0208 18.2146 38.3087Z" fill="white"/>
<path d="M60.1029 33.9624C60.1029 32.5138 58.9117 31.3242 57.4513 31.3242H46.1597C44.6993 31.3242 43.5 32.5057 43.5 33.9624V61.0075H60.1029V33.9624ZM57.076 44.1994H46.4942V42.2572H57.076V44.1994ZM57.076 38.4456H46.4942V36.4791H57.076V38.4456Z" fill="#0F3654"/>
<path d="M19.3562 17.7539H27.3109C28.0288 17.7539 28.6163 18.3366 28.6163 19.0487V26.0892C28.6163 26.8013 28.0288 27.384 27.3109 27.384H19.3562C18.6382 27.384 18.0508 26.8013 18.0508 26.0892V19.0487C18.0508 18.3366 18.6382 17.7539 19.3562 17.7539Z" fill="#246BEB"/>
<path d="M33.487 17.7542H41.4417C42.1597 17.7542 42.7471 18.3368 42.7471 19.049V26.0814C42.7471 26.7935 42.1597 27.3762 41.4417 27.3762H33.487C32.7691 27.3762 32.1816 26.7935 32.1816 26.0814V19.0409C32.1816 18.3288 32.7691 17.7461 33.487 17.7461V17.7542Z" fill="#246BEB"/>
<path d="M19.5202 29.9805H27.4749C28.1929 29.9805 28.7803 30.5631 28.7803 31.2753V38.3157C28.7803 39.0279 28.1929 39.6105 27.4749 39.6105H19.5202C18.8023 39.6105 18.2148 39.0279 18.2148 38.3157V31.2753C18.2148 30.5631 18.8023 29.9805 19.5202 29.9805Z" fill="#246BEB"/>
<path d="M33.6589 29.9805H41.6136C42.3316 29.9805 42.919 30.5631 42.919 31.2753V38.3157C42.919 39.0279 42.3316 39.6105 41.6136 39.6105H33.6589C32.9409 39.6105 32.3535 39.0279 32.3535 38.3157V31.2753C32.3535 30.5631 32.9409 29.9805 33.6589 29.9805Z" fill="#246BEB"/>
<path d="M57.0759 36.4805H46.4941V38.4469H57.0759V36.4805Z" fill="white"/>
<path d="M57.0759 42.2578H46.4941V44.2H57.0759V42.2578Z" fill="white"/>
<path d="M35.4298 48.8945H25.3457V61.0009H35.4298V48.8945Z" fill="#246BEB"/>
</svg>
