<svg width="71" height="70" viewBox="0 0 71 70" fill="none" xmlns="http://www.w3.org/2000/svg">
<rect opacity="0.02" x="0.402344" width="70" height="70" fill="#D9D9D9"/>
<path d="M25.2476 53.9357C25.2476 51.1511 27.505 48.8936 30.2897 48.8936C33.0743 48.8936 35.3317 51.1511 35.3317 53.9357V59.8994C35.3317 60.5073 35.8245 61 36.4323 61H49.177V14.6382C49.177 13.1896 47.9858 12 46.5254 12H14.0621C12.6017 12 11.4023 13.1896 11.4023 14.6382V59C11.4023 60.1046 12.2978 61 13.4023 61H24.147C24.7549 61 25.2476 60.5073 25.2476 59.8994V53.9357ZM42.8214 38.3087C42.8214 39.0208 42.234 39.6035 41.516 39.6035H33.5613C32.8433 39.6035 32.2559 39.0208 32.2559 38.3087V31.2682C32.2559 30.5561 32.8433 29.9734 33.5613 29.9734H41.516C42.234 29.9734 42.8214 30.5561 42.8214 31.2682V38.3087ZM32.0846 19.0566C32.0846 18.3445 32.672 17.7618 33.39 17.7618H41.3447C42.0626 17.7618 42.6501 18.3445 42.6501 19.0566V26.0971C42.6501 26.8092 42.0626 27.3919 41.3447 27.3919H33.39C32.672 27.3919 32.0846 26.8092 32.0846 26.0971V19.0566ZM17.9538 19.0566C17.9538 18.3445 18.5412 17.7618 19.2591 17.7618H27.2139C27.9318 17.7618 28.5192 18.3445 28.5192 19.0566V26.0971C28.5192 26.8092 27.9318 27.3919 27.2139 27.3919H19.2591C18.5412 27.3919 17.9538 26.8092 17.9538 26.0971V19.0566ZM18.1169 38.3087V31.2682C18.1169 30.5561 18.7044 29.9734 19.4223 29.9734H27.377C28.095 29.9734 28.6824 30.5561 28.6824 31.2682V38.3087C28.6824 39.0208 28.095 39.6035 27.377 39.6035H19.4223C18.7044 39.6035 18.1169 39.0208 18.1169 38.3087Z" fill="#246BEB"/>
<path d="M60.0052 33.9624C60.0052 32.5138 58.8141 31.3242 57.3537 31.3242H46.0621C44.6017 31.3242 43.4023 32.5057 43.4023 33.9624V61.0075H60.0052V33.9624ZM56.9784 44.1994H46.3966V42.2572H56.9784V44.1994ZM56.9784 38.4456H46.3966V36.4791H56.9784V38.4456Z" fill="#C4DCFF"/>
<path d="M19.2585 17.7539H27.2132C27.9312 17.7539 28.5186 18.3366 28.5186 19.0487V26.0892C28.5186 26.8013 27.9312 27.384 27.2132 27.384H19.2585C18.5405 27.384 17.9531 26.8013 17.9531 26.0892V19.0487C17.9531 18.3366 18.5405 17.7539 19.2585 17.7539Z" fill="white"/>
<path d="M33.3913 17.7542H41.346C42.064 17.7542 42.6514 18.3368 42.6514 19.049V26.0814C42.6514 26.7935 42.064 27.3762 41.346 27.3762H33.3913C32.6734 27.3762 32.0859 26.7935 32.0859 26.0814V19.0409C32.0859 18.3288 32.6734 17.7461 33.3913 17.7461V17.7542Z" fill="white"/>
<path d="M19.4226 29.9805H27.3773C28.0952 29.9805 28.6827 30.5631 28.6827 31.2753V38.3157C28.6827 39.0279 28.0952 39.6105 27.3773 39.6105H19.4226C18.7046 39.6105 18.1172 39.0279 18.1172 38.3157V31.2753C18.1172 30.5631 18.7046 29.9805 19.4226 29.9805Z" fill="white"/>
<path d="M33.5632 29.9805H41.5179C42.2359 29.9805 42.8233 30.5631 42.8233 31.2753V38.3157C42.8233 39.0279 42.2359 39.6105 41.5179 39.6105H33.5632C32.8452 39.6105 32.2578 39.0279 32.2578 38.3157V31.2753C32.2578 30.5631 32.8452 29.9805 33.5632 29.9805Z" fill="white"/>
<path d="M56.9802 36.4805H46.3984V38.4469H56.9802V36.4805Z" fill="white"/>
<path d="M56.9802 42.2578H46.3984V44.2H56.9802V42.2578Z" fill="white"/>
<path d="M35.3302 48.8945H25.2461V61.0009H35.3302V48.8945Z" fill="white"/>
</svg>
