<svg width="49" height="48" viewBox="0 0 49 48" fill="none" xmlns="http://www.w3.org/2000/svg">
<path d="M48.4999 28.3294V36.8994C48.4999 38.5294 47.1799 39.8594 45.5599 39.8694V46.9994C45.5599 47.5494 45.1099 47.9994 44.5599 47.9994H38.1099C37.5599 47.9994 37.1099 47.5494 37.1099 46.9994V39.8694C35.4899 39.8594 34.1699 38.5294 34.1699 36.8994V28.3294C34.1699 26.6894 35.5099 25.3594 37.1399 25.3594H45.5299C47.1699 25.3594 48.4999 26.6894 48.4999 28.3294Z" fill="#A7A7A7"/>
<path d="M35.9707 19.36C35.9707 16.4 38.3807 14 41.3407 14C44.3007 14 46.7007 16.4 46.7007 19.36C46.7007 22.32 44.3007 24.73 41.3407 24.73C38.3807 24.73 35.9707 22.32 35.9707 19.36Z" fill="#A7A7A7"/>
<path d="M33.2398 43.8203V47.0003C33.2398 47.5503 32.7898 48.0003 32.2398 48.0003H16.7598C16.1998 48.0003 15.7598 47.5503 15.7598 47.0003V43.8203C15.7598 43.2703 16.1998 42.8203 16.7598 42.8203H32.2398C32.7898 42.8203 33.2398 43.2703 33.2398 43.8203Z" fill="#246BEB"/>
<path d="M19.1309 14.86C19.1309 11.9 21.5409 9.5 24.5009 9.5C27.4609 9.5 29.8709 11.9 29.8709 14.86C29.8709 17.82 27.4609 20.23 24.5009 20.23C21.5409 20.23 19.1309 17.82 19.1309 14.86Z" fill="#246BEB"/>
<path d="M14.81 28.3606V36.9206C14.81 38.5406 13.4901 39.8706 11.8701 39.8906V47.0006C11.8701 47.5506 11.42 48.0006 10.8701 48.0006H4.44C3.88 48.0006 3.44 47.5506 3.44 47.0006V39.8906C1.81 39.8706 0.5 38.5406 0.5 36.9206V28.3606C0.5 26.7206 1.83002 25.3906 3.47003 25.3906H11.84C13.47 25.3906 14.81 26.7206 14.81 28.3606Z" fill="#A7A7A7"/>
<path d="M17.3398 32.3994V23.8294C17.3398 22.1894 18.6699 20.8594 20.3098 20.8594H28.6898C30.3298 20.8594 31.6599 22.1894 31.6599 23.8294V32.3994C31.6599 34.0294 30.3398 35.3594 28.7198 35.3694V40.8194H20.2798V35.3694C18.6498 35.3594 17.3398 34.0294 17.3398 32.3994Z" fill="#246BEB"/>
<path d="M22.0308 5.87C21.6408 5.47998 21.6408 4.84003 22.0308 4.45001C22.4208 4.06 23.0508 4.06 23.4408 4.45001L23.5008 4.51001V1C23.5008 0.440002 23.9508 0 24.5008 0C25.0508 0 25.5008 0.440002 25.5008 1V4.5L25.5508 4.45001C25.9508 4.06 26.5808 4.06 26.9708 4.45001C27.3608 4.84003 27.3608 5.47998 26.9708 5.87L25.2108 7.63C25.0308 7.81 24.7708 7.91998 24.5008 7.91998C24.4108 7.91998 24.3308 7.91003 24.2508 7.88C24.2008 7.88 24.1608 7.85999 24.1108 7.84003C23.9908 7.79004 23.8808 7.72003 23.7908 7.63L22.0308 5.87Z" fill="#246BEB"/>
<path d="M2.28906 19.399C2.28906 16.449 4.69904 14.0391 7.64905 14.0391C10.6091 14.0391 13.009 16.449 13.009 19.399C13.009 22.359 10.6091 24.769 7.64905 24.769C4.69904 24.769 2.28906 22.359 2.28906 19.399Z" fill="#A7A7A7"/>
</svg>
