<svg width="24" height="24" viewBox="0 0 24 24" fill="none" xmlns="http://www.w3.org/2000/svg">
<circle cx="12" cy="12" r="10" fill="#F8F8F8"/>
<path d="M10.945 14.5135C10.9617 12.3405 11.6483 11.6757 12.8038 10.9946C13.4904 10.5892 14.0263 9.94054 14.0263 9.03243C14.0263 7.92973 13.1388 7.23243 12.0335 7.23243C11.0789 7.23243 10.1244 7.78378 10.0239 9.11351H8.5C8.58373 7.15135 10.1244 6 12.0335 6C14.1268 6 15.5 7.31351 15.5 9.0973C15.5 10.3622 14.8804 11.2541 13.8421 11.8703C12.8038 12.4865 12.4187 13.1027 12.3852 14.5135V14.5946H10.945V14.5135ZM11.7153 18C11.1292 18 10.6268 17.5297 10.6435 16.9459C10.6268 16.3784 11.1292 15.9081 11.7153 15.9081C12.3014 15.9081 12.7871 16.3784 12.7871 16.9459C12.7871 17.5297 12.3014 18 11.7153 18Z" fill="#666666"/>
</svg>
