<svg width="32" height="32" viewBox="0 0 32 32" fill="none" xmlns="http://www.w3.org/2000/svg">
<path d="M22.4375 11.5H9.1875C8.93886 11.5 8.7004 11.4012 8.52459 11.2254C8.34877 11.0496 8.25 10.8111 8.25 10.5625V3.9375C8.25 3.68886 8.34877 3.4504 8.52459 3.27459C8.7004 3.09877 8.93886 3 9.1875 3H22.4375C22.6861 3 22.9246 3.09877 23.1004 3.27459C23.2762 3.4504 23.375 3.68886 23.375 3.9375V10.5625C23.375 10.8111 23.2762 11.0496 23.1004 11.2254C22.9246 11.4012 22.6861 11.5 22.4375 11.5ZM10.125 9.625H21.5V4.875H10.125V9.625Z" fill="#222222"/>
<path d="M22.4375 28.1233H9.1875C8.93886 28.1233 8.7004 28.0245 8.52459 27.8487C8.34877 27.6729 8.25 27.4344 8.25 27.1858V17.0039C8.25 16.7553 8.34877 16.5168 8.52459 16.341C8.7004 16.1652 8.93886 16.0664 9.1875 16.0664H22.4375C22.6861 16.0664 22.9246 16.1652 23.1004 16.341C23.2762 16.5168 23.375 16.7553 23.375 17.0039V27.1858C23.375 27.4344 23.2762 27.6729 23.1004 27.8487C22.9246 28.0245 22.6861 28.1233 22.4375 28.1233ZM10.125 26.2483H21.5V17.9414H10.125V26.2483Z" fill="#222222"/>
<path d="M25.4534 23.6875H22.4378C22.1892 23.6875 21.9507 23.5887 21.7749 23.4129C21.5991 23.2371 21.5003 22.9986 21.5003 22.75C21.5003 22.5014 21.5991 22.2629 21.7749 22.0871C21.9507 21.9113 22.1892 21.8125 22.4378 21.8125H25.4534C25.7663 21.8122 26.0662 21.6877 26.2875 21.4665C26.5087 21.2453 26.6331 20.9454 26.6334 20.6325V12.6806C26.6333 12.3677 26.5089 12.0676 26.2877 11.8462C26.0664 11.6248 25.7664 11.5003 25.4534 11.5H6.17219C5.85923 11.5003 5.55919 11.6248 5.33795 11.8462C5.11671 12.0676 4.99235 12.3677 4.99219 12.6806V20.6325C4.99252 20.9454 5.11695 21.2453 5.33817 21.4665C5.55939 21.6877 5.85933 21.8122 6.17219 21.8125H9.18781C9.43645 21.8125 9.67491 21.9113 9.85073 22.0871C10.0265 22.2629 10.1253 22.5014 10.1253 22.75C10.1253 22.9986 10.0265 23.2371 9.85073 23.4129C9.67491 23.5887 9.43645 23.6875 9.18781 23.6875H6.17219C5.36226 23.6865 4.58578 23.3643 4.01307 22.7916C3.44036 22.2189 3.11818 21.4424 3.11719 20.6325V12.6806C3.11801 11.8706 3.44013 11.0939 4.01285 10.5211C4.58558 9.94826 5.36215 9.62599 6.17219 9.625H25.4534C26.2635 9.62599 27.04 9.94826 27.6128 10.5211C28.1855 11.0939 28.5076 11.8706 28.5084 12.6806V20.6325C28.5074 21.4424 28.1853 22.2189 27.6126 22.7916C27.0398 23.3643 26.2634 23.6865 25.4534 23.6875Z" fill="#222222"/>
<path d="M8.18824 14.7497C8.15736 14.7498 8.12648 14.7483 8.09574 14.7453C8.06574 14.7422 8.03325 14.7372 8.00512 14.7316C7.977 14.7259 7.94262 14.7178 7.91574 14.7091C7.88887 14.7003 7.85762 14.6897 7.82949 14.6778C7.80137 14.6659 7.77387 14.6528 7.74699 14.6384C7.71963 14.6244 7.69313 14.6087 7.66762 14.5916C7.64262 14.5747 7.61762 14.5566 7.59387 14.5372C7.57012 14.5178 7.54699 14.4966 7.52512 14.4747C7.50324 14.4528 7.48262 14.4297 7.46262 14.4059C7.44325 14.3823 7.4251 14.3577 7.40824 14.3322C7.39116 14.3064 7.37554 14.2801 7.36137 14.2534C7.34699 14.2266 7.33387 14.1984 7.32199 14.1703C7.31012 14.1422 7.30012 14.1128 7.29074 14.0841C7.28137 14.0553 7.27449 14.0216 7.26824 13.9947C7.26199 13.9678 7.25762 13.9322 7.25449 13.9041C7.2485 13.8417 7.2485 13.7789 7.25449 13.7166C7.25762 13.6866 7.26262 13.6541 7.26824 13.6259C7.27387 13.5978 7.28199 13.5634 7.29074 13.5366C7.29949 13.5097 7.31012 13.4784 7.32199 13.4503C7.33387 13.4222 7.34699 13.3941 7.36137 13.3672C7.37574 13.3403 7.39137 13.3141 7.40824 13.2884C7.4251 13.2629 7.44325 13.2383 7.46262 13.2147C7.48199 13.1909 7.50324 13.1678 7.52512 13.1459C7.54699 13.1241 7.57012 13.1034 7.59387 13.0834C7.61762 13.0634 7.64262 13.0459 7.66762 13.0291C7.69313 13.0119 7.71963 12.9962 7.74699 12.9822C7.77408 12.968 7.80158 12.9549 7.82949 12.9428C7.85762 12.9309 7.88699 12.9209 7.91574 12.9116C7.94449 12.9022 7.97825 12.8953 8.00512 12.8891C8.032 12.8828 8.06762 12.8784 8.09574 12.8753C8.15707 12.8697 8.21879 12.8697 8.28012 12.8753C8.31074 12.8784 8.34262 12.8834 8.37137 12.8891C8.40012 12.8947 8.43387 12.9028 8.46012 12.9116C8.48637 12.9203 8.51887 12.9309 8.547 12.9428C8.57512 12.9547 8.60262 12.9678 8.62949 12.9822C8.65678 12.9964 8.68328 13.012 8.70887 13.0291C8.73387 13.0459 8.75887 13.0641 8.78262 13.0834C8.80637 13.1028 8.82949 13.1241 8.85137 13.1459C8.87324 13.1678 8.89324 13.1909 8.91387 13.2147C8.93449 13.2384 8.95137 13.2634 8.96824 13.2884C8.98512 13.3134 9.00074 13.3403 9.01512 13.3672C9.02949 13.3941 9.04262 13.4222 9.05449 13.4503C9.06637 13.4784 9.07637 13.5078 9.08574 13.5366C9.09512 13.5653 9.10199 13.5991 9.10824 13.6259C9.11449 13.6528 9.11887 13.6884 9.12199 13.7166C9.12799 13.7789 9.12799 13.8417 9.12199 13.9041C9.11887 13.9341 9.11387 13.9666 9.10824 13.9947C9.10262 14.0228 9.09449 14.0572 9.08574 14.0841C9.07699 14.1109 9.06637 14.1422 9.05449 14.1703C9.04262 14.1984 9.02949 14.2266 9.01512 14.2534C9.00074 14.2803 8.98512 14.3066 8.96824 14.3322C8.95137 14.3578 8.93262 14.3822 8.91387 14.4059C8.89512 14.4297 8.87324 14.4528 8.85137 14.4747C8.82949 14.4966 8.80637 14.5172 8.78262 14.5372C8.75887 14.5572 8.73387 14.5747 8.70887 14.5916C8.68328 14.6086 8.65678 14.6243 8.62949 14.6384C8.60241 14.6526 8.57491 14.6657 8.547 14.6778C8.51887 14.6897 8.4895 14.6997 8.46012 14.7091C8.43075 14.7184 8.40137 14.7253 8.37137 14.7316C8.34137 14.7378 8.30887 14.7422 8.28012 14.7453C8.24959 14.7483 8.21892 14.7498 8.18824 14.7497Z" fill="#222222"/>
<path d="M10.9382 14.7498C10.9076 14.7498 10.8757 14.7498 10.8457 14.7454C10.8157 14.7411 10.7832 14.7373 10.7551 14.7317C10.727 14.7261 10.6926 14.7179 10.6657 14.7092C10.6389 14.7004 10.6076 14.6898 10.5795 14.6779C10.5514 14.6661 10.5232 14.6529 10.4964 14.6386C10.4695 14.6242 10.4432 14.6086 10.4176 14.5917C10.3921 14.5748 10.3675 14.5567 10.3439 14.5373C10.3201 14.5179 10.297 14.4967 10.2751 14.4748C10.2532 14.4529 10.2326 14.4298 10.2126 14.4061C10.1926 14.3823 10.1751 14.3573 10.1582 14.3323C10.1411 14.3067 10.1252 14.2802 10.1107 14.2529C10.097 14.2261 10.0839 14.1986 10.072 14.1704C10.0601 14.1423 10.0501 14.1129 10.0407 14.0842C10.0314 14.0554 10.0245 14.0217 10.0182 13.9948C10.012 13.9679 10.0076 13.9323 10.0045 13.9042C9.9985 13.8418 9.9985 13.779 10.0045 13.7167C10.0076 13.6867 10.0126 13.6542 10.0182 13.6261C10.0239 13.5979 10.032 13.5636 10.0407 13.5367C10.0495 13.5098 10.0601 13.4786 10.072 13.4504C10.0839 13.4223 10.097 13.3948 10.1107 13.3679C10.1252 13.3407 10.1411 13.3142 10.1582 13.2886C10.1751 13.2636 10.1932 13.2386 10.2126 13.2148C10.232 13.1911 10.2532 13.1679 10.2751 13.1461C10.297 13.1242 10.3201 13.1036 10.3439 13.0836C10.3675 13.0642 10.3921 13.046 10.4176 13.0292C10.4435 13.0121 10.4697 12.9965 10.4964 12.9823C10.5232 12.9679 10.5514 12.9548 10.5795 12.9429C10.6076 12.9311 10.637 12.9211 10.6657 12.9117C10.6945 12.9023 10.7282 12.8954 10.7551 12.8892C10.782 12.8829 10.8176 12.8786 10.8457 12.8754C10.9081 12.8696 10.9709 12.8696 11.0332 12.8754C11.0632 12.8786 11.0957 12.8836 11.1239 12.8892C11.152 12.8948 11.1864 12.9029 11.2132 12.9117C11.2401 12.9204 11.2714 12.9311 11.2995 12.9429C11.3276 12.9548 11.3551 12.9679 11.382 12.9823C11.4089 12.9967 11.4357 13.0123 11.4614 13.0292C11.487 13.0461 11.5114 13.0642 11.5351 13.0836C11.5589 13.1029 11.582 13.1242 11.6039 13.1461C11.6257 13.1679 11.6457 13.1911 11.6664 13.2148C11.687 13.2386 11.7039 13.2636 11.7207 13.2886C11.7377 13.3142 11.7533 13.3407 11.7676 13.3679C11.7818 13.395 11.7949 13.4225 11.807 13.4504C11.8189 13.4786 11.8289 13.5079 11.8382 13.5367C11.8476 13.5654 11.8545 13.5992 11.8607 13.6261C11.867 13.6529 11.8714 13.6886 11.8745 13.7167C11.8805 13.779 11.8805 13.8418 11.8745 13.9042C11.8714 13.9342 11.8664 13.9667 11.8607 13.9948C11.8551 14.0229 11.847 14.0573 11.8382 14.0842C11.8295 14.1111 11.8189 14.1423 11.807 14.1704C11.7951 14.1986 11.782 14.2261 11.7676 14.2529C11.7533 14.2802 11.7377 14.3067 11.7207 14.3323C11.7039 14.3573 11.6851 14.3823 11.6664 14.4061C11.6476 14.4298 11.6257 14.4529 11.6039 14.4748C11.582 14.4967 11.5589 14.5173 11.5351 14.5373C11.5114 14.5573 11.4864 14.5748 11.4614 14.5917C11.4364 14.6086 11.4089 14.6242 11.382 14.6386C11.3551 14.6529 11.3276 14.6661 11.2995 14.6779C11.2714 14.6898 11.242 14.6998 11.2132 14.7092C11.1845 14.7186 11.1507 14.7254 11.1239 14.7317C11.097 14.7379 11.0614 14.7423 11.0332 14.7454C11.0051 14.7486 10.9689 14.7498 10.9382 14.7498Z" fill="#222222"/>
<path d="M19.5 21.5H12.125C11.8764 21.5 11.6379 21.4012 11.4621 21.2254C11.2863 21.0496 11.1875 20.8111 11.1875 20.5625C11.1875 20.3139 11.2863 20.0754 11.4621 19.8996C11.6379 19.7238 11.8764 19.625 12.125 19.625H19.5C19.7486 19.625 19.9871 19.7238 20.1629 19.8996C20.3387 20.0754 20.4375 20.3139 20.4375 20.5625C20.4375 20.8111 20.3387 21.0496 20.1629 21.2254C19.9871 21.4012 19.7486 21.5 19.5 21.5Z" fill="#222222"/>
<path d="M19.5 24.8125H12.125C11.8764 24.8125 11.6379 24.7137 11.4621 24.5379C11.2863 24.3621 11.1875 24.1236 11.1875 23.875C11.1875 23.6264 11.2863 23.3879 11.4621 23.2121C11.6379 23.0363 11.8764 22.9375 12.125 22.9375H19.5C19.7486 22.9375 19.9871 23.0363 20.1629 23.2121C20.3387 23.3879 20.4375 23.6264 20.4375 23.875C20.4375 24.1236 20.3387 24.3621 20.1629 24.5379C19.9871 24.7137 19.7486 24.8125 19.5 24.8125Z" fill="#222222"/>
</svg>
