<svg width="20" height="20" viewBox="0 0 20 20" fill="none" xmlns="http://www.w3.org/2000/svg">
<circle cx="10" cy="10" r="10" fill="#246BEB"/>
<path d="M7.70444 12.4651L5.21906 10.2575C5.08514 10.1386 4.90351 10.0717 4.71411 10.0717C4.52472 10.0717 4.34308 10.1386 4.20916 10.2575C4.07524 10.3765 4 10.5378 4 10.706C4 10.7893 4.01847 10.8718 4.05436 10.9488C4.09025 11.0257 4.14285 11.0957 4.20916 11.1546L7.20306 13.8139C7.4824 14.062 7.93363 14.062 8.21297 13.8139L15.7908 7.08284C15.9248 6.96388 16 6.80254 16 6.63431C16 6.46608 15.9248 6.30474 15.7908 6.18579C15.6569 6.06683 15.4753 6 15.2859 6C15.0965 6 14.9149 6.06683 14.7809 6.18579L7.70444 12.4651Z" fill="white"/>
</svg>
