<svg width="54" height="55" viewBox="0 0 54 55" fill="none" xmlns="http://www.w3.org/2000/svg">
<path d="M10.7199 28.9121H6.1917C4.19099 28.9121 2.65234 30.5216 2.65234 32.5223V46.7105C2.65234 48.0443 3.65039 49.2442 4.98419 49.2442H11.9274C13.2612 49.2442 14.3578 48.0443 14.3578 46.7105V32.5223C14.3578 30.5216 12.7206 28.9121 10.7199 28.9121Z" fill="#F1F1F1"/>
<path d="M48.2331 23.4483L42.8239 20.3864C41.0912 19.4022 39.6172 20.2262 39.6172 22.2192V46.7101C39.6172 48.044 40.7816 49.2438 42.1154 49.2438H49.0587C50.3925 49.2438 51.3228 48.044 51.3228 46.7101V28.8606C51.3228 26.8676 49.9659 24.4325 48.2331 23.4483Z" fill="#F1F1F1"/>
<path d="M36.3503 5.20003L17.8555 10.5153C15.9394 11.0621 14.4531 13.1414 14.4531 15.1329V46.3529C14.4531 47.6806 15.4204 49.019 16.748 49.019H37.487C38.8146 49.019 39.711 47.6821 39.711 46.3529V7.82763C39.711 5.8346 38.2648 4.65326 36.3488 5.20003H36.3503Z" fill="url(#paint0_linear_684_15900)"/>
<path d="M28.2667 38.1543H25.7099C23.5921 38.1543 21.75 40.6649 21.75 43.0861V49.2439H31.9155V43.0861C31.9155 40.6649 30.3845 38.1543 28.2667 38.1543Z" fill="white"/>
<path d="M20.0501 21.2955C20.9687 21.2955 21.7134 20.5508 21.7134 19.6321C21.7134 18.7135 20.9687 17.9688 20.0501 17.9688C19.1314 17.9688 18.3867 18.7135 18.3867 19.6321C18.3867 20.5508 19.1314 21.2955 20.0501 21.2955Z" fill="white"/>
<path d="M26.9915 21.2955C27.9101 21.2955 28.6548 20.5508 28.6548 19.6321C28.6548 18.7135 27.9101 17.9688 26.9915 17.9688C26.0728 17.9688 25.3281 18.7135 25.3281 19.6321C25.3281 20.5508 26.0728 21.2955 26.9915 21.2955Z" fill="white"/>
<path d="M33.9368 21.2955C34.8554 21.2955 35.6001 20.5508 35.6001 19.6321C35.6001 18.7135 34.8554 17.9688 33.9368 17.9688C33.0181 17.9688 32.2734 18.7135 32.2734 19.6321C32.2734 20.5508 33.0181 21.2955 33.9368 21.2955Z" fill="white"/>
<path d="M21.6914 27.145C21.8391 26.2383 21.2238 25.3835 20.3171 25.2359C19.4104 25.0882 18.5557 25.7035 18.408 26.6102C18.2603 27.5169 18.8756 28.3717 19.7823 28.5193C20.689 28.667 21.5438 28.0517 21.6914 27.145Z" fill="white"/>
<path d="M28.6368 27.145C28.7844 26.2383 28.1691 25.3835 27.2624 25.2359C26.3557 25.0882 25.501 25.7035 25.3533 26.6102C25.2056 27.5169 25.821 28.3717 26.7277 28.5193C27.6344 28.667 28.4891 28.0517 28.6368 27.145Z" fill="white"/>
<path d="M35.5813 27.1334C35.722 26.2256 35.1001 25.3756 34.1923 25.2349C33.2845 25.0942 32.4345 25.716 32.2938 26.6238C32.1531 27.5317 32.775 28.3816 33.6828 28.5223C34.5906 28.663 35.4406 28.0412 35.5813 27.1334Z" fill="white"/>
<defs>
<linearGradient id="paint0_linear_684_15900" x1="27.2097" y1="81.0838" x2="74.4964" y2="53.9044" gradientUnits="userSpaceOnUse">
<stop stop-color="#F2FEF4"/>
<stop offset="1" stop-color="#2D873E"/>
</linearGradient>
</defs>
</svg>
