<svg width="20" height="20" viewBox="0 0 20 20" fill="none" xmlns="http://www.w3.org/2000/svg">
<path d="M3.02 12.884C2.34 11.918 2 11.4341 2 10C2 8.565 2.34 8.08288 3.02 7.116C4.3776 5.1875 6.6544 3 10 3C13.3456 3 15.6224 5.1875 16.98 7.116C17.66 8.08375 18 8.56587 18 10C18 11.435 17.66 11.9171 16.98 12.884C15.6224 14.8125 13.3456 17 10 17C6.6544 17 4.3776 14.8125 3.02 12.884Z" stroke="#666666" stroke-width="1.25"/>
<path d="M12.4961 10C12.4961 10.663 12.2327 11.2989 11.7639 11.7678C11.295 12.2366 10.6591 12.5 9.99609 12.5C9.33305 12.5 8.69717 12.2366 8.22833 11.7678C7.75949 11.2989 7.49609 10.663 7.49609 10C7.49609 9.33696 7.75949 8.70107 8.22833 8.23223C8.69717 7.76339 9.33305 7.5 9.99609 7.5C10.6591 7.5 11.295 7.76339 11.7639 8.23223C12.2327 8.70107 12.4961 9.33696 12.4961 10Z" stroke="#666666" stroke-width="1.25"/>
</svg>
