<svg width="24" height="24" viewBox="0 0 24 24" fill="none" xmlns="http://www.w3.org/2000/svg">
<path d="M12.0004 3.60039C11.523 3.60039 11.0652 3.79003 10.7276 4.1276C10.39 4.46516 10.2004 4.923 10.2004 5.40039C10.2004 5.87778 10.39 6.33562 10.7276 6.67318C11.0652 7.01075 11.523 7.20039 12.0004 7.20039C12.4778 7.20039 12.9356 7.01075 13.2732 6.67318C13.6107 6.33562 13.8004 5.87778 13.8004 5.40039C13.8004 4.923 13.6107 4.46516 13.2732 4.1276C12.9356 3.79003 12.4778 3.60039 12.0004 3.60039ZM9.00039 5.40039C9.00039 4.60474 9.31646 3.84168 9.87907 3.27907C10.4417 2.71646 11.2047 2.40039 12.0004 2.40039C12.796 2.40039 13.5591 2.71646 14.1217 3.27907C14.6843 3.84168 15.0004 4.60474 15.0004 5.40039C15.0004 6.19604 14.6843 6.9591 14.1217 7.52171C13.5591 8.08432 12.796 8.40039 12.0004 8.40039C11.2047 8.40039 10.4417 8.08432 9.87907 7.52171C9.31646 6.9591 9.00039 6.19604 9.00039 5.40039ZM18.6004 4.80039C18.2821 4.80039 17.9769 4.92682 17.7519 5.15186C17.5268 5.37691 17.4004 5.68213 17.4004 6.00039C17.4004 6.31865 17.5268 6.62388 17.7519 6.84892C17.9769 7.07396 18.2821 7.20039 18.6004 7.20039C18.9187 7.20039 19.2239 7.07396 19.4489 6.84892C19.674 6.62388 19.8004 6.31865 19.8004 6.00039C19.8004 5.68213 19.674 5.37691 19.4489 5.15186C19.2239 4.92682 18.9187 4.80039 18.6004 4.80039ZM16.2004 6.00039C16.2004 5.36387 16.4532 4.75342 16.9033 4.30333C17.3534 3.85325 17.9639 3.60039 18.6004 3.60039C19.2369 3.60039 19.8474 3.85325 20.2974 4.30333C20.7475 4.75342 21.0004 5.36387 21.0004 6.00039C21.0004 6.63691 20.7475 7.24736 20.2974 7.69745C19.8474 8.14753 19.2369 8.40039 18.6004 8.40039C17.9639 8.40039 17.3534 8.14753 16.9033 7.69745C16.4532 7.24736 16.2004 6.63691 16.2004 6.00039ZM4.20039 6.00039C4.20039 5.68213 4.32682 5.37691 4.55186 5.15186C4.77691 4.92682 5.08213 4.80039 5.40039 4.80039C5.71865 4.80039 6.02387 4.92682 6.24892 5.15186C6.47396 5.37691 6.60039 5.68213 6.60039 6.00039C6.60039 6.31865 6.47396 6.62388 6.24892 6.84892C6.02387 7.07396 5.71865 7.20039 5.40039 7.20039C5.08213 7.20039 4.77691 7.07396 4.55186 6.84892C4.32682 6.62388 4.20039 6.31865 4.20039 6.00039ZM5.40039 3.60039C4.76387 3.60039 4.15342 3.85325 3.70333 4.30333C3.25325 4.75342 3.00039 5.36387 3.00039 6.00039C3.00039 6.63691 3.25325 7.24736 3.70333 7.69745C4.15342 8.14753 4.76387 8.40039 5.40039 8.40039C6.03691 8.40039 6.64736 8.14753 7.09745 7.69745C7.54753 7.24736 7.80039 6.63691 7.80039 6.00039C7.80039 5.36387 7.54753 4.75342 7.09745 4.30333C6.64736 3.85325 6.03691 3.60039 5.40039 3.60039ZM6.12039 17.998L6.00039 18.0004C5.36387 18.0004 4.75342 17.7475 4.30333 17.2974C3.85325 16.8474 3.60039 16.2369 3.60039 15.6004V11.1004C3.60039 11.0208 3.632 10.9445 3.68826 10.8883C3.74452 10.832 3.82083 10.8004 3.90039 10.8004H6.01719C6.06519 10.36 6.22119 9.95079 6.45519 9.60039H3.90039C3.07239 9.60039 2.40039 10.2724 2.40039 11.1004V15.6004C2.40033 16.1141 2.51024 16.6219 2.72271 17.0897C2.93519 17.5574 3.24532 17.9743 3.63226 18.3122C4.0192 18.6502 4.47399 18.9014 4.96607 19.049C5.45815 19.1966 5.97613 19.2372 6.48519 19.168C6.32397 18.7915 6.20174 18.3994 6.12039 17.998ZM17.5156 19.168C17.674 19.1896 17.8356 19.2004 18.0004 19.2004C18.9552 19.2004 19.8708 18.8211 20.546 18.146C21.2211 17.4708 21.6004 16.5552 21.6004 15.6004V11.1004C21.6004 10.2724 20.9284 9.60039 20.1004 9.60039H17.5456C17.7808 9.95079 17.9356 10.36 17.9836 10.8004H20.1004C20.18 10.8004 20.2563 10.832 20.3125 10.8883C20.3688 10.9445 20.4004 11.0208 20.4004 11.1004V15.6004C20.4005 15.9257 20.3344 16.2477 20.2062 16.5467C20.078 16.8457 19.8904 17.1155 19.6547 17.3398C19.419 17.564 19.1402 17.738 18.8352 17.8511C18.5301 17.9643 18.2053 18.0143 17.8804 17.998C17.799 18.3994 17.6768 18.7915 17.5156 19.168ZM8.70039 9.60039C7.87239 9.60039 7.20039 10.2724 7.20039 11.1004V16.8004C7.20039 18.0734 7.7061 19.2943 8.60628 20.1945C9.50645 21.0947 10.7274 21.6004 12.0004 21.6004C13.2734 21.6004 14.4943 21.0947 15.3945 20.1945C16.2947 19.2943 16.8004 18.0734 16.8004 16.8004V11.1004C16.8004 10.2724 16.1284 9.60039 15.3004 9.60039H8.70039ZM8.40039 11.1004C8.40039 11.0208 8.432 10.9445 8.48826 10.8883C8.54452 10.832 8.62083 10.8004 8.70039 10.8004H15.3004C15.38 10.8004 15.4563 10.832 15.5125 10.8883C15.5688 10.9445 15.6004 11.0208 15.6004 11.1004V16.8004C15.6004 17.7552 15.2211 18.6708 14.546 19.346C13.8708 20.0211 12.9552 20.4004 12.0004 20.4004C11.0456 20.4004 10.1299 20.0211 9.45481 19.346C8.77968 18.6708 8.40039 17.7552 8.40039 16.8004V11.1004Z" fill="#666666"/>
</svg>
