<svg width="71" height="70" viewBox="0 0 71 70" fill="none" xmlns="http://www.w3.org/2000/svg">
<rect opacity="0.02" x="0.400391" width="70" height="70" fill="#D9D9D9"/>
<path d="M31.462 32.1904C20.9908 32.1904 12.5 40.6812 12.5 51.1456V56.0866C12.5069 58.8003 14.7135 61.0001 17.4272 61.0001H45.4899C48.2037 61.0001 50.4103 58.8003 50.4172 56.0866V51.1456C50.4172 40.6744 41.9264 32.1836 31.4552 32.1836L31.462 32.1904Z" fill="#0F3654"/>
<path d="M44.8447 22.3837C44.8447 29.778 38.8484 35.7675 31.4609 35.7675C24.0735 35.7675 18.0703 29.778 18.0703 22.3837C18.0703 14.9894 24.0666 9 31.4609 9C38.8552 9 44.8447 14.9963 44.8447 22.3837Z" fill="#E6DEDD"/>
<path d="M34.4832 40.9961H55.2133C56.9265 40.9961 58.3108 42.3872 58.3108 44.0936V57.8954C58.3108 59.6086 56.9197 60.9929 55.2133 60.9929H34.4901C32.7769 60.9929 31.3926 59.6018 31.3926 57.8954V44.1005C31.3926 42.3872 32.7837 41.0029 34.4901 41.0029L34.4832 40.9961Z" fill="#E0EEFF"/>
<path d="M48.1276 40.9961H41.5625V47.102H48.1276V40.9961Z" fill="#246BEB"/>
</svg>
