<svg width="32" height="32" viewBox="0 0 32 32" fill="none" xmlns="http://www.w3.org/2000/svg">
<g clip-path="url(#clip0_1058_6236)">
<path d="M16 32C24.8366 32 32 24.8366 32 16C32 7.16344 24.8366 0 16 0C7.16344 0 0 7.16344 0 16C0 24.8366 7.16344 32 16 32Z" fill="#FFE227"/>
<path d="M15.9656 6.20314C13.1546 6.21049 10.4619 7.10188 8.47756 8.682C6.49317 10.2621 5.3789 12.4021 5.37891 14.633C5.37893 16.034 5.8189 17.4129 6.65903 18.645C7.49915 19.8771 8.71295 20.9237 10.1907 21.69C9.70586 23.2038 8.99817 25.5714 9.25481 25.7804C9.52767 26.0025 12.4561 24.0397 14.0752 22.9234C14.7103 23.0163 15.3548 23.0631 16.0006 23.0631C17.3955 23.0631 18.7767 22.8451 20.0654 22.4214C21.3541 21.9978 22.525 21.3768 23.5113 20.594C24.4976 19.8112 25.28 18.8819 25.8138 17.8591C26.3476 16.8363 26.6223 15.7401 26.6223 14.633C26.6222 12.3973 25.5032 10.2531 23.5112 8.67221C21.5193 7.09129 18.8176 6.20314 16.0006 6.20314C15.9889 6.20312 15.9773 6.20312 15.9656 6.20314Z" fill="#1A1A1A"/>
<path d="M8.00578 11.6133C7.63902 11.6133 7.34375 11.9085 7.34375 12.2753V12.2779C7.34375 12.6447 7.63902 12.9399 8.00578 12.9399H9.0403V16.9212C9.0403 17.2887 9.33625 17.5844 9.70372 17.5844C10.0712 17.5844 10.3669 17.2887 10.3669 16.9212V12.9399H11.4304C11.7972 12.9399 12.0925 12.6447 12.0925 12.2779V12.2753C12.0925 11.9085 11.7972 11.6133 11.4304 11.6133H9.70372H8.00578Z" fill="#FFE227"/>
<path d="M13.559 11.6094C13.4899 11.6094 13.4211 11.6186 13.3544 11.6368C13.1177 11.6645 12.9047 11.819 12.813 12.0577L11.0329 16.6885C10.9011 17.0315 11.0711 17.4138 11.4141 17.5456C11.7571 17.6774 12.1394 17.5076 12.2712 17.1646L12.5409 16.4627H14.6058L14.8757 17.1646C15.0075 17.5076 15.3898 17.6774 15.7328 17.5456C16.0758 17.4138 16.2457 17.0315 16.1138 16.6885L14.3339 12.0577C14.2368 11.8049 14.0035 11.6467 13.7503 11.6334C13.6878 11.6175 13.6235 11.6094 13.559 11.6094ZM13.5735 13.7766L14.096 15.136H13.0509L13.5735 13.7766Z" fill="#FFE227"/>
<path d="M17.1874 11.6133C16.813 11.6133 16.5117 11.9148 16.5117 12.2892V16.9085C16.5117 17.283 16.813 17.5844 17.1874 17.5844H19.235C19.6095 17.5844 19.911 17.283 19.911 16.9085C19.911 16.5341 19.6095 16.2326 19.235 16.2326H17.8634V12.2892C17.8634 11.9148 17.5619 11.6133 17.1874 11.6133Z" fill="#FFE227"/>
<path d="M20.8361 11.6133C20.4616 11.6133 20.1602 11.9148 20.1602 12.2892V16.9085C20.1602 17.283 20.4616 17.5844 20.8361 17.5844C21.2105 17.5844 21.5118 17.283 21.5118 16.9085V15.4896C21.5188 15.483 21.5261 15.4771 21.5328 15.4702L21.7686 15.2288L23.3409 17.3181C23.5661 17.6173 23.9881 17.677 24.2873 17.4519C24.5865 17.2267 24.646 16.8045 24.4209 16.5053L22.7241 14.2507L24.153 12.7881C24.4146 12.5203 24.4097 12.0938 24.1421 11.832C23.8744 11.5701 23.4482 11.575 23.1865 11.8429L21.5118 13.5571V12.2892C21.5118 11.9148 21.2105 11.6133 20.8361 11.6133Z" fill="#FFE227"/>
</g>
<defs>
<clipPath id="clip0_1058_6236">
<rect width="32" height="32" fill="white"/>
</clipPath>
</defs>
</svg>
