<svg width="32" height="32" viewBox="0 0 32 32" fill="none" xmlns="http://www.w3.org/2000/svg">
<path d="M11.9987 16.0013C11.9987 16.8854 11.6475 17.7332 11.0224 18.3583C10.3973 18.9834 9.54942 19.3346 8.66536 19.3346C7.78131 19.3346 6.93346 18.9834 6.30834 18.3583C5.68322 17.7332 5.33203 16.8854 5.33203 16.0013C5.33203 15.1172 5.68322 14.2694 6.30834 13.6443C6.93346 13.0192 7.78131 12.668 8.66536 12.668C9.54942 12.668 10.3973 13.0192 11.0224 13.6443C11.6475 14.2694 11.9987 15.1172 11.9987 16.0013Z" stroke="#222222" stroke-width="2"/>
<path d="M18.6667 8.66797L12 13.3346M18.6667 23.3346L12 18.668" stroke="#222222" stroke-width="2" stroke-linecap="round"/>
<path d="M25.3346 24.6667C25.3346 25.5507 24.9834 26.3986 24.3583 27.0237C23.7332 27.6488 22.8854 28 22.0013 28C21.1172 28 20.2694 27.6488 19.6443 27.0237C19.0192 26.3986 18.668 25.5507 18.668 24.6667C18.668 23.7826 19.0192 22.9348 19.6443 22.3096C20.2694 21.6845 21.1172 21.3333 22.0013 21.3333C22.8854 21.3333 23.7332 21.6845 24.3583 22.3096C24.9834 22.9348 25.3346 23.7826 25.3346 24.6667ZM25.3346 7.33333C25.3346 8.21739 24.9834 9.06523 24.3583 9.69036C23.7332 10.3155 22.8854 10.6667 22.0013 10.6667C21.1172 10.6667 20.2694 10.3155 19.6443 9.69036C19.0192 9.06523 18.668 8.21739 18.668 7.33333C18.668 6.44928 19.0192 5.60143 19.6443 4.97631C20.2694 4.35119 21.1172 4 22.0013 4C22.8854 4 23.7332 4.35119 24.3583 4.97631C24.9834 5.60143 25.3346 6.44928 25.3346 7.33333Z" stroke="#222222" stroke-width="2"/>
</svg>
