<svg width="65" height="64" viewBox="0 0 65 64" fill="none" xmlns="http://www.w3.org/2000/svg">
<path d="M51.6846 17.0656C51.6846 19.6421 49.2927 21.8656 46.3693 21.8656H20.7333C17.8099 21.8656 15.418 19.6421 15.418 17.0656C15.418 14.4891 17.8099 12.2656 20.7333 12.2656H46.3693C49.2927 12.2656 51.6846 14.4891 51.6846 17.0656Z" fill="#F1F1F1"/>
<path d="M46.3526 26.9318C46.3526 29.3651 43.9607 31.4651 41.0373 31.4651H15.4012C12.4778 31.4651 10.0859 29.3651 10.0859 26.9318C10.0859 24.4984 12.4778 22.3984 15.4012 22.3984H41.0373C43.9607 22.3984 46.3526 24.4984 46.3526 26.9318Z" fill="#F1F1F1"/>
<path d="M51.6846 36.5314C51.6846 38.9648 49.2927 41.0647 46.3693 41.0647H20.7333C17.8099 41.0647 15.418 38.9648 15.418 36.5314C15.418 34.098 17.8099 31.998 20.7333 31.998H46.3693C49.2927 31.998 51.6846 34.098 51.6846 36.5314Z" fill="#F1F1F1"/>
<path d="M46.3526 46.1329C46.3526 48.5663 43.9607 50.6663 41.0373 50.6663H15.4012C12.4778 50.6663 10.0859 48.5663 10.0859 46.1329C10.0859 43.6996 12.4778 41.5996 15.4012 41.5996H41.0373C43.9607 41.5996 46.3526 43.6996 46.3526 46.1329Z" fill="#F1F1F1"/>
<path d="M47.417 21.8652C55.6643 21.8652 62.3503 28.5506 62.3506 36.7979C62.3506 45.0453 55.6645 51.7314 47.417 51.7314C39.1697 51.7312 32.4844 45.0452 32.4844 36.7979C32.4846 28.5508 39.1699 21.8655 47.417 21.8652Z" fill="url(#paint0_linear_684_15918)" stroke="white" stroke-width="2.13333"/>
<path d="M55.1295 33.4717H53.7255L53.946 32.7733C54.0975 32.2926 53.8313 31.7795 53.3506 31.628C52.8698 31.4751 52.3582 31.7412 52.2053 32.222L51.8098 33.4731H48.7253L48.3695 32.1514C48.2622 31.753 47.9005 31.4648 47.4889 31.4648H47.3522C46.9537 31.4648 46.6009 31.7368 46.4818 32.1176L46.0584 33.4717H42.9812L42.646 32.2382C42.5137 31.7515 42.0124 31.4678 41.5257 31.6001C41.0391 31.7324 40.7524 32.2411 40.8847 32.7277L41.0861 33.4702H39.7997C39.2954 33.4702 38.8867 33.8789 38.8867 34.3832C38.8867 34.8875 39.2954 35.2962 39.7997 35.2962H41.5831L43.4752 42.2576C43.5811 42.6487 43.9339 42.7781 44.3382 42.9604H44.3559C44.7543 42.9604 45.1072 42.6781 45.2262 42.2973L47.3624 35.4432L49.1973 42.2547C49.3031 42.6457 49.6545 42.7766 50.0588 42.9604H50.0779C50.4749 42.9604 50.8277 42.6722 50.9483 42.2914L53.1521 35.2947H55.131C55.6353 35.2947 56.044 34.886 56.044 34.3817C56.044 33.8774 55.6353 33.4687 55.131 33.4687L55.1295 33.4717ZM44.4147 38.7379L43.4782 35.2962H45.4894L44.4147 38.7379ZM50.1455 38.7365L49.2178 35.2962H51.2335L50.1455 38.7365Z" fill="white"/>
<defs>
<linearGradient id="paint0_linear_684_15918" x1="47.5576" y1="70.8973" x2="82.0877" y2="36.3602" gradientUnits="userSpaceOnUse">
<stop stop-color="#F2FEF4"/>
<stop offset="1" stop-color="#2D873E"/>
</linearGradient>
</defs>
</svg>
