<svg width="20" height="20" viewBox="0 0 20 20" fill="none" xmlns="http://www.w3.org/2000/svg">
<path d="M2.1475 12.884C1.3825 11.918 1 11.4341 1 10C1 8.565 1.3825 8.08288 2.1475 7.116C3.6748 5.1875 6.2362 3 10 3C13.7638 3 16.3252 5.1875 17.8525 7.116C18.6175 8.08375 19 8.56587 19 10C19 11.435 18.6175 11.9171 17.8525 12.884C16.3252 14.8125 13.7638 17 10 17C6.2362 17 3.6748 14.8125 2.1475 12.884Z" stroke="#727272" stroke-width="1.25"/>
<path d="M12.8086 10C12.8086 10.663 12.5123 11.2989 11.9848 11.7678C11.4574 12.2366 10.742 12.5 9.99609 12.5C9.25017 12.5 8.5348 12.2366 8.00736 11.7678C7.47991 11.2989 7.18359 10.663 7.18359 10C7.18359 9.33696 7.47991 8.70107 8.00736 8.23223C8.5348 7.76339 9.25017 7.5 9.99609 7.5C10.742 7.5 11.4574 7.76339 11.9848 8.23223C12.5123 8.70107 12.8086 9.33696 12.8086 10Z" stroke="#727272" stroke-width="1.25"/>
</svg>
