<svg width="20" height="20" viewBox="0 0 20 20" fill="none" xmlns="http://www.w3.org/2000/svg">
<path d="M15.832 17.2904C16.053 17.2904 16.265 17.2026 16.4213 17.0463C16.5776 16.89 16.6654 16.678 16.6654 16.457V15.4187C16.6687 13.0804 13.3537 11.2487 9.9987 11.2487C6.6437 11.2487 3.33203 13.0804 3.33203 15.4187V16.457C3.33203 16.678 3.41983 16.89 3.57611 17.0463C3.73239 17.2026 3.94435 17.2904 4.16536 17.2904H15.832ZM13.002 5.71036C13.002 6.10477 12.9243 6.49531 12.7734 6.85969C12.6225 7.22407 12.4013 7.55516 12.1224 7.83404C11.8435 8.11293 11.5124 8.33415 11.148 8.48508C10.7836 8.63601 10.3931 8.7137 9.9987 8.7137C9.60429 8.7137 9.21375 8.63601 8.84937 8.48508C8.48499 8.33415 8.15391 8.11293 7.87502 7.83404C7.59614 7.55516 7.37491 7.22407 7.22398 6.85969C7.07305 6.49531 6.99536 6.10477 6.99536 5.71036C6.99536 4.91383 7.31179 4.14992 7.87502 3.58669C8.43825 3.02345 9.20216 2.70703 9.9987 2.70703C10.7952 2.70703 11.5591 3.02345 12.1224 3.58669C12.6856 4.14992 13.002 4.91383 13.002 5.71036Z" stroke="#666666" stroke-width="1.25" stroke-linecap="round" stroke-linejoin="round"/>
</svg>
