<svg width="20" height="20" viewBox="0 0 20 20" fill="none" xmlns="http://www.w3.org/2000/svg">
<path d="M10.4665 17.35C10.3305 17.4477 10.1673 17.5002 9.99982 17.5002C9.83238 17.5002 9.66915 17.4477 9.53315 17.35C5.50898 14.4817 1.23815 8.58167 5.55565 4.31833C6.74094 3.15237 8.33718 2.49927 9.99982 2.5C11.6665 2.5 13.2657 3.15417 14.444 4.3175C18.7615 8.58083 14.4907 14.48 10.4665 17.35Z" stroke="#666666" stroke-width="1.25" stroke-linecap="round" stroke-linejoin="round"/>
<path d="M9.9987 10.0013C10.4407 10.0013 10.8646 9.82571 11.1772 9.51315C11.4898 9.20059 11.6654 8.77666 11.6654 8.33464C11.6654 7.89261 11.4898 7.46869 11.1772 7.15612C10.8646 6.84356 10.4407 6.66797 9.9987 6.66797C9.55667 6.66797 9.13275 6.84356 8.82019 7.15612C8.50763 7.46869 8.33203 7.89261 8.33203 8.33464C8.33203 8.77666 8.50763 9.20059 8.82019 9.51315C9.13275 9.82571 9.55667 10.0013 9.9987 10.0013Z" stroke="#666666" stroke-width="1.25" stroke-linecap="round" stroke-linejoin="round"/>
</svg>
