<svg width="24" height="24" viewBox="0 0 24 24" fill="none" xmlns="http://www.w3.org/2000/svg">
<path d="M14.6846 11.5133L6.38281 10.0508V20.8575C6.38271 20.975 6.4058 21.0913 6.45075 21.1998C6.4957 21.3083 6.56162 21.4069 6.64475 21.4899C6.72787 21.5729 6.82656 21.6387 6.93515 21.6834C7.04375 21.7282 7.16011 21.7511 7.27756 21.7508H21.6026C21.7201 21.7513 21.8367 21.7285 21.9454 21.6839C22.0542 21.6392 22.1531 21.5734 22.2363 21.4904C22.3196 21.4074 22.3857 21.3088 22.4307 21.2002C22.4758 21.0916 22.4989 20.9751 22.4988 20.8575V16.8758L14.6846 11.5133Z" fill="#185C37"/>
<path d="M14.6846 2.25H7.27756C7.16011 2.24971 7.04375 2.2726 6.93515 2.31736C6.82656 2.36213 6.72787 2.42789 6.64475 2.51088C6.56162 2.59386 6.4957 2.69244 6.45075 2.80096C6.4058 2.90947 6.38271 3.0258 6.38281 3.14325V7.125L14.6846 12L19.0803 13.4625L22.4988 12V7.125L14.6846 2.25Z" fill="#21A366"/>
<path d="M6.38281 7.125H14.6846V12H6.38281V7.125Z" fill="#107C41"/>
<path opacity="0.1" d="M12.3243 6.14844H6.38281V18.3359H12.3243C12.5611 18.3348 12.7878 18.2403 12.9554 18.0731C13.1231 17.9059 13.218 17.6794 13.2198 17.4427V7.04169C13.218 6.80494 13.1231 6.57843 12.9554 6.41123C12.7878 6.24403 12.5611 6.14961 12.3243 6.14844Z" fill="black"/>
<path opacity="0.2" d="M11.8361 6.63672H6.38281V18.8242H11.8361C12.0728 18.823 12.2996 18.7286 12.4672 18.5614C12.6348 18.3942 12.7298 18.1677 12.7316 17.931V7.52997C12.7298 7.29322 12.6348 7.06671 12.4672 6.89951C12.2996 6.73231 12.0728 6.6379 11.8361 6.63672Z" fill="black"/>
<path opacity="0.2" d="M11.8361 6.63672H6.38281V17.8492H11.8361C12.0728 17.848 12.2996 17.7536 12.4672 17.5864C12.6348 17.4192 12.7298 17.1927 12.7316 16.956V7.52997C12.7298 7.29322 12.6348 7.06671 12.4672 6.89951C12.2996 6.73231 12.0728 6.6379 11.8361 6.63672Z" fill="black"/>
<path opacity="0.2" d="M11.3478 6.63672H6.38281V17.8492H11.3478C11.5846 17.848 11.8113 17.7536 11.9789 17.5864C12.1466 17.4192 12.2415 17.1927 12.2433 16.956V7.52997C12.2415 7.29322 12.1466 7.06671 11.9789 6.89951C11.8113 6.73231 11.5846 6.6379 11.3478 6.63672Z" fill="black"/>
<path d="M2.3955 6.63672H11.349C11.5862 6.63652 11.8137 6.7305 11.9816 6.89799C12.1496 7.06549 12.2441 7.2928 12.2445 7.52997V16.4685C12.2441 16.7056 12.1496 16.933 11.9816 17.1005C11.8137 17.2679 11.5862 17.3619 11.349 17.3617H2.3955C2.27798 17.3621 2.16154 17.3393 2.05286 17.2946C1.94418 17.2499 1.84541 17.1841 1.7622 17.1011C1.679 17.0181 1.613 16.9195 1.56801 16.8109C1.52301 16.7024 1.4999 16.586 1.5 16.4685V7.52997C1.4999 7.41245 1.52301 7.29607 1.56801 7.1875C1.613 7.07894 1.679 6.98033 1.7622 6.89733C1.84541 6.81434 1.94418 6.74859 2.05286 6.70387C2.16154 6.65915 2.27798 6.63633 2.3955 6.63672Z" fill="url(#paint0_linear_1115_6799)"/>
<path d="M4.27344 14.9032L6.15669 11.9903L4.43169 9.09375H5.81694L6.75819 10.9485C6.84519 11.124 6.90819 11.2545 6.93669 11.3415H6.94944C7.01094 11.201 7.07594 11.0645 7.14444 10.932L8.15094 9.09675H9.42594L7.65669 11.9767L9.47094 14.9055H8.11419L7.02669 12.8723C6.97634 12.7848 6.93344 12.6932 6.89844 12.5985H6.88044C6.84865 12.6908 6.80638 12.7791 6.75444 12.8617L5.63469 14.9032H4.27344Z" fill="white"/>
<path d="M21.6063 2.25001H14.6875V7.125H22.5018V3.14325C22.5019 3.02573 22.4787 2.90935 22.4337 2.80079C22.3887 2.69222 22.3228 2.59361 22.2395 2.51061C22.1563 2.42762 22.0576 2.36187 21.9489 2.31715C21.8402 2.27243 21.7238 2.24961 21.6063 2.25001Z" fill="#33C481"/>
<path d="M14.6875 12H22.5018V16.875H14.6875V12Z" fill="#107C41"/>
<defs>
<linearGradient id="paint0_linear_1115_6799" x1="3.3705" y1="5.93472" x2="10.374" y2="18.0637" gradientUnits="userSpaceOnUse">
<stop stop-color="#18884F"/>
<stop offset="0.5" stop-color="#117E43"/>
<stop offset="1" stop-color="#0B6631"/>
</linearGradient>
</defs>
</svg>
