<svg width="71" height="70" viewBox="0 0 71 70" fill="none" xmlns="http://www.w3.org/2000/svg">
<rect opacity="0.02" x="0.199219" width="70" height="70" fill="#D9D9D9"/>
<g clip-path="url(#clip0_684_16110)">
<path d="M56.1992 28.5079C56.1992 40.3908 46.8015 50.0158 35.1992 50.0158C23.5969 50.0158 14.1992 40.3908 14.1992 28.5079C14.1992 16.625 23.605 7 35.1992 7C46.7935 7 56.1992 16.6332 56.1992 28.5079Z" fill="#246BEB"/>
<path d="M45.7073 51.8045C45.7073 53.774 44.1463 55.3727 42.2234 55.3727H28.1831C26.2601 55.3727 24.6992 53.774 24.6992 51.8045C24.6992 49.835 26.2601 48.2363 28.1831 48.2363H42.2234C44.1463 48.2363 45.7073 49.835 45.7073 51.8045Z" fill="#C4DCFF"/>
<path d="M35.1988 64.0009C33.2758 64.0009 31.7148 62.4023 31.7148 60.4328V58.076C31.7148 56.1065 33.2758 54.5078 35.1988 54.5078C37.1217 54.5078 38.6827 56.1065 38.6827 58.076V60.4328C38.6827 62.4023 37.1217 64.0009 35.1988 64.0009Z" fill="#E6DEDD"/>
<path d="M45.7073 56.9295C45.7073 58.899 44.1463 60.4977 42.2234 60.4977H28.1831C26.2601 60.4977 24.6992 58.899 24.6992 56.9295C24.6992 54.96 26.2601 53.3613 28.1831 53.3613H42.2234C44.1463 53.3613 45.7073 54.96 45.7073 56.9295Z" fill="#C4DCFF"/>
<path d="M37.9819 29.4386C37.9819 31.0126 36.7348 32.2898 35.198 32.2898C33.6612 32.2898 32.4141 31.0126 32.4141 29.4386V20.613C32.4141 19.039 33.6612 17.7617 35.198 17.7617C36.7348 17.7617 37.9819 19.039 37.9819 20.613V29.4386Z" fill="white"/>
<path d="M37.9819 37.779C37.9819 39.3529 36.7348 40.6302 35.198 40.6302C33.6612 40.6302 32.4141 39.3529 32.4141 37.779C32.4141 36.205 33.6612 34.9277 35.198 34.9277C36.7348 34.9277 37.9819 36.205 37.9819 37.779Z" fill="white"/>
</g>
<defs>
<clipPath id="clip0_684_16110">
<rect width="42" height="57" fill="white" transform="translate(14.1992 7)"/>
</clipPath>
</defs>
</svg>
