<svg width="65" height="64" viewBox="0 0 65 64" fill="none" xmlns="http://www.w3.org/2000/svg">
<path d="M33.0662 6.93371C23.9165 6.90369 16.7786 12.7338 16.75 22.8358C16.735 28.4587 21.1446 34.598 21.1446 34.598C22.7221 36.8466 25.7134 42.4124 26.2964 45.7373C26.3339 46.4022 27.1332 46.9336 27.7462 46.9336H38.1549C38.7153 46.9336 39.1855 46.4863 39.2877 45.8994H39.6107C40.2027 42.5686 43.2255 36.9456 44.8316 34.6851C44.8316 34.6851 49.2682 28.5698 49.2832 22.9454C49.3118 12.8433 42.2174 6.96373 33.0662 6.93371Z" fill="url(#paint0_linear_684_15884)"/>
<path d="M42.0937 20.1426C36.2863 20.1456 33.6536 23.0919 32.9797 24.9036C32.3058 23.0919 29.6717 20.1456 23.8658 20.1426C20.9111 20.1426 25.516 28.7092 32.9812 27.1924C40.4449 28.7092 45.0498 20.1411 42.0952 20.1426H42.0937Z" fill="white"/>
<path d="M32.6264 35.64C31.7998 35.64 31.1289 34.9659 31.1289 34.1353V27.8153C31.1289 26.9847 31.7998 26.3105 32.6264 26.3105C33.4531 26.3105 34.124 26.9847 34.124 27.8153V34.1353C34.124 34.9659 33.4531 35.64 32.6264 35.64Z" fill="white"/>
<path d="M41.8148 47.4673C41.8148 48.685 40.7033 49.6007 39.3447 49.6007H26.685C25.3264 49.6007 24.2148 48.685 24.2148 47.4673C24.2148 46.2497 25.3264 45.334 26.685 45.334H39.3447C40.7033 45.334 41.8148 46.2497 41.8148 47.4673Z" fill="#F1F1F1"/>
<path d="M41.8148 51.7329C41.8148 52.9506 40.7033 53.8663 39.3447 53.8663H26.685C25.3264 53.8663 24.2148 52.9506 24.2148 51.7329C24.2148 50.5153 25.3264 49.5996 26.685 49.5996H39.3447C40.7033 49.5996 41.8148 50.5153 41.8148 51.7329Z" fill="#F1F1F1"/>
<path d="M41.8148 56.0005C41.8148 57.2182 40.7033 58.1339 39.3447 58.1339H26.685C25.3264 58.1339 24.2148 57.2182 24.2148 56.0005C24.2148 54.7829 25.3264 53.8672 26.685 53.8672H39.3447C40.7033 53.8672 41.8148 54.7829 41.8148 56.0005Z" fill="#F1F1F1"/>
<defs>
<linearGradient id="paint0_linear_684_15884" x1="33.1811" y1="76.1148" x2="81.9416" y2="36.4482" gradientUnits="userSpaceOnUse">
<stop stop-color="#F2FEF4"/>
<stop offset="1" stop-color="#2D873E"/>
</linearGradient>
</defs>
</svg>
