<svg width="71" height="70" viewBox="0 0 71 70" fill="none" xmlns="http://www.w3.org/2000/svg">
<rect opacity="0.02" x="0.601562" width="70" height="70" fill="#D9D9D9"/>
<path d="M31.6651 32.1904C21.1939 32.1904 12.7031 40.6812 12.7031 51.1456V56.0866C12.71 58.8003 14.9166 61.0001 17.6304 61.0001H45.6931C48.4068 61.0001 50.6135 58.8003 50.6203 56.0866V51.1456C50.6203 40.6744 42.1296 32.1836 31.6583 32.1836L31.6651 32.1904Z" fill="#C4DCFF"/>
<path d="M45.0478 22.3837C45.0478 29.778 39.0515 35.7675 31.664 35.7675C24.2766 35.7675 18.2734 29.778 18.2734 22.3837C18.2734 14.9894 24.2697 9 31.664 9C39.0583 9 45.0478 14.9963 45.0478 22.3837Z" fill="#E6DEDD"/>
<path d="M34.6883 40.9961H55.4184C57.1316 40.9961 58.5159 42.3872 58.5159 44.0936V57.8954C58.5159 59.6086 57.1248 60.9929 55.4184 60.9929H34.6952C32.9819 60.9929 31.5977 59.6018 31.5977 57.8954V44.1005C31.5977 42.3872 32.9888 41.0029 34.6952 41.0029L34.6883 40.9961Z" fill="#246BEB"/>
<path d="M48.3307 40.9961H41.7656V47.102H48.3307V40.9961Z" fill="white"/>
</svg>
