<svg width="32" height="32" viewBox="0 0 32 32" fill="none" xmlns="http://www.w3.org/2000/svg">
<g clip-path="url(#clip0_1058_6232)">
<path d="M16 32C7.1648 32 0 24.8352 0 16C0 7.1648 7.1648 0 16 0C24.8352 0 32 7.1648 32 16C32 24.8352 24.8352 32 16 32Z" fill="black"/>
<path d="M17.6468 14.4686L24.9321 6H23.2057L16.8799 13.3532L11.8274 6H6L13.6403 17.1193L6 26H7.72649L14.4068 18.2348L19.7425 26H25.5699L17.6464 14.4686H17.6468ZM15.2821 17.2173L14.508 16.1101L8.34857 7.29968H11.0004L15.9711 14.4099L16.7452 15.5172L23.2066 24.7594H20.5548L15.2821 17.2177V17.2173Z" fill="white"/>
</g>
<defs>
<clipPath id="clip0_1058_6232">
<rect width="32" height="32" fill="white"/>
</clipPath>
</defs>
</svg>
