<svg width="70" height="70" viewBox="0 0 70 70" fill="none" xmlns="http://www.w3.org/2000/svg">
<rect opacity="0.02" width="70" height="70" fill="#D9D9D9"/>
<path d="M54.7351 55.981C54.7351 58.7164 52.5168 60.9271 49.7889 60.9271H20.4344C17.6991 60.9271 15.4883 58.7089 15.4883 55.981V39.7862C15.4883 37.0508 17.7065 34.84 20.4344 34.84L35.1079 24.4082L49.7814 34.84C52.5168 34.84 54.7276 37.0583 54.7276 39.7862V55.981H54.7351Z" fill="#246BEB"/>
<path d="M34.4648 5.38122C34.4648 4.42197 35.1393 4.03227 35.9712 4.5119L46.1782 10.4023C47.01 10.8819 47.01 11.6613 46.1782 12.1409L35.9712 18.0388C35.1393 18.5184 34.4648 18.1287 34.4648 17.1695V5.38122Z" fill="#E6DEDD"/>
<path d="M61.1358 39.1119L36.7799 17.911C36.7349 17.8735 36.6974 17.8435 36.6525 17.8061C36.6525 17.8061 36.6525 17.8061 36.645 17.7986C36.0829 17.3864 35.371 17.199 34.6815 17.3189C34.2768 17.3864 33.9096 17.5587 33.5799 17.7986C33.5799 17.7986 33.5799 17.7986 33.5724 17.8061C33.5274 17.836 33.4824 17.8735 33.445 17.911L8.8717 39.1119C7.81502 40.0337 7.70261 41.6374 8.62439 42.6941L10.2956 44.6051C11.2174 45.6618 12.8211 45.7742 13.8778 44.8524L35.1087 26.5592L56.1222 44.8524C57.1789 45.7742 58.7826 45.6618 59.7044 44.6051L61.3756 42.6941C62.2974 41.6374 62.185 40.0337 61.1283 39.1119H61.1358Z" fill="#C4DCFF"/>
<path d="M34.9777 50.053C34.0678 48.248 31.228 44.4678 23.9414 46.4356C23.9414 46.4356 26.3703 55.4384 34.2439 51.5399L33.0845 60.9273H37.0103L35.8583 51.6212C43.6071 55.3274 46.0067 46.443 46.0067 46.443C38.7201 44.4752 35.8803 48.2554 34.9704 50.0604L34.9777 50.053Z" fill="white"/>
</svg>
