<svg width="20" height="20" viewBox="0 0 20 20" fill="none" xmlns="http://www.w3.org/2000/svg">
<path d="M8.75061 2.99951L3.75061 6.99951C3.27618 7.37906 3 7.95368 3 8.56125V16.4C3 16.8243 3.16389 17.2313 3.45561 17.5314C3.74733 17.8314 4.143 18 4.55556 18H6.66667C7.21895 18 7.66667 17.5523 7.66667 17V13.4C7.66667 12.8477 8.11438 12.4 8.66667 12.4H11.3333C11.8856 12.4 12.3333 12.8477 12.3333 13.4V17C12.3333 17.5523 12.781 18 13.3333 18H15.4444C15.857 18 16.2527 17.8314 16.5444 17.5314C16.8361 17.2313 17 16.8243 17 16.4V8.56125C17 7.95368 16.7238 7.37906 16.2494 6.99951L11.2494 2.99951C10.519 2.41516 9.48105 2.41516 8.75061 2.99951Z" fill="#222222"/>
</svg>
