<svg width="32" height="32" viewBox="0 0 32 32" fill="none" xmlns="http://www.w3.org/2000/svg">
<g clip-path="url(#clip0_1058_6228)">
<path d="M16 32C7.1648 32 0 24.8352 0 16C0 7.1648 7.1648 0 16 0C24.8352 0 32 7.1648 32 16C32 24.8352 24.8352 32 16 32Z" fill="#3B579D"/>
<path d="M20.1584 32.0007V19.6071H24.3184L24.9424 14.7783H20.1584V11.6935C20.1584 10.2951 20.5456 9.34154 22.552 9.34154H25.1088V5.02474C24.6672 4.96714 23.1472 4.83594 21.3808 4.83594C17.6944 4.83594 15.1696 7.08554 15.1696 11.2199V14.7815H11V19.6103H15.1696V32.0007H20.1584Z" fill="white"/>
</g>
<defs>
<clipPath id="clip0_1058_6228">
<rect width="32" height="32" fill="white"/>
</clipPath>
</defs>
</svg>
