<svg width="71" height="70" viewBox="0 0 71 70" fill="none" xmlns="http://www.w3.org/2000/svg">
<rect opacity="0.02" x="0.599609" width="70" height="70" fill="#D9D9D9"/>
<path d="M55.3347 55.979C55.3347 58.7144 53.1164 60.9252 50.3885 60.9252H21.034C18.2987 60.9252 16.0879 58.7069 16.0879 55.979V39.7842C16.0879 37.0489 18.3062 34.8381 21.034 34.8381L35.7075 24.4062L50.3811 34.8381C53.1164 34.8381 55.3272 37.0563 55.3272 39.7842V55.979H55.3347Z" fill="#E0EEFF"/>
<path d="M35.0645 5.37926C35.0645 4.42001 35.7389 4.03032 36.5708 4.50994L46.7778 10.4003C47.6096 10.88 47.6096 11.6593 46.7778 12.139L36.5708 18.0369C35.7389 18.5165 35.0645 18.1268 35.0645 17.1675V5.37926Z" fill="#E6DEDD"/>
<path d="M61.7354 39.1099L37.3795 17.909C37.3345 17.8715 37.297 17.8416 37.2521 17.8041C37.2521 17.8041 37.2521 17.8041 37.2446 17.7966C36.6825 17.3844 35.9706 17.1971 35.2811 17.317C34.8764 17.3844 34.5092 17.5568 34.1795 17.7966C34.1795 17.7966 34.1795 17.7966 34.172 17.8041C34.127 17.8341 34.082 17.8715 34.0446 17.909L9.47131 39.1099C8.41463 40.0317 8.30222 41.6355 9.224 42.6921L10.8952 44.6031C11.817 45.6598 13.4207 45.7722 14.4774 44.8504L35.7083 26.5573L56.7218 44.8504C57.7785 45.7722 59.3822 45.6598 60.304 44.6031L61.9752 42.6921C62.897 41.6355 62.7846 40.0317 61.7279 39.1099H61.7354Z" fill="#0F3654"/>
<path d="M35.5773 50.0491C34.6674 48.2441 31.8276 44.4639 24.541 46.4317C24.541 46.4317 26.9699 55.4344 34.8435 51.536L33.6841 60.9234H37.6099L36.4579 51.6173C44.2068 55.3235 46.6063 46.4391 46.6063 46.4391C39.3197 44.4713 36.4799 48.2515 35.57 50.0565L35.5773 50.0491Z" fill="#246BEB"/>
</svg>
