<svg width="65" height="64" viewBox="0 0 65 64" fill="none" xmlns="http://www.w3.org/2000/svg">
<path d="M41.7641 31.6014H23.2668C19.3295 31.6014 16.125 28.4269 16.125 24.5231V18.8127C16.125 14.9089 19.3295 11.7344 23.2668 11.7344H41.7641C45.7014 11.7344 48.9059 14.9089 48.9059 18.8127V24.5231C48.9059 28.4269 45.7014 31.6014 41.7641 31.6014ZM23.2668 14.8119C21.0404 14.8119 19.2301 16.6061 19.2301 18.8127V24.5231C19.2301 26.7297 21.0404 28.5239 23.2668 28.5239H41.7641C43.9905 28.5239 45.8008 26.7297 45.8008 24.5231V18.8127C45.8008 16.6061 43.9905 14.8119 41.7641 14.8119H23.2668Z" fill="url(#paint0_linear_684_15871)"/>
<path d="M48.1113 25.3867H16.7572C13.6704 25.3867 11.168 27.8669 11.168 30.9263V47.2619C11.168 50.3213 13.6704 52.8014 16.7572 52.8014H48.1113C51.1981 52.8014 53.7005 50.3213 53.7005 47.2619V30.9263C53.7005 27.8669 51.1981 25.3867 48.1113 25.3867Z" fill="url(#paint1_linear_684_15871)"/>
<path d="M50.1272 21.668H14.9056C11.8188 21.668 9.31641 24.1481 9.31641 27.2075V31.6838C9.31641 34.7432 11.8188 37.2234 14.9056 37.2234H50.1272C53.214 37.2234 55.7164 34.7432 55.7164 31.6838V27.2075C55.7164 24.1481 53.214 21.668 50.1272 21.668Z" fill="#F1F1F1"/>
<path d="M21.3806 41.7513C19.8373 41.7513 18.5859 40.5111 18.5859 38.9815V34.9807C18.5859 33.4512 19.8373 32.2109 21.3806 32.2109C22.9238 32.2109 24.1752 33.4512 24.1752 34.9807V38.9815C24.1752 40.5111 22.9238 41.7513 21.3806 41.7513Z" fill="#F1F1F1"/>
<path d="M44.0485 41.7513C42.5053 41.7513 41.2539 40.5111 41.2539 38.9815V34.9807C41.2539 33.4512 42.5053 32.2109 44.0485 32.2109C45.5918 32.2109 46.8431 33.4512 46.8431 34.9807V38.9815C46.8431 40.5111 45.5918 41.7513 44.0485 41.7513Z" fill="#F1F1F1"/>
<defs>
<linearGradient id="paint0_linear_684_15871" x1="32.6811" y1="46.095" x2="54.6074" y2="9.909" gradientUnits="userSpaceOnUse">
<stop stop-color="#F2FEF4"/>
<stop offset="1" stop-color="#2D873E"/>
</linearGradient>
<linearGradient id="paint1_linear_684_15871" x1="32.6492" y1="72.8013" x2="63.7333" y2="24.566" gradientUnits="userSpaceOnUse">
<stop stop-color="#F2FEF4"/>
<stop offset="1" stop-color="#2D873E"/>
</linearGradient>
</defs>
</svg>
