<svg width="24" height="24" viewBox="0 0 24 24" fill="none" xmlns="http://www.w3.org/2000/svg">
<path d="M11.5332 2.80566C11.7216 2.48569 12.0164 2.43963 12.2256 2.57129L12.2422 2.58105L12.2598 2.59082C12.3284 2.62682 12.3537 2.64898 12.3672 2.66309C12.3743 2.67049 12.3834 2.68155 12.3955 2.7002L12.4404 2.78223L15.0381 8.23242L15.1533 8.47266L15.417 8.51172L21.1123 9.35059L21.1484 9.35547H21.1855C21.2168 9.35565 21.3043 9.38064 21.3945 9.51465C21.483 9.64612 21.5146 9.80244 21.4932 9.91504L21.4844 9.96094V10.0088C21.4843 10.0354 21.4779 10.0569 21.4707 10.0703L21.4521 10.0898L21.3828 10.127L21.3271 10.1836L17.2305 14.376L17.0527 14.5576L17.0947 14.8076L18.0938 20.7822C18.1481 21.1373 17.935 21.3917 17.7178 21.457H17.5879C17.5366 21.457 17.4953 21.4573 17.457 21.4561C17.431 21.4552 17.4104 21.4518 17.3945 21.4502L17.3311 21.415L12.2354 18.585L11.9922 18.4502L11.75 18.585L6.65332 21.415L6.62988 21.4287C6.42159 21.5598 6.12895 21.5144 5.94043 21.1982C5.90583 21.1152 5.89914 21.0221 5.89844 20.8379L6.88965 14.9121L6.93164 14.6621L6.75391 14.4805L2.66113 10.292H2.66211C2.4736 10.0943 2.44958 9.82123 2.59082 9.60449L2.66211 9.51465L2.7168 9.45703L2.75098 9.38477C2.75268 9.38122 2.75411 9.37908 2.75488 9.37793C2.75366 9.3791 2.75358 9.37866 2.75684 9.37695C2.7656 9.37237 2.80511 9.35547 2.89941 9.35547H2.93555L2.97168 9.35059L8.66797 8.51172L8.93652 8.47266L9.0498 8.22559L11.5332 2.80566Z" stroke="#666666"/>
</svg>
