<svg width="71" height="70" viewBox="0 0 71 70" fill="none" xmlns="http://www.w3.org/2000/svg">
<rect opacity="0.02" x="0.800781" width="70" height="70" fill="#D9D9D9"/>
<path d="M24.8528 31.9014C14.3319 31.9014 5.80078 40.4325 5.80078 50.9466V55.911C5.80767 58.6376 8.02478 60.8479 10.7514 60.8479H38.9474C41.674 60.8479 43.8911 58.6376 43.898 55.911V50.9466C43.898 40.4256 35.3669 31.8945 24.846 31.8945L24.8528 31.9014Z" fill="#C4DCFF"/>
<path d="M38.2999 22.4473C38.2999 29.8767 32.2751 35.8946 24.8526 35.8946C17.4301 35.8946 11.3984 29.8767 11.3984 22.4473C11.3984 15.0179 17.4232 9 24.8526 9C32.282 9 38.2999 15.0248 38.2999 22.4473Z" fill="#E6DEDD"/>
<path d="M46.6781 31.9015C36.3075 31.9015 27.8984 40.5609 27.8984 51.2332V56.2723C27.9052 59.0399 30.0906 61.2834 32.7783 61.2834H60.5711C63.2587 61.2834 65.4441 59.0399 65.4509 56.2723V51.2332C65.4509 40.5539 57.0418 31.8945 46.6713 31.8945L46.6781 31.9015Z" fill="#246BEB"/>
<path d="M59.6984 22.4473C59.6984 29.8767 53.6736 35.8946 46.2511 35.8946C38.8285 35.8946 32.7969 29.8767 32.7969 22.4473C32.7969 15.0179 38.8216 9 46.2511 9C53.6805 9 59.6984 15.0248 59.6984 22.4473Z" fill="#CCCCCC"/>
</svg>
