<svg width="32" height="32" viewBox="0 0 32 32" fill="none" xmlns="http://www.w3.org/2000/svg">
<circle cx="16" cy="16" r="16" fill="#F8F8F8"/>
<path d="M15.9973 5C11.5887 5 8 8.61992 8 13.0668C8 20.8913 15.5465 26.8399 15.5465 26.8399C15.6753 26.9435 15.8352 27 16 27C16.1648 27 16.3247 26.9435 16.4535 26.8399C16.4535 26.8399 24 20.8913 24 13.0668C24 8.61992 20.4059 5 15.9973 5ZM15.9973 6.46718C19.62 6.46718 22.5454 9.41264 22.5455 13.0668C22.5455 19.4679 16.7991 24.5253 16.0027 25.2103C15.2101 24.5287 9.45454 19.4704 9.45455 13.0668C9.45455 9.41264 12.3746 6.46718 15.9973 6.46718Z" fill="#666666"/>
<path d="M15.9942 9.24805C13.9321 9.24805 12.2461 10.934 12.2461 12.9962C12.2461 15.0584 13.9321 16.7499 15.9942 16.7499C18.0564 16.7499 19.748 15.0584 19.7479 12.9962C19.7479 10.934 18.0564 9.24805 15.9942 9.24805ZM15.9942 10.7484C17.2458 10.7484 18.2476 11.7447 18.2476 12.9962C18.2476 14.2477 17.2458 15.2495 15.9942 15.2495C14.7427 15.2495 13.7465 14.2477 13.7465 12.9962C13.7465 11.7447 14.7427 10.7484 15.9942 10.7484Z" fill="#666666"/>
</svg>
