<svg width="120" height="120" viewBox="0 0 120 120" fill="none" xmlns="http://www.w3.org/2000/svg">
<path d="M60.5929 13.0002C43.4373 12.9439 30.0536 23.8753 30.0001 42.8166C29.9719 53.3596 38.2399 64.8707 38.2399 64.8707C41.1977 69.0868 46.8064 79.5228 47.8994 85.7569C47.9698 87.0037 49.4685 88 50.6178 88H70.1342C71.1849 88 72.0666 87.1613 72.2582 86.0608H72.8639C73.9738 79.8155 79.6416 69.2726 82.653 65.034C82.653 65.034 90.9717 53.5679 90.9998 43.0221C91.0534 24.0808 77.7514 13.0565 60.5929 13.0002Z" fill="url(#paint0_linear_719_1453)"/>
<path d="M77.5146 37.7681C66.6257 37.7737 61.6894 43.298 60.4259 46.695C59.1623 43.298 54.2233 37.7737 43.3372 37.7681C37.7973 37.7681 46.4315 53.8304 60.4287 50.9864C74.4231 53.8304 83.0573 37.7652 77.5174 37.7681H77.5146Z" fill="white"/>
<path d="M59.76 66.8258C58.2101 66.8258 56.9521 65.5618 56.9521 64.0044V52.1544C56.9521 50.597 58.2101 49.333 59.76 49.333C61.31 49.333 62.5679 50.597 62.5679 52.1544V64.0044C62.5679 65.5618 61.31 66.8258 59.76 66.8258Z" fill="white"/>
<path d="M77 89C77 91.2831 74.9158 93 72.3684 93H48.6316C46.0842 93 44 91.2831 44 89C44 86.7169 46.0842 85 48.6316 85H72.3684C74.9158 85 77 86.7169 77 89Z" fill="#F1F1F1"/>
<path d="M77 97C77 99.2831 74.9158 101 72.3684 101H48.6316C46.0842 101 44 99.2831 44 97C44 94.7169 46.0842 93 48.6316 93H72.3684C74.9158 93 77 94.7169 77 97Z" fill="#F1F1F1"/>
<path d="M77 105C77 107.283 74.9158 109 72.3684 109H48.6316C46.0842 109 44 107.283 44 105C44 102.717 46.0842 101 48.6316 101H72.3684C74.9158 101 77 102.717 77 105Z" fill="#F1F1F1"/>
<defs>
<linearGradient id="paint0_linear_719_1453" x1="47.3529" y1="26.9965" x2="76.7458" y2="70.2262" gradientUnits="userSpaceOnUse">
<stop stop-color="#FFE39E"/>
<stop offset="1" stop-color="#F9C032"/>
</linearGradient>
</defs>
</svg>
