<svg width="120" height="120" viewBox="0 0 120 120" fill="none" xmlns="http://www.w3.org/2000/svg">
<path d="M77.8409 59.2507H43.1585C35.776 59.2507 29.7676 53.2986 29.7676 45.9788V35.2719C29.7676 27.9522 35.776 22 43.1585 22H77.8409C85.2233 22 91.2317 27.9522 91.2317 35.2719V45.9788C91.2317 53.2986 85.2233 59.2507 77.8409 59.2507ZM43.1585 27.7704C38.984 27.7704 35.5897 31.1345 35.5897 35.2719V45.9788C35.5897 50.1162 38.984 53.4803 43.1585 53.4803H77.8409C82.0153 53.4803 85.4096 50.1162 85.4096 45.9788V35.2719C85.4096 31.1345 82.0153 27.7704 77.8409 27.7704H43.1585Z" fill="url(#paint0_linear_719_1440)"/>
<path d="M89.7414 47.5977H30.9525C25.1646 47.5977 20.4727 52.2479 20.4727 57.9843V88.6135C20.4727 94.35 25.1646 99.0002 30.9525 99.0002H89.7414C95.5292 99.0002 100.221 94.35 100.221 88.6135V57.9843C100.221 52.2479 95.5292 47.5977 89.7414 47.5977Z" fill="url(#paint1_linear_719_1440)"/>
<path d="M93.5202 40.624H27.4798C21.692 40.624 17 45.2743 17 51.0107V59.4037C17 65.1401 21.692 69.7904 27.4798 69.7904H93.5202C99.308 69.7904 104 65.1401 104 59.4037V51.0107C104 45.2743 99.308 40.624 93.5202 40.624Z" fill="#F1F1F1"/>
<path d="M39.613 78.2813C36.7194 78.2813 34.373 75.9558 34.373 73.0879V65.5864C34.373 62.7185 36.7194 60.3931 39.613 60.3931C42.5066 60.3931 44.8529 62.7185 44.8529 65.5864V73.0879C44.8529 75.9558 42.5066 78.2813 39.613 78.2813Z" fill="#F1F1F1"/>
<path d="M82.1149 78.2813C79.2213 78.2813 76.875 75.9558 76.875 73.0879V65.5864C76.875 62.7185 79.2213 60.3931 82.1149 60.3931C85.0085 60.3931 87.3548 62.7185 87.3548 65.5864V73.0879C87.3548 75.9558 85.0085 78.2813 82.1149 78.2813Z" fill="#F1F1F1"/>
<defs>
<linearGradient id="paint0_linear_719_1440" x1="47.2525" y1="28.9517" x2="56.7127" y2="57.1783" gradientUnits="userSpaceOnUse">
<stop stop-color="#FFE39E"/>
<stop offset="1" stop-color="#F9C032"/>
</linearGradient>
<linearGradient id="paint1_linear_719_1440" x1="43.1591" y1="57.1904" x2="56.8612" y2="95.6316" gradientUnits="userSpaceOnUse">
<stop stop-color="#FFE39E"/>
<stop offset="1" stop-color="#F9C032"/>
</linearGradient>
</defs>
</svg>
