<svg width="80" height="80" viewBox="0 0 80 80" fill="none" xmlns="http://www.w3.org/2000/svg">
<path d="M24.8575 33.8301H17.5185C16.6799 33.8301 16 34.5099 16 35.3486V60.858H26.376V35.3486C26.376 34.5099 25.6961 33.8301 24.8575 33.8301Z" fill="url(#paint0_linear_1573_7558)"/>
<path d="M56.1241 52.2151C58.2455 48.6481 57.8021 43.9771 54.7317 40.9082C52.917 39.0936 50.5375 38.1855 48.158 38.1855C45.7785 38.1855 43.4005 39.0936 41.5844 40.9082C37.9536 44.539 37.9536 50.4247 41.5844 54.0555C43.399 55.8701 45.7785 56.7782 48.158 56.7782C49.7661 56.7782 51.3606 56.3272 52.7956 55.4981L60.6964 63.3989L64.0006 60.0946L56.1241 52.2151ZM52.5845 51.9068C51.4016 53.0897 49.8299 53.7396 48.158 53.7396C46.4861 53.7396 44.9145 53.0882 43.7331 51.9068C41.2928 49.4666 41.2928 45.4957 43.7331 43.0554C44.916 41.8725 46.4877 41.2226 48.158 41.2226C49.8299 41.2226 51.4016 41.874 52.5845 43.0554C55.0247 45.4957 55.0247 49.4666 52.5845 51.9068Z" fill="#F1F1F1"/>
<path d="M56.6201 38.5249V18.5185C56.6201 17.6799 55.9403 17 55.1016 17H47.7627C46.924 17 46.2441 17.6799 46.2441 18.5185V35.3087C46.8728 35.2115 47.5106 35.1477 48.159 35.1477C51.3357 35.1477 54.3211 36.3504 56.6201 38.5249Z" fill="url(#paint1_linear_1573_7558)"/>
<path d="M39.4397 38.7608C40.0547 38.1458 40.7259 37.6098 41.4365 37.1451V27.8837C41.4365 27.0451 40.7567 26.3652 39.918 26.3652H32.5791C31.7404 26.3652 31.0605 27.0451 31.0605 27.8837V60.8597H41.4365V57.8181C40.7243 57.3535 40.0532 56.8159 39.4397 56.2024C34.6306 51.3933 34.6306 43.57 39.4397 38.7608Z" fill="url(#paint2_linear_1573_7558)"/>
<defs>
<linearGradient id="paint0_linear_1573_7558" x1="19.2579" y1="37.0302" x2="28.6491" y2="59.4047" gradientUnits="userSpaceOnUse">
<stop stop-color="#FFD774"/>
<stop offset="1" stop-color="#FD8337"/>
</linearGradient>
<linearGradient id="paint1_linear_1573_7558" x1="49.502" y1="19.5486" x2="55.8035" y2="38.4002" gradientUnits="userSpaceOnUse">
<stop stop-color="#FFD774"/>
<stop offset="1" stop-color="#FD8337"/>
</linearGradient>
<linearGradient id="paint2_linear_1573_7558" x1="34.3184" y1="30.4494" x2="48.2983" y2="56.5468" gradientUnits="userSpaceOnUse">
<stop stop-color="#FFD774"/>
<stop offset="1" stop-color="#FD8337"/>
</linearGradient>
</defs>
</svg>
