<svg width="60" height="61" viewBox="0 0 60 61" fill="none" xmlns="http://www.w3.org/2000/svg">
<path d="M48.3 3.89853H11.7375C10.6903 3.89359 9.65252 4.09557 8.68365 4.49289C7.71478 4.8902 6.83395 5.47501 6.09174 6.21373C5.34954 6.95244 4.76059 7.83052 4.35873 8.79751C3.95686 9.7645 3.74999 10.8014 3.75 11.8485V38.5204C3.75199 38.6999 3.77082 38.8788 3.80625 39.0548H3.75C3.75 40.6709 4.39202 42.2209 5.53482 43.3637C6.67762 44.5065 8.22759 45.1485 9.84375 45.1485H50.1562C51.7724 45.1485 53.3224 44.5065 54.4652 43.3637C55.608 42.2209 56.25 40.6709 56.25 39.0548H56.1937C56.2292 38.8788 56.248 38.6999 56.25 38.5204V11.8485C56.25 9.74005 55.4124 7.71794 53.9215 6.22703C52.4306 4.73611 50.4085 3.89853 48.3 3.89853ZM52.5 32.4173C52.5 33.8047 51.9488 35.1353 50.9678 36.1163C49.9868 37.0974 48.6562 37.6485 47.2687 37.6485H12.7312C11.3438 37.6485 10.0132 37.0974 9.0322 36.1163C8.05115 35.1353 7.5 33.8047 7.5 32.4173V11.8485C7.5 10.7346 7.9425 9.66633 8.73015 8.87868C9.5178 8.09102 10.5861 7.64853 11.7 7.64853H48.2625C48.8172 7.64357 49.3674 7.74855 49.8813 7.9574C50.3952 8.16626 50.8626 8.47484 51.2566 8.86534C51.6506 9.25584 51.9633 9.72052 52.1767 10.2325C52.3902 10.7446 52.5 11.2938 52.5 11.8485V32.4173Z" fill="#F18435"/>
<path d="M39.375 56.3984C39.8723 56.3984 40.3492 56.2009 40.7008 55.8493C41.0525 55.4976 41.25 55.0207 41.25 54.5234C41.25 54.0262 41.0525 53.5492 40.7008 53.1976C40.3492 52.846 39.8723 52.6484 39.375 52.6484H36.9281C36.5825 52.6484 36.2511 52.5111 36.0067 52.2668C35.7623 52.0224 35.625 51.6909 35.625 51.3453C35.625 50.6964 35.3672 50.074 34.9083 49.6151C34.4494 49.1562 33.8271 48.8984 33.1781 48.8984H26.8219C26.1729 48.8984 25.5506 49.1562 25.0917 49.6151C24.6328 50.074 24.375 50.6964 24.375 51.3453C24.375 51.6909 24.2377 52.0224 23.9933 52.2668C23.7489 52.5111 23.4175 52.6484 23.0719 52.6484H20.625C20.1277 52.6484 19.6508 52.846 19.2992 53.1976C18.9475 53.5492 18.75 54.0262 18.75 54.5234C18.75 55.0207 18.9475 55.4976 19.2992 55.8493C19.6508 56.2009 20.1277 56.3984 20.625 56.3984H39.375Z" fill="#F18435"/>
<path d="M41.5125 15.2984L37.8375 13.4234C37.7378 13.3762 37.6534 13.3019 37.5937 13.2092C37.5341 13.1164 37.5016 13.0087 37.5 12.8984C37.5 12.5006 37.342 12.1191 37.0607 11.8378C36.7794 11.5565 36.3978 11.3984 36 11.3984H24C23.8014 11.3984 23.6048 11.4378 23.4216 11.5144C23.2384 11.5909 23.0722 11.7031 22.9327 11.8444C22.7931 11.9857 22.683 12.1532 22.6087 12.3374C22.5345 12.5216 22.4975 12.7186 22.5 12.9172C22.4984 13.0275 22.4659 13.1351 22.4063 13.2279C22.3466 13.3207 22.2622 13.3949 22.1625 13.4422L18.4875 15.3172C17.9996 15.5645 17.5903 15.9429 17.3055 16.4099C17.0207 16.8769 16.8716 17.414 16.875 17.9609V19.2266C16.875 19.6617 17.0478 20.079 17.3555 20.3867C17.6632 20.6943 18.0805 20.8672 18.5156 20.8672H18.75C19.2473 20.8672 19.7242 20.6696 20.0758 20.318C20.4275 19.9664 20.625 19.4895 20.625 18.9922C20.6093 18.5329 20.7571 18.0829 21.0421 17.7224C21.3271 17.3619 21.7307 17.1142 22.1812 17.0234C22.4528 16.9766 22.7313 16.9901 22.997 17.0631C23.2626 17.1361 23.509 17.2668 23.7184 17.4458C23.9279 17.6248 24.0953 17.8478 24.2088 18.0989C24.3223 18.3499 24.379 18.6229 24.375 18.8984V19.0016C24.375 19.4988 24.5725 19.9758 24.9242 20.3274C25.2758 20.679 25.7527 20.8766 26.25 20.8766C26.7473 20.8766 27.2242 20.679 27.5758 20.3274C27.9275 19.9758 28.125 19.4988 28.125 19.0016C28.1066 18.542 28.252 18.0909 28.5354 17.7286C28.8187 17.3663 29.2214 17.1164 29.6719 17.0234C29.9441 16.975 30.2236 16.9874 30.4905 17.0597C30.7573 17.132 31.0049 17.2624 31.2154 17.4416C31.426 17.6208 31.5943 17.8443 31.7083 18.0962C31.8224 18.348 31.8793 18.622 31.875 18.8984V19.0016C31.875 19.4988 32.0725 19.9758 32.4242 20.3274C32.7758 20.679 33.2527 20.8766 33.75 20.8766C34.2473 20.8766 34.7242 20.679 35.0758 20.3274C35.4275 19.9758 35.625 19.4988 35.625 19.0016C35.6062 18.5433 35.7503 18.0933 36.0318 17.7311C36.3132 17.369 36.7138 17.1183 37.1625 17.0234C37.4354 16.9735 37.716 16.9847 37.984 17.0562C38.252 17.1278 38.5008 17.258 38.7125 17.4373C38.9241 17.6167 39.0933 17.8408 39.2079 18.0935C39.3225 18.3461 39.3795 18.6211 39.375 18.8984C39.3747 19.402 39.5701 19.8859 39.92 20.248C40.2699 20.6101 40.7468 20.822 41.25 20.8391H41.3437C41.5762 20.8454 41.8076 20.8048 42.0241 20.7199C42.2405 20.635 42.4377 20.5074 42.6039 20.3447C42.7701 20.182 42.9019 19.9876 42.9914 19.7729C43.0809 19.5583 43.1263 19.3279 43.125 19.0953V17.9609C43.1319 17.4108 42.9845 16.8697 42.6994 16.3991C42.4144 15.9285 42.0032 15.5472 41.5125 15.2984Z" fill="#F18435"/>
<path d="M36.6656 21.319C36.3146 21.7546 35.8706 22.1061 35.3661 22.3478C34.8616 22.5895 34.3094 22.7153 33.75 22.7159H33.6844C33.1289 22.7136 32.5809 22.588 32.0799 22.348C31.5789 22.108 31.1375 21.7598 30.7875 21.3284C30.6911 21.2038 30.5675 21.103 30.4261 21.0336C30.2847 20.9643 30.1294 20.9282 29.9719 20.9282C29.8144 20.9282 29.659 20.9643 29.5176 21.0336C29.3762 21.103 29.2526 21.2038 29.1562 21.3284C28.8053 21.761 28.3624 22.11 27.8597 22.35C27.3569 22.59 26.8071 22.715 26.25 22.7159C25.6945 22.7136 25.1465 22.588 24.6455 22.348C24.1445 22.108 23.7031 21.7598 23.3531 21.3284C23.2568 21.2038 23.1331 21.103 22.9918 21.0336C22.8504 20.9643 22.695 20.9282 22.5375 20.9282C22.38 20.9282 22.2246 20.9643 22.0832 21.0336C21.9419 21.103 21.8182 21.2038 21.7219 21.3284C21.364 21.7697 20.9105 22.1239 20.3957 22.3643C19.8808 22.6046 19.3181 22.7249 18.75 22.7159V32.4284C18.75 32.8188 18.9051 33.1931 19.1811 33.4692C19.4571 33.7452 19.8315 33.9003 20.2219 33.9003H21.2813C21.6045 33.9003 21.9145 33.7719 22.143 33.5433C22.3716 33.3147 22.5 33.0048 22.5 32.6815V28.369C22.4843 27.9097 22.6321 27.4598 22.9171 27.0992C23.2021 26.7387 23.6057 26.491 24.0562 26.4003C24.3278 26.3534 24.6063 26.3669 24.872 26.4399C25.1376 26.5129 25.384 26.6436 25.5934 26.8226C25.8029 27.0016 25.9703 27.2246 26.0838 27.4757C26.1973 27.7268 26.254 27.9998 26.25 28.2753V32.6815C26.25 33.0048 26.3784 33.3147 26.607 33.5433C26.8355 33.7719 27.1455 33.9003 27.4687 33.9003H39.7781C40.1685 33.9003 40.5429 33.7452 40.8189 33.4692C41.0949 33.1931 41.25 32.8188 41.25 32.4284V22.7065C40.6953 22.6997 40.1488 22.5721 39.6484 22.3324C39.1481 22.0928 38.7061 21.747 38.3531 21.319C38.2532 21.1905 38.1253 21.0865 37.979 21.015C37.8328 20.9434 37.6722 20.9062 37.5094 20.9062C37.3466 20.9063 37.1859 20.9434 37.0397 21.015C36.8935 21.0865 36.7655 21.1905 36.6656 21.319ZM35.625 30.1503H31.9687C31.5095 30.166 31.0595 30.0182 30.699 29.7332C30.3384 29.4482 30.0908 29.0445 30 28.594C29.9531 28.3225 29.9667 28.044 30.0397 27.7783C30.1127 27.5126 30.2433 27.2663 30.4223 27.0568C30.6014 26.8474 30.8243 26.68 31.0754 26.5665C31.3265 26.453 31.5995 26.3963 31.875 26.4003H35.5031C35.9577 26.3913 36.4009 26.5422 36.7556 26.8266C37.1102 27.111 37.3538 27.5109 37.4437 27.9565C37.4898 28.2234 37.4775 28.497 37.4078 28.7587C37.338 29.0203 37.2124 29.2637 37.0395 29.4722C36.8667 29.6807 36.6508 29.8492 36.4066 29.9663C36.1624 30.0833 35.8958 30.1461 35.625 30.1503Z" fill="#F18435"/>
</svg>
