<svg width="130" height="130" viewBox="0 0 130 130" fill="none" xmlns="http://www.w3.org/2000/svg">
<rect width="130" height="130" rx="65" fill="#F8F8F8"/>
<path d="M95.3346 41.5574V41.5622V61.2497C95.3346 70.3617 92.742 78.8723 87.4955 86.8417C82.3012 94.7319 75.3783 100.082 66.6575 102.987L66.6568 102.987C66.3829 103.078 66.1184 103.144 65.8623 103.186C65.6308 103.225 65.3463 103.25 65.0013 103.25C64.6563 103.25 64.3718 103.225 64.1403 103.186C63.8842 103.144 63.6198 103.078 63.3458 102.987C54.6244 100.08 47.7011 94.7289 42.5068 86.8414C37.2606 78.8751 34.668 70.3647 34.668 61.2497V41.5622C34.668 40.4514 34.9764 39.5074 35.6081 38.6372L33.1805 36.8747L35.6081 38.6372C36.2766 37.7164 37.11 37.0699 38.1608 36.6543L63.1139 27.2969C63.7749 27.0631 64.3999 26.958 65.0013 26.958C65.6027 26.958 66.2277 27.0631 66.8887 27.2969L91.8428 36.6547C92.8968 37.0707 93.7309 37.7175 94.3986 38.6372C95.0294 39.506 95.3364 40.4482 95.3346 41.5574Z" fill="url(#paint0_linear_925_716)" stroke="#FFE3AE" stroke-width="6"/>
<path d="M61.2079 70.0713L74.3615 56.4811C74.6719 56.1604 75.0341 56 75.448 56C75.8618 56 76.224 56.1604 76.5344 56.4811C76.8448 56.8018 77 57.1829 77 57.6244C77 58.0659 76.8448 58.4465 76.5344 58.7661L62.2944 73.5189C61.984 73.8396 61.6218 74 61.2079 74C60.7941 74 60.4319 73.8396 60.1215 73.5189L53.4477 66.6236C53.1373 66.3029 52.9883 65.9223 53.0007 65.4819C53.0131 65.0414 53.1751 64.6603 53.4865 64.3385C53.798 64.0167 54.1668 63.8564 54.5931 63.8575C55.0194 63.8585 55.3878 64.0189 55.6982 64.3385L61.2079 70.0713Z" fill="#FFE2AE"/>
<defs>
<linearGradient id="paint0_linear_925_716" x1="52.6001" y1="33.7014" x2="67.9303" y2="110.777" gradientUnits="userSpaceOnUse">
<stop stop-color="#F9C032"/>
<stop offset="1" stop-color="#FD8337"/>
</linearGradient>
</defs>
</svg>
