<svg width="60" height="61" viewBox="0 0 60 61" fill="none" xmlns="http://www.w3.org/2000/svg">
<path d="M30 3.89844C24.8083 3.89844 19.7331 5.43797 15.4163 8.32236C11.0995 11.2067 7.73497 15.3064 5.74817 20.103C3.76137 24.8996 3.24154 30.1776 4.2544 35.2696C5.26726 40.3616 7.76733 45.0389 11.4385 48.71C15.1096 52.3811 19.7869 54.8812 24.8789 55.8941C29.9709 56.9069 35.2489 56.3871 40.0455 54.4003C44.842 52.4135 48.9417 49.0489 51.8261 44.7322C54.7105 40.4154 56.25 35.3402 56.25 30.1484C56.25 23.1865 53.4844 16.5097 48.5616 11.5869C43.6387 6.66405 36.9619 3.89844 30 3.89844ZM30 11.4734C31.8542 11.4734 33.6668 12.0233 35.2085 13.0534C36.7502 14.0835 37.9518 15.5477 38.6614 17.2608C39.371 18.9738 39.5566 20.8588 39.1949 22.6774C38.8331 24.496 37.9403 26.1664 36.6291 27.4776C35.318 28.7887 33.6476 29.6816 31.829 30.0433C30.0104 30.405 28.1254 30.2194 26.4124 29.5098C24.6993 28.8002 23.2351 27.5986 22.205 26.0569C21.1748 24.5152 20.625 22.7026 20.625 20.8484C20.625 18.3701 21.6063 15.9926 23.3543 14.2358C25.1023 12.479 27.4749 11.4858 29.9531 11.4734H30ZM42.2813 44.2859C38.8736 47.2395 34.5095 48.8553 30 48.8328C25.5204 48.8274 21.1931 47.2063 17.8125 44.2672C17.3975 43.9012 17.0652 43.4511 16.8375 42.9468C16.6099 42.4425 16.4921 41.8955 16.4921 41.3422C16.4921 40.7889 16.6099 40.2419 16.8375 39.7376C17.0652 39.2333 17.3975 38.7832 17.8125 38.4172C20.4619 36.1194 23.7163 34.6321 27.1875 34.1328C27.3995 34.1083 27.6142 34.1361 27.8128 34.214C28.0115 34.2918 28.188 34.4172 28.3269 34.5792C28.4657 34.7412 28.5627 34.9348 28.6092 35.1431C28.6557 35.3513 28.6504 35.5677 28.5938 35.7734L26.4656 41.4734C26.3977 41.7436 26.4017 42.0269 26.4774 42.295C26.5531 42.5632 26.6977 42.8068 26.8969 43.0016L28.4063 44.4828C28.8304 44.8991 29.401 45.1323 29.9953 45.1323C30.5896 45.1323 31.1602 44.8991 31.5844 44.4828L33.0844 43.0016C33.2795 42.8101 33.4212 42.5709 33.4952 42.3078C33.5692 42.0446 33.573 41.7667 33.5063 41.5016C33.0469 39.6734 31.9781 38.2203 31.3688 35.7734C31.3102 35.5643 31.3049 35.3439 31.3532 35.1322C31.4015 34.9206 31.5019 34.7243 31.6454 34.5613C31.7888 34.3983 31.9707 34.2737 32.1746 34.1989C32.3784 34.1241 32.5977 34.1013 32.8125 34.1328C36.3102 34.6183 39.5924 36.1064 42.2625 38.4172C42.6729 38.7885 42.9995 39.2428 43.2207 39.75C43.4419 40.2573 43.5527 40.8058 43.5456 41.3591C43.5385 41.9124 43.4137 42.4579 43.1796 42.9593C42.9454 43.4607 42.6072 43.9066 42.1875 44.2672L42.2813 44.2859Z" fill="#F18435"/>
</svg>
