<svg width="65" height="64" viewBox="0 0 65 64" fill="none" xmlns="http://www.w3.org/2000/svg">
<path d="M58.3376 21.456C57.3307 19.0928 55.4365 17.2191 53.0624 16.2379C52.8904 16.1638 52.7439 16.0409 52.641 15.8844C52.538 15.7279 52.4831 15.5447 52.4831 15.3574C52.4819 15.2236 52.5083 15.0909 52.5605 14.9676C52.6127 14.8443 52.6897 14.7331 52.7866 14.6407C52.8459 14.5842 52.9025 14.5288 52.945 14.484C53.2452 14.168 53.5101 13.8203 53.735 13.4469C54.3264 12.4603 54.6196 11.3236 54.5793 10.174C54.5389 9.02446 54.1667 7.91113 53.5076 6.96841C52.8485 6.02569 51.9306 5.29388 50.8647 4.86129C49.7989 4.4287 48.6306 4.31383 47.5009 4.53054C46.3498 4.73209 45.2859 5.27535 44.4477 6.08968C43.6095 6.904 43.0357 7.95171 42.8009 9.09654C42.5839 10.0823 42.6208 11.1071 42.9082 12.0747C43.1956 13.0423 43.724 13.921 44.444 14.6284C44.5417 14.721 44.62 14.8322 44.6741 14.9554C44.7283 15.0786 44.7573 15.2115 44.7594 15.346V15.351C44.7611 15.5399 44.7069 15.7251 44.6037 15.8834C44.5006 16.0416 44.3529 16.1659 44.1794 16.2405C43.6436 16.4653 43.1286 16.737 42.6406 17.0525C43.4932 18.0426 44.1974 19.1512 44.7312 20.3437C45.5995 22.3112 46.0364 24.4419 46.0124 26.5923V27.8785C46.0083 28.6003 45.8385 29.3115 45.5163 29.9573H57.3003C57.5734 29.9574 57.8438 29.9037 58.0961 29.7993C58.3484 29.6949 58.5776 29.5417 58.7707 29.3487C58.9638 29.1556 59.117 28.9264 59.2215 28.6742C59.326 28.4219 59.3798 28.1515 59.3797 27.8784V26.5922C59.4008 24.8256 59.0456 23.0747 58.3376 21.456Z" fill="url(#paint0_linear_1573_6083)"/>
<path d="M15.3552 36.6895H8.79711C8.66009 36.6895 8.52442 36.7164 8.39784 36.7689C8.27126 36.8213 8.15625 36.8982 8.05938 36.9951C7.96251 37.092 7.88567 37.207 7.83326 37.3336C7.78084 37.4602 7.75388 37.5958 7.75391 37.7329V60.1145C7.75388 60.2515 7.78084 60.3871 7.83326 60.5137C7.88567 60.6403 7.9625 60.7554 8.05938 60.8523C8.15625 60.9492 8.27126 61.026 8.39784 61.0785C8.52442 61.1309 8.66009 61.1579 8.79711 61.158H15.3552C15.6539 61.158 15.9497 61.0992 16.2257 60.9849C16.5017 60.8706 16.7525 60.7031 16.9637 60.4919C17.175 60.2807 17.3425 60.0299 17.4568 59.7539C17.5712 59.478 17.63 59.1822 17.63 58.8835V38.9635C17.63 38.6648 17.5711 38.369 17.4567 38.0931C17.3424 37.8172 17.1748 37.5665 16.9636 37.3553C16.7523 37.1442 16.5016 36.9767 16.2256 36.8624C15.9496 36.7482 15.6539 36.6894 15.3552 36.6895Z" fill="#F1F1F1"/>
<path d="M56.5774 39.3643C56.2307 38.8364 55.7581 38.4032 55.2021 38.1037C54.6461 37.8041 54.0243 37.6477 53.3928 37.6485H50.8228C49.7201 37.6462 48.6418 37.9724 47.7253 38.5856C46.8088 39.1988 46.0959 40.0712 45.6773 41.0914C45.4288 41.6844 45.0826 42.2316 44.6531 42.7101C43.9232 43.8308 42.9356 44.7606 41.7728 45.4215C40.6101 46.0825 39.3059 46.4555 37.9695 46.5093L30.3572 46.5098C29.9992 46.5098 29.6558 46.3675 29.4026 46.1144C29.1495 45.8612 29.0072 45.5178 29.0072 45.1598C29.0072 44.8017 29.1495 44.4583 29.4026 44.2052C29.6558 43.952 29.9992 43.8098 30.3572 43.8098H37.9334C38.9068 43.7848 39.8525 43.4805 40.6578 42.9332V42.8875C40.6605 42.2005 40.5275 41.5197 40.2664 40.8842C40.0054 40.2488 39.6214 39.6711 39.1366 39.1843C38.6518 38.6976 38.0756 38.3114 37.4412 38.0478C36.8068 37.7842 36.1265 37.6485 35.4395 37.6485H29.8535C28.8328 37.6455 27.8216 37.8446 26.8782 38.2342C25.9348 38.6238 25.0777 39.1962 24.3565 39.9185L24.2139 40.0606C23.157 41.1159 21.7998 41.8188 20.3281 42.0733V56.9849H40.6995C43.72 56.9868 46.6746 56.1022 49.197 54.4407C51.7194 52.7792 53.6987 50.414 54.8895 47.6382L56.8963 42.9673C57.1466 42.3875 57.2485 41.7545 57.1928 41.1254C57.1371 40.4964 56.9256 39.8911 56.5774 39.3643Z" fill="#F1F1F1"/>
<path d="M5.73331 26.6038C5.71218 24.8366 6.06667 23.0851 6.77332 21.4651C7.77846 19.0998 9.67191 17.2235 12.0463 16.2398C12.2198 16.1652 12.3675 16.0409 12.4706 15.8827C12.5738 15.7244 12.628 15.5393 12.6263 15.3503V15.3453C12.6242 15.2107 12.5952 15.0779 12.5411 14.9547C12.4869 14.8314 12.4087 14.7202 12.311 14.6276C11.591 13.9202 11.0624 13.0415 10.775 12.074C10.4875 11.1064 10.4505 10.0816 10.6674 9.09585C10.9022 7.951 11.476 6.90328 12.3142 6.08893C13.1524 5.27459 14.2163 4.73131 15.3674 4.52975C16.6067 4.29063 17.89 4.45138 19.032 4.98882C20.1741 5.52627 21.1159 6.41261 21.7216 7.51998C22.3272 8.62735 22.5655 9.8985 22.4019 11.15C22.2383 12.4016 21.6814 13.5688 20.8115 14.4833C20.769 14.528 20.7123 14.5833 20.6532 14.64C20.5562 14.7323 20.4792 14.8436 20.427 14.9669C20.3748 15.0902 20.3485 15.2229 20.3497 15.3567C20.3497 15.5441 20.4046 15.7273 20.5075 15.8838C20.6105 16.0403 20.7571 16.1631 20.9291 16.2372C23.3031 17.2185 25.1973 19.0922 26.2042 21.4554C26.912 23.0742 27.2671 24.8251 27.2459 26.5916V27.8777C27.2459 28.4291 27.0269 28.9579 26.637 29.3477C26.2471 29.7376 25.7184 29.9566 25.167 29.9566H7.81222C7.26086 29.9566 6.7321 29.7376 6.34224 29.3477C5.95238 28.9579 5.73334 28.4291 5.73331 27.8777V26.6038Z" fill="url(#paint1_linear_1573_6083)"/>
<path d="M42.2709 21.4559C41.264 19.0927 39.37 17.219 36.996 16.2378C36.8239 16.1638 36.6772 16.0409 36.5741 15.8845C36.471 15.728 36.4161 15.5447 36.416 15.3573C36.4148 15.2234 36.4412 15.0906 36.4934 14.9673C36.5457 14.844 36.6227 14.7327 36.7197 14.6404C36.7788 14.5839 36.8355 14.5285 36.8779 14.4837C37.1783 14.1678 37.4432 13.8201 37.6679 13.4466C38.2592 12.46 38.5523 11.3234 38.512 10.1739C38.4716 9.02444 38.0994 7.9112 37.4404 6.96854C36.7813 6.02588 35.8636 5.29408 34.7978 4.86145C33.7321 4.42882 32.5639 4.31385 31.4343 4.53041C30.2832 4.73198 29.2193 5.27525 28.3811 6.08957C27.5429 6.90389 26.9691 7.95159 26.7343 9.09641C26.5173 10.0822 26.5542 11.1069 26.8417 12.0746C27.1291 13.0422 27.6576 13.9209 28.3776 14.6283C28.4753 14.7209 28.5535 14.8321 28.6076 14.9553C28.6617 15.0785 28.6907 15.2113 28.6928 15.3459V15.3509C28.6945 15.5398 28.6404 15.725 28.5372 15.8833C28.434 16.0415 28.2864 16.1658 28.1128 16.2404C27.577 16.4652 27.0621 16.7369 26.5742 17.0524C27.4267 18.0424 28.1307 19.1511 28.6642 20.3436C29.5327 22.3111 29.9697 24.4417 29.9457 26.5922V27.8784C29.9416 28.6001 29.7719 29.3113 29.4497 29.9571H41.2338C41.5068 29.9571 41.7772 29.9034 42.0294 29.7989C42.2816 29.6945 42.5108 29.5413 42.7038 29.3483C42.8969 29.1553 43.05 28.9261 43.1545 28.6739C43.259 28.4216 43.3127 28.1513 43.3127 27.8783V26.5921C43.3339 24.8255 42.9788 23.0746 42.2709 21.4559Z" fill="url(#paint2_linear_1573_6083)"/>
<defs>
<linearGradient id="paint0_linear_1573_6083" x1="47.8967" y1="7.447" x2="53.6589" y2="30.8919" gradientUnits="userSpaceOnUse">
<stop stop-color="#FFD774"/>
<stop offset="1" stop-color="#FD8337"/>
</linearGradient>
<linearGradient id="paint1_linear_1573_6083" x1="12.4876" y1="7.4452" x2="17.0746" y2="31.4303" gradientUnits="userSpaceOnUse">
<stop stop-color="#FFD774"/>
<stop offset="1" stop-color="#FD8337"/>
</linearGradient>
<linearGradient id="paint2_linear_1573_6083" x1="31.8301" y1="7.44697" x2="37.5924" y2="30.8916" gradientUnits="userSpaceOnUse">
<stop stop-color="#FFD774"/>
<stop offset="1" stop-color="#FD8337"/>
</linearGradient>
</defs>
</svg>
