<svg width="40" height="40" viewBox="0 0 40 40" fill="none" xmlns="http://www.w3.org/2000/svg">
<path d="M35.7227 15.4168H35.4297V14.8937C35.4297 13.857 34.5863 13.0137 33.5496 13.0137H32.0703V10.2012C32.0703 9.03477 31.1215 8.08437 29.9551 8.08242L10.052 8.04883H10.0484C9.4832 8.04883 8.95156 8.26875 8.55156 8.66836C8.15039 9.06875 7.92969 9.60117 7.92969 10.1676V13.0137H6.45039C5.41367 13.0137 4.57031 13.857 4.57031 14.8937V15.4168H4.27734C3.83594 15.4168 3.47656 15.7762 3.47656 16.2176V20.6316C3.47656 21.073 3.83594 21.4324 4.27734 21.4324H6.03516C6.47656 21.4324 6.83594 21.073 6.83594 20.6316V16.2176C6.83594 15.7762 6.47656 15.4168 6.03516 15.4168H5.74219V14.8937C5.74219 14.5035 6.05977 14.1855 6.45039 14.1855H7.92969V30.4613C7.92969 31.6039 8.84023 32.5395 9.97383 32.5785V34.1922C9.97383 34.8094 10.4762 35.3117 11.0934 35.3117H13.1254C13.7426 35.3117 14.2449 34.8094 14.2449 34.1922V32.5871L25.5469 32.6062V34.1922C25.5469 34.8094 26.0492 35.3117 26.6664 35.3117H28.6984C29.3156 35.3117 29.818 34.8094 29.818 34.1922V32.6133L29.948 32.6137H29.9516C30.5168 32.6137 31.0484 32.3937 31.4484 31.9941C31.8496 31.5938 32.0703 31.0613 32.0703 30.4949V14.1855H33.5496C33.9402 14.1855 34.2578 14.5035 34.2578 14.8937V15.4168H33.9648C33.5234 15.4168 33.1641 15.7762 33.1641 16.2176V20.6316C33.1641 21.073 33.5234 21.4324 33.9648 21.4324H35.7227C36.1641 21.4324 36.5234 21.073 36.5234 20.6316V16.2176C36.5234 15.7762 36.1641 15.4168 35.7227 15.4168ZM30.5078 13.5367V21.0949C30.5078 21.5969 30.0996 22.0047 29.598 22.0047H27.1195C26.4586 22.0047 25.8367 22.2961 25.4137 22.8039L23.8574 24.6715C23.732 24.8219 23.548 24.9082 23.352 24.9082H23.3488L16.6504 24.8758C16.4555 24.8746 16.2727 24.7883 16.148 24.6387L14.5863 22.7648C14.1633 22.257 13.5414 21.9656 12.8805 21.9656H10.402C9.90039 21.9656 9.49219 21.5578 9.49219 21.0559V13.5035C9.49219 13.2602 9.58711 13.0312 9.75898 12.8594C9.93086 12.6879 10.1594 12.5938 10.402 12.5938H10.4035L29.5996 12.627C30.1004 12.6277 30.5078 13.0359 30.5078 13.5367ZM10.632 27.3937C10.632 27.075 10.8918 26.8156 11.2113 26.8156H12.3438C13.2898 26.8156 14.1379 27.341 14.5566 28.1867C14.725 28.527 14.8105 28.8926 14.8105 29.2734V29.4688H11.7121C11.1164 29.4688 10.632 28.9859 10.632 28.3922V27.3937ZM25.1895 29.2734C25.1895 28.8926 25.275 28.527 25.4434 28.1867C25.8621 27.341 26.7102 26.8156 27.6562 26.8156H28.7887C29.1082 26.8156 29.368 27.075 29.368 27.3937V28.3922C29.368 28.9859 28.8836 29.4688 28.2879 29.4688H25.1895V29.2734Z" fill="#A7A7A7"/>
<path d="M12.1094 6.875L13.1973 5.18281C13.3957 4.87422 13.7375 4.6875 14.1043 4.6875H25.8957C26.2625 4.6875 26.6043 4.87422 26.8027 5.18281L27.8906 6.875H12.1094Z" fill="#A7A7A7"/>
</svg>
