<svg width="65" height="64" viewBox="0 0 65 64" fill="none" xmlns="http://www.w3.org/2000/svg">
<path d="M60.75 50.9905V54.4C60.75 55.107 60.3975 55.7534 59.8395 56.0696C50.5915 61.3101 41.2614 61.3101 32.0134 56.0696C30.9298 55.4555 29.8476 54.9214 28.7664 54.4673L28.6179 52.2866C27.7367 44.7965 25.0385 39.1903 20.518 35.6041C16.0837 32.0861 11.0367 30.5721 5.4439 31.0725L4.75 31.1538V9.6C4.75 8.89296 5.10246 8.24658 5.66046 7.93038C11.3777 4.69059 17.1264 3.45372 22.8676 4.21972V6.8C22.889 13.5905 24.0827 18.6639 26.5459 21.9983C28.0413 24.0225 29.7547 25.3362 32.8288 27.1283C33.0341 27.248 33.2449 27.3699 33.5263 27.5319C33.8763 27.7331 34.0681 27.8434 34.2272 27.9352C34.7961 28.2633 35.2182 28.5106 35.6338 28.7612C36.6964 29.402 37.5885 29.9909 38.435 30.6245C39.2175 31.2102 39.9461 31.8246 40.6383 32.4901C42.0011 33.8002 42.8919 35.2855 43.6589 37.3126C43.9217 38.007 44.0134 38.2839 44.5497 39.9554C45.8425 43.9843 46.8556 45.8936 49.2085 47.5781C52.6356 50.0317 55.8825 51.1908 58.9423 50.9905H60.75ZM60.75 47.2594L58.7904 47.2608C56.4758 47.4243 53.8706 46.5 50.9678 44.4218C49.405 43.3029 48.7069 41.9874 47.6455 38.6795C47.0834 36.9275 46.9842 36.6282 46.6864 35.8412C45.7324 33.32 44.5592 31.364 42.7693 29.6432C41.9732 28.8779 41.1394 28.1747 40.2504 27.5092C39.3076 26.8036 38.3288 26.1575 37.1811 25.4654C36.7446 25.2022 36.3065 24.9454 35.7212 24.6079C35.5602 24.515 35.3664 24.4035 35.018 24.2032C34.7412 24.0439 34.5349 23.9246 34.3356 23.8084C31.6243 22.2278 30.2115 21.1447 29.0717 19.6017C27.1829 17.0449 26.1806 12.7849 26.1618 6.79333V4.87927C28.6071 5.53242 31.0497 6.54946 33.4866 7.93038C41.8072 12.6454 50.0457 12.6454 58.3663 7.93038C59.4615 7.3098 60.75 8.21235 60.75 9.6V47.2594ZM50.0441 26.4C51.4086 26.4 52.5147 25.1464 52.5147 23.6C52.5147 22.0536 51.4086 20.8 50.0441 20.8C48.6796 20.8 47.5735 22.0536 47.5735 23.6C47.5735 25.1464 48.6796 26.4 50.0441 26.4ZM25.3859 53.3073C19.3028 51.6884 13.2403 52.6092 7.13366 56.0696C6.03853 56.6902 4.75 55.7876 4.75 54.4V34.9065L5.74302 34.7901C10.5418 34.3613 14.8281 35.6472 18.629 38.6626C22.3341 41.602 24.5751 46.2458 25.3467 52.7291L25.3859 53.3073Z" fill="url(#paint0_linear_1573_5750)"/>
<defs>
<linearGradient id="paint0_linear_1573_5750" x1="22.333" y1="10.6304" x2="30.8965" y2="63.7759" gradientUnits="userSpaceOnUse">
<stop stop-color="#F9C032"/>
<stop offset="1" stop-color="#FD8337"/>
</linearGradient>
</defs>
</svg>
