<svg width="70" height="70" viewBox="0 0 70 70" fill="none" xmlns="http://www.w3.org/2000/svg">
<rect opacity="0.02" width="70" height="70" fill="#D9D9D9"/>
<path d="M54.7358 55.9829C54.7358 58.7183 52.5175 60.9291 49.7897 60.9291H20.4351C17.6998 60.9291 15.489 58.7108 15.489 55.9829V39.7881C15.489 37.0528 17.7073 34.842 20.4351 34.842L35.1087 24.4102L49.7822 34.842C52.5175 34.842 54.7283 37.0603 54.7283 39.7881V55.9829H54.7358Z" fill="white"/>
<path d="M34.4639 5.38317C34.4639 4.42392 35.1383 4.03422 35.9702 4.51385L46.1772 10.4042C47.009 10.8839 47.009 11.6633 46.1772 12.1429L35.9702 18.0408C35.1383 18.5204 34.4639 18.1307 34.4639 17.1714V5.38317Z" fill="#E6DEDD"/>
<path d="M61.1358 39.1138L36.7799 17.9129C36.7349 17.8755 36.6974 17.8455 36.6525 17.808C36.6525 17.808 36.6525 17.808 36.645 17.8005C36.0829 17.3883 35.371 17.201 34.6815 17.3209C34.2768 17.3883 33.9096 17.5607 33.5799 17.8005C33.5799 17.8005 33.5799 17.8005 33.5724 17.808C33.5274 17.838 33.4824 17.8755 33.445 17.9129L8.8717 39.1138C7.81502 40.0356 7.70261 41.6394 8.62439 42.696L10.2956 44.607C11.2174 45.6637 12.8211 45.7761 13.8778 44.8543L35.1087 26.5612L56.1222 44.8543C57.1789 45.7761 58.7826 45.6637 59.7044 44.607L61.3756 42.696C62.2974 41.6394 62.185 40.0356 61.1283 39.1138H61.1358Z" fill="#0F3654"/>
<path d="M34.9782 50.0549C34.0683 48.2499 31.2285 44.4698 23.9419 46.4375C23.9419 46.4375 26.3708 55.4403 34.2444 51.5418L33.085 60.9293H37.0108L35.8587 51.6232C43.6076 55.3293 46.0071 46.4449 46.0071 46.4449C38.7206 44.4772 35.8808 48.2573 34.9709 50.0623L34.9782 50.0549Z" fill="#FD8337"/>
</svg>
