<svg width="80" height="80" viewBox="0 0 80 80" fill="none" xmlns="http://www.w3.org/2000/svg">
<path d="M23.5 21.5L26.5 20.5H47.5L57 30.5V57.5L54 60.5H26.5L23.5 57.5V21.5Z" fill="#F9F9F9"/>
<path fill-rule="evenodd" clip-rule="evenodd" d="M31.0595 52.0595C30.4755 52.6455 29.5235 52.6455 28.9395 52.0595C28.3535 51.4755 28.3535 50.5235 28.9395 49.9395L32.9395 45.9395C33.5235 45.3535 34.4755 45.3535 35.0595 45.9395C35.6455 46.5235 35.6455 47.4755 35.0595 48.0595L31.0595 52.0595Z" fill="#F1F1F1"/>
<path fill-rule="evenodd" clip-rule="evenodd" d="M31.0595 52.0595C30.4755 52.6455 29.5235 52.6455 28.9395 52.0595C28.3535 51.4755 28.3535 50.5235 28.9395 49.9395L32.9395 45.9395C33.5235 45.3535 34.4755 45.3535 35.0595 45.9395C35.6455 46.5235 35.6455 47.4755 35.0595 48.0595L31.0595 52.0595Z" fill="url(#paint0_linear_1573_7749)"/>
<path fill-rule="evenodd" clip-rule="evenodd" d="M35.0595 49.9395C35.6455 50.5235 35.6455 51.4755 35.0595 52.0595C34.4755 52.6455 33.5235 52.6455 32.9395 52.0595L28.9395 48.0595C28.3535 47.4755 28.3535 46.5235 28.9395 45.9395C29.5235 45.3535 30.4755 45.3535 31.0595 45.9395L35.0595 49.9395Z" fill="#F1F1F1"/>
<path fill-rule="evenodd" clip-rule="evenodd" d="M35.0595 49.9395C35.6455 50.5235 35.6455 51.4755 35.0595 52.0595C34.4755 52.6455 33.5235 52.6455 32.9395 52.0595L28.9395 48.0595C28.3535 47.4755 28.3535 46.5235 28.9395 45.9395C29.5235 45.3535 30.4755 45.3535 31.0595 45.9395L35.0595 49.9395Z" fill="url(#paint1_linear_1573_7749)"/>
<path fill-rule="evenodd" clip-rule="evenodd" d="M28.9395 39.0595C28.3535 38.4755 28.3535 37.5235 28.9395 36.9395C29.5235 36.3535 30.4755 36.3535 31.0595 36.9395L31.9995 37.8775L34.9395 34.9395C35.5235 34.3535 36.4755 34.3535 37.0595 34.9395C37.6455 35.5235 37.6455 36.4755 37.0595 37.0595L33.0595 41.0595C32.4735 41.6455 31.5255 41.6455 30.9395 41.0595L28.9395 39.0595Z" fill="#F1F1F1"/>
<path fill-rule="evenodd" clip-rule="evenodd" d="M28.9395 39.0595C28.3535 38.4755 28.3535 37.5235 28.9395 36.9395C29.5235 36.3535 30.4755 36.3535 31.0595 36.9395L31.9995 37.8775L34.9395 34.9395C35.5235 34.3535 36.4755 34.3535 37.0595 34.9395C37.6455 35.5235 37.6455 36.4755 37.0595 37.0595L33.0595 41.0595C32.4735 41.6455 31.5255 41.6455 30.9395 41.0595L28.9395 39.0595Z" fill="url(#paint2_linear_1573_7749)"/>
<path fill-rule="evenodd" clip-rule="evenodd" d="M42 39.5C41.172 39.5 40.5 38.828 40.5 38C40.5 37.172 41.172 36.5 42 36.5H50C50.828 36.5 51.5 37.172 51.5 38C51.5 38.828 50.828 39.5 50 39.5H42Z" fill="#F1F1F1"/>
<path fill-rule="evenodd" clip-rule="evenodd" d="M42 39.5C41.172 39.5 40.5 38.828 40.5 38C40.5 37.172 41.172 36.5 42 36.5H50C50.828 36.5 51.5 37.172 51.5 38C51.5 38.828 50.828 39.5 50 39.5H42Z" fill="url(#paint3_linear_1573_7749)"/>
<path fill-rule="evenodd" clip-rule="evenodd" d="M42 50.5C41.172 50.5 40.5 49.828 40.5 49C40.5 48.172 41.172 47.5 42 47.5H50C50.828 47.5 51.5 48.172 51.5 49C51.5 49.828 50.828 50.5 50 50.5H42Z" fill="#F1F1F1"/>
<path fill-rule="evenodd" clip-rule="evenodd" d="M42 50.5C41.172 50.5 40.5 49.828 40.5 49C40.5 48.172 41.172 47.5 42 47.5H50C50.828 47.5 51.5 48.172 51.5 49C51.5 49.828 50.828 50.5 50 50.5H42Z" fill="url(#paint4_linear_1573_7749)"/>
<path fill-rule="evenodd" clip-rule="evenodd" d="M53 61.5H27C25.542 61.5 24.142 60.92 23.11 59.89C22.08 58.858 21.5 57.458 21.5 56V24C21.5 22.542 22.08 21.142 23.11 20.11C24.142 19.08 25.542 18.5 27 18.5H46.116C47.102 18.5 48.042 18.916 48.706 19.646L57.59 29.418C58.176 30.064 58.5 30.902 58.5 31.774V56C58.5 57.458 57.92 58.858 56.89 59.89C55.858 60.92 54.458 61.5 53 61.5ZM53 58.5C53.664 58.5 54.298 58.236 54.768 57.768C55.236 57.298 55.5 56.664 55.5 56V31.774C55.5 31.648 55.454 31.528 55.37 31.436L46.486 21.664C46.39 21.56 46.256 21.5 46.116 21.5H27C26.336 21.5 25.702 21.764 25.232 22.232C24.764 22.702 24.5 23.336 24.5 24V56C24.5 56.664 24.764 57.298 25.232 57.768C25.702 58.236 26.336 58.5 27 58.5H53Z" fill="url(#paint5_linear_1573_7749)"/>
<path fill-rule="evenodd" clip-rule="evenodd" d="M45.5 21C45.5 20.172 46.172 19.5 47 19.5C47.828 19.5 48.5 20.172 48.5 21V29C48.5 29.276 48.724 29.5 49 29.5H56C56.828 29.5 57.5 30.172 57.5 31C57.5 31.828 56.828 32.5 56 32.5H49C47.066 32.5 45.5 30.932 45.5 29V21Z" fill="url(#paint6_linear_1573_7749)"/>
<defs>
<linearGradient id="paint0_linear_1573_7749" x1="30.6976" y1="46.3287" x2="31.7678" y2="52.9709" gradientUnits="userSpaceOnUse">
<stop stop-color="#F9C032"/>
<stop offset="1" stop-color="#FD8337"/>
</linearGradient>
<linearGradient id="paint1_linear_1573_7749" x1="30.6976" y1="46.3287" x2="31.7678" y2="52.9709" gradientUnits="userSpaceOnUse">
<stop stop-color="#F9C032"/>
<stop offset="1" stop-color="#FD8337"/>
</linearGradient>
<linearGradient id="paint2_linear_1573_7749" x1="31.3255" y1="35.3287" x2="32.1664" y2="42.038" gradientUnits="userSpaceOnUse">
<stop stop-color="#F9C032"/>
<stop offset="1" stop-color="#FD8337"/>
</linearGradient>
<linearGradient id="paint3_linear_1573_7749" x1="43.9538" y1="36.8552" x2="44.0819" y2="39.7706" gradientUnits="userSpaceOnUse">
<stop stop-color="#F9C032"/>
<stop offset="1" stop-color="#FD8337"/>
</linearGradient>
<linearGradient id="paint4_linear_1573_7749" x1="43.9538" y1="47.8552" x2="44.0819" y2="50.7706" gradientUnits="userSpaceOnUse">
<stop stop-color="#F9C032"/>
<stop offset="1" stop-color="#FD8337"/>
</linearGradient>
<linearGradient id="paint5_linear_1573_7749" x1="33.1174" y1="23.5912" x2="40.692" y2="64.0404" gradientUnits="userSpaceOnUse">
<stop stop-color="#F9C032"/>
<stop offset="1" stop-color="#FD8337"/>
</linearGradient>
<linearGradient id="paint6_linear_1573_7749" x1="49.2678" y1="21.0392" x2="51.412" y2="33.3226" gradientUnits="userSpaceOnUse">
<stop stop-color="#F9C032"/>
<stop offset="1" stop-color="#FD8337"/>
</linearGradient>
</defs>
</svg>
