<svg width="60" height="60" viewBox="0 0 60 60" fill="none" xmlns="http://www.w3.org/2000/svg">
<path d="M53.9999 34.3294V42.8994C53.9999 44.5294 52.6799 45.8594 51.0599 45.8694V52.9994C51.0599 53.5494 50.6099 53.9994 50.0599 53.9994H43.6099C43.0599 53.9994 42.6099 53.5494 42.6099 52.9994V45.8694C40.9899 45.8594 39.6699 44.5294 39.6699 42.8994V34.3294C39.6699 32.6894 41.0099 31.3594 42.6399 31.3594H51.0299C52.6699 31.3594 53.9999 32.6894 53.9999 34.3294Z" fill="#A7A7A7"/>
<path d="M41.47 25.36C41.47 22.4 43.8799 20 46.84 20C49.8 20 52.2 22.4 52.2 25.36C52.2 28.32 49.8 30.73 46.84 30.73C43.8799 30.73 41.47 28.32 41.47 25.36Z" fill="#A7A7A7"/>
<path d="M38.7401 49.8203V53.0003C38.7401 53.5503 38.29 54.0003 37.7401 54.0003H22.26C21.7 54.0003 21.26 53.5503 21.26 53.0003V49.8203C21.26 49.2703 21.7 48.8203 22.26 48.8203H37.7401C38.29 48.8203 38.7401 49.2703 38.7401 49.8203Z" fill="#222222"/>
<path d="M24.6299 20.86C24.6299 17.9 27.0399 15.5 29.9999 15.5C32.9599 15.5 35.3699 17.9 35.3699 20.86C35.3699 23.82 32.9599 26.23 29.9999 26.23C27.0399 26.23 24.6299 23.82 24.6299 20.86Z" fill="#222222"/>
<path d="M20.31 34.3606V42.9206C20.31 44.5406 18.9901 45.8706 17.3701 45.8906V53.0006C17.3701 53.5506 16.92 54.0006 16.3701 54.0006H9.94C9.38 54.0006 8.94 53.5506 8.94 53.0006V45.8906C7.31 45.8706 6 44.5406 6 42.9206V34.3606C6 32.7206 7.33002 31.3906 8.97003 31.3906H17.34C18.97 31.3906 20.31 32.7206 20.31 34.3606Z" fill="#A7A7A7"/>
<path d="M22.8401 38.3994V29.8294C22.8401 28.1894 24.1701 26.8594 25.8101 26.8594H34.1901C35.8301 26.8594 37.1601 28.1894 37.1601 29.8294V38.3994C37.1601 40.0294 35.8401 41.3594 34.2201 41.3694V46.8194H25.7801V41.3694C24.1501 41.3594 22.8401 40.0294 22.8401 38.3994Z" fill="#222222"/>
<path d="M27.5301 11.87C27.14 11.48 27.14 10.84 27.5301 10.45C27.9201 10.06 28.5501 10.06 28.94 10.45L29 10.51V7C29 6.44 29.45 6 30 6C30.5501 6 31 6.44 31 7V10.5L31.0501 10.45C31.45 10.06 32.08 10.06 32.4701 10.45C32.8601 10.84 32.8601 11.48 32.4701 11.87L30.7101 13.63C30.5301 13.81 30.2701 13.92 30 13.92C29.9101 13.92 29.83 13.91 29.75 13.88C29.7 13.88 29.6601 13.86 29.6101 13.84C29.4901 13.79 29.38 13.72 29.2901 13.63L27.5301 11.87Z" fill="#222222"/>
<path d="M7.79004 25.399C7.79004 22.449 10.2 20.0391 13.15 20.0391C16.11 20.0391 18.51 22.449 18.51 25.399C18.51 28.359 16.11 30.769 13.15 30.769C10.2 30.769 7.79004 28.359 7.79004 25.399Z" fill="#A7A7A7"/>
</svg>
