<svg width="70" height="70" viewBox="0 0 70 70" fill="none" xmlns="http://www.w3.org/2000/svg">
<rect opacity="0.02" width="70" height="70" fill="#D9D9D9"/>
<path d="M24.0521 31.9014C13.5311 31.9014 5 40.4325 5 50.9466V55.911C5.00689 58.6376 7.224 60.8479 9.95064 60.8479H38.1466C40.8732 60.8479 43.0903 58.6376 43.0972 55.911V50.9466C43.0972 40.4256 34.5661 31.8945 24.0452 31.8945L24.0521 31.9014Z" fill="#1C4869"/>
<path d="M37.4994 22.4473C37.4994 29.8767 31.4746 35.8946 24.0521 35.8946C16.6296 35.8946 10.5979 29.8767 10.5979 22.4473C10.5979 15.0179 16.6227 9 24.0521 9C31.4815 9 37.4994 15.0248 37.4994 22.4473Z" fill="#E6DEDD"/>
<path d="M45.8768 31.9015C35.5063 31.9015 27.0972 40.5609 27.0972 51.2332V56.2723C27.104 59.0399 29.2894 61.2834 31.977 61.2834H59.7698C62.4574 61.2834 64.6429 59.0399 64.6496 56.2723V51.2332C64.6496 40.5539 56.2405 31.8945 45.87 31.8945L45.8768 31.9015Z" fill="#0F3654"/>
<path d="M58.8968 22.4473C58.8968 29.8767 52.8721 35.8946 45.4495 35.8946C38.027 35.8946 31.9954 29.8767 31.9954 22.4473C31.9954 15.0179 38.0201 9 45.4495 9C52.879 9 58.8968 15.0248 58.8968 22.4473Z" fill="white"/>
</svg>
