<svg width="80" height="80" viewBox="0 0 80 80" fill="none" xmlns="http://www.w3.org/2000/svg">
<path d="M59.5657 32.0925C58.8105 30.3201 57.3899 28.9148 55.6093 28.1789C55.4803 28.1233 55.3704 28.0312 55.2932 27.9138C55.216 27.7964 55.1749 27.659 55.1748 27.5186C55.174 27.4182 55.1937 27.3186 55.2329 27.2262C55.272 27.1337 55.3297 27.0503 55.4025 26.981C55.4469 26.9387 55.4894 26.8971 55.5213 26.8635C55.7464 26.6265 55.9451 26.3657 56.1138 26.0857C56.5573 25.3457 56.7772 24.4932 56.7469 23.631C56.7167 22.7688 56.4375 21.9338 55.9432 21.2268C55.4488 20.5198 54.7604 19.9709 53.9611 19.6465C53.1617 19.322 52.2855 19.2359 51.4382 19.3984C50.5748 19.5496 49.7769 19.957 49.1483 20.5677C48.5196 21.1785 48.0893 21.9643 47.9132 22.8229C47.7504 23.5622 47.7781 24.3308 47.9936 25.0565C48.2092 25.7822 48.6055 26.4412 49.1455 26.9718C49.2188 27.0413 49.2775 27.1246 49.3181 27.2171C49.3587 27.3095 49.3805 27.4091 49.3821 27.51V27.5138C49.3833 27.6554 49.3427 27.7943 49.2653 27.913C49.1879 28.0317 49.0772 28.1249 48.9471 28.1809C48.5452 28.3495 48.159 28.5533 47.793 28.7899C48.4324 29.5324 48.9605 30.3639 49.3609 31.2583C50.0122 32.7339 50.3398 34.3319 50.3218 35.9447V36.9094C50.3187 37.4507 50.1914 37.9841 49.9497 38.4685H58.7877C58.9925 38.4686 59.1953 38.4283 59.3846 38.35C59.5738 38.2716 59.7457 38.1568 59.8905 38.012C60.0354 37.8672 60.1502 37.6953 60.2286 37.5061C60.307 37.3169 60.3473 37.1141 60.3473 36.9093V35.9447C60.3631 34.6197 60.0967 33.3065 59.5657 32.0925Z" fill="url(#paint0_linear_1573_7593)"/>
<path d="M27.3299 43.5176H22.4113C22.3085 43.5176 22.2068 43.5378 22.1119 43.5771C22.0169 43.6165 21.9307 43.6741 21.858 43.7468C21.7854 43.8195 21.7277 43.9057 21.6884 44.0007C21.6491 44.0956 21.6289 44.1974 21.6289 44.3001V61.0863C21.6289 61.1891 21.6491 61.2908 21.6884 61.3858C21.7277 61.4807 21.7854 61.567 21.858 61.6397C21.9307 61.7124 22.0169 61.77 22.1119 61.8094C22.2068 61.8487 22.3085 61.8689 22.4113 61.869H27.3299C27.5539 61.869 27.7758 61.8249 27.9828 61.7392C28.1898 61.6535 28.3778 61.5278 28.5363 61.3694C28.6947 61.211 28.8204 61.0229 28.9061 60.8159C28.9918 60.609 29.036 60.3871 29.036 60.1631V45.2231C29.0359 44.9991 28.9918 44.7773 28.906 44.5703C28.8203 44.3634 28.6946 44.1754 28.5362 44.017C28.3777 43.8586 28.1897 43.733 27.9827 43.6473C27.7757 43.5616 27.5539 43.5175 27.3299 43.5176Z" fill="#F1F1F1"/>
<path d="M58.2456 45.5232C57.9855 45.1273 57.6311 44.8024 57.2141 44.5777C56.7971 44.3531 56.3308 44.2358 55.8571 44.2364H53.9296C53.1026 44.2346 52.2938 44.4793 51.6065 44.9392C50.9191 45.3991 50.3844 46.0534 50.0705 46.8185C49.8841 47.2633 49.6245 47.6737 49.3023 48.0326C48.7549 48.8731 48.0142 49.5704 47.1421 50.0662C46.27 50.5619 45.292 50.8416 44.2896 50.882L38.5804 50.8823C38.3119 50.8823 38.0544 50.7757 37.8645 50.5858C37.6746 50.3959 37.5679 50.1384 37.5679 49.8698C37.5679 49.6013 37.6746 49.3438 37.8645 49.1539C38.0544 48.964 38.3119 48.8573 38.5804 48.8573H44.2626C44.9926 48.8386 45.7019 48.6104 46.3059 48.1999V48.1656C46.3079 47.6504 46.2081 47.1398 46.0123 46.6632C45.8165 46.1866 45.5286 45.7533 45.165 45.3882C44.8013 45.0232 44.3692 44.7335 43.8934 44.5358C43.4176 44.3382 42.9074 44.2364 42.3921 44.2364H38.2026C37.4371 44.2341 36.6787 44.3834 35.9711 44.6756C35.2636 44.9678 34.6208 45.3971 34.0799 45.9389L33.9729 46.0454C33.1803 46.8369 32.1624 47.3641 31.0586 47.555V58.7387H46.3371C48.6025 58.7401 50.8184 58.0766 52.7102 56.8305C54.602 55.5844 56.0865 53.8105 56.9796 51.7286L58.4847 48.2255C58.6724 47.7906 58.7488 47.3158 58.7071 46.8441C58.6653 46.3723 58.5067 45.9183 58.2456 45.5232Z" fill="#F1F1F1"/>
<path d="M20.112 35.9529C20.0961 34.6275 20.362 33.3138 20.892 32.0989C21.6459 30.3248 23.0659 28.9176 24.8467 28.1799C24.9769 28.1239 25.0876 28.0307 25.165 27.912C25.2424 27.7933 25.283 27.6544 25.2817 27.5128V27.509C25.2802 27.4081 25.2584 27.3084 25.2178 27.216C25.1772 27.1236 25.1186 27.0402 25.0453 26.9707C24.5053 26.4402 24.1088 25.7812 23.8932 25.0555C23.6776 24.3298 23.6499 23.5612 23.8126 22.8219C23.9886 21.9633 24.419 21.1775 25.0476 20.5667C25.6763 19.9559 26.4742 19.5485 27.3376 19.3973C28.2671 19.218 29.2295 19.3385 30.086 19.7416C30.9426 20.1447 31.6489 20.8095 32.1032 21.64C32.5574 22.4705 32.7361 23.4239 32.6134 24.3625C32.4908 25.3012 32.0731 26.1766 31.4206 26.8625C31.3888 26.896 31.3462 26.9375 31.3019 26.98C31.2292 27.0492 31.1714 27.1327 31.1323 27.2251C31.0931 27.3176 31.0734 27.4171 31.0743 27.5176C31.0743 27.6581 31.1154 27.7955 31.1927 27.9128C31.2699 28.0302 31.3798 28.1224 31.5088 28.1779C33.2894 28.9139 34.71 30.3191 35.4652 32.0916C35.996 33.3056 36.2623 34.6188 36.2464 35.9437V36.9083C36.2464 37.3218 36.0822 37.7184 35.7898 38.0108C35.4974 38.3032 35.1008 38.4675 34.6873 38.4675H21.6712C21.2577 38.4675 20.8611 38.3032 20.5687 38.0108C20.2763 37.7184 20.112 37.3218 20.112 36.9083V35.9529Z" fill="url(#paint1_linear_1573_7593)"/>
<path d="M47.5147 32.0924C46.7596 30.32 45.339 28.9148 43.5585 28.1788C43.4294 28.1233 43.3194 28.0312 43.2421 27.9138C43.1648 27.7965 43.1236 27.659 43.1235 27.5185C43.1227 27.418 43.1424 27.3185 43.1816 27.226C43.2208 27.1335 43.2785 27.05 43.3513 26.9808C43.3956 26.9384 43.4382 26.8969 43.47 26.8633C43.6952 26.6264 43.8939 26.3655 44.0625 26.0854C44.5059 25.3455 44.7258 24.4931 44.6955 23.6309C44.6652 22.7688 44.3861 21.9339 43.8918 21.2269C43.3975 20.5199 42.7092 19.9711 41.9099 19.6466C41.1106 19.3221 40.2345 19.2359 39.3873 19.3983C38.5239 19.5495 37.726 19.9569 37.0974 20.5677C36.4687 21.1784 36.0383 21.9642 35.8623 22.8228C35.6995 23.5621 35.7272 24.3307 35.9428 25.0564C36.1583 25.7821 36.5547 26.4412 37.0947 26.9717C37.168 27.0412 37.2266 27.1246 37.2672 27.217C37.3078 27.3094 37.3295 27.409 37.3311 27.5099V27.5137C37.3324 27.6554 37.2918 27.7943 37.2144 27.913C37.137 28.0316 37.0263 28.1248 36.8961 28.1808C36.4943 28.3494 36.1081 28.5532 35.7422 28.7898C36.3815 29.5323 36.9095 30.3638 37.3097 31.2582C37.961 32.7338 38.2888 34.3318 38.2708 35.9446V36.9093C38.2677 37.4506 38.1404 37.9839 37.8988 38.4683H46.7369C46.9416 38.4683 47.1444 38.428 47.3336 38.3497C47.5227 38.2713 47.6946 38.1565 47.8394 38.0117C47.9842 37.8669 48.099 37.6951 48.1774 37.5059C48.2557 37.3167 48.2961 37.114 48.2961 36.9092V35.9446C48.312 34.6196 48.0456 33.3065 47.5147 32.0924Z" fill="url(#paint2_linear_1573_7593)"/>
<defs>
<linearGradient id="paint0_linear_1573_7593" x1="51.735" y1="21.5857" x2="56.0567" y2="39.1694" gradientUnits="userSpaceOnUse">
<stop stop-color="#FFD774"/>
<stop offset="1" stop-color="#FD8337"/>
</linearGradient>
<linearGradient id="paint1_linear_1573_7593" x1="25.1777" y1="21.5839" x2="28.6179" y2="39.5727" gradientUnits="userSpaceOnUse">
<stop stop-color="#FFD774"/>
<stop offset="1" stop-color="#FD8337"/>
</linearGradient>
<linearGradient id="paint2_linear_1573_7593" x1="39.6841" y1="21.5857" x2="44.0058" y2="39.1692" gradientUnits="userSpaceOnUse">
<stop stop-color="#FFD774"/>
<stop offset="1" stop-color="#FD8337"/>
</linearGradient>
</defs>
</svg>
