<svg width="80" height="80" viewBox="0 0 80 80" fill="none" xmlns="http://www.w3.org/2000/svg">
<g clip-path="url(#clip0_1573_7605)">
<path d="M25 33.8485L25 46.15C21.5785 46.8445 19 49.87 19 53.4985C19 57.6415 22.3585 60.9985 26.5 60.9985C30.6415 60.9985 34 57.6415 34 53.4985C34 49.87 31.4215 46.8445 28 46.15L28 33.8485C28.957 33.6535 29.8435 33.2725 30.631 32.752L47.248 49.3675C46.4635 50.554 46 51.9715 46 53.5C46 57.643 49.3585 61 53.5 61C57.6415 61 61 57.643 61 53.5C61 49.8715 58.423 46.846 55 46.1515L55 33.85C58.423 33.1555 61 30.13 61 26.5C61 22.3555 57.6415 19 53.5 19C49.3585 19 46 22.3555 46 26.5C46 30.13 48.577 33.1555 52 33.8485L52 46.15C51.043 46.345 50.1565 46.7245 49.369 47.245L32.752 30.6295C33.5365 29.446 34 28.0285 34 26.5C34 22.3555 30.64 19 26.5 19C22.36 19 19 22.3555 19 26.5C19 30.13 21.5785 33.154 25 33.8485Z" fill="url(#paint0_linear_1573_7605)"/>
</g>
<defs>
<linearGradient id="paint0_linear_1573_7605" x1="47.8127" y1="56.0272" x2="41.3901" y2="16.1681" gradientUnits="userSpaceOnUse">
<stop stop-color="#FFD774"/>
<stop offset="1" stop-color="#FD8337"/>
</linearGradient>
<clipPath id="clip0_1573_7605">
<rect width="48" height="48" fill="white" transform="translate(16 16)"/>
</clipPath>
</defs>
</svg>
