<svg width="80" height="80" viewBox="0 0 80 80" fill="none" xmlns="http://www.w3.org/2000/svg">
<g clip-path="url(#clip0_1573_7569)">
<path fill-rule="evenodd" clip-rule="evenodd" d="M55.0605 21.25C55.4412 21.2501 55.75 21.5619 55.75 21.9466V40.0534C55.75 40.4381 55.4412 40.7499 55.0605 40.75H49.3111V35.6132C49.3111 33.0964 47.0536 32.4569 45.8895 32.5097C41.4867 32.7089 38.3434 30.1732 37.4654 29.3887C36.39 28.4472 34.907 29.9797 35.881 31.0439C37.9143 33.277 40.799 34.5495 41.5736 34.8462C42.6199 35.5017 42.6208 35.9362 42.6208 36.9542V40.75H24.9395C24.5587 40.7499 24.25 40.4381 24.25 40.0534V21.9466C24.25 21.5619 24.5587 21.2501 24.9395 21.25H55.0605ZM46.0927 24.733C44.3799 24.7331 42.9914 26.1357 42.9914 27.8663C42.9914 29.5969 44.3799 31.0003 46.0927 31.0004C47.8058 31.0004 49.1947 29.5971 49.1947 27.8663C49.1947 26.1357 47.8057 24.733 46.0927 24.733Z" fill="#565D64"/>
<path fill-rule="evenodd" clip-rule="evenodd" d="M55.0605 21.25C55.4412 21.2501 55.75 21.5619 55.75 21.9466V40.0534C55.75 40.4381 55.4412 40.7499 55.0605 40.75H49.3111V35.6132C49.3111 33.0964 47.0536 32.4569 45.8895 32.5097C41.4867 32.7089 38.3434 30.1732 37.4654 29.3887C36.39 28.4472 34.907 29.9797 35.881 31.0439C37.9143 33.277 40.799 34.5495 41.5736 34.8462C42.6199 35.5017 42.6208 35.9362 42.6208 36.9542V40.75H24.9395C24.5587 40.7499 24.25 40.4381 24.25 40.0534V21.9466C24.25 21.5619 24.5587 21.2501 24.9395 21.25H55.0605ZM46.0927 24.733C44.3799 24.7331 42.9914 26.1357 42.9914 27.8663C42.9914 29.5969 44.3799 31.0003 46.0927 31.0004C47.8058 31.0004 49.1947 29.5971 49.1947 27.8663C49.1947 26.1357 47.8057 24.733 46.0927 24.733Z" fill="url(#paint0_linear_1573_7569)"/>
<circle cx="20.125" cy="47.125" r="3.375" fill="#F1F1F1"/>
<circle cx="29.875" cy="47.125" r="3.375" fill="#F1F1F1"/>
<circle cx="39.625" cy="47.125" r="3.375" fill="#F1F1F1"/>
<circle cx="49.375" cy="47.125" r="3.375" fill="#F1F1F1"/>
<circle cx="25.375" cy="55.375" r="3.375" fill="#F1F1F1"/>
<circle cx="35.125" cy="55.375" r="3.375" fill="#F1F1F1"/>
<circle cx="44.875" cy="55.375" r="3.375" fill="#F1F1F1"/>
<circle cx="54.625" cy="55.375" r="3.375" fill="#F1F1F1"/>
<circle cx="59.125" cy="47.125" r="3.375" fill="#F1F1F1"/>
</g>
<defs>
<linearGradient id="paint0_linear_1573_7569" x1="34.1404" y1="23.5588" x2="36.0157" y2="42.3583" gradientUnits="userSpaceOnUse">
<stop stop-color="#F9C032"/>
<stop offset="1" stop-color="#FD8337"/>
</linearGradient>
<clipPath id="clip0_1573_7569">
<rect width="48" height="48" fill="white" transform="translate(16 16)"/>
</clipPath>
</defs>
</svg>
