<svg width="149" height="114" viewBox="0 0 149 114" fill="none" xmlns="http://www.w3.org/2000/svg">
<path d="M86.6569 57.8789L69.0311 100.575H41.0566L63.5496 60.1932L86.6569 57.8789Z" fill="#93C0D2"/>
<path d="M65.298 65.3871C65.0144 66.5207 84.6249 100.857 84.6249 100.857C93.6032 106.714 104.944 107.706 114.82 103.502L121.011 100.857L101.967 59.625L65.298 65.3871Z" fill="#93C0D2"/>
<path d="M95.0214 85.2692C95.5412 85.4582 113.309 101.469 124.886 110.16C132.636 116.016 143.788 113.088 147.71 104.209C150.356 98.2576 148.844 91.2203 143.977 86.8751L107.969 54.7583C102.157 49.5629 93.9346 47.9571 86.563 50.5548L66.1492 57.97C61.5182 59.623 60.9985 65.9519 65.2513 68.4079L95.0214 85.2692Z" fill="#93C0D2"/>
<path d="M65.9229 21.4134L58.9764 21.555L58.957 20.6103L65.9035 20.4688L65.9229 21.4134Z" fill="#080717"/>
<path d="M64.5235 13.4942L58.0495 15.9974L57.709 15.1164L64.1824 12.6133L64.5235 13.4942Z" fill="#080717"/>
<path d="M64.7908 28.4779L64.4821 29.3709L57.9141 27.1039L58.2223 26.2109L64.7908 28.4779Z" fill="#080717"/>
<path d="M69.9306 51.9267C66.67 50.4626 65.2524 46.5897 66.7173 43.378L70.7339 34.5459C72.1988 31.287 76.0736 29.8701 79.2869 31.3342C82.5474 32.7984 83.9651 36.6713 82.5002 39.8829L78.4836 48.7151C77.0187 52.0212 73.1911 53.4381 69.9306 51.9267Z" fill="#93C0D2"/>
<path d="M75.3164 44.6513L81.4122 46.1627C83.2551 46.635 85.098 45.5015 85.5233 43.6595C85.9958 41.8175 84.8617 39.9755 83.0188 39.5504L76.923 38.0391L75.3164 44.6513Z" fill="#93C0D2"/>
<path d="M68.418 45.9759C68.418 48.2902 70.3081 50.1794 72.6236 50.1794C74.939 50.1794 76.8292 48.2902 76.8292 45.9759C76.8292 45.8342 76.8292 45.6925 76.8292 45.5508H68.4652C68.418 45.6925 68.418 45.8342 68.418 45.9759Z" fill="black"/>
<path d="M77.3016 45.0781V45.9757C77.3015 48.5507 75.2 50.6511 72.6237 50.6512C70.0473 50.6512 67.9454 48.5508 67.9453 45.9757C67.9453 45.8446 67.9416 45.6266 68.0169 45.401L68.1244 45.0781H77.3016ZM68.8918 46.0227C68.9173 48.0546 70.585 49.7066 72.6237 49.7066C74.6623 49.7065 76.3301 48.0546 76.3556 46.0227H68.8918Z" fill="black"/>
<path d="M76.4029 47.7209C75.8831 47.532 75.316 47.4375 74.749 47.4375C73.0006 47.4375 71.4412 48.2876 70.4961 49.6101C71.1104 49.9407 71.8192 50.1769 72.5753 50.1769C74.2764 50.1769 75.7413 49.185 76.4029 47.7209Z" fill="#93C0D2"/>
<path d="M74.75 46.9688C75.3684 46.9688 75.9904 47.0716 76.5654 47.2805L77.0444 47.4544L76.8345 47.9189C76.0978 49.5491 74.4665 50.6526 72.5765 50.6526C71.722 50.6526 70.936 50.3861 70.2733 50.0295L69.8008 49.7754L70.1127 49.339C71.1447 47.8951 72.8459 46.9688 74.75 46.9688ZM74.75 47.9134C73.3655 47.9134 72.1135 48.4983 71.2461 49.4401C71.6679 49.6054 72.1156 49.708 72.5765 49.708C73.8916 49.708 75.0445 49.0421 75.7085 48.0148C75.3977 47.9475 75.0746 47.9134 74.75 47.9134Z" fill="black"/>
<path d="M70.1152 32.9147C71.6904 32.4088 73.3808 33.3068 73.8328 34.8879L73.3783 35.0175L72.9242 35.1476C72.6201 34.0838 71.4751 33.4701 70.4041 33.8141L70.1152 32.9147Z" fill="black"/>
<path d="M74.7715 37.212C76.0148 36.1389 77.919 36.314 78.9819 37.5441L78.2666 38.1617C77.5339 37.3137 76.2247 37.2055 75.3889 37.9269L74.7715 37.212Z" fill="black"/>
<path d="M69.9766 41.8182V39.4567C69.9766 39.1958 70.1881 38.9844 70.4491 38.9844C70.7101 38.9844 70.9216 39.1958 70.9216 39.4567V41.8182C70.9216 42.0791 70.7101 42.2905 70.4491 42.2905C70.1881 42.2905 69.9766 42.0791 69.9766 41.8182Z" fill="black"/>
<path d="M75.7891 41.8182V39.4567C75.7891 39.1958 76.0006 38.9844 76.2616 38.9844C76.5226 38.9844 76.7341 39.1958 76.7341 39.4567V41.8182C76.7341 42.0791 76.5226 42.2905 76.2616 42.2905C76.0006 42.2905 75.7891 42.0791 75.7891 41.8182Z" fill="black"/>
<path d="M10.1059 103.547H50.65L40.2541 64.8182C39.6397 62.5984 37.2298 60.8981 35.1033 61.2287L3.2068 66.4241C1.50565 66.7075 0.60782 68.2188 1.08036 70.0136L10.1059 103.547Z" fill="#080717"/>
<path d="M79.1438 103.549H26.4082V99.1094H75.269C77.4427 99.1094 79.1438 100.857 79.1438 102.982V103.549Z" fill="#080717"/>
<path d="M23.6277 88.3536C25.086 87.8598 25.6708 85.697 24.9338 83.523C24.1968 81.3489 22.4172 79.9869 20.9589 80.4808C19.5006 80.9746 18.9158 83.1374 19.6528 85.3114C20.3898 87.4854 22.1694 88.8475 23.6277 88.3536Z" fill="white"/>
<path d="M43.6843 10.555C49.3261 9.76353 54.5758 13.6702 55.3696 19.3148L55.4148 19.6671C55.8042 23.2085 54.3206 26.579 51.7203 28.7433L52.268 32.7238L41.5509 34.2763L41.0027 30.2894C37.9038 28.9038 35.4488 25.9472 34.9183 22.2358V22.2348C34.1264 16.5953 38.036 11.3474 43.6843 10.555ZM54.4342 19.4481C53.7148 14.3251 48.9473 10.7705 43.8158 11.4903C38.6903 12.2094 35.1339 16.9744 35.8541 22.1034C36.3339 25.4571 38.5454 28.1387 41.3433 29.4075L41.616 29.5261L41.8661 29.6298L41.9026 29.8978L42.3576 33.2049L51.2039 31.9231L50.748 28.6096L50.7115 28.3416L50.9233 28.1742C53.491 26.1481 54.9291 22.8644 54.4346 19.4499L54.4342 19.4481Z" fill="#282D33"/>
<path d="M45.9222 33.3181C45.9488 33.5775 45.7599 33.8094 45.5004 33.8361C45.2408 33.8627 45.0089 33.674 44.9822 33.4145L45.9222 33.3181ZM48.5022 16.5859C48.9739 16.4599 49.5113 16.4607 50.0135 16.7192C50.517 16.9782 50.9199 17.4624 51.1861 18.1781L51.2221 18.2818C51.3859 18.8025 51.3059 19.3655 51.104 19.8906C50.8871 20.4546 50.513 21.0214 50.0528 21.5409C49.4415 22.2309 48.6464 22.8696 47.7888 23.3259C47.9059 24.3625 48.0495 25.4535 48.2 26.5103C48.4297 28.1232 48.6741 29.6514 48.8613 30.7767C48.9548 31.3393 49.0339 31.8009 49.0897 32.1217C49.1175 32.282 49.1397 32.4071 49.1547 32.4921C49.1623 32.5345 49.1679 32.5671 49.1718 32.5889C49.1738 32.5997 49.1755 32.6079 49.1764 32.6134C49.1769 32.6159 49.1771 32.618 49.1774 32.6194C49.1775 32.62 49.1778 32.6209 49.1778 32.6212V32.6217L49.1838 32.6696C49.2021 32.9083 49.037 33.1269 48.7962 33.1701C48.5394 33.2161 48.2937 33.0453 48.2475 32.7886L48.7127 32.7051C48.2476 32.7886 48.2475 32.7883 48.2475 32.7882V32.7877C48.2474 32.7873 48.2471 32.7869 48.247 32.7863C48.2468 32.7849 48.2466 32.7827 48.2461 32.7799C48.2451 32.7742 48.2435 32.7656 48.2415 32.7545C48.2375 32.7323 48.2315 32.6995 48.224 32.6567C48.2088 32.5709 48.187 32.4445 48.1589 32.2831C48.1028 31.9604 48.0231 31.4967 47.9291 30.9317C47.7412 29.8018 47.4956 28.2659 47.2646 26.6436C47.1275 25.6811 46.9957 24.6862 46.8839 23.7267C46.7475 23.775 46.6111 23.819 46.4741 23.8559L46.4745 23.8563C45.8867 24.0166 45.3071 24.0877 44.7519 24.0869C44.9868 25.5523 45.2127 27.2407 45.4012 28.7625C45.5551 30.0048 45.6856 31.1434 45.7773 31.9713C45.8231 32.3852 45.8591 32.7216 45.8839 32.9547C45.8963 33.0712 45.906 33.162 45.9125 33.2236C45.9157 33.2543 45.9182 33.2778 45.9199 33.2937C45.9207 33.3016 45.9213 33.3076 45.9217 33.3117C45.9219 33.3137 45.9221 33.3152 45.9222 33.3163V33.3177C45.9222 33.3177 45.922 33.3178 45.4519 33.3661C45.0068 33.4119 44.9834 33.4144 44.9822 33.4145V33.4131C44.9821 33.4122 44.9819 33.4108 44.9817 33.409C44.9813 33.4051 44.9807 33.3988 44.9799 33.391C44.9782 33.3754 44.9757 33.3522 44.9725 33.3218C44.9661 33.2608 44.9567 33.1706 44.9443 33.0548C44.9197 32.8229 44.8834 32.4876 44.8377 32.0751C44.7463 31.25 44.6167 30.1155 44.4635 28.8783C44.2642 27.2697 44.0252 25.4995 43.7814 24.0099C43.132 23.9036 42.5346 23.6941 42.0196 23.4052C40.8552 22.7522 40.0442 21.644 40.1617 20.3814L40.1622 20.3781L40.1723 20.3011C40.2377 19.92 40.4972 19.6002 40.7953 19.3897C41.1232 19.1582 41.5573 19.0132 42.0228 19.0447C43.0136 19.1119 43.9041 19.9317 44.3061 21.6894C44.4013 22.1057 44.4978 22.598 44.5936 23.1405C45.1109 23.157 45.6611 23.0989 46.2258 22.9449L46.2272 22.9445L46.4381 22.8822C46.551 22.8458 46.6637 22.8032 46.7768 22.7577C46.7438 22.4397 46.7132 22.1285 46.6868 21.8269C46.5591 20.365 46.5101 19.0685 46.6402 18.3141H46.6407C46.7024 17.9156 46.9754 17.5417 47.2826 17.2611C47.6059 16.9658 48.0339 16.7109 48.5022 16.5859ZM41.9586 19.987C41.7273 19.9714 41.506 20.0447 41.3407 20.1614C41.1654 20.2852 41.1084 20.4149 41.1026 20.4722C41.0329 21.2395 41.5213 22.0427 42.4819 22.5815C42.8136 22.7675 43.1941 22.9141 43.6098 23.0118C43.5342 22.6003 43.4594 22.2254 43.385 21.9002C43.031 20.3519 42.3618 20.0143 41.9586 19.987ZM49.5811 17.5586C49.3347 17.4318 49.048 17.418 48.7459 17.4987C48.4405 17.5802 48.1448 17.7535 47.9203 17.9585C47.7129 18.1479 47.6135 18.3197 47.583 18.4216L47.5738 18.4608C47.5731 18.4653 47.5727 18.4702 47.5719 18.4746C47.4658 19.09 47.4995 20.2669 47.6287 21.7448C47.6446 21.927 47.6619 22.113 47.6804 22.302C48.2999 21.9251 48.8801 21.4402 49.3453 20.915C49.7533 20.4545 50.056 19.9824 50.2217 19.5516C50.3887 19.117 50.4004 18.7696 50.3033 18.5157L50.3015 18.5111C50.0951 17.9541 49.8252 17.6842 49.5811 17.5586Z" fill="#080717"/>
<path d="M44.9802 40.4955L50.9342 39.6453C51.9738 39.5036 52.6826 38.5118 52.5408 37.4727L51.7848 32.2773L42.0977 33.6943L42.8537 38.8896C42.9955 39.9287 43.9406 40.6372 44.9802 40.4955Z" fill="#080717"/>
<path d="M52.3743 34.2197L41.8027 35.7344L41.9368 36.6694L52.5084 35.1548L52.3743 34.2197Z" fill="#080717"/>
<path d="M52.179 32.1377L41.6074 33.6523L41.7415 34.5874L52.3131 33.0728L52.179 32.1377Z" fill="#080717"/>
<path d="M38.493 32.7973C32.9018 33.2096 28.0643 36.534 24.5281 41.1844C20.992 45.8349 18.7938 51.7675 18.4686 57.2917L17.5254 57.2364C17.8618 51.5198 20.1291 45.4085 23.7755 40.613C27.422 35.8173 32.4846 32.2934 38.4234 31.8555L38.493 32.7973Z" fill="black"/>
<path d="M21.839 52.2316L17.7458 58.7645L15.791 50.2773L21.839 52.2316ZM18.1551 56.3311L20.3941 52.7569L17.0859 51.6883L18.1551 56.3311Z" fill="black"/>
<path d="M95.1417 15.7389C100.918 14.0423 107.43 14.1129 112.886 15.8667L112.597 16.7661C107.326 15.0721 101.009 15.0003 95.4084 16.6452C89.8085 18.2901 84.9794 21.6326 82.5958 26.7182L81.7402 26.3178C84.271 20.9183 89.3652 17.4356 95.1417 15.7389Z" fill="black"/>
<path d="M114.225 16.6101L106.652 18.0755L107.08 11.7266L114.225 16.6101ZM107.678 16.9145L111.824 16.1125L107.911 13.4391L107.678 16.9145Z" fill="black"/>
<path d="M28.0091 46.8048L27.5366 49.7802L26.6035 49.6321L27.0761 46.6562L28.0091 46.8048Z" fill="black"/>
<path d="M28.891 47.9645L28.7452 48.898L25.7207 48.4257L25.8665 47.4922L28.891 47.9645Z" fill="black"/>
<path d="M28.1976 27.0635L27.3471 32.3534L26.4141 32.2035L27.2645 26.9141L28.1976 27.0635Z" fill="black"/>
<path d="M30.0273 29.5922L29.8787 30.5249L24.5391 29.6748L24.6877 28.7422L30.0273 29.5922Z" fill="black"/>
<path d="M94.5489 75.3979L81.554 61.9844L68.6064 62.0316L60.4314 67.4159C60.904 68.1716 61.7545 68.5967 62.6524 68.5022L65.0623 68.1243L59.7226 71.9973C59.0138 72.5168 59.2028 73.5559 60.0534 73.792L61.5655 74.2171L60.8094 74.8311C60.5259 75.0672 60.5259 75.4923 60.7622 75.7285C62.0381 76.9092 63.9282 77.1454 65.4876 76.2952L71.0163 73.3197L66.9052 78.9402L67.1888 79.1291C68.4646 79.9792 70.1658 79.9792 71.3944 79.0346L76.2143 75.3979L82.5464 82.1518C84.6255 84.3717 87.508 85.6941 90.5323 85.883L95.4467 86.1664L122.051 107.845" fill="#93C0D2"/>
<path d="M81.6005 61.5179C81.7114 61.5289 81.8154 61.5788 81.8936 61.6595L94.8885 75.0727L94.9203 75.1092C95.0687 75.2971 95.0536 75.5705 94.8778 75.7406C94.702 75.9108 94.4279 75.9172 94.2447 75.7627L94.2096 75.73L81.3546 62.4607L68.7487 62.5064L61.1244 67.5283C61.5108 67.9009 62.042 68.0929 62.5974 68.0361L64.9891 67.6611L65.0699 67.6556C65.2558 67.6584 65.4261 67.7711 65.4991 67.9476C65.5824 68.1493 65.5166 68.3821 65.3399 68.5103L60.0002 72.3833C59.6367 72.6517 59.6996 73.1433 60.0962 73.3113L60.1802 73.3403L60.1816 73.3408L61.6938 73.7661C61.8636 73.8139 61.9926 73.9522 62.0284 74.1249C62.0641 74.2976 62.0006 74.4758 61.8636 74.5871L61.1087 75.2005C61.0804 75.2256 61.0649 75.2598 61.0634 75.3001C61.0619 75.3439 61.0779 75.3773 61.0948 75.3956C62.22 76.428 63.8827 76.6357 65.2614 75.8841L65.2637 75.8831L70.7925 72.9072C70.9868 72.8028 71.2276 72.8467 71.3726 73.0129C71.5176 73.1792 71.5282 73.4237 71.398 73.6019L67.5803 78.8207C68.682 79.4829 70.0892 79.4459 71.1063 78.6639L71.11 78.6612L75.9296 75.0243L75.967 74.9989C76.1562 74.8824 76.4047 74.9132 76.5595 75.0783L82.8913 81.8326L83.0809 82.0296C85.0594 84.0403 87.7453 85.239 90.5618 85.415H90.5613L95.4741 85.6987L95.5474 85.7084C95.6197 85.7241 95.6876 85.7567 95.7454 85.8039L122.349 107.483C122.552 107.648 122.582 107.945 122.417 108.147C122.252 108.349 121.955 108.38 121.752 108.215L95.2669 86.6322L90.5055 86.3583L90.5031 86.3578C87.362 86.1616 84.3652 84.7885 82.2014 82.4783V82.4779L76.1599 76.034L71.6822 79.412L71.6827 79.4125C70.3265 80.4552 68.4792 80.4796 67.0625 79.6122L66.9268 79.5255L66.6435 79.3369C66.5363 79.2654 66.4625 79.1532 66.44 79.0265C66.4175 78.8996 66.4479 78.7688 66.524 78.6648L69.404 74.7273L65.7118 76.7147L65.7113 76.7143C64.0305 77.6293 61.9987 77.4131 60.5771 76.1991L60.4414 76.0787C60.4369 76.0746 60.4323 76.0701 60.428 76.0658C60.0019 75.6396 60.0032 74.8914 60.5069 74.4717L60.5115 74.4681L60.56 74.4284L59.9269 74.2504V74.2508C58.6968 73.9092 58.4158 72.373 59.4432 71.6199L59.4451 71.6185L63.1945 68.8986L62.7256 68.9724C62.7178 68.9737 62.71 68.9748 62.7021 68.9757C61.6893 69.0822 60.7258 68.6378 60.1424 67.835L60.0307 67.6699C59.8947 67.4525 59.9573 67.1662 60.1714 67.0251L68.3463 61.6406L68.4063 61.6074C68.4682 61.5785 68.5359 61.5629 68.6047 61.5627L81.5525 61.5156L81.6005 61.5179Z" fill="#080717"/>
<path d="M50.2251 68.6442L65.4882 68.1719L60.9991 71.0057L50.3196 71.1474L47.4844 69.8722L50.2251 68.6442Z" fill="#080717"/>
<path d="M76.9092 64.3012C77.1482 64.3175 77.3408 64.5125 77.349 64.7569C77.3571 65.0013 77.1778 65.2086 76.9406 65.2408L76.8921 65.2445L69.8917 65.476L63.2936 69.8882C63.0767 70.0331 62.7834 69.9749 62.6383 69.7581C62.4933 69.5413 62.5516 69.2482 62.7685 69.1032L69.4782 64.6163L69.5354 64.5835C69.5946 64.5549 69.6594 64.5391 69.7255 64.5369L76.8607 64.3008L76.9092 64.3012Z" fill="#080717"/>
<path d="M75.9187 68.1252C76.1795 68.1181 76.3965 68.3239 76.4037 68.5846C76.4108 68.8453 76.2053 69.0626 75.9445 69.0698L69.1891 69.2543L60.8957 75.1692L60.8546 75.195C60.6466 75.3136 60.3783 75.258 60.2362 75.0589C60.0848 74.8466 60.1342 74.5518 60.3465 74.4003L68.7577 68.4019L68.8176 68.3655C68.8799 68.3337 68.9488 68.3162 69.0193 68.3143L75.9187 68.1252Z" fill="#080717"/>
<path d="M81.6004 61.5179C81.7113 61.5288 81.8152 61.5788 81.8934 61.6595L94.8136 74.9957L128.926 87.7111C129.171 87.8022 129.295 88.0742 129.204 88.3185C129.113 88.5629 128.841 88.6872 128.596 88.5962L94.384 75.8439C94.3181 75.8194 94.2584 75.7805 94.2095 75.73L81.3545 62.4607L68.749 62.5064L61.0416 67.5827L61.7994 69.0974L61.8187 69.1417C61.9037 69.3655 61.8068 69.6218 61.588 69.7312C61.3692 69.8405 61.1062 69.7641 60.9779 69.5619L60.9539 69.5199L60.0089 67.6307C59.9019 67.4168 59.972 67.1567 60.1718 67.0251L68.3466 61.6406L68.4062 61.6074C68.468 61.5785 68.5357 61.563 68.6046 61.5627L81.5524 61.5156L81.6004 61.5179Z" fill="#080717"/>
<path d="M75.464 70.3105C75.6916 70.1828 75.9796 70.2638 76.1073 70.4913C76.235 70.7188 76.154 71.0066 75.9264 71.1343L71.2956 73.7319C71.068 73.8596 70.78 73.7786 70.6523 73.5511C70.5246 73.3237 70.6056 73.0358 70.8332 72.9082L75.464 70.3105Z" fill="#080717"/>
<path d="M136.842 37.7109V40.6864H135.896V37.7109H136.842Z" fill="#080717"/>
<path d="M137.834 38.7031V39.6477H134.857V38.7031H137.834Z" fill="#080717"/>
<path d="M131.312 61.8438V67.2753H130.367V61.8438H131.312Z" fill="#080717"/>
<path d="M133.534 64.0625V65.0071H128.1V64.0625H133.534Z" fill="#080717"/>
<path d="M139.724 43.4727V48.8096H138.779V43.4727H139.724Z" fill="#080717"/>
<path d="M141.898 45.6445V46.5891H136.605V45.6445H141.898Z" fill="#080717"/>
<path d="M82.5863 5.79174C80.4273 3.63375 76.9265 3.63379 74.7675 5.79174C72.6084 7.94974 72.6084 11.4487 74.7675 13.6067C76.9265 15.7646 80.4273 15.7647 82.5863 13.6067C84.7453 11.4487 84.7453 7.94973 82.5863 5.79174ZM83.2546 5.1238C85.7827 7.65068 85.7827 11.7478 83.2546 14.2746C80.7265 16.8015 76.6274 16.8015 74.0992 14.2746C71.571 11.7477 71.571 7.6507 74.0992 5.1238C76.6274 2.59697 80.7265 2.59693 83.2546 5.1238Z" fill="black"/>
<path d="M81.7438 7.05837L82.142 7.31251L82.1415 7.31343C82.1411 7.31409 82.1405 7.315 82.1397 7.3162C82.1381 7.31865 82.1357 7.32216 82.1328 7.32681C82.1267 7.33624 82.1176 7.35035 82.106 7.36832C82.0829 7.40421 82.0491 7.45653 82.0059 7.52283C81.9191 7.65581 81.7941 7.84541 81.6418 8.07216C81.3374 8.52515 80.9211 9.12957 80.4752 9.73077C80.0315 10.3291 79.5493 10.9369 79.1143 11.3903C78.8981 11.6156 78.6795 11.8177 78.4724 11.9618C78.3687 12.0339 78.2553 12.1006 78.136 12.1463C78.0191 12.191 77.8667 12.2269 77.7004 12.2007L77.6967 12.2002C77.3431 12.1413 77.0245 11.9075 76.7793 11.6836C76.5198 11.4467 76.2732 11.1552 76.064 10.8816C75.8532 10.6058 75.6715 10.3362 75.543 10.1367C75.4786 10.0366 75.427 9.95327 75.3912 9.89451C75.3734 9.8652 75.3593 9.84202 75.3497 9.82578C75.3449 9.8177 75.3408 9.81135 75.3381 9.80687C75.3368 9.80465 75.3361 9.80262 75.3354 9.80134C75.335 9.80078 75.3347 9.80033 75.3344 9.79995L75.334 9.79949V9.79903L76.1508 9.32396L76.1512 9.32488C76.1516 9.32554 76.1522 9.32664 76.1531 9.32811C76.155 9.33132 76.1583 9.33654 76.1623 9.34333C76.1704 9.3569 76.1823 9.37746 76.1983 9.40375C76.2305 9.4566 76.2781 9.5331 76.3377 9.62561C76.4572 9.81128 76.624 10.0586 76.8148 10.3082C77.0073 10.56 77.2154 10.8026 77.4166 10.9863C77.5974 11.1513 77.731 11.229 77.8116 11.257C77.8375 11.2453 77.8782 11.2245 77.933 11.1864C78.0657 11.0941 78.2343 10.9426 78.4323 10.7363C78.8256 10.3263 79.2798 9.75635 79.7161 9.16806C80.1502 8.58264 80.5577 7.99128 80.8573 7.54543C81.0069 7.3228 81.1292 7.13709 81.214 7.00717C81.2563 6.94223 81.2895 6.89138 81.3118 6.85681C81.3229 6.83966 81.3311 6.82639 81.3367 6.8176C81.3396 6.81321 81.3418 6.80961 81.3432 6.80746C81.3438 6.80644 81.3443 6.80564 81.3446 6.80515L81.345 6.80469C81.345 6.80468 81.3452 6.80455 81.7438 7.05837Z" fill="black"/>
<path d="M118.743 36.3387C113.357 34.4495 111.844 27.3177 115.341 20.422C118.838 13.5264 126.068 9.46453 131.455 11.3538C136.842 13.243 138.401 20.3748 134.857 27.2705C131.36 34.2134 124.13 38.228 118.743 36.3387Z" fill="#CCCCCC"/>
<path d="M133.298 12.3008L136.559 14.6151C140.434 17.3545 141.19 23.5417 138.118 29.5872C134.574 36.4828 127.392 40.5447 122.005 38.6554L118.744 36.3411C124.131 38.2304 131.361 34.1685 134.858 27.2729C137.929 21.2746 137.126 15.0402 133.298 12.3008Z" fill="#080717"/>
<path d="M123.119 15.282C125.301 14.0505 127.714 13.6128 129.817 14.3563C131.935 15.1051 133.283 16.8855 133.76 19.1006C134.236 21.3084 133.854 23.9576 132.538 26.5403L132.537 26.5399C131.245 29.1226 129.255 31.1768 127.068 32.4109C124.885 33.6432 122.461 34.0788 120.336 33.3366L120.335 33.3362C118.216 32.5874 116.869 30.807 116.392 28.5919C115.916 26.3841 116.298 23.7348 117.614 21.1522C118.93 18.5698 120.932 16.5162 123.119 15.282ZM129.502 15.247C127.73 14.6209 125.607 14.9627 123.583 16.1044C121.565 17.2435 119.692 19.1572 118.456 21.5811C117.221 24.0048 116.893 26.4328 117.315 28.3931C117.736 30.3461 118.893 31.8246 120.65 32.4455H120.649C122.446 33.0724 124.582 32.7288 126.604 31.5881C128.622 30.4494 130.482 28.5369 131.694 26.1146L131.696 26.1114L131.809 25.8844C132.951 23.5366 133.245 21.1985 132.836 19.2994C132.415 17.3464 131.258 15.8678 129.502 15.247Z" fill="#080717"/>
</svg>
