<svg width="101" height="101" viewBox="0 0 101 101" fill="none" xmlns="http://www.w3.org/2000/svg">
<path d="M19.9996 52.7114H11.5093C7.75801 52.7114 4.87305 55.7292 4.87305 59.4806V86.0835C4.87305 88.5844 6.74438 90.834 9.24526 90.834H22.2637C24.7646 90.834 26.8207 88.5844 26.8207 86.0835V59.4806C26.8207 55.7292 23.751 52.7114 19.9996 52.7114Z" fill="#F1F1F1"/>
<path d="M90.3385 42.4688L80.1962 36.7276C76.9473 34.8823 74.1836 36.4273 74.1836 40.1642V86.0847C74.1836 88.5856 76.3668 90.8353 78.8678 90.8353H91.8864C94.3873 90.8353 96.1316 88.5856 96.1316 86.0847V52.6168C96.1316 48.8799 93.5874 44.3141 90.3385 42.4688Z" fill="#F1F1F1"/>
<path d="M68.0572 8.25055L33.3794 18.2167C29.7868 19.2419 27 23.1405 27 26.8746V85.4122C27 87.9016 28.8136 90.4112 31.303 90.4112H70.1885C72.6778 90.4112 74.3586 87.9045 74.3586 85.4122V13.1773C74.3586 9.44036 71.6469 7.22535 68.0543 8.25055H68.0572Z" fill="url(#paint0_linear_719_1469)"/>
<path d="M52.9004 70.0396H48.1065C44.1356 70.0396 40.6816 74.7469 40.6816 79.2867V90.8326H59.7419V79.2867C59.7419 74.7469 56.8713 70.0396 52.9004 70.0396Z" fill="white"/>
<path d="M37.4938 38.4314C39.2163 38.4314 40.6126 37.0351 40.6126 35.3126C40.6126 33.5902 39.2163 32.1938 37.4938 32.1938C35.7713 32.1938 34.375 33.5902 34.375 35.3126C34.375 37.0351 35.7713 38.4314 37.4938 38.4314Z" fill="white"/>
<path d="M50.5123 38.4314C52.2348 38.4314 53.6311 37.0351 53.6311 35.3126C53.6311 33.5902 52.2348 32.1938 50.5123 32.1938C48.7899 32.1938 47.3936 33.5902 47.3936 35.3126C47.3936 37.0351 48.7899 38.4314 50.5123 38.4314Z" fill="white"/>
<path d="M63.5309 38.4314C65.2534 38.4314 66.6497 37.0351 66.6497 35.3126C66.6497 33.5902 65.2534 32.1938 63.5309 32.1938C61.8084 32.1938 60.4121 33.5902 60.4121 35.3126C60.4121 37.0351 61.8084 38.4314 63.5309 38.4314Z" fill="white"/>
<path d="M40.5738 49.3976C40.8507 47.6975 39.697 46.0949 37.9969 45.818C36.2968 45.5411 34.6942 46.6948 34.4173 48.3949C34.1405 50.095 35.2942 51.6976 36.9942 51.9745C38.6943 52.2513 40.2969 51.0976 40.5738 49.3976Z" fill="white"/>
<path d="M53.5914 49.399C53.8683 47.699 52.7145 46.0963 51.0145 45.8195C49.3144 45.5426 47.7118 46.6963 47.4349 48.3964C47.158 50.0964 48.3118 51.6991 50.0118 51.9759C51.7119 52.2528 53.3145 51.0991 53.5914 49.399Z" fill="white"/>
<path d="M66.6172 49.3787C66.8811 47.6766 65.7151 46.0829 64.0129 45.819C62.3108 45.5552 60.7171 46.7212 60.4533 48.4234C60.1894 50.1255 61.3554 51.7192 63.0576 51.983C64.7597 52.2468 66.3534 51.0809 66.6172 49.3787Z" fill="white"/>
<defs>
<linearGradient id="paint0_linear_719_1469" x1="40.4723" y1="23.3796" x2="75.1773" y2="59.4438" gradientUnits="userSpaceOnUse">
<stop stop-color="#FFE39E"/>
<stop offset="1" stop-color="#F9C032"/>
</linearGradient>
</defs>
</svg>
