<svg width="48" height="48" viewBox="0 0 48 48" fill="none" xmlns="http://www.w3.org/2000/svg">
<path d="M23.7695 14.9734C23.7695 15.1937 23.7602 15.4094 23.7461 15.6297C23.7367 15.7281 23.7273 15.8219 23.718 15.9203C23.7039 16.0422 23.7648 16.0422 23.7227 15.8969C23.7367 15.9438 23.6992 16.0422 23.6945 16.0891C23.6289 16.4969 23.5305 16.8953 23.4039 17.2891C23.343 17.4766 23.2727 17.6641 23.1977 17.8469C23.132 18.0109 23.2211 17.8047 23.2211 17.7953C23.2258 17.8281 23.1602 17.9359 23.1461 17.9641C23.1039 18.0578 23.057 18.1516 23.0102 18.2453C22.8227 18.6109 22.6117 18.9625 22.3727 19.3C22.3445 19.3422 22.1852 19.5672 22.2648 19.45C22.3445 19.3328 22.1758 19.5578 22.1477 19.5953C22.0164 19.7547 21.8805 19.9047 21.7398 20.0547C21.5992 20.2 21.4492 20.3453 21.2992 20.4812C21.2289 20.5422 21.1633 20.6031 21.0883 20.6641C21.0508 20.6969 21.0086 20.7297 20.9711 20.7625C20.957 20.7766 20.9383 20.7859 20.9242 20.8C20.8445 20.8609 20.8586 20.8516 20.9664 20.7672C20.9383 20.8281 20.7695 20.9125 20.718 20.95C20.6523 20.9969 20.582 21.0437 20.5164 21.0906C20.3383 21.2078 20.1508 21.3203 19.9633 21.4234C19.7898 21.5172 19.6164 21.6063 19.4383 21.6906C19.4008 21.7094 19.3633 21.7234 19.3258 21.7422C19.1289 21.8359 19.5227 21.6672 19.3211 21.7469C19.2227 21.7844 19.1289 21.8219 19.0305 21.8594C18.6367 22.0047 18.2289 22.1172 17.8164 22.1969C17.7227 22.2156 17.6289 22.2344 17.5352 22.2484C17.493 22.2531 17.418 22.2812 17.3758 22.2719C17.4883 22.3 17.5398 22.2531 17.432 22.2625C17.2164 22.2859 17.0008 22.3047 16.7852 22.3141C16.3492 22.3328 15.9133 22.3094 15.4773 22.2625C15.2992 22.2437 15.5242 22.2766 15.5336 22.2719C15.4914 22.2859 15.3883 22.2484 15.3414 22.2437C15.2477 22.2297 15.1539 22.2109 15.0602 22.1922C14.8539 22.15 14.6477 22.0984 14.4461 22.0422C14.2539 21.9859 14.0664 21.925 13.8789 21.8594C13.7805 21.8219 13.6867 21.7844 13.5883 21.7469C13.4758 21.7047 13.5648 21.7797 13.6398 21.7703C13.5977 21.775 13.5133 21.7141 13.4711 21.6953C13.0961 21.5219 12.7352 21.3203 12.393 21.0953C12.318 21.0437 12.2383 20.9922 12.1633 20.9406C12.107 20.9031 11.9664 20.8375 11.9383 20.7766C11.9711 20.8 11.9992 20.8234 12.032 20.8469C12.0086 20.8281 11.9852 20.8094 11.9617 20.7906C11.9242 20.7578 11.882 20.725 11.8445 20.6922C11.7602 20.6219 11.6711 20.5469 11.5914 20.4719C11.2961 20.2047 11.0195 19.9187 10.7617 19.6094C10.7289 19.5719 10.6961 19.5297 10.6633 19.4922C10.6586 19.4828 10.6492 19.4781 10.6445 19.4688C10.5836 19.3891 10.593 19.4031 10.6773 19.5109C10.6164 19.4828 10.5508 19.3422 10.5133 19.2859C10.3867 19.1078 10.2695 18.9297 10.1617 18.7422C10.068 18.5828 9.97891 18.4187 9.89453 18.2547C9.84766 18.1609 9.80078 18.0672 9.7586 17.9734C9.73985 17.9359 9.72578 17.8984 9.70703 17.8609C9.62266 17.6781 9.77266 18.0297 9.70235 17.8562C9.54766 17.4672 9.41641 17.0687 9.31797 16.6609C9.27578 16.4734 9.2336 16.2859 9.20547 16.0984C9.1961 16.0562 9.16328 15.9484 9.17735 15.9062C9.17266 15.9203 9.20547 16.1406 9.18672 15.9625C9.17266 15.8453 9.16328 15.7281 9.15391 15.6062C9.1211 15.1797 9.1211 14.7531 9.1586 14.3266C9.16797 14.2188 9.17735 14.1109 9.19141 14.0031C9.20078 13.8953 9.15391 13.9469 9.18203 14.0594C9.17266 14.0172 9.20078 13.9422 9.20547 13.9C9.24297 13.6797 9.28516 13.4594 9.33672 13.2438C9.43047 12.8547 9.56172 12.4797 9.70703 12.1094C9.78672 11.9031 9.61797 12.3016 9.71172 12.1047C9.73047 12.0672 9.74453 12.0297 9.76328 11.9922C9.80547 11.8984 9.85235 11.8047 9.89922 11.7109C9.99297 11.5281 10.0914 11.3453 10.1992 11.1719C10.293 11.0125 10.3961 10.8578 10.5039 10.7078C10.5414 10.6562 10.6211 10.4875 10.6867 10.4594C10.6117 10.4922 10.5789 10.5906 10.6539 10.5016C10.7008 10.4453 10.743 10.3891 10.7898 10.3328C11.0477 10.0281 11.3242 9.7375 11.6195 9.475C11.6945 9.40469 11.7742 9.33906 11.8539 9.27344C11.8914 9.24531 12.1164 9.07656 11.9992 9.15625C11.882 9.23594 12.107 9.07656 12.1492 9.04844C12.2477 8.97813 12.3508 8.90781 12.4539 8.84219C12.782 8.63125 13.1242 8.43906 13.4805 8.275C13.5133 8.26094 13.6164 8.19062 13.6492 8.2C13.6398 8.2 13.4336 8.28437 13.5977 8.22344C13.6961 8.18594 13.7898 8.14844 13.8883 8.11094C14.0852 8.04062 14.2867 7.975 14.4883 7.91875C14.6711 7.86719 14.8586 7.825 15.0414 7.78281C15.1445 7.75937 15.2523 7.74063 15.3555 7.72656C15.407 7.71719 15.4633 7.7125 15.5148 7.70312C15.6039 7.68906 15.2992 7.72656 15.5195 7.70312C15.9414 7.65625 16.368 7.6375 16.7945 7.65625C17.0008 7.66563 17.207 7.67969 17.4133 7.70312C17.4789 7.7125 17.6289 7.75 17.3898 7.69844C17.432 7.70781 17.4742 7.7125 17.5164 7.71719C17.643 7.73594 17.7695 7.75938 17.8914 7.7875C18.2945 7.87188 18.6883 7.98438 19.0727 8.125C19.1617 8.15781 19.2461 8.19062 19.3352 8.22812C19.532 8.30312 19.1898 8.15781 19.3117 8.21875C19.3586 8.24219 19.4055 8.26094 19.4523 8.28437C19.6398 8.36875 19.8227 8.4625 20.0055 8.56562C20.1742 8.65937 20.343 8.7625 20.507 8.87031C20.582 8.92188 20.6617 8.97344 20.7367 9.025C20.7789 9.05313 20.8211 9.08594 20.8633 9.11406C20.8867 9.13281 20.9148 9.15156 20.9383 9.17031C21.018 9.23125 21.0039 9.21719 20.8961 9.1375C21.0414 9.18906 21.2055 9.39062 21.318 9.49375C21.4727 9.62969 21.618 9.77031 21.7586 9.92031C21.8992 10.0656 22.0352 10.2203 22.1664 10.3797C22.2133 10.4359 22.2977 10.5016 22.3211 10.5719C22.2977 10.5391 22.2742 10.5109 22.2508 10.4781C22.2742 10.5109 22.3023 10.5438 22.3258 10.5766C22.3633 10.6281 22.3961 10.675 22.4336 10.7266C22.6633 11.0547 22.8695 11.4016 23.0523 11.7578C23.0945 11.8422 23.1367 11.9266 23.1742 12.0109C23.1977 12.0578 23.2164 12.1047 23.2398 12.1516C23.3008 12.2734 23.1555 11.9313 23.2305 12.1281C23.3055 12.3203 23.3805 12.5172 23.4461 12.7141C23.5773 13.1172 23.6711 13.5297 23.7414 13.9469C23.7461 13.9891 23.7508 14.0313 23.7602 14.0734C23.7133 13.8484 23.7461 13.9563 23.7508 14.0172C23.7602 14.125 23.7742 14.2328 23.7836 14.3406C23.7648 14.5328 23.7695 14.7531 23.7695 14.9734C23.7695 15.4656 24.2008 15.9344 24.707 15.9109C25.2133 15.8875 25.6445 15.4984 25.6445 14.9734C25.6352 13.0984 25.068 11.2094 23.9664 9.68125C22.8508 8.12969 21.332 6.96719 19.5414 6.30625C15.9836 4.99844 11.7695 6.14688 9.36953 9.07656C8.14141 10.5813 7.40547 12.3766 7.25547 14.3172C7.11016 16.1875 7.57891 18.1187 8.54922 19.7266C9.48672 21.2781 10.9023 22.5719 12.557 23.3219C14.3617 24.1375 16.3445 24.3766 18.2945 23.9922C21.9461 23.2703 24.9461 20.1766 25.5086 16.4922C25.5836 15.9906 25.6352 15.4844 25.6398 14.9781C25.6398 14.4859 25.2086 14.0172 24.7023 14.0406C24.2008 14.0594 23.7742 14.4484 23.7695 14.9734Z" fill="#222222"/>
<path d="M40.3787 17.5743C40.3787 17.729 40.374 17.879 40.36 18.0337C40.3553 18.1087 40.3459 18.1837 40.3412 18.2587C40.3178 18.493 40.3694 18.104 40.3319 18.329C40.285 18.629 40.21 18.929 40.1162 19.2196C40.0694 19.3602 40.0225 19.4962 39.9662 19.6321C39.9053 19.7868 40.0459 19.468 39.9522 19.6649C39.9147 19.7399 39.8819 19.8149 39.8444 19.8899C39.7084 20.1571 39.5584 20.4102 39.385 20.654C39.3522 20.7009 39.2912 20.8227 39.2397 20.8509C39.235 20.8555 39.3662 20.7055 39.2912 20.7805C39.2725 20.804 39.2537 20.8274 39.235 20.8509C39.1319 20.9774 39.024 21.0993 38.9069 21.2165C38.8084 21.3196 38.7053 21.418 38.5975 21.5118C38.5506 21.554 38.5037 21.5915 38.4569 21.6337C38.424 21.6618 38.3959 21.6852 38.3631 21.7134C38.2319 21.8259 38.4803 21.6337 38.3819 21.6993C38.1381 21.8727 37.899 22.0415 37.6365 22.1821C37.51 22.2524 37.3834 22.318 37.2522 22.379C37.224 22.393 37.1959 22.4024 37.1678 22.4165C37.0553 22.4774 37.3365 22.3509 37.2194 22.393C37.1397 22.4212 37.0647 22.454 36.985 22.4821C36.699 22.5852 36.4037 22.6696 36.1084 22.7259C36.0334 22.7399 35.9631 22.754 35.8881 22.7634C35.6678 22.8009 36.024 22.754 35.8506 22.768C35.6912 22.7868 35.5272 22.8009 35.3631 22.8055C35.0444 22.8149 34.735 22.8009 34.4162 22.768C34.2428 22.7493 34.599 22.7962 34.3787 22.7634C34.3037 22.7493 34.2334 22.7399 34.1584 22.7259C34.0037 22.693 33.849 22.6555 33.699 22.6134C33.5584 22.5759 33.4178 22.529 33.2819 22.4774C33.2115 22.454 33.1459 22.4259 33.0803 22.3977C32.9537 22.3509 33.1037 22.4305 33.1319 22.4212C33.1178 22.4259 33.0334 22.379 33.0194 22.3696C32.7475 22.243 32.4897 22.0977 32.2365 21.9384C32.1147 21.8587 32.0022 21.7743 31.885 21.6899C31.7819 21.6196 32.0209 21.8071 31.9319 21.7227C31.9084 21.704 31.885 21.6852 31.8615 21.6665C31.8006 21.6149 31.735 21.5634 31.674 21.5071C31.4537 21.3102 31.2475 21.0946 31.06 20.8696C31.0319 20.8368 31.0084 20.804 30.9803 20.7759C30.91 20.6962 31.0365 20.8462 31.0319 20.8462C30.985 20.818 30.9381 20.7196 30.9053 20.6727C30.8162 20.5462 30.7319 20.4196 30.6522 20.2884C30.5772 20.1665 30.5069 20.0399 30.4412 19.9134C30.4084 19.8477 30.3756 19.7821 30.3475 19.7212C30.3287 19.6837 30.3147 19.6462 30.2959 19.6087C30.2397 19.5009 30.3803 19.829 30.3053 19.6321C30.1975 19.3602 30.1084 19.0837 30.0381 18.7977C30.0053 18.6524 29.9725 18.5071 29.949 18.3618C29.949 18.3618 29.9209 18.2446 29.9303 18.2352C29.9256 18.2399 29.9584 18.479 29.9397 18.2915C29.9303 18.2071 29.9209 18.118 29.9162 18.0337C29.8928 17.7196 29.8928 17.4009 29.9209 17.0868C29.9256 17.0118 29.935 16.9368 29.9444 16.8618C29.9631 16.6884 29.9115 17.0634 29.949 16.8243C29.9725 16.6696 30.0053 16.5102 30.0428 16.3555C30.1131 16.0602 30.2162 15.779 30.324 15.493C30.3615 15.3946 30.2912 15.5774 30.2912 15.5727C30.2865 15.5634 30.3334 15.479 30.3428 15.4602C30.3709 15.3946 30.4037 15.329 30.4365 15.2634C30.5069 15.1274 30.5819 14.9915 30.6615 14.8602C30.7365 14.7384 30.8162 14.6165 30.8959 14.4993C30.9381 14.443 30.9803 14.3821 31.0225 14.3259C31.0834 14.2415 30.9709 14.3962 30.9709 14.3962C30.9662 14.3821 31.0553 14.293 31.0694 14.279C31.2569 14.054 31.4631 13.8384 31.6834 13.6415C31.735 13.5946 31.7912 13.5477 31.8475 13.5009C31.8709 13.4821 31.8944 13.4634 31.9178 13.4446C32.0444 13.3368 31.8803 13.468 31.8709 13.4774C31.9319 13.379 32.1475 13.2759 32.2459 13.2102C32.4944 13.0462 32.7569 12.9009 33.0287 12.779C33.0475 12.7696 33.1319 12.7227 33.1412 12.7274C33.1459 12.7274 32.9631 12.7977 33.0615 12.7602C33.1319 12.7368 33.1975 12.7087 33.2631 12.6805C33.4084 12.6243 33.5584 12.5774 33.7084 12.5352C33.849 12.493 33.9944 12.4602 34.1397 12.4321C34.2147 12.418 34.285 12.404 34.36 12.3899C34.4022 12.3852 34.449 12.3805 34.4865 12.3712C34.4397 12.3852 34.299 12.3946 34.4303 12.3805C34.7537 12.3477 35.0819 12.3337 35.41 12.343C35.5506 12.3477 35.6912 12.3618 35.8319 12.3759C36.0756 12.404 35.6959 12.3524 35.8694 12.3805C35.9537 12.3946 36.0381 12.4087 36.1225 12.4274C36.4319 12.4884 36.7365 12.5727 37.0319 12.6852C37.0881 12.7087 37.149 12.7321 37.2053 12.7509C37.374 12.8165 37.1584 12.7274 37.1537 12.7274C37.1631 12.7227 37.2662 12.779 37.2662 12.779C37.4069 12.8446 37.5428 12.9149 37.6787 12.9899C37.8053 13.0602 37.9272 13.1352 38.049 13.2102C38.1475 13.2759 38.3631 13.3743 38.424 13.4774C38.4287 13.4821 38.274 13.3555 38.3537 13.4259C38.3819 13.454 38.4194 13.4774 38.4475 13.5055C38.5037 13.5524 38.5553 13.5993 38.6115 13.6462C38.724 13.7493 38.8365 13.8524 38.9397 13.9649C39.0381 14.068 39.1319 14.1759 39.2256 14.2837C39.2444 14.3071 39.2631 14.3305 39.2819 14.354C39.3475 14.429 39.3475 14.3727 39.249 14.3071C39.3053 14.3446 39.3569 14.4524 39.3944 14.504C39.5631 14.7477 39.7178 15.0009 39.8537 15.268C39.8865 15.3337 39.9194 15.3993 39.9475 15.4649C39.9615 15.493 39.9709 15.5212 39.985 15.5493C40.0412 15.6618 39.9194 15.3759 39.9615 15.4977C40.0131 15.643 40.074 15.7884 40.1209 15.9384C40.2147 16.229 40.285 16.529 40.3365 16.829C40.374 17.0493 40.3272 16.693 40.3412 16.8665C40.3506 16.9415 40.3553 17.0165 40.3647 17.0915C40.374 17.2462 40.3787 17.4102 40.3787 17.5743C40.3834 18.0665 40.81 18.5352 41.3162 18.5118C41.8225 18.4884 42.2584 18.0993 42.2537 17.5743C42.2397 14.5696 40.3319 11.9071 37.5194 10.8759C34.7959 9.87742 31.5428 10.7587 29.7053 12.9993C28.749 14.1665 28.1819 15.5446 28.0553 17.0493C27.9334 18.493 28.299 19.993 29.0444 21.2305C29.7662 22.4259 30.8584 23.4384 32.1381 24.0149C33.5537 24.6524 35.0865 24.8352 36.61 24.5305C39.4037 23.9727 41.7147 21.5821 42.1459 18.7602C42.2069 18.3665 42.249 17.9727 42.249 17.5743C42.2537 17.0821 41.8178 16.6134 41.3115 16.6368C40.8053 16.6602 40.3834 17.0493 40.3787 17.5743Z" fill="#222222"/>
<path d="M29.6476 35.9781C29.6476 37.0047 29.6476 38.0312 29.6476 39.0578C29.6476 39.2031 29.6429 39.3438 29.6429 39.4891C29.6429 39.7047 29.6992 39.2875 29.6429 39.4937C29.6336 39.5359 29.6242 39.5781 29.6148 39.6156C29.6101 39.6297 29.5679 39.7938 29.5586 39.7938C29.5586 39.7938 29.6617 39.6016 29.5632 39.7656C29.5351 39.8078 29.5164 39.8547 29.4882 39.9016C29.4789 39.9203 29.4648 39.9344 29.4554 39.9531C29.3992 40.0375 29.4086 40.0234 29.4929 39.9109C29.507 39.9531 29.2679 40.1453 29.2398 40.1734C29.0898 40.3141 29.4132 40.075 29.2351 40.1734C29.1976 40.1922 29.1648 40.2156 29.132 40.2391C29.1179 40.2484 28.9773 40.3328 28.9679 40.3234C29.0054 40.3094 29.0429 40.2906 29.0757 40.2766C29.0382 40.2906 28.9961 40.3047 28.9586 40.3187C28.9164 40.3328 28.8789 40.3422 28.8367 40.3516C28.8179 40.3562 28.7945 40.3609 28.7757 40.3656C28.6726 40.3844 28.6914 40.3797 28.8367 40.3609C28.832 40.375 28.6586 40.3703 28.6398 40.3703C28.6164 40.3703 28.5929 40.3703 28.5695 40.3703C27.2429 40.375 25.9164 40.3703 24.5898 40.3703C22.0539 40.3703 19.5179 40.3703 16.9773 40.3703C14.3664 40.3703 11.7554 40.3703 9.1445 40.3703C7.59762 40.3703 6.04606 40.3703 4.49919 40.3703C4.41013 40.3703 4.32575 40.3703 4.23669 40.3703C4.21325 40.3703 4.20387 40.3703 4.17106 40.3703C4.14762 40.3703 4.12887 40.3703 4.10544 40.3656C4.00231 40.3562 4.02106 40.3609 4.16169 40.375C4.157 40.3844 4.02575 40.3469 4.007 40.3422C3.95544 40.3281 3.90856 40.3094 3.857 40.3C3.65544 40.2484 4.03512 40.4031 3.85231 40.3C3.80544 40.2766 3.76325 40.2531 3.71638 40.225C3.68825 40.2109 3.66481 40.1922 3.63669 40.1781C3.55231 40.1219 3.56638 40.1313 3.67887 40.2156C3.64137 40.225 3.48669 40.0422 3.45856 40.0094C3.4445 39.9953 3.43044 39.9812 3.41637 39.9625C3.35075 39.8828 3.36481 39.9016 3.44919 40.0094C3.43981 40.0141 3.35544 39.8687 3.35075 39.8547C3.332 39.8172 3.31325 39.7797 3.2945 39.7469C3.19138 39.5641 3.34606 39.9437 3.2945 39.7422C3.28044 39.6812 3.257 39.625 3.24294 39.5594C3.23825 39.5406 3.23356 39.5172 3.22887 39.4984C3.21012 39.3953 3.21481 39.4141 3.23356 39.5594C3.20544 39.55 3.22419 39.1328 3.22419 39.0906C3.22419 38.8234 3.22419 38.5562 3.22419 38.2891C3.22419 37.6516 3.22419 37.0094 3.22419 36.3719C3.22419 36.2406 3.22419 36.1141 3.22419 35.9828C3.22419 35.7859 3.22887 35.5891 3.24294 35.3922C3.25231 35.2609 3.26169 35.1344 3.27575 35.0031C3.28044 34.9609 3.28512 34.9187 3.28981 34.8766C3.30387 34.7734 3.29919 34.7922 3.28044 34.9328C3.28512 34.8906 3.2945 34.8484 3.29919 34.8062C3.3695 34.3469 3.47262 33.8922 3.61325 33.4469C3.67887 33.2359 3.74919 33.0297 3.82887 32.8234C3.84762 32.7766 3.86637 32.725 3.88512 32.6781C3.96481 32.4719 3.79606 32.8703 3.88981 32.6734C3.94138 32.5609 3.99294 32.4484 4.0445 32.3359C4.24137 31.9281 4.47106 31.5344 4.72419 31.1594C4.78044 31.075 4.84138 30.9906 4.90231 30.9062C4.92575 30.8687 4.97263 30.7797 5.01013 30.7562C4.98669 30.7891 4.96325 30.8172 4.93981 30.85C4.96325 30.8172 4.99137 30.7844 5.01481 30.7516C5.15544 30.5781 5.30075 30.4047 5.45544 30.2406C5.76013 29.9125 6.08825 29.6031 6.43981 29.3172C6.482 29.2844 6.53356 29.2234 6.58512 29.2047C6.38356 29.2984 6.52419 29.2516 6.58981 29.2047C6.67419 29.1438 6.75387 29.0828 6.83825 29.0266C7.03044 28.8906 7.232 28.7641 7.43825 28.6469C7.62575 28.5391 7.81794 28.4359 8.01012 28.3375C8.10387 28.2906 8.19762 28.2484 8.29137 28.2063C8.33356 28.1875 8.41794 28.1312 8.46012 28.1312C8.33356 28.1828 8.31481 28.1922 8.40856 28.1547C8.44606 28.1406 8.48356 28.1219 8.52575 28.1078C8.957 27.9391 9.39762 27.8031 9.84762 27.7C10.0539 27.6531 10.2648 27.6109 10.4757 27.5781C10.5367 27.5687 10.607 27.5453 10.6679 27.55C10.4195 27.5406 10.6023 27.5594 10.6726 27.55C10.8039 27.5359 10.9304 27.5219 11.0617 27.5172C11.2961 27.5031 11.5304 27.4938 11.7601 27.4938C12.5523 27.4938 13.3445 27.4938 14.132 27.4938C16.4101 27.4938 18.6836 27.4938 20.9617 27.4938C21.0226 27.4938 21.0836 27.4938 21.1398 27.4938C21.3554 27.4938 21.5711 27.5031 21.7914 27.5172C21.9226 27.5266 22.0586 27.5359 22.1898 27.5547C22.2273 27.5594 22.4898 27.5969 22.2554 27.5594C22.3351 27.5734 22.4101 27.5828 22.4898 27.5969C23.0664 27.6953 23.6336 27.8453 24.1773 28.0516C24.2383 28.075 24.2992 28.0984 24.3554 28.1219C24.3882 28.1359 24.6226 28.2391 24.4164 28.1453C24.5336 28.1969 24.6507 28.2484 24.7633 28.3047C25.0398 28.4359 25.307 28.5812 25.5648 28.7406C25.7804 28.8719 25.9914 29.0125 26.1976 29.1625C26.2586 29.2047 26.3242 29.2516 26.3804 29.2984C26.2164 29.1578 26.3429 29.2703 26.3851 29.3031C26.5023 29.3969 26.6195 29.4953 26.732 29.5937C27.1164 29.9312 27.4726 30.3016 27.7961 30.7C27.8336 30.7469 27.8664 30.7891 27.9039 30.8359C27.9929 30.9484 27.7726 30.6531 27.9039 30.8406C27.9789 30.9438 28.0539 31.0469 28.1289 31.1547C28.2789 31.375 28.4242 31.6047 28.5554 31.8391C28.6773 32.0547 28.7898 32.275 28.8929 32.4953C28.9164 32.5469 28.9398 32.6031 28.9679 32.6547C29.0711 32.875 28.8976 32.4672 28.982 32.6922C29.0336 32.8234 29.0851 32.9547 29.132 33.0906C29.3007 33.5641 29.4273 34.0516 29.5211 34.5484C29.5351 34.6187 29.5445 34.6937 29.5586 34.7641C29.5679 34.8109 29.6195 35.05 29.5679 34.8062C29.5914 34.9234 29.5961 35.05 29.6054 35.1719C29.6382 35.4297 29.6476 35.7016 29.6476 35.9781C29.6476 36.4703 30.0789 36.9391 30.5851 36.9156C31.0914 36.8922 31.5226 36.5031 31.5226 35.9781C31.5132 33.5969 30.6929 31.3328 29.2164 29.4672C27.7586 27.625 25.607 26.3078 23.3054 25.8344C22.2039 25.6094 21.1117 25.6094 19.9961 25.6094C18.7211 25.6094 17.4508 25.6094 16.1758 25.6094C14.9664 25.6094 13.7523 25.6094 12.5429 25.6094C11.4273 25.6094 10.3211 25.6422 9.22887 25.9094C5.30075 26.8656 2.14137 30.2312 1.50387 34.2344C1.29762 35.5422 1.35387 36.8734 1.35387 38.1906C1.35387 38.6406 1.32575 39.1 1.36325 39.55C1.47106 40.7828 2.35231 41.9125 3.59919 42.1656C4.06794 42.2594 4.54137 42.2359 5.0195 42.2359C5.79763 42.2359 6.58044 42.2359 7.35856 42.2359C9.84762 42.2359 12.332 42.2359 14.8211 42.2359C17.5539 42.2359 20.2867 42.2359 23.0195 42.2359C24.7445 42.2359 26.4742 42.2359 28.1992 42.2359C28.3351 42.2359 28.4711 42.2359 28.607 42.2359C29.3992 42.2312 30.1961 41.9172 30.7351 41.3266C31.1898 40.825 31.4476 40.2203 31.5039 39.55C31.5179 39.3906 31.5132 39.2313 31.5132 39.0672C31.5132 38.4391 31.5132 37.8109 31.5132 37.1828C31.5132 36.7797 31.5132 36.3766 31.5132 35.9734C31.5132 35.4813 31.082 35.0125 30.5757 35.0359C30.0789 35.0594 29.6476 35.4484 29.6476 35.9781Z" fill="#222222"/>
<path d="M44.7663 33.5125C44.7663 34.1172 44.7663 34.7219 44.7663 35.3313C44.7663 35.6969 44.7663 36.0578 44.7663 36.4234C44.7663 36.5078 44.7616 36.5875 44.7663 36.6719C44.7663 36.6766 44.7663 36.6812 44.7663 36.6859V36.7516C44.7522 36.7375 44.8178 36.5734 44.7803 36.6578C44.7709 36.6813 44.7616 36.7234 44.7569 36.7469C44.7241 36.925 44.7616 36.6812 44.785 36.6953C44.785 36.6953 44.7475 36.7703 44.7428 36.775C44.6491 36.9578 44.7569 36.7469 44.7663 36.7562C44.7709 36.7609 44.6397 36.8875 44.6397 36.8828C44.6022 36.8453 44.8178 36.7797 44.6819 36.8406C44.6584 36.85 44.6256 36.8687 44.6022 36.8828C44.5178 36.9438 44.6819 36.8312 44.6866 36.85C44.6866 36.8547 44.5834 36.8781 44.5694 36.8828C44.4053 36.9344 44.7522 36.8875 44.5647 36.8781C44.5506 36.8781 44.5319 36.8781 44.5178 36.8781C44.4147 36.8781 44.3069 36.8781 44.2038 36.8781C43.7491 36.8781 43.2897 36.8781 42.835 36.8781C41.2928 36.8781 39.7506 36.8781 38.2038 36.8781C36.5631 36.8781 34.9178 36.8781 33.2772 36.8781C32.3959 36.8781 31.5053 36.8453 30.6194 36.8781C30.6053 36.8781 30.5913 36.8781 30.5772 36.8781C30.8913 37.1922 31.2006 37.5016 31.5147 37.8156C31.5147 36.8828 31.5616 35.9359 31.4678 35.0078C31.2803 33.1844 30.6569 31.4172 29.5694 29.9313C28.9272 29.0594 28.1913 28.3188 27.3334 27.6578C27.3944 28.15 27.46 28.6375 27.5209 29.1297C27.5772 29.0828 27.6334 29.0312 27.6897 28.9844C27.7178 28.9609 27.9147 28.8109 27.7319 28.9469C27.8303 28.8719 27.9288 28.8016 28.0319 28.7313C28.2803 28.5672 28.5381 28.4172 28.8006 28.2859C28.8663 28.2531 28.9366 28.225 29.0022 28.1922C29.2272 28.0844 28.8194 28.2578 29.0538 28.1688C29.1709 28.1266 29.2881 28.0797 29.4053 28.0422C29.6959 27.9438 29.9866 27.8688 30.2866 27.8125C30.3569 27.7984 30.4413 27.775 30.5163 27.775C30.2819 27.7797 30.5303 27.775 30.5725 27.7703C30.7038 27.7563 30.8303 27.7469 30.9616 27.7422C31.0741 27.7375 31.1866 27.7328 31.3038 27.7328C31.4069 27.7328 31.51 27.7328 31.6131 27.7328C32.7756 27.7328 33.9428 27.7328 35.1053 27.7328C36.2725 27.7328 37.4397 27.7328 38.6022 27.7328C38.7147 27.7328 38.8272 27.7328 38.9397 27.7328C38.9725 27.7328 39.01 27.7328 39.0428 27.7328C39.1741 27.7328 39.3053 27.7375 39.4366 27.7469C39.5397 27.7563 39.7366 27.7328 39.8256 27.7844C39.7834 27.7797 39.7459 27.775 39.7038 27.7703C39.7459 27.775 39.7881 27.7844 39.8303 27.7891C39.8913 27.7984 39.9569 27.8125 40.0178 27.8219C40.1209 27.8406 40.2241 27.8641 40.3272 27.8922C40.5709 27.9531 40.8147 28.0234 41.0491 28.1125C41.11 28.1359 41.1663 28.1594 41.2225 28.1781C41.4194 28.2531 41.0772 28.1078 41.1991 28.1688C41.3022 28.2203 41.4053 28.2625 41.5084 28.3141C41.7288 28.4266 41.9444 28.5484 42.1506 28.6844C42.2538 28.75 42.3569 28.8203 42.4553 28.8953C42.4741 28.9094 42.4881 28.9188 42.5069 28.9328C42.5866 28.9938 42.5725 28.9797 42.4647 28.9C42.5209 28.9094 42.61 29.0172 42.6569 29.0547C42.8538 29.2188 43.0366 29.3969 43.21 29.5844C43.2991 29.6828 43.3881 29.7813 43.4725 29.8844C43.4959 29.9172 43.5803 29.9875 43.5897 30.0297C43.5147 29.9266 43.4959 29.9078 43.5381 29.9594C43.5569 29.9828 43.5756 30.0063 43.5944 30.0344C43.7538 30.25 43.8944 30.475 44.0256 30.7094C44.0959 30.8359 44.1616 30.9625 44.2272 31.0938C44.2459 31.1312 44.2647 31.1688 44.2788 31.2063C44.2975 31.2438 44.3116 31.2812 44.3303 31.3187C44.2788 31.1922 44.2694 31.1734 44.3069 31.2672C44.4053 31.5203 44.4944 31.7781 44.5647 32.0406C44.5975 32.1625 44.6256 32.2891 44.6538 32.4109C44.6678 32.4719 44.6772 32.5375 44.6913 32.5984C44.7006 32.6641 44.7194 32.95 44.7053 32.6688C44.7288 32.95 44.7663 33.2266 44.7663 33.5125C44.7709 34.0047 45.1975 34.4734 45.7038 34.45C46.21 34.4266 46.6459 34.0375 46.6413 33.5125C46.6319 31.3188 45.6756 29.1578 43.9975 27.7328C42.5584 26.5141 40.7772 25.8672 38.8928 25.8672C36.5397 25.8672 34.1866 25.8672 31.8381 25.8672C31.2569 25.8672 30.6897 25.8813 30.1131 25.9656C28.6553 26.1766 27.3147 26.8469 26.2084 27.8078C25.9881 28 25.9131 28.3188 25.9506 28.5953C25.9928 28.9094 26.1569 29.0922 26.3959 29.2797C26.2131 29.1391 26.4334 29.3125 26.4803 29.35C26.56 29.4156 26.6397 29.4859 26.7194 29.5516C26.8788 29.6875 27.0288 29.8328 27.1788 29.9828C27.3194 30.1234 27.4553 30.2688 27.5819 30.4141C27.6428 30.4844 27.7038 30.5547 27.7647 30.625C27.7928 30.6625 27.8256 30.6953 27.8538 30.7328C27.8725 30.7562 27.9897 30.9156 27.91 30.8031C27.8209 30.6812 27.9569 30.8688 27.9616 30.8781C27.9897 30.9156 28.0178 30.9531 28.0413 30.9906C28.0975 31.0656 28.1491 31.1453 28.2006 31.2203C28.3178 31.3938 28.4303 31.5766 28.5334 31.7547C28.6272 31.9188 28.7163 32.0828 28.8006 32.2516C28.8428 32.3359 28.885 32.4203 28.9225 32.5047C28.9413 32.5469 28.96 32.5891 28.9788 32.6312C29.0678 32.8234 28.9225 32.4859 28.9928 32.6688C29.1428 33.0438 29.2741 33.4281 29.3772 33.8172C29.4288 34.0141 29.4756 34.2156 29.5131 34.4172C29.5319 34.525 29.5506 34.6328 29.5694 34.7406C29.5741 34.7781 29.5975 34.8578 29.5928 34.8859C29.5881 34.8531 29.5834 34.8156 29.5788 34.7828C29.5834 34.8203 29.5881 34.8578 29.5928 34.8906C29.6538 35.4109 29.6538 35.9359 29.6538 36.4563C29.6538 36.9063 29.6538 37.3563 29.6538 37.8063C29.6538 38.3125 30.085 38.7438 30.5913 38.7438C31.3413 38.7438 32.0959 38.7438 32.8459 38.7438C34.4959 38.7438 36.1459 38.7438 37.7913 38.7438C39.3991 38.7438 41.0022 38.7438 42.61 38.7438C43.1116 38.7438 43.6131 38.7438 44.1147 38.7438C44.5413 38.7438 44.9538 38.7531 45.3616 38.5797C46.1397 38.2516 46.6225 37.5109 46.6459 36.6672C46.6506 36.4375 46.6459 36.2031 46.6459 35.9688C46.6459 35.2 46.6459 34.4312 46.6459 33.6625C46.6459 33.6062 46.6459 33.5547 46.6459 33.4984C46.6459 33.0062 46.2147 32.5375 45.7084 32.5609C45.1975 32.5984 44.7663 32.9875 44.7663 33.5125Z" fill="#222222"/>
</svg>
