<svg width="70" height="70" viewBox="0 0 70 70" fill="none" xmlns="http://www.w3.org/2000/svg">
<rect opacity="0.02" width="70" height="70" fill="#D9D9D9"/>
<g clip-path="url(#clip0_1197_868)">
<path d="M56 28.5079C56 40.3908 46.6023 50.0158 35 50.0158C23.3977 50.0158 14 40.3908 14 28.5079C14 16.625 23.4057 7 35 7C46.5943 7 56 16.6332 56 28.5079Z" fill="#F9C032"/>
<path d="M45.508 51.8045C45.508 53.774 43.9471 55.3727 42.0241 55.3727H27.9839C26.0609 55.3727 24.5 53.774 24.5 51.8045C24.5 49.835 26.0609 48.2363 27.9839 48.2363H42.0241C43.9471 48.2363 45.508 49.835 45.508 51.8045Z" fill="#0F3654"/>
<path d="M35 64.0009C33.077 64.0009 31.5161 62.4023 31.5161 60.4328V58.076C31.5161 56.1065 33.077 54.5078 35 54.5078C36.923 54.5078 38.4839 56.1065 38.4839 58.076V60.4328C38.4839 62.4023 36.923 64.0009 35 64.0009Z" fill="#E6DEDD"/>
<path d="M45.508 56.9295C45.508 58.899 43.9471 60.4977 42.0241 60.4977H27.9839C26.0609 60.4977 24.5 58.899 24.5 56.9295C24.5 54.96 26.0609 53.3613 27.9839 53.3613H42.0241C43.9471 53.3613 45.508 54.96 45.508 56.9295Z" fill="#0F3654"/>
<path d="M37.7839 29.4386C37.7839 31.0126 36.5368 32.2898 35 32.2898C33.4632 32.2898 32.2161 31.0126 32.2161 29.4386V20.613C32.2161 19.039 33.4632 17.7617 35 17.7617C36.5368 17.7617 37.7839 19.039 37.7839 20.613V29.4386Z" fill="#FD8337"/>
<path d="M37.7839 37.779C37.7839 39.3529 36.5368 40.6302 35 40.6302C33.4632 40.6302 32.2161 39.3529 32.2161 37.779C32.2161 36.205 33.4632 34.9277 35 34.9277C36.5368 34.9277 37.7839 36.205 37.7839 37.779Z" fill="#FD8337"/>
</g>
<defs>
<clipPath id="clip0_1197_868">
<rect width="42" height="57" fill="white" transform="translate(14 7)"/>
</clipPath>
</defs>
</svg>
