<svg width="40" height="40" viewBox="0 0 40 40" fill="none" xmlns="http://www.w3.org/2000/svg">
<path d="M32.5 23.75V8.75C32.498 7.09301 31.8389 5.50445 30.6672 4.33277C29.4956 3.1611 27.907 2.50198 26.25 2.5H13.75C12.093 2.50198 10.5044 3.1611 9.33277 4.33277C8.1611 5.50445 7.50198 7.09301 7.5 8.75V23.75C7.50241 25.1796 7.99426 26.5653 8.89372 27.6765C9.79318 28.7877 11.046 29.5574 12.4437 29.8575L8.93375 35.5988C8.84213 35.7388 8.77959 35.8959 8.74983 36.0606C8.72007 36.2254 8.7237 36.3944 8.7605 36.5577C8.79731 36.721 8.86654 36.8753 8.96408 37.0113C9.06163 37.1473 9.1855 37.2624 9.32836 37.3496C9.47121 37.4369 9.63014 37.4946 9.79571 37.5192C9.96128 37.5439 10.1301 37.5351 10.2922 37.4932C10.4543 37.4514 10.6063 37.3775 10.7393 37.2758C10.8723 37.1741 10.9834 37.0467 11.0662 36.9012L12.23 35H27.7712L28.9338 36.9012C29.0166 37.0467 29.1277 37.1741 29.2607 37.2758C29.3937 37.3775 29.5457 37.4514 29.7078 37.4932C29.8699 37.5351 30.0387 37.5439 30.2043 37.5192C30.3699 37.4946 30.5288 37.4369 30.6716 37.3496C30.8145 37.2624 30.9384 37.1473 31.0359 37.0113C31.1335 36.8753 31.2027 36.721 31.2395 36.5577C31.2763 36.3944 31.2799 36.2254 31.2502 36.0606C31.2204 35.8959 31.1579 35.7388 31.0662 35.5988L27.5562 29.8575C28.954 29.5574 30.2068 28.7877 31.1063 27.6765C32.0057 26.5653 32.4976 25.1796 32.5 23.75ZM13.75 25C13.5028 25 13.2611 24.9267 13.0555 24.7893C12.85 24.652 12.6898 24.4568 12.5952 24.2284C12.5005 23.9999 12.4758 23.7486 12.524 23.5061C12.5722 23.2637 12.6913 23.0409 12.8661 22.8661C13.0409 22.6913 13.2637 22.5723 13.5061 22.524C13.7486 22.4758 13.9999 22.5005 14.2284 22.5951C14.4568 22.6898 14.652 22.85 14.7893 23.0555C14.9267 23.2611 15 23.5028 15 23.75C15 24.0815 14.8683 24.3995 14.6339 24.6339C14.3995 24.8683 14.0815 25 13.75 25ZM13.7587 32.5L15.2875 30H24.7137L26.2425 32.5H13.7587ZM25 23.75C25 23.5028 25.0733 23.2611 25.2107 23.0555C25.348 22.85 25.5432 22.6898 25.7716 22.5951C26.0001 22.5005 26.2514 22.4758 26.4939 22.524C26.7363 22.5723 26.9591 22.6913 27.1339 22.8661C27.3087 23.0409 27.4277 23.2637 27.476 23.5061C27.5242 23.7486 27.4995 23.9999 27.4049 24.2284C27.3102 24.4568 27.15 24.652 26.9445 24.7893C26.7389 24.9267 26.4972 25 26.25 25C25.9185 25 25.6005 24.8683 25.3661 24.6339C25.1317 24.3995 25 24.0815 25 23.75ZM28.75 16.25C28.75 16.913 28.4866 17.5489 28.0178 18.0178C27.5489 18.4866 26.913 18.75 26.25 18.75H13.75C13.087 18.75 12.4511 18.4866 11.9822 18.0178C11.5134 17.5489 11.25 16.913 11.25 16.25V8.75C11.25 8.08696 11.5134 7.45107 11.9822 6.98223C12.4511 6.51339 13.087 6.25 13.75 6.25H26.25C26.913 6.25 27.5489 6.51339 28.0178 6.98223C28.4866 7.45107 28.75 8.08696 28.75 8.75V16.25Z" fill="#A7A7A7"/>
</svg>
