<svg width="41" height="40" viewBox="0 0 41 40" fill="none" xmlns="http://www.w3.org/2000/svg">
<path d="M34.8934 19H38.667C38.667 9.30892 31.3594 2 21.667 2V5.7782C29.3311 5.7782 34.8934 11.3378 34.8934 19Z" fill="#F18435"/>
<path d="M21.7543 13.189C25.7682 13.189 27.4803 14.901 27.4803 18.9146H31.2976C31.2976 12.7596 27.9097 9.37194 21.7543 9.37194V13.189ZM28.2858 23.5772C27.919 23.2439 27.4371 23.0661 26.9417 23.0814C26.4463 23.0967 25.9763 23.3039 25.6308 23.6593L21.0633 28.3562C19.9639 28.1462 17.7537 27.4572 15.4786 25.188C13.2034 22.9111 12.5144 20.6953 12.3102 19.6036L17.0036 15.0346C17.3594 14.6894 17.5669 14.2193 17.5822 13.7238C17.5975 13.2283 17.4195 12.7463 17.0857 12.3798L10.0331 4.62541C9.69917 4.25775 9.23505 4.03473 8.73932 4.00373C8.24358 3.97272 7.75529 4.13617 7.37814 4.45937L3.23632 8.01116C2.90633 8.34232 2.70937 8.78307 2.6828 9.2498C2.65417 9.72693 2.10829 21.0293 10.8729 29.7971C18.5191 37.4408 28.0968 38 30.7346 38C31.1201 38 31.3568 37.9886 31.4198 37.9847C31.8865 37.9586 32.327 37.7608 32.6566 37.4293L36.2068 33.2859C36.5302 32.909 36.694 32.4209 36.6634 31.9252C36.6327 31.4295 36.41 30.9653 36.0426 30.6311L28.2858 23.5772Z" fill="#F18435"/>
</svg>
