<svg width="24" height="24" viewBox="0 0 24 24" fill="none" xmlns="http://www.w3.org/2000/svg">
<path d="M23.4704 6.23039C23.3327 5.7219 23.0642 5.25833 22.6915 4.88584C22.3188 4.51334 21.855 4.24492 21.3463 4.10731C19.4838 3.59961 11.988 3.59961 11.988 3.59961C11.988 3.59961 4.49184 3.61498 2.62937 4.12267C2.12063 4.2603 1.65684 4.52873 1.28417 4.90125C0.911512 5.27376 0.642987 5.73735 0.505339 6.24585C-0.0580142 9.55347 -0.276549 14.5935 0.520808 17.7688C0.65847 18.2773 0.927002 18.7409 1.29966 19.1134C1.67232 19.4859 2.13611 19.7543 2.64484 19.8919C4.50731 20.3996 12.0033 20.3996 12.0033 20.3996C12.0033 20.3996 19.4992 20.3996 21.3616 19.8919C21.8703 19.7543 22.3342 19.4859 22.7068 19.1134C23.0795 18.7409 23.3481 18.2773 23.4857 17.7688C24.0799 14.4565 24.263 9.41957 23.4704 6.23039Z" fill="#FF0000"/>
<path d="M9 15.6024L15.217 12.0014L9 8.40039V15.6024Z" fill="white"/>
</svg>
