<svg width="41" height="40" viewBox="0 0 41 40" fill="none" xmlns="http://www.w3.org/2000/svg">
<g clip-path="url(#clip0_1210_8037)">
<path d="M37.833 12.9167H35.333V1.66667C35.333 0.75 34.583 0 33.6663 0H6.99967C6.08301 0 5.33301 0.75 5.33301 1.66667V12.9167H2.83301C1.41634 12.9167 0.333008 14.0833 0.333008 15.4167V28.6667C0.333008 30.0833 1.41634 31.1667 2.83301 31.1667H5.33301V38.3333C5.33301 39.25 6.08301 40 6.99967 40H33.6663C34.583 40 35.333 39.25 35.333 38.3333V31.1667H37.833C39.2497 31.1667 40.333 30.0833 40.333 28.6667V15.4167C40.333 14.0833 39.2497 12.9167 37.833 12.9167ZM23.333 18.4167C23.333 17.4167 24.1663 16.6667 25.083 16.6667C26.083 16.6667 26.833 17.5 26.833 18.4167C26.833 19.4167 25.9997 20.1667 25.083 20.1667C24.083 20.1667 23.333 19.4167 23.333 18.4167ZM28.583 18.4167C28.583 17.4167 29.4163 16.6667 30.333 16.6667C31.2497 16.6667 32.083 17.5 32.083 18.4167C32.083 19.4167 31.2497 20.1667 30.333 20.1667C29.4163 20.1667 28.583 19.4167 28.583 18.4167ZM8.66634 3.33333H31.9997V12.9167H8.66634V3.33333ZM31.9997 36.6667H8.66634V27.1667H31.9997V36.6667ZM35.583 20.1667C34.583 20.1667 33.833 19.3333 33.833 18.4167C33.833 17.4167 34.6663 16.6667 35.583 16.6667C36.4997 16.6667 37.333 17.5 37.333 18.4167C37.333 19.4167 36.583 20.1667 35.583 20.1667Z" fill="#F18435"/>
</g>
<defs>
<clipPath id="clip0_1210_8037">
<rect width="40" height="40" fill="white" transform="translate(0.333008)"/>
</clipPath>
</defs>
</svg>
