<svg width="148" height="106" viewBox="0 0 148 106" fill="none" xmlns="http://www.w3.org/2000/svg">
<path d="M144.179 83.3778H3.87024C1.76365 83.3778 0 81.6597 0 79.4999V9.79439C0 7.83085 1.42072 6.21094 3.13539 6.21094H144.865C146.579 6.21094 148 7.83085 148 9.79439V79.549C148 81.6598 146.285 83.3778 144.179 83.3778ZM3.13539 7.14362C1.95962 7.14362 0.979808 8.32174 0.979808 9.79439V79.549C0.979808 81.1198 2.25356 82.4452 3.87024 82.4452H144.179C145.746 82.4452 147.069 81.1689 147.069 79.549V9.79439C147.069 8.37083 146.089 7.1927 144.914 7.1927H3.13539V7.14362Z" fill="#1D1D1B"/>
<path d="M8.18113 15.8828C6.95637 15.8828 5.97656 14.901 5.97656 13.6738C5.97656 12.4466 6.95637 11.4648 8.18113 11.4648C9.40589 11.4648 10.3857 12.4466 10.3857 13.6738C10.3857 14.901 9.3569 15.8828 8.18113 15.8828ZM8.18113 12.4957C7.49527 12.4957 6.95637 13.0357 6.95637 13.7229C6.95637 14.4101 7.49527 14.9501 8.18113 14.9501C8.867 14.9501 9.40589 14.4101 9.40589 13.7229C9.3569 13.0357 8.81801 12.4957 8.18113 12.4957Z" fill="#1D1D1B"/>
<path d="M13.1284 15.8828C11.9036 15.8828 10.9238 14.901 10.9238 13.6738C10.9238 12.4466 11.9036 11.4648 13.1284 11.4648C14.3532 11.4648 15.333 12.4466 15.333 13.6738C15.333 14.901 14.3532 15.8828 13.1284 15.8828ZM13.1284 12.4957C12.4425 12.4957 11.9036 13.0357 11.9036 13.7229C11.9036 14.4101 12.4425 14.9501 13.1284 14.9501C13.8143 14.9501 14.3532 14.4101 14.3532 13.7229C14.3532 13.0357 13.8143 12.4957 13.1284 12.4957Z" fill="#1D1D1B"/>
<path d="M18.1264 15.8828C16.9017 15.8828 15.9219 14.901 15.9219 13.6738C15.9219 12.4466 16.9017 11.4648 18.1264 11.4648C19.3512 11.4648 20.331 12.4466 20.331 13.6738C20.331 14.901 19.3512 15.8828 18.1264 15.8828ZM18.1264 12.4957C17.4406 12.4957 16.9017 13.0357 16.9017 13.7229C16.9017 14.4101 17.4406 14.9501 18.1264 14.9501C18.8123 14.9501 19.3512 14.4101 19.3512 13.7229C19.3512 13.0357 18.7633 12.4957 18.1264 12.4957Z" fill="#1D1D1B"/>
<path d="M121.105 16.5185C119.537 16.5185 118.264 15.2422 118.264 13.6713C118.264 12.1005 119.537 10.8242 121.105 10.8242C122.673 10.8242 123.947 12.1005 123.947 13.6713C123.947 15.2422 122.673 16.5185 121.105 16.5185ZM121.105 11.806C120.076 11.806 119.243 12.6405 119.243 13.6713C119.243 14.7022 120.076 15.5367 121.105 15.5367C122.134 15.5367 122.967 14.7022 122.967 13.6713C122.967 12.6405 122.134 11.806 121.105 11.806Z" fill="#1D1D1B"/>
<path d="M121.056 14.9473L119.586 13.4746L120.272 12.7383L121.056 13.5728L121.888 12.7383L122.574 13.4746L121.056 14.9473Z" fill="#1D1D1B"/>
<path d="M32.9712 16.2241L30.4727 13.6715L32.9712 11.168L33.657 11.8552L31.8444 13.6715L33.657 15.5368L32.9712 16.2241Z" fill="#1D1D1B"/>
<path d="M37.9183 16.2241L37.2324 15.5368L39.0451 13.6715L37.2324 11.8552L37.9183 11.168L40.4168 13.6715L37.9183 16.2241Z" fill="#1D1D1B"/>
<path d="M129.333 11.7578H128.354V15.6358H129.333V11.7578Z" fill="#1D1D1B"/>
<path d="M130.755 13.1797H126.885V14.1615H130.755V13.1797Z" fill="#1D1D1B"/>
<path d="M135.997 11.6094H134.43V13.1802H135.997V11.6094Z" fill="#1D1D1B"/>
<path d="M135.997 14.1602H134.43V15.7801H135.997V14.1602Z" fill="#1D1D1B"/>
<path d="M138.544 11.6094H136.977V13.1802H138.544V11.6094Z" fill="#1D1D1B"/>
<path d="M138.544 14.1602H136.977V15.7801H138.544V14.1602Z" fill="#1D1D1B"/>
<path d="M60.8863 30.317L39.2402 98.2148L54.6408 103.144L76.2869 35.2464L60.8863 30.317Z" fill="#F9C032"/>
<path d="M55.0163 103.649L27.0918 104.729L48.0107 88.7266L55.0163 103.649Z" fill="#F9C032"/>
<path d="M32.3743 97.0826L31.8926 97.9375L36.4146 100.495L36.8963 99.6406L32.3743 97.0826Z" fill="#1D1D1B"/>
<path d="M31.1633 98.5162L30.6816 99.3711L35.2037 101.929L35.6854 101.074L31.1633 98.5162Z" fill="#1D1D1B"/>
<path d="M41.544 99.1368C40.1233 99.1368 38.3107 98.7931 36.0571 98.155C35.9591 98.1059 35.8612 98.1059 35.8122 98.1059C35.7632 98.1059 35.6652 98.1059 35.5672 98.0568C35.4202 97.9586 35.3223 97.7623 35.3223 97.5659C35.3223 97.4187 35.4202 97.2714 35.5182 97.2223L35.5672 97.1732C35.6162 97.1241 35.6652 97.075 35.7632 97.026C37.2329 95.8969 39.3885 94.4243 40.8582 94.3752C41.985 94.3261 43.1117 94.7188 43.9936 95.5042C44.6794 96.0933 45.1693 97.026 44.7774 97.8114C44.6794 98.0568 44.4835 98.2041 44.3365 98.3514C43.8466 98.8422 42.8668 99.1368 41.544 99.1368ZM36.9879 97.3696C41.3971 98.5968 43.1607 98.155 43.8466 97.5168C43.9446 97.4187 44.0426 97.3696 44.0426 97.2714C44.1895 97.026 43.8956 96.5351 43.5037 96.1424C42.7688 95.5533 41.887 95.2097 41.0052 95.2588C40.2213 95.357 38.8496 96.0442 36.9879 97.3696Z" fill="#1D1D1B"/>
<path d="M35.8115 98.1044C35.7136 98.1044 35.6156 98.0553 35.5176 98.0062L35.4686 97.9571C35.4196 97.9571 35.3706 97.9081 35.3216 97.859C34.0479 97.0736 32.2842 95.8954 31.8923 94.7173C31.5984 93.8337 31.6474 92.7047 32.0883 91.7229C32.3822 91.0357 32.9701 90.1521 33.8029 90.2012C34.0479 90.2012 34.2438 90.2994 34.3908 90.3484C35.7136 90.9866 36.3504 93.2447 36.3014 97.2699C36.3014 97.3681 36.3014 97.4172 36.3014 97.4663C36.3014 97.5153 36.3014 97.5644 36.3014 97.6135C36.3014 97.8099 36.1545 97.9571 35.9585 98.0062C35.9095 98.1044 35.8605 98.1044 35.8115 98.1044ZM33.7539 91.1829C33.558 91.1829 33.1661 91.5756 32.9701 92.1156C32.6272 92.9501 32.5782 93.7846 32.8231 94.4719C33.0191 95.0609 33.8519 95.8463 35.3216 96.779C35.2726 92.5574 34.4398 91.5266 33.9499 91.2811C33.8519 91.1829 33.8029 91.1829 33.7539 91.1829Z" fill="#1D1D1B"/>
<path d="M83.8229 32.3726L67.6738 33.1484L71.0899 104.542L87.2389 103.767L83.8229 32.3726Z" fill="#F9C032"/>
<path d="M71.1348 104.584L93.1315 105.124L77.6015 89.1211L71.1348 104.584Z" fill="#F9C032"/>
<path d="M85.8529 96.4753L80.7383 97.375L80.9077 98.3419L86.0223 97.4423L85.8529 96.4753Z" fill="#1D1D1B"/>
<path d="M86.5423 98.2371L81.4277 99.1367L81.5971 100.104L86.7117 99.204L86.5423 98.2371Z" fill="#1D1D1B"/>
<path d="M82.2555 96.3863C82.2065 96.3863 82.1575 96.3863 82.1085 96.3863C82.0595 96.3863 81.9615 96.3863 81.8635 96.3863C77.3564 96.1408 74.7599 95.2572 73.9271 93.7355C73.8291 93.5391 73.7311 93.3428 73.6821 93.0974C73.5842 92.2138 74.368 91.5265 75.2008 91.1829C76.2786 90.7411 77.5034 90.7411 78.5322 91.1829C79.8549 91.7229 81.4226 93.8337 82.4514 95.4045C82.5004 95.5027 82.5494 95.5518 82.5984 95.6009L82.6474 95.65C82.7454 95.7481 82.7454 95.8954 82.7454 96.0427C82.6964 96.239 82.5494 96.3863 82.3534 96.4354C82.3045 96.3863 82.3045 96.3863 82.2555 96.3863ZM76.9155 91.8211C76.4746 91.8211 75.9847 91.9192 75.5438 92.0665C75.0049 92.2629 74.613 92.6556 74.6619 92.9501C74.6619 93.0483 74.7109 93.1464 74.7599 93.2446C75.2009 94.03 76.7195 95.0609 81.2757 95.3554C79.9529 93.441 78.9241 92.361 78.1893 92.0665C77.7973 91.8701 77.3564 91.8211 76.9155 91.8211Z" fill="#1D1D1B"/>
<path d="M82.4515 96.3356C82.3535 96.3356 82.2065 96.2865 82.1575 96.2374C82.0106 96.1392 81.9616 95.9428 82.0106 95.7465C82.0106 95.6974 82.0596 95.6483 82.0596 95.5992C82.0596 95.5501 82.1085 95.5011 82.1085 95.4029C83.4313 91.574 84.754 89.6595 86.2237 89.5123C86.4197 89.5123 86.6157 89.4632 86.8116 89.5614C87.5465 89.8068 87.8894 90.7886 87.8894 91.574C87.9384 92.703 87.6445 93.7339 87.0566 94.4702C86.2727 95.452 84.2641 95.9919 82.7944 96.2865C82.6964 96.2865 82.6474 96.3356 82.5984 96.3356H82.5495C82.5495 96.3356 82.5005 96.3356 82.4515 96.3356ZM86.4197 90.445C86.3707 90.445 86.3217 90.445 86.3217 90.445C85.7828 90.494 84.656 91.2304 83.1863 95.1574C84.852 94.7647 85.9298 94.3229 86.3217 93.832C86.7626 93.2921 87.0076 92.4576 86.9586 91.574C86.9586 91.034 86.7136 90.5431 86.5177 90.445C86.4687 90.445 86.4687 90.445 86.4197 90.445Z" fill="#1D1D1B"/>
<path d="M114.784 47.2979H32.5779C29.6875 47.2979 27.3359 44.9416 27.3359 42.0454C27.3359 39.1492 29.6875 36.793 32.5779 36.793H114.833C117.723 36.793 120.075 39.1492 120.075 42.0454C120.026 44.9416 117.674 47.2979 114.784 47.2979ZM32.5779 37.8238C30.2264 37.8238 28.3157 39.7383 28.3157 42.0945C28.3157 44.4508 30.2264 46.3652 32.5779 46.3652H114.833C117.184 46.3652 119.095 44.4508 119.095 42.0945C119.095 39.7383 117.184 37.8238 114.833 37.8238H32.5779Z" fill="#1D1D1B"/>
<path d="M71.722 17.206C65.3043 17.4514 53.6935 17.1078 46.247 22.9002C41.5929 26.5327 41.5929 36.5468 50.4112 36.7431C59.2784 36.9395 71.918 34.4851 71.918 34.4851C71.918 34.4851 82.157 40.4738 88.0358 40.1793C93.9147 39.8848 100.577 33.5033 96.9031 27.0236C93.2288 20.4949 81.6671 16.8623 71.722 17.206Z" fill="#F9C032"/>
<path d="M51.1953 26.3378C49.9705 26.3378 49.0887 25.6997 49.0397 25.6997C48.9417 25.6015 48.8438 25.5033 48.8438 25.3561C48.8438 25.2088 48.8438 25.0615 48.9417 24.9633C48.9417 24.9143 51.0483 22.3617 53.4488 20.1527C56.2413 17.551 61.4833 20.3981 64.3247 22.3617C65.5985 23.1962 66.2353 24.0798 66.5293 25.3561C66.5783 25.6015 66.4313 25.896 66.1374 25.9451C65.8924 25.9942 65.5985 25.8469 65.5495 25.5524C65.3535 24.5706 64.8146 23.8834 63.7858 23.1962C61.6792 21.7726 56.4863 18.68 54.0857 20.889C52.3711 22.5089 50.7544 24.3252 50.0685 25.1597C50.5094 25.3561 51.2443 25.5033 52.0281 25.2579C52.9589 24.9143 54.0857 23.8834 54.9676 22.9998C55.4085 22.6071 55.7514 22.2635 56.0453 22.018C56.2413 21.8708 56.5842 21.8708 56.7312 22.1162C56.8782 22.3126 56.8782 22.6562 56.6332 22.8035C56.3883 22.9998 56.0453 23.3434 55.6534 23.7361C54.7226 24.6688 53.4978 25.7978 52.3711 26.1906C51.9791 26.2887 51.5872 26.3378 51.1953 26.3378Z" fill="#080717"/>
<path d="M54.1846 31.5403C53.4007 31.5403 52.7149 30.9513 52.3719 30.5585C52.2739 30.4113 52.225 30.2149 52.3229 30.0677L56.2912 21.3299C56.3891 21.0845 56.6831 20.9863 56.928 21.0845C57.173 21.1827 57.271 21.4772 57.173 21.7226L53.3027 30.1658C53.5967 30.4113 54.0866 30.7549 54.5275 30.4113C54.7235 30.264 55.0664 30.3131 55.2134 30.5095C55.3603 30.7058 55.3114 31.0494 55.1154 31.1967C54.8214 31.4421 54.5275 31.5403 54.1846 31.5403Z" fill="#080717"/>
<path d="M56.0947 32.0319C55.3598 32.0319 54.7229 31.7865 54.6249 31.7374C54.478 31.6883 54.38 31.5901 54.331 31.4429C54.282 31.2956 54.282 31.1483 54.38 31.0501L58.8871 22.3124C59.0341 22.067 59.328 21.9688 59.524 22.1161C59.7689 22.2633 59.8669 22.5579 59.72 22.7542L55.5068 30.952C55.9477 31.0501 56.5356 31.0992 56.8295 30.7556C57.4174 30.0684 60.1609 25.5523 61.1897 23.8832C61.3366 23.6378 61.6306 23.5887 61.8755 23.736C62.1205 23.8832 62.1695 24.1778 62.0225 24.4232C61.8755 24.6687 58.2992 30.5593 57.5644 31.4429C57.1725 31.8847 56.5846 32.0319 56.0947 32.0319Z" fill="#080717"/>
<path d="M57.8585 31.6393C57.6135 31.6393 57.3686 31.5903 57.0746 31.4921C56.8297 31.3939 56.6827 31.1485 56.7807 30.8539C56.8787 30.6085 57.1236 30.4612 57.4176 30.5594C59.3772 31.2466 62.0227 27.1723 62.8555 25.6015C63.0025 25.356 63.2964 25.2579 63.5414 25.4051C63.7863 25.5524 63.8843 25.8469 63.7373 26.0924C63.3944 26.6814 60.6999 31.6393 57.8585 31.6393Z" fill="#080717"/>
<path d="M74.3178 13.2792C72.2602 12.592 71.1825 10.3339 71.8683 8.32131L73.779 2.77433C74.4648 0.712617 76.7184 -0.367327 78.727 0.31991C80.7846 1.00715 81.8624 3.26521 81.1765 5.27783L79.2659 10.8248C78.58 12.8865 76.3754 13.9665 74.3178 13.2792Z" fill="#F9C032"/>
<path d="M77.1094 8.56483L80.8816 9.1048C82.0084 9.25207 83.0372 8.46665 83.2332 7.33762C83.3801 6.20859 82.5963 5.17773 81.4695 4.98138L77.6973 4.44141L77.1094 8.56483Z" fill="#F9C032"/>
<path d="M76.3761 8.41886L73.3877 7.97707C73.2407 7.97707 73.0937 7.8298 72.9957 7.68254C72.9467 7.53527 72.9467 7.33892 72.9957 7.24074L75.2493 3.46094L76.0821 3.95182L74.1715 7.09348L76.4251 7.43709L76.3761 8.41886Z" fill="#1D1D1B"/>
<path d="M88.134 32.4734C87.889 32.4734 87.6931 32.3261 87.6441 32.0807C87.5951 31.8352 86.3213 26.5828 80.2465 25.0611C73.9758 23.5393 63.3938 26.7301 63.2958 26.7301C63.0509 26.8282 62.757 26.681 62.708 26.3864C62.61 26.141 62.757 25.8465 63.0509 25.7974C63.4918 25.6501 73.9758 22.5085 80.5405 24.0793C87.2032 25.7483 88.6239 31.5898 88.6729 31.8352C88.7219 32.0807 88.5749 32.3752 88.281 32.4243C88.183 32.4734 88.183 32.4734 88.134 32.4734Z" fill="#080717"/>
<path d="M58.5927 37.2837C58.3967 37.2837 58.2008 37.1364 58.1518 36.9401C58.0538 36.6946 58.2008 36.4001 58.4457 36.3019C58.5437 36.2528 67.6069 33.1112 75.4454 29.7241C80.4914 27.5151 84.8516 27.3679 87.448 29.2332C87.644 29.3805 87.742 29.675 87.546 29.9205C87.3991 30.1168 87.1051 30.215 86.8602 30.0186C84.5576 28.3496 80.4914 28.5951 75.7883 30.6077C67.9499 33.9948 58.8377 37.1855 58.7397 37.1855C58.6907 37.2837 58.6417 37.2837 58.5927 37.2837Z" fill="#080717"/>
<path d="M83.1359 40.3756C83.0379 40.3756 82.9889 40.3756 82.8909 40.3265L70.1534 32.7669C69.9085 32.6197 69.8595 32.3251 69.9575 32.0797C70.1044 31.8343 70.3984 31.7852 70.6433 31.8833L83.3808 39.443C83.6258 39.5902 83.6748 39.8847 83.5768 40.1302C83.4788 40.2775 83.2829 40.3756 83.1359 40.3756Z" fill="#080717"/>
<path d="M120.368 71.547C113.363 71.547 105.573 66.0982 100.968 57.3604C95.0894 46.1192 96.8041 33.6017 104.741 29.4292C108.66 27.3675 113.412 27.6129 118.213 30.1164C122.867 32.5708 126.982 36.8415 129.775 42.2412C135.653 53.4825 133.939 66 126.002 70.1725C124.239 71.1052 122.328 71.547 120.368 71.547ZM110.423 30.0182C108.709 30.0182 107.092 30.4109 105.622 31.1473C98.6657 34.7798 97.343 46.1192 102.683 56.4278C106.896 64.5273 114.049 69.5834 120.271 69.5834C121.936 69.5834 123.602 69.1907 125.072 68.4544C132.028 64.7728 133.351 53.4825 128.011 43.1739C125.365 38.1178 121.544 34.1416 117.282 31.8836C114.931 30.6564 112.628 30.0182 110.423 30.0182Z" fill="#080717"/>
<path d="M121.985 71.1546C115.176 71.1546 107.337 65.5094 102.634 56.5262C96.7063 45.1868 98.029 32.7184 105.574 28.7422C109.297 26.7787 113.951 27.1714 118.605 29.8222C123.112 32.3748 127.129 36.7436 129.971 42.1924C132.812 47.5921 134.086 53.4337 133.596 58.5879C133.106 63.9386 130.755 67.9638 127.031 69.9274C125.513 70.7619 123.749 71.1546 121.985 71.1546ZM110.718 29.9694C109.297 29.9694 107.925 30.264 106.7 30.9021C100.381 34.2401 99.4987 45.1868 104.79 55.3481C110.081 65.5094 119.585 71.0564 125.905 67.7184C128.893 66.1475 130.755 62.8095 131.196 58.2934C131.636 53.5809 130.412 48.2303 127.815 43.2724C125.219 38.2654 121.495 34.2401 117.429 31.933C115.078 30.6076 112.824 29.9694 110.718 29.9694Z" fill="#080717"/>
<path d="M131.967 72.9053L127.293 75.1719L136.299 93.8177L140.973 91.5511L131.967 72.9053Z" fill="#080717"/>
<path d="M135.703 95.4545L125.611 74.5919L132.47 71.2539L142.562 92.1165L135.703 95.4545ZM128.894 75.721L136.83 92.1656L139.28 90.9874L131.343 74.5428L128.894 75.721Z" fill="#080717"/>
<path d="M128.798 68.4915L125.711 69.9883L127.696 74.0974L130.782 72.6006L128.798 68.4915Z" fill="#080717"/>
</svg>
