<svg width="60" height="61" viewBox="0 0 60 61" fill="none" xmlns="http://www.w3.org/2000/svg">
<path d="M56.25 22.4516V18.8984C56.2427 17.7177 55.9017 16.5631 55.2664 15.5678C54.631 14.5726 53.7273 13.7772 52.6594 13.2734L46.875 10.5453C46.3099 10.2698 45.8341 9.84031 45.5023 9.30624C45.1706 8.77217 44.9965 8.15526 45 7.52656C45.0025 7.051 44.911 6.57963 44.7307 6.13956C44.5504 5.69948 44.2849 5.29937 43.9495 4.96222C43.6141 4.62507 43.2154 4.35753 42.7762 4.17497C42.3371 3.99241 41.8662 3.89843 41.3906 3.89844H18.6094C17.6521 3.89844 16.7341 4.27871 16.0572 4.9556C15.3803 5.63249 15 6.55055 15 7.50781C14.9913 8.12533 14.8114 8.72833 14.4804 9.2497C14.1494 9.77107 13.6802 10.1904 13.125 10.4609L7.21877 13.3484C6.17164 13.8618 5.29063 14.6603 4.67702 15.652C4.0634 16.6437 3.74209 17.7885 3.75002 18.9547V24.5797C3.75875 25.5501 4.02397 26.501 4.51877 27.3359C4.94569 28.0919 5.55218 28.7311 6.28468 29.197C7.01718 29.663 7.85315 29.9415 8.71877 30.0078C9.77877 30.0639 10.8309 29.7974 11.7363 29.2435C12.6418 28.6895 13.3581 27.874 13.7906 26.9047C13.8286 26.8115 13.8935 26.7318 13.977 26.6757C14.0605 26.6196 14.1588 26.5897 14.2594 26.5897C14.36 26.5897 14.4583 26.6196 14.5418 26.6757C14.6253 26.7318 14.6902 26.8115 14.7281 26.9047C15.1424 27.8287 15.8151 28.6133 16.6651 29.1637C17.5151 29.7142 18.5061 30.007 19.5188 30.007C20.5314 30.007 21.5225 29.7142 22.3725 29.1637C23.2225 28.6133 23.8951 27.8287 24.3094 26.9047C24.3474 26.8115 24.4123 26.7318 24.4958 26.6757C24.5792 26.6196 24.6776 26.5897 24.7781 26.5897C24.8787 26.5897 24.977 26.6196 25.0605 26.6757C25.144 26.7318 25.2089 26.8115 25.2469 26.9047C25.6648 27.8381 26.3462 28.629 27.2074 29.1805C28.0686 29.732 29.0722 30.0199 30.0948 30.009C31.1174 29.998 32.1145 29.6887 32.9637 29.1189C33.8129 28.5491 34.4772 27.7437 34.875 26.8016C34.9128 26.7244 34.9715 26.6594 35.0445 26.6139C35.1174 26.5685 35.2016 26.5443 35.2875 26.5443C35.3735 26.5443 35.4577 26.5685 35.5306 26.6139C35.6035 26.6594 35.6622 26.7244 35.7 26.8016C36.1013 27.7531 36.7742 28.5652 37.6347 29.1361C38.4951 29.7071 39.5049 30.0117 40.5375 30.0117C41.5702 30.0117 42.5799 29.7071 43.4404 29.1361C44.3008 28.5652 44.9738 27.7531 45.375 26.8016C45.4105 26.7191 45.4694 26.6489 45.5444 26.5996C45.6194 26.5503 45.7071 26.524 45.7969 26.524C45.8866 26.524 45.9744 26.5503 46.0494 26.5996C46.1244 26.6489 46.1833 26.7191 46.2188 26.8016C46.6365 27.7882 47.3486 28.6218 48.2579 29.1886C49.1672 29.7553 50.2293 30.0275 51.299 29.9681C52.3688 29.9086 53.3942 29.5203 54.235 28.8562C55.0758 28.1921 55.6911 27.2847 55.9969 26.2578C56.0789 26.0188 56.1446 25.7745 56.1938 25.5266V25.4609C56.2386 25.1506 56.2574 24.837 56.25 24.5234V22.4516Z" fill="#F18435"/>
<path d="M56.25 54.2047C56.159 53.7525 55.9099 53.3476 55.5474 53.0624C55.1849 52.7772 54.7327 52.6304 54.2719 52.6484C53.8019 52.6484 53.3512 52.4617 53.019 52.1294C52.6867 51.7972 52.5 51.3465 52.5 50.8765V35.8765C52.518 35.4157 52.3712 34.9635 52.086 34.601C51.8008 34.2385 51.3959 33.9894 50.9437 33.8984C50.6722 33.8516 50.3937 33.8651 50.128 33.9381C49.8623 34.0111 49.616 34.1418 49.4066 34.3208C49.1971 34.4998 49.0297 34.7228 48.9162 34.9738C48.8027 35.2249 48.746 35.4979 48.75 35.7734V50.7734C48.75 51.2707 48.5524 51.7476 48.2008 52.0992C47.8492 52.4509 47.3723 52.6484 46.875 52.6484H33.75C33.2527 52.6484 32.7758 52.4509 32.4242 52.0992C32.0725 51.7476 31.875 51.2707 31.875 50.7734V35.8765C31.893 35.4157 31.7462 34.9635 31.461 34.601C31.1758 34.2385 30.7709 33.9894 30.3187 33.8984C30.0472 33.8516 29.7687 33.8651 29.503 33.9381C29.2373 34.0111 28.991 34.1418 28.7816 34.3208C28.5721 34.4998 28.4047 34.7228 28.2912 34.9738C28.1777 35.2249 28.121 35.4979 28.125 35.7734V48.8984C28.125 49.893 27.7299 50.8468 27.0266 51.5501C26.3234 52.2533 25.3695 52.6484 24.375 52.6484H15C14.0054 52.6484 13.0516 52.2533 12.3483 51.5501C11.6451 50.8468 11.25 49.893 11.25 48.8984V35.8765C11.268 35.4157 11.1212 34.9635 10.836 34.601C10.5508 34.2385 10.1459 33.9894 9.69373 33.8984C9.42222 33.8516 9.14371 33.8651 8.87803 33.9381C8.61234 34.0111 8.36601 34.1418 8.15656 34.3208C7.94711 34.4998 7.77968 34.7228 7.6662 34.9738C7.55272 35.2249 7.49597 35.4979 7.49998 35.7734V51.0172C7.49998 51.4498 7.32812 51.8647 7.0222 52.1706C6.71628 52.4766 6.30137 52.6484 5.86873 52.6484H5.72811C5.26724 52.6304 4.81503 52.7772 4.45254 53.0624C4.09005 53.3476 3.84099 53.7525 3.74998 54.2047C3.70311 54.4762 3.71666 54.7547 3.78966 55.0204C3.86266 55.2861 3.99331 55.5324 4.17233 55.7418C4.35135 55.9513 4.57433 56.1187 4.8254 56.2322C5.07648 56.3457 5.34948 56.4024 5.62498 56.3984H54.375C54.6505 56.4024 54.9235 56.3457 55.1746 56.2322C55.4256 56.1187 55.6486 55.9513 55.8276 55.7418C56.0067 55.5324 56.1373 55.2861 56.2103 55.0204C56.2833 54.7547 56.2969 54.4762 56.25 54.2047Z" fill="#F18435"/>
<path d="M22.5 45.1484C23.5355 45.1484 24.375 44.309 24.375 43.2734C24.375 42.2379 23.5355 41.3984 22.5 41.3984C21.4645 41.3984 20.625 42.2379 20.625 43.2734C20.625 44.309 21.4645 45.1484 22.5 45.1484Z" fill="#F18435"/>
</svg>
