<svg width="80" height="80" viewBox="0 0 80 80" fill="none" xmlns="http://www.w3.org/2000/svg">
<g clip-path="url(#clip0_1611_6229)">
<circle cx="40" cy="40" r="40" fill="white"/>
<path fill-rule="evenodd" clip-rule="evenodd" d="M28.4453 37.75C29.1664 37.75 29.8577 38.0301 30.3676 38.5285C30.8774 39.0268 31.1641 39.7024 31.1641 40.4071V49.8933C31.902 50.1518 32.5103 50.6773 32.8633 51.3614C33.2163 50.6773 33.8246 50.1518 34.5625 49.8933V40.4071C34.5625 39.7024 34.8491 39.0268 35.359 38.5285C35.8689 38.0301 36.5602 37.75 37.2812 37.75H42.7188C43.4398 37.75 44.1311 38.0301 44.641 38.5285C45.1509 39.0268 45.4375 39.7024 45.4375 40.4071V49.8933C46.1754 50.1518 46.7837 50.6773 47.1367 51.3614C47.4897 50.6773 48.098 50.1518 48.8359 49.8933V40.4071C48.8359 39.7024 49.1226 39.0268 49.6324 38.5285C50.1423 38.0301 50.8336 37.75 51.5547 37.75H56.9922C57.7132 37.75 58.4046 38.0301 58.9144 38.5285C59.4243 39.0268 59.7109 39.7024 59.7109 40.4071V49.8933C60.3883 50.129 60.9589 50.5907 61.3219 51.1972C61.6849 51.8038 61.8168 52.5164 61.6949 53.2089C61.573 53.9014 61.2049 54.5294 60.6555 54.9825C60.1059 55.4357 59.4104 55.6848 58.6914 55.6857H54.8987V59.6714H61.0703C61.2506 59.6714 61.4234 59.7415 61.5509 59.866C61.6783 59.9906 61.75 60.1595 61.75 60.3357C61.75 60.5119 61.6783 60.6808 61.5509 60.8054C61.4234 60.93 61.2506 61 61.0703 61H18.9297C18.7494 61 18.5766 60.93 18.4491 60.8054C18.3217 60.6808 18.25 60.5119 18.25 60.3357C18.25 60.1595 18.3217 59.9906 18.4491 59.866C18.5766 59.7415 18.7494 59.6714 18.9297 59.6714H25.0469V55.6857H21.3086C20.5896 55.6848 19.8941 55.4357 19.3445 54.9825C18.7951 54.5294 18.427 53.9014 18.3051 53.2089C18.1832 52.5164 18.3151 51.8038 18.6781 51.1972C19.0411 50.5907 19.6117 50.129 20.2891 49.8933V40.4071C20.2891 39.7024 20.5757 39.0268 21.0856 38.5285C21.5954 38.0301 22.2868 37.75 23.0078 37.75H28.4453ZM32.8633 54.038C32.6105 54.5315 32.2222 54.9472 31.7422 55.2381C31.2622 55.5289 30.7092 55.6839 30.1445 55.6857H26.4062V59.6714H39.3203V55.6857H35.582C35.0174 55.6839 34.4643 55.5289 33.9844 55.2381C33.5044 54.9472 33.1161 54.5315 32.8633 54.038ZM47.1367 54.038C46.8839 54.5315 46.4956 54.9472 46.0156 55.2381C45.5357 55.5289 44.9826 55.6839 44.418 55.6857H40.6797V59.6714H53.5393V55.6857H49.8555C49.2908 55.6839 48.7378 55.5289 48.2578 55.2381C47.7778 54.9472 47.3895 54.5315 47.1367 54.038Z" fill="#D9D9D9"/>
<path fill-rule="evenodd" clip-rule="evenodd" d="M28.4453 37.75C29.1664 37.75 29.8577 38.0301 30.3676 38.5285C30.8774 39.0268 31.1641 39.7024 31.1641 40.4071V49.8933C31.902 50.1518 32.5103 50.6773 32.8633 51.3614C33.2163 50.6773 33.8246 50.1518 34.5625 49.8933V40.4071C34.5625 39.7024 34.8491 39.0268 35.359 38.5285C35.8689 38.0301 36.5602 37.75 37.2812 37.75H42.7188C43.4398 37.75 44.1311 38.0301 44.641 38.5285C45.1509 39.0268 45.4375 39.7024 45.4375 40.4071V49.8933C46.1754 50.1518 46.7837 50.6773 47.1367 51.3614C47.4897 50.6773 48.098 50.1518 48.8359 49.8933V40.4071C48.8359 39.7024 49.1226 39.0268 49.6324 38.5285C50.1423 38.0301 50.8336 37.75 51.5547 37.75H56.9922C57.7132 37.75 58.4046 38.0301 58.9144 38.5285C59.4243 39.0268 59.7109 39.7024 59.7109 40.4071V49.8933C60.3883 50.129 60.9589 50.5907 61.3219 51.1972C61.6849 51.8038 61.8168 52.5164 61.6949 53.2089C61.573 53.9014 61.2049 54.5294 60.6555 54.9825C60.1059 55.4357 59.4104 55.6848 58.6914 55.6857H54.8987V59.6714H61.0703C61.2506 59.6714 61.4234 59.7415 61.5509 59.866C61.6783 59.9906 61.75 60.1595 61.75 60.3357C61.75 60.5119 61.6783 60.6808 61.5509 60.8054C61.4234 60.93 61.2506 61 61.0703 61H18.9297C18.7494 61 18.5766 60.93 18.4491 60.8054C18.3217 60.6808 18.25 60.5119 18.25 60.3357C18.25 60.1595 18.3217 59.9906 18.4491 59.866C18.5766 59.7415 18.7494 59.6714 18.9297 59.6714H25.0469V55.6857H21.3086C20.5896 55.6848 19.8941 55.4357 19.3445 54.9825C18.7951 54.5294 18.427 53.9014 18.3051 53.2089C18.1832 52.5164 18.3151 51.8038 18.6781 51.1972C19.0411 50.5907 19.6117 50.129 20.2891 49.8933V40.4071C20.2891 39.7024 20.5757 39.0268 21.0856 38.5285C21.5954 38.0301 22.2868 37.75 23.0078 37.75H28.4453ZM32.8633 54.038C32.6105 54.5315 32.2222 54.9472 31.7422 55.2381C31.2622 55.5289 30.7092 55.6839 30.1445 55.6857H26.4062V59.6714H39.3203V55.6857H35.582C35.0174 55.6839 34.4643 55.5289 33.9844 55.2381C33.5044 54.9472 33.1161 54.5315 32.8633 54.038ZM47.1367 54.038C46.8839 54.5315 46.4956 54.9472 46.0156 55.2381C45.5357 55.5289 44.9826 55.6839 44.418 55.6857H40.6797V59.6714H53.5393V55.6857H49.8555C49.2908 55.6839 48.7378 55.5289 48.2578 55.2381C47.7778 54.9472 47.3895 54.5315 47.1367 54.038Z" fill="url(#paint0_linear_1611_6229)"/>
<path d="M40 32.5C41.335 32.5 42.6401 32.1041 43.7501 31.3624C44.8601 30.6207 45.7253 29.5665 46.2362 28.3331C46.7471 27.0997 46.8808 25.7425 46.6203 24.4331C46.3599 23.1238 45.717 21.921 44.773 20.977C43.829 20.033 42.6262 19.3902 41.3169 19.1297C40.0075 18.8693 38.6503 19.0029 37.4169 19.5138C36.1835 20.0247 35.1293 20.8899 34.3876 21.9999C33.6459 23.1099 33.25 24.415 33.25 25.75C33.25 27.5402 33.9612 29.2571 35.227 30.523C36.4929 31.7888 38.2098 32.5 40 32.5ZM40 20.5C41.0384 20.5 42.0534 20.8079 42.9167 21.3848C43.7801 21.9617 44.453 22.7816 44.8504 23.7409C45.2477 24.7002 45.3517 25.7558 45.1491 26.7742C44.9466 27.7926 44.4465 28.7281 43.7123 29.4623C42.9781 30.1965 42.0426 30.6966 41.0242 30.8991C40.0058 31.1017 38.9502 30.9977 37.9909 30.6004C37.0316 30.203 36.2117 29.5301 35.6348 28.6667C35.0579 27.8034 34.75 26.7884 34.75 25.75C34.75 24.3576 35.3031 23.0223 36.2877 22.0377C37.2723 21.0531 38.6076 20.5 40 20.5Z" fill="#F1F1F1"/>
<path d="M40.8775 28.4125C40.9294 28.5003 40.9987 28.5766 41.0811 28.6367C41.1635 28.6968 41.2573 28.7395 41.3567 28.7621C41.4562 28.7848 41.5592 28.7869 41.6595 28.7683C41.7598 28.7498 41.8552 28.711 41.94 28.6543C42.0248 28.5976 42.0971 28.5242 42.1526 28.4386C42.208 28.353 42.2454 28.257 42.2625 28.1564C42.2796 28.0559 42.276 27.9529 42.2519 27.8538C42.2278 27.7547 42.1838 27.6615 42.1225 27.58L40.75 25.525V22C40.75 21.8011 40.671 21.6103 40.5303 21.4697C40.3897 21.329 40.1989 21.25 40 21.25C39.8011 21.25 39.6103 21.329 39.4697 21.4697C39.329 21.6103 39.25 21.8011 39.25 22V25.75C39.2511 25.897 39.2955 26.0405 39.3775 26.1625L40.8775 28.4125Z" fill="#F1F1F1"/>
</g>
<defs>
<linearGradient id="paint0_linear_1611_6229" x1="31.9082" y1="40.5028" x2="33.8435" y2="62.9739" gradientUnits="userSpaceOnUse">
<stop stop-color="#FFD774"/>
<stop offset="1" stop-color="#FD8337"/>
</linearGradient>
<clipPath id="clip0_1611_6229">
<rect width="80" height="80" fill="white"/>
</clipPath>
</defs>
</svg>
