<svg width="32" height="32" viewBox="0 0 32 32" fill="none" xmlns="http://www.w3.org/2000/svg">
<circle cx="16" cy="16" r="16" fill="#F8F8F8"/>
<path d="M20.2485 18.2646C19.0816 17.2273 17.5745 16.6543 16.0131 16.6543C14.4518 16.6543 12.9447 17.2273 11.7778 18.2646C11.6791 18.35 11.5985 18.454 11.5404 18.5708C11.4824 18.6875 11.4481 18.8147 11.4396 18.9448C11.4311 19.0749 11.4485 19.2054 11.4909 19.3288C11.5332 19.4521 11.5997 19.5658 11.6863 19.6632C11.773 19.7606 11.8782 19.8399 11.9957 19.8963C12.1132 19.9528 12.2408 19.9853 12.3711 19.9921C12.5013 19.9988 12.6315 19.9796 12.7543 19.9356C12.877 19.8915 12.9898 19.8235 13.086 19.7356C13.8926 19.0187 14.9341 18.6228 16.0131 18.6228C17.0922 18.6228 18.1337 19.0187 18.9403 19.7356C19.1354 19.9091 19.3915 19.9979 19.6522 19.9826C19.9129 19.9672 20.1568 19.8489 20.3303 19.6538C20.5038 19.4586 20.5927 19.2025 20.5773 18.9418C20.562 18.6811 20.4437 18.4372 20.2485 18.2637V18.2646Z" fill="#666666"/>
<path d="M16.0135 12.6113C13.3706 12.6077 10.8258 13.6122 8.89789 15.4201C8.80029 15.5075 8.72112 15.6136 8.66503 15.732C8.60894 15.8504 8.57707 15.9789 8.57127 16.1098C8.56548 16.2407 8.58589 16.3715 8.63129 16.4944C8.6767 16.6173 8.74619 16.7299 8.83569 16.8257C8.9252 16.9214 9.03291 16.9982 9.15252 17.0518C9.27213 17.1053 9.40123 17.1344 9.53224 17.1374C9.66324 17.1404 9.79353 17.1172 9.91546 17.0692C10.0374 17.0212 10.1485 16.9493 10.2423 16.8577C11.8076 15.3942 13.8706 14.5801 16.0135 14.5801C18.1565 14.5801 20.2194 15.3942 21.7848 16.8577C21.8785 16.9493 21.9897 17.0212 22.1116 17.0692C22.2335 17.1172 22.3638 17.1404 22.4948 17.1374C22.6258 17.1344 22.7549 17.1053 22.8745 17.0518C22.9941 16.9982 23.1018 16.9214 23.1913 16.8257C23.2808 16.7299 23.3503 16.6173 23.3957 16.4944C23.4412 16.3715 23.4616 16.2407 23.4558 16.1098C23.45 15.9789 23.4181 15.8504 23.362 15.732C23.3059 15.6136 23.2268 15.5075 23.1291 15.4201C21.2013 13.6122 18.6565 12.6077 16.0135 12.6113Z" fill="#666666"/>
<path d="M25.6547 12.243C23.0008 9.87509 19.5683 8.56641 16.0116 8.56641C12.4548 8.56641 9.02239 9.87509 6.36846 12.243C6.26872 12.3282 6.18701 12.4325 6.12814 12.5497C6.06927 12.667 6.03442 12.7948 6.02564 12.9257C6.01687 13.0565 6.03434 13.1879 6.07703 13.3119C6.11973 13.4359 6.18678 13.5502 6.27426 13.6479C6.36173 13.7457 6.46787 13.825 6.58642 13.8811C6.70497 13.9373 6.83355 13.9692 6.9646 13.9749C7.09565 13.9807 7.22653 13.9602 7.34955 13.9147C7.47257 13.8691 7.58525 13.7995 7.68096 13.7098C9.97391 11.6648 12.939 10.5347 16.0113 10.5347C19.0837 10.5347 22.0488 11.6648 24.3417 13.7098C24.5364 13.8838 24.7922 13.9734 25.0528 13.9589C25.3135 13.9443 25.5578 13.8268 25.7318 13.6322C25.9059 13.4376 25.9955 13.1818 25.9809 12.9211C25.9664 12.6604 25.8489 12.4162 25.6542 12.2421L25.6547 12.243Z" fill="#666666"/>
<path d="M16.0117 23.9414C16.8401 23.9414 17.5117 23.2698 17.5117 22.4414C17.5117 21.613 16.8401 20.9414 16.0117 20.9414C15.1833 20.9414 14.5117 21.613 14.5117 22.4414C14.5117 23.2698 15.1833 23.9414 16.0117 23.9414Z" fill="#666666"/>
</svg>
