<svg width="65" height="64" viewBox="0 0 65 64" fill="none" xmlns="http://www.w3.org/2000/svg">
<path fill-rule="evenodd" clip-rule="evenodd" d="M16.8438 29C17.8052 29 18.7269 29.3735 19.4067 30.0379C20.0866 30.7024 20.4688 31.6032 20.4688 32.5429V45.1911C21.4527 45.5357 22.2637 46.2364 22.7344 47.1485C23.205 46.2364 24.0161 45.5357 25 45.1911V32.5429C25 31.6032 25.3822 30.7024 26.062 30.0379C26.7418 29.3735 27.6636 29 28.625 29H35.875C36.8364 29 37.7582 29.3735 38.438 30.0379C39.1178 30.7024 39.5 31.6032 39.5 32.5429V45.1911C40.4839 45.5357 41.295 46.2364 41.7656 47.1485C42.2363 46.2364 43.0473 45.5357 44.0312 45.1911V32.5429C44.0312 31.6032 44.4134 30.7024 45.0933 30.0379C45.7731 29.3735 46.6948 29 47.6562 29H54.9062C55.8677 29 56.7894 29.3735 57.4692 30.0379C58.1491 30.7024 58.5312 31.6032 58.5312 32.5429V45.1911C59.4344 45.5053 60.1952 46.1209 60.6792 46.9297C61.1632 47.7384 61.3391 48.6885 61.1765 49.6119C61.014 50.5351 60.5232 51.3725 59.7906 51.9767C59.0579 52.5809 58.1306 52.9131 57.1719 52.9143H52.1149V58.2286H60.3438C60.5841 58.2286 60.8145 58.322 60.9845 58.4881C61.1545 58.6542 61.25 58.8794 61.25 59.1143C61.25 59.3492 61.1545 59.5744 60.9845 59.7405C60.8145 59.9066 60.5841 60 60.3438 60H4.15625C3.9159 60 3.68546 59.9066 3.5155 59.7405C3.34555 59.5744 3.25 59.3492 3.25 59.1143C3.25 58.8794 3.34555 58.6542 3.5155 58.4881C3.68546 58.322 3.9159 58.2286 4.15625 58.2286H12.3125V52.9143H7.32812C6.36944 52.9131 5.44209 52.5809 4.70938 51.9767C3.97678 51.3725 3.48603 50.5351 3.32346 49.6119C3.16094 48.6885 3.33685 47.7384 3.82083 46.9297C4.30483 46.1209 5.06562 45.5053 5.96875 45.1911V32.5429C5.96875 31.6032 6.35094 30.7024 7.03076 30.0379C7.71058 29.3735 8.63234 29 9.59375 29H16.8438ZM22.7344 50.7173C22.3973 51.3754 21.8796 51.9297 21.2396 52.3175C20.5997 52.7052 19.8623 52.9118 19.1094 52.9143H14.125V58.2286H31.3438V52.9143H26.3594C25.6065 52.9118 24.8691 52.7052 24.2292 52.3175C23.5892 51.9297 23.0715 51.3754 22.7344 50.7173ZM41.7656 50.7173C41.4285 51.3754 40.9108 51.9297 40.2708 52.3175C39.6309 52.7052 38.8935 52.9118 38.1406 52.9143H33.1562V58.2286H50.3024V52.9143H45.3906C44.6377 52.9118 43.9003 52.7052 43.2604 52.3175C42.6204 51.9297 42.1027 51.3754 41.7656 50.7173Z" fill="#D9D9D9"/>
<path fill-rule="evenodd" clip-rule="evenodd" d="M16.8438 29C17.8052 29 18.7269 29.3735 19.4067 30.0379C20.0866 30.7024 20.4688 31.6032 20.4688 32.5429V45.1911C21.4527 45.5357 22.2637 46.2364 22.7344 47.1485C23.205 46.2364 24.0161 45.5357 25 45.1911V32.5429C25 31.6032 25.3822 30.7024 26.062 30.0379C26.7418 29.3735 27.6636 29 28.625 29H35.875C36.8364 29 37.7582 29.3735 38.438 30.0379C39.1178 30.7024 39.5 31.6032 39.5 32.5429V45.1911C40.4839 45.5357 41.295 46.2364 41.7656 47.1485C42.2363 46.2364 43.0473 45.5357 44.0312 45.1911V32.5429C44.0312 31.6032 44.4134 30.7024 45.0933 30.0379C45.7731 29.3735 46.6948 29 47.6562 29H54.9062C55.8677 29 56.7894 29.3735 57.4692 30.0379C58.1491 30.7024 58.5312 31.6032 58.5312 32.5429V45.1911C59.4344 45.5053 60.1952 46.1209 60.6792 46.9297C61.1632 47.7384 61.3391 48.6885 61.1765 49.6119C61.014 50.5351 60.5232 51.3725 59.7906 51.9767C59.0579 52.5809 58.1306 52.9131 57.1719 52.9143H52.1149V58.2286H60.3438C60.5841 58.2286 60.8145 58.322 60.9845 58.4881C61.1545 58.6542 61.25 58.8794 61.25 59.1143C61.25 59.3492 61.1545 59.5744 60.9845 59.7405C60.8145 59.9066 60.5841 60 60.3438 60H4.15625C3.9159 60 3.68546 59.9066 3.5155 59.7405C3.34555 59.5744 3.25 59.3492 3.25 59.1143C3.25 58.8794 3.34555 58.6542 3.5155 58.4881C3.68546 58.322 3.9159 58.2286 4.15625 58.2286H12.3125V52.9143H7.32812C6.36944 52.9131 5.44209 52.5809 4.70938 51.9767C3.97678 51.3725 3.48603 50.5351 3.32346 49.6119C3.16094 48.6885 3.33685 47.7384 3.82083 46.9297C4.30483 46.1209 5.06562 45.5053 5.96875 45.1911V32.5429C5.96875 31.6032 6.35094 30.7024 7.03076 30.0379C7.71058 29.3735 8.63234 29 9.59375 29H16.8438ZM22.7344 50.7173C22.3973 51.3754 21.8796 51.9297 21.2396 52.3175C20.5997 52.7052 19.8623 52.9118 19.1094 52.9143H14.125V58.2286H31.3438V52.9143H26.3594C25.6065 52.9118 24.8691 52.7052 24.2292 52.3175C23.5892 51.9297 23.0715 51.3754 22.7344 50.7173ZM41.7656 50.7173C41.4285 51.3754 40.9108 51.9297 40.2708 52.3175C39.6309 52.7052 38.8935 52.9118 38.1406 52.9143H33.1562V58.2286H50.3024V52.9143H45.3906C44.6377 52.9118 43.9003 52.7052 43.2604 52.3175C42.6204 51.9297 42.1027 51.3754 41.7656 50.7173Z" fill="url(#paint0_linear_1573_5754)"/>
<path d="M32.25 22C34.03 22 35.7701 21.4722 37.2501 20.4832C38.7302 19.4943 39.8837 18.0887 40.5649 16.4442C41.2461 14.7996 41.4243 12.99 41.0771 11.2442C40.7298 9.49836 39.8726 7.89472 38.614 6.63604C37.3553 5.37737 35.7516 4.5202 34.0058 4.17294C32.26 3.82567 30.4504 4.0039 28.8058 4.68509C27.1613 5.36628 25.7557 6.51983 24.7668 7.99987C23.7778 9.47991 23.25 11.22 23.25 13C23.25 15.387 24.1982 17.6761 25.886 19.364C27.5739 21.0518 29.8631 22 32.25 22ZM32.25 6C33.6345 6 34.9878 6.41055 36.139 7.17972C37.2901 7.94889 38.1873 9.04214 38.7172 10.3212C39.247 11.6003 39.3856 13.0078 39.1155 14.3656C38.8454 15.7235 38.1787 16.9708 37.1997 17.9498C36.2208 18.9287 34.9735 19.5954 33.6156 19.8655C32.2578 20.1356 30.8503 19.997 29.5712 19.4672C28.2921 18.9373 27.1989 18.0401 26.4297 16.889C25.6605 15.7379 25.25 14.3845 25.25 13C25.25 11.1435 25.9875 9.36301 27.3003 8.05026C28.613 6.7375 30.3935 6 32.25 6Z" fill="#F1F1F1"/>
<path d="M33.42 16.55C33.4892 16.6671 33.5816 16.7688 33.6914 16.8489C33.8013 16.9291 33.9263 16.986 34.0589 17.0162C34.1915 17.0463 34.3289 17.0492 34.4626 17.0244C34.5964 16.9997 34.7236 16.948 34.8367 16.8724C34.9497 16.7968 35.0462 16.6989 35.1201 16.5848C35.194 16.4707 35.2439 16.3426 35.2667 16.2086C35.2895 16.0745 35.2847 15.9372 35.2526 15.805C35.2205 15.6729 35.1617 15.5487 35.08 15.44L33.25 12.7V8C33.25 7.73478 33.1446 7.48043 32.9571 7.29289C32.7696 7.10536 32.5152 7 32.25 7C31.9848 7 31.7304 7.10536 31.5429 7.29289C31.3554 7.48043 31.25 7.73478 31.25 8V13C31.2515 13.196 31.3106 13.3873 31.42 13.55L33.42 16.55Z" fill="#F1F1F1"/>
<defs>
<linearGradient id="paint0_linear_1573_5754" x1="21.461" y1="32.6704" x2="24.0414" y2="62.6319" gradientUnits="userSpaceOnUse">
<stop stop-color="#FFD774"/>
<stop offset="1" stop-color="#FD8337"/>
</linearGradient>
</defs>
</svg>
