<svg width="120" height="120" viewBox="0 0 120 120" fill="none" xmlns="http://www.w3.org/2000/svg">
<path d="M23.7583 62.625H13.6703C9.21303 62.625 5.78516 66.2107 5.78516 70.668V102.277C5.78516 105.249 8.00864 107.922 10.9802 107.922H26.4485C29.42 107.922 31.8631 105.249 31.8631 102.277V70.668C31.8631 66.2107 28.2156 62.625 23.7583 62.625Z" fill="#F1F1F1"/>
<path d="M107.331 50.4545L95.2807 43.6331C91.4205 41.4405 88.1367 43.2762 88.1367 47.7163V102.278C88.1367 105.249 90.7308 107.922 93.7023 107.922H109.171C112.142 107.922 114.215 105.249 114.215 102.278V62.5121C114.215 58.072 111.192 52.6471 107.331 50.4545Z" fill="#F1F1F1"/>
<path d="M80.6461 10.2977L39.443 22.1391C35.1745 23.3572 31.8633 27.9895 31.8633 32.4262V101.979C31.8633 104.937 34.0181 107.918 36.9759 107.918H83.1784C86.1362 107.918 88.1332 104.94 88.1332 101.979V16.1515C88.1332 11.7114 84.9112 9.07958 80.6427 10.2977H80.6461Z" fill="url(#paint0_linear_1570_4982)"/>
<path d="M62.8499 83.2148H57.1539C52.4359 83.2148 48.332 88.8079 48.332 94.2019V107.92H70.9786V94.2019C70.9786 88.8079 67.5679 83.2148 62.8499 83.2148Z" fill="#F1F1F1"/>
<path d="M44.5457 45.6577C46.5923 45.6577 48.2515 43.9986 48.2515 41.9519C48.2515 39.9052 46.5923 38.2461 44.5457 38.2461C42.499 38.2461 40.8398 39.9052 40.8398 41.9519C40.8398 43.9986 42.499 45.6577 44.5457 45.6577Z" fill="white"/>
<path d="M60.0105 45.6577C62.0572 45.6577 63.7163 43.9986 63.7163 41.9519C63.7163 39.9052 62.0572 38.2461 60.0105 38.2461C57.9638 38.2461 56.3047 39.9052 56.3047 41.9519C56.3047 43.9986 57.9638 45.6577 60.0105 45.6577Z" fill="white"/>
<path d="M75.4792 45.6577C77.5259 45.6577 79.1851 43.9986 79.1851 41.9519C79.1851 39.9052 77.5259 38.2461 75.4792 38.2461C73.4326 38.2461 71.7734 39.9052 71.7734 41.9519C71.7734 43.9986 73.4326 45.6577 75.4792 45.6577Z" fill="white"/>
<path d="M48.2039 58.6861C48.5329 56.666 47.162 54.7618 45.1419 54.4328C43.1219 54.1038 41.2176 55.4747 40.8886 57.4947C40.5597 59.5148 41.9305 61.419 43.9506 61.748C45.9706 62.077 47.8749 60.7061 48.2039 58.6861Z" fill="white"/>
<path d="M63.6726 58.69C64.0016 56.6699 62.6307 54.7657 60.6107 54.4367C58.5906 54.1077 56.6864 55.4786 56.3574 57.4986C56.0284 59.5187 57.3993 61.4229 59.4193 61.7519C61.4394 62.0809 63.3437 60.71 63.6726 58.69Z" fill="white"/>
<path d="M79.1496 58.6645C79.463 56.642 78.0776 54.7483 76.055 54.4348C74.0325 54.1213 72.1389 55.5068 71.8254 57.5293C71.5119 59.5518 72.8974 61.4455 74.9199 61.759C76.9424 62.0724 78.8361 60.687 79.1496 58.6645Z" fill="white"/>
<defs>
<linearGradient id="paint0_linear_1570_4982" x1="49.5311" y1="21.5936" x2="74.3154" y2="109.984" gradientUnits="userSpaceOnUse">
<stop stop-color="#F9C032"/>
<stop offset="1" stop-color="#FD8337"/>
</linearGradient>
</defs>
</svg>
