<svg width="320" height="376" viewBox="0 0 320 376" fill="none" xmlns="http://www.w3.org/2000/svg">
<rect width="176" height="44" rx="8" fill="url(#paint0_linear_1789_6369)" fill-opacity="0.25"/>
<path d="M68.251 16.9922V18.1816C68.2373 19.7129 68.2373 21.4355 67.7588 24.0195L66.2275 23.8555C66.7061 21.4492 66.7061 19.6924 66.7197 18.209H59.3369V16.9922H68.251ZM69.4268 25.373V26.6172H58.1611V25.373H62.3174V21.0801H63.8213V25.373H69.4268ZM81.5264 21.8047V23.0215H70.2607V21.8047H72.8857V20.2324C71.9561 19.8428 71.4229 19.2207 71.4229 18.4141C71.4229 16.9375 73.1592 16.0625 75.8799 16.0625C78.6006 16.0625 80.3232 16.9375 80.3369 18.4141C80.3301 19.2275 79.7969 19.8496 78.8604 20.2324V21.8047H81.5264ZM75.8799 23.7734C78.5459 23.7598 80.1455 24.5527 80.1592 25.9746C80.1455 27.4102 78.5459 28.1895 75.8799 28.1895C73.1865 28.1895 71.5732 27.4102 71.5732 25.9746C71.5732 24.5527 73.1865 23.7598 75.8799 23.7734ZM75.8799 24.9219C74.0752 24.9219 73.1045 25.2773 73.1182 25.9746C73.1045 26.6719 74.0752 27.041 75.8799 27.041C77.6436 27.041 78.6279 26.6719 78.6416 25.9746C78.6279 25.2773 77.6436 24.9219 75.8799 24.9219ZM75.8799 17.2383C74.0479 17.2383 72.9951 17.6484 73.0088 18.4141C72.9951 19.166 74.0479 19.5625 75.8799 19.5625C77.6982 19.5625 78.7646 19.166 78.7646 18.4141C78.7646 17.6484 77.6982 17.2383 75.8799 17.2383ZM74.417 21.8047H77.3428V20.6289C76.8984 20.6904 76.4062 20.7246 75.8799 20.7246C75.3535 20.7246 74.8613 20.6904 74.417 20.6289V21.8047ZM92.4092 21.2852V22.5156H88.7588V25.5098H93.6533V26.7402H82.3604V25.5098H87.2275V22.5156H83.6592V16.8418H85.2178V21.2852H92.4092ZM105.739 21.7773V22.9941H94.46V21.7773H99.3545V20.6016H95.8408V16.418H104.372V17.6074H97.3584V19.3984H104.44V20.6016H100.845V21.7773H105.739ZM100.079 23.7051C102.745 23.7051 104.345 24.5117 104.358 25.9609C104.345 27.3965 102.745 28.2168 100.079 28.2168C97.3857 28.2168 95.7725 27.3965 95.7725 25.9609C95.7725 24.5117 97.3857 23.7051 100.079 23.7051ZM100.079 24.8672C98.2744 24.8672 97.3037 25.25 97.3174 25.9609C97.3037 26.6719 98.2744 27.041 100.079 27.041C101.843 27.041 102.827 26.6719 102.841 25.9609C102.827 25.25 101.843 24.8672 100.079 24.8672ZM117.839 23.0488V24.252H112.917V28.2168H111.413V24.252H106.546V23.0488H117.839ZM109.417 16.3496V17.8672H114.94V16.3496H116.472V21.7637H107.913V16.3496H109.417ZM109.417 20.5332H114.94V19.0703H109.417V20.5332Z" fill="#222222"/>
<path d="M87.543 52.1719V52.8867H83.2422V53.8594H86.3242V56.1094H80.1367V57.1289H86.6406V57.832H79.2227V55.4531H85.4219V54.5508H79.1992V53.8594H82.3398V52.8867H78.0625V52.1719H87.543ZM83.2422 47.4727V48.4453H86.582V49.1719H83.3125C83.4824 50.209 85.1113 50.8652 87.0273 50.9883L86.7461 51.6914C85.0059 51.5449 83.4355 51.0059 82.7969 50.0156C82.1582 51.0059 80.5879 51.5449 78.8359 51.6914L78.5664 50.9883C80.4707 50.8652 82.0996 50.209 82.2812 49.1719H79.0352V48.4453H82.3398V47.4727H83.2422ZM91.9492 50.7305C91.9375 52.4062 93.1445 54.2461 94.6562 54.9609L94.1289 55.6875C92.957 55.1191 91.9668 53.877 91.5039 52.4648C91.0234 54 89.9746 55.3477 88.8086 55.9453L88.2461 55.2188C89.7461 54.4922 91.0352 52.5117 91.0469 50.7305V49.3711H88.6211V48.6094H94.293V49.3711H91.9492V50.7305ZM96.4844 47.5312V51.75H98.2305V52.5352H96.4844V57.9492H95.5703V47.5312H96.4844Z" fill="#222222"/>
<path opacity="0.2" d="M88 75L78 68L98 68L88 75Z" fill="#F18435"/>
<path opacity="0.4" d="M88 80L78 73L98 73L88 80Z" fill="#F18435"/>
<rect y="86" width="176" height="44" rx="8" fill="url(#paint1_linear_1789_6369)" fill-opacity="0.25"/>
<path d="M75.5039 111.469V112.713H64.2109V111.469H69.0781V108.775H65.4551V102.814H74.2051V108.775H70.582V111.469H75.5039ZM66.9453 104.031V107.586H72.7012V104.031H66.9453ZM81.7383 103.197V104.414H78.2109V106.438H81.5195V107.627H78.2109V110.033C79.7354 110.02 80.7949 109.965 82.0527 109.773L82.1758 111.018C80.7402 111.264 79.5234 111.305 77.5957 111.305H76.7617V103.197H81.7383ZM86.9746 101.857V114.217H85.5117V107.941H84.2402V113.615H82.8047V102.076H84.2402V106.711H85.5117V101.857H86.9746ZM98.7598 101.857V110.922H97.2422V106.479H95.3008V105.262H97.2422V101.857H98.7598ZM95.3555 102.883V104.113H94.2617V107.75C94.7949 107.709 95.3213 107.661 95.8203 107.6L95.916 108.693C93.4824 109.117 90.6797 109.172 88.5879 109.172L88.4238 107.914L89.8184 107.9V104.113H88.7383V102.883H95.3555ZM99.0742 112.74V113.971H90.6387V110.143H92.1699V112.74H99.0742ZM91.2949 107.887C91.7871 107.873 92.2861 107.859 92.7852 107.832V104.113H91.2949V107.887ZM110.545 107.654V108.871H101.877V102.938H110.449V104.168H103.381V107.654H110.545ZM111.803 111.387V112.645H100.51V111.387H111.803Z" fill="#222222"/>
<path d="M87.543 138.172V138.887H83.2422V139.859H86.3242V142.109H80.1367V143.129H86.6406V143.832H79.2227V141.453H85.4219V140.551H79.1992V139.859H82.3398V138.887H78.0625V138.172H87.543ZM83.2422 133.473V134.445H86.582V135.172H83.3125C83.4824 136.209 85.1113 136.865 87.0273 136.988L86.7461 137.691C85.0059 137.545 83.4355 137.006 82.7969 136.016C82.1582 137.006 80.5879 137.545 78.8359 137.691L78.5664 136.988C80.4707 136.865 82.0996 136.209 82.2812 135.172H79.0352V134.445H82.3398V133.473H83.2422ZM91.9492 136.73C91.9375 138.406 93.1445 140.246 94.6562 140.961L94.1289 141.688C92.957 141.119 91.9668 139.877 91.5039 138.465C91.0234 140 89.9746 141.348 88.8086 141.945L88.2461 141.219C89.7461 140.492 91.0352 138.512 91.0469 136.73V135.371H88.6211V134.609H94.293V135.371H91.9492V136.73ZM96.4844 133.531V137.75H98.2305V138.535H96.4844V143.949H95.5703V133.531H96.4844Z" fill="#222222"/>
<path opacity="0.2" d="M88 161L78 154L98 154L88 161Z" fill="#F18435"/>
<path opacity="0.4" d="M88 166L78 159L98 159L88 166Z" fill="#F18435"/>
<rect y="172" width="176" height="66" rx="8" fill="url(#paint2_linear_1789_6369)" fill-opacity="0.25"/>
<path d="M36.7168 190.824C36.7031 193.025 37.8105 195.268 39.7246 196.184L38.7949 197.4C37.4551 196.724 36.4912 195.418 35.9648 193.846C35.4248 195.527 34.4131 196.922 32.998 197.633L32.0684 196.416C34.0508 195.473 35.1855 193.107 35.1992 190.824V188.855H36.7168V190.824ZM41.9805 187.857V192.697H43.8809V193.996H41.9805V200.217H40.4629V187.857H41.9805ZM54.6953 187.857V200.217H53.1777V187.857H54.6953ZM44.4551 196.785C45.4395 196.778 46.5537 196.778 47.7227 196.744V195.609C46.3281 195.391 45.4258 194.536 45.4258 193.367C45.4258 191.973 46.6562 191.043 48.4609 191.043C50.2793 191.043 51.5371 191.973 51.5371 193.367C51.5371 194.529 50.6279 195.377 49.2402 195.596V196.689C50.3271 196.642 51.4209 196.553 52.4531 196.416L52.5625 197.551C49.8418 198.016 46.9023 198.043 44.6738 198.043L44.4551 196.785ZM52.2344 189.279V190.482H44.7148V189.279H47.7227V187.898H49.2402V189.279H52.2344ZM48.4609 192.205C47.5312 192.219 46.8613 192.643 46.875 193.367C46.8613 194.078 47.5312 194.502 48.4609 194.488C49.4316 194.502 50.0742 194.078 50.0742 193.367C50.0742 192.643 49.4316 192.219 48.4609 192.205ZM61.0391 189.977C61.0391 191.48 62.0371 192.998 63.9512 193.641L63.1855 194.816C61.8047 194.365 60.8271 193.429 60.2871 192.273C59.7471 193.565 58.7148 194.604 57.252 195.09L56.4727 193.887C58.4414 193.244 59.4941 191.604 59.4941 189.99V189.826H56.9238V188.609H63.5957V189.826H61.0391V189.977ZM66.8496 195.814V200.217H65.332V197.031H58.4277V195.814H66.8496ZM66.8496 187.857V195.227H65.332V192.164H63.2266V190.92H65.332V187.857H66.8496ZM78.9219 187.857V200.217H77.3906V187.857H78.9219ZM75.2305 189.17C75.2305 192.848 73.8086 195.979 69.4746 198.029L68.6816 196.812C71.915 195.274 73.4189 193.183 73.6855 190.373H69.3105V189.17H75.2305ZM84.1309 188.404C85.7305 188.391 86.9883 189.313 87.3027 190.674H89.5312V187.857H91.0488V194.488H89.5312V191.904H87.3164C87.0088 193.292 85.7373 194.229 84.1309 194.229C82.2305 194.229 80.8633 193.012 80.8633 191.303C80.8633 189.621 82.2305 188.391 84.1309 188.404ZM84.1309 189.676C83.0645 189.676 82.3125 190.305 82.3125 191.303C82.3125 192.287 83.0645 192.943 84.1309 192.943C85.1699 192.943 85.9082 192.287 85.9219 191.303C85.9082 190.305 85.1699 189.676 84.1309 189.676ZM84.4043 195.062V196.375H89.5312V195.062H91.0488V200.066H82.9004V195.062H84.4043ZM84.4043 198.836H89.5312V197.551H84.4043V198.836ZM107.4 195.227V196.471H102.492V200.217H100.988V196.471H96.1074V195.227H107.4ZM106.184 192.998V194.201H97.5566V188.391H106.047V189.594H99.0605V190.688H105.773V191.863H99.0605V192.998H106.184ZM112.65 191.371C112.65 193.285 113.785 195.459 115.74 196.361L114.893 197.564C113.498 196.908 112.466 195.582 111.912 194.037C111.352 195.732 110.271 197.182 108.85 197.865L107.961 196.676C109.93 195.746 111.119 193.422 111.133 191.371V190.332H108.439V189.074H115.234V190.332H112.65V191.371ZM117.9 187.857V192.67H119.801V193.941H117.9V200.217H116.383V187.857H117.9ZM131.613 197.482V198.727H120.32V197.482H125.201V194.639H126.719V197.482H131.613ZM130.643 188.855V190.1H126.746C126.794 191.877 128.626 193.511 131.162 193.887L130.561 195.09C128.469 194.707 126.76 193.606 125.967 192.068C125.167 193.627 123.472 194.769 121.414 195.158L120.812 193.955C123.28 193.538 125.099 191.877 125.146 190.1H121.264V188.855H130.643ZM142.168 187.857V190.906H143.891V192.164H142.168V195.076H140.65V187.857H142.168ZM135.688 195.568V196.635H140.65V195.568H142.168V200.066H134.184V195.568H135.688ZM135.688 198.863H140.65V197.811H135.688V198.863ZM139.762 189.006V190.223H132.434V189.006H135.346V187.762H136.863V189.006H139.762ZM136.098 190.646C137.889 190.646 139.105 191.508 139.119 192.82C139.105 194.133 137.889 194.994 136.098 194.994C134.293 194.994 133.062 194.133 133.062 192.82C133.062 191.508 134.293 190.646 136.098 190.646ZM136.098 191.768C135.154 191.768 134.539 192.164 134.539 192.82C134.539 193.49 135.154 193.873 136.098 193.873C137.041 193.873 137.67 193.49 137.67 192.82C137.67 192.164 137.041 191.768 136.098 191.768Z" fill="#222222"/>
<path d="M69.4199 217.766C69.4316 215.551 70.0293 213.711 71.1074 212.152H71.998C71.2012 213.312 70.4629 215.68 70.4629 217.766C70.4629 219.852 71.2012 222.23 71.998 223.391H71.1074C70.0293 221.82 69.4316 219.98 69.4199 217.766ZM76.3926 214.73C76.3809 216.406 77.5879 218.246 79.0996 218.961L78.5723 219.688C77.4004 219.119 76.4102 217.877 75.9473 216.465C75.4668 218 74.418 219.348 73.252 219.945L72.6895 219.219C74.1895 218.492 75.4785 216.512 75.4902 214.73V213.371H73.0645V212.609H78.7363V213.371H76.3926V214.73ZM80.9277 211.531V215.75H82.6738V216.535H80.9277V221.949H80.0137V211.531H80.9277ZM91.873 211.531V219.254H90.9473V215.246H89.0371V214.484H90.9473V211.531H91.873ZM89.1074 212.469V213.23H88.041V216.605C88.5625 216.57 89.0723 216.518 89.5527 216.453L89.6113 217.133C87.5371 217.496 85.123 217.531 83.377 217.531L83.2598 216.746L84.6074 216.734V213.23H83.5527V212.469H89.1074ZM92.1543 220.953V221.727H85.1582V218.574H86.084V220.953H92.1543ZM85.498 216.723C86.0371 216.711 86.5879 216.693 87.1387 216.664V213.23H85.498V216.723ZM102.021 216.547V217.309H94.8262V212.504H101.916V213.266H95.7402V216.547H102.021ZM103.146 219.758V220.531H93.6074V219.758H103.146ZM106.58 217.766C106.568 219.98 105.971 221.82 104.893 223.391H104.002C104.799 222.23 105.537 219.852 105.537 217.766C105.537 215.68 104.799 213.312 104.002 212.152H104.893C105.971 213.711 106.568 215.551 106.58 217.766Z" fill="#222222"/>
<path d="M87.543 246.172V246.887H83.2422V247.859H86.3242V250.109H80.1367V251.129H86.6406V251.832H79.2227V249.453H85.4219V248.551H79.1992V247.859H82.3398V246.887H78.0625V246.172H87.543ZM83.2422 241.473V242.445H86.582V243.172H83.3125C83.4824 244.209 85.1113 244.865 87.0273 244.988L86.7461 245.691C85.0059 245.545 83.4355 245.006 82.7969 244.016C82.1582 245.006 80.5879 245.545 78.8359 245.691L78.5664 244.988C80.4707 244.865 82.0996 244.209 82.2812 243.172H79.0352V242.445H82.3398V241.473H83.2422ZM91.9492 244.73C91.9375 246.406 93.1445 248.246 94.6562 248.961L94.1289 249.688C92.957 249.119 91.9668 247.877 91.5039 246.465C91.0234 248 89.9746 249.348 88.8086 249.945L88.2461 249.219C89.7461 248.492 91.0352 246.512 91.0469 244.73V243.371H88.6211V242.609H94.293V243.371H91.9492V244.73ZM96.4844 241.531V245.75H98.2305V246.535H96.4844V251.949H95.5703V241.531H96.4844Z" fill="#222222"/>
<path opacity="0.2" d="M88 269L78 262L98 262L88 269Z" fill="#F18435"/>
<path opacity="0.4" d="M88 274L78 267L98 267L88 274Z" fill="#F18435"/>
<rect y="280" width="176" height="44" rx="8" fill="url(#paint3_linear_1789_6369)" fill-opacity="0.25"/>
<path d="M33.8525 303.227C33.8525 300.656 34.6182 298.51 35.9033 296.678H37.5439C36.6006 298.031 35.6572 300.779 35.6572 303.227C35.6572 305.674 36.6006 308.422 37.5439 309.789H35.9033C34.6182 307.943 33.8525 305.811 33.8525 303.227ZM49.0146 295.857V308.217H47.5518V295.857H49.0146ZM46.5127 296.076V307.615H45.0771V303.719H43.4639C43.0059 304.936 42.1855 305.626 41.1396 305.619C39.5264 305.633 38.4736 303.924 38.4736 301.203C38.4736 298.482 39.5264 296.801 41.1396 296.801C42.1855 296.801 42.999 297.484 43.4639 298.688H45.0771V296.076H46.5127ZM41.1396 298.236C40.333 298.223 39.8545 299.275 39.8682 301.203C39.8545 303.131 40.333 304.184 41.1396 304.17C41.96 304.184 42.4658 303.131 42.4658 301.203C42.4658 299.275 41.96 298.223 41.1396 298.236ZM43.7646 299.918C43.8262 300.314 43.8604 300.745 43.8604 301.203C43.8604 301.654 43.8262 302.078 43.7783 302.475H45.0771V299.918H43.7646ZM60.7314 295.857V308.23H59.2002V295.857H60.7314ZM52.624 296.869V299.959H55.6182V296.869H57.1221V305.318H51.1064V296.869H52.624ZM52.624 304.074H55.6182V301.148H52.624V304.074ZM66.2275 303.227C66.2275 305.811 65.4619 307.943 64.1768 309.789H62.5361C63.4795 308.422 64.4229 305.674 64.4229 303.227C64.4229 300.779 63.4795 298.031 62.5361 296.678H64.1768C65.4619 298.51 66.2275 300.656 66.2275 303.227ZM72.2021 298.824C72.1885 301.025 73.2959 303.268 75.21 304.184L74.2803 305.4C72.9404 304.724 71.9766 303.418 71.4502 301.846C70.9102 303.527 69.8984 304.922 68.4834 305.633L67.5537 304.416C69.5361 303.473 70.6709 301.107 70.6846 298.824V296.855H72.2021V298.824ZM77.4658 295.857V300.697H79.3662V301.996H77.4658V308.217H75.9482V295.857H77.4658ZM90.1807 295.857V308.217H88.6631V295.857H90.1807ZM79.9404 304.785C80.9248 304.778 82.0391 304.778 83.208 304.744V303.609C81.8135 303.391 80.9111 302.536 80.9111 301.367C80.9111 299.973 82.1416 299.043 83.9463 299.043C85.7646 299.043 87.0225 299.973 87.0225 301.367C87.0225 302.529 86.1133 303.377 84.7256 303.596V304.689C85.8125 304.642 86.9062 304.553 87.9385 304.416L88.0479 305.551C85.3271 306.016 82.3877 306.043 80.1592 306.043L79.9404 304.785ZM87.7197 297.279V298.482H80.2002V297.279H83.208V295.898H84.7256V297.279H87.7197ZM83.9463 300.205C83.0166 300.219 82.3467 300.643 82.3604 301.367C82.3467 302.078 83.0166 302.502 83.9463 302.488C84.917 302.502 85.5596 302.078 85.5596 301.367C85.5596 300.643 84.917 300.219 83.9463 300.205ZM96.5244 297.977C96.5244 299.48 97.5225 300.998 99.4365 301.641L98.6709 302.816C97.29 302.365 96.3125 301.429 95.7725 300.273C95.2324 301.565 94.2002 302.604 92.7373 303.09L91.958 301.887C93.9268 301.244 94.9795 299.604 94.9795 297.99V297.826H92.4092V296.609H99.0811V297.826H96.5244V297.977ZM102.335 303.814V308.217H100.817V305.031H93.9131V303.814H102.335ZM102.335 295.857V303.227H100.817V300.164H98.7119V298.92H100.817V295.857H102.335ZM114.407 295.857V308.217H112.876V295.857H114.407ZM110.716 297.17C110.716 300.848 109.294 303.979 104.96 306.029L104.167 304.812C107.4 303.274 108.904 301.183 109.171 298.373H104.796V297.17H110.716ZM119.616 296.404C121.216 296.391 122.474 297.313 122.788 298.674H125.017V295.857H126.534V302.488H125.017V299.904H122.802C122.494 301.292 121.223 302.229 119.616 302.229C117.716 302.229 116.349 301.012 116.349 299.303C116.349 297.621 117.716 296.391 119.616 296.404ZM119.616 297.676C118.55 297.676 117.798 298.305 117.798 299.303C117.798 300.287 118.55 300.943 119.616 300.943C120.655 300.943 121.394 300.287 121.407 299.303C121.394 298.305 120.655 297.676 119.616 297.676ZM119.89 303.062V304.375H125.017V303.062H126.534V308.066H118.386V303.062H119.89ZM119.89 306.836H125.017V305.551H119.89V306.836ZM142.886 301.586V302.83H131.606V301.586H142.886ZM141.587 299.398V300.615H132.987V296.254H141.519V297.484H134.505V299.398H141.587ZM137.226 303.691C139.892 303.678 141.491 304.498 141.505 305.934C141.491 307.383 139.892 308.203 137.226 308.203C134.532 308.203 132.919 307.383 132.919 305.934C132.919 304.498 134.532 303.678 137.226 303.691ZM137.226 304.854C135.421 304.854 134.45 305.236 134.464 305.934C134.45 306.658 135.421 307.027 137.226 307.027C138.989 307.027 139.974 306.658 139.987 305.934C139.974 305.236 138.989 304.854 137.226 304.854Z" fill="#222222"/>
<path opacity="0.2" d="M199.133 181.5L200.195 169.34L210.195 186.66L199.133 181.5Z" fill="#F18435"/>
<path opacity="0.4" d="M194.805 184L195.867 171.84L205.867 189.16L194.805 184Z" fill="#F18435"/>
<rect x="216" y="163" width="104" height="36" rx="4" fill="url(#paint4_linear_1789_6369)" fill-opacity="0.1"/>
<path d="M232.651 175.883V181.762H226.69V175.883H232.651ZM228.194 177.1V180.545H231.147V177.1H228.194ZM236.356 174.871V183.689H234.825V174.871H236.356ZM236.698 185.658V186.889H228.181V182.855H229.712V185.658H236.698ZM247.909 174.857V178.412H249.632V179.684H247.909V183.771H246.364V174.857H247.909ZM244.546 175.801C244.546 179.082 242.413 181.42 238.749 182.486L238.12 181.283C240.943 180.47 242.625 178.932 242.892 177.045H238.64V175.801H244.546ZM248.374 185.74V186.971H239.966V182.855H241.511V185.74H248.374ZM261.54 182.227V183.471H256.632V187.217H255.128V183.471H250.247V182.227H261.54ZM260.323 179.998V181.201H251.696V175.391H260.187V176.594H253.2V177.688H259.913V178.863H253.2V179.998H260.323ZM266.79 178.371C266.79 180.285 267.925 182.459 269.88 183.361L269.032 184.564C267.638 183.908 266.605 182.582 266.052 181.037C265.491 182.732 264.411 184.182 262.989 184.865L262.101 183.676C264.069 182.746 265.259 180.422 265.272 178.371V177.332H262.579V176.074H269.374V177.332H266.79V178.371ZM272.04 174.857V179.67H273.94V180.941H272.04V187.217H270.522V174.857H272.04ZM285.739 180.969V182.186H280.968V184.455H279.423V182.186H274.446V180.969H285.739ZM284.495 185.727V186.971H275.827V183.307H277.358V185.727H284.495ZM280.079 175.131C282.745 175.131 284.509 176.102 284.509 177.66C284.509 179.219 282.745 180.176 280.079 180.176C277.413 180.176 275.649 179.219 275.649 177.66C275.649 176.102 277.413 175.131 280.079 175.131ZM280.079 176.334C278.384 176.334 277.276 176.812 277.29 177.66C277.276 178.48 278.384 178.959 280.079 178.959C281.788 178.959 282.882 178.48 282.882 177.66C282.882 176.812 281.788 176.334 280.079 176.334ZM297.825 180.805V182.021H286.56V180.805H289.185V179.232C288.255 178.843 287.722 178.221 287.722 177.414C287.722 175.938 289.458 175.062 292.179 175.062C294.899 175.062 296.622 175.938 296.636 177.414C296.629 178.228 296.096 178.85 295.159 179.232V180.805H297.825ZM292.179 182.773C294.845 182.76 296.444 183.553 296.458 184.975C296.444 186.41 294.845 187.189 292.179 187.189C289.485 187.189 287.872 186.41 287.872 184.975C287.872 183.553 289.485 182.76 292.179 182.773ZM292.179 183.922C290.374 183.922 289.403 184.277 289.417 184.975C289.403 185.672 290.374 186.041 292.179 186.041C293.942 186.041 294.927 185.672 294.94 184.975C294.927 184.277 293.942 183.922 292.179 183.922ZM292.179 176.238C290.347 176.238 289.294 176.648 289.308 177.414C289.294 178.166 290.347 178.562 292.179 178.562C293.997 178.562 295.063 178.166 295.063 177.414C295.063 176.648 293.997 176.238 292.179 176.238ZM290.716 180.805H293.642V179.629C293.197 179.69 292.705 179.725 292.179 179.725C291.652 179.725 291.16 179.69 290.716 179.629V180.805ZM303.075 177.824C303.062 180.025 304.169 182.268 306.083 183.184L305.153 184.4C303.813 183.724 302.85 182.418 302.323 180.846C301.783 182.527 300.771 183.922 299.356 184.633L298.427 183.416C300.409 182.473 301.544 180.107 301.558 177.824V175.855H303.075V177.824ZM308.339 174.857V179.697H310.239V180.996H308.339V187.217H306.821V174.857H308.339Z" fill="#222222"/>
<path opacity="0.2" d="M199.133 228.5L210.195 223.34L200.195 240.66L199.133 228.5Z" fill="#F18435"/>
<path opacity="0.4" d="M194.805 226L205.867 220.84L195.867 238.16L194.805 226Z" fill="#F18435"/>
<rect x="216" y="211" width="104" height="36" rx="4" fill="url(#paint5_linear_1789_6369)" fill-opacity="0.1"/>
<path d="M244.751 223.883V229.762H238.79V223.883H244.751ZM240.294 225.1V228.545H243.247V225.1H240.294ZM248.456 222.871V231.689H246.925V222.871H248.456ZM248.798 233.658V234.889H240.28V230.855H241.812V233.658H248.798ZM260.009 222.857V226.412H261.731V227.684H260.009V231.771H258.464V222.857H260.009ZM256.646 223.801C256.646 227.082 254.513 229.42 250.849 230.486L250.22 229.283C253.043 228.47 254.725 226.932 254.991 225.045H250.739V223.801H256.646ZM260.474 233.74V234.971H252.065V230.855H253.61V233.74H260.474ZM273.599 228.203V229.324H268.731V230.227H272.218V233.125H265.19V233.973H272.56V235.107H263.7V232.086H270.728V231.32H263.687V230.227H267.228V229.324H262.388V228.203H273.599ZM268.731 222.83V223.869H272.519V225.004H268.896C269.189 225.879 270.625 226.535 273.093 226.658L272.642 227.793C270.427 227.656 268.759 227.055 267.979 226.057C267.2 227.055 265.539 227.656 263.304 227.793L262.88 226.658C265.32 226.535 266.756 225.879 267.077 225.004H263.468V223.869H267.228V222.83H268.731ZM278.89 226.371C278.89 228.285 280.024 230.459 281.979 231.361L281.132 232.564C279.737 231.908 278.705 230.582 278.151 229.037C277.591 230.732 276.511 232.182 275.089 232.865L274.2 231.676C276.169 230.746 277.358 228.422 277.372 226.371V225.332H274.679V224.074H281.474V225.332H278.89V226.371ZM284.14 222.857V227.67H286.04V228.941H284.14V235.217H282.622V222.857H284.14ZM290.989 226.371C290.989 228.285 292.124 230.459 294.079 231.361L293.231 232.564C291.837 231.908 290.805 230.582 290.251 229.037C289.69 230.732 288.61 232.182 287.188 232.865L286.3 231.676C288.269 230.746 289.458 228.422 289.472 226.371V225.332H286.778V224.074H293.573V225.332H290.989V226.371ZM296.239 222.857V227.67H298.14V228.941H296.239V235.217H294.722V222.857H296.239Z" fill="#222222"/>
<path d="M3.22266 349.285H2.42578L2.49609 347.469L0.949219 348.441L0.550781 347.75L2.16797 346.906L0.550781 346.051L0.949219 345.359L2.49609 346.332L2.42578 344.516H3.22266L3.15234 346.332L4.69922 345.359L5.09766 346.051L3.49219 346.906L5.09766 347.75L4.69922 348.441L3.15234 347.469L3.22266 349.285ZM14.5195 344.445V349.273H9.63281V344.445H14.5195ZM10.5352 345.207V348.535H13.6172V345.207H10.5352ZM17.6836 343.543V351.031H16.7695V343.543H17.6836ZM18.0117 352.836V353.598H10.957V350.305H11.8711V352.836H18.0117ZM27.5977 343.531V346.707H29.168V347.48H27.5977V351.16H26.6719V343.531H27.5977ZM24.7852 344.34C24.7852 347.023 22.8633 349.016 19.8633 349.953L19.4648 349.215C21.9609 348.436 23.5898 346.947 23.7891 345.113H19.8984V344.34H24.7852ZM28.0781 352.953V353.727H21.0703V350.387H21.9844V352.953H28.0781ZM39.3516 349.848V350.609H35.0156V353.949H34.1133V350.609H29.8125V349.848H39.3516ZM38.2734 348.02V348.77H31.0898V344.023H38.1562V344.773H32.0039V345.992H37.9102V346.73H32.0039V348.02H38.2734ZM43.7227 346.73C43.7109 348.406 44.918 350.246 46.4297 350.961L45.9023 351.688C44.7305 351.119 43.7402 349.877 43.2773 348.465C42.7969 350 41.748 351.348 40.582 351.945L40.0195 351.219C41.5195 350.492 42.8086 348.512 42.8203 346.73V345.371H40.3945V344.609H46.0664V345.371H43.7227V346.73ZM48.2578 343.531V347.75H50.0039V348.535H48.2578V353.949H47.3438V343.531H48.2578ZM60.0938 348.828V349.59H55.8633V351.723H54.9375V349.59H50.5547V348.828H60.0938ZM59.0273 352.941V353.727H51.7852V350.68H52.7109V352.941H59.0273ZM55.3125 343.801C57.5391 343.812 58.9805 344.609 58.9805 345.898C58.9805 347.188 57.5391 347.973 55.3125 347.973C53.0859 347.973 51.6328 347.188 51.6328 345.898C51.6328 344.609 53.0859 343.812 55.3125 343.801ZM55.3125 344.551C53.6953 344.551 52.6055 345.066 52.6172 345.898C52.6055 346.707 53.6953 347.223 55.3125 347.223C56.9297 347.223 58.0078 346.707 58.0078 345.898C58.0078 345.066 56.9297 344.551 55.3125 344.551ZM70.4297 348.688V349.449H60.9375V348.688H63.293V347.223C62.4609 346.9 61.9922 346.367 61.9922 345.664C61.9922 344.434 63.3984 343.73 65.6836 343.73C67.9453 343.73 69.3633 344.434 69.3633 345.664C69.3633 346.361 68.9004 346.895 68.0742 347.211V348.688H70.4297ZM65.6836 350.246C67.9219 350.246 69.2578 350.891 69.2695 352.086C69.2578 353.27 67.9219 353.926 65.6836 353.926C63.4219 353.926 62.0859 353.27 62.0859 352.086C62.0859 350.891 63.4219 350.246 65.6836 350.246ZM65.6836 350.949C64.0078 350.961 63.0117 351.371 63.0234 352.086C63.0117 352.789 64.0078 353.211 65.6836 353.211C67.3359 353.211 68.3438 352.789 68.3438 352.086C68.3438 351.371 67.3359 350.961 65.6836 350.949ZM65.6836 344.457C63.9844 344.457 62.9297 344.914 62.9414 345.664C62.9297 346.426 63.9844 346.871 65.6836 346.871C67.3711 346.871 68.4258 346.426 68.4258 345.664C68.4258 344.914 67.3711 344.457 65.6836 344.457ZM64.207 348.688H67.1602V347.469C66.7207 347.545 66.2285 347.586 65.6836 347.586C65.1387 347.586 64.6465 347.545 64.207 347.469V348.688ZM74.8008 346.332C74.8008 348.172 76.0195 350.059 77.4961 350.785L76.9336 351.523C75.7852 350.92 74.8242 349.689 74.3672 348.242C73.8984 349.783 72.9141 351.096 71.7422 351.723L71.1562 350.984C72.6797 350.234 73.8867 348.23 73.8984 346.332V344.434H74.8008V346.332ZM79.3711 343.531V347.762H81.1172V348.559H79.3711V353.949H78.457V343.531H79.3711ZM82.7812 351.875C82.3711 351.875 82.0195 351.535 82.0312 351.113C82.0195 350.703 82.3711 350.363 82.7812 350.363C83.1914 350.363 83.5312 350.703 83.5312 351.113C83.5312 351.535 83.1914 351.875 82.7812 351.875ZM82.7812 347.164C82.3711 347.164 82.0195 346.824 82.0312 346.402C82.0195 345.992 82.3711 345.652 82.7812 345.652C83.1914 345.652 83.5312 345.992 83.5312 346.402C83.5312 346.824 83.1914 347.164 82.7812 347.164ZM93.1758 344.445V349.273H88.2891V344.445H93.1758ZM89.1914 345.207V348.535H92.2734V345.207H89.1914ZM96.3398 343.543V351.031H95.4258V343.543H96.3398ZM96.668 352.836V353.598H89.6133V350.305H90.5273V352.836H96.668ZM106.254 343.531V346.707H107.824V347.48H106.254V351.16H105.328V343.531H106.254ZM103.441 344.34C103.441 347.023 101.52 349.016 98.5195 349.953L98.1211 349.215C100.617 348.436 102.246 346.947 102.445 345.113H98.5547V344.34H103.441ZM106.734 352.953V353.727H99.7266V350.387H100.641V352.953H106.734ZM118.008 349.848V350.609H113.672V353.949H112.77V350.609H108.469V349.848H118.008ZM116.93 348.02V348.77H109.746V344.023H116.812V344.773H110.66V345.992H116.566V346.73H110.66V348.02H116.93ZM122.379 346.73C122.367 348.406 123.574 350.246 125.086 350.961L124.559 351.688C123.387 351.119 122.396 349.877 121.934 348.465C121.453 350 120.404 351.348 119.238 351.945L118.676 351.219C120.176 350.492 121.465 348.512 121.477 346.73V345.371H119.051V344.609H124.723V345.371H122.379V346.73ZM126.914 343.531V347.75H128.66V348.535H126.914V353.949H126V343.531H126.914ZM132.75 346.73C132.738 348.406 133.945 350.246 135.457 350.961L134.93 351.688C133.758 351.119 132.768 349.877 132.305 348.465C131.824 350 130.775 351.348 129.609 351.945L129.047 351.219C130.547 350.492 131.836 348.512 131.848 346.73V345.371H129.422V344.609H135.094V345.371H132.75V346.73ZM137.285 343.531V347.75H139.031V348.535H137.285V353.949H136.371V343.531H137.285ZM152.133 349.473V350.234H149.613V353.949H148.688V350.234H146.016V353.949H145.066V350.234H142.594V349.473H152.133ZM147.34 343.953C149.531 343.953 151.008 344.832 151.008 346.227C151.008 347.609 149.531 348.488 147.34 348.477C145.148 348.488 143.672 347.609 143.672 346.227C143.672 344.832 145.148 343.953 147.34 343.953ZM147.34 344.703C145.711 344.703 144.609 345.301 144.621 346.227C144.609 347.152 145.711 347.738 147.34 347.738C148.957 347.738 150.07 347.152 150.07 346.227C150.07 345.301 148.957 344.703 147.34 344.703ZM161.566 343.531V353.949H160.641V343.531H161.566ZM156.82 346.93C156.82 348.676 158.039 350.363 159.609 351.031L159.094 351.746C157.893 351.213 156.873 350.082 156.387 348.699C155.918 350.164 154.904 351.365 153.703 351.934L153.188 351.219C154.734 350.516 155.918 348.758 155.918 346.93V346.098H153.469V345.348H155.906V343.73H156.82V345.348H159.246V346.098H156.82V346.93ZM165.059 352.215L164.145 355.402H163.277L163.922 352.215H165.059ZM178.066 343.531V351.254H177.141V347.246H175.23V346.484H177.141V343.531H178.066ZM175.301 344.469V345.23H174.234V348.605C174.756 348.57 175.266 348.518 175.746 348.453L175.805 349.133C173.73 349.496 171.316 349.531 169.57 349.531L169.453 348.746L170.801 348.734V345.23H169.746V344.469H175.301ZM178.348 352.953V353.727H171.352V350.574H172.277V352.953H178.348ZM171.691 348.723C172.23 348.711 172.781 348.693 173.332 348.664V345.23H171.691V348.723ZM188.215 348.547V349.309H181.02V344.504H188.109V345.266H181.934V348.547H188.215ZM189.34 351.758V352.531H179.801V351.758H189.34ZM199.699 348.828V349.59H195.469V351.723H194.543V349.59H190.16V348.828H199.699ZM198.633 352.941V353.727H191.391V350.68H192.316V352.941H198.633ZM194.918 343.801C197.145 343.812 198.586 344.609 198.586 345.898C198.586 347.188 197.145 347.973 194.918 347.973C192.691 347.973 191.238 347.188 191.238 345.898C191.238 344.609 192.691 343.812 194.918 343.801ZM194.918 344.551C193.301 344.551 192.211 345.066 192.223 345.898C192.211 346.707 193.301 347.223 194.918 347.223C196.535 347.223 197.613 346.707 197.613 345.898C197.613 345.066 196.535 344.551 194.918 344.551ZM210.035 348.688V349.449H200.543V348.688H202.898V347.223C202.066 346.9 201.598 346.367 201.598 345.664C201.598 344.434 203.004 343.73 205.289 343.73C207.551 343.73 208.969 344.434 208.969 345.664C208.969 346.361 208.506 346.895 207.68 347.211V348.688H210.035ZM205.289 350.246C207.527 350.246 208.863 350.891 208.875 352.086C208.863 353.27 207.527 353.926 205.289 353.926C203.027 353.926 201.691 353.27 201.691 352.086C201.691 350.891 203.027 350.246 205.289 350.246ZM205.289 350.949C203.613 350.961 202.617 351.371 202.629 352.086C202.617 352.789 203.613 353.211 205.289 353.211C206.941 353.211 207.949 352.789 207.949 352.086C207.949 351.371 206.941 350.961 205.289 350.949ZM205.289 344.457C203.59 344.457 202.535 344.914 202.547 345.664C202.535 346.426 203.59 346.871 205.289 346.871C206.977 346.871 208.031 346.426 208.031 345.664C208.031 344.914 206.977 344.457 205.289 344.457ZM203.812 348.688H206.766V347.469C206.326 347.545 205.834 347.586 205.289 347.586C204.744 347.586 204.252 347.545 203.812 347.469V348.688ZM3.22266 367.285H2.42578L2.49609 365.469L0.949219 366.441L0.550781 365.75L2.16797 364.906L0.550781 364.051L0.949219 363.359L2.49609 364.332L2.42578 362.516H3.22266L3.15234 364.332L4.69922 363.359L5.09766 364.051L3.49219 364.906L5.09766 365.75L4.69922 366.441L3.15234 365.469L3.22266 367.285ZM14.5195 362.445V367.273H9.63281V362.445H14.5195ZM10.5352 363.207V366.535H13.6172V363.207H10.5352ZM17.6836 361.543V369.031H16.7695V361.543H17.6836ZM18.0117 370.836V371.598H10.957V368.305H11.8711V370.836H18.0117ZM27.5977 361.531V364.707H29.168V365.48H27.5977V369.16H26.6719V361.531H27.5977ZM24.7852 362.34C24.7852 365.023 22.8633 367.016 19.8633 367.953L19.4648 367.215C21.9609 366.436 23.5898 364.947 23.7891 363.113H19.8984V362.34H24.7852ZM28.0781 370.953V371.727H21.0703V368.387H21.9844V370.953H28.0781ZM39.3164 366.172V366.887H35.0156V367.859H38.0977V370.109H31.9102V371.129H38.4141V371.832H30.9961V369.453H37.1953V368.551H30.9727V367.859H34.1133V366.887H29.8359V366.172H39.3164ZM35.0156 361.473V362.445H38.3555V363.172H35.0859C35.2559 364.209 36.8848 364.865 38.8008 364.988L38.5195 365.691C36.7793 365.545 35.209 365.006 34.5703 364.016C33.9316 365.006 32.3613 365.545 30.6094 365.691L30.3398 364.988C32.2441 364.865 33.873 364.209 34.0547 363.172H30.8086V362.445H34.1133V361.473H35.0156ZM43.7227 364.73C43.7109 366.406 44.918 368.246 46.4297 368.961L45.9023 369.688C44.7305 369.119 43.7402 367.877 43.2773 366.465C42.7969 368 41.748 369.348 40.582 369.945L40.0195 369.219C41.5195 368.492 42.8086 366.512 42.8203 364.73V363.371H40.3945V362.609H46.0664V363.371H43.7227V364.73ZM48.2578 361.531V365.75H50.0039V366.535H48.2578V371.949H47.3438V361.531H48.2578ZM54.0938 364.73C54.082 366.406 55.2891 368.246 56.8008 368.961L56.2734 369.688C55.1016 369.119 54.1113 367.877 53.6484 366.465C53.168 368 52.1191 369.348 50.9531 369.945L50.3906 369.219C51.8906 368.492 53.1797 366.512 53.1914 364.73V363.371H50.7656V362.609H56.4375V363.371H54.0938V364.73ZM58.6289 361.531V365.75H60.375V366.535H58.6289V371.949H57.7148V361.531H58.6289ZM62.0391 369.875C61.6289 369.875 61.2773 369.535 61.2891 369.113C61.2773 368.703 61.6289 368.363 62.0391 368.363C62.4492 368.363 62.7891 368.703 62.7891 369.113C62.7891 369.535 62.4492 369.875 62.0391 369.875ZM62.0391 365.164C61.6289 365.164 61.2773 364.824 61.2891 364.402C61.2773 363.992 61.6289 363.652 62.0391 363.652C62.4492 363.652 62.7891 363.992 62.7891 364.402C62.7891 364.824 62.4492 365.164 62.0391 365.164ZM75.6094 361.531V371.949H74.6836V361.531H75.6094ZM72.5273 362.668C72.5156 365.668 71.1211 368.316 67.6289 369.992L67.125 369.242C69.9434 367.906 71.3789 365.908 71.5898 363.418H67.6055V362.668H72.5273ZM80.2383 362.023C81.6387 362.012 82.6992 362.826 82.8984 364.027H85.0781V361.531H86.0039V367.121H85.0781V364.789H82.9102C82.7227 366.02 81.6504 366.84 80.2383 366.84C78.6562 366.84 77.5312 365.855 77.5312 364.426C77.5312 363.008 78.6562 362.012 80.2383 362.023ZM80.2383 362.809C79.1719 362.797 78.4102 363.465 78.4102 364.426C78.4102 365.375 79.1719 366.066 80.2383 366.066C81.293 366.066 82.043 365.375 82.043 364.426C82.043 363.465 81.293 362.797 80.2383 362.809ZM80.2148 367.648V368.973H85.0781V367.648H86.0039V371.809H79.2891V367.648H80.2148ZM80.2148 371.059H85.0781V369.711H80.2148V371.059ZM89.4492 370.215L88.5352 373.402H87.668L88.3125 370.215H89.4492ZM102.773 361.531V371.949H101.883V366.535H100.465V371.422H99.5859V361.754H100.465V365.75H101.883V361.531H102.773ZM96.9023 364.379C96.9023 366.289 97.6875 367.965 99.1758 368.727L98.625 369.441C97.5703 368.867 96.8496 367.836 96.4805 366.559C96.123 368.012 95.3906 369.148 94.2891 369.793L93.7148 369.09C95.2148 368.27 96.0117 366.488 96.0117 364.379V363.547H93.9609V362.773H98.8359V363.547H96.9023V364.379ZM112.336 361.531V364.637H113.918V365.41H112.336V369.078H111.422V361.531H112.336ZM109.324 362.434V363.207H105.598V366.453C107.689 366.453 108.879 366.4 110.273 366.113L110.391 366.875C108.926 367.156 107.684 367.227 105.492 367.227H104.684V362.434H109.324ZM112.816 370.953V371.727H105.82V368.316H106.723V370.953H112.816ZM127.078 366.488V367.262H117.574V366.488H127.078ZM125.965 364.742V365.492H118.781V361.953H125.895V362.727H119.684V364.742H125.965ZM122.32 368.176C124.559 368.176 125.895 368.855 125.906 370.051C125.895 371.258 124.559 371.926 122.32 371.926C120.07 371.926 118.723 371.258 118.723 370.051C118.723 368.855 120.07 368.176 122.32 368.176ZM122.32 368.891C120.645 368.902 119.648 369.324 119.66 370.051C119.648 370.789 120.645 371.199 122.32 371.199C123.973 371.199 124.98 370.789 124.98 370.051C124.98 369.324 123.973 368.902 122.32 368.891Z" fill="#666666"/>
<defs>
<linearGradient id="paint0_linear_1789_6369" x1="-22.4" y1="19.5966" x2="164.512" y2="69.8795" gradientUnits="userSpaceOnUse">
<stop stop-color="white"/>
<stop offset="0.0748864" stop-color="#FFE5A3"/>
<stop offset="1" stop-color="#FFBE1C"/>
</linearGradient>
<linearGradient id="paint1_linear_1789_6369" x1="-22.4" y1="105.597" x2="164.512" y2="155.88" gradientUnits="userSpaceOnUse">
<stop stop-color="white"/>
<stop offset="0.0748864" stop-color="#FFE5A3"/>
<stop offset="1" stop-color="#FFBE1C"/>
</linearGradient>
<linearGradient id="paint2_linear_1789_6369" x1="-22.4" y1="201.395" x2="171.793" y2="236.223" gradientUnits="userSpaceOnUse">
<stop stop-color="white"/>
<stop offset="0.0748864" stop-color="#FFE5A3"/>
<stop offset="1" stop-color="#FFBE1C"/>
</linearGradient>
<linearGradient id="paint3_linear_1789_6369" x1="-22.4" y1="299.597" x2="164.512" y2="349.88" gradientUnits="userSpaceOnUse">
<stop stop-color="white"/>
<stop offset="0.0748864" stop-color="#FFE5A3"/>
<stop offset="1" stop-color="#FFBE1C"/>
</linearGradient>
<linearGradient id="paint4_linear_1789_6369" x1="202.764" y1="179.034" x2="316.897" y2="201.209" gradientUnits="userSpaceOnUse">
<stop stop-color="white"/>
<stop offset="0.0748864" stop-color="#FFE5A3"/>
<stop offset="1" stop-color="#FFBE1C"/>
</linearGradient>
<linearGradient id="paint5_linear_1789_6369" x1="202.764" y1="227.034" x2="316.897" y2="249.209" gradientUnits="userSpaceOnUse">
<stop stop-color="white"/>
<stop offset="0.0748864" stop-color="#FFE5A3"/>
<stop offset="1" stop-color="#FFBE1C"/>
</linearGradient>
</defs>
</svg>
