<svg width="201" height="200" viewBox="0 0 201 200" fill="none" xmlns="http://www.w3.org/2000/svg">
<g clip-path="url(#clip0_1433_9974)">
<path d="M160.316 164.289L167.218 135.24C170.207 123.068 161.986 110.994 149.567 109.31L105.187 103.293C96.8431 102.162 88.8367 106.984 85.9317 114.88L68.1123 163.243C68.1123 163.243 159.276 163.256 160.316 164.289Z" fill="white"/>
<path d="M160.316 164.941C160.264 164.941 160.219 164.934 160.167 164.921C159.816 164.837 159.601 164.486 159.686 164.141L166.587 135.092C167.965 129.464 166.893 123.498 163.63 118.709C160.375 113.926 155.215 110.735 149.476 109.955L105.097 103.937C96.9927 102.839 89.3633 107.434 86.5428 115.109L68.7234 163.472C68.5999 163.81 68.223 163.979 67.8915 163.855C67.5536 163.732 67.3846 163.355 67.5081 163.024L85.3276 114.66C88.3625 106.407 96.5638 101.468 105.279 102.651L149.658 108.668C155.761 109.494 161.245 112.893 164.709 117.981C168.173 123.07 169.317 129.419 167.855 135.398L160.953 164.44C160.875 164.739 160.609 164.941 160.316 164.941Z" fill="#080717"/>
<path d="M111.322 164.291H150.346C150.405 164.037 150.32 163.764 150.099 163.595L104.186 127.898L59.5463 90.1859C59.3969 90.0559 59.1954 90.0039 59.0069 90.0299C58.812 90.0559 58.643 90.1729 58.5325 90.3354L57.3693 92.142C55.3287 95.3069 55.5236 99.4141 57.8567 102.364L70.1847 117.974L67.2668 120.008C64.2254 122.127 63.3741 126.26 65.3627 129.451L67.9882 133.123C68.0077 133.149 68.0336 133.155 68.0466 133.175C68.1961 134.065 68.521 134.942 69.0279 135.761L70.9321 138.244C71.8549 139.446 73.2521 140.115 74.7078 140.115C75.0458 140.115 75.3902 140.07 75.7346 139.992L81.0571 142.793C81.1545 142.845 81.265 142.871 81.3755 142.871C81.408 142.871 81.447 142.871 81.4795 142.864C82.6102 142.695 83.6175 142.117 84.3584 141.266C86.529 142.312 88.927 142.825 91.351 142.747L92.9692 142.695L103.38 154.231L111.322 164.291Z" fill="white"/>
<path d="M41.8512 164.287L18.7158 136.063L29.1267 122.871L74.7087 164.287H41.8512Z" fill="white"/>
<path d="M41.8512 164.938C41.6627 164.938 41.4743 164.86 41.3508 164.698L18.2154 136.467C18.0204 136.233 18.0204 135.895 18.2089 135.655L28.6198 122.469C28.7303 122.326 28.8993 122.242 29.0747 122.222C29.2567 122.203 29.4322 122.268 29.5621 122.391L75.1441 163.807C75.4105 164.048 75.43 164.457 75.1896 164.724C74.9491 164.99 74.5397 165.01 74.2732 164.769L29.2112 123.821L19.5476 136.058L42.3516 163.879C42.5791 164.158 42.5401 164.568 42.2606 164.795C42.1436 164.893 42.0007 164.938 41.8512 164.938Z" fill="#080717"/>
<path d="M130.955 106.789L132.768 106.828C131.539 103.858 137.7 82.7763 137.7 82.7763L116.774 82.1914C116.8 82.5488 114.188 98.0352 112.914 104.345L106.377 103.462C105.142 111.572 107.377 118.805 112.888 121.989C121.129 126.747 133.561 120.651 140.657 108.362C140.703 108.284 140.742 108.206 140.787 108.128L130.955 106.789Z" fill="white"/>
<path d="M119.14 124.257C116.762 124.257 114.533 123.685 112.557 122.548C107.027 119.357 104.408 112 105.727 103.364C105.779 103.013 106.104 102.766 106.455 102.818L112.388 103.624C113.714 96.9039 116.073 82.8602 116.118 82.1844C116.105 82.0024 116.17 81.8529 116.294 81.7164C116.417 81.5865 116.593 81.541 116.781 81.5475L137.707 82.1324C137.909 82.1389 138.097 82.2363 138.214 82.3988C138.331 82.5613 138.37 82.7692 138.312 82.9642C135.998 90.8796 132.651 104.072 133.314 106.464L140.859 107.484C141.074 107.51 141.255 107.646 141.353 107.841C141.45 108.036 141.444 108.264 141.34 108.452L141.203 108.693C137.707 114.743 132.833 119.526 127.478 122.151C124.612 123.549 121.785 124.257 119.14 124.257ZM106.923 104.189C105.903 112.013 108.281 118.577 113.207 121.417C117.002 123.607 121.863 123.451 126.913 120.975C131.865 118.545 136.394 114.177 139.735 108.634L130.871 107.432C130.526 107.386 130.286 107.081 130.312 106.736C130.338 106.392 130.656 106.152 130.975 106.139L131.975 106.158C131.858 104.696 132.19 101.473 134.139 93.5311C135.199 89.2224 136.355 85.0958 136.843 83.3996L117.334 82.8537C116.866 86.1096 114.572 99.3734 113.545 104.468C113.48 104.806 113.162 105.034 112.824 104.982L106.923 104.189Z" fill="#080717"/>
<path d="M45.068 140.458H22.9334C19.4501 140.458 16.4282 138.047 15.6548 134.654L2.6704 77.6216C1.60461 72.949 5.1594 68.5039 9.94895 68.5039H32.0835C35.5668 68.5039 38.5887 70.9149 39.3621 74.3073L52.3465 131.34C53.4058 136.012 49.8575 140.458 45.068 140.458Z" fill="#080717"/>
<path d="M182.815 54.8594C181.028 54.0276 179.182 53.4817 177.33 53.1893C176.271 52.4939 167.926 52.2599 163.845 51.1487C161.103 50.4013 159.179 47.7758 157.84 45.5988C157.392 44.572 156.807 43.6102 156.086 42.7328C154.376 40.4583 151.868 39.4705 151.868 39.4705C145.805 36.637 138.591 39.256 135.758 45.3193C132.924 51.3826 135.543 58.5962 141.606 61.4296C142.549 61.8715 143.517 62.177 144.498 62.3654C149.775 64.0356 150.601 64.9649 152.004 67.8113C153.109 70.0469 153.785 73.6797 154.038 75.2459C154.727 82.128 158.919 88.4772 165.639 91.6161C175.79 96.3602 187.864 91.98 192.608 81.829C197.352 71.6781 192.966 59.6035 182.815 54.8594Z" fill="#080717"/>
<path d="M183.886 90.9566C183.769 90.9566 183.652 90.9241 183.542 90.8591C183.236 90.6707 183.145 90.2677 183.334 89.9623L183.425 89.8258C183.464 89.7608 183.509 89.6958 183.548 89.6309C189.092 80.3312 186.271 68.3411 177.271 62.9017C175.73 61.9724 174.06 61.2705 172.312 60.8221C172.221 60.7961 172.137 60.7571 172.059 60.6921C171.675 60.4062 169.251 59.9188 167.301 59.5224C164.546 58.9635 161.427 58.3331 159.38 57.5467C156.527 56.455 154.837 53.3811 153.817 51.165C153.804 51.139 153.791 51.1065 153.784 51.0805C153.479 50.0667 153.037 49.1179 152.478 48.2471C151.178 46.0115 149.014 44.8613 148.995 44.8548C145.323 42.6387 140.098 41.352 136.342 44.3219C136.062 44.5428 135.653 44.4973 135.432 44.2179C135.211 43.9385 135.256 43.529 135.536 43.3081C139.812 39.9223 145.622 41.3065 149.631 43.724C149.696 43.7565 152.101 45.0237 153.589 47.5712C154.194 48.507 154.681 49.5533 155.019 50.6646C155.948 52.6727 157.456 55.4217 159.854 56.338C161.797 57.0853 164.864 57.7027 167.568 58.2551C170.46 58.84 172.085 59.1844 172.754 59.6003C174.587 60.0812 176.335 60.8221 177.953 61.7969C187.564 67.6002 190.58 80.3897 184.673 90.3002C184.627 90.3782 184.575 90.4562 184.53 90.5342L184.452 90.6577C184.315 90.8461 184.101 90.9566 183.886 90.9566Z" fill="white"/>
<path d="M198.08 79.5838C198.008 79.5838 197.937 79.5708 197.865 79.5448C197.527 79.4278 197.345 79.0574 197.462 78.7195C201.569 66.8268 196.182 54.1349 185.453 50.4306C183.62 49.8002 181.696 49.4558 179.734 49.4103C179.63 49.4103 179.532 49.3843 179.441 49.3323C178.973 49.1179 176.283 49.2023 174.119 49.2738C171.065 49.3778 167.601 49.4883 165.255 49.1503C161.992 48.6824 159.575 45.6995 158.048 43.4965C158.028 43.4705 158.015 43.4445 158.002 43.4185C157.469 42.3657 156.813 41.4104 156.033 40.5851C154.194 38.4275 151.659 37.7191 151.633 37.7061C145.323 35.5486 138.259 39.4543 135.855 46.4209C135.738 46.7588 135.367 46.9408 135.029 46.8238C134.691 46.7068 134.509 46.3364 134.626 45.9985C137.265 38.3495 145.07 34.0863 152.023 36.4844C152.101 36.5039 154.922 37.2837 157.008 39.7337C157.84 40.6175 158.561 41.6573 159.146 42.8011C160.537 44.8027 162.701 47.4802 165.443 47.8701C167.672 48.1885 171.078 48.0781 174.08 47.9806C177.284 47.8766 179.097 47.8311 179.89 48.1171C181.943 48.1755 183.964 48.5395 185.882 49.2023C197.287 53.1406 203.032 66.5734 198.691 79.1484C198.6 79.4148 198.353 79.5838 198.08 79.5838Z" fill="#080717"/>
<path d="M143.812 75.3599C149.947 64.0244 145.731 49.8618 134.396 43.7268C123.06 37.5918 108.898 41.8077 102.763 53.1432C96.6277 64.4787 100.844 78.6413 112.179 84.7763C123.515 90.9113 137.677 86.6954 143.812 75.3599Z" fill="#080717"/>
<path d="M136.876 72.7562C138.013 69.3054 138.143 65.4907 136.973 61.7669C133.997 52.2853 123.891 47.0149 114.416 49.9913C107.014 52.3178 102.199 58.9855 101.854 66.3095C99.0988 70.6312 98.202 76.0966 99.8527 81.367C102.829 90.8486 112.928 96.1191 122.41 93.1427C127.42 91.57 131.235 88.0022 133.289 83.5961C135.011 85.8706 138.026 86.9364 140.899 86.0331C144.557 84.8828 146.591 80.9901 145.441 77.3313C144.31 73.718 140.496 71.6969 136.876 72.7562Z" fill="white"/>
<path d="M117.028 94.6169C109.1 94.6169 101.73 89.5154 99.2283 81.561C97.5972 76.362 98.3185 70.7341 101.204 66.1005C101.639 58.3931 106.851 51.6799 114.214 49.3664C124.021 46.286 134.51 51.7579 137.59 61.5644C138.649 64.9308 138.721 68.4791 137.811 71.8909C141.392 71.41 144.953 73.5871 146.065 77.1353C147.319 81.1321 145.09 85.3952 141.1 86.6559C138.377 87.5073 135.42 86.7469 133.438 84.7583C131.15 89.0475 127.251 92.3033 122.604 93.7655C120.752 94.3439 118.874 94.6169 117.028 94.6169ZM119.797 49.8083C118.081 49.8083 116.333 50.0682 114.611 50.6076C107.709 52.7717 102.848 59.0949 102.504 66.3345C102.497 66.445 102.465 66.5555 102.4 66.6529C99.6378 70.9876 98.9359 76.2775 100.476 81.171C101.867 85.5902 104.889 89.2034 108.996 91.348C113.103 93.4926 117.795 93.9085 122.221 92.5178C126.835 91.0686 130.656 87.7152 132.71 83.3156C132.807 83.1077 133.002 82.9712 133.23 82.9452C133.464 82.9192 133.678 83.0167 133.814 83.1986C135.413 85.3172 138.188 86.2075 140.716 85.4082C144.024 84.3684 145.87 80.8331 144.83 77.5188C143.809 74.2759 140.326 72.4173 137.064 73.3726C136.836 73.4441 136.583 73.3726 136.414 73.2036C136.245 73.0282 136.186 72.7747 136.264 72.5473C137.408 69.0705 137.441 65.4117 136.355 61.9544C134.029 54.5588 127.173 49.8083 119.797 49.8083Z" fill="#080717"/>
<path d="M134.984 79.715C134.828 79.715 134.679 79.663 134.555 79.5525C134.289 79.3121 134.263 78.9026 134.503 78.6362C136.173 76.7646 138.831 75.9002 141.281 76.4396C141.632 76.5176 141.853 76.862 141.775 77.213C141.697 77.5639 141.353 77.7849 141.002 77.7069C139.033 77.278 136.81 77.9928 135.471 79.5005C135.341 79.637 135.159 79.715 134.984 79.715Z" fill="#080717"/>
<path d="M108.197 79.3436C108.164 79.3436 108.125 79.3436 108.093 79.3436C106.195 79.3111 104.447 78.4793 103.407 77.1146C103.193 76.8286 103.245 76.4192 103.531 76.2047C103.816 75.9838 104.226 76.0423 104.44 76.3282C105.24 77.381 106.611 78.0179 108.112 78.0439C109.607 78.0634 111.004 77.472 111.836 76.4452C112.063 76.1658 112.473 76.1268 112.752 76.3477C113.032 76.5752 113.071 76.9846 112.85 77.264C111.784 78.5703 110.055 79.3436 108.197 79.3436Z" fill="#080717"/>
<path d="M121.304 63.9687C121.044 63.9687 120.797 63.8127 120.7 63.5527C119.718 60.9987 117.73 61.2847 115.735 61.98L115.546 62.045C115.202 62.162 114.838 61.9735 114.721 61.6356C114.604 61.2977 114.786 60.9273 115.13 60.8103L115.306 60.7518C116.554 60.3229 120.342 59.0101 121.909 63.0913C122.039 63.4293 121.87 63.7997 121.538 63.9297C121.46 63.9492 121.382 63.9687 121.304 63.9687Z" fill="#080717"/>
<path d="M105.343 70.4292C105.129 70.4292 104.921 70.3252 104.797 70.1302C104.603 69.8313 104.694 69.4283 104.992 69.2334C107.384 67.6932 108.684 65.4966 109.067 64.4373C109.49 63.2871 109.288 61.9093 108.528 60.6486C107.735 59.3424 106.468 58.4325 105.226 58.2701C104.869 58.2246 104.622 57.8996 104.668 57.5422C104.713 57.1848 105.038 56.9313 105.395 56.9833C107.046 57.1978 108.638 58.3156 109.646 59.9727C110.62 61.5714 110.854 63.3651 110.295 64.8858C109.743 66.387 108.209 68.7135 105.701 70.3252C105.584 70.3967 105.467 70.4292 105.343 70.4292Z" fill="#080717"/>
<path d="M104.681 65.1891C104.629 66.4108 105.304 67.4311 106.182 67.4701C107.059 67.5091 107.813 66.5473 107.865 65.3256C107.917 64.1038 107.241 63.0835 106.364 63.0445C105.486 62.999 104.726 63.9608 104.681 65.1891Z" fill="#080717"/>
<path d="M114.884 67.341C114.832 68.5628 115.508 69.5831 116.385 69.6221C117.262 69.6611 118.016 68.6993 118.068 67.4775C118.12 66.2557 117.444 65.2354 116.567 65.1965C115.69 65.1575 114.936 66.1193 114.884 67.341Z" fill="#080717"/>
<path d="M141.697 64.0518C142.061 67.0087 142.25 69.9916 142.347 72.955C142.354 73.2084 142.191 73.4944 141.905 73.4944C139.312 73.5529 136.739 73.15 134.282 72.3116C129.792 70.7714 125.834 67.769 123.254 63.7788C120.433 59.4117 119.231 54.0568 119.946 48.9033C120.024 48.3184 120.862 48.4224 120.908 48.9358C122.688 47.4931 125.327 47.4931 127.485 48.026C129.883 48.6173 132.047 49.8521 134.107 51.1778C136.342 52.6075 138.357 54.1217 139.624 56.5198C140.859 58.8463 141.372 61.4718 141.697 64.0518Z" fill="#080717"/>
<path d="M8.88908 101.517L10.2603 107.976L5.08084 104.72C3.07924 103.466 1.60404 101.53 0.915172 99.268C0.304294 97.2534 0.817692 96.0447 2.97526 94.0301L14.517 83.9766L15.7322 86.927C16.5965 89.0326 16.3041 91.4306 14.9589 93.2632L8.88908 101.517Z" fill="white"/>
<path d="M10.2606 108.628C10.1437 108.628 10.0202 108.596 9.91622 108.531L4.73675 105.275C2.60517 103.936 1.02599 101.869 0.29813 99.4584C-0.462218 96.9499 0.454099 95.5072 2.53369 93.5576L14.0884 83.4911C14.2444 83.3546 14.4588 83.3026 14.6668 83.3481C14.8682 83.3936 15.0372 83.5366 15.1152 83.7315L16.3304 86.682C17.2793 88.9825 16.9543 91.6535 15.4791 93.6551L9.58478 101.668L10.8975 107.842C10.9495 108.095 10.8455 108.362 10.6311 108.511C10.5206 108.589 10.3906 108.628 10.2606 108.628ZM14.2639 85.0638L3.40451 94.5259C1.42241 96.378 1.01949 97.3593 1.53938 99.0815C2.18276 101.194 3.56048 103 5.42561 104.176L9.30534 106.613L8.25255 101.655C8.21355 101.473 8.25255 101.285 8.36302 101.135L14.4328 92.8817C15.6351 91.244 15.908 89.054 15.1282 87.1759L14.2639 85.0638Z" fill="#080717"/>
<path d="M10.6955 110.021L12.0667 116.48L6.88723 113.224C4.88563 111.97 3.41042 110.034 2.72156 107.772C2.11068 105.757 2.96201 103.593 4.78165 102.534L20.2161 93.2539L21.3339 97.4586C21.9122 99.6356 21.1584 101.949 19.4102 103.372L10.6955 110.021Z" fill="white"/>
<path d="M12.0671 117.13C11.9501 117.13 11.8266 117.097 11.7226 117.032L6.54317 113.777C4.41159 112.438 2.83241 110.371 2.10455 107.96C1.40269 105.653 2.371 103.19 4.45708 101.975L19.8785 92.6947C20.054 92.5907 20.2684 92.5712 20.4569 92.6492C20.6454 92.7272 20.7883 92.8897 20.8403 93.0846L21.9646 97.2893C22.608 99.7133 21.7696 102.293 19.8265 103.872L11.4237 110.28L12.7104 116.337C12.7624 116.59 12.6584 116.857 12.444 117.006C12.327 117.091 12.197 117.13 12.0671 117.13ZM19.807 94.2544L5.11345 103.093C3.54076 104.009 2.81941 105.855 3.3458 107.583C3.98917 109.695 5.3669 111.502 7.23203 112.678L11.1118 115.115L10.059 110.157C10.007 109.91 10.098 109.656 10.2994 109.507L19.0142 102.859C20.5479 101.611 21.2172 99.5573 20.7038 97.6272L19.807 94.2544Z" fill="#080717"/>
<path d="M12.5021 118.521L13.8733 124.981L8.69387 121.725C6.69227 120.47 5.21706 118.534 4.5282 116.272C3.91732 114.258 4.76865 112.094 6.58829 111.034L20.723 102.605L21.8472 106.81C22.4256 108.987 21.6718 111.301 19.9236 112.724L12.5021 118.521Z" fill="white"/>
<path d="M13.8737 125.63C13.7567 125.63 13.6333 125.598 13.5293 125.533L8.34981 122.277C6.21823 120.938 4.63905 118.871 3.91119 116.46C3.20933 114.153 4.17764 111.69 6.26372 110.475L20.3919 102.046C20.5674 101.942 20.7818 101.923 20.9703 102.001C21.1588 102.079 21.3017 102.241 21.3537 102.436L22.478 106.641C23.1214 109.065 22.283 111.645 20.3399 113.224L13.2303 118.774L14.5171 124.837C14.5691 125.091 14.4651 125.357 14.2506 125.507C14.1337 125.591 14.0037 125.63 13.8737 125.63ZM20.3139 103.599L6.92009 111.593C5.3539 112.509 4.62605 114.355 5.15244 116.083C5.79582 118.196 7.17354 120.002 9.03867 121.178L12.9184 123.615L11.8656 118.657C11.8136 118.417 11.9046 118.163 12.0996 118.007L19.5211 112.21C21.0613 110.962 21.7306 108.902 21.2172 106.979L20.3139 103.599Z" fill="#080717"/>
<path d="M14.2179 126.589L15.5892 133.049L10.4097 129.793C8.40809 128.539 6.93288 126.602 6.24402 124.341C5.63314 122.326 6.48447 120.162 8.30411 119.103L20.5997 111.941L21.7239 116.146C22.3023 118.323 21.5485 120.637 19.8003 122.06L14.2179 126.589Z" fill="white"/>
<path d="M15.5895 133.699C15.4726 133.699 15.3491 133.666 15.2451 133.601L10.0656 130.345C7.93405 129.007 6.35487 126.94 5.62701 124.529C4.92515 122.222 5.89346 119.759 7.97954 118.544L20.2751 111.382C20.4506 111.278 20.665 111.265 20.847 111.343C21.0354 111.421 21.1719 111.584 21.2239 111.779L22.3482 115.983C22.9916 118.407 22.1532 120.987 20.2036 122.566L14.9332 126.843L16.2199 132.912C16.2719 133.166 16.1679 133.432 15.9535 133.582C15.8495 133.66 15.7195 133.699 15.5895 133.699ZM20.1906 112.935L8.62941 119.668C7.06323 120.578 6.34187 122.423 6.86826 124.152C7.51164 126.264 8.88936 128.071 10.7545 129.247L14.6342 131.684L13.5814 126.726C13.5294 126.485 13.6204 126.238 13.8089 126.089L19.3913 121.559C20.938 120.305 21.6073 118.245 21.0939 116.321L20.1906 112.935Z" fill="#080717"/>
<path d="M67.5725 81.731C80.4575 81.731 90.9029 71.2857 90.9029 58.4007C90.9029 45.5157 80.4575 35.0703 67.5725 35.0703C54.6875 35.0703 44.2422 45.5157 44.2422 58.4007C44.2422 71.2857 54.6875 81.731 67.5725 81.731Z" fill="#FFCF4B"/>
<path d="M44.1318 81.8403L47.2902 70.0386L50.4551 58.2305L59.0984 66.8737L67.7416 75.517L55.9335 78.6819L44.1318 81.8403Z" fill="#FFCF4B"/>
<path d="M150.132 164.938C149.996 164.938 149.853 164.892 149.736 164.801L103.017 128.61L58.1627 90.8396L57.3763 92.0483C55.6152 94.7713 55.7842 98.3066 57.7988 100.841L70.8677 117.335C71.0886 117.614 71.0431 118.024 70.7637 118.245C70.4842 118.466 70.0748 118.42 69.8539 118.141L56.785 101.647C54.4259 98.6705 54.2245 94.5243 56.2911 91.34L57.4738 89.5138C57.5778 89.3579 57.7403 89.2539 57.9222 89.2214C58.1042 89.1954 58.2927 89.2474 58.4356 89.3644L103.836 127.596L150.535 163.775C150.821 163.996 150.873 164.405 150.652 164.684C150.522 164.853 150.327 164.938 150.132 164.938Z" fill="#080717"/>
<path d="M112.193 164.937C112.005 164.937 111.81 164.853 111.686 164.69L103.394 154.201L92.7878 142.491L91.1242 142.549C88.3882 142.64 85.6718 141.99 83.2737 140.664C82.9618 140.489 82.8448 140.093 83.0203 139.781C83.1958 139.469 83.5922 139.352 83.9041 139.527C86.1007 140.736 88.5767 141.327 91.0852 141.249L93.0543 141.184C93.2493 141.171 93.4312 141.256 93.5547 141.399L104.388 153.363L112.706 163.884C112.927 164.164 112.882 164.573 112.602 164.794C112.472 164.892 112.329 164.937 112.193 164.937Z" fill="#080717"/>
<path d="M67.6115 133.088C67.41 133.088 67.2086 132.99 67.0851 132.815L64.4141 129.098C62.406 125.887 63.2639 121.728 66.3378 119.596L74.3702 114.021C74.6626 113.819 75.072 113.891 75.2735 114.183C75.4749 114.475 75.4034 114.885 75.111 115.086L67.0786 120.662C64.5701 122.397 63.8747 125.79 65.4929 128.376L68.1379 132.061C68.3459 132.353 68.2809 132.756 67.9884 132.971C67.8779 133.049 67.7415 133.088 67.6115 133.088Z" fill="#080717"/>
<path d="M73.8829 139.887C72.4142 139.887 71.0105 139.211 70.0811 138.002L68.1445 135.487C66.1234 132.257 66.9813 128.098 70.0551 125.966L78.0875 120.391C78.38 120.183 78.7894 120.261 78.9909 120.553C79.1923 120.845 79.1208 121.255 78.8284 121.456L70.796 127.032C68.2875 128.774 67.5921 132.16 69.2103 134.746L71.1079 137.209C71.9918 138.359 73.4605 138.84 74.8512 138.45C75.1956 138.353 75.553 138.554 75.6505 138.899C75.748 139.243 75.5465 139.601 75.2021 139.698C74.7667 139.822 74.3248 139.887 73.8829 139.887Z" fill="#080717"/>
<path d="M80.6675 142.679C80.5636 142.679 80.4596 142.653 80.3686 142.607L74.7342 139.651C74.6302 139.599 74.5458 139.514 74.4873 139.417C72.5052 136.239 73.3565 132.08 76.4369 129.948L84.4693 124.372C84.7617 124.171 85.1711 124.242 85.3726 124.535C85.5741 124.827 85.5026 125.236 85.2101 125.438L77.1777 131.014C74.7212 132.716 73.9999 136.011 75.5011 138.578L80.778 141.347C81.7008 141.152 82.5002 140.593 83.0071 139.794C83.3775 138.923 83.371 137.928 82.9876 137.058L82.3897 135.803C82.2337 135.478 82.3702 135.088 82.6951 134.939C83.0201 134.783 83.41 134.919 83.5595 135.244L84.1638 136.518C84.7032 137.753 84.7032 139.144 84.1703 140.352C84.1573 140.378 84.1444 140.404 84.1314 140.43C83.3905 141.639 82.1622 142.452 80.765 142.666C80.7325 142.672 80.7 142.679 80.6675 142.679Z" fill="#080717"/>
<path d="M80.8169 137.505C80.6024 137.505 80.3945 137.401 80.271 137.206C80.076 136.907 80.167 136.504 80.466 136.309L84.6446 133.619C84.9436 133.424 85.3465 133.515 85.5414 133.814C85.7364 134.113 85.6454 134.515 85.3465 134.71L81.1678 137.401C81.0573 137.472 80.9339 137.505 80.8169 137.505Z" fill="#080717"/>
<path d="M131.468 149.902C131.397 149.902 131.325 149.889 131.254 149.863C130.916 149.746 130.734 149.376 130.851 149.038L135.017 137.009C135.134 136.671 135.504 136.489 135.842 136.606C136.18 136.723 136.362 137.093 136.245 137.431L132.079 149.46C131.995 149.733 131.741 149.902 131.468 149.902Z" fill="#080717"/>
<path d="M89.5122 164.018C89.4473 164.018 89.3823 164.005 89.3173 163.985C88.9729 163.875 88.7844 163.511 88.8949 163.166L92.5991 151.599C92.7096 151.254 93.0735 151.066 93.418 151.176C93.7624 151.287 93.9509 151.651 93.8404 151.995L90.1361 163.563C90.0451 163.842 89.7917 164.018 89.5122 164.018Z" fill="#080717"/>
<path d="M62.6956 68.8598L61.4938 66.8238C60.0249 64.3806 58.5561 61.8017 57.2207 59.3585L59.4908 58.0012C60.5591 59.7657 61.6274 61.666 62.5621 63.4305C66.1676 57.0511 70.3071 51.7575 74.9809 47.4141L76.7168 49.45C71.6425 53.9292 67.3694 59.7657 63.6304 66.8238L62.6956 68.8598Z" fill="white"/>
</g>
<defs>
<clipPath id="clip0_1433_9974">
<rect width="200.115" height="129.87" fill="white" transform="translate(0.03125 35.0664)"/>
</clipPath>
</defs>
</svg>
