<svg width="200" height="200" viewBox="0 0 200 200" fill="none" xmlns="http://www.w3.org/2000/svg">
<path fill-rule="evenodd" clip-rule="evenodd" d="M200 100C200 155.23 155.23 200 100 200C44.77 200 0 155.23 0 100C0 44.77 44.77 0 100 0C155.23 0 200 44.77 200 100ZM100 180C121.217 180 141.566 171.571 156.569 156.569C171.571 141.566 180 121.217 180 100C180 78.7827 171.571 58.4344 156.569 43.4315C141.566 28.4285 121.217 20 100 20C78.7827 20 58.4344 28.4285 43.4315 43.4315C28.4285 58.4344 20 78.7827 20 100C20 121.217 28.4285 141.566 43.4315 156.569C58.4344 171.571 78.7827 180 100 180Z" fill="#A7A7A7"/>
<path fill-rule="evenodd" clip-rule="evenodd" d="M100 120C97.3478 120 94.8043 118.946 92.9289 117.071C91.0536 115.196 90 112.652 90 110V60C90 57.3478 91.0536 54.8043 92.9289 52.9289C94.8043 51.0536 97.3478 50 100 50C102.652 50 105.196 51.0536 107.071 52.9289C108.946 54.8043 110 57.3478 110 60V110C110 112.652 108.946 115.196 107.071 117.071C105.196 118.946 102.652 120 100 120Z" fill="#A7A7A7"/>
<path d="M90 140C90 137.348 91.0536 134.804 92.9289 132.929C94.8043 131.054 97.3478 130 100 130C102.652 130 105.196 131.054 107.071 132.929C108.946 134.804 110 137.348 110 140C110 142.652 108.946 145.196 107.071 147.071C105.196 148.946 102.652 150 100 150C97.3478 150 94.8043 148.946 92.9289 147.071C91.0536 145.196 90 142.652 90 140Z" fill="#A7A7A7"/>
</svg>
