<svg width="200" height="200" viewBox="0 0 200 200" fill="none" xmlns="http://www.w3.org/2000/svg">
<g clip-path="url(#clip0_1433_9381)">
<path d="M121.556 38.3491C97.0891 13.8889 57.3726 13.8889 32.8727 38.3491C8.38609 62.8357 8.43234 102.539 32.8595 126.999C57.3726 151.479 97.0758 151.506 121.556 127.012C146.056 102.539 146.036 62.8357 121.556 38.3491Z" fill="white"/>
<path d="M102.6 57.3053C88.5924 43.3045 65.8633 43.3045 51.836 57.3053C37.8219 71.3194 37.8417 94.0485 51.8294 108.049C65.8633 122.063 88.5924 122.077 102.6 108.056C116.627 94.0485 116.614 71.3194 102.6 57.3053ZM94.6381 100.094C85.0178 109.714 69.4246 109.708 59.7978 100.088C50.1974 90.4806 50.1842 74.8807 59.8044 65.2671C69.4312 55.6601 85.031 55.6601 94.6381 65.2671C104.252 74.8874 104.258 90.4806 94.6381 100.094Z" fill="#F9C032"/>
<path d="M121.556 38.3491C97.0891 13.8889 57.3726 13.8889 32.8727 38.3491C8.38609 62.8357 8.43234 102.539 32.8595 126.999C57.3726 151.479 97.0758 151.506 121.556 127.012C146.056 102.539 146.036 62.8357 121.556 38.3491ZM112.107 117.557C92.8472 136.824 61.6079 136.811 42.3146 117.551C23.0873 98.3037 23.0609 67.0644 42.3278 47.7975C61.6079 28.5571 92.8538 28.5571 112.107 47.7975C131.361 67.0644 131.381 98.3037 112.107 117.557Z" fill="#F9C032"/>
<path d="M85.1363 74.7678C80.7689 70.4003 73.6793 70.4003 69.3052 74.7678C64.9312 79.1352 64.9378 86.2248 69.2986 90.5922C73.6793 94.9663 80.7623 94.9663 85.1363 90.5922C89.5104 86.2314 89.5037 79.1418 85.1363 74.7678Z" fill="#F9C032"/>
<path d="M74.4454 130.229L67.1575 118.706C67.0254 118.494 66.8007 118.369 66.5298 118.375C65.2678 118.421 64.105 119.023 63.3385 120.034C62.5721 121.038 62.3012 122.32 62.5919 123.549L65.1159 134.173L50.2032 130.414C48.6769 130.031 47.3422 129.033 46.5428 127.672L43.7743 122.981C42.7237 121.203 40.7217 120.212 38.6801 120.463L37.6493 120.589C37.2661 120.635 36.9886 120.979 37.0283 121.368L37.5502 126.469C36.275 126.218 34.9536 126.37 33.7444 126.905C33.566 126.985 33.4339 127.13 33.3678 127.308C33.3017 127.487 33.315 127.692 33.3942 127.863L35.9182 133.043C35.2971 133.076 34.7157 133.248 34.1937 133.585C32.5155 134.675 32.0199 136.955 32.0001 137.047C31.9274 137.384 32.1124 137.728 32.4362 137.854L41.726 141.474C41.8119 141.507 41.8978 141.521 41.9837 141.521C42.0696 141.521 42.1489 141.501 42.2282 141.474C42.7039 141.712 43.1929 141.924 43.7082 142.082L60.1802 147.223L54.2733 158.752L42.9418 179.843C42.8229 180.061 42.8295 180.332 42.955 180.543C43.0805 180.755 43.3118 180.887 43.5629 180.887H74.5841C74.9541 180.887 75.2647 180.603 75.2911 180.233L76.8637 159.915C76.8637 159.909 76.8637 159.909 76.8637 159.902C76.8637 159.896 76.8637 159.896 76.8637 159.889L77.5706 141.904C77.7424 137.768 76.6588 133.731 74.4454 130.229Z" fill="white"/>
<path d="M76.1635 160.532C76.1569 160.532 76.1503 160.532 76.1371 160.532L54.8748 159.746C54.6502 159.74 54.4454 159.614 54.3264 159.422C54.2141 159.231 54.2075 158.986 54.3066 158.788L60.2466 147.205L43.7217 142.052C40.4379 141.028 37.9271 138.444 36.9955 135.141L33.4342 127.853C33.3549 127.694 33.3483 127.503 33.4077 127.337C33.4672 127.172 33.5993 127.033 33.7579 126.961C34.9803 126.419 36.3149 126.274 37.5967 126.538L37.0682 121.371C37.0285 121.014 37.2862 120.69 37.6496 120.644L38.6803 120.519C40.7088 120.281 42.691 121.252 43.7283 123.016L46.4968 127.707C47.3029 129.075 48.6508 130.079 50.1903 130.469L65.1822 134.249L62.6384 123.545C62.3477 122.329 62.6186 121.067 63.3718 120.069C64.125 119.078 65.2747 118.477 66.5235 118.431C66.7746 118.417 66.9794 118.536 67.1049 118.735L74.3928 130.258C76.5996 133.753 77.6832 137.777 77.518 141.906L76.8111 159.891C76.8111 160.255 76.5137 160.532 76.1635 160.532ZM55.965 158.464L75.5292 159.191L76.2098 141.86C76.3618 138.001 75.3508 134.235 73.2828 130.965L66.213 119.785C65.506 119.904 64.8717 120.281 64.429 120.862C63.9136 121.543 63.7286 122.402 63.9268 123.228L66.7217 134.995C66.7746 135.22 66.7085 135.458 66.5433 135.616C66.3781 135.781 66.1403 135.841 65.9156 135.788L49.8665 131.744C47.9834 131.269 46.3448 130.04 45.3603 128.368L42.5919 123.677C41.8188 122.369 40.352 121.635 38.8389 121.82L38.4557 121.866L39.0173 127.364C39.0437 127.595 38.9446 127.82 38.7596 127.958C38.5746 128.097 38.3302 128.13 38.1187 128.051C37.0814 127.661 35.978 127.621 34.9406 127.919L38.2046 134.605C38.2244 134.638 38.2377 134.678 38.2509 134.718C39.0504 137.618 41.244 139.885 44.1181 140.777L61.3962 146.168C61.5812 146.228 61.7332 146.366 61.8059 146.545C61.8786 146.723 61.872 146.928 61.7861 147.1L55.965 158.464Z" fill="#080717"/>
<path d="M48.7631 139.747C48.6772 139.747 48.5847 139.727 48.4988 139.694L44.0984 137.771C41.9179 136.82 40.2331 134.983 39.4666 132.73L37.7421 127.649C37.6232 127.305 37.8082 126.928 38.1518 126.809C38.502 126.691 38.872 126.876 38.9909 127.226L40.7154 132.307C41.3629 134.21 42.7835 135.762 44.6269 136.562L49.0274 138.485C49.3644 138.63 49.5163 139.02 49.371 139.357C49.2587 139.601 49.0142 139.747 48.7631 139.747Z" fill="#080717"/>
<path d="M41.9905 141.477C41.9112 141.477 41.8319 141.464 41.7526 141.431L32.4628 137.81C32.1588 137.691 31.9871 137.374 32.0531 137.057C32.0729 136.965 32.5685 134.698 34.2269 133.621C35.0396 133.093 35.9779 132.941 37.0086 133.159C37.3654 133.238 37.59 133.588 37.5174 133.945C37.4381 134.302 37.0945 134.533 36.7311 134.454C34.7357 134.024 33.8305 135.848 33.5001 136.799L42.2284 140.202C42.5653 140.334 42.7371 140.717 42.605 141.054C42.5059 141.319 42.2548 141.477 41.9905 141.477Z" fill="#080717"/>
<path d="M43.5633 180.848C43.4576 180.848 43.3518 180.821 43.2527 180.769C42.929 180.597 42.81 180.194 42.9818 179.877L54.32 158.773C54.4389 158.548 54.6701 158.41 54.9278 158.423L76.1901 159.209C76.3685 159.216 76.5403 159.295 76.6592 159.434C76.7782 159.566 76.8376 159.744 76.8244 159.929L75.2519 178.826C75.2188 179.189 74.9017 179.467 74.5383 179.427C74.1749 179.394 73.904 179.077 73.937 178.714L75.4567 160.511L55.2978 159.764L44.1513 180.504C44.0258 180.722 43.8011 180.848 43.5633 180.848Z" fill="#080717"/>
<path d="M82.5995 130.229L89.8874 118.706C90.0195 118.494 90.2442 118.369 90.5151 118.375C91.7771 118.421 92.9399 119.023 93.7064 120.034C94.4728 121.038 94.7437 122.32 94.453 123.549L91.929 134.173L106.842 130.414C108.368 130.031 109.703 129.033 110.502 127.672L113.271 122.981C114.321 121.203 116.323 120.212 118.365 120.463L119.396 120.589C119.779 120.635 120.056 120.979 120.017 121.368L119.495 126.469C120.77 126.218 122.091 126.37 123.3 126.905C123.479 126.985 123.611 127.13 123.677 127.308C123.743 127.487 123.73 127.692 123.651 127.863L121.127 133.043C121.748 133.076 122.329 133.248 122.851 133.585C124.529 134.675 125.025 136.955 125.045 137.047C125.117 137.384 124.932 137.728 124.609 137.854L115.319 141.474C115.233 141.507 115.147 141.521 115.061 141.521C114.975 141.521 114.896 141.501 114.817 141.474C114.341 141.712 113.852 141.924 113.337 142.082L96.8647 147.223L102.778 158.752L114.11 179.843C114.229 180.061 114.222 180.332 114.097 180.543C113.971 180.755 113.74 180.887 113.489 180.887H82.4674C82.0974 180.887 81.7868 180.603 81.7604 180.233L80.1879 159.915C80.1879 159.909 80.1879 159.909 80.1879 159.902C80.1879 159.896 80.1879 159.896 80.1879 159.889L79.4809 141.904C79.3025 137.768 80.3861 133.731 82.5995 130.229Z" fill="white"/>
<path d="M80.8812 160.53C80.531 160.53 80.2337 160.252 80.2205 159.895L79.5135 141.91C79.3483 137.781 80.4319 133.75 82.6387 130.262L89.9266 118.739C90.0521 118.54 90.2702 118.421 90.508 118.435C91.7568 118.481 92.9065 119.076 93.6597 120.073C94.4129 121.064 94.6838 122.333 94.3931 123.549L91.8493 134.252L106.841 130.473C108.381 130.083 109.729 129.079 110.535 127.711L113.303 123.02C114.341 121.263 116.329 120.285 118.351 120.522L119.382 120.648C119.739 120.694 119.996 121.011 119.963 121.368L119.435 126.542C120.73 126.277 122.064 126.416 123.28 126.958C123.445 127.031 123.571 127.169 123.63 127.335C123.69 127.5 123.683 127.691 123.604 127.85L120.043 135.138C119.111 138.441 116.6 141.025 113.316 142.049L96.7916 147.203L102.732 158.785C102.837 158.984 102.831 159.228 102.712 159.42C102.599 159.611 102.395 159.737 102.163 159.743L80.901 160.53C80.8944 160.53 80.8878 160.53 80.8812 160.53ZM90.8252 119.782L83.7554 130.962C81.6939 134.226 80.683 137.999 80.8283 141.857L81.5089 159.188L101.073 158.462L95.2455 147.104C95.1596 146.932 95.1464 146.727 95.2256 146.549C95.2983 146.37 95.4503 146.231 95.6353 146.172L112.913 140.78C115.788 139.882 117.975 137.616 118.781 134.722C118.794 134.682 118.807 134.642 118.827 134.609L122.091 127.923C121.06 127.625 119.957 127.665 118.933 128.048C118.715 128.127 118.464 128.094 118.285 127.956C118.107 127.817 117.994 127.599 118.021 127.368L118.582 121.87L118.199 121.824C116.699 121.639 115.219 122.373 114.446 123.681L111.678 128.372C110.693 130.044 109.048 131.273 107.172 131.748L91.1225 135.792C90.8979 135.845 90.66 135.785 90.4948 135.62C90.3296 135.455 90.2636 135.224 90.3164 134.999L93.1113 123.231C93.3095 122.406 93.1245 121.54 92.6092 120.866C92.1665 120.278 91.5322 119.901 90.8252 119.782Z" fill="#080717"/>
<path d="M108.282 139.746C108.024 139.746 107.787 139.601 107.674 139.35C107.529 139.013 107.681 138.629 108.018 138.477L112.418 136.555C114.255 135.749 115.682 134.196 116.33 132.3L118.054 127.219C118.173 126.875 118.543 126.69 118.893 126.802C119.237 126.921 119.422 127.298 119.303 127.641L117.579 132.723C116.812 134.976 115.127 136.812 112.947 137.764L108.546 139.687C108.46 139.726 108.368 139.746 108.282 139.746Z" fill="#080717"/>
<path d="M115.054 141.477C114.79 141.477 114.539 141.319 114.44 141.054C114.308 140.717 114.473 140.334 114.817 140.202L123.545 136.799C123.214 135.854 122.303 134.031 120.314 134.454C119.957 134.533 119.607 134.302 119.528 133.945C119.448 133.588 119.68 133.238 120.036 133.159C121.067 132.941 122.005 133.093 122.818 133.621C124.476 134.698 124.972 136.958 124.992 137.057C125.058 137.374 124.886 137.691 124.582 137.81L115.292 141.431C115.213 141.464 115.134 141.477 115.054 141.477Z" fill="#080717"/>
<path d="M113.475 180.847C113.237 180.847 113.013 180.721 112.894 180.497L101.747 159.756L81.5883 160.503L83.108 178.706C83.141 179.069 82.8701 179.386 82.5067 179.42C82.1367 179.459 81.8261 179.182 81.7931 178.818L80.2206 159.921C80.2073 159.743 80.2668 159.565 80.3857 159.426C80.5047 159.287 80.6765 159.208 80.8549 159.201L102.117 158.415C102.375 158.402 102.606 158.54 102.725 158.765L114.063 179.869C114.235 180.193 114.116 180.589 113.792 180.761C113.687 180.82 113.581 180.847 113.475 180.847Z" fill="#080717"/>
<path d="M167.391 175.481L142.858 165.729L142.297 141.064L165.198 140.535L167.391 175.481Z" fill="white"/>
<path d="M167.391 176.144C167.312 176.144 167.226 176.13 167.147 176.097L142.614 166.352C142.369 166.253 142.204 166.015 142.197 165.75L141.636 141.079C141.629 140.715 141.913 140.411 142.283 140.405L165.184 139.883C165.541 139.903 165.838 140.147 165.858 140.504L168.052 175.443C168.065 175.668 167.966 175.886 167.781 176.018C167.669 176.097 167.53 176.144 167.391 176.144ZM143.512 165.281L166.671 174.485L164.583 141.217L142.977 141.713L143.512 165.281Z" fill="#080717"/>
<path d="M166.65 115.84C166.65 115.84 153.409 121.106 151.037 119.144C148.672 117.182 143.399 111.004 146.756 106.577C150.112 102.157 151.123 104.41 153.165 105.685C155.207 106.967 157.724 101.8 159.145 102.414C160.558 103.029 161.669 104.496 163.512 107.634C165.362 110.779 166.65 115.84 166.65 115.84Z" fill="#080717"/>
<path d="M157.552 154.544C163.076 154.577 168.686 152.522 173.093 148.366C181.993 139.968 182.422 126.357 174.487 117.55C161.47 103.106 146.782 112.885 144.582 115.753C144.067 116.427 143.571 117.074 143.082 117.702C142.137 118.653 141.298 119.664 140.558 120.728C138.662 122.803 136.871 124.15 134.982 124.177C132.094 124.223 126.974 144.805 142.501 148.214L157.552 154.544Z" fill="white"/>
<path d="M157.678 155.206C157.632 155.206 157.592 155.206 157.546 155.206C157.183 155.206 156.885 154.909 156.892 154.539C156.892 154.175 157.189 153.885 157.553 153.885C157.612 153.898 157.638 153.885 157.678 153.885C163.228 153.885 168.534 151.757 172.637 147.885C181.213 139.798 181.808 126.669 173.992 117.994C169.32 112.807 163.981 110.29 158.174 110.528C151.368 110.798 146.142 114.809 145.104 116.157C144.589 116.831 144.087 117.485 143.598 118.106C143.585 118.126 143.565 118.146 143.545 118.166C142.64 119.077 141.814 120.069 141.094 121.106C141.074 121.132 141.061 121.152 141.041 121.172C138.748 123.676 136.878 124.806 134.989 124.839C134.341 124.925 132.669 128.176 132.478 132.966C132.333 136.653 133.026 145.46 142.64 147.568C142.997 147.647 143.221 147.998 143.142 148.354C143.063 148.711 142.713 148.936 142.356 148.856C137.922 147.885 134.731 145.507 132.868 141.787C131.447 138.946 130.872 135.305 131.256 131.539C131.652 127.621 133.145 123.551 134.969 123.518C136.455 123.491 138.021 122.507 140.037 120.313C140.79 119.236 141.642 118.212 142.58 117.26C143.063 116.646 143.552 116.012 144.054 115.351C145.593 113.342 151.295 109.477 158.114 109.206C164.351 108.968 170.021 111.618 174.969 117.108C183.268 126.319 182.64 140.26 173.536 148.843C169.195 152.953 163.565 155.206 157.678 155.206Z" fill="#080717"/>
<path d="M179.278 115.211C173.847 109.449 166.076 107.176 158.65 108.399C160.473 109.515 162.178 110.863 163.698 112.475C174.018 123.417 172.4 141.7 160.09 153.315C159.403 153.963 158.703 154.564 157.982 155.145C164.88 156.044 172.208 153.897 177.765 148.65C187.425 139.532 188.098 124.567 179.278 115.211Z" fill="#080717"/>
<path d="M158.167 121.094C159.891 118.253 163.697 119.951 161.556 117.566C157.506 113.053 157.684 106.512 157.684 106.512C171.044 107.186 177.81 129.657 177.81 129.657L166.697 153.139L166.082 157.546L156.878 155.65C154.876 154.804 153.661 152.756 153.879 150.596L155.002 139.304C155.075 139.396 155.147 139.489 155.233 139.575C157.176 141.636 160.42 141.729 162.481 139.786C164.543 137.844 164.635 134.599 162.693 132.538C160.75 130.476 157.506 130.384 155.445 132.326C155.431 132.34 155.425 132.346 155.412 132.359C154.83 131.904 153.535 130.708 154.467 129.657C155.63 128.329 156.442 123.935 158.167 121.094Z" fill="#080717"/>
<path d="M135.768 135.498C135.504 135.498 135.233 135.472 134.955 135.412C134.599 135.339 134.367 134.989 134.44 134.633C134.513 134.276 134.863 134.051 135.22 134.117C136.766 134.441 138.054 133.258 138.068 133.245C138.332 133.001 138.755 133.014 138.999 133.278C139.25 133.542 139.237 133.959 138.973 134.21C138.907 134.276 137.585 135.498 135.768 135.498Z" fill="#080717"/>
<path d="M156.813 135.88C156.668 135.88 156.529 135.834 156.403 135.742C156.119 135.517 156.066 135.107 156.291 134.817C156.35 134.737 157.804 132.92 160.084 133.02C160.447 133.039 160.731 133.35 160.711 133.713C160.691 134.077 160.381 134.361 160.018 134.341C158.432 134.242 157.348 135.616 157.335 135.629C157.203 135.788 157.005 135.88 156.813 135.88Z" fill="#080717"/>
<path d="M149.313 122.33C149.214 122.33 149.121 122.31 149.029 122.264C148.698 122.105 148.56 121.709 148.718 121.385C148.956 120.89 148.85 119.786 148.262 118.808C147.919 118.234 147.126 117.262 145.692 117.196C145.329 117.176 145.045 116.873 145.064 116.509C145.078 116.146 145.395 115.848 145.752 115.881C147.271 115.947 148.566 116.754 149.392 118.135C150.159 119.416 150.37 120.989 149.901 121.96C149.795 122.191 149.557 122.33 149.313 122.33Z" fill="#080717"/>
<path d="M143.757 123.564C143.222 123.961 142.561 123.974 142.277 123.591C141.993 123.208 142.191 122.573 142.726 122.177C143.261 121.78 143.922 121.767 144.206 122.15C144.49 122.534 144.286 123.168 143.757 123.564Z" fill="#080717"/>
<path d="M142.462 147.663L142.64 155.559C145.977 154.125 148.871 151.614 150.747 148.185C151.501 146.81 152.036 145.383 152.373 143.93C149.545 146.216 146.056 147.511 142.462 147.663Z" fill="#080717"/>
<path d="M107.179 181C116.092 174.3 141.649 162.698 148.6 161.964L166.677 160.055L176.952 181H107.179Z" fill="#080717"/>
<path d="M80.1678 159.899C80.1678 159.905 80.1678 159.905 80.1678 159.912C80.1678 159.918 80.1678 159.918 80.1678 159.925L81.7403 180.243C81.7668 180.613 82.0773 180.897 82.4473 180.897H113.469C113.72 180.897 113.951 180.764 114.076 180.553C114.202 180.342 114.209 180.071 114.09 179.853L102.93 159.086H80.1348L80.1678 159.899Z" fill="#080717"/>
<path d="M76.8047 159.899C76.8047 159.905 76.8047 159.905 76.8047 159.912C76.8047 159.918 76.8047 159.918 76.8047 159.925L75.2322 180.243C75.2057 180.613 74.8952 180.897 74.5252 180.897H43.4973C43.2462 180.897 43.015 180.764 42.8894 180.553C42.7639 180.342 42.7573 180.071 42.8762 179.853L54.036 159.086H76.8444L76.8047 159.899Z" fill="#080717"/>
</g>
<defs>
<clipPath id="clip0_1433_9381">
<rect width="170.951" height="161" fill="white" transform="translate(14.5244 20)"/>
</clipPath>
</defs>
</svg>
