<svg width="120" height="6" viewBox="0 0 120 6" fill="none" xmlns="http://www.w3.org/2000/svg">
<path d="M0 3L5 5.88675V0.113249L0 3ZM3 3V3.5H5V3V2.5H3V3ZM7 3V3.5H9V3V2.5H7V3ZM11 3V3.5H13V3V2.5H11V3ZM15 3V3.5H17V3V2.5H15V3ZM19 3V3.5H21V3V2.5H19V3ZM23 3V3.5H25V3V2.5H23V3ZM27 3V3.5H29V3V2.5H27V3ZM31 3V3.5H33V3V2.5H31V3ZM35 3V3.5H37V3V2.5H35V3ZM39 3V3.5H41V3V2.5H39V3ZM43 3V3.5H45V3V2.5H43V3ZM47 3V3.5H49V3V2.5H47V3ZM51 3V3.5H53V3V2.5H51V3ZM55 3V3.5H57V3V2.5H55V3ZM59 3V3.5H61V3V2.5H59V3ZM63 3V3.5H65V3V2.5H63V3ZM67 3V3.5H69V3V2.5H67V3ZM71 3V3.5H73V3V2.5H71V3ZM75 3V3.5H77V3V2.5H75V3ZM79 3V3.5H81V3V2.5H79V3ZM83 3V3.5H85V3V2.5H83V3ZM87 3V3.5H89V3V2.5H87V3ZM91 3V3.5H93V3V2.5H91V3ZM95 3V3.5H97V3V2.5H95V3ZM99 3V3.5H101V3V2.5H99V3ZM103 3V3.5H105V3V2.5H103V3ZM107 3V3.5H109V3V2.5H107V3ZM111 3V3.5H113V3V2.5H111V3ZM115 3V3.5H117V3V2.5H115V3ZM119 3V3.5H120V3V2.5H119V3Z" fill="#F18435"/>
</svg>
