<svg width="464" height="460" viewBox="0 0 464 460" fill="none" xmlns="http://www.w3.org/2000/svg">
<g opacity="0.05">
<path d="M383.006 -28.5631C389.985 -32.5927 398.906 -30.2024 402.936 -23.2229L409.779 -11.3691C636.438 381.215 501.433 885.061 108.849 1111.72L96.9949 1118.56C90.0154 1122.59 81.0945 1120.2 77.0648 1113.22L70.2211 1101.37C-156.437 708.786 -21.4321 204.939 371.152 -21.7194L383.006 -28.5631ZM384.959 4.00265C7.22322 222.7 -122.741 707.732 95.0398 1086C472.777 867.301 602.741 382.268 384.959 4.00265Z" fill="#44AB57" stroke="#44AB57" stroke-width="0.436364"/>
<path d="M376.436 -19.8714L404.619 -12.3093L103.523 1109.83L75.3407 1102.26L376.436 -19.8714Z" fill="#44AB57" stroke="#44AB57" stroke-width="0.436364"/>
</g>
</svg>
