<svg width="60" height="60" viewBox="0 0 60 60" fill="none" xmlns="http://www.w3.org/2000/svg">
<path d="M45.9199 22.0463C45.9227 21.9347 45.9367 21.8269 45.9367 21.7154C45.9367 13.515 39.2889 6.86816 31.0896 6.86816C23.8727 6.86816 17.8642 12.0188 16.5255 18.8438C8.19956 19.0632 2.03925 27.975 6.84112 36.8504C8.63925 40.1738 12.1802 42.1875 15.9602 42.1875H46.3867C49.5761 42.1875 52.5949 40.5394 54.153 37.7569C58.4683 30.0507 53.1452 22.2563 45.9199 22.0463Z" fill="#D9E5DB"/>
<path d="M43.125 30.9375H16.875V36.5625H43.125V30.9375Z" fill="#2CF050"/>
<path d="M16.8745 49.0763V36.5625H43.1245V49.0763C43.1245 49.9312 42.2854 49.6875 41.2495 49.6875H16.8745C15.8385 49.6875 16.8745 49.9312 16.8745 49.0763Z" fill="#2CF050"/>
<path d="M44.0625 32.8125H15.9375C15.42 32.8125 15 32.3925 15 31.875V26.25C15 25.7325 15.42 25.3125 15.9375 25.3125H44.0625C44.58 25.3125 45 25.7325 45 26.25V31.875C45 32.3925 44.58 32.8125 44.0625 32.8125Z" fill="#44AB57"/>
<path d="M44.0625 42.1875H15.9375C15.42 42.1875 15 41.7675 15 41.25V35.625C15 35.1075 15.42 34.6875 15.9375 34.6875H44.0625C44.58 34.6875 45 35.1075 45 35.625V41.25C45 41.7675 44.58 42.1875 44.0625 42.1875Z" fill="#44AB57"/>
<path d="M44.0625 51.5625H15.9375C15.42 51.5625 15 51.1425 15 50.625V45C15 44.4825 15.42 44.0625 15.9375 44.0625H44.0625C44.58 44.0625 45 44.4825 45 45V50.625C45 51.1425 44.58 51.5625 44.0625 51.5625Z" fill="#44AB57"/>
<path d="M20.625 30.4688C21.4017 30.4688 22.0312 29.8392 22.0312 29.0625C22.0312 28.2858 21.4017 27.6562 20.625 27.6562C19.8483 27.6562 19.2188 28.2858 19.2188 29.0625C19.2188 29.8392 19.8483 30.4688 20.625 30.4688Z" fill="#2CF050"/>
<path d="M20.625 39.8438C21.4017 39.8438 22.0312 39.2142 22.0312 38.4375C22.0312 37.6608 21.4017 37.0312 20.625 37.0312C19.8483 37.0312 19.2188 37.6608 19.2188 38.4375C19.2188 39.2142 19.8483 39.8438 20.625 39.8438Z" fill="#2CF050"/>
<path d="M20.625 49.2188C21.4017 49.2188 22.0312 48.5892 22.0312 47.8125C22.0312 47.0358 21.4017 46.4062 20.625 46.4062C19.8483 46.4062 19.2188 47.0358 19.2188 47.8125C19.2188 48.5892 19.8483 49.2188 20.625 49.2188Z" fill="#2CF050"/>
<path d="M27.1875 29.0625H40.3125" stroke="white" stroke-width="2" stroke-miterlimit="10" stroke-linecap="square"/>
<path d="M27.1875 38.4375H40.3125" stroke="white" stroke-width="2" stroke-miterlimit="10" stroke-linecap="square"/>
<path d="M27.1875 47.8125H40.3125" stroke="white" stroke-width="2" stroke-miterlimit="10" stroke-linecap="square"/>
</svg>
