<svg width="16" height="17" viewBox="0 0 16 17" fill="none" xmlns="http://www.w3.org/2000/svg">
<g clip-path="url(#clip0_309_2941)">
<path d="M10.3531 4.5H2.11776C1.20953 4.5 0.470703 5.23882 0.470703 6.14706V12.0294C0.470703 12.9376 1.20953 13.6765 2.11776 13.6765H8.64953L10.7954 15.8271C10.9319 15.9588 11.1107 16.0294 11.2942 16.0294C11.3836 16.0294 11.4778 16.0153 11.5625 15.9776C11.826 15.8694 12.0001 15.6106 12.0001 15.3235V6.14706C12.0001 5.23882 11.2613 4.5 10.3531 4.5ZM4.26364 9.23412C4.13188 9.36588 3.95306 9.44118 3.76482 9.44118C3.58129 9.44118 3.40247 9.36588 3.266 9.23412C3.13423 9.10235 3.05894 8.91882 3.05894 8.73529C3.05894 8.54706 3.13423 8.36824 3.266 8.23647C3.52953 7.97294 4.00482 7.97294 4.26364 8.23647C4.39541 8.36824 4.4707 8.55176 4.4707 8.73529C4.4707 8.91882 4.39541 9.10235 4.26364 9.23412ZM6.62129 9.23412C6.48482 9.36588 6.30129 9.44118 6.11776 9.44118C5.93423 9.44118 5.7507 9.36588 5.61894 9.23412C5.48717 9.10235 5.41188 8.91882 5.41188 8.73529C5.41188 8.55176 5.48717 8.36824 5.61894 8.23647C5.88247 7.97294 6.35306 7.97294 6.61659 8.23647C6.74835 8.36824 6.82364 8.54706 6.82364 8.73529C6.82364 8.91882 6.74835 9.10235 6.62129 9.23412ZM8.96953 9.23412C8.83776 9.36588 8.65423 9.44118 8.4707 9.44118C8.28717 9.44118 8.10364 9.36588 7.97188 9.23412C7.84011 9.10235 7.76482 8.91882 7.76482 8.73529C7.76482 8.54706 7.84011 8.36353 7.97188 8.23647C8.23541 7.97294 8.7107 7.97294 8.96953 8.23647C9.10129 8.36353 9.17659 8.54706 9.17659 8.73529C9.17659 8.91882 9.10129 9.10235 8.96953 9.23412Z" fill="white"/>
<path d="M15.5299 2.61776V7.08835C15.5299 7.74247 15.0969 8.50011 13.8828 8.50011H12.7063V6.14717C12.7063 4.84835 11.6522 3.79423 10.3534 3.79423H5.88281V2.61776C5.88281 1.70953 6.62164 0.970703 7.52987 0.970703H13.8828C14.791 0.970703 15.5299 1.70953 15.5299 2.61776Z" fill="white"/>
</g>
<defs>
<clipPath id="clip0_309_2941">
<rect width="16" height="16" fill="white" transform="translate(0 0.5)"/>
</clipPath>
</defs>
</svg>
