<svg width="110" height="110" viewBox="0 0 110 110" fill="none" xmlns="http://www.w3.org/2000/svg">
<mask id="mask0_309_3508" style="mask-type:alpha" maskUnits="userSpaceOnUse" x="0" y="0" width="110" height="110">
<rect width="110" height="110" rx="10" fill="#D9D9D9"/>
</mask>
<g mask="url(#mask0_309_3508)">
<path d="M6 53.7803C33.8437 53.7803 56.5 76.4366 56.5 104.28V104.78H53.7803V104.28C53.7803 77.9308 32.3414 56.5 6 56.5H5.5V53.7803H6Z" fill="#2CF050" stroke="#2CF050"/>
<path d="M6 59.9229C30.4612 59.9229 50.3574 79.8191 50.3574 104.28V104.78H47.6377V104.28C47.6377 81.3214 28.9589 62.6426 6 62.6426H5.5V59.9229H6Z" fill="#2CF050" stroke="#2CF050"/>
<path d="M104.78 53.7803V56.5H104.28C77.9388 56.5 56.5 77.9308 56.5 104.28V104.78H53.7803V104.28C53.7803 76.4366 76.4366 53.7803 104.28 53.7803H104.78Z" fill="#2CF050" stroke="#2CF050"/>
<path d="M104.78 59.9229V62.6426H104.28C81.3214 62.6426 62.6426 81.3214 62.6426 104.28V104.78H59.9229V104.28C59.9229 79.8191 79.8191 59.9229 104.28 59.9229H104.78Z" fill="#2CF050" stroke="#2CF050"/>
<path d="M56.5 5.5V6C56.5 33.8437 33.8437 56.5 6 56.5H5.5V53.7803H6C32.3414 53.7803 53.7803 32.3414 53.7803 6V5.5H56.5Z" fill="#2CF050" stroke="#2CF050"/>
<path d="M50.3574 5.5V6C50.3574 30.4612 30.4612 50.3574 6 50.3574H5.5V47.6377H6C28.9589 47.6377 47.6377 28.9589 47.6377 6V5.5H50.3574Z" fill="#2CF050" stroke="#2CF050"/>
<path d="M104.78 56.5H104.28C76.4366 56.5 53.7803 33.8437 53.7803 6V5.5H56.5V6C56.5 32.3414 77.9389 53.7803 104.28 53.7803H104.78V56.5Z" fill="#2CF050" stroke="#2CF050"/>
<path d="M104.78 50.3574H104.28C79.8191 50.3574 59.9229 30.4612 59.9229 6V5.5H62.6426V6C62.6426 28.9589 81.3214 47.6377 104.28 47.6377H104.78V50.3574Z" fill="#2CF050" stroke="#2CF050"/>
</g>
</svg>
