<svg width="110" height="110" viewBox="0 0 110 110" fill="none" xmlns="http://www.w3.org/2000/svg">
<mask id="mask0_309_3365" style="mask-type:alpha" maskUnits="userSpaceOnUse" x="0" y="0" width="110" height="110">
<rect width="110" height="110" rx="10" fill="#D9D9D9"/>
</mask>
<g mask="url(#mask0_309_3365)">
<path d="M55 53.6396C55.7512 53.6396 56.3604 54.2488 56.3604 55V104.14C56.3604 104.891 55.7512 105.5 55 105.5C27.1564 105.5 4.50022 82.8435 4.5 55C4.5 54.2488 5.10919 53.6396 5.86035 53.6396H55ZM7.24316 56.3594C7.95597 81.6239 28.3752 102.043 53.6396 102.756V56.3594H7.24316Z" fill="#2CF050" stroke="#2CF050"/>
<path d="M5.86035 4.5C33.7039 4.50022 56.3603 27.1564 56.3604 55C56.3604 55.7512 55.7512 56.3604 55 56.3604H5.86035C5.10919 56.3604 4.5 55.7512 4.5 55V5.86035C4.5 5.10919 5.10919 4.5 5.86035 4.5ZM7.21973 53.6396H53.6162C52.9031 28.3752 32.4842 7.95498 7.21973 7.24219V53.6396Z" fill="#2CF050" stroke="#2CF050"/>
<path d="M104.14 53.6396L104.278 53.6465C104.964 53.7159 105.5 54.2956 105.5 55C105.5 82.8434 82.8434 105.5 55 105.5C54.2488 105.5 53.6396 104.891 53.6396 104.14V55L53.6465 54.8604C53.7162 54.1746 54.2958 53.6396 55 53.6396H104.14ZM56.3594 102.756C81.624 102.043 102.043 81.624 102.756 56.3594H56.3594V102.756Z" fill="#2CF050" stroke="#2CF050"/>
<path d="M104.181 4.54102C104.932 4.54102 105.541 5.15021 105.541 5.90137V55.041C105.541 55.7922 104.932 56.4014 104.181 56.4014H55.041C54.2899 56.4014 53.6807 55.7922 53.6807 55.041C53.6807 27.1973 76.337 4.54102 104.181 4.54102ZM102.82 7.2832C77.5561 7.99629 57.1369 28.4164 56.4238 53.6807H102.82V7.2832Z" fill="#2CF050" stroke="#2CF050"/>
</g>
</svg>
