<svg width="48" height="48" viewBox="0 0 48 48" fill="none" xmlns="http://www.w3.org/2000/svg">
<path d="M24 18C26.2782 18 28.125 16.1532 28.125 13.875C28.125 11.5968 26.2782 9.75 24 9.75C21.7218 9.75 19.875 11.5968 19.875 13.875C19.875 16.1532 21.7218 18 24 18Z" fill="#D9E5DB"/>
<path d="M31.5 25.4996C31.5 24.6746 31.275 23.7746 30.75 23.0996C29.475 21.2246 26.925 20.4746 24 20.4746C21.075 20.4746 18.525 21.2246 17.25 23.0996C16.725 23.8496 16.5 24.6746 16.5 25.4996C16.5 26.6996 16.5 38.9996 16.5 38.9996H31.425C31.5 38.9996 31.5 26.6996 31.5 25.4996Z" fill="#D9E5DB"/>
<path d="M36 22.5C38.0711 22.5 39.75 20.8211 39.75 18.75C39.75 16.6789 38.0711 15 36 15C33.9289 15 32.25 16.6789 32.25 18.75C32.25 20.8211 33.9289 22.5 36 22.5Z" fill="#4E7355"/>
<path d="M42.75 29.1004C42.75 28.2754 42.525 27.6004 42.075 26.9254C40.95 25.2754 38.7 24.5254 36 24.5254C33.375 24.5254 31.05 25.2004 29.925 26.9254C29.475 27.6004 29.25 28.2754 29.25 29.1004C29.25 30.2254 29.25 39.0004 29.25 39.0004H42.675C42.75 39.0004 42.75 30.3004 42.75 29.1004Z" fill="#4E7355"/>
<path d="M12 22.5C14.0711 22.5 15.75 20.8211 15.75 18.75C15.75 16.6789 14.0711 15 12 15C9.92893 15 8.25 16.6789 8.25 18.75C8.25 20.8211 9.92893 22.5 12 22.5Z" fill="#2CF050"/>
<path d="M18.75 29.1004C18.75 28.2754 18.525 27.6004 18.075 26.9254C16.95 25.2754 14.7 24.5254 12 24.5254C9.375 24.5254 7.05 25.2004 5.925 26.9254C5.475 27.6004 5.25 28.2754 5.25 29.1004C5.25 30.2254 5.25 39.0004 5.25 39.0004H18.675C18.75 39.0004 18.75 30.3004 18.75 29.1004Z" fill="#2CF050"/>
</svg>
