<svg width="24" height="24" viewBox="0 0 24 24" fill="none" xmlns="http://www.w3.org/2000/svg">
<path d="M2 11C1.44771 11 1 11.4477 1 12C1 12.5523 1.44772 13 2 13L2 11ZM21 13C21.5523 13 22 12.5523 22 12C22 11.4477 21.5523 11 21 11L21 13ZM16.4755 5.30214C16.09 4.90657 15.4569 4.89835 15.0614 5.28377C14.6658 5.66919 14.6576 6.3023 15.043 6.69786L16.4755 5.30214ZM20.5719 10.9393L19.8557 11.6372L20.5719 10.9393ZM20.5719 13.0607L19.8557 12.3628L20.5719 13.0607ZM15.043 17.3021C14.6576 17.6977 14.6658 18.3308 15.0614 18.7162C15.4569 19.1016 16.09 19.0934 16.4755 18.6979L15.043 17.3021ZM2 13L21 13L21 11L2 11L2 13ZM15.043 6.69786L19.8557 11.6372L21.2882 10.2415L16.4755 5.30214L15.043 6.69786ZM19.8557 12.3628L15.043 17.3021L16.4755 18.6979L21.2882 13.7585L19.8557 12.3628ZM19.8557 11.6372C20.0481 11.8347 20.0481 12.1653 19.8557 12.3628L21.2882 13.7585C22.2373 12.7844 22.2373 11.2156 21.2882 10.2415L19.8557 11.6372Z" fill="#222222"/>
</svg>
