<svg width="65" height="64" viewBox="0 0 65 64" fill="none" xmlns="http://www.w3.org/2000/svg">
<path d="M19.334 43H13.334C12.7817 43 12.334 43.4477 12.334 44V52C12.334 52.5523 12.7817 53 13.334 53H19.334C19.8863 53 20.334 52.5523 20.334 52V44C20.334 43.4477 19.8863 43 19.334 43Z" fill="#D9E5DB"/>
<path d="M30.334 38H24.334C23.7817 38 23.334 38.4477 23.334 39V52C23.334 52.5523 23.7817 53 24.334 53H30.334C30.8863 53 31.334 52.5523 31.334 52V39C31.334 38.4477 30.8863 38 30.334 38Z" fill="#D9E5DB"/>
<path d="M41.334 30H35.334C34.7817 30 34.334 30.4477 34.334 31V52C34.334 52.5523 34.7817 53 35.334 53H41.334C41.8863 53 42.334 52.5523 42.334 52V31C42.334 30.4477 41.8863 30 41.334 30Z" fill="#D9E5DB"/>
<path d="M52.334 21H46.334C45.7817 21 45.334 21.4477 45.334 22V52C45.334 52.5523 45.7817 53 46.334 53H52.334C52.8863 53 53.334 52.5523 53.334 52V22C53.334 21.4477 52.8863 21 52.334 21Z" fill="#D9E5DB"/>
<path d="M11.334 53H54.334" stroke="#44AB57" stroke-width="4" stroke-miterlimit="10" stroke-linecap="square"/>
<path d="M33.834 12.5H40.834V19.5" stroke="#2CF050" stroke-width="3" stroke-miterlimit="10" stroke-linecap="round"/>
<path d="M40.834 12.5L22.834 30.5" stroke="#2CF050" stroke-width="3" stroke-linecap="round" stroke-linejoin="round"/>
</svg>
