<svg width="33" height="32" viewBox="0 0 33 32" fill="none" xmlns="http://www.w3.org/2000/svg">
<path d="M9.5 24H5.5C4.4 24 3.5 23.1 3.5 22V6C3.5 4.9 4.4 4 5.5 4H27.5C28.6 4 29.5 4.9 29.5 6V22C29.5 23.1 28.6 24 27.5 24H15L9.5 28" stroke="#8AEB9C" stroke-width="2" stroke-miterlimit="10" stroke-linecap="round" stroke-linejoin="round"/>
<path d="M13.5 11.0003C13.5 9.20033 15.1 7.70033 17 8.00033C18.2 8.20033 19.2 9.20033 19.4 10.4003C19.6 11.8003 19 13.0003 17.9 13.6003C17 14.1003 16.5 14.9003 16.5 15.9003V16.0003" stroke="#44AB57" stroke-width="2" stroke-miterlimit="10" stroke-linecap="round" stroke-linejoin="round"/>
<path d="M16.5 21C17.0523 21 17.5 20.5523 17.5 20C17.5 19.4477 17.0523 19 16.5 19C15.9477 19 15.5 19.4477 15.5 20C15.5 20.5523 15.9477 21 16.5 21Z" fill="#44AB57"/>
</svg>
