<svg width="110" height="110" viewBox="0 0 110 110" fill="none" xmlns="http://www.w3.org/2000/svg">
<mask id="mask0_309_3377" style="mask-type:alpha" maskUnits="userSpaceOnUse" x="0" y="0" width="110" height="110">
<rect width="110" height="110" rx="10" fill="#D9D9D9"/>
</mask>
<g mask="url(#mask0_309_3377)">
<path d="M38.6601 105.5H71.3405C72.16 105.5 72.82 104.84 72.82 104.02V79.5117C72.82 78.6922 72.16 78.0322 71.3405 78.0322H38.6601C37.8406 78.0322 37.1807 78.6922 37.1807 79.5117V104.02C37.1807 104.84 37.8406 105.5 38.6601 105.5ZM69.861 80.9912V102.541H40.1396V80.9912H69.861Z" fill="#2CF050" stroke="#2CF050"/>
<path d="M54.0322 4.51444L54.0327 4.51443C63.3393 4.2678 72.1496 7.68548 78.8173 14.1718C85.4843 20.6575 89.1638 29.3589 89.1638 38.6598C89.1638 47.4241 85.8476 55.7547 79.8257 62.1176L54.0322 4.51444ZM54.0322 4.51444C36.6161 4.99338 22.0707 18.9649 20.9168 36.3316C20.2785 45.9137 23.5295 55.0294 30.0735 62.0087C34.6601 66.9044 37.1808 73.0826 37.1808 79.512C37.1808 80.3315 37.8408 80.9915 38.6603 80.9915H71.3406M54.0322 4.51444L71.3406 80.9915M71.3406 80.9915H71.3478C72.1673 80.9915 72.8273 80.3315 72.8273 79.512V79.4119C72.8273 73.0377 75.3064 66.8967 79.8256 62.1178L71.3406 80.9915ZM77.6695 60.0862L77.6693 60.0864C72.9616 65.0639 70.2326 71.3914 69.896 78.0325H40.0979C39.7603 71.4187 36.9873 65.0544 32.2259 59.9737L32.2258 59.9735C26.2512 53.6049 23.2822 45.276 23.8664 36.5196L23.8664 36.5195C24.9216 20.6698 38.2092 7.90912 54.11 7.46587L54.1101 7.46587C62.6329 7.22658 70.6526 10.3641 76.7474 16.29C82.8421 22.2158 86.1977 30.1582 86.1977 38.6598C86.1977 46.6682 83.1723 54.2738 77.6695 60.0862Z" fill="#2CF050" stroke="#2CF050"/>
<path d="M33.584 32.6904C33.584 44.4987 43.1951 54.1098 55.0034 54.1098C55.8229 54.1098 56.4829 53.4499 56.4829 52.6304C56.4829 40.8148 46.8716 31.2109 35.0635 31.2109C34.244 31.2109 33.584 31.8709 33.584 32.6904ZM36.6091 34.2361C45.5552 34.9808 52.713 42.1386 53.4577 51.0847C44.5116 50.34 37.3539 43.1822 36.6091 34.2361Z" fill="#2CF050" stroke="#2CF050"/>
<path d="M53.5244 52.6304C53.5244 53.4499 54.1844 54.1098 55.0039 54.1098C66.8122 54.1098 76.4233 44.4987 76.4233 32.6904C76.4233 31.8709 75.7633 31.2109 74.9438 31.2109C63.1356 31.2109 53.5244 40.8221 53.5244 52.6304ZM73.3982 34.2361C72.6534 43.1822 65.4957 50.34 56.5496 51.0847C57.2943 42.1386 64.4521 34.9808 73.3982 34.2361Z" fill="#2CF050" stroke="#2CF050"/>
<path d="M56.4834 52.6299V52.1299H55.9834H54.0244H53.5244V52.6299V79.512V80.012H54.0244H55.9834H56.4834V79.512V52.6299Z" fill="#2CF050" stroke="#2CF050"/>
</g>
</svg>
