<svg width="110" height="110" viewBox="0 0 110 110" fill="none" xmlns="http://www.w3.org/2000/svg">
<mask id="mask0_309_3481" style="mask-type:alpha" maskUnits="userSpaceOnUse" x="0" y="0" width="110" height="110">
<rect width="110" height="110" rx="10" fill="#D9D9D9"/>
</mask>
<g mask="url(#mask0_309_3481)">
<path d="M104 105.209H104.5V104.709V102.99V102.49H104H7.2199V6V5.5H6.7199H5H4.5V6V103.85C4.5 104.601 5.10879 105.209 5.85995 105.209H104Z" fill="#2CF050" stroke="#2CF050"/>
<path d="M104.14 81.07H104.64V80.57V78.8501V78.3501H104.14H31.7902V6V5.5H31.2902H29.5703H29.0703V6V79.7101C29.0703 80.4612 29.6791 81.07 30.4303 81.07H104.14Z" fill="#2CF050" stroke="#2CF050"/>
<path d="M104.14 56.5H104.64V56V54.2801V53.7801H104.14H56.3595V6V5.5H55.8595H54.1396H53.6396V6V55.14C53.6396 55.8912 54.2484 56.5 54.9996 56.5H104.14Z" fill="#2CF050" stroke="#2CF050"/>
<path d="M104.14 31.93H104.64V31.43V29.7101V29.2101H104.14H80.9299V6V5.5H80.4299H78.71H78.21V6V30.57C78.21 31.3212 78.8188 31.93 79.5699 31.93H104.14Z" fill="#2CF050" stroke="#2CF050"/>
</g>
</svg>
