<svg width="48" height="48" viewBox="0 0 48 48" fill="none" xmlns="http://www.w3.org/2000/svg">
<path d="M21 15.75H27C27.414 15.75 27.75 16.086 27.75 16.5V39C27.75 39.414 27.414 39.75 27 39.75H21C20.586 39.75 20.25 39.414 20.25 39V16.5C20.25 16.086 20.586 15.75 21 15.75Z" fill="#D9E5DB"/>
<path d="M32.25 8.25H38.25C38.664 8.25 39 8.586 39 9V39C39 39.414 38.664 39.75 38.25 39.75H32.25C31.836 39.75 31.5 39.414 31.5 39V9C31.5 8.586 31.836 8.25 32.25 8.25Z" fill="#D9E5DB"/>
<path d="M9.75 18.75H15.75C16.164 18.75 16.5 19.086 16.5 19.5V39C16.5 39.414 16.164 39.75 15.75 39.75H9.75C9.336 39.75 9 39.414 9 39V19.5C9 19.086 9.336 18.75 9.75 18.75Z" fill="#D9E5DB"/>
<path d="M8.25 39.75H39.75" stroke="#2CF050" stroke-width="4" stroke-miterlimit="10" stroke-linecap="square"/>
<path d="M7.6875 33.5625H10.6875L13.3125 30.9375H16.5L17.7188 32.1562L23.25 26.625H28.6875L31.3125 29.25H34.125L37.3125 22.125H40.3125" stroke="#4E7355" stroke-width="3" stroke-miterlimit="10" stroke-linecap="square"/>
</svg>
