<svg width="64" height="64" viewBox="0 0 64 64" fill="none" xmlns="http://www.w3.org/2000/svg">
<path d="M13.2 26L13 30.3V42.3L16 45.9V51.8H29V46.6C30.3 44.5 31 42 31 39.5V26H13.2Z" fill="#D9E5DB"/>
<path d="M13 33L13.4 16C13.4 15 14.3 14.2 15.3 14.2C16.3 14.2 17.1 15 17.1 16L17.5 33C17.5 34.2 16.6 35.1999 15.3 35.2999C14 35.4 13 34.2999 13 33Z" fill="#D9E5DB"/>
<path d="M17.5004 27.5L18.1004 12.5C18.1004 11.5 19.0004 10.7 20.0004 10.7C21.0004 10.7 21.7004 11.5 21.8004 12.5L22.4004 27.5C22.5004 28.9 21.4004 30 20.0004 30.1C18.6004 30.2 17.5004 29.1 17.4004 27.7C17.5004 27.6 17.5004 27.6 17.5004 27.5Z" fill="#D9E5DB"/>
<path d="M22.6 28L23 13C23 12 23.9 11.2 24.9 11.2C25.9 11.2 26.7 12 26.7 13L27 28C27 29.2 26.1 30.2999 24.8 30.2999C23.6 30.2999 22.5 29.4 22.5 28.1C22.6 28.1 22.6 28 22.6 28Z" fill="#D9E5DB"/>
<path d="M27.3008 26.9999L27.5008 15.9999C27.5008 15.0999 28.3008 14.3999 29.2008 14.3999C30.1008 14.3999 30.8008 15.0999 30.8008 15.9999L31.0008 26.9999C31.0008 27.9999 30.2008 28.8999 29.2008 28.8999C28.2008 28.8999 27.3008 28.0999 27.3008 26.9999Z" fill="#D9E5DB"/>
<path d="M14.2006 43.6L11.3006 40.3C10.1006 38.9 9.10063 37.4 8.50063 35.7C8.20063 34.8 8.00063 34 7.80063 33.1L7.70063 32.5L7.60063 32L7.50063 30.9L7.00063 26.4C6.90063 25.3 7.70063 24.3 8.80063 24.2C9.80063 24.1 10.7006 24.7 11.0006 25.7L12.2006 30L12.5006 31.1L12.6006 31.6L12.7006 32C12.9006 32.6 13.1006 33.1 13.4006 33.6C14.0006 34.6 14.7006 35.5 15.5006 36.2L18.8006 39.1C20.2006 40.3 20.3006 42.3 19.1006 43.7C17.9006 45.1 15.9006 45.2 14.5006 44C14.4006 43.8 14.3006 43.7 14.2006 43.6Z" fill="#D9E5DB"/>
<path d="M50.8 26L51 30.3V42.3L48 45.9V51.8H35V46.6C33.7 44.5 33 42 33 39.5V26H50.8Z" fill="#D9E5DB"/>
<path d="M46.5996 33L46.9996 16C46.9996 15 47.8996 14.2 48.8996 14.2C49.8996 14.2 50.6996 15 50.6996 16L50.9996 33C50.9996 34.2 50.0996 35.1999 48.7996 35.2999C47.4996 35.4 46.5996 34.2999 46.5996 33Z" fill="#D9E5DB"/>
<path d="M41.5004 27.5L42.1004 12.5C42.1004 11.5 43.0004 10.7 44.0004 10.7C45.0004 10.7 45.7004 11.5 45.8004 12.5L46.4004 27.5C46.5004 28.9 45.4004 30 44.0004 30.1C42.6004 30.2 41.5004 29.1 41.4004 27.7C41.5004 27.6 41.5004 27.6 41.5004 27.5Z" fill="#D9E5DB"/>
<path d="M36.9004 28L37.3004 13C37.3004 12 38.2004 11.2 39.2004 11.2C40.2004 11.2 41.0004 12 41.0004 13L41.4004 28C41.4004 29.2 40.5004 30.2999 39.2004 30.2999C38.0004 30.2999 36.9004 29.4 36.9004 28.1V28Z" fill="#D9E5DB"/>
<path d="M32.9004 26.9999L33.1004 15.9999C33.1004 15.0999 33.9004 14.3999 34.8004 14.3999C35.7004 14.3999 36.4004 15.0999 36.4004 15.9999L36.6004 26.9999C36.6004 27.9999 35.8004 28.8999 34.8004 28.8999C33.8004 28.8999 33.0004 28.0999 32.9004 26.9999Z" fill="#D9E5DB"/>
<path d="M45.0995 39L48.3995 36.1C49.2995 35.4 49.9995 34.5 50.4995 33.5C50.7995 33 50.9995 32.5 51.1995 31.9L51.2995 31.5L51.3995 31L51.6995 29.9L52.8995 25.6C53.1995 24.5 54.2995 23.9 55.3995 24.2C56.3995 24.5 56.9995 25.4 56.8995 26.4L56.3995 30.8L56.2995 31.9L56.1995 32.4L56.0995 33C55.8995 33.9 55.6995 34.7 55.3995 35.6C54.7995 37.3 53.7995 38.9 52.5995 40.2L49.6995 43.5C48.4995 44.9 46.4995 45 45.0995 43.8C43.6995 42.6 43.5995 40.6 44.7995 39.2C44.8995 39.2 44.9995 39.1 45.0995 39Z" fill="#D9E5DB"/>
<path d="M32.5993 44.3999C32.1993 44.7999 31.6993 44.7999 31.2993 44.3999L23.4993 36.5999C21.2993 34.3999 21.3993 30.8999 23.5993 28.7999C25.7993 26.7999 29.1993 26.9999 31.3993 29.0999L31.8993 29.5999L32.3993 29.0999C34.4993 26.9999 37.9993 26.7999 40.1993 28.7999C42.3993 30.8999 42.4993 34.4999 40.2993 36.5999L32.5993 44.3999Z" fill="#44AB57"/>
</svg>
