<svg width="32" height="32" viewBox="0 0 32 32" fill="none" xmlns="http://www.w3.org/2000/svg">
<path d="M17.3012 21.2004C14.5012 19.8004 12.3012 17.7004 10.7012 14.8004C10.3012 14.0004 10.6012 13.1004 11.3012 12.6004L11.4012 12.5004C12.3012 12.0004 12.7012 10.9004 12.2012 9.90039C11.6012 8.50039 11.2012 7.10039 10.9012 5.60039C10.7012 4.60039 9.80118 3.90039 8.80118 3.90039C8.10118 4.00039 7.30118 4.00039 7.30118 4.00039C4.40118 4.20039 2.50118 6.70039 3.20118 9.30039C5.70118 18.8004 13.1012 26.2004 22.6012 28.7004C25.1012 29.4004 27.7012 27.6004 27.9012 25.0004L28.1012 23.1004C28.2012 22.0004 27.4012 21.1004 26.4012 20.9004C24.9012 20.6004 23.5012 20.2004 22.1012 19.6004C21.1012 19.2004 20.0012 19.5004 19.5012 20.4004C19.0012 21.3004 18.1012 21.6004 17.3012 21.2004Z" stroke="#8AEB9C" stroke-width="2" stroke-miterlimit="10" stroke-linecap="round" stroke-linejoin="round"/>
<path d="M17.501 9.5C20.301 9.5 22.501 11.7 22.501 14.5" stroke="#44AB57" stroke-width="2" stroke-miterlimit="10" stroke-linecap="round" stroke-linejoin="round"/>
<path d="M17.501 5.5C22.501 5.5 26.501 9.5 26.501 14.5" stroke="#44AB57" stroke-width="2" stroke-miterlimit="10" stroke-linecap="round" stroke-linejoin="round"/>
</svg>
