<svg width="65" height="64" viewBox="0 0 65 64" fill="none" xmlns="http://www.w3.org/2000/svg">
<path d="M36.666 45H28.666V51H36.666V45Z" fill="#2CF050"/>
<path d="M55.666 40H9.66602V15C9.66602 13.895 10.561 13 11.666 13H53.666C54.771 13 55.666 13.895 55.666 15V40Z" fill="#D9E5DB"/>
<path d="M55.666 40H9.66602V44C9.66602 45.105 10.561 46 11.666 46H53.666C54.771 46 55.666 45.105 55.666 44V40Z" fill="#44AB57"/>
<path d="M40.666 50H24.666C23.561 50 22.666 50.895 22.666 52V53H42.666V52C42.666 50.895 41.771 50 40.666 50Z" fill="#44AB57"/>
<path d="M38.369 30.932H28.128C27.742 30.932 27.413 30.65 27.354 30.268L26.002 22.313H39.582C40.062 22.313 40.43 22.741 40.356 23.216L39.143 30.267C39.085 30.65 38.756 30.932 38.369 30.932Z" fill="#44AB57"/>
<path d="M27.9363 27.4059L26.6433 19.9629H24.2383" stroke="#44AB57" stroke-width="1.9258" stroke-miterlimit="10" stroke-linecap="square"/>
<path d="M29.3926 36.0001C30.2912 36.0001 31.0196 35.2717 31.0196 34.3731C31.0196 33.4745 30.2912 32.7461 29.3926 32.7461C28.4941 32.7461 27.7656 33.4745 27.7656 34.3731C27.7656 35.2717 28.4941 36.0001 29.3926 36.0001Z" fill="#44AB57"/>
<path d="M37.1563 36.0001C38.0549 36.0001 38.7833 35.2717 38.7833 34.3731C38.7833 33.4745 38.0549 32.7461 37.1563 32.7461C36.2577 32.7461 35.5293 33.4745 35.5293 34.3731C35.5293 35.2717 36.2577 36.0001 37.1563 36.0001Z" fill="#44AB57"/>
</svg>
