<svg width="48" height="48" viewBox="0 0 48 48" fill="none" xmlns="http://www.w3.org/2000/svg">
<path d="M42 24H6V41.25H42V24Z" fill="#2CF050"/>
<path d="M33 15H15V41.25H33V15Z" fill="#D9E5DB"/>
<path d="M23.9999 11.7746L22.4249 12.5996C22.1999 12.6746 21.9749 12.5246 21.9749 12.2996L22.2749 10.5746L20.9999 9.37461C20.8499 9.22461 20.9249 8.92461 21.1499 8.84961L22.8749 8.62461L23.6249 7.04961C23.6999 6.82461 23.9999 6.82461 24.1499 7.04961L24.8999 8.62461L26.6249 8.84961C26.8499 8.84961 26.9249 9.14961 26.7749 9.37461L25.4999 10.5746L25.7999 12.2996C25.8749 12.5246 25.5749 12.6746 25.3499 12.5996L23.9999 11.7746Z" fill="#4E7355"/>
<path d="M30.3747 12.675L29.0997 13.35C28.9497 13.425 28.7247 13.275 28.7997 13.125L29.0247 11.775L28.0497 10.8C27.8997 10.65 27.9747 10.425 28.1997 10.425L29.6247 10.2L30.2247 8.925C30.2997 8.775 30.5247 8.775 30.5997 8.925L31.1997 10.2L32.6247 10.425C32.8497 10.425 32.9247 10.65 32.7747 10.8L31.7997 11.775L32.0247 13.125C32.0247 13.35 31.8747 13.425 31.7247 13.35L30.3747 12.675Z" fill="#4E7355"/>
<path d="M17.6247 12.675L16.3497 13.35C16.1997 13.425 15.9747 13.275 16.0497 13.125L16.2747 11.775L15.2997 10.8C15.1497 10.65 15.2247 10.425 15.4497 10.425L16.8747 10.2L17.4747 8.925C17.5497 8.775 17.7747 8.775 17.8497 8.925L18.4497 10.2L19.8747 10.425C20.0997 10.425 20.1747 10.65 20.0247 10.8L19.0497 11.775L19.2747 13.125C19.2747 13.35 19.1247 13.425 18.9747 13.35L17.6247 12.675Z" fill="#4E7355"/>
<path d="M24 33C22.35 33 21 34.35 21 36V41.25H27V36C27 34.35 25.65 33 24 33Z" fill="white"/>
<path d="M25.5 18H22.5V22.5H25.5V18Z" fill="white"/>
<path d="M30.75 18H27.75V22.5H30.75V18Z" fill="white"/>
<path d="M20.25 18H17.25V22.5H20.25V18Z" fill="white"/>
<path d="M30.75 24.75H27.75V29.25H30.75V24.75Z" fill="white"/>
<path d="M39 27H36V31.5H39V27Z" fill="white"/>
<path d="M39 33.75H36V38.25H39V33.75Z" fill="white"/>
<path d="M12 27H9V31.5H12V27Z" fill="white"/>
<path d="M12 33.75H9V38.25H12V33.75Z" fill="white"/>
<path d="M20.25 24.75H17.25V29.25H20.25V24.75Z" fill="white"/>
<path d="M25.5 24.75H22.5V29.25H25.5V24.75Z" fill="white"/>
</svg>
