<svg width="110" height="110" viewBox="0 0 110 110" fill="none" xmlns="http://www.w3.org/2000/svg">
<mask id="mask0_309_3377" style="mask-type:alpha" maskUnits="userSpaceOnUse" x="0" y="0" width="110" height="110">
<rect width="110" height="110" rx="10" fill="#D9D9D9"/>
</mask>
<g mask="url(#mask0_309_3377)">
<path d="M71.3408 78.0322C72.1602 78.0324 72.8203 78.6923 72.8203 79.5117V104.021C72.8201 104.84 72.1601 105.5 71.3408 105.5H38.6602C37.8408 105.5 37.1808 104.84 37.1807 104.021V79.5117L37.1885 79.3604C37.2639 78.6125 37.8918 78.0322 38.6602 78.0322H71.3408ZM40.1396 102.541H69.8613V80.9912H40.1396V102.541Z" fill="#2CF050" stroke="#2CF050"/>
<path d="M54.9033 4.50195C63.8876 4.48423 72.3579 7.88812 78.8174 14.1719L79.4336 14.7861C85.7108 21.2018 89.1641 29.6499 89.1641 38.6602C89.164 47.4241 85.8467 55.7534 79.8252 62.1162L79.8262 62.1172C75.3069 66.8961 72.8271 73.0378 72.8271 79.4121V79.5117C72.8271 80.3312 72.1672 80.9912 71.3477 80.9912H38.6602C37.8407 80.9911 37.1807 80.3312 37.1807 79.5117C37.1806 73.2834 34.8148 67.291 30.4971 62.4717L30.0732 62.0088C23.5295 55.0296 20.2788 45.9139 20.917 36.332L20.9805 35.5205C22.5256 18.5318 36.8881 4.98612 54.0322 4.51465H54.0332L54.9033 4.50195ZM54.1104 7.46582C38.4579 7.90215 25.3373 20.2742 23.9248 35.7793L23.8662 36.5195C23.282 45.2759 26.251 53.605 32.2256 59.9736L32.6768 60.4658C37.162 65.4623 39.7698 71.6303 40.0967 78.0322H69.8975C70.2342 71.3912 72.9613 65.0634 77.6689 60.0859H77.6699L78.1777 59.5361C83.3581 53.7981 86.1972 46.4183 86.1973 38.6602C86.1973 30.4243 83.0483 22.7129 77.3105 16.8516L76.7471 16.29C70.8426 10.5493 63.1319 7.42513 54.9072 7.45312L54.1104 7.46582Z" fill="#2CF050" stroke="#2CF050"/>
<path d="M35.0635 31.2109C46.8715 31.2109 56.4822 40.8146 56.4824 52.6299C56.4824 53.4494 55.8224 54.1094 55.0029 54.1094C43.1949 54.1091 33.584 44.4985 33.584 32.6904C33.584 31.8709 34.244 31.2109 35.0635 31.2109ZM36.6104 34.2373C37.3556 43.1822 44.5112 50.3375 53.4561 51.083C52.7106 42.1382 45.5552 34.9826 36.6104 34.2373Z" fill="#2CF050" stroke="#2CF050"/>
<path d="M74.9434 31.2109C75.7629 31.2109 76.4229 31.8709 76.4229 32.6904C76.4228 44.4987 66.8122 54.1094 55.0039 54.1094C54.1844 54.1094 53.5244 53.4494 53.5244 52.6299C53.5247 40.822 63.1355 31.2112 74.9434 31.2109ZM73.3965 34.2373C64.4518 34.9828 57.2962 42.1383 56.5508 51.083C65.4958 50.3377 72.6512 43.1823 73.3965 34.2373Z" fill="#2CF050" stroke="#2CF050"/>
<path d="M56.4834 52.1299V80.0117H53.5244V52.1299H56.4834Z" fill="#2CF050" stroke="#2CF050"/>
</g>
</svg>
