<svg width="110" height="110" viewBox="0 0 110 110" fill="none" xmlns="http://www.w3.org/2000/svg">
<mask id="mask0_309_3492" style="mask-type:alpha" maskUnits="userSpaceOnUse" x="0" y="0" width="110" height="110">
<rect width="110" height="110" rx="10" fill="#D9D9D9"/>
</mask>
<g mask="url(#mask0_309_3492)">
<path d="M56.5 44V43.5H56H54H53.5V44V104V104.5H54H56H56.5V104V44Z" fill="#2CF050" stroke="#2CF050"/>
<path d="M54.181 105.5H55C55.7512 105.5 56.36 104.891 56.36 104.14V103.321C56.36 75.9274 34.0722 53.6396 6.67895 53.6396H5.85995C5.10879 53.6396 4.5 54.2484 4.5 54.9996V55.8186C4.5 83.2119 26.7877 105.5 54.181 105.5ZM7.22303 56.3627C32.6829 56.6556 53.344 77.3167 53.6369 102.777C28.1771 102.484 7.51597 81.8226 7.22303 56.3627Z" fill="#2CF050" stroke="#2CF050"/>
<path d="M6.81775 54.0338L6.4642 53.6803L6.11065 54.0338L4.89449 55.25L4.54094 55.6035L4.89449 55.9571L54.0329 105.095L54.3865 105.449L54.74 105.095L55.9562 103.879L56.3097 103.526L55.9562 103.172L6.81775 54.0338Z" fill="#2CF050" stroke="#2CF050"/>
<path d="M54.9996 105.5H55.8186C83.2119 105.5 105.5 83.2119 105.5 55.8186V54.9996C105.5 54.2484 104.891 53.6396 104.14 53.6396H103.321C75.9274 53.6396 53.6396 75.9274 53.6396 103.321V104.14C53.6396 104.891 54.2484 105.5 54.9996 105.5ZM102.777 56.3627C102.484 81.8226 81.8226 102.484 56.3627 102.777C56.6556 77.3167 77.3167 56.6556 102.777 56.3627Z" fill="#2CF050" stroke="#2CF050"/>
<path d="M103.886 54.0422L103.532 53.6886L103.178 54.0422L54.04 103.181L53.6864 103.534L54.04 103.888L55.2562 105.104L55.6097 105.457L55.9633 105.104L105.102 55.9655L105.455 55.6119L105.102 55.2584L103.886 54.0422Z" fill="#2CF050" stroke="#2CF050"/>
<path d="M54.181 56.36H55C55.7512 56.36 56.36 55.7512 56.36 55V54.181C56.36 26.7877 34.0722 4.5 6.67895 4.5H5.85995C5.10879 4.5 4.5 5.10879 4.5 5.85995V6.67895C4.5 34.0722 26.7877 56.36 54.181 56.36ZM7.22303 7.22304C32.6829 7.51597 53.344 28.1771 53.6369 53.6369C28.1771 53.344 7.51597 32.6829 7.22303 7.22304Z" fill="#2CF050" stroke="#2CF050"/>
<path d="M6.82068 4.89611L6.46713 4.54256L6.11358 4.89611L4.89742 6.11227L4.54387 6.46582L4.89742 6.81937L54.0358 55.9578L54.3894 56.3113L54.7429 55.9578L55.9591 54.7416L56.3127 54.3881L55.9591 54.0345L6.82068 4.89611Z" fill="#2CF050" stroke="#2CF050"/>
<path d="M54.9996 56.36H55.8186C83.2119 56.36 105.5 34.0722 105.5 6.67895V5.85995C105.5 5.10879 104.891 4.5 104.14 4.5H103.321C75.9274 4.5 53.6396 26.7877 53.6396 54.181V55C53.6396 55.7512 54.2484 56.36 54.9996 56.36ZM102.777 7.22303C102.484 32.6829 81.8226 53.344 56.3627 53.6369C56.6556 28.1771 77.3167 7.51597 102.777 7.22303Z" fill="#2CF050" stroke="#2CF050"/>
<path d="M103.893 4.90519L103.54 4.55151L103.186 4.90494L54.0304 54.0262L53.6767 54.3796L54.0301 54.7333L55.2458 55.9499L55.5993 56.3036L55.9529 55.9501L105.109 6.82887L105.462 6.47544L105.109 6.12176L103.893 4.90519Z" fill="#2CF050" stroke="#2CF050"/>
</g>
</svg>
