<svg width="48" height="48" viewBox="0 0 48 48" fill="none" xmlns="http://www.w3.org/2000/svg">
<mask id="mask0_459_1790" style="mask-type:alpha" maskUnits="userSpaceOnUse" x="0" y="0" width="48" height="48">
<rect width="48" height="48" rx="4.36364" fill="#D9D9D9"/>
</mask>
<g mask="url(#mask0_459_1790)">
<path d="M24.6543 18.9814V45.5996H23.3457V18.9814H24.6543Z" fill="#44AB57" stroke="#44AB57" stroke-width="0.436364"/>
<path d="M2.91406 23.4062C14.8675 23.4062 24.5928 33.1315 24.5928 45.085V45.4424C24.5927 45.77 24.3276 46.0351 24 46.0352H23.6426C11.6892 46.0352 1.96387 36.3099 1.96387 24.3564V23.999C1.964 23.6714 2.22906 23.4064 2.55664 23.4062H2.91406ZM3.15234 24.5947C3.28051 35.7036 12.2946 44.717 23.4033 44.8457C23.2746 33.737 14.2612 24.7229 3.15234 24.5947Z" fill="#44AB57" stroke="#44AB57" stroke-width="0.436364"/>
<path d="M2.82106 23.4247L24.5715 45.1751L23.7325 46.0141L1.98206 24.2637L2.82106 23.4247Z" fill="#44AB57" stroke="#44AB57" stroke-width="0.436364"/>
<path d="M45.4424 23.4062L45.5615 23.418C45.832 23.4732 46.035 23.7122 46.0352 23.999V24.3564C46.0352 36.3099 36.3099 46.0352 24.3564 46.0352H23.999C23.6714 46.035 23.4063 45.77 23.4062 45.4424V45.085L23.4131 44.5264C23.7104 32.83 33.3182 23.4062 45.085 23.4062H45.4424ZM44.8457 24.5947C33.7373 24.7235 24.7235 33.7373 24.5947 44.8457C35.704 44.7175 44.7175 35.704 44.8457 24.5947Z" fill="#44AB57" stroke="#44AB57" stroke-width="0.436364"/>
<path d="M45.1778 23.4283L46.0168 24.2673L24.2664 46.0177L23.4274 45.1787L45.1778 23.4283Z" fill="#44AB57" stroke="#44AB57" stroke-width="0.436364"/>
<path d="M2.91406 1.96387C14.8675 1.96387 24.5928 11.6892 24.5928 23.6426V24C24.5927 24.3276 24.3276 24.5927 24 24.5928H23.6426C11.6892 24.5928 1.96387 14.8675 1.96387 2.91406V2.55664C1.964 2.22906 2.22906 1.964 2.55664 1.96387H2.91406ZM3.15234 3.15234C3.28051 14.2612 12.2946 23.2746 23.4033 23.4033C23.2746 12.2946 14.2612 3.28051 3.15234 3.15234Z" fill="#44AB57" stroke="#44AB57" stroke-width="0.436364"/>
<path d="M2.82204 1.98229L24.5725 23.7327L23.7335 24.5717L1.98304 2.82129L2.82204 1.98229Z" fill="#44AB57" stroke="#44AB57" stroke-width="0.436364"/>
<path d="M45.4424 1.96387L45.5615 1.97559C45.832 2.0308 46.035 2.26985 46.0352 2.55664V2.91406C46.0352 14.8675 36.3099 24.5928 24.3564 24.5928H23.999C23.6714 24.5926 23.4063 24.3276 23.4062 24V23.6426L23.4131 23.084C23.7104 11.3876 33.3182 1.96387 45.085 1.96387H45.4424ZM44.8457 3.15234C33.7373 3.28107 24.7235 12.2949 24.5947 23.4033C35.704 23.2751 44.7175 14.2616 44.8457 3.15234Z" fill="#44AB57" stroke="#44AB57" stroke-width="0.436364"/>
<path d="M45.1805 1.98654L46.0192 2.82583L24.2612 24.5687L23.4225 23.7294L45.1805 1.98654Z" fill="#44AB57" stroke="#44AB57" stroke-width="0.436364"/>
</g>
</svg>
