<svg width="110" height="110" viewBox="0 0 110 110" fill="none" xmlns="http://www.w3.org/2000/svg">
<mask id="mask0_309_3366" style="mask-type:alpha" maskUnits="userSpaceOnUse" x="0" y="0" width="110" height="110">
<rect width="110" height="110" rx="10" fill="#D9D9D9"/>
</mask>
<g mask="url(#mask0_309_3366)">
<path d="M4.5 54.9996C4.5 82.8433 27.1563 105.5 55 105.5C55.7512 105.5 56.36 104.891 56.36 104.14V54.9996C56.36 54.2484 55.7512 53.6396 55 53.6396H5.85995C5.10879 53.6396 4.5 54.2484 4.5 54.9996ZM53.6401 56.3595V102.76C28.3754 102.047 7.95254 81.6242 7.23969 56.3595H53.6401Z" fill="#2CF050" stroke="#2CF050"/>
<path d="M5.85995 56.36H55C55.7512 56.36 56.36 55.7512 56.36 55C56.36 27.1563 33.7037 4.5 5.85995 4.5C5.10879 4.5 4.5 5.10879 4.5 5.85995V55C4.5 55.7512 5.10879 56.36 5.85995 56.36ZM7.2199 7.23969C32.4845 7.95254 52.9074 28.3754 53.6203 53.6401H7.2199V7.23969Z" fill="#2CF050" stroke="#2CF050"/>
<path d="M53.6396 104.14C53.6396 104.891 54.2484 105.5 54.9996 105.5C82.8433 105.5 105.5 82.8433 105.5 54.9996C105.5 54.2484 104.891 53.6396 104.14 53.6396H54.9996C54.2484 53.6396 53.6396 54.2484 53.6396 54.9996V104.14ZM102.76 56.3595C102.047 81.6242 81.6242 102.047 56.3595 102.76V56.3595H102.76Z" fill="#2CF050" stroke="#2CF050"/>
<path d="M55.0406 56.401H104.181C104.932 56.401 105.541 55.7922 105.541 55.041V5.90097C105.541 5.14981 104.932 4.54102 104.181 4.54102C76.337 4.54102 53.6807 27.1973 53.6807 55.041C53.6807 55.7922 54.2895 56.401 55.0406 56.401ZM102.821 7.28071V53.6811H56.4204C57.1332 28.4164 77.5561 7.99356 102.821 7.28071Z" fill="#2CF050" stroke="#2CF050"/>
</g>
</svg>
