<svg width="48" height="48" viewBox="0 0 48 48" fill="none" xmlns="http://www.w3.org/2000/svg">
<path d="M44.25 23.25C43.8398 12.417 34.9335 3.75977 24 3.75977V23.25H44.25Z" fill="#2CF050"/>
<path d="M24 23.25V6.75C14.4727 6.75 6.75 14.4727 6.75 24C6.75 33.5273 14.4727 41.25 24 41.25C28.3988 41.25 32.4113 39.6007 35.4578 36.8903L24 23.25Z" fill="#D9E5DB"/>
<path d="M42.75 24C42.75 23.7488 42.741 23.499 42.7312 23.25H24L36.5235 37.9515C40.3448 34.5188 42.75 29.541 42.75 24Z" fill="#4E7355"/>
<path d="M24 29.25C27.3137 29.25 30 26.5637 30 23.25C30 19.9363 27.3137 17.25 24 17.25C20.6863 17.25 18 19.9363 18 23.25C18 26.5637 20.6863 29.25 24 29.25Z" fill="white"/>
</svg>
