<svg width="65" height="64" viewBox="0 0 65 64" fill="none" xmlns="http://www.w3.org/2000/svg">
<path d="M55.334 28H36.134C35.234 28 34.334 28.4 33.734 29L25.934 36.8C24.634 38.1 24.634 40.2 25.934 41.6L35.034 50.7C36.334 52 38.334 52 39.634 50.7L47.634 41.1H55.334V28Z" fill="#44AB57"/>
<path d="M44.834 42.9L30.834 29C30.234 28.4 29.334 28 28.434 28H9.33398V41H17.034L31.134 56.7C32.434 58 34.434 58 35.734 56.7L44.834 47.6C46.134 46.4 46.134 44.2 44.834 42.9Z" fill="#D9E5DB"/>
<path d="M25.5332 39.8999L23.5332 37.8999L32.5332 28.8999C33.1332 28.2999 34.0332 27.8999 34.9332 27.8999H46.3332V34.8999H36.4332L31.5332 39.7999C29.8332 41.5999 27.2332 41.5999 25.5332 39.8999Z" fill="#44AB57"/>
<path d="M23.0344 42.1001C22.0344 41.1001 20.4344 41.1001 19.4344 42.1001L18.8344 42.7001C17.5344 44.0001 17.5344 46.1001 18.8344 47.5001L20.0344 48.7001L23.0344 45.7001C24.0344 44.7001 24.0344 43.1001 23.0344 42.1001Z" fill="#44AB57"/>
<path d="M26.6332 45.7C25.6332 44.7 24.0332 44.7 23.0332 45.7L20.0332 48.7L23.6332 52.2999L26.6332 49.2999C27.6332 48.2999 27.6332 46.7 26.6332 45.7Z" fill="#44AB57"/>
<path d="M30.2348 49.3C29.2348 48.3 27.6348 48.3 26.6348 49.3L23.6348 52.3L27.2348 55.9001L30.2348 52.9001C31.2348 51.9001 31.2348 50.3 30.2348 49.3Z" fill="#44AB57"/>
<path d="M33.8344 52.8C32.8344 51.8 31.2344 51.8 30.2344 52.8L27.2344 55.8L28.4344 57C29.7344 58.3 31.8344 58.3 33.2344 57L33.8344 56.4001C34.7344 55.4001 34.7344 53.8 33.8344 52.8Z" fill="#44AB57"/>
<path d="M36.434 4.69995C36.834 7.89995 39.334 10.4 42.534 10.8C39.334 11.2 36.834 13.7 36.434 16.9C36.034 13.7 33.534 11.2 30.334 10.8C33.534 10.4 36.034 7.89995 36.434 4.69995Z" fill="#2CF050"/>
<path d="M28.7332 15.1001C29.0332 17.5001 31.0332 19.5001 33.4332 19.8001C31.0332 20.1001 29.0332 22.1001 28.7332 24.5001C28.4332 22.1001 26.4332 20.1001 24.0332 19.8001C26.5332 19.4001 28.4332 17.5001 28.7332 15.1001Z" fill="#2CF050"/>
</svg>
