<svg width="48" height="48" viewBox="0 0 48 48" fill="none" xmlns="http://www.w3.org/2000/svg">
<path d="M41.0996 22.125L14.3246 33.825C13.5746 34.2 12.6746 33.825 12.2996 33L6.14961 18.9C5.77461 18.15 6.14961 17.25 6.97461 16.875L33.6746 5.175C34.4246 4.8 35.3246 5.175 35.6996 6L41.8496 20.1C42.2246 20.85 41.8496 21.75 41.0996 22.125Z" fill="#2CF050"/>
<path d="M23.9996 26.3996C27.8104 26.3996 30.8996 23.3104 30.8996 19.4996C30.8996 15.6888 27.8104 12.5996 23.9996 12.5996C20.1888 12.5996 17.0996 15.6888 17.0996 19.4996C17.0996 23.3104 20.1888 26.3996 23.9996 26.3996Z" fill="#4E7355"/>
<path d="M33.8992 16.7252C34.7691 16.7252 35.4742 16.02 35.4742 15.1502C35.4742 14.2803 34.7691 13.5752 33.8992 13.5752C33.0294 13.5752 32.3242 14.2803 32.3242 15.1502C32.3242 16.02 33.0294 16.7252 33.8992 16.7252Z" fill="#4E7355"/>
<path d="M14.0994 25.4254C14.9693 25.4254 15.6744 24.7202 15.6744 23.8504C15.6744 22.9805 14.9693 22.2754 14.0994 22.2754C13.2296 22.2754 12.5244 22.9805 12.5244 23.8504C12.5244 24.7202 13.2296 25.4254 14.0994 25.4254Z" fill="#4E7355"/>
<path d="M41.25 39H31.5V42H41.25V39Z" fill="#D9E5DB"/>
<path d="M41.25 35.25H31.5V38.25H41.25V35.25Z" fill="#D9E5DB"/>
<path d="M30 39H20.25V42H30V39Z" fill="#D9E5DB"/>
<path d="M30 35.25H20.25V38.25H30V35.25Z" fill="#D9E5DB"/>
<path d="M41.25 31.5H31.5V34.5H41.25V31.5Z" fill="#D9E5DB"/>
<path d="M36.375 30.75C33.675 30.75 31.5 28.575 31.5 25.875C31.5 23.175 33.675 21 36.375 21C39.075 21 41.25 23.175 41.25 25.875C41.25 28.575 39.075 30.75 36.375 30.75Z" fill="#D9E5DB"/>
<path d="M15.4504 41.5496C15.1504 41.8496 14.7754 41.8496 14.4754 41.5496L8.62544 35.6996C6.97544 34.0496 7.05044 31.4246 8.70044 29.8496C10.3504 28.3496 12.9004 28.4996 14.5504 30.0746L14.9254 30.4496L15.3004 30.0746C16.8754 28.4996 19.5004 28.3496 21.1504 29.8496C22.8004 31.4246 22.8754 34.1246 21.2254 35.6996L15.4504 41.5496Z" fill="#4E7355"/>
</svg>
