<svg width="110" height="110" viewBox="0 0 110 110" fill="none" xmlns="http://www.w3.org/2000/svg">
<mask id="mask0_309_3454" style="mask-type:alpha" maskUnits="userSpaceOnUse" x="0" y="0" width="110" height="110">
<rect width="110" height="110" rx="10" fill="#D9D9D9"/>
</mask>
<g mask="url(#mask0_309_3454)">
<path d="M79.5127 4.5C93.8446 4.50018 105.5 16.1563 105.5 30.4883C105.5 44.653 94.1146 56.2022 80.0127 56.4697V56.4834H79.5127C65.1806 56.4834 53.5244 44.8272 53.5244 30.4951C53.5244 16.1632 65.1805 4.5 79.5127 4.5ZM79.5127 7.45898C66.8125 7.45898 56.4834 17.7881 56.4834 30.4883C56.4836 43.1883 66.8126 53.5166 79.5127 53.5166C92.2126 53.5164 102.541 43.1882 102.541 30.4883C102.541 17.7882 92.2127 7.45916 79.5127 7.45898Z" fill="#2CF050" stroke="#2CF050"/>
<path d="M79.5117 4.5C87.0874 4.5 93.2459 10.6578 93.2461 18.2334C93.2461 25.6419 87.3567 31.6933 80.0117 31.957V31.9746H79.5117C71.9362 31.9744 65.7785 25.8167 65.7783 18.2412C65.7783 10.6659 71.9357 4.50017 79.5117 4.5ZM79.5117 7.45898C73.5683 7.45916 68.7375 12.2967 68.7373 18.2334C68.7373 24.1703 73.5682 29.0086 79.5117 29.0088C85.4556 29.0088 90.2871 24.1773 90.2871 18.2334C90.2869 12.2898 85.4486 7.45898 79.5117 7.45898Z" fill="#2CF050" stroke="#2CF050"/>
<path d="M104.021 53.5244C104.841 53.5246 105.501 54.1845 105.501 55.0039V79.5127C105.501 93.8446 93.8446 105.5 79.5127 105.5C78.6932 105.5 78.0332 104.84 78.0332 104.021V79.5127L78.042 78.8428C78.3983 64.819 89.9133 53.5244 104.021 53.5244ZM102.542 56.5322C90.5335 57.2969 80.9922 67.3173 80.9922 79.5127V102.491C93.0004 101.726 102.542 91.7078 102.542 79.5127V56.5322Z" fill="#2CF050" stroke="#2CF050"/>
<path d="M55.0039 53.5244C69.336 53.5244 80.9922 65.1806 80.9922 79.5127V104.021C80.9922 104.84 80.332 105.5 79.5127 105.5C65.1808 105.5 53.5246 93.8446 53.5244 79.5127V55.0039C53.5244 54.1844 54.1844 53.5244 55.0039 53.5244ZM56.4834 79.5127C56.4836 91.7148 66.0247 101.727 78.0332 102.491V79.5127C78.0332 67.3105 68.4919 57.2969 56.4834 56.5322V79.5127Z" fill="#2CF050" stroke="#2CF050"/>
<path d="M80.9922 54.5039V80.0127H78.0332V54.5039H80.9922Z" fill="#2CF050" stroke="#2CF050"/>
<path d="M30.4883 4.5C44.8202 4.50018 56.4756 16.1563 56.4756 30.4883C56.4754 44.653 45.0902 56.2022 30.9883 56.4697V56.4834H30.4883C16.1562 56.4834 4.50018 44.82 4.5 30.4883C4.5 16.1562 16.1562 4.5 30.4883 4.5ZM30.4883 7.45898C17.7952 7.45898 7.45898 17.7952 7.45898 30.4883C7.45916 43.1813 17.7883 53.5166 30.4883 53.5166C43.1882 53.5164 53.5164 43.1882 53.5166 30.4883C53.5166 17.7882 43.1883 7.45916 30.4883 7.45898Z" fill="#2CF050" stroke="#2CF050"/>
<path d="M30.4873 4.5C38.0557 4.5 44.2215 10.6576 44.2217 18.2334C44.2217 25.6419 38.3323 31.6933 30.9873 31.957V31.9746H30.4873C22.9118 31.9744 16.7541 25.8167 16.7539 18.2412C16.7539 10.6657 22.9186 4.50017 30.4873 4.5ZM30.4873 7.45898C24.5438 7.45916 19.7131 12.2967 19.7129 18.2334C19.7129 24.1701 24.5507 29.0086 30.4873 29.0088C36.4243 29.0088 41.2627 24.1771 41.2627 18.2334C41.2625 12.2896 36.4311 7.45898 30.4873 7.45898Z" fill="#2CF050" stroke="#2CF050"/>
<path d="M54.9971 53.5244C55.8164 53.5246 56.4766 54.1845 56.4766 55.0039V79.5127C56.4764 93.8446 44.8202 105.5 30.4883 105.5C29.6688 105.5 29.0088 104.84 29.0088 104.021V79.5127L29.0176 78.8428C29.3739 64.819 40.8889 53.5244 54.9971 53.5244ZM53.5244 56.5322C41.516 57.2971 31.9746 67.3174 31.9746 79.5127V102.491C43.983 101.726 53.5242 91.7079 53.5244 79.5127V56.5322Z" fill="#2CF050" stroke="#2CF050"/>
<path d="M5.97949 53.5244C20.3115 53.5244 31.9678 65.1806 31.9678 79.5127V104.021C31.9678 104.84 31.3076 105.5 30.4883 105.5C16.1563 105.5 4.50018 93.8446 4.5 79.5127V55.0039C4.5 54.1844 5.15999 53.5244 5.97949 53.5244ZM7.45898 79.5127C7.45915 91.7148 17.0003 101.727 29.0088 102.491V79.5127C29.0088 67.3105 19.4674 57.2969 7.45898 56.5322V79.5127Z" fill="#2CF050" stroke="#2CF050"/>
<path d="M31.9678 54.5039V80.0127H29.0088V54.5039H31.9678Z" fill="#2CF050" stroke="#2CF050"/>
</g>
</svg>
