<svg width="110" height="110" viewBox="0 0 110 110" fill="none" xmlns="http://www.w3.org/2000/svg">
<mask id="mask0_309_3492" style="mask-type:alpha" maskUnits="userSpaceOnUse" x="0" y="0" width="110" height="110">
<rect width="110" height="110" rx="10" fill="#D9D9D9"/>
</mask>
<g mask="url(#mask0_309_3492)">
<path d="M56.5 43.5V104.5H53.5V43.5H56.5Z" fill="#2CF050" stroke="#2CF050"/>
<path d="M6.67871 53.6396L7.32031 53.6436C34.4191 53.9882 56.3602 76.1413 56.3604 103.32V104.14C56.3604 104.891 55.7512 105.5 55 105.5H54.1807C26.7876 105.5 4.5 83.2115 4.5 55.8184V55C4.5 54.2488 5.10919 53.6396 5.86035 53.6396H6.67871ZM7.22363 56.3633C7.51688 81.8225 28.1766 102.482 53.6357 102.775C53.3422 77.3163 32.6828 56.6565 7.22363 56.3633Z" fill="#2CF050" stroke="#2CF050"/>
<path d="M6.46408 53.6804L56.3096 103.526L54.3864 105.449L4.54094 55.6035L6.46408 53.6804Z" fill="#2CF050" stroke="#2CF050"/>
<path d="M104.14 53.6396C104.891 53.6396 105.5 54.2488 105.5 55V55.8184C105.5 83.2116 83.2116 105.5 55.8184 105.5H55C54.2488 105.5 53.6396 104.891 53.6396 104.14V103.32C53.6398 75.9273 75.9273 53.6398 103.32 53.6396H104.14ZM102.775 56.3633C77.3165 56.6568 56.6568 77.3165 56.3633 102.775C81.8227 102.482 102.482 81.8227 102.775 56.3633Z" fill="#2CF050" stroke="#2CF050"/>
<path d="M103.532 53.6887L105.455 55.6118L55.6096 105.457L53.6864 103.534L103.532 53.6887Z" fill="#2CF050" stroke="#2CF050"/>
<path d="M6.67871 4.5L7.32031 4.50391C34.4191 4.84853 56.3602 27.0017 56.3604 54.1807V55C56.3604 55.7512 55.7512 56.3604 55 56.3604H54.1807C26.7876 56.3602 4.5 34.0719 4.5 6.67871V5.86035L4.50684 5.7207C4.57655 5.03496 5.15619 4.5 5.86035 4.5H6.67871ZM7.22363 7.22363C7.51688 32.6828 28.1766 53.3422 53.6357 53.6357C53.3422 28.1766 32.6828 7.51688 7.22363 7.22363Z" fill="#2CF050" stroke="#2CF050"/>
<path d="M6.46701 4.54268L56.3125 54.3882L54.3894 56.3113L4.54387 6.46582L6.46701 4.54268Z" fill="#2CF050" stroke="#2CF050"/>
<path d="M104.14 4.5C104.891 4.5 105.5 5.10919 105.5 5.86035V6.67871C105.5 34.072 83.2116 56.3604 55.8184 56.3604H55C54.2488 56.3604 53.6396 55.7512 53.6396 55V54.1807C53.6398 26.7877 75.9273 4.50019 103.32 4.5H104.14ZM102.775 7.22363C77.3165 7.51719 56.6568 28.1768 56.3633 53.6357C81.8227 53.3425 102.482 32.683 102.775 7.22363Z" fill="#2CF050" stroke="#2CF050"/>
<path d="M103.54 4.55154L105.462 6.47534L55.5991 56.3034L53.6767 54.3796L103.54 4.55154Z" fill="#2CF050" stroke="#2CF050"/>
</g>
</svg>
