<svg width="48" height="48" viewBox="0 0 48 48" fill="none" xmlns="http://www.w3.org/2000/svg">
<path d="M24 29.8496V37.4996" stroke="#4E7355" stroke-width="8" stroke-miterlimit="10" stroke-linecap="round"/>
<path d="M24.0004 29.8504C28.4739 29.8504 32.1004 26.2239 32.1004 21.7504C32.1004 17.2769 28.4739 13.6504 24.0004 13.6504C19.5269 13.6504 15.9004 17.2769 15.9004 21.7504C15.9004 26.2239 19.5269 29.8504 24.0004 29.8504Z" fill="white"/>
<path d="M24.0002 22.9496C25.6156 22.9496 26.9252 21.64 26.9252 20.0246C26.9252 18.4092 25.6156 17.0996 24.0002 17.0996C22.3848 17.0996 21.0752 18.4092 21.0752 20.0246C21.0752 21.64 22.3848 22.9496 24.0002 22.9496Z" fill="#D9E5DB"/>
<path d="M36 15C38.0711 15 39.75 13.3211 39.75 11.25C39.75 9.17893 38.0711 7.5 36 7.5C33.9289 7.5 32.25 9.17893 32.25 11.25C32.25 13.3211 33.9289 15 36 15Z" fill="#D9E5DB"/>
<path d="M42.75 21.6004C42.75 20.7754 42.525 20.1004 42.075 19.4254C40.95 17.7754 38.7 17.0254 36 17.0254C33.375 17.0254 31.05 17.7004 29.925 19.4254C29.475 20.1004 29.25 20.7754 29.25 21.6004C29.25 22.7254 29.25 26.2504 29.25 26.2504H42.675C42.75 26.2504 42.75 22.8004 42.75 21.6004Z" fill="#D9E5DB"/>
<path d="M12 15C14.0711 15 15.75 13.3211 15.75 11.25C15.75 9.17893 14.0711 7.5 12 7.5C9.92893 7.5 8.25 9.17893 8.25 11.25C8.25 13.3211 9.92893 15 12 15Z" fill="#D9E5DB"/>
<path d="M18.75 21.6004C18.75 20.7754 18.525 20.1004 18.075 19.4254C16.95 17.7754 14.7 17.0254 12 17.0254C9.375 17.0254 7.05 17.7004 5.925 19.4254C5.475 20.1004 5.25 20.7754 5.25 21.6004C5.25 22.7254 5.25 26.2504 5.25 26.2504H18.675C18.75 26.2504 18.75 22.8004 18.75 21.6004Z" fill="#D9E5DB"/>
<path d="M24 30.75C28.9706 30.75 33 26.7206 33 21.75C33 16.7794 28.9706 12.75 24 12.75C19.0294 12.75 15 16.7794 15 21.75C15 26.7206 19.0294 30.75 24 30.75Z" fill="white"/>
<path d="M24 24C26.0711 24 27.75 22.3211 27.75 20.25C27.75 18.1789 26.0711 16.5 24 16.5C21.9289 16.5 20.25 18.1789 20.25 20.25C20.25 22.3211 21.9289 24 24 24Z" fill="#D9E5DB"/>
<path d="M24.0004 26.0254C21.8254 26.0254 19.8004 26.4754 18.5254 27.6754C19.9504 29.0254 21.9004 29.8504 24.0004 29.8504C26.1004 29.8504 28.0504 29.0254 29.4754 27.7504C28.2004 26.5504 26.2504 26.0254 24.0004 26.0254Z" fill="#D9E5DB"/>
<path d="M24 30.8996C28.9706 30.8996 33 26.803 33 21.7496C33 16.6962 28.9706 12.5996 24 12.5996C19.0294 12.5996 15 16.6962 15 21.7496C15 26.803 19.0294 30.8996 24 30.8996Z" stroke="#2CF050" stroke-width="4" stroke-miterlimit="10"/>
</svg>
