<svg width="110" height="110" viewBox="0 0 110 110" fill="none" xmlns="http://www.w3.org/2000/svg">
<mask id="mask0_309_3508" style="mask-type:alpha" maskUnits="userSpaceOnUse" x="0" y="0" width="110" height="110">
<rect width="110" height="110" rx="10" fill="#D9D9D9"/>
</mask>
<g mask="url(#mask0_309_3508)">
<path d="M56 104.78H56.5V104.28C56.5 76.4366 33.8437 53.7803 6 53.7803H5.5V54.2803V56.0002V56.5002H6C32.3414 56.5002 53.7801 77.9308 53.7801 104.28V104.78H54.2801H56Z" fill="#2CF050" stroke="#2CF050"/>
<path d="M49.8575 104.78H50.3575V104.28C50.3575 79.8191 30.4612 59.9229 6 59.9229H5.5V60.4229V62.1428V62.6428H6C28.9589 62.6428 47.6376 81.3214 47.6376 104.28V104.78H48.1376H49.8575Z" fill="#2CF050" stroke="#2CF050"/>
<path d="M56.0002 104.78H56.5002V104.28C56.5002 77.9308 77.9388 56.5002 104.28 56.5002H104.78V56.0002V54.2803V53.7803H104.28C76.4366 53.7803 53.7803 76.4366 53.7803 104.28V104.78H54.2803H56.0002Z" fill="#2CF050" stroke="#2CF050"/>
<path d="M62.1428 104.78H62.6428V104.28C62.6428 81.3214 81.3214 62.6428 104.28 62.6428H104.78V62.1428V60.4229V59.9229H104.28C79.8191 59.9229 59.9229 79.8191 59.9229 104.28V104.78H60.4229H62.1428Z" fill="#2CF050" stroke="#2CF050"/>
<path d="M5.5 56V56.5H6C33.8437 56.5 56.5 33.8437 56.5 6V5.5H56H54.2801H53.7801V6C53.7801 32.3414 32.3414 53.7801 6 53.7801H5.5V54.2801V56Z" fill="#2CF050" stroke="#2CF050"/>
<path d="M5.5 49.8575V50.3575H6C30.4612 50.3575 50.3575 30.4612 50.3575 6V5.5H49.8575H48.1376H47.6376V6C47.6376 28.9589 28.9589 47.6376 6 47.6376H5.5V48.1376V49.8575Z" fill="#2CF050" stroke="#2CF050"/>
<path d="M104.28 56.5H104.78V56V54.2801V53.7801H104.28C77.9389 53.7801 56.5002 32.3414 56.5002 6V5.5H56.0002H54.2803H53.7803V6C53.7803 33.8437 76.4366 56.5 104.28 56.5Z" fill="#2CF050" stroke="#2CF050"/>
<path d="M104.28 50.3575H104.78V49.8575V48.1376V47.6376H104.28C81.3214 47.6376 62.6428 28.9589 62.6428 6V5.5H62.1428H60.4229H59.9229V6C59.9229 30.4612 79.8191 50.3575 104.28 50.3575Z" fill="#2CF050" stroke="#2CF050"/>
</g>
</svg>
