<svg width="64" height="64" viewBox="0 0 64 64" fill="none" xmlns="http://www.w3.org/2000/svg">
<path d="M51 37C53.7614 37 56 34.7614 56 32C56 29.2386 53.7614 27 51 27C48.2386 27 46 29.2386 46 32C46 34.7614 48.2386 37 51 37Z" fill="#2CF050"/>
<path d="M23.792 57H19.812C19.339 57 18.931 56.669 18.833 56.206L15 38L25.5 40.5L24.092 43.879C23.38 45.588 23.185 47.469 23.531 49.289L24.774 55.813C24.891 56.429 24.419 57 23.792 57Z" fill="#2CF050"/>
<path d="M15 39H10C8.895 39 8 38.105 8 37V27C8 25.895 8.895 25 10 25H15V39Z" fill="#44AB57"/>
<path d="M45 48L15 39V25L45 16V48Z" fill="#D9E5DB"/>
<path d="M46 52H50C50.552 52 51 51.552 51 51V13C51 12.448 50.552 12 50 12H46C45.448 12 45 12.448 45 13V51C45 51.552 45.448 52 46 52Z" fill="#44AB57"/>
</svg>
