<svg width="16" height="17" viewBox="0 0 16 17" fill="none" xmlns="http://www.w3.org/2000/svg">
<g clip-path="url(#clip0_309_2938)">
<path d="M10.4004 9.7002C12.6095 9.7002 14.4004 7.90933 14.4004 5.7002C14.4004 3.49106 12.6095 1.7002 10.4004 1.7002C8.19125 1.7002 6.40039 3.49106 6.40039 5.7002C6.40039 7.90933 8.19125 9.7002 10.4004 9.7002Z" fill="white"/>
<path d="M4.7998 16.1C4.7998 12.98 7.2798 10.5 10.3998 10.5C13.5198 10.5 15.9998 12.98 15.9998 16.1" fill="white"/>
<path d="M4.79961 5.70039C4.79961 6.26039 4.87961 6.82039 5.03961 7.30039C4.95961 7.30039 4.87961 7.30039 4.79961 7.30039C3.03961 7.30039 1.59961 5.86039 1.59961 4.10039C1.59961 2.34039 3.03961 0.900391 4.79961 0.900391C5.51961 0.900391 6.15961 1.14039 6.71961 1.54039C5.51961 2.50039 4.79961 4.02039 4.79961 5.70039Z" fill="white"/>
<path d="M6.72 9.94059C5.52 10.6606 4.56 11.7006 4 12.9006H0C0 10.2606 2.16 8.10059 4.8 8.10059C4.96 8.10059 5.2 8.10059 5.36 8.10059C5.68 8.82059 6.16 9.46059 6.72 9.94059Z" fill="white"/>
</g>
<defs>
<clipPath id="clip0_309_2938">
<rect width="16" height="16" fill="white" transform="translate(0 0.5)"/>
</clipPath>
</defs>
</svg>
