<svg width="110" height="110" viewBox="0 0 110 110" fill="none" xmlns="http://www.w3.org/2000/svg">
<mask id="mask0_309_3407" style="mask-type:alpha" maskUnits="userSpaceOnUse" x="0" y="0" width="110" height="110">
<rect width="110" height="110" rx="10" fill="#D9D9D9"/>
</mask>
<g mask="url(#mask0_309_3407)">
<path d="M12.5977 9.5C15.3005 9.501 17.9802 10.4917 20.5039 12.4268L20.9014 12.7314L20.5957 13.1279L19.5059 14.5449V15.3965L18.7012 14.7783C16.6713 13.2187 14.6184 12.4639 12.5947 12.4639C10.5712 12.4639 8.52149 13.2182 6.49902 14.7773L6.10156 15.084L5.79688 14.6855L4.60352 13.127L4.2998 12.7314L4.69531 12.4268C7.21595 10.4876 9.89462 9.49906 12.5977 9.5Z" fill="#2CF050" stroke="#2CF050"/>
<path d="M40.6143 9.50488C43.3174 9.50488 45.9961 10.4954 48.5166 12.4346L48.9131 12.7393L48.6074 13.1357L47.4141 14.6875L47.1094 15.083L46.7129 14.7783C44.6868 13.2225 42.6352 12.4688 40.6113 12.4688C38.5875 12.4688 36.5358 13.2225 34.5098 14.7783L34.1143 15.083L33.8096 14.6875L32.6152 13.1357L32.3105 12.7393L32.707 12.4346C35.231 10.4956 37.9111 9.5049 40.6143 9.50488Z" fill="#2CF050" stroke="#2CF050"/>
<path d="M33.4082 12.5254L34.6016 14.0762L34.9072 14.4736L34.5098 14.7783C31.9863 16.7132 29.3079 17.7061 26.6055 17.7061C23.9031 17.706 21.2246 16.7132 18.7012 14.7783L18.3037 14.4736L18.6094 14.0762L19.8037 12.5254L20.1084 12.1289L20.5039 12.4336C22.53 13.9895 24.5816 14.7431 26.6055 14.7432C28.6294 14.7432 30.6809 13.9895 32.707 12.4336L33.1035 12.1289L33.4082 12.5254Z" fill="#2CF050" stroke="#2CF050"/>
<path d="M61.4199 12.5254L62.6133 14.0762L62.9189 14.4736L62.5215 14.7783C59.998 16.7132 57.3196 17.7061 54.6172 17.7061C51.9148 17.706 49.2363 16.7132 46.7129 14.7783L46.3154 14.4736L46.6211 14.0762L47.8154 12.5254L48.1201 12.1289L48.5156 12.4336L48.8965 12.7158C50.7986 14.0805 52.7199 14.7431 54.6172 14.7432C56.6411 14.7432 58.6926 13.9895 60.7188 12.4336L61.1152 12.1289L61.4199 12.5254Z" fill="#2CF050" stroke="#2CF050"/>
<path d="M89.4316 12.5254L90.625 14.0762L90.9307 14.4736L90.5332 14.7783C88.0097 16.7132 85.3313 17.7061 82.6289 17.7061C79.9265 17.706 77.248 16.7132 74.7246 14.7783L74.3271 14.4736L74.6328 14.0762L75.8271 12.5254L76.1318 12.1289L76.5283 12.4336L76.9082 12.7168C78.8103 14.0844 80.7317 14.7469 82.6289 14.7461C84.6527 14.7453 86.7041 13.9896 88.7305 12.4336L89.127 12.1289L89.4316 12.5254Z" fill="#2CF050" stroke="#2CF050"/>
<path d="M68.626 9.50488C71.3292 9.50488 74.0078 10.4954 76.5283 12.4346L76.9248 12.7393L76.6191 13.1357L75.4258 14.6875L75.1201 15.083L74.7246 14.7783C72.6988 13.2192 70.6476 12.4661 68.624 12.4668C66.6001 12.4676 64.5479 13.2222 62.5215 14.7783L62.126 15.083L61.8213 14.6875L60.627 13.1357L60.3223 12.7393L60.7188 12.4346L61.1943 12.082C63.5783 10.3757 66.0919 9.5049 68.626 9.50488Z" fill="#2CF050" stroke="#2CF050"/>
<path d="M96.6328 9.50488C99.3358 9.50499 102.016 10.4957 104.54 12.4346L104.937 12.7393L104.631 13.1357L103.438 14.6875L103.133 15.083L102.736 14.7783C100.71 13.2225 98.6586 12.4688 96.6348 12.4688C94.6109 12.4688 92.5593 13.2225 90.5332 14.7783L90.1377 15.083L89.833 14.6875L88.6387 13.1357L88.334 12.7393L88.7305 12.4346C91.251 10.4955 93.9297 9.50488 96.6328 9.50488Z" fill="#2CF050" stroke="#2CF050"/>
<path d="M12.6025 30.1162C15.3057 30.1162 17.9844 31.1068 20.5049 33.0459L20.9004 33.3496L20.5967 33.7461L19.4023 35.3047L19.0977 35.7021L18.7012 35.3965C16.675 33.8371 14.6233 33.082 12.5996 33.082C10.5761 33.0821 8.52505 33.8373 6.49902 35.3965L6.10156 35.7021L5.79688 35.3047L4.60352 33.7461L4.2998 33.3496L4.69531 33.0459C7.21925 31.107 9.89942 30.1162 12.6025 30.1162Z" fill="#2CF050" stroke="#2CF050"/>
<path d="M40.6143 30.1162C43.3174 30.1162 45.9961 31.1068 48.5166 33.0459L48.9121 33.3496L48.6084 33.7461L47.4141 35.3047L47.1104 35.7021L46.7129 35.3975C44.6865 33.8414 42.6352 33.0858 40.6113 33.085C38.5877 33.0841 36.5366 33.8374 34.5107 35.3965L34.1133 35.7021L33.8086 35.3047L32.6152 33.7461L32.3115 33.3496L32.707 33.0459C35.231 31.107 37.9111 30.1162 40.6143 30.1162Z" fill="#2CF050" stroke="#2CF050"/>
<path d="M33.4082 33.1387L34.6025 34.6973L34.9062 35.0938L34.5098 35.3975C31.9862 37.3324 29.3079 38.3252 26.6055 38.3252C23.9031 38.3251 21.2246 37.3323 18.7012 35.3975L18.3047 35.0938L18.6094 34.6973L19.8027 33.1387L20.1074 32.7402L20.5049 33.0459C22.531 34.6052 24.5819 35.3603 26.6055 35.3604C28.6291 35.3604 30.6808 34.6053 32.707 33.0459L33.1035 32.7402L33.4082 33.1387Z" fill="#2CF050" stroke="#2CF050"/>
<path d="M61.4199 33.1387L62.6143 34.6973L62.918 35.0938L62.5215 35.3975C59.998 37.3324 57.3197 38.3252 54.6172 38.3252C51.9148 38.3251 49.2363 37.3323 46.7129 35.3975L46.3164 35.0938L46.6211 34.6973L47.8145 33.1387L48.1191 32.7402L48.5166 33.0459C50.5427 34.6052 52.5936 35.3603 54.6172 35.3604C56.6408 35.3604 58.6925 34.6053 60.7188 33.0459L61.1152 32.7402L61.4199 33.1387Z" fill="#2CF050" stroke="#2CF050"/>
<path d="M89.4316 33.1387L90.626 34.6973L90.9297 35.0938L90.5332 35.3975C88.0097 37.3324 85.3314 38.3252 82.6289 38.3252C79.9265 38.3251 77.248 37.3323 74.7246 35.3975L74.3281 35.0938L74.6328 34.6973L75.8262 33.1387L76.1309 32.7402L76.5283 33.0459L76.9082 33.3291C78.8104 34.697 80.7318 35.3603 82.6289 35.3604C84.6526 35.3604 86.7043 34.6053 88.7305 33.0459L89.127 32.7402L89.4316 33.1387Z" fill="#2CF050" stroke="#2CF050"/>
<path d="M68.626 30.1162C71.3292 30.1162 74.0078 31.1068 76.5283 33.0459L76.9238 33.3496L76.6201 33.7461L75.4258 35.3047L75.1211 35.7021L74.7246 35.3965C72.6984 33.8371 70.6467 33.082 68.623 33.082C66.5996 33.0821 64.5485 33.8373 62.5225 35.3965L62.125 35.7021L61.8203 35.3047L60.627 33.7461L60.3232 33.3496L60.7188 33.0459L61.1943 32.6934C63.5783 30.987 66.0919 30.1162 68.626 30.1162Z" fill="#2CF050" stroke="#2CF050"/>
<path d="M96.6328 30.1162C99.3358 30.1163 102.016 31.107 104.54 33.0459L104.936 33.3496L104.632 33.7461L103.438 35.3047L103.134 35.7021L102.736 35.3975C100.71 33.8414 98.6586 33.0858 96.6348 33.085C94.6111 33.0841 92.5601 33.8374 90.5342 35.3965L90.1367 35.7021L89.832 35.3047L88.6387 33.7461L88.335 33.3496L88.7305 33.0459C91.251 31.1068 93.9297 30.1162 96.6328 30.1162Z" fill="#2CF050" stroke="#2CF050"/>
<path d="M12.6025 50.7432C15.3057 50.7432 17.9844 51.7337 20.5049 53.6729L20.9014 53.9775L20.5957 54.374L19.4023 55.9258L19.0967 56.3213L18.7012 56.0166C16.6753 54.4575 14.6242 53.7044 12.6006 53.7051C10.5767 53.7059 8.52443 54.4605 6.49805 56.0166L6.10254 56.3213L5.79785 55.9258L4.60352 54.374L4.29883 53.9775L4.69531 53.6729C7.21925 51.7339 9.89942 50.7432 12.6025 50.7432Z" fill="#2CF050" stroke="#2CF050"/>
<path d="M40.6143 50.7432C43.3174 50.7432 45.9961 51.7337 48.5166 53.6729L48.9131 53.9775L48.6074 54.374L47.4141 55.9258L47.1094 56.3213L46.7129 56.0166C44.6868 54.4608 42.6352 53.707 40.6113 53.707C38.5875 53.7071 36.5358 54.4607 34.5098 56.0166L34.1143 56.3213L33.8096 55.9258L32.6152 54.374L32.3105 53.9775L32.707 53.6729C35.231 51.7339 37.9111 50.7432 40.6143 50.7432Z" fill="#2CF050" stroke="#2CF050"/>
<path d="M33.4082 53.7646L34.6016 55.3154L34.9072 55.7129L34.5098 56.0176C31.9863 57.9525 29.3079 58.9453 26.6055 58.9453C23.9031 58.9452 21.2246 57.9525 18.7012 56.0176L18.3037 55.7129L18.6094 55.3154L19.8037 53.7646L20.1084 53.3682L20.5039 53.6729C22.53 55.2287 24.5816 55.9823 26.6055 55.9824C28.6294 55.9824 30.6809 55.2287 32.707 53.6729L33.1035 53.3682L33.4082 53.7646Z" fill="#2CF050" stroke="#2CF050"/>
<path d="M61.4199 53.7646L62.6133 55.3154L62.9189 55.7129L62.5215 56.0176C59.998 57.9525 57.3196 58.9453 54.6172 58.9453C51.9148 58.9452 49.2363 57.9525 46.7129 56.0176L46.3154 55.7129L46.6211 55.3154L47.8154 53.7646L48.1201 53.3682L48.5156 53.6729L48.8965 53.9551C50.7986 55.3198 52.7199 55.9824 54.6172 55.9824C56.6411 55.9824 58.6926 55.2287 60.7188 53.6729L61.1152 53.3682L61.4199 53.7646Z" fill="#2CF050" stroke="#2CF050"/>
<path d="M89.4316 53.7646L90.625 55.3154L90.9307 55.7129L90.5332 56.0176C88.0097 57.9525 85.3313 58.9453 82.6289 58.9453C79.9265 58.9452 77.248 57.9525 74.7246 56.0176L74.3271 55.7129L74.6328 55.3154L75.8271 53.7646L76.1318 53.3682L76.5283 53.6729L76.9082 53.9561C78.8103 55.3236 80.7317 55.9861 82.6289 55.9854C84.6527 55.9845 86.7041 55.2289 88.7305 53.6729L89.127 53.3682L89.4316 53.7646Z" fill="#2CF050" stroke="#2CF050"/>
<path d="M68.626 50.7432C71.3292 50.7432 74.0078 51.7337 76.5283 53.6729L76.9248 53.9775L76.6191 54.374L75.4258 55.9258L75.1201 56.3213L74.7246 56.0166C72.6988 54.4575 70.6476 53.7044 68.624 53.7051C66.6001 53.7059 64.5479 54.4605 62.5215 56.0166L62.126 56.3213L61.8213 55.9258L60.627 54.374L60.3223 53.9775L60.7188 53.6729L61.1943 53.3203C63.5783 51.614 66.0919 50.7432 68.626 50.7432Z" fill="#2CF050" stroke="#2CF050"/>
<path d="M96.6328 50.7432C99.3358 50.7433 102.016 51.734 104.54 53.6729L104.937 53.9775L104.631 54.374L103.438 55.9258L103.133 56.3213L102.736 56.0166C100.71 54.4608 98.6586 53.707 96.6348 53.707C94.6109 53.7071 92.5593 54.4607 90.5332 56.0166L90.1377 56.3213L89.833 55.9258L88.6387 54.374L88.334 53.9775L88.7305 53.6729C91.251 51.7337 93.9297 50.7432 96.6328 50.7432Z" fill="#2CF050" stroke="#2CF050"/>
<path d="M12.6025 71.3691C15.3057 71.3691 17.9844 72.3597 20.5049 74.2988L20.9014 74.6035L20.5957 75L19.4023 76.5518L19.0977 76.9473L18.7012 76.6426C16.6751 75.0868 14.6235 74.333 12.5996 74.333C10.5757 74.3331 8.52412 75.0867 6.49805 76.6426L6.10254 76.9473L5.79785 76.5518L4.60352 75L4.29883 74.6035L4.69531 74.2988C7.21925 72.3599 9.89942 71.3692 12.6025 71.3691Z" fill="#2CF050" stroke="#2CF050"/>
<path d="M40.6143 71.3691C43.3174 71.3691 45.9961 72.3597 48.5166 74.2988L48.9131 74.6035L48.6074 75L47.4141 76.5518L47.1094 76.9473L46.7129 76.6426C44.6868 75.0868 42.6352 74.333 40.6113 74.333C38.5875 74.3331 36.5358 75.0867 34.5098 76.6426L34.1143 76.9473L33.8096 76.5518L32.6152 75L32.3105 74.6035L32.707 74.2988C35.231 72.3599 37.9111 71.3692 40.6143 71.3691Z" fill="#2CF050" stroke="#2CF050"/>
<path d="M33.4082 74.3906L34.6016 75.9414L34.9072 76.3389L34.5098 76.6436C31.9863 78.5784 29.3079 79.5713 26.6055 79.5713C23.9031 79.5712 21.2246 78.5784 18.7012 76.6436L18.3037 76.3389L18.6094 75.9414L19.8037 74.3906L20.1084 73.9941L20.5039 74.2988C22.53 75.8547 24.5816 76.6083 26.6055 76.6084C28.6294 76.6084 30.6809 75.8547 32.707 74.2988L33.1035 73.9941L33.4082 74.3906Z" fill="#2CF050" stroke="#2CF050"/>
<path d="M61.4199 74.3906L62.6133 75.9414L62.9189 76.3389L62.5215 76.6436C59.998 78.5784 57.3196 79.5713 54.6172 79.5713C51.9148 79.5712 49.2363 78.5784 46.7129 76.6436L46.3154 76.3389L46.6211 75.9414L47.8154 74.3906L48.1201 73.9941L48.5156 74.2988L48.8965 74.5811C50.7986 75.9458 52.7199 76.6083 54.6172 76.6084C56.6411 76.6084 58.6926 75.8547 60.7188 74.2988L61.1152 73.9941L61.4199 74.3906Z" fill="#2CF050" stroke="#2CF050"/>
<path d="M89.4316 74.3906L90.625 75.9414L90.9307 76.3389L90.5332 76.6436C88.0097 78.5784 85.3313 79.5713 82.6289 79.5713C79.9265 79.5712 77.248 78.5784 74.7246 76.6436L74.3271 76.3389L74.6328 75.9414L75.8271 74.3906L76.1318 73.9941L76.5283 74.2988L76.9082 74.582C78.8103 75.9496 80.7317 76.6121 82.6289 76.6113C84.6527 76.6105 86.7041 75.8549 88.7305 74.2988L89.127 73.9941L89.4316 74.3906Z" fill="#2CF050" stroke="#2CF050"/>
<path d="M68.626 71.3691C71.3292 71.3691 74.0078 72.3597 76.5283 74.2988L76.9248 74.6035L76.6191 75L75.4258 76.5518L75.1211 76.9473L74.7246 76.6426C72.6985 75.0868 70.6469 74.333 68.623 74.333C66.5992 74.3331 64.5476 75.0867 62.5215 76.6426L62.126 76.9473L61.8213 76.5518L60.627 75L60.3223 74.6035L60.7188 74.2988L61.1943 73.9463C63.5783 72.2399 66.0919 71.3692 68.626 71.3691Z" fill="#2CF050" stroke="#2CF050"/>
<path d="M96.6328 71.3691C99.3358 71.3692 102.016 72.36 104.54 74.2988L104.937 74.6035L104.631 75L103.438 76.5518L103.133 76.9473L102.736 76.6426C100.71 75.0868 98.6586 74.333 96.6348 74.333C94.6109 74.3331 92.5593 75.0867 90.5332 76.6426L90.1377 76.9473L89.833 76.5518L88.6387 75L88.334 74.6035L88.7305 74.2988C91.251 72.3597 93.9297 71.3691 96.6328 71.3691Z" fill="#2CF050" stroke="#2CF050"/>
<path d="M12.6025 91.9883C15.3057 91.9883 17.9844 92.9788 20.5049 94.918L20.9014 95.2227L20.5957 95.6191L19.4023 97.1709L19.0967 97.5664L18.7012 97.2617C16.6753 95.7026 14.6242 94.9495 12.6006 94.9502C10.5767 94.951 8.52443 95.7056 6.49805 97.2617L6.10254 97.5664L5.79785 97.1709L4.60352 95.6191L4.29883 95.2227L4.69531 94.918C7.21925 92.979 9.89942 91.9883 12.6025 91.9883Z" fill="#2CF050" stroke="#2CF050"/>
<path d="M40.6143 91.9883C43.3174 91.9883 45.9961 92.9788 48.5166 94.918L48.9131 95.2227L48.6074 95.6191L47.4141 97.1709L47.1094 97.5664L46.7129 97.2617C44.6868 95.7059 42.6352 94.9521 40.6113 94.9521C38.5875 94.9522 36.5358 95.7059 34.5098 97.2617L34.1143 97.5664L33.8096 97.1709L32.6152 95.6191L32.3105 95.2227L32.707 94.918C35.231 92.979 37.9111 91.9883 40.6143 91.9883Z" fill="#2CF050" stroke="#2CF050"/>
<path d="M33.4082 95.0098L34.6016 96.5605L34.9072 96.958L34.5098 97.2627C31.9863 99.1976 29.3079 100.189 26.6055 100.189C24.072 100.189 21.5601 99.3175 19.1768 97.6143L18.7012 97.2627L18.3037 96.958L18.6094 96.5605L19.8037 95.0098L20.1084 94.6133L20.5039 94.918L20.8848 95.2002C22.7869 96.5649 24.7081 97.2275 26.6055 97.2275C28.6294 97.2275 30.6809 96.4738 32.707 94.918L33.1035 94.6133L33.4082 95.0098Z" fill="#2CF050" stroke="#2CF050"/>
<path d="M61.4199 95.0098L62.6133 96.5605L62.9189 96.958L62.5215 97.2627C59.998 99.1976 57.3196 100.189 54.6172 100.189C52.0837 100.189 49.5718 99.3175 47.1885 97.6143L46.7129 97.2627L46.3154 96.958L46.6211 96.5605L47.8154 95.0098L48.1201 94.6133L48.5156 94.918L48.8965 95.2002C50.7986 96.5649 52.7199 97.2275 54.6172 97.2275C56.6411 97.2275 58.6926 96.4738 60.7188 94.918L61.1152 94.6133L61.4199 95.0098Z" fill="#2CF050" stroke="#2CF050"/>
<path d="M89.4316 95.0098L90.625 96.5605L90.9307 96.958L90.5332 97.2627C88.0097 99.1976 85.3313 100.189 82.6289 100.189C80.0955 100.189 77.5835 99.3175 75.2002 97.6143L74.7246 97.2627L74.3271 96.958L74.6328 96.5605L75.8271 95.0098L76.1318 94.6133L76.5283 94.918C78.5581 96.4774 80.6091 97.2313 82.6318 97.2305C84.6546 97.2296 86.7041 96.474 88.7305 94.918L89.127 94.6133L89.4316 95.0098Z" fill="#2CF050" stroke="#2CF050"/>
<path d="M68.626 91.9883C71.3292 91.9883 74.0078 92.9788 76.5283 94.918L76.9248 95.2227L76.6191 95.6191L75.4258 97.1709L75.1201 97.5664L74.7246 97.2617C72.6988 95.7026 70.6476 94.9495 68.624 94.9502C66.6001 94.951 64.5479 95.7056 62.5215 97.2617L62.126 97.5664L61.8213 97.1709L60.627 95.6191L60.3223 95.2227L60.7188 94.918C63.2427 92.979 65.9229 91.9883 68.626 91.9883Z" fill="#2CF050" stroke="#2CF050"/>
<path d="M96.6328 91.9883C99.3358 91.9884 102.016 92.9791 104.54 94.918L104.937 95.2227L104.631 95.6191L103.438 97.1709L103.133 97.5664L102.736 97.2617C100.71 95.7059 98.6586 94.9521 96.6348 94.9521C94.6109 94.9522 92.5593 95.7059 90.5332 97.2617L90.1377 97.5664L89.833 97.1709L88.6387 95.6191L88.334 95.2227L88.7305 94.918C91.251 92.9789 93.9297 91.9883 96.6328 91.9883Z" fill="#2CF050" stroke="#2CF050"/>
</g>
</svg>
