<svg width="110" height="110" viewBox="0 0 110 110" fill="none" xmlns="http://www.w3.org/2000/svg">
<mask id="mask0_309_3454" style="mask-type:alpha" maskUnits="userSpaceOnUse" x="0" y="0" width="110" height="110">
<rect width="110" height="110" rx="10" fill="#D9D9D9"/>
</mask>
<g mask="url(#mask0_309_3454)">
<path d="M79.5124 56.4831H80.0124V56.4712C94.1145 56.2039 105.5 44.653 105.5 30.488C105.5 16.1559 93.8444 4.5 79.5124 4.5C65.1801 4.5 53.5244 16.1632 53.5244 30.4951C53.5244 44.8272 65.1803 56.4831 79.5124 56.4831ZM56.4834 30.488C56.4834 17.7878 66.8122 7.45896 79.5124 7.45896C92.2126 7.45896 102.541 17.7878 102.541 30.488C102.541 43.1881 92.2126 53.5169 79.5124 53.5169C66.8122 53.5169 56.4834 43.1881 56.4834 30.488Z" fill="#2CF050" stroke="#2CF050"/>
<path d="M79.512 31.9746H80.012V31.9585C87.3569 31.6946 93.2458 25.6421 93.2458 18.2337C93.2458 10.6579 87.0878 4.5 79.512 4.5C71.9359 4.5 65.7783 10.6654 65.7783 18.2409C65.7783 25.8166 71.9363 31.9746 79.512 31.9746ZM68.7373 18.2337C68.7373 12.2967 73.5683 7.45896 79.512 7.45896C85.449 7.45896 90.2868 12.29 90.2868 18.2337C90.2868 24.1776 85.456 29.0085 79.512 29.0085C73.5683 29.0085 68.7373 24.1707 68.7373 18.2337Z" fill="#2CF050" stroke="#2CF050"/>
<path d="M78.0332 104.021C78.0332 104.84 78.6932 105.5 79.5127 105.5C93.8447 105.5 105.501 93.8444 105.501 79.5124V55.0039C105.501 54.1844 104.841 53.5244 104.021 53.5244C89.6891 53.5244 78.0332 65.1803 78.0332 79.5124V104.021ZM80.9922 79.5124C80.9922 67.3171 90.5333 57.2965 102.542 56.5317V79.5124C102.542 91.7076 93.0006 101.728 80.9922 102.493V79.5124Z" fill="#2CF050" stroke="#2CF050"/>
<path d="M53.5244 79.5124C53.5244 93.8444 65.1803 105.5 79.5124 105.5C80.3319 105.5 80.9918 104.84 80.9918 104.021V79.5124C80.9918 65.1803 69.3359 53.5244 55.0039 53.5244C54.1844 53.5244 53.5244 54.1844 53.5244 55.0039V79.5124ZM56.4834 79.5124V56.5317C68.4919 57.2963 78.0329 67.3102 78.0329 79.5124V102.493C66.0244 101.728 56.4834 91.7146 56.4834 79.5124Z" fill="#2CF050" stroke="#2CF050"/>
<path d="M80.9922 55.0039V54.5039H80.4922H78.5332H78.0332V55.0039V79.5124V80.0124H78.5332H80.4922H80.9922V79.5124V55.0039Z" fill="#2CF050" stroke="#2CF050"/>
<path d="M30.488 56.4831H30.988V56.4712C45.0901 56.2039 56.4759 44.653 56.4759 30.488C56.4759 16.1559 44.82 4.5 30.488 4.5C16.1559 4.5 4.5 16.1559 4.5 30.488C4.5 44.8198 16.1557 56.4831 30.488 56.4831ZM7.45896 30.488C7.45896 17.7949 17.7949 7.45896 30.488 7.45896C43.1881 7.45896 53.5169 17.7878 53.5169 30.488C53.5169 43.1881 43.1881 53.5169 30.488 53.5169C17.7879 53.5169 7.45896 43.1811 7.45896 30.488Z" fill="#2CF050" stroke="#2CF050"/>
<path d="M30.4876 31.9746H30.9876V31.9585C38.3325 31.6946 44.2213 25.6421 44.2213 18.2337C44.2213 10.6578 38.0561 4.5 30.4876 4.5C22.9188 4.5 16.7539 10.6653 16.7539 18.2409C16.7539 25.8166 22.9118 31.9746 30.4876 31.9746ZM19.7129 18.2337C19.7129 12.2967 24.5439 7.45896 30.4876 7.45896C36.4315 7.45896 41.2624 12.2898 41.2624 18.2337C41.2624 24.1774 36.4246 29.0085 30.4876 29.0085C24.5509 29.0085 19.7129 24.1705 19.7129 18.2337Z" fill="#2CF050" stroke="#2CF050"/>
<path d="M29.0088 104.021C29.0088 104.84 29.6688 105.5 30.4883 105.5C44.8203 105.5 56.4762 93.8444 56.4762 79.5124V55.0039C56.4762 54.1844 55.8162 53.5244 54.9967 53.5244C40.6647 53.5244 29.0088 65.1803 29.0088 79.5124V104.021ZM31.9749 79.5124C31.9749 67.3171 41.516 57.2965 53.5244 56.5317V79.5124C53.5244 91.7076 43.9833 101.728 31.9749 102.493V79.5124Z" fill="#2CF050" stroke="#2CF050"/>
<path d="M4.5 79.5124C4.5 93.8444 16.1559 105.5 30.488 105.5C31.3075 105.5 31.9674 104.84 31.9674 104.021V79.5124C31.9674 65.1803 20.3115 53.5244 5.97948 53.5244C5.15998 53.5244 4.5 54.1844 4.5 55.0039V79.5124ZM7.45896 79.5124V56.5317C19.4674 57.2963 29.0085 67.3102 29.0085 79.5124V102.493C17 101.728 7.45896 91.7146 7.45896 79.5124Z" fill="#2CF050" stroke="#2CF050"/>
<path d="M31.9678 55.0039V54.5039H31.4678H29.5088H29.0088V55.0039V79.5124V80.0124H29.5088H31.4678H31.9678V79.5124V55.0039Z" fill="#2CF050" stroke="#2CF050"/>
</g>
</svg>
