<svg width="110" height="110" viewBox="0 0 110 110" fill="none" xmlns="http://www.w3.org/2000/svg">
<mask id="mask0_309_3407" style="mask-type:alpha" maskUnits="userSpaceOnUse" x="0" y="0" width="110" height="110">
<rect width="110" height="110" rx="10" fill="#D9D9D9"/>
</mask>
<g mask="url(#mask0_309_3407)">
<path d="M18.7012 14.7782L19.5059 15.3964V14.5447L20.5961 13.1281L20.9016 12.7312L20.5041 12.4264C17.9803 10.4912 15.3004 9.50094 12.5974 9.5C9.89431 9.49906 7.21581 10.4876 4.69512 12.4269L4.29965 12.7311L4.60308 13.1272L5.79705 14.6858L6.10204 15.084L6.49925 14.7777C8.52173 13.2185 10.571 12.4634 12.5946 12.4634C14.6183 12.4634 16.6713 13.2186 18.7012 14.7782Z" fill="#2CF050" stroke="#2CF050"/>
<path d="M46.7131 14.7787L47.1092 15.0829L47.4138 14.6871L48.6078 13.1357L48.9128 12.7394L48.5164 12.4344C45.9959 10.4953 43.3175 9.50488 40.6143 9.50488C37.9112 9.50488 35.2311 10.4953 32.7071 12.4342L32.3103 12.7391L32.6155 13.1357L33.8094 14.6871L34.1141 15.0829L34.5102 14.7787C36.5364 13.2228 38.5877 12.4692 40.6116 12.4692C42.6356 12.4692 44.6869 13.2228 46.7131 14.7787Z" fill="#2CF050" stroke="#2CF050"/>
<path d="M18.6096 14.0766L18.3041 14.4735L18.7016 14.7783C21.2251 16.7133 23.9033 17.7056 26.6058 17.7056C29.3082 17.7056 31.9864 16.7133 34.5099 14.7783L34.9074 14.4735L34.6019 14.0766L33.408 12.5251L33.1033 12.1293L32.7072 12.4335C30.681 13.9895 28.6297 14.743 26.6058 14.743C24.5818 14.743 22.5305 13.9895 20.5044 12.4335L20.1082 12.1293L19.8036 12.5251L18.6096 14.0766Z" fill="#2CF050" stroke="#2CF050"/>
<path d="M46.6213 14.0766L46.3158 14.4735L46.7133 14.7783C49.2369 16.7133 51.915 17.7056 54.6175 17.7056C57.32 17.7056 59.9981 16.7133 62.5216 14.7783L62.9191 14.4735L62.6137 14.0766L61.4197 12.5251L61.1151 12.1293L60.7189 12.4335C58.6927 13.9895 56.6415 14.743 54.6175 14.743C52.5935 14.743 50.5422 13.9895 48.5161 12.4335L48.1199 12.1293L47.8153 12.5251L46.6213 14.0766Z" fill="#2CF050" stroke="#2CF050"/>
<path d="M74.6331 14.0766L74.3276 14.4735L74.7251 14.7783C77.2486 16.7133 79.9267 17.7056 82.6292 17.7056C85.3317 17.7056 88.0098 16.7133 90.5334 14.7783L90.9309 14.4735L90.6254 14.0766L89.4314 12.5251L89.1268 12.1293L88.7306 12.4335C86.7043 13.9896 84.6529 14.7449 82.629 14.7457C80.6053 14.7466 78.5542 13.9931 76.5282 12.4338L76.132 12.1289L75.827 12.5251L74.6331 14.0766Z" fill="#2CF050" stroke="#2CF050"/>
<path d="M74.7243 14.7784L75.1206 15.0834L75.4255 14.6871L76.6195 13.1357L76.9245 12.7394L76.5282 12.4344C74.0076 10.4953 71.3292 9.50488 68.626 9.50488C65.9229 9.50488 63.2428 10.4953 60.7188 12.4342L60.322 12.7391L60.6272 13.1357L61.8212 14.6871L62.1258 15.0829L62.5219 14.7787C64.5483 13.2226 66.5997 12.4674 68.6236 12.4665C70.6473 12.4657 72.6983 13.2191 74.7243 14.7784Z" fill="#2CF050" stroke="#2CF050"/>
<path d="M102.736 14.7787L103.133 15.0829L103.437 14.6871L104.631 13.1357L104.936 12.7391L104.54 12.4342C102.016 10.4953 99.3355 9.50488 96.6324 9.50488C93.9292 9.50488 91.2508 10.4953 88.7303 12.4344L88.3339 12.7394L88.6389 13.1357L89.8329 14.6871L90.1375 15.0829L90.5336 14.7787C92.5598 13.2228 94.6111 12.4692 96.6351 12.4692C98.659 12.4692 100.71 13.2228 102.736 14.7787Z" fill="#2CF050" stroke="#2CF050"/>
<path d="M18.7009 35.3969L19.098 35.7025L19.4028 35.3047L20.5967 33.7461L20.9002 33.35L20.5047 33.0458C17.9842 31.1066 15.3058 30.1162 12.6026 30.1162C9.89946 30.1162 7.21936 31.1066 4.6954 33.0455L4.29943 33.3497L4.60308 33.7461L5.79705 35.3047L6.10179 35.7025L6.49892 35.3969C8.52513 33.8375 10.5763 33.0823 12.5999 33.0823C14.6236 33.0823 16.6747 33.8375 18.7009 35.3969Z" fill="#2CF050" stroke="#2CF050"/>
<path d="M46.7131 35.3972L47.1101 35.7021L47.4145 35.3047L48.6085 33.7461L48.9119 33.35L48.5164 33.0458C45.9959 31.1066 43.3175 30.1162 40.6143 30.1162C37.9112 30.1162 35.2311 31.1066 32.7071 33.0455L32.3112 33.3497L32.6148 33.7461L33.8088 35.3047L34.1135 35.7025L34.5106 35.3969C36.5366 33.8376 38.5877 33.0842 40.6114 33.085C42.6353 33.0858 44.6867 33.8411 46.7131 35.3972Z" fill="#2CF050" stroke="#2CF050"/>
<path d="M18.6089 34.6969L18.305 35.0937L18.7016 35.3978C21.2251 37.3327 23.9033 38.325 26.6058 38.325C29.3082 38.325 31.9864 37.3327 34.5099 35.3978L34.9065 35.0937L34.6026 34.6969L33.4086 33.1383L33.1039 32.7405L32.7068 33.0461C30.6806 34.6056 28.6294 35.3607 26.6058 35.3607C24.5821 35.3607 22.531 34.6056 20.5048 33.0461L20.1077 32.7405L19.8029 33.1383L18.6089 34.6969Z" fill="#2CF050" stroke="#2CF050"/>
<path d="M46.6207 34.6969L46.3167 35.0937L46.7133 35.3978C49.2369 37.3327 51.915 38.325 54.6175 38.325C57.32 38.325 59.9981 37.3327 62.5216 35.3978L62.9183 35.0937L62.6143 34.6969L61.4204 33.1383L61.1156 32.7405L60.7185 33.0461C58.6923 34.6056 56.6411 35.3607 54.6175 35.3607C52.5938 35.3607 50.5427 34.6056 48.5165 33.0461L48.1194 32.7405L47.8146 33.1383L46.6207 34.6969Z" fill="#2CF050" stroke="#2CF050"/>
<path d="M74.6324 34.6969L74.3284 35.0937L74.7251 35.3978C77.2486 37.3327 79.9267 38.325 82.6292 38.325C85.3317 38.325 88.0098 37.3327 90.5334 35.3978L90.93 35.0937L90.626 34.6969L89.4321 33.1383L89.1273 32.7405L88.7302 33.0461C86.704 34.6056 84.6529 35.3607 82.6292 35.3607C80.6056 35.3607 78.5544 34.6056 76.5282 33.0461L76.1311 32.7405L75.8263 33.1383L74.6324 34.6969Z" fill="#2CF050" stroke="#2CF050"/>
<path d="M74.7243 35.3969L75.1215 35.7025L75.4262 35.3047L76.6202 33.7461L76.9236 33.35L76.5282 33.0458C74.0076 31.1066 71.3292 30.1162 68.626 30.1162C65.9229 30.1162 63.2428 31.1066 60.7188 33.0455L60.3229 33.3497L60.6265 33.7461L61.8205 35.3047L62.1252 35.7025L62.5224 35.3969C64.5486 33.8375 66.5997 33.0823 68.6234 33.0823C70.647 33.0823 72.6981 33.8375 74.7243 35.3969Z" fill="#2CF050" stroke="#2CF050"/>
<path d="M102.736 35.3972L103.134 35.7021L103.438 35.3047L104.632 33.7461L104.936 33.3497L104.54 33.0455C102.016 31.1066 99.3355 30.1162 96.6324 30.1162C93.9292 30.1162 91.2508 31.1066 88.7303 33.0458L88.3348 33.35L88.6382 33.7461L89.8322 35.3047L90.1369 35.7025L90.5341 35.3969C92.5601 33.8376 94.6111 33.0842 96.6349 33.085C98.6587 33.0858 100.71 33.8411 102.736 35.3972Z" fill="#2CF050" stroke="#2CF050"/>
<path d="M18.7009 56.0167L19.0972 56.3216L19.4021 55.9254L20.5961 54.3739L20.9011 53.9776L20.5047 53.6727C17.9842 51.7336 15.3058 50.7432 12.6026 50.7432C9.89946 50.7432 7.21936 51.7335 4.6954 53.6725L4.29855 53.9774L4.60376 54.3739L5.79772 55.9254L6.10235 56.3212L6.49849 56.017C8.52488 54.4609 10.5762 53.7056 12.6001 53.7048C14.6239 53.704 16.6749 54.4574 18.7009 56.0167Z" fill="#2CF050" stroke="#2CF050"/>
<path d="M46.7131 56.017L47.1092 56.3212L47.4138 55.9254L48.6078 54.3739L48.9128 53.9776L48.5164 53.6727C45.9959 51.7336 43.3175 50.7432 40.6143 50.7432C37.9112 50.7432 35.2311 51.7335 32.7071 53.6725L32.3103 53.9774L32.6155 54.3739L33.8094 55.9254L34.1141 56.3212L34.5102 56.017C36.5364 54.4611 38.5877 53.7075 40.6116 53.7075C42.6356 53.7075 44.6869 54.4611 46.7131 56.017Z" fill="#2CF050" stroke="#2CF050"/>
<path d="M18.6096 55.3158L18.3041 55.7128L18.7016 56.0176C21.2251 57.9525 23.9033 58.9448 26.6058 58.9448C29.3082 58.9448 31.9864 57.9525 34.5099 56.0176L34.9074 55.7128L34.6019 55.3158L33.408 53.7644L33.1033 53.3686L32.7072 53.6728C30.681 55.2287 28.6297 55.9823 26.6058 55.9823C24.5818 55.9823 22.5305 55.2287 20.5044 53.6728L20.1082 53.3686L19.8036 53.7644L18.6096 55.3158Z" fill="#2CF050" stroke="#2CF050"/>
<path d="M46.6213 55.3158L46.3158 55.7128L46.7133 56.0176C49.2369 57.9525 51.915 58.9448 54.6175 58.9448C57.32 58.9448 59.9981 57.9525 62.5216 56.0176L62.9191 55.7128L62.6137 55.3158L61.4197 53.7644L61.1151 53.3686L60.7189 53.6728C58.6927 55.2287 56.6415 55.9823 54.6175 55.9823C52.5935 55.9823 50.5422 55.2287 48.5161 53.6728L48.1199 53.3686L47.8153 53.7644L46.6213 55.3158Z" fill="#2CF050" stroke="#2CF050"/>
<path d="M74.6331 55.3158L74.3276 55.7128L74.7251 56.0176C77.2486 57.9525 79.9267 58.9448 82.6292 58.9448C85.3317 58.9448 88.0098 57.9525 90.5334 56.0176L90.9309 55.7128L90.6254 55.3158L89.4314 53.7644L89.1268 53.3686L88.7306 53.6728C86.7043 55.2289 84.6529 55.9841 82.629 55.985C80.6053 55.9858 78.5542 55.2324 76.5282 53.6731L76.132 53.3681L75.827 53.7644L74.6331 55.3158Z" fill="#2CF050" stroke="#2CF050"/>
<path d="M74.7243 56.0167L75.1206 56.3216L75.4255 55.9254L76.6195 54.3739L76.9245 53.9776L76.5282 53.6727C74.0076 51.7336 71.3292 50.7432 68.626 50.7432C65.9229 50.7432 63.2428 51.7335 60.7188 53.6725L60.322 53.9774L60.6272 54.3739L61.8212 55.9254L62.1258 56.3212L62.5219 56.017C64.5483 54.4609 66.5997 53.7056 68.6236 53.7048C70.6473 53.704 72.6983 54.4574 74.7243 56.0167Z" fill="#2CF050" stroke="#2CF050"/>
<path d="M102.736 56.017L103.133 56.3212L103.437 55.9254L104.631 54.3739L104.936 53.9774L104.54 53.6725C102.016 51.7335 99.3355 50.7432 96.6324 50.7432C93.9292 50.7432 91.2508 51.7336 88.7303 53.6727L88.3339 53.9776L88.6389 54.3739L89.8329 55.9254L90.1375 56.3212L90.5336 56.017C92.5598 54.4611 94.6111 53.7075 96.6351 53.7075C98.659 53.7075 100.71 54.4611 102.736 56.017Z" fill="#2CF050" stroke="#2CF050"/>
<path d="M18.7013 76.643L19.0975 76.9472L19.4021 76.5514L20.5961 74.9999L20.9011 74.6036L20.5047 74.2987C17.9842 72.3595 15.3058 71.3691 12.6026 71.3691C9.89946 71.3691 7.21936 72.3595 4.6954 74.2985L4.29855 74.6033L4.60376 74.9999L5.79772 76.5514L6.10235 76.9472L6.49849 76.643C8.52467 75.087 10.576 74.3335 12.5999 74.3335C14.6239 74.3335 16.6752 75.087 18.7013 76.643Z" fill="#2CF050" stroke="#2CF050"/>
<path d="M46.7131 76.643L47.1092 76.9472L47.4138 76.5514L48.6078 74.9999L48.9128 74.6036L48.5164 74.2987C45.9959 72.3595 43.3175 71.3691 40.6143 71.3691C37.9112 71.3691 35.2311 72.3595 32.7071 74.2985L32.3103 74.6033L32.6155 74.9999L33.8094 76.5514L34.1141 76.9472L34.5102 76.643C36.5364 75.087 38.5877 74.3335 40.6116 74.3335C42.6356 74.3335 44.6869 75.087 46.7131 76.643Z" fill="#2CF050" stroke="#2CF050"/>
<path d="M18.6096 75.9418L18.3041 76.3388L18.7016 76.6435C21.2251 78.5785 23.9033 79.5708 26.6058 79.5708C29.3082 79.5708 31.9864 78.5785 34.5099 76.6435L34.9074 76.3388L34.6019 75.9418L33.408 74.3904L33.1033 73.9945L32.7072 74.2987C30.681 75.8547 28.6297 76.6083 26.6058 76.6083C24.5818 76.6083 22.5305 75.8547 20.5044 74.2987L20.1082 73.9945L19.8036 74.3904L18.6096 75.9418Z" fill="#2CF050" stroke="#2CF050"/>
<path d="M46.6213 75.9418L46.3158 76.3388L46.7133 76.6435C49.2369 78.5785 51.915 79.5708 54.6175 79.5708C57.32 79.5708 59.9981 78.5785 62.5216 76.6435L62.9191 76.3388L62.6137 75.9418L61.4197 74.3904L61.1151 73.9945L60.7189 74.2987C58.6927 75.8547 56.6415 76.6083 54.6175 76.6083C52.5935 76.6083 50.5422 75.8547 48.5161 74.2987L48.1199 73.9945L47.8153 74.3904L46.6213 75.9418Z" fill="#2CF050" stroke="#2CF050"/>
<path d="M74.6331 75.9418L74.3276 76.3388L74.7251 76.6435C77.2486 78.5785 79.9267 79.5708 82.6292 79.5708C85.3317 79.5708 88.0098 78.5785 90.5334 76.6435L90.9309 76.3388L90.6254 75.9418L89.4314 74.3904L89.1268 73.9945L88.7306 74.2987C86.7043 75.8548 84.6529 76.6101 82.629 76.6109C80.6053 76.6118 78.5542 75.8583 76.5282 74.2991L76.132 73.9941L75.827 74.3904L74.6331 75.9418Z" fill="#2CF050" stroke="#2CF050"/>
<path d="M74.7248 76.643L75.1209 76.9472L75.4255 76.5514L76.6195 74.9999L76.9245 74.6036L76.5282 74.2987C74.0076 72.3595 71.3292 71.3691 68.626 71.3691C65.9229 71.3691 63.2428 72.3595 60.7188 74.2985L60.322 74.6033L60.6272 74.9999L61.8212 76.5514L62.1258 76.9472L62.5219 76.643C64.5481 75.087 66.5994 74.3335 68.6234 74.3335C70.6473 74.3335 72.6986 75.087 74.7248 76.643Z" fill="#2CF050" stroke="#2CF050"/>
<path d="M102.736 76.643L103.133 76.9472L103.437 76.5514L104.631 74.9999L104.936 74.6033L104.54 74.2985C102.016 72.3595 99.3355 71.3691 96.6324 71.3691C93.9292 71.3691 91.2508 72.3595 88.7303 74.2987L88.3339 74.6036L88.6389 74.9999L89.8329 76.5514L90.1375 76.9472L90.5336 76.643C92.5598 75.087 94.6111 74.3335 96.6351 74.3335C98.659 74.3335 100.71 75.087 102.736 76.643Z" fill="#2CF050" stroke="#2CF050"/>
<path d="M18.7009 97.2618L19.0972 97.5668L19.4021 97.1705L20.5961 95.6191L20.9011 95.2228L20.5047 94.9178C17.9842 92.9787 15.3058 91.9883 12.6026 91.9883C9.89946 91.9883 7.21936 92.9787 4.6954 94.9176L4.29855 95.2225L4.60376 95.6191L5.79772 97.1705L6.10235 97.5663L6.49849 97.2621C8.52488 95.706 10.5762 94.9508 12.6001 94.9499C14.6239 94.9491 16.6749 95.7025 18.7009 97.2618Z" fill="#2CF050" stroke="#2CF050"/>
<path d="M46.7131 97.2621L47.1092 97.5663L47.4138 97.1705L48.6078 95.6191L48.9128 95.2228L48.5164 94.9178C45.9959 92.9787 43.3175 91.9883 40.6143 91.9883C37.9112 91.9883 35.2311 92.9787 32.7071 94.9176L32.3103 95.2225L32.6155 95.6191L33.8094 97.1705L34.1141 97.5663L34.5102 97.2621C36.5364 95.7062 38.5877 94.9526 40.6116 94.9526C42.6356 94.9526 44.6869 95.7062 46.7131 97.2621Z" fill="#2CF050" stroke="#2CF050"/>
<path d="M18.6096 96.5609L18.3041 96.9579L18.7016 97.2627C21.2251 99.1976 23.9033 100.19 26.6058 100.19C29.3082 100.19 31.9864 99.1976 34.5099 97.2627L34.9074 96.9579L34.6019 96.5609L33.408 95.0095L33.1033 94.6137L32.7072 94.9179C30.681 96.4738 28.6297 97.2274 26.6058 97.2274C24.5818 97.2274 22.5305 96.4738 20.5044 94.9179L20.1082 94.6137L19.8036 95.0095L18.6096 96.5609Z" fill="#2CF050" stroke="#2CF050"/>
<path d="M46.6213 96.5609L46.3158 96.9579L46.7133 97.2627C49.2369 99.1976 51.915 100.19 54.6175 100.19C57.32 100.19 59.9981 99.1976 62.5216 97.2627L62.9191 96.9579L62.6137 96.5609L61.4197 95.0095L61.1151 94.6137L60.7189 94.9179C58.6927 96.4738 56.6415 97.2274 54.6175 97.2274C52.5935 97.2274 50.5422 96.4738 48.5161 94.9179L48.1199 94.6137L47.8153 95.0095L46.6213 96.5609Z" fill="#2CF050" stroke="#2CF050"/>
<path d="M74.6331 96.5609L74.3276 96.9579L74.7251 97.2627C77.2486 99.1976 79.9267 100.19 82.6292 100.19C85.3317 100.19 88.0098 99.1976 90.5334 97.2627L90.9309 96.9579L90.6254 96.5609L89.4314 95.0095L89.1268 94.6137L88.7306 94.9179C86.7041 96.4741 84.6546 97.2292 82.6317 97.2301C80.6089 97.2309 78.5577 96.4775 76.5279 94.918L76.1317 94.6136L75.827 95.0095L74.6331 96.5609Z" fill="#2CF050" stroke="#2CF050"/>
<path d="M74.7243 97.2618L75.1206 97.5668L75.4255 97.1705L76.6195 95.6191L76.9245 95.2228L76.5282 94.9178C74.0076 92.9787 71.3292 91.9883 68.626 91.9883C65.9229 91.9883 63.2428 92.9787 60.7188 94.9176L60.322 95.2225L60.6272 95.6191L61.8212 97.1705L62.1258 97.5663L62.5219 97.2621C64.5483 95.706 66.5997 94.9508 68.6236 94.9499C70.6473 94.9491 72.6983 95.7025 74.7243 97.2618Z" fill="#2CF050" stroke="#2CF050"/>
<path d="M102.736 97.2621L103.133 97.5663L103.437 97.1705L104.631 95.6191L104.936 95.2225L104.54 94.9176C102.016 92.9787 99.3355 91.9883 96.6324 91.9883C93.9292 91.9883 91.2508 92.9787 88.7303 94.9178L88.3339 95.2228L88.6389 95.6191L89.8329 97.1705L90.1375 97.5663L90.5336 97.2621C92.5598 95.7062 94.6111 94.9526 96.6351 94.9526C98.659 94.9526 100.71 95.7062 102.736 97.2621Z" fill="#2CF050" stroke="#2CF050"/>
</g>
</svg>
