<svg width="150" height="120" viewBox="0 0 150 120" fill="none" xmlns="http://www.w3.org/2000/svg">
<g clip-path="url(#clip0_910_125044)">
<circle cx="5.01709" cy="69.1367" r="4" stroke="#8FA3D9" stroke-width="2"/>
<path d="M138.017 47.1406C144.093 47.1406 149.017 42.2158 149.017 36.1406C149.017 30.0655 144.093 25.1406 138.017 25.1406C132.852 25.1406 128.518 28.7012 127.336 33.502" stroke="#8FA3D9" stroke-width="2"/>
<path d="M104.439 23.8998C97.8744 5.80607 77.6584 -3.45806 59.2851 3.20778C40.9117 9.87362 31.3387 29.9452 37.9031 48.0389C39.2594 51.7773 41.1985 55.1388 43.5837 58.0608" stroke="#8FA3D9" stroke-dasharray="4 4"/>
<path d="M51.4199 45.0234H25.0839C22.8748 45.0234 21.0839 46.8143 21.0839 49.0234V115.023C21.0839 117.233 22.8748 119.023 25.0839 119.023H105.084C107.293 119.023 109.084 117.233 109.084 115.023V103.881" stroke="#8FA3D9" stroke-width="2"/>
<rect x="53.2523" y="25.5598" width="86" height="72" rx="3" transform="rotate(6.24128 53.2523 25.5598)" stroke="#8FA3D9" stroke-width="2"/>
<rect x="61.2206" y="35.4856" width="68" height="44" rx="3" transform="rotate(6.24128 61.2206 35.4856)" stroke="#8FA3D9" stroke-width="2"/>
<path d="M58.0624 67.3308L67.9254 60.336C69.5264 59.2006 71.7145 59.3945 73.0909 60.7936L79.7715 67.5846C81.1256 68.961 83.2696 69.1737 84.8677 68.0902L102.557 56.0973C104.06 55.0783 106.06 55.1995 107.429 56.3925L125.472 72.1162" stroke="#8FA3D9" stroke-width="2"/>
<circle cx="80.6827" cy="50.6909" r="5" transform="rotate(6.24128 80.6827 50.6909)" stroke="#8FA3D9" stroke-width="2"/>
</g>
<defs>
<clipPath id="clip0_910_125044">
<rect width="150" height="120" fill="white"/>
</clipPath>
</defs>
</svg>
