<svg width="61" height="40" viewBox="0 0 61 40" fill="none" xmlns="http://www.w3.org/2000/svg">
<path d="M27.8683 23.25C29.6234 24.8495 31.1278 26.5989 30.5762 29.598C30.0246 32.6471 27.2164 34.1466 25.9126 33.6968C25.4111 33.4968 25.01 32.947 25.3109 32.1472C25.8625 30.6977 27.417 29.648 28.9214 29.1981C29.824 28.9482 29.9243 28.4984 29.473 28.1485C29.0718 27.8486 28.3196 27.5487 27.3167 27.5487C24.659 27.4987 21.9009 30.0479 22.7534 32.947C23.2549 34.6964 25.1604 35.9461 27.5173 35.996C30.2252 36.096 33.3844 34.3965 34.1366 30.8476C34.9389 26.8989 32.2812 23.4999 29.122 22.3503C27.066 21.7005 27.2164 22.6502 27.8683 23.25Z" fill="#EE2A7B"/>
<path d="M23.5547 3.90557C24.5576 4.00554 27.5664 9.15395 28.2685 9.15395C28.9705 9.15395 34.4866 3.45571 35.4895 3.5057C36.693 3.60567 35.5898 5.90496 33.935 8.80406C33.0323 10.3536 32.581 11.1033 32.581 11.7531C32.581 12.5029 35.6901 16.2518 35.0883 16.9515C34.637 17.5014 30.8259 15.452 29.9233 15.0021C29.2714 14.7022 29.2212 15.1521 29.2212 15.8019C29.2212 16.3017 29.6725 19.3508 28.7198 19.2508C26.1623 18.9509 21.248 3.65565 23.5547 3.90557Z" fill="#047BC1"/>
<path d="M42.9115 26.9989C43.6136 28.8483 43.413 30.7977 43.8643 31.7974C44.3156 32.7471 45.3687 33.047 46.171 32.4972C47.0235 31.8474 47.0235 29.4981 46.8229 28.1485C46.6223 26.9489 45.82 23.2001 43.9646 22.5003C42.8112 22.0504 41.4573 22.7502 41.2567 23.55C41.0561 24.3497 39.5517 27.5487 38.95 27.2988C38.6993 27.1988 38.1476 25.2994 37.8969 24.5497C37.596 23.7999 36.543 20.301 35.7908 20.251C35.189 20.201 35.0386 22.0504 35.189 23.6499C35.2893 24.9995 35.7908 29.5481 37.1949 30.3978C38.5488 31.1976 41.5576 29.6481 42.9115 26.9989Z" fill="#F58220"/>
<path d="M24.3087 22.8996C25.4119 23.1995 25.9635 23.7993 25.9133 24.6491C25.9133 25.5488 25.0609 26.2486 23.8574 26.1486C22.4031 25.9987 17.1378 24.1992 14.5302 20.7003C13.4771 19.2507 13.9786 17.9512 15.2322 17.1014C17.8398 15.352 23.6568 14.1023 24.3087 15.352C24.6597 16.0517 22.5034 16.7515 20.7483 17.5013C19.0935 18.2011 17.4888 19.0008 17.4888 19.5007C17.4387 20.1505 20.8987 22.0499 24.3087 22.8996Z" fill="#00AEE6"/>
<path d="M23.4559 22.8003C23.5562 21.4507 23.2553 18.0518 22.6536 17.8019C22.1521 17.552 21.45 19.5013 20.8984 22.0506" fill="#00AEE6"/>
<path d="M30.0745 5.15527C29.6733 5.80507 28.7707 6.005 28.1188 5.60513C27.4669 5.20525 27.2663 4.30553 27.6675 3.65573C28.0686 3.00593 28.9713 2.80599 29.6232 3.20587C30.2751 3.65573 30.4757 4.50547 30.0745 5.15527Z" fill="#047BC1"/>
<path d="M49.3298 10.254C49.1292 11.0038 48.377 11.5036 47.6248 11.3037C46.8726 11.1037 46.3712 10.354 46.5717 9.60418C46.7723 8.85442 47.5245 8.35457 48.2767 8.55451C49.079 8.75445 49.5304 9.50421 49.3298 10.254Z" fill="#39B54A"/>
<path d="M14.028 19.3009C13.5767 19.9507 12.7242 20.1506 12.0723 19.7008C11.4204 19.2509 11.2198 18.4012 11.6711 17.7514C12.1225 17.1016 12.9749 16.9016 13.6268 17.3515C14.2787 17.7514 14.4793 18.6011 14.028 19.3009Z" fill="#00AEE6"/>
<path d="M36.8439 18.7509C37.2451 19.4007 37.7967 19.7506 38.6993 20.1005C39.9028 20.5504 43.5635 20.4504 46.0206 18.0011C48.2772 15.7518 48.5279 12.3529 46.6224 10.3535C44.3157 7.95425 39.8025 8.10421 37.3955 11.1033C36.0416 12.7528 36.2422 14.6022 37.1448 15.4519C37.7465 16.0018 38.6492 16.3517 39.5016 16.4016C40.2538 16.4516 40.2538 16.2517 39.9028 15.9018C39.1005 15.0521 39.1506 13.9524 39.6019 13.1027C40.7052 11.0533 43.2626 10.6034 44.3658 11.853C45.5192 13.1027 44.6667 15.352 42.4603 16.5516C40.6049 17.6013 38.4987 17.2514 37.0445 16.6516C36.4929 17.4013 36.543 18.301 36.8439 18.7509Z" fill="#39B54A"/>
</svg>
