<svg width="61" height="40" viewBox="0 0 61 40" fill="none" xmlns="http://www.w3.org/2000/svg">
<g clip-path="url(#clip0_411_52308)">
<path d="M30.4853 30.2954H28.8574V31.9523H30.4853V30.2954Z" fill="#F39800"/>
<path d="M19.7009 23.9006C19.7009 22.3018 18.3056 20.8774 16.3289 20.8774C14.4104 20.8774 12.8988 22.3018 12.986 24.1041H14.7592C14.7011 23.2611 15.2534 22.5053 16.3289 22.5053C17.4626 22.5053 17.9277 23.3483 17.8695 24.0168C17.8405 24.5982 17.5207 25.0052 17.1138 25.2377C16.7068 25.4703 16.2126 25.5284 15.6022 25.5284V26.2842H18.3056C18.9451 25.9935 19.7009 25.1796 19.7009 23.9006Z" fill="#F39800"/>
<path d="M18.3346 26.2842H15.6312V27.1853C15.7184 27.1853 15.7765 27.1853 15.8637 27.1853C16.2126 27.1853 16.6195 27.1853 17.0556 27.3016C17.8113 27.5341 18.2474 28.2027 18.2183 28.9004C18.1311 29.8015 17.4625 30.4991 16.3579 30.4991C15.2242 30.4991 14.4685 29.7724 14.5266 28.755H12.7243C12.6081 30.7898 14.3231 32.2142 16.387 32.2142C18.4799 32.2142 20.0787 30.7317 20.0787 28.9294C20.0787 27.7957 19.3229 26.7783 18.3346 26.3423V26.2842Z" fill="#EE7820"/>
<path d="M38.4491 21.3423H32.7226L32.4609 23.0573H34.2341H38.4491V21.3423Z" fill="#EE7820"/>
<path d="M36.5591 25.0052C35.7452 24.7436 34.5533 24.9471 33.8557 25.325L34.2336 23.0576H32.4604L31.879 26.9528H33.8266C34.1173 26.5749 34.6405 26.3424 35.3091 26.3424C36.3847 26.3424 37.1695 27.1854 37.0823 28.4644C36.9951 29.6562 36.2684 30.441 35.2801 30.441C34.2627 30.441 33.5941 29.7725 33.4487 28.9585H31.6465C31.7918 30.3829 33.1581 32.1561 35.2801 32.1561C37.0532 32.1561 38.9427 30.7317 38.9427 28.4062C38.9427 26.3133 37.6346 25.354 36.5591 25.0052Z" fill="#F39800"/>
<path d="M24.4376 24.8306C23.8271 24.8306 23.362 24.9468 22.9551 25.1503L23.6527 26.5165C23.7981 26.4875 23.9143 26.4875 24.0597 26.4875C25.1643 26.4875 25.9491 27.2723 25.9491 28.5223C25.9491 29.1327 25.7747 29.6269 25.455 29.9757L26.2689 31.5454C27.17 30.8768 27.7514 29.7722 27.7514 28.5223C27.7514 26.4584 26.3561 24.8306 24.4376 24.8306Z" fill="#EE7820"/>
<path d="M24.0903 30.557C22.9857 30.557 22.2008 29.7722 22.2008 28.4932C22.2008 27.4176 22.7822 26.6618 23.6833 26.4874L22.9566 25.1503C22.5787 25.3247 22.288 25.5572 22.0555 25.7898C22.0555 25.3828 22.0845 24.7433 22.3752 23.9875C22.6659 23.2317 23.131 22.5341 24.2356 22.5341C25.3693 22.5341 25.8925 23.3189 26.0088 23.9875H27.6657C27.5204 22.4178 26.1251 20.9062 24.2356 20.9062C22.4915 20.9062 21.2706 21.9818 20.6602 23.5806C20.0497 25.1212 20.0207 27.7374 20.4858 29.2489C21.009 30.9058 22.2299 32.2139 24.1484 32.2139C24.9623 32.2139 25.689 31.9523 26.2704 31.5163L25.4565 29.9757C25.1367 30.3535 24.6426 30.557 24.0903 30.557Z" fill="#F39800"/>
<path d="M43.8852 21.0229C43.3038 21.0229 42.8387 21.488 42.8387 22.0694V23.9007H41.0074C40.426 23.9007 39.9609 24.3658 39.9609 24.9472C39.9609 25.5286 40.426 25.9937 41.0074 25.9937H42.8387V24.9181C42.8387 24.3658 43.3038 23.9007 43.8561 23.9007H44.9317V22.0694C44.9317 21.488 44.4666 21.0229 43.8852 21.0229Z" fill="#52A5DC"/>
<path d="M46.7331 23.8716H44.9308V24.9471C44.9308 25.4994 44.4657 25.9645 43.9134 25.9645H42.8379V27.7668C42.8379 28.3481 43.303 28.8132 43.8844 28.8132C44.4657 28.8132 44.9308 28.3481 44.9308 27.7668V25.9355H46.7622C47.3435 25.9355 47.8086 25.4704 47.8086 24.889C47.7795 24.3367 47.3145 23.8716 46.7331 23.8716Z" fill="#F39700"/>
<path d="M44.9308 23.8716H43.8553C43.303 23.8716 42.8379 24.3367 42.8379 24.889V25.9645H43.9134C44.4657 25.9645 44.9308 25.4994 44.9308 24.9471V23.8716Z" fill="#726931"/>
<path d="M10.8927 18.4355C12.9856 18.4355 13.9449 17.1274 14.3228 16.1391H12.4333C12.2589 16.4007 11.6484 16.8658 10.8636 16.8658C9.58457 16.8658 8.97413 15.5868 8.97413 14.8892H7.17188C7.43349 16.8949 8.88692 18.4355 10.8927 18.4355Z" fill="#3E82B9"/>
<path d="M14.5551 14.9184C14.7586 11.6627 12.8982 10.1802 10.8924 10.1802C8.59601 10.1802 7.14258 12.0115 7.14258 14.3079C7.14258 14.5114 7.17165 14.7149 7.17165 14.9184H8.9739H14.5551ZM10.8634 11.7499C11.8517 11.7499 12.4912 12.3894 12.6656 13.4359H9.00297C9.17738 12.5347 9.81689 11.7499 10.8634 11.7499Z" fill="#52A5DC"/>
<path d="M49.67 18.4355C51.7629 18.4355 52.7222 17.1274 53.1001 16.1391H51.2106C51.0362 16.4007 50.4258 16.8658 49.6409 16.8658C48.3619 16.8658 47.7515 15.5868 47.7515 14.8892H45.9492C46.2108 16.8949 47.6643 18.4355 49.67 18.4355Z" fill="#3E82B9"/>
<path d="M53.3324 14.9184C53.5359 11.6627 51.6755 10.1802 49.6698 10.1802C47.3734 10.1802 45.9199 12.0115 45.9199 14.3079C45.9199 14.5114 45.949 14.7149 45.949 14.9184H47.7512H53.3324ZM49.6407 11.7499C50.629 11.7499 51.2685 12.3894 51.443 13.4359H47.7803C47.9547 12.5347 48.5652 11.7499 49.6407 11.7499Z" fill="#52A5DC"/>
<path d="M26.0663 16.1682C26.0082 16.517 25.5721 16.924 24.671 16.924C23.6245 16.924 23.0722 16.2845 23.0432 15.7612H21.3281C21.3572 16.6333 22.2002 18.4937 24.7582 18.5227C26.0954 18.5227 27.3163 17.767 27.7523 16.7786L26.0663 16.1682Z" fill="#3E82B9"/>
<path d="M27.9264 16.0518C27.9845 15.0926 27.3159 14.3949 26.6183 14.0461C25.8625 13.6391 24.6998 13.4357 24.0893 13.2613C23.508 13.0578 23.2754 12.8252 23.3045 12.4183C23.3626 11.9532 23.8568 11.7206 24.6707 11.7206C25.4556 11.7206 26.0079 12.1857 26.0079 12.5636H27.6648C27.7229 11.3718 26.5311 10.0928 24.5544 10.0928C22.694 10.0928 21.6476 11.3137 21.5313 12.3892C21.4441 13.4066 21.9383 14.1042 23.0138 14.5403C23.6824 14.7728 24.7288 14.9763 25.4265 15.267C25.8625 15.4705 26.0951 15.7321 26.0369 16.0809V16.11L27.7229 16.7204C27.8683 16.546 27.9264 16.3135 27.9264 16.0518Z" fill="#52A5DC"/>
<path d="M38.3336 15.6452C38.0138 16.372 37.4034 16.8661 36.6185 16.8661C35.3977 16.8661 34.6419 15.7034 34.6419 14.3081C34.6419 14.0174 34.6709 13.7558 34.7291 13.5232L33.1303 12.564C32.9268 13.0872 32.8105 13.6976 32.8105 14.3081C32.8105 16.6045 34.264 18.523 36.5895 18.523C38.072 18.523 39.2056 17.7382 39.8451 16.5754L38.3336 15.6452Z" fill="#3E82B9"/>
<path d="M36.6174 11.7788C37.8382 11.7788 38.594 12.9124 38.594 14.3368C38.594 14.831 38.5068 15.2961 38.3324 15.6739L39.873 16.5751C40.2219 15.9065 40.4254 15.1507 40.4254 14.3077C40.4254 12.0113 38.9719 10.0928 36.6464 10.0928C34.9605 10.0928 33.7105 11.1102 33.1582 12.5636L34.757 13.5229C34.9605 12.4764 35.6581 11.7788 36.6174 11.7788Z" fill="#52A5DC"/>
<path d="M44.5253 10.3835C43.944 10.616 43.5951 10.9939 43.3335 11.3718L43.2754 11.3427V14.3949C43.3045 13.4357 43.6242 12.8543 44.2347 12.4764C44.7579 12.0985 45.223 12.0694 45.7172 12.0694V10.0928C45.6881 10.0928 44.9904 10.18 44.5253 10.3835Z" fill="#3E82B9"/>
<path d="M43.2745 11.3428V10.4707H41.4141V18.2611H43.2745V14.5984C43.2745 14.5403 43.2745 14.4822 43.2745 14.395V11.3428Z" fill="#52A5DC"/>
<path d="M29.3223 16.1976C29.3223 16.8661 29.5257 17.4184 29.8455 17.7382C30.2234 18.087 30.6594 18.2614 31.2408 18.2614H32.2291V16.6627C31.8512 16.6627 31.6187 16.6627 31.4152 16.4883C31.1827 16.3138 31.1827 16.1685 31.1827 15.7906V12.0698H29.3223V16.1976Z" fill="#3E82B9"/>
<path d="M32.257 12.0405V10.4127H31.1814V8H29.3211V10.4127H28.4199V12.0405H29.3211V12.0696H31.1814V12.0405H32.257Z" fill="#52A5DC"/>
<path d="M20.5719 13.4648H15.8047V14.9764H20.5719V13.4648Z" fill="#52A5DC"/>
</g>
<defs>
<clipPath id="clip0_411_52308">
<rect width="46.19" height="24.2141" fill="white" transform="translate(7.14258 8)"/>
</clipPath>
</defs>
</svg>
