<svg width="60" height="40" viewBox="0 0 60 40" fill="none" xmlns="http://www.w3.org/2000/svg">
<path d="M26.4757 34.1206L26.5825 35H27.4684H32.5316H33.4175L33.5243 34.1206L33.834 31.5727C33.9952 31.4977 34.1489 31.4186 34.2945 31.3352C34.4464 31.2482 34.5942 31.1497 34.7378 31.0409L37.0738 32.0439L37.8894 32.394L38.3339 31.6259L40.8655 27.2509L41.3128 26.4779L40.5952 25.9464L38.5646 24.4425C38.5845 24.2729 38.5949 24.1045 38.5949 23.9375C38.5949 23.7705 38.5845 23.6021 38.5646 23.4325L40.5952 21.9286L41.338 21.3784L40.8478 20.5947L38.1896 16.3447L37.7448 15.6336L36.9672 15.9478L34.698 16.8645C34.5486 16.7677 34.396 16.6803 34.2402 16.6033C34.1115 16.5398 33.9755 16.4773 33.8326 16.4158L33.5243 13.8794L33.4175 13H32.5316H27.4684H26.5825L26.4757 13.8794L26.1674 16.4158C26.0245 16.4773 25.8885 16.5398 25.7598 16.6033C25.604 16.6803 25.4514 16.7677 25.302 16.8645L23.0328 15.9478L22.2552 15.6336L21.8104 16.3447L19.1522 20.5947L18.662 21.3784L19.4048 21.9286L21.4354 23.4325C21.4154 23.6021 21.4051 23.7705 21.4051 23.9375C21.4051 24.1045 21.4154 24.2729 21.4354 24.4425L19.4048 25.9464L18.6872 26.4779L19.1345 27.2509L21.6661 31.6259L22.1106 32.394L22.9262 32.0439L25.2632 31.0405C25.4054 31.1481 25.5513 31.2459 25.7012 31.3328C25.8483 31.418 26.0035 31.4983 26.1662 31.5741L26.4757 34.1206ZM32.0189 25.976C31.5061 26.4823 30.8595 26.75 30 26.75C29.1405 26.75 28.4938 26.4823 27.9811 25.976C27.4693 25.4705 27.2025 24.8381 27.2025 24C27.2025 23.1619 27.4693 22.5295 27.9811 22.024C28.4938 21.5177 29.1405 21.25 30 21.25C30.8595 21.25 31.5061 21.5177 32.0189 22.024C32.5307 22.5295 32.7975 23.1619 32.7975 24C32.7975 24.8381 32.5307 25.4705 32.0189 25.976Z" fill="#5742D5" stroke="white" stroke-width="2"/>
<path fill-rule="evenodd" clip-rule="evenodd" d="M14 4C12.8954 4 12 4.89543 12 6V27C12 28.1046 12.8954 29 14 29H18.8735L16.6601 25H16C15.4477 25 15 24.5523 15 24V22V12C15 11.4477 15.4477 11 16 11H44C44.5523 11 45 11.4477 45 12V22V24C45 24.5523 44.5523 25 44 25H43.3399L41.1265 29H46C47.1046 29 48 28.1046 48 27V6C48 4.89543 47.1046 4 46 4H14ZM36 7.5C36 8.32843 35.3284 9 34.5 9C33.6716 9 33 8.32843 33 7.5C33 6.67157 33.6716 6 34.5 6C35.3284 6 36 6.67157 36 7.5ZM41 7.5C41 8.32843 40.3284 9 39.5 9C38.6716 9 38 8.32843 38 7.5C38 6.67157 38.6716 6 39.5 6C40.3284 6 41 6.67157 41 7.5ZM44.5 9C45.3284 9 46 8.32843 46 7.5C46 6.67157 45.3284 6 44.5 6C43.6716 6 43 6.67157 43 7.5C43 8.32843 43.6716 9 44.5 9Z" fill="#6483F2"/>
</svg>
