<svg width="61" height="40" viewBox="0 0 61 40" fill="none" xmlns="http://www.w3.org/2000/svg">
<path fill-rule="evenodd" clip-rule="evenodd" d="M44.5723 18.4612V24C44.5723 24.5523 44.1245 25 43.5723 25H30.5723H17.5723C17.02 25 16.5723 24.5523 16.5723 24V10C16.5723 9.44772 17.02 9 17.5723 9H19.5723V6H15.5723C14.4677 6 13.5723 6.89543 13.5723 8V26C13.5723 27.1046 14.4677 28 15.5723 28H45.5723C46.6768 28 47.5723 27.1046 47.5723 26V16.0349L44.5723 18.4612ZM43.5488 9L46.7679 6.39657C46.4344 6.14748 46.0205 6 45.5723 6H41.5723V9H43.5488Z" fill="#22C896"/>
<path fill-rule="evenodd" clip-rule="evenodd" d="M35.8386 15.2355C35.6526 15.3859 35.5267 15.598 35.4837 15.8334L34.6298 20.5093C34.5176 21.1233 34.9893 21.6889 35.6135 21.6889L38.2971 21.6889C38.1149 21.8805 37.8575 22 37.5723 22H23.5723C23.02 22 22.5723 21.5523 22.5723 21V4C22.5723 3.44771 23.02 3 23.5723 3H37.5723C38.1246 3 38.5723 3.44772 38.5723 4V13.0246L35.8386 15.2355Z" fill="#048B73"/>
<path d="M25.5723 9C25.5723 8.44772 26.02 8 26.5723 8H34.5723C35.1246 8 35.5723 8.44772 35.5723 9V9C35.5723 9.55228 35.1246 10 34.5723 10H26.5723C26.02 10 25.5723 9.55228 25.5723 9V9Z" fill="white"/>
<path d="M25.5723 14C25.5723 13.4477 26.02 13 26.5723 13H31.5723C32.1246 13 32.5723 13.4477 32.5723 14V14C32.5723 14.5523 32.1246 15 31.5723 15H26.5723C26.02 15 25.5723 14.5523 25.5723 14V14Z" fill="white"/>
<path d="M36.8303 17.1647C36.8905 16.9825 37.0018 16.8214 37.151 16.7007L48.2558 7.71972C48.6852 7.37243 49.3148 7.439 49.6621 7.86842L50.9198 9.4235C51.2671 9.85292 51.2005 10.4826 50.7711 10.8299L39.655 19.82C39.5129 19.935 39.3421 20.0087 39.161 20.0334L37.3154 20.2845C36.5829 20.3841 35.9992 19.682 36.231 18.9801L36.8303 17.1647Z" fill="#048B73"/>
<path d="M15.5723 32C15.5723 30.8954 16.4677 30 17.5723 30H43.5723C44.6768 30 45.5723 30.8954 45.5723 32V32C45.5723 33.1046 44.6768 34 43.5723 34H17.5723C16.4677 34 15.5723 33.1046 15.5723 32V32Z" fill="#22C896"/>
</svg>
