<svg width="61" height="40" viewBox="0 0 61 40" fill="none" xmlns="http://www.w3.org/2000/svg">
<g clip-path="url(#clip0_411_52345)">
<path d="M30.7352 28.6469C30.7352 29.033 30.9397 29.4192 31.2525 29.5761L31.1082 29.7692C30.8796 29.6485 30.7111 29.4192 30.6149 29.1416C30.5186 29.4433 30.3381 29.6847 30.0975 29.8175L29.9531 29.6244C30.29 29.4554 30.4946 29.0572 30.4946 28.6589V28.3089H30.7352V28.6469ZM31.9865 29.1778H31.6496V30.276H31.409V28.1279H31.6496V28.9848H31.9865V29.1778Z" fill="#D9281E"/>
<path d="M32.8771 29.673C33.0696 29.6609 33.2621 29.6488 33.4426 29.6247L33.4546 29.8057C32.9853 29.8902 32.48 29.8902 32.083 29.8902L32.0469 29.6851C32.2153 29.6851 32.4199 29.6851 32.6124 29.673V29.4678C32.3717 29.4316 32.2153 29.2868 32.2153 29.0696C32.2153 28.8282 32.4319 28.6713 32.7447 28.6713C33.0575 28.6713 33.2621 28.8282 33.2621 29.0696C33.2621 29.2747 33.1057 29.4196 32.865 29.4678V29.673H32.8771ZM33.4065 28.5627H32.107V28.3696H32.6364V28.1283H32.8771V28.3696H33.4065V28.5627ZM32.7567 29.2868C32.9252 29.2868 33.0455 29.2023 33.0455 29.0696C33.0455 28.9368 32.9252 28.8524 32.7567 28.8524C32.5883 28.8524 32.468 28.9368 32.468 29.0696C32.468 29.2023 32.5883 29.2868 32.7567 29.2868ZM33.8155 28.1162V30.2643H33.5629V28.1162H33.8155Z" fill="#D9281E"/>
<path d="M35.2703 29.3349C35.0296 29.2505 34.8612 29.0815 34.7649 28.8764C34.6687 29.1056 34.4882 29.2987 34.2356 29.3832L34.1152 29.1901C34.4521 29.0815 34.6446 28.7919 34.6446 28.5022V28.454H34.1874V28.2609H35.3304V28.454H34.8853V28.4902C34.8853 28.7557 35.0657 29.0212 35.3906 29.1419L35.2703 29.3349ZM34.4401 29.5039H35.8839V30.2642H35.6433V29.697H34.4401V29.5039ZM35.8839 28.1161V29.3953H35.6433V28.8522H35.2703V28.6471H35.6433V28.104H35.8839V28.1161Z" fill="#D9281E"/>
<path d="M37.2804 28.3455C37.2804 28.973 37.0157 29.5161 36.3179 29.8781L36.1855 29.6851C36.7149 29.4196 36.9917 29.0334 37.0398 28.5386H36.2938V28.3334H37.2804V28.3455ZM38.1587 29.1661H37.8339V30.2643H37.5933V28.1162H37.8339V28.961H38.1587V29.1661Z" fill="#D9281E"/>
<path d="M39.0496 28.8041C39.0496 29.142 39.2542 29.492 39.5911 29.6368L39.4587 29.8299C39.2181 29.7213 39.0256 29.504 38.9293 29.2385C38.8331 29.5282 38.6526 29.7575 38.3999 29.8661L38.2676 29.673C38.6045 29.5161 38.809 29.1541 38.809 28.8041V28.6834H38.3398V28.4903H38.809V28.1766H39.0496V28.4903H39.5189V28.6834H39.0496V28.8041ZM40.0122 28.1162V30.2643H39.7715V28.1162H40.0122Z" fill="#D9281E"/>
<path d="M41.0952 28.7437C41.0952 29.1058 41.3118 29.4678 41.6486 29.6126L41.5163 29.8057C41.2636 29.6971 41.0711 29.4678 40.9749 29.1903C40.8786 29.492 40.6861 29.7454 40.4334 29.8661L40.2891 29.673C40.626 29.5161 40.8425 29.1179 40.8425 28.7558V28.5507H40.3613V28.3455H41.5644V28.5507H41.0832V28.7437H41.0952ZM42.0698 28.1162V30.2643H41.8171V28.1162H42.0698Z" fill="#D9281E"/>
<path d="M44.3062 29.8176V30.0227H42.3691V29.8176H42.8745V29.359H42.5256V29.1659H42.8384V28.5142H42.5256V28.3091H44.1378V28.5022H43.825V29.1538H44.1378V29.3469H43.7889V29.8055H44.3062V29.8176ZM43.091 29.1659H43.5843V28.5142H43.091V29.1659ZM43.1271 29.8176H43.5483V29.359H43.1271V29.8176Z" fill="#D9281E"/>
<path d="M14.4328 17.7857C14.4208 17.7857 14.4088 17.7857 14.3967 17.7857H14.3005C14.1441 17.7857 14.0237 17.665 14.0237 17.5081C14.0237 17.3753 14.12 17.2667 14.2403 17.2426L22.47 15.6255C24.5395 15.2152 25.9111 13.2239 25.5622 11.1362L25.2012 9.01221L12.8687 11.4258C12.8446 11.4258 12.8326 11.4379 12.8085 11.4379C10.8113 11.8844 7.97179 13.9722 8.30868 17.9425C8.52525 20.3079 9.59607 21.6716 10.4624 22.3956C11.8821 23.5904 13.4944 23.7473 14.2884 23.7473C14.3727 23.7473 14.4449 23.7473 14.517 23.7473H27.6557L26.6571 17.7857H14.4328Z" fill="#D9281E"/>
<path d="M27.8717 25.0386H10.3535L11.3401 31.0002H28.8703L27.8717 25.0386Z" fill="#D9281E"/>
<path d="M30.8689 22.3594V26.9814H30.2793V22.3594H30.8689Z" fill="#F29B8F"/>
<path d="M31.832 22.3594H32.4216L35.0686 26.1005V22.3594H35.6581V26.9814H35.0686L32.4216 23.2041V26.9814H31.832V22.3594Z" fill="#D9281E"/>
<path d="M36.4395 22.3594H38.3164C38.6653 22.3594 38.9661 22.4197 39.2308 22.5283C39.4835 22.649 39.7001 22.8059 39.8805 23.011C40.049 23.2162 40.1813 23.4576 40.2655 23.7472C40.3498 24.0368 40.3859 24.3385 40.3859 24.6644C40.3859 25.0143 40.3377 25.316 40.2294 25.5936C40.1212 25.8832 39.9647 26.1246 39.7722 26.3298C39.5677 26.5349 39.3271 26.6918 39.0383 26.8125C38.7495 26.9211 38.4247 26.9814 38.0637 26.9814H36.4395V22.3594ZM37.029 26.4866H38.0517C38.3284 26.4866 38.5691 26.4384 38.7856 26.3418C39.0022 26.2453 39.1827 26.1125 39.3271 25.9436C39.4714 25.7746 39.5918 25.5815 39.676 25.3522C39.7482 25.135 39.7963 24.8937 39.7963 24.6402C39.7963 24.3868 39.7602 24.1575 39.7001 23.9282C39.6399 23.711 39.5436 23.5179 39.4113 23.361C39.2789 23.2041 39.1105 23.0714 38.918 22.9748C38.7134 22.8904 38.4728 22.8421 38.1961 22.8421H37.029V26.4866Z" fill="#D9281E"/>
<path d="M44.164 24.3747V24.8575H41.6013V26.4987H44.3445V26.9814H41.0117V22.3594H44.2843V22.8421H41.6013V24.3747H44.164Z" fill="#D9281E"/>
<path d="M44.7526 26.9814L46.3408 24.6885L44.7285 22.3594H45.3782L46.6656 24.2179L47.953 22.3594H48.6027L46.9905 24.6885L48.5907 26.9814H47.929L46.6777 25.1712L45.4264 26.9814H44.7526Z" fill="#D9281E"/>
<path d="M30.1817 13.5984C30.2779 13.6949 30.3982 13.7794 30.5306 13.8518C30.6629 13.9242 30.7953 13.9845 30.9397 14.0449C31.084 14.0932 31.2284 14.1414 31.3728 14.1656C31.5172 14.1897 31.6616 14.2018 31.7939 14.2018C32.1067 14.2018 32.3594 14.1294 32.5519 14.0087C32.7444 13.8759 32.8407 13.6708 32.8407 13.4053C32.8407 13.2967 32.8166 13.1881 32.7685 13.0915C32.7203 13.007 32.6482 12.9226 32.5519 12.8502C32.4556 12.7898 32.3353 12.7295 32.203 12.6691C32.0706 12.6209 31.9142 12.5726 31.7458 12.5243C31.445 12.4398 31.1803 12.3554 30.9637 12.2588C30.7351 12.1743 30.5546 12.0657 30.4223 11.945C30.2779 11.8364 30.1696 11.7037 30.0974 11.5589C30.0252 11.4141 29.9891 11.2451 29.9891 11.0641C29.9891 10.8589 30.0252 10.6779 30.1215 10.5331C30.2057 10.3762 30.314 10.2555 30.4704 10.1469C30.6148 10.0504 30.7953 9.97796 30.9878 9.91762C31.1803 9.86935 31.3969 9.84521 31.6255 9.84521C31.9022 9.84521 32.1789 9.89349 32.4556 9.99003C32.7324 10.0866 32.985 10.2314 33.2377 10.4124L32.9971 10.8348C32.9129 10.7745 32.8166 10.702 32.7083 10.6417C32.6 10.5814 32.4917 10.5331 32.3714 10.4848C32.2511 10.4365 32.1308 10.4003 32.0105 10.3762C31.8902 10.3521 31.7698 10.34 31.6495 10.3279C31.5172 10.3279 31.3848 10.3279 31.2525 10.3521C31.1201 10.3762 30.9998 10.4124 30.9036 10.4728C30.7953 10.5331 30.711 10.6055 30.6509 10.702C30.5907 10.7986 30.5546 10.9193 30.5546 11.052C30.5546 11.1848 30.5667 11.2934 30.6148 11.3779C30.6509 11.4744 30.711 11.5468 30.8073 11.6192C30.8915 11.6916 31.0118 11.752 31.1562 11.8123C31.3006 11.8726 31.469 11.933 31.6856 11.9933C31.9503 12.0778 32.1789 12.1502 32.3955 12.2347C32.6 12.3192 32.7805 12.4157 32.9369 12.5243C33.0813 12.6329 33.1896 12.7657 33.2738 12.8984C33.346 13.0432 33.3941 13.2001 33.3941 13.3811C33.3941 13.6225 33.358 13.8277 33.2738 13.9966C33.1896 14.1656 33.0693 14.2983 32.9129 14.4069C32.7564 14.5155 32.576 14.5879 32.3714 14.6483C32.1549 14.6966 31.9383 14.7207 31.6856 14.7207C31.3608 14.7207 31.0479 14.6724 30.7351 14.5638C30.4103 14.4552 30.1215 14.2983 29.8809 14.0932L30.1817 13.5984Z" fill="#F29B8F"/>
<path d="M33.6582 12.2707C33.6582 11.8966 33.7184 11.5587 33.8507 11.257C33.971 10.9553 34.1395 10.7019 34.356 10.4847C34.5726 10.2795 34.8132 10.1226 35.102 10.002C35.3787 9.89335 35.6795 9.83301 35.9924 9.83301C36.3172 9.83301 36.618 9.89335 36.8947 10.002C37.1715 10.1226 37.4241 10.2795 37.6407 10.4847C37.8452 10.7019 38.0137 10.9553 38.146 11.257C38.2664 11.5587 38.3265 11.8966 38.3265 12.2707C38.3265 12.6569 38.2664 12.9948 38.146 13.2845C38.0137 13.5862 37.8452 13.8396 37.6407 14.0568C37.4241 14.262 37.1835 14.4309 36.8947 14.5395C36.606 14.6481 36.3052 14.7085 35.9924 14.7085C35.6675 14.7085 35.3787 14.6481 35.102 14.5395C34.8132 14.4189 34.5726 14.262 34.356 14.0568C34.1395 13.8517 33.971 13.5982 33.8507 13.2845C33.7184 12.9828 33.6582 12.6449 33.6582 12.2707ZM34.2598 12.2707C34.2598 12.5966 34.3079 12.8741 34.4042 13.1034C34.5004 13.3448 34.6207 13.55 34.7892 13.7189C34.9456 13.8879 35.1381 14.0085 35.3426 14.1051C35.5472 14.1896 35.7638 14.2258 35.9924 14.2258C36.221 14.2258 36.4255 14.1896 36.6421 14.1051C36.8466 14.0206 37.0391 13.8879 37.2076 13.7189C37.364 13.55 37.4963 13.3448 37.6046 13.1034C37.7009 12.8621 37.749 12.5845 37.749 12.2707C37.749 11.957 37.7009 11.6915 37.5926 11.4501C37.4843 11.2088 37.3519 11.0036 37.1835 10.8347C37.0151 10.6778 36.8225 10.545 36.618 10.4605C36.4014 10.3761 36.1969 10.3399 35.9924 10.3399C35.7758 10.3399 35.5712 10.3761 35.3667 10.4605C35.1501 10.545 34.9697 10.6778 34.8132 10.8347C34.6448 11.0036 34.5125 11.2088 34.4042 11.4501C34.3079 11.6794 34.2598 11.957 34.2598 12.2707Z" fill="#D9281E"/>
<path d="M38.5801 12.2707C38.5801 11.9208 38.6402 11.5949 38.7606 11.2932C38.8809 10.9915 39.0373 10.7381 39.2539 10.5209C39.4584 10.3037 39.7111 10.1347 39.9998 10.014C40.2886 9.89335 40.6014 9.83301 40.9263 9.83301C41.3353 9.83301 41.7083 9.92955 42.0572 10.1226C42.4062 10.3157 42.6829 10.5812 42.9115 10.9312L42.4904 11.245C42.3219 10.9795 42.1054 10.7622 41.8407 10.5812C41.5639 10.4123 41.2511 10.3278 40.9142 10.3278C40.6616 10.3278 40.433 10.3761 40.2164 10.4847C39.9998 10.5933 39.8193 10.726 39.6629 10.895C39.5065 11.076 39.3862 11.2812 39.302 11.5105C39.2057 11.7518 39.1696 12.0053 39.1696 12.2707C39.1696 12.5483 39.2178 12.8017 39.314 13.0431C39.3982 13.2845 39.5306 13.4896 39.699 13.6586C39.8675 13.8396 40.06 13.9723 40.3006 14.0689C40.5292 14.1654 40.7819 14.2137 41.0586 14.2137C41.3835 14.2137 41.6602 14.1292 41.9129 13.9603C42.1535 13.7913 42.358 13.562 42.5385 13.2845L42.9476 13.6103C42.719 13.9482 42.4423 14.2137 42.1054 14.4189C41.7565 14.6119 41.3714 14.7085 40.9383 14.7085C40.6255 14.7085 40.3247 14.6481 40.0479 14.5395C39.7592 14.4189 39.5186 14.262 39.302 14.0568C39.0854 13.8396 38.9049 13.5862 38.7846 13.2845C38.6523 12.9828 38.5801 12.6449 38.5801 12.2707Z" fill="#D9281E"/>
<path d="M43.9939 9.96582V14.5879H43.4043V9.96582H43.9939Z" fill="#D9281E"/>
<path d="M48.9632 9.96582H49.5528V14.0931H52.1636V14.5758H48.9512V9.96582H48.9632Z" fill="#D9281E"/>
<path d="M46.8224 9.96582H46.2208L44.416 14.5879H45.0296L46.5216 10.7382L48.0135 14.5879H48.6271L46.8224 9.96582Z" fill="#D9281E"/>
<path d="M33.1777 16.3735H33.7914L35.2833 20.2232L36.7752 16.3735H37.3888L35.5841 20.9956H34.9825L33.1777 16.3735Z" fill="#F29B8F"/>
<path d="M41.1195 16.3735H41.709V20.5008H44.3199V20.9835H41.1074V16.3735H41.1195Z" fill="#D9281E"/>
<path d="M46.472 21.1163C46.1832 21.1163 45.9305 21.068 45.7019 20.9835C45.4613 20.887 45.2567 20.7542 45.0883 20.5973C44.9199 20.4284 44.7875 20.2353 44.6913 20.006C44.595 19.7888 44.5469 19.5474 44.5469 19.2819V16.3735H45.1364V19.2216C45.1364 19.4026 45.1605 19.5716 45.2207 19.7284C45.2688 19.8974 45.353 20.0422 45.4733 20.1629C45.5816 20.2956 45.726 20.3922 45.8824 20.4646C46.0388 20.537 46.2313 20.5732 46.4479 20.5732C46.6645 20.5732 46.857 20.537 47.0254 20.4646C47.1818 20.3922 47.3262 20.2956 47.4345 20.1629C47.5428 20.0422 47.627 19.8853 47.6872 19.7284C47.7353 19.5716 47.7714 19.3905 47.7714 19.2216V16.3735H48.3609V19.2819C48.3609 19.5474 48.3128 19.7767 48.2165 20.006C48.1203 20.2353 47.9879 20.4284 47.8195 20.5973C47.6511 20.7542 47.4465 20.887 47.2179 20.9835C47.0013 21.068 46.7487 21.1163 46.472 21.1163Z" fill="#D9281E"/>
<path d="M52.1155 18.3889V18.8716H49.5528V20.5129H52.296V20.9956H48.9512V16.3735H52.2238V16.8563H49.5528V18.3889H52.1155Z" fill="#D9281E"/>
<path d="M38.881 16.3735H38.2673L36.4746 20.9956H37.0882L38.5681 17.1459L40.0601 20.9956H40.6737L38.881 16.3735Z" fill="#D9281E"/>
</g>
<defs>
<clipPath id="clip0_411_52345">
<rect width="44" height="22" fill="white" transform="translate(8.28516 9)"/>
</clipPath>
</defs>
</svg>
