<svg width="61" height="40" viewBox="0 0 61 40" fill="none" xmlns="http://www.w3.org/2000/svg">
<path fill-rule="evenodd" clip-rule="evenodd" d="M43.4586 13.6001C44.7548 13.6001 46.0204 13.9937 47.0879 14.7287C48.1555 15.4638 48.9748 16.5056 49.4373 17.7164C49.8998 18.9272 49.9837 20.2499 49.6781 21.5095C49.3724 22.769 48.6914 23.9061 47.7254 24.7702V33.3409C47.7254 33.5228 47.6788 33.7017 47.5902 33.8605C47.5016 34.0194 47.3738 34.1529 47.2191 34.2485C47.0643 34.344 46.8876 34.3984 46.7059 34.4065C46.5242 34.4145 46.3434 34.376 46.1808 34.2945L43.4586 32.9334L40.7364 34.2945C40.5738 34.376 40.393 34.4145 40.2113 34.4065C40.0296 34.3984 39.8529 34.344 39.6981 34.2485C39.5434 34.1529 39.4156 34.0194 39.327 33.8605C39.2383 33.7017 39.1918 33.5228 39.1918 33.3409V24.7702C38.2257 23.9061 37.5448 22.769 37.2391 21.5095C36.9334 20.2499 37.0174 18.9272 37.4799 17.7164C37.9424 16.5056 38.7617 15.4638 39.8292 14.7287C40.8968 13.9937 42.1624 13.6001 43.4586 13.6001Z" fill="#BD20F4"/>
<path fill-rule="evenodd" clip-rule="evenodd" d="M45.2574 5C46.2122 5 47.1279 5.37928 47.803 6.05442C48.4781 6.72955 48.8574 7.64522 48.8574 8.6V12.8C47.1243 11.5001 44.9804 10.8691 42.8194 11.0226C40.6584 11.1762 38.6254 12.1041 37.0935 13.636C35.5616 15.1679 34.6336 17.201 34.4801 19.362C34.3265 21.523 34.9576 23.6669 36.2574 25.4V28.8H16.4574C15.5026 28.8 14.587 28.4207 13.9118 27.7456C13.2367 27.0705 12.8574 26.1548 12.8574 25.2V8.6C12.8574 7.64522 13.2367 6.72955 13.9118 6.05442C14.587 5.37928 15.5026 5 16.4574 5H45.2574ZM23.6574 18.2H20.0574C19.58 18.2 19.1222 18.3896 18.7846 18.7272C18.4471 19.0648 18.2574 19.5226 18.2574 20C18.2574 20.4774 18.4471 20.9352 18.7846 21.2728C19.1222 21.6104 19.58 21.8 20.0574 21.8H23.6574C24.1348 21.8 24.5926 21.6104 24.9302 21.2728C25.2678 20.9352 25.4574 20.4774 25.4574 20C25.4574 19.5226 25.2678 19.0648 24.9302 18.7272C24.5926 18.3896 24.1348 18.2 23.6574 18.2ZM30.8574 11H20.0574C19.5986 11.0005 19.1574 11.1762 18.8238 11.4911C18.4902 11.8061 18.2894 12.2365 18.2625 12.6945C18.2356 13.1525 18.3846 13.6035 18.6791 13.9553C18.9736 14.3071 19.3912 14.5332 19.8468 14.5874L20.0574 14.6H30.8574C31.3162 14.5995 31.7575 14.4238 32.0911 14.1089C32.4247 13.7939 32.6254 13.3635 32.6523 12.9055C32.6792 12.4475 32.5302 11.9965 32.2357 11.6447C31.9413 11.2929 31.5236 11.0668 31.068 11.0126L30.8574 11Z" fill="#8F67FF"/>
</svg>
