<svg width="24" height="48" viewBox="0 0 24 48" fill="none" xmlns="http://www.w3.org/2000/svg">
<path d="M13 3H6C4.89543 3 4 3.89543 4 5V19C4 20.1046 4.89543 21 6 21H13" stroke="#222222" stroke-width="2" stroke-linecap="round"/>
<path d="M11.5 11C10.9477 11 10.5 11.4477 10.5 12C10.5 12.5523 10.9477 13 11.5 13V11ZM11.5 13H20V11H11.5V13Z" fill="#222222"/>
<path d="M17.5 8.5L21 12L17.5 15.5" stroke="#222222" stroke-width="2" stroke-linecap="round" stroke-linejoin="round"/>
<path d="M13 27H6C4.89543 27 4 27.8954 4 29V43C4 44.1046 4.89543 45 6 45H13" stroke="#407AEC" stroke-width="2" stroke-linecap="round"/>
<path d="M11.5 35C10.9477 35 10.5 35.4477 10.5 36C10.5 36.5523 10.9477 37 11.5 37V35ZM11.5 37H20V35H11.5V37Z" fill="#407AEC"/>
<path d="M17.5 32.5L21 36L17.5 39.5" stroke="#407AEC" stroke-width="2" stroke-linecap="round" stroke-linejoin="round"/>
</svg>
