<svg width="24" height="48" viewBox="0 0 24 48" fill="none" xmlns="http://www.w3.org/2000/svg">
<path d="M16 19H22M19 16V22M6 21V19C6 17.9391 6.42143 16.9217 7.17157 16.1716C7.92172 15.4214 8.93913 15 10 15H14M8 7C8 8.06087 8.42143 9.07828 9.17157 9.82843C9.92172 10.5786 10.9391 11 12 11C13.0609 11 14.0783 10.5786 14.8284 9.82843C15.5786 9.07828 16 8.06087 16 7C16 5.93913 15.5786 4.92172 14.8284 4.17157C14.0783 3.42143 13.0609 3 12 3C10.9391 3 9.92172 3.42143 9.17157 4.17157C8.42143 4.92172 8 5.93913 8 7Z" stroke="#222222" stroke-width="2" stroke-linecap="round" stroke-linejoin="round"/>
<path d="M16 43H22M19 40V46M6 45V43C6 41.9391 6.42143 40.9217 7.17157 40.1716C7.92172 39.4214 8.93913 39 10 39H14M8 31C8 32.0609 8.42143 33.0783 9.17157 33.8284C9.92172 34.5786 10.9391 35 12 35C13.0609 35 14.0783 34.5786 14.8284 33.8284C15.5786 33.0783 16 32.0609 16 31C16 29.9391 15.5786 28.9217 14.8284 28.1716C14.0783 27.4214 13.0609 27 12 27C10.9391 27 9.92172 27.4214 9.17157 28.1716C8.42143 28.9217 8 29.9391 8 31Z" stroke="#407AEC" stroke-width="2" stroke-linecap="round" stroke-linejoin="round"/>
</svg>
