<svg width="24" height="48" viewBox="0 0 24 48" fill="none" xmlns="http://www.w3.org/2000/svg">
<path d="M12 17C11.4696 17 10.9609 16.7893 10.5858 16.4142C10.2107 16.0391 10 15.5304 10 15C10 13.89 10.89 13 12 13C12.5304 13 13.0391 13.2107 13.4142 13.5858C13.7893 13.9609 14 14.4696 14 15C14 15.5304 13.7893 16.0391 13.4142 16.4142C13.0391 16.7893 12.5304 17 12 17ZM18 20V10H6V20H18ZM18 8C18.5304 8 19.0391 8.21071 19.4142 8.58579C19.7893 8.96086 20 9.46957 20 10V20C20 20.5304 19.7893 21.0391 19.4142 21.4142C19.0391 21.7893 18.5304 22 18 22H6C5.46957 22 4.96086 21.7893 4.58579 21.4142C4.21071 21.0391 4 20.5304 4 20V10C4 8.89 4.89 8 6 8H7V6C7 4.67392 7.52678 3.40215 8.46447 2.46447C9.40215 1.52678 10.6739 1 12 1C12.6566 1 13.3068 1.12933 13.9134 1.3806C14.52 1.63188 15.0712 2.00017 15.5355 2.46447C15.9998 2.92876 16.3681 3.47995 16.6194 4.08658C16.8707 4.69321 17 5.34339 17 6V8H18ZM12 3C11.2044 3 10.4413 3.31607 9.87868 3.87868C9.31607 4.44129 9 5.20435 9 6V8H15V6C15 5.20435 14.6839 4.44129 14.1213 3.87868C13.5587 3.31607 12.7956 3 12 3Z" fill="#222222"/>
<path d="M12 41C11.4696 41 10.9609 40.7893 10.5858 40.4142C10.2107 40.0391 10 39.5304 10 39C10 37.89 10.89 37 12 37C12.5304 37 13.0391 37.2107 13.4142 37.5858C13.7893 37.9609 14 38.4696 14 39C14 39.5304 13.7893 40.0391 13.4142 40.4142C13.0391 40.7893 12.5304 41 12 41ZM18 44V34H6V44H18ZM18 32C18.5304 32 19.0391 32.2107 19.4142 32.5858C19.7893 32.9609 20 33.4696 20 34V44C20 44.5304 19.7893 45.0391 19.4142 45.4142C19.0391 45.7893 18.5304 46 18 46H6C5.46957 46 4.96086 45.7893 4.58579 45.4142C4.21071 45.0391 4 44.5304 4 44V34C4 32.89 4.89 32 6 32H7V30C7 28.6739 7.52678 27.4021 8.46447 26.4645C9.40215 25.5268 10.6739 25 12 25C12.6566 25 13.3068 25.1293 13.9134 25.3806C14.52 25.6319 15.0712 26.0002 15.5355 26.4645C15.9998 26.9288 16.3681 27.48 16.6194 28.0866C16.8707 28.6932 17 29.3434 17 30V32H18ZM12 27C11.2044 27 10.4413 27.3161 9.87868 27.8787C9.31607 28.4413 9 29.2044 9 30V32H15V30C15 29.2044 14.6839 28.4413 14.1213 27.8787C13.5587 27.3161 12.7956 27 12 27Z" fill="#407AEC"/>
</svg>
