<svg width="24" height="48" viewBox="0 0 24 48" fill="none" xmlns="http://www.w3.org/2000/svg">
<path d="M6 21V19C6 17.9391 6.42143 16.9217 7.17157 16.1716C7.92172 15.4214 8.93913 15 10 15H14M8 7C8 8.06087 8.42143 9.07828 9.17157 9.82843C9.92172 10.5786 10.9391 11 12 11C13.0609 11 14.0783 10.5786 14.8284 9.82843C15.5786 9.07828 16 8.06087 16 7C16 5.93913 15.5786 4.92172 14.8284 4.17157C14.0783 3.42143 13.0609 3 12 3C10.9391 3 9.92172 3.42143 9.17157 4.17157C8.42143 4.92172 8 5.93913 8 7Z" stroke="#222222" stroke-width="2" stroke-linecap="round" stroke-linejoin="round"/>
<path d="M19.1674 15.3145C19.3687 15.1131 19.6417 15 19.9264 15C20.2111 15 20.4842 15.113 20.6855 15.3143C20.8868 15.5156 21 15.7886 21 16.0733C21 16.358 20.887 16.631 20.6857 16.8323L20.4181 17.1002L18.9001 15.582L19.1674 15.3145ZM18.5821 15.9003L13.5821 20.8997C13.4602 21.0216 13.3746 21.1749 13.3346 21.3425L13.0061 22.723C12.9972 22.7604 12.998 22.7994 13.0085 22.8364C13.019 22.8734 13.0388 22.907 13.066 22.9342C13.0932 22.9614 13.1269 22.9811 13.1639 22.9915C13.2009 23.002 13.2399 23.0028 13.2773 22.9938L14.6576 22.6651C14.8253 22.6252 14.9787 22.5395 15.1007 22.4176L20.1001 17.4182L18.5821 15.9003Z" fill="#222222"/>
<path d="M6 45V43C6 41.9391 6.42143 40.9217 7.17157 40.1716C7.92172 39.4214 8.93913 39 10 39H14M8 31C8 32.0609 8.42143 33.0783 9.17157 33.8284C9.92172 34.5786 10.9391 35 12 35C13.0609 35 14.0783 34.5786 14.8284 33.8284C15.5786 33.0783 16 32.0609 16 31C16 29.9391 15.5786 28.9217 14.8284 28.1716C14.0783 27.4214 13.0609 27 12 27C10.9391 27 9.92172 27.4214 9.17157 28.1716C8.42143 28.9217 8 29.9391 8 31Z" stroke="#407AEC" stroke-width="2" stroke-linecap="round" stroke-linejoin="round"/>
<path d="M19.1674 39.3145C19.3687 39.1131 19.6417 39 19.9264 39C20.2111 39 20.4842 39.113 20.6855 39.3143C20.8868 39.5156 21 39.7886 21 40.0733C21 40.358 20.887 40.631 20.6857 40.8323L20.4181 41.1002L18.9001 39.582L19.1674 39.3145ZM18.5821 39.9003L13.5821 44.8997C13.4602 45.0216 13.3746 45.1749 13.3346 45.3425L13.0061 46.723C12.9972 46.7604 12.998 46.7994 13.0085 46.8364C13.019 46.8734 13.0388 46.907 13.066 46.9342C13.0932 46.9614 13.1269 46.9811 13.1639 46.9915C13.2009 47.002 13.2399 47.0028 13.2773 46.9938L14.6576 46.6651C14.8253 46.6252 14.9787 46.5395 15.1007 46.4176L20.1001 41.4182L18.5821 39.9003Z" fill="#407AEC"/>
</svg>
