<svg width="32" height="32" viewBox="0 0 32 32" fill="none" xmlns="http://www.w3.org/2000/svg">
<rect x="4" y="4" width="24" height="24" rx="4" fill="#006012"/>
<path d="M12.9392 19.6977L9.62542 16.3863C9.44686 16.2078 9.20467 16.1076 8.95215 16.1076C8.69962 16.1076 8.45744 16.2078 8.27888 16.3863C8.10032 16.5647 8 16.8067 8 17.0591C8 17.184 8.02463 17.3077 8.07248 17.4232C8.12033 17.5386 8.19046 17.6435 8.27888 17.7318L12.2708 21.7209C12.6432 22.093 13.2448 22.093 13.6173 21.7209L23.7211 11.6243C23.8997 11.4458 24 11.2038 24 10.9515C24 10.6991 23.8997 10.4571 23.7211 10.2787C23.5426 10.1002 23.3004 10 23.0479 10C22.7953 10 22.5531 10.1002 22.3746 10.2787L12.9392 19.6977Z" fill="white"/>
</svg>
