<svg width="24" height="24" viewBox="0 0 24 24" fill="none" xmlns="http://www.w3.org/2000/svg">
<circle cx="12" cy="12" r="12" fill="#006012"/>
<path d="M9.70444 14.4651L7.21906 12.2575C7.08514 12.1386 6.90351 12.0717 6.71411 12.0717C6.52472 12.0717 6.34308 12.1386 6.20916 12.2575C6.07524 12.3765 6 12.5378 6 12.706C6 12.7893 6.01847 12.8718 6.05436 12.9488C6.09025 13.0257 6.14285 13.0957 6.20916 13.1546L9.20306 15.8139C9.4824 16.062 9.93363 16.062 10.213 15.8139L17.7908 9.08284C17.9248 8.96388 18 8.80254 18 8.63431C18 8.46608 17.9248 8.30474 17.7908 8.18579C17.6569 8.06683 17.4753 8 17.2859 8C17.0965 8 16.9149 8.06683 16.7809 8.18579L9.70444 14.4651Z" fill="white"/>
</svg>
