<svg width="131" height="130" viewBox="0 0 131 130" fill="none" xmlns="http://www.w3.org/2000/svg">
<rect x="0.5" width="130" height="130" rx="65" fill="#F8F8F8"/>
<rect x="40.5" y="28" width="50" height="75" fill="#F2FEF4"/>
<path d="M83.3438 109C86.0374 109 88.6206 107.93 90.5253 106.025C92.43 104.121 93.5 101.537 93.5 98.8438L93.5 31.6562C93.5 28.9626 92.43 26.3794 90.5253 24.4747C88.6206 22.57 86.0373 21.5 83.3437 21.5L47.4062 21.5C44.7126 21.5 42.1294 22.57 40.2247 24.4747C38.32 26.3794 37.25 28.9627 37.25 31.6563L37.25 98.8438C37.25 101.537 38.32 104.121 40.2247 106.025C42.1294 107.93 44.7126 109 47.4062 109L83.3438 109ZM87.25 98.8438C87.25 101 85.5 102.75 83.3437 102.75L47.4062 102.75C45.25 102.75 43.5 101 43.5 98.8438L43.5 31.6563C43.5 29.5 45.25 27.75 47.4062 27.75L83.3437 27.75C85.5 27.75 87.25 29.5 87.25 31.6563L87.25 98.8438ZM71.625 40.25C72.4538 40.25 73.2487 39.9208 73.8347 39.3347C74.4208 38.7487 74.75 37.9538 74.75 37.125C74.75 36.2962 74.4208 35.5013 73.8347 34.9153C73.2487 34.3292 72.4538 34 71.625 34L59.125 34C58.2962 34 57.5013 34.3292 56.9153 34.9153C56.3292 35.5013 56 36.2962 56 37.125C56 37.9538 56.3292 38.7487 56.9153 39.3347C57.5013 39.9208 58.2962 40.25 59.125 40.25L71.625 40.25Z" fill="#2D873E"/>
</svg>
