<svg width="80" height="53" viewBox="0 0 80 53" fill="none" xmlns="http://www.w3.org/2000/svg">
<path d="M24.5419 42.8316L8.0763 28.206C7.18907 27.4179 5.98572 26.9752 4.73099 26.9752C3.47625 26.9752 2.27291 27.4179 1.38567 28.206C0.498442 28.9941 0 30.063 0 31.1775C0 31.7294 0.122372 32.2758 0.360126 32.7857C0.59788 33.2955 0.946361 33.7588 1.38567 34.149L21.2203 51.7672C23.0709 53.411 26.0603 53.411 27.9109 51.7672L78.1143 7.1738C79.0016 6.38571 79.5 5.31684 79.5 4.20231C79.5 3.08779 79.0016 2.01892 78.1143 1.23083C77.2271 0.442744 76.0238 0 74.769 0C73.5143 0 72.3109 0.442744 71.4237 1.23083L24.5419 42.8316Z" fill="#006012"/>
</svg>
