<svg xmlns="http://www.w3.org/2000/svg" viewBox="0 0 388.35 388.35"><defs><style>.cls-1{fill:#ffeb00;}.cls-2{fill:#3c1e1e;}</style></defs><g id="레이어_2" data-name="레이어 2"><g id="Layer_1" data-name="Layer 1"><circle class="cls-1" cx="194.17" cy="194.17" r="194.17" transform="translate(-80.43 194.17) rotate(-45)"/><path class="cls-2" d="M196,293.31a163.76,163.76,0,0,1-24.54-1.48,4.2,4.2,0,0,0-3.27.8c-16.16,11.34-32.31,22.7-49,33.27-2,1.28-4.15,2.43-6.23,3.61a6.72,6.72,0,0,1-2.39.82c-2.67.36-4.24-1.21-3.67-3.86,1-4.65,2.38-9.2,3.68-13.77q4.93-17.31,9.91-34.62c.29-1,.19-1.49-.86-2-15.74-8-29.62-18.36-40.95-32-11.19-13.45-18.75-28.66-21.44-46-3.08-19.87.43-38.65,10-56.29,9.39-17.26,22.92-30.64,39.27-41.27,17.45-11.35,36.6-18.4,57-22.09a170.87,170.87,0,0,1,45.94-2c29,2.63,55.69,11.55,79.26,28.93,15.65,11.53,28.23,25.75,35.88,43.78,12.26,28.86,9.69,56.78-6.61,83.39-10.45,17.06-25.1,29.85-42.31,39.82A155.51,155.51,0,0,1,222.89,291,170.58,170.58,0,0,1,196,293.31Z"/><path class="cls-1" d="M260.1,177a10.46,10.46,0,0,1,.91-1.27q10.2-10.22,20.41-20.42a6.7,6.7,0,0,1,8.75-1.11,7.73,7.73,0,0,1,3.66,8.6,7.09,7.09,0,0,1-2,3c-5.58,5.56-11.13,11.15-16.74,16.69-.78.77-.74,1.21-.11,2q9.33,12.27,18.58,24.6A8,8,0,1,1,281,219c-5.54-7.28-11-14.59-16.55-21.89a4,4,0,0,0-.42-.57c-.65-.62-.83-1.84-1.84-1.91-.78-.05-2.59,2.78-2.59,3.7,0,5.48,0,10.95,0,16.42a7.8,7.8,0,0,1-6.57,7.58,7.91,7.91,0,0,1-8.58-4.55,8.1,8.1,0,0,1-.73-3.43q0-27.11,0-54.21a7.94,7.94,0,1,1,15.88-.06c.05,5.19,0,10.38,0,15.57v1.09Z"/><path class="cls-1" d="M165,208.56c-3.67,0-7.36,0-11,0a1.33,1.33,0,0,0-1.52,1c-.94,2.62-2,5.2-3,7.79-1.52,4-4.31,5.6-8.62,5-5.57-.82-7.49-3.66-6.31-9.37.74-3.57,2.29-6.86,3.57-10.25q8.06-21.32,16.18-42.62a11.65,11.65,0,0,1,8.92-7.84c5-1,10.27,2.22,12.28,7.43,3,7.76,5.93,15.56,8.88,23.34q5,13.13,10,26.26a16.87,16.87,0,0,1,1.27,7.6,5.07,5.07,0,0,1-3.49,4.68,12.15,12.15,0,0,1-5,.83c-3.18-.19-5.56-1.4-6.6-4.72-.84-2.69-2-5.27-3-7.93a1.47,1.47,0,0,0-1.68-1.2C172.27,208.61,168.64,208.56,165,208.56Z"/><path class="cls-1" d="M109.89,191.77c0-7.55,0-15.1,0-22.64,0-1.19-.21-1.63-1.52-1.59-3.54.11-7.08.06-10.61,0-4.64,0-8.06-3.28-8.09-7.66a7.76,7.76,0,0,1,8-7.91q20.16-.06,40.32,0a7.8,7.8,0,0,1,2.19,15.35,9.18,9.18,0,0,1-2.39.22c-3.54,0-7.07.06-10.61,0-1.16,0-1.39.36-1.38,1.43q0,22.58,0,45.14c0,4-2,6.91-5.47,8a7.91,7.91,0,0,1-10.48-7.57C109.86,207,109.89,199.36,109.89,191.77Z"/><path class="cls-1" d="M199.83,186.9c0-9,0-17.93,0-26.89a8,8,0,0,1,7.32-8,8.15,8.15,0,0,1,8.66,6,11.24,11.24,0,0,1,.23,2.95q0,22.14,0,44.29c0,1.26.33,1.56,1.57,1.55q7.78-.12,15.56,0a7.38,7.38,0,0,1,7.46,6.85,7.26,7.26,0,0,1-7,7.61q-13.44.16-26.88,0a7.22,7.22,0,0,1-6.93-7.35Q199.81,200.41,199.83,186.9Z"/><path class="cls-2" d="M165,171.89c2.71,7.71,5.3,15.06,7.94,22.56h-10c-1.56,0-3.12,0-4.67,0-1,.05-1.16-.21-.82-1.15,2.05-5.71,4.05-11.44,6.07-17.16C163.94,174.87,164.39,173.58,165,171.89Z"/></g></g></svg>