<svg width="34" height="34" viewBox="0 0 34 34" fill="none" xmlns="http://www.w3.org/2000/svg">
<path d="M16.9759 5C11.4337 5 7 9.45362 7 15.0206C7 18.9418 9.21687 22.282 12.4458 23.9763L12.0602 23.8795C11.8675 25.3801 10.4699 26.6872 10.4699 26.6872C13.6024 27.026 15.0482 25.6222 15.5301 24.9445C16.012 24.9929 16.494 25.0413 16.9759 25.0413C22.5181 25.0413 27 20.5392 27 14.9722C27 9.45362 22.5181 5 16.9759 5Z" stroke="#222222" stroke-width="2.5" stroke-miterlimit="10" stroke-linecap="round" stroke-linejoin="round"/>
<path d="M24.9778 19.5215C27.2097 19.5215 29.0865 21.4054 29.0865 23.7603C29.0865 25.3826 28.1735 26.7955 26.8546 27.5281L27.0068 27.4758C27.1083 28.1038 27.6662 28.6271 27.6662 28.6271C26.3981 28.7841 25.7894 28.1561 25.5865 27.8944C25.3836 27.9468 25.1807 27.9468 24.9778 27.9468C22.746 27.9468 20.8691 26.0629 20.8691 23.708C20.9199 21.4054 22.746 19.5215 24.9778 19.5215Z" fill="white" stroke="#222222" stroke-width="2.5" stroke-miterlimit="10" stroke-linecap="round" stroke-linejoin="round"/>
<path d="M13.0889 12.7627V17.7393H11.9746V12.7627H13.0889ZM15.0474 14.8613V15.7227H12.7778V14.8613H15.0474ZM15.2661 12.7627V13.6274H12.7778V12.7627H15.2661ZM16.8849 13.7095L15.5997 17.7393H14.4103L16.2525 12.7627H17.0045L16.8849 13.7095ZM17.9513 17.7393L16.6627 13.7095L16.5294 12.7627H17.2916L19.1407 17.7393H17.9513ZM17.8966 15.8867V16.748H15.3023V15.8867H17.8966ZM21.8771 16.96L23.2443 18.0435L22.5471 18.6382L21.2038 17.5547L21.8771 16.96ZM23.2922 15.1416V15.3638C23.2922 15.742 23.2398 16.0815 23.135 16.3823C23.0301 16.6831 22.882 16.9395 22.6906 17.1514C22.4992 17.3633 22.2725 17.5262 22.0104 17.6401C21.7507 17.7518 21.4624 17.8076 21.1457 17.8076C20.829 17.8076 20.5396 17.7518 20.2775 17.6401C20.0155 17.5262 19.7876 17.3633 19.5939 17.1514C19.4025 16.9395 19.2544 16.6831 19.1496 16.3823C19.0448 16.0815 18.9924 15.742 18.9924 15.3638V15.1416C18.9924 14.7633 19.0448 14.4238 19.1496 14.123C19.2544 13.82 19.4014 13.5625 19.5905 13.3506C19.7819 13.1387 20.0087 12.9769 20.2707 12.8652C20.5327 12.7513 20.8221 12.6943 21.1389 12.6943C21.4556 12.6943 21.745 12.7513 22.007 12.8652C22.2691 12.9769 22.4958 13.1387 22.6872 13.3506C22.8786 13.5625 23.0267 13.82 23.1315 14.123C23.2386 14.4238 23.2922 14.7633 23.2922 15.1416ZM22.1608 15.3638V15.1348C22.1608 14.8818 22.1381 14.6585 22.0925 14.4648C22.0492 14.2689 21.9831 14.1048 21.8942 13.9727C21.8076 13.8405 21.7006 13.7414 21.5729 13.6753C21.4453 13.6069 21.3007 13.5728 21.1389 13.5728C20.9725 13.5728 20.8256 13.6069 20.6979 13.6753C20.5726 13.7414 20.4667 13.8405 20.3801 13.9727C20.2958 14.1048 20.2308 14.2689 20.1853 14.4648C20.142 14.6585 20.1203 14.8818 20.1203 15.1348V15.3638C20.1203 15.6144 20.142 15.8377 20.1853 16.0337C20.2308 16.2274 20.2969 16.3914 20.3835 16.5259C20.4701 16.6603 20.5772 16.7617 20.7048 16.8301C20.8324 16.8984 20.9794 16.9326 21.1457 16.9326C21.3075 16.9326 21.451 16.8984 21.5764 16.8301C21.704 16.7617 21.8111 16.6603 21.8977 16.5259C21.9842 16.3914 22.0492 16.2274 22.0925 16.0337C22.1381 15.8377 22.1608 15.6144 22.1608 15.3638Z" fill="#222222"/>
</svg>
