<svg width="20" height="20" viewBox="0 0 20 20" fill="none" xmlns="http://www.w3.org/2000/svg">
<path fill-rule="evenodd" clip-rule="evenodd" d="M2 9.759C2 5.47382 5.47382 2 9.759 2C12.1334 2 14.2595 3.06611 15.6837 4.7486L14.1318 5.85065C13.5936 6.23283 13.7274 7.06624 14.3582 7.26078L18.6636 8.58864C19.1641 8.74302 19.6748 8.38036 19.694 7.85691L19.8591 3.3544C19.8832 2.69477 19.1405 2.29382 18.6023 2.676L17.3189 3.58736C15.5304 1.39909 12.8084 0 9.759 0C4.36925 0 0 4.36925 0 9.759C0 15.1487 4.36925 19.518 9.759 19.518C14.0647 19.518 17.7167 16.7302 19.0134 12.8639C19.189 12.3403 18.9069 11.7735 18.3833 11.5978C17.8597 11.4222 17.2928 11.7044 17.1172 12.228C16.0856 15.3039 13.1795 17.518 9.759 17.518C5.47382 17.518 2 14.0442 2 9.759Z" fill="white"/>
</svg>
