<svg width="44" height="44" viewBox="0 0 44 44" fill="none" xmlns="http://www.w3.org/2000/svg">
<path d="M40.2043 41.0667H28.9937C28.5108 41.0667 28.1313 40.7434 28.1313 40.3319V17.496C28.1313 17.1874 28.3556 16.9082 28.6833 16.8053L39.8939 13.2345C40.1526 13.1463 40.463 13.1757 40.6872 13.3226C40.9114 13.4549 41.0667 13.69 41.0667 13.9251V40.3319C41.0667 40.7287 40.6872 41.0667 40.2043 41.0667ZM29.8561 39.5972H39.342V14.9832L29.8561 18.0103V39.5972Z" fill="#8CC8FF"/>
<path d="M12.8847 41.0667H3.79546C3.31254 41.0667 2.93311 40.7434 2.93311 40.332V22.0074C2.93311 21.5959 3.31254 21.2726 3.79546 21.2726H12.8847C13.3676 21.2726 13.747 21.5959 13.747 22.0074V40.332C13.747 40.7287 13.3676 41.0667 12.8847 41.0667ZM4.65781 39.5972H12.0223V22.7421H4.65781V39.5972Z" fill="#8CC8FF"/>
<path d="M18.0933 16.4527H16.9205C16.4375 16.4527 16.0581 16.1294 16.0581 15.718C16.0581 15.3065 16.4375 14.9832 16.9205 14.9832H18.0933C18.5762 14.9832 18.9556 15.3065 18.9556 15.718C18.9556 16.1294 18.5762 16.4527 18.0933 16.4527Z" fill="#8CC8FF"/>
<path d="M24.9575 16.4527H23.7847C23.3018 16.4527 22.9224 16.1294 22.9224 15.718C22.9224 15.3065 23.3018 14.9832 23.7847 14.9832H24.9575C25.4404 14.9832 25.8199 15.3065 25.8199 15.718C25.8199 16.1294 25.4404 16.4527 24.9575 16.4527Z" fill="#8CC8FF"/>
<path d="M18.0933 20.3322H16.9205C16.4375 20.3322 16.0581 20.0089 16.0581 19.5974C16.0581 19.186 16.4375 18.8627 16.9205 18.8627H18.0933C18.5762 18.8627 18.9556 19.186 18.9556 19.5974C18.9556 20.0089 18.5762 20.3322 18.0933 20.3322Z" fill="#8CC8FF"/>
<path d="M24.9575 20.3322H23.7847C23.3018 20.3322 22.9224 20.0089 22.9224 19.5974C22.9224 19.186 23.3018 18.8627 23.7847 18.8627H24.9575C25.4404 18.8627 25.8199 19.186 25.8199 19.5974C25.8199 20.0089 25.4404 20.3322 24.9575 20.3322Z" fill="#8CC8FF"/>
<path d="M40.2041 22.9772H36.565C36.0821 22.9772 35.7026 22.654 35.7026 22.2425C35.7026 21.831 36.0821 21.5078 36.565 21.5078H40.2041C40.6871 21.5078 41.0665 21.831 41.0665 22.2425C41.0665 22.654 40.6871 22.9772 40.2041 22.9772Z" fill="#8CC8FF"/>
<path d="M40.2041 27.371H36.565C36.0821 27.371 35.7026 27.0477 35.7026 26.6362C35.7026 26.2248 36.0821 25.9015 36.565 25.9015H40.2041C40.6871 25.9015 41.0665 26.2248 41.0665 26.6362C41.0665 27.0477 40.6871 27.371 40.2041 27.371Z" fill="#8CC8FF"/>
<path d="M40.2041 31.7795H36.565C36.0821 31.7795 35.7026 31.4562 35.7026 31.0447C35.7026 30.6333 36.0821 30.31 36.565 30.31H40.2041C40.6871 30.31 41.0665 30.6333 41.0665 31.0447C41.0665 31.4415 40.6871 31.7795 40.2041 31.7795Z" fill="#8CC8FF"/>
<path d="M10.6252 26.5481H6.43413C5.95121 26.5481 5.57178 26.2248 5.57178 25.8134C5.57178 25.4019 5.95121 25.0786 6.43413 25.0786H10.6252C11.1081 25.0786 11.4875 25.4019 11.4875 25.8134C11.4875 26.2248 11.1081 26.5481 10.6252 26.5481Z" fill="#8CC8FF"/>
<path d="M10.6252 30.9419H6.43413C5.95121 30.9419 5.57178 30.6186 5.57178 30.2072C5.57178 29.7957 5.95121 29.4724 6.43413 29.4724H10.6252C11.1081 29.4724 11.4875 29.7957 11.4875 30.2072C11.4875 30.6186 11.1081 30.9419 10.6252 30.9419Z" fill="#8CC8FF"/>
<path d="M10.6252 35.3504H6.43413C5.95121 35.3504 5.57178 35.0271 5.57178 34.6156C5.57178 34.2041 5.95121 33.8809 6.43413 33.8809H10.6252C11.1081 33.8809 11.4875 34.2041 11.4875 34.6156C11.4875 35.0124 11.1081 35.3504 10.6252 35.3504Z" fill="#8CC8FF"/>
<path d="M28.9936 41.0667H12.8848C12.4019 41.0667 12.0225 40.7434 12.0225 40.3319V11.2947C12.0225 10.8833 12.4019 10.56 12.8848 10.56H28.9936C29.4765 10.56 29.856 10.8833 29.856 11.2947V40.3319C29.856 40.7287 29.4765 41.0667 28.9936 41.0667ZM13.7472 39.5972H28.1313V12.0295H13.7472V39.5972Z" fill="#8CC8FF"/>
<path d="M25.6305 12.0295H16.2481C15.7652 12.0295 15.3857 11.7062 15.3857 11.2948V8.53211C15.3857 8.12065 15.7652 7.79736 16.2481 7.79736H25.6133C26.0962 7.79736 26.4756 8.12065 26.4756 8.53211V11.2948C26.4929 11.7062 26.0962 12.0295 25.6305 12.0295ZM17.1105 10.56H24.7509V9.26686H17.1105V10.56Z" fill="#8CC8FF"/>
<path d="M20.939 8.75254C20.4561 8.75254 20.0767 8.42925 20.0767 8.01779V3.6681C20.0767 3.25664 20.4561 2.93335 20.939 2.93335C21.4219 2.93335 21.8014 3.25664 21.8014 3.6681V8.01779C21.8014 8.41456 21.4219 8.75254 20.939 8.75254Z" fill="#8CC8FF"/>
<path d="M21.5254 16.4527H20.3526C19.8697 16.4527 19.4902 16.1294 19.4902 15.718C19.4902 15.3065 19.8697 14.9832 20.3526 14.9832H21.5254C22.0083 14.9832 22.3877 15.3065 22.3877 15.718C22.3877 16.1294 22.0083 16.4527 21.5254 16.4527Z" fill="#8CC8FF"/>
<path d="M21.5254 20.3322H20.3526C19.8697 20.3322 19.4902 20.0089 19.4902 19.5974C19.4902 19.186 19.8697 18.8627 20.3526 18.8627H21.5254C22.0083 18.8627 22.3877 19.186 22.3877 19.5974C22.3877 20.0089 22.0083 20.3322 21.5254 20.3322Z" fill="#8CC8FF"/>
<path d="M23.3193 38.9653C22.8364 38.9653 22.457 38.642 22.457 38.2306V33.3225H19.4215V38.2306C19.4215 38.642 19.0421 38.9653 18.5591 38.9653C18.0762 38.9653 17.6968 38.642 17.6968 38.2306V32.5877C17.6968 32.1763 18.0762 31.853 18.5591 31.853H23.3193C23.8022 31.853 24.1817 32.1763 24.1817 32.5877V38.2306C24.1817 38.642 23.8022 38.9653 23.3193 38.9653Z" fill="#8CC8FF"/>
</svg>
