<svg xmlns="http://www.w3.org/2000/svg" viewBox="0 0 30.89 30.89"><defs><style>.cls-1{fill:#fff;stroke:#040000;stroke-linejoin:bevel;stroke-width:2.7px;}</style></defs><g id="레이어_2" data-name="레이어 2"><g id="레이어_1-2" data-name="레이어 1"><path class="cls-1" d="M18.13,29.49l1.54-.25A4.21,4.21,0,0,0,22,28.06l1.43-1.43a1.66,1.66,0,0,0,0-2.35L20.12,21a1.65,1.65,0,0,0-2.34,0l-2.4,2.39L7.5,15.51l2.4-2.39a1.68,1.68,0,0,0,0-2.35L6.61,7.48a1.68,1.68,0,0,0-2.35,0L2.83,8.92a4.15,4.15,0,0,0-1.18,2.3L1.4,12.76A4.23,4.23,0,0,0,2.58,16.4L14.49,28.31A4.21,4.21,0,0,0,18.13,29.49Z"/><path class="cls-1" d="M29.55,16.55A16.32,16.32,0,0,0,14.34,1.35"/><path class="cls-1" d="M14.34,5.34A12.4,12.4,0,0,1,25.55,16.55"/><path class="cls-1" d="M14.34,9.37a8.39,8.39,0,0,1,7.18,7.18"/><path class="cls-1" d="M21.52,16.55a8.39,8.39,0,0,0-7.18-7.18"/></g></g></svg>