<svg width="44" height="44" viewBox="0 0 44 44" fill="none" xmlns="http://www.w3.org/2000/svg">
<path d="M33.6024 21.5693C30.9765 21.5693 28.8481 19.4409 28.8481 16.815C28.8481 14.1892 30.9765 12.0608 33.6024 12.0608C36.2283 12.0608 38.3567 14.1892 38.3567 16.815C38.3567 19.4409 36.2145 21.5693 33.6024 21.5693ZM33.6024 13.4428C31.7366 13.4428 30.2302 14.9493 30.2302 16.815C30.2302 18.6808 31.7366 20.1873 33.6024 20.1873C35.4682 20.1873 36.9746 18.6808 36.9746 16.815C36.9746 14.9631 35.4544 13.4428 33.6024 13.4428Z" fill="#8CC8FF"/>
<path d="M39.6418 35.4036H31.4324C31.0454 35.4036 30.7413 35.0996 30.7413 34.7126C30.7413 34.3256 31.0454 34.0216 31.4324 34.0216H38.8816C38.8816 33.9939 38.8678 33.9663 38.8678 33.9386L37.928 28.0096C37.4305 24.8171 35.3159 23.1034 33.5884 23.1034C32.3722 23.1034 31.1283 23.905 30.2714 25.2455C30.0641 25.5634 29.6357 25.6602 29.3178 25.4529C29 25.2455 28.9032 24.8171 29.1105 24.4992C30.2162 22.7579 31.9023 21.7213 33.5884 21.7213C34.8875 21.7213 36.1866 22.3294 37.237 23.4351C38.2873 24.5407 39.0198 26.0886 39.2824 27.8023L40.2222 33.7313C40.2775 34.0492 40.3051 34.3671 40.319 34.685C40.3328 34.8784 40.2637 35.0581 40.1255 35.1963C40.0149 35.3207 39.8352 35.4036 39.6418 35.4036Z" fill="#8CC8FF"/>
<path d="M11.1307 21.5693C8.50482 21.5693 6.37646 19.4409 6.37646 16.815C6.37646 14.1892 8.50482 12.0608 11.1307 12.0608C13.7566 12.0608 15.885 14.1892 15.885 16.815C15.885 19.4409 13.7566 21.5693 11.1307 21.5693ZM11.1307 13.4428C9.26495 13.4428 7.75852 14.9493 7.75852 16.815C7.75852 18.6808 9.26495 20.1873 11.1307 20.1873C12.9965 20.1873 14.5029 18.6808 14.5029 16.815C14.5029 14.9631 12.9965 13.4428 11.1307 13.4428Z" fill="#8CC8FF"/>
<path d="M13.3003 35.4037H5.09093C4.89744 35.4037 4.71777 35.3207 4.59339 35.1825C4.469 35.0443 4.3999 34.8647 4.3999 34.6712C4.41372 34.3533 4.45518 34.0354 4.49665 33.7176L5.43644 27.7885C5.69903 26.0748 6.43152 24.5269 7.48188 23.4213C8.53223 22.3156 9.83136 21.7075 11.1305 21.7075C12.8304 21.7075 14.5027 22.7441 15.6083 24.4854C15.8156 24.8033 15.7189 25.2318 15.401 25.4391C15.0832 25.6464 14.6547 25.5496 14.4474 25.2318C13.5905 23.8912 12.3467 23.0896 11.1305 23.0896C9.40293 23.0896 7.30221 24.8171 6.79085 27.9959L5.85106 33.9249C5.85106 33.9525 5.83724 33.9801 5.83724 34.0078H13.2865C13.6735 34.0078 13.9775 34.3118 13.9775 34.6988C13.9913 35.0858 13.6735 35.4037 13.3003 35.4037Z" fill="#8CC8FF"/>
<path d="M22.3942 18.9019C19.409 18.9019 16.9766 16.4695 16.9766 13.4843C16.9766 10.4991 19.409 8.06665 22.3942 8.06665C25.3794 8.06665 27.8118 10.4991 27.8118 13.4843C27.8118 16.4695 25.3794 18.9019 22.3942 18.9019ZM22.3942 9.4487C20.1691 9.4487 18.3586 11.2592 18.3586 13.4843C18.3586 15.7094 20.1691 17.5199 22.3942 17.5199C24.6193 17.5199 26.4298 15.7094 26.4298 13.4843C26.4298 11.2592 24.6193 9.4487 22.3942 9.4487Z" fill="#8CC8FF"/>
<path d="M29.4288 35.4036H15.3595C15.166 35.4036 14.9863 35.3207 14.8619 35.1825C14.7376 35.0443 14.6685 34.8646 14.6685 34.6711C14.6823 34.298 14.7237 33.911 14.779 33.5379L15.8708 26.4479C16.1749 24.4301 17.0179 22.6058 18.2203 21.2929C19.4227 19.9938 20.9015 19.2751 22.3941 19.2751C23.8867 19.2751 25.3655 19.9938 26.5679 21.2929C27.7703 22.592 28.6134 24.4301 28.9174 26.4479L30.0092 33.5517C30.0645 33.9248 30.106 34.3118 30.1198 34.685C30.1336 34.8784 30.0645 35.0581 29.9263 35.1963C29.7881 35.3207 29.6084 35.4036 29.4288 35.4036ZM16.1196 34.0216H28.6686C28.6548 33.9387 28.641 33.8419 28.6272 33.759L27.5354 26.6552C26.9411 22.7579 24.4396 20.6571 22.3803 20.6571C20.321 20.6571 17.8195 22.7579 17.2253 26.6552L16.1334 33.759C16.1473 33.8419 16.1334 33.9248 16.1196 34.0216Z" fill="#8CC8FF"/>
</svg>
