<svg width="44" height="44" viewBox="0 0 44 44" fill="none" xmlns="http://www.w3.org/2000/svg">
<path d="M38.9029 37H5.09693C4.7066 37 4.3999 36.7023 4.3999 36.3234V7.2766C4.3999 6.89769 4.7066 6.59998 5.09693 6.59998C5.48727 6.59998 5.79396 6.89769 5.79396 7.2766V35.6467H38.9029C39.2932 35.6467 39.5999 35.9444 39.5999 36.3234C39.5999 36.7023 39.2932 37 38.9029 37Z" fill="#8CC8FF"/>
<path d="M13.0151 33.7433H9.83666C9.08387 33.7433 8.45654 33.1299 8.45654 32.3632V20.4718C8.45654 19.719 9.06993 19.1057 9.83666 19.1057H13.0151C13.7679 19.1057 14.3813 19.719 14.3813 20.4718V32.3632C14.3813 33.1299 13.7679 33.7433 13.0151 33.7433ZM9.8506 32.3492H12.9872V20.4997H9.8506V32.3492Z" fill="#8CC8FF"/>
<path d="M20.4736 33.7433H17.2952C16.5145 33.7433 15.915 33.2693 15.915 32.642V22.772C15.915 22.1447 16.5005 21.6707 17.2952 21.6707H20.4736C21.2543 21.6707 21.8398 22.1447 21.8398 22.772V32.642C21.8398 33.2693 21.2543 33.7433 20.4736 33.7433ZM17.323 32.3492H20.4597V23.0648H17.323V32.3492Z" fill="#8CC8FF"/>
<path d="M27.9316 33.7433H24.7532C24.0004 33.7433 23.373 33.1299 23.373 32.3631V9.26358C23.373 8.51079 23.9864 7.8974 24.7532 7.8974H27.9316C28.6844 7.8974 29.2978 8.51079 29.2978 9.26358V32.3631C29.3117 33.1299 28.6984 33.7433 27.9316 33.7433ZM24.781 32.3492H27.9177V9.29146H24.781V32.3492Z" fill="#8CC8FF"/>
<path d="M35.3896 33.7433H32.2112C31.4166 33.7433 30.8311 32.8511 30.8311 31.6104V17.0146C30.8311 15.7739 31.4026 14.8817 32.2112 14.8817H35.3896C36.1842 14.8817 36.7558 15.7739 36.7558 17.0146V31.6104C36.7697 32.8371 36.1842 33.7433 35.3896 33.7433ZM32.3785 32.3492H35.2363C35.292 32.2238 35.3757 31.9728 35.3757 31.6104V17.0146C35.3757 16.6521 35.292 16.4012 35.2363 16.2757H32.3785C32.3227 16.4012 32.2391 16.6521 32.2391 17.0146V31.6104C32.2391 31.9728 32.3227 32.2238 32.3785 32.3492Z" fill="#8CC8FF"/>
</svg>
