<svg width="44" height="44" viewBox="0 0 44 44" fill="none" xmlns="http://www.w3.org/2000/svg">
<path d="M22.1944 28.5413C19.8671 28.5413 17.958 26.8149 17.958 24.6736C17.958 22.5489 19.8489 20.806 22.1944 20.806C24.5217 20.806 26.4309 22.5323 26.4309 24.6736C26.4309 26.7983 24.5399 28.5413 22.1944 28.5413ZM22.1944 22.466C20.8671 22.466 19.7762 23.4619 19.7762 24.6736C19.7762 25.8854 20.8671 26.8813 22.1944 26.8813C23.5217 26.8813 24.6127 25.8854 24.6127 24.6736C24.6127 23.4619 23.5399 22.466 22.1944 22.466Z" fill="#8CC8FF"/>
<path d="M25.9401 38.7498H18.6855C18.1764 38.7498 17.7764 38.3846 17.7764 37.9198V33.3716C17.7764 33.355 17.7764 33.3384 17.7764 33.3218C17.9946 29.6866 20.2673 28.0267 22.3037 28.0267C24.3401 28.0267 26.6129 29.6866 26.8311 33.3218C26.8311 33.3384 26.8311 33.355 26.8311 33.3716V37.9198C26.8492 38.3846 26.4311 38.7498 25.9401 38.7498ZM19.5946 37.0898H25.0128V33.4048C24.8492 30.8651 23.5037 29.7032 22.3037 29.7032C21.1037 29.7032 19.74 30.8651 19.5946 33.4048V37.0898Z" fill="#8CC8FF"/>
<path d="M34.7401 43.2648H9.88511C8.88509 43.2648 8.06689 42.5012 8.06689 41.5716V12.5728C8.06689 11.6433 8.88509 10.8797 9.88511 10.8797H20.0671C20.5762 10.8797 20.9762 11.2449 20.9762 11.7097C20.9762 12.1744 20.5762 12.5396 20.0671 12.5396H9.88511C9.88511 12.5396 9.88511 12.5562 9.88511 12.5728V41.5716C9.88511 41.6048 9.90329 41.6048 9.90329 41.6048H34.7401C34.7401 41.6048 34.7401 41.5882 34.7401 41.5716V12.5728C34.7401 12.5396 34.7219 12.5396 34.7219 12.5396H24.8672C24.3581 12.5396 23.9581 12.1744 23.9581 11.7097C23.9581 11.2449 24.3581 10.8797 24.8672 10.8797H34.7401C35.7401 10.8797 36.5583 11.6433 36.5583 12.5728V41.5716C36.5583 42.5012 35.7401 43.2648 34.7401 43.2648Z" fill="#8CC8FF"/>
<path d="M23.7581 14.4983H20.8671C20.358 14.4983 19.958 14.1331 19.958 13.6683V9.75092C19.958 9.28614 20.358 8.92096 20.8671 8.92096H23.7581C24.2672 8.92096 24.6672 9.28614 24.6672 9.75092V13.6683C24.6672 14.1165 24.2672 14.4983 23.7581 14.4983ZM21.7762 12.8384H22.849V10.5809H21.7762V12.8384Z" fill="#8CC8FF"/>
<path d="M22.3216 10.4149C22.1034 10.4149 21.8671 10.3319 21.7034 10.1825C21.3398 9.86713 21.3216 9.33595 21.6671 9.00397L29.2801 1.743C29.6256 1.41101 30.2074 1.39441 30.5711 1.7098C30.9347 2.02518 30.9529 2.55636 30.6074 2.88834L22.9762 10.1493C22.8125 10.3153 22.558 10.4149 22.3216 10.4149Z" fill="#8CC8FF"/>
<path d="M22.3033 10.3983C22.067 10.3983 21.8124 10.3153 21.6488 10.1327L14.0357 2.87174C13.6903 2.53976 13.7084 2.00858 14.0721 1.6932C14.4357 1.37781 15.0176 1.39441 15.363 1.7264L22.9761 8.98737C23.3215 9.31935 23.3033 9.85052 22.9397 10.1659C22.7579 10.3319 22.5215 10.3983 22.3033 10.3983Z" fill="#8CC8FF"/>
<path d="M29.9763 18.5817H14.4306C13.9215 18.5817 13.5215 18.2166 13.5215 17.7518C13.5215 17.287 13.9215 16.9218 14.4306 16.9218H29.9581C30.4672 16.9218 30.8672 17.287 30.8672 17.7518C30.8854 18.2166 30.4672 18.5817 29.9763 18.5817Z" fill="#8CC8FF"/>
</svg>
