<svg width="44" height="44" viewBox="0 0 44 44" fill="none" xmlns="http://www.w3.org/2000/svg">
<path d="M9.59503 29.9329C9.18012 29.9329 8.78181 29.7835 8.48307 29.4848L6.39193 27.5098C6.0766 27.2111 5.91064 26.8127 5.89404 26.3812C5.89404 25.9497 6.06001 25.5514 6.35874 25.2527L9.01416 22.6139C9.31289 22.3151 9.7112 22.1492 10.1427 22.1492C10.5576 22.1492 10.9559 22.2985 11.2547 22.5973L13.3458 24.5722C13.6611 24.871 13.8271 25.2693 13.8437 25.7008C13.8437 26.1323 13.6777 26.5306 13.379 26.8293L10.7236 29.4682C10.4414 29.7669 10.0265 29.9329 9.59503 29.9329ZM7.60347 26.3646L9.59503 28.2566L12.1509 25.7174L10.1593 23.8254L7.60347 26.3646Z" fill="#8CC8FF"/>
<path d="M12.7816 32.9534C12.3666 32.9534 11.9683 32.804 11.6696 32.5053L9.57846 30.5303C9.26313 30.2316 9.09716 29.8332 9.08057 29.4017C9.08057 28.9702 9.24653 28.5719 9.54526 28.2732L12.2007 25.6344C12.4994 25.3356 12.8977 25.1697 13.3292 25.1697C13.7441 25.1697 14.1425 25.319 14.4412 25.6178L16.5323 27.5927C16.8477 27.8915 17.0136 28.2898 17.0302 28.7213C17.0302 29.1528 16.8643 29.5511 16.5655 29.8498L13.9101 32.4887C13.6114 32.7874 13.2131 32.9534 12.7816 32.9534ZM10.79 29.3851L12.7816 31.2771L15.3374 28.7379L13.3458 26.8459L10.79 29.3851Z" fill="#8CC8FF"/>
<path d="M15.9681 35.9739C15.5532 35.9739 15.1549 35.8246 14.8561 35.5258L12.765 33.5509C12.4496 33.2521 12.2837 32.8538 12.2671 32.4223C12.2671 31.9908 12.4331 31.5925 12.7318 31.2938L15.3872 28.6549C15.6859 28.3562 16.0842 28.1902 16.5158 28.1902C16.9307 28.1902 17.329 28.3396 17.6277 28.6383L19.7188 30.6133C20.0342 30.912 20.2001 31.3104 20.2167 31.7419C20.2167 32.1734 20.0508 32.5717 19.752 32.8704L17.0966 35.5092C16.7979 35.808 16.3996 35.9739 15.9681 35.9739ZM13.9765 32.4057L15.9681 34.2977L18.5239 31.7585L16.5323 29.8665L13.9765 32.4057Z" fill="#8CC8FF"/>
<path d="M19.1546 38.9944C18.7397 38.9944 18.3414 38.8451 18.0426 38.5463L15.9515 36.5714C15.6362 36.2726 15.4702 35.8743 15.4536 35.4428C15.4536 35.0113 15.6196 34.613 15.9183 34.3143L18.5737 31.6755C18.8725 31.3767 19.2708 31.2108 19.7023 31.2108C20.1172 31.2108 20.5155 31.3601 20.8142 31.6589L22.9054 33.6338C23.2207 33.9326 23.3867 34.3309 23.4033 34.7624C23.4033 35.1939 23.2373 35.5922 22.9386 35.8909L20.2831 38.5297C19.9844 38.8285 19.5861 38.9944 19.1546 38.9944ZM17.163 35.4262L19.1546 37.3182L21.7104 34.779L19.7189 32.887L17.163 35.4262Z" fill="#8CC8FF"/>
<path d="M22.4738 39.9238C22.0589 39.9238 21.6605 39.7578 21.3784 39.4757L19.7852 37.8493C19.4698 37.5173 19.4698 37.0029 19.8018 36.6709C20.1337 36.3556 20.6482 36.3556 20.9801 36.6875L22.507 38.2476L24.5981 36.2062C24.3989 35.8743 24.4487 35.4594 24.7309 35.1773C25.013 34.9117 25.4279 34.8619 25.7598 35.0611L27.851 33.0031C27.6518 32.6712 27.7016 32.2563 27.9838 31.9742C28.2659 31.7086 28.6808 31.6588 29.0127 31.858L31.1039 29.8C30.9047 29.4681 30.9545 29.0532 31.2366 28.7711C31.5188 28.5055 31.9337 28.4557 32.2656 28.6549L34.3567 26.6135L23.6521 15.6931C23.3368 15.3612 23.3368 14.8467 23.6687 14.5148C24.0006 14.1995 24.5151 14.1995 24.847 14.5314L35.6347 25.5182C36.2321 26.1322 36.2155 27.1446 35.5683 27.7753L33.4439 29.8664C33.2448 30.0656 32.9958 30.1984 32.7469 30.2813C32.6639 30.5303 32.5312 30.7792 32.332 30.9784L30.2077 33.0695C30.0085 33.2687 29.7596 33.4014 29.5106 33.4844C29.4276 33.7334 29.2949 33.9823 29.0957 34.1815L26.9714 36.2726C26.7722 36.4718 26.5233 36.6045 26.2743 36.6875C26.1913 36.9365 26.0586 37.1854 25.8594 37.3846L23.7351 39.4757C23.4364 39.7744 23.038 39.9404 22.6231 39.957C22.507 39.9238 22.4904 39.9238 22.4738 39.9238ZM7.98516 25.651C7.76941 25.651 7.53706 25.568 7.3711 25.3854L4.06842 21.8172C3.75309 21.4853 3.76969 20.9542 4.11821 20.6389C4.45014 20.3235 4.98122 20.3401 5.29655 20.6886L8.59922 24.2569C8.91456 24.5888 8.89796 25.1199 8.54944 25.4352C8.38347 25.5846 8.18432 25.651 7.98516 25.651ZM20.7477 12.2577C20.5486 12.2577 20.3328 12.1747 20.1835 12.0254L17.1131 9.1044C16.7812 8.78907 16.7646 8.25799 17.08 7.92606C17.3953 7.59413 17.9264 7.57754 18.2583 7.89287L21.312 10.8304C21.6439 11.1457 21.6605 11.6768 21.3452 12.0088C21.1793 12.1747 20.9635 12.2577 20.7477 12.2577Z" fill="#8CC8FF"/>
<path d="M31.7844 30.2315C31.5687 30.2315 31.3529 30.1485 31.187 29.9826L26.0919 24.7879C25.7766 24.456 25.7766 23.9415 26.1085 23.6096C26.4404 23.2943 26.9549 23.2943 27.2868 23.6262L32.3819 28.8208C32.6972 29.1528 32.6972 29.6673 32.3653 29.9992C32.1993 30.1485 31.9836 30.2315 31.7844 30.2315Z" fill="#8CC8FF"/>
<path d="M28.5315 33.4181C28.3157 33.4181 28.1 33.3351 27.934 33.1691L22.839 27.9744C22.5236 27.6425 22.5236 27.128 22.8556 26.7961C23.1875 26.4808 23.702 26.4808 24.0339 26.8127L29.129 32.0074C29.4443 32.3393 29.4443 32.8538 29.1124 33.1857C28.963 33.3351 28.7473 33.4181 28.5315 33.4181Z" fill="#8CC8FF"/>
<path d="M25.2786 36.6045C25.0628 36.6045 24.8471 36.5215 24.6811 36.3556L19.586 31.1609C19.2707 30.829 19.2707 30.3145 19.6026 29.9826C19.9345 29.6672 20.449 29.6672 20.781 29.9992L25.876 35.1938C26.1914 35.5258 26.1914 36.0402 25.8594 36.3722C25.6935 36.5215 25.4943 36.6045 25.2786 36.6045Z" fill="#8CC8FF"/>
<path d="M4.78186 22.1824C4.56611 22.1824 4.35036 22.0994 4.18439 21.9334L0.234463 17.8507C-0.0808673 17.5188 -0.0808673 17.0043 0.25106 16.689L13.246 3.92638C13.412 3.77701 13.6277 3.69403 13.8435 3.69403C14.0592 3.69403 14.275 3.79361 14.4243 3.94298L18.8058 8.47378C19.1211 8.8057 19.1211 9.33679 18.7892 9.65212C18.4572 9.96745 17.9262 9.96745 17.6108 9.63552L13.8103 5.70219L1.99368 17.2864L5.37933 20.7883C5.69466 21.1202 5.69466 21.6513 5.36273 21.9666C5.19677 22.116 4.98102 22.1824 4.78186 22.1824Z" fill="#8CC8FF"/>
<path d="M13.7437 9.76831C13.6773 9.76831 13.6109 9.76831 13.5445 9.75172C13.2624 9.70193 13.03 9.53597 12.8641 9.30362C12.6981 9.07127 12.6483 8.78913 12.6981 8.50699C12.7977 8.0091 13.2292 7.64398 13.7437 7.64398C13.8101 7.64398 13.8764 7.64398 13.9428 7.66058C14.225 7.71037 14.4573 7.87633 14.6233 8.10868C14.7892 8.34103 14.839 8.62317 14.7892 8.9053C14.6897 9.41979 14.2582 9.76831 13.7437 9.76831ZM13.7437 8.10868C13.4615 8.10868 13.2126 8.30784 13.1628 8.58997C13.1296 8.73934 13.1628 8.9053 13.2624 9.03808C13.3454 9.17085 13.4947 9.25383 13.6441 9.28702C13.6773 9.28702 13.7105 9.30362 13.7603 9.30362C14.0424 9.30362 14.2914 9.10446 14.3411 8.82232C14.3743 8.67296 14.3411 8.50699 14.2416 8.37422C14.1586 8.24145 14.0092 8.15847 13.8599 8.12528C13.8267 8.12528 13.7769 8.10868 13.7437 8.10868Z" fill="#8CC8FF"/>
<path d="M8.74844 19.1618C8.53268 19.1618 8.31693 19.0788 8.15097 18.9129C7.83564 18.581 7.83564 18.0665 8.16756 17.7345L17.6275 8.45718C17.9594 8.14185 18.4739 8.14185 18.8058 8.47378C19.1212 8.8057 19.1212 9.32019 18.7892 9.65212L9.32931 18.9295C9.16334 19.0788 8.94759 19.1618 8.74844 19.1618Z" fill="#8CC8FF"/>
<path d="M34.6557 27.4268C34.4565 27.4268 34.2574 27.3604 34.108 27.2111C33.7595 26.9123 33.7429 26.3812 34.0416 26.0327L37.3277 22.3815C37.6264 22.0496 38.1575 22.0164 38.506 22.3151C38.8545 22.6139 38.8711 23.145 38.5724 23.4935L35.2863 27.1447C35.1038 27.3272 34.8714 27.4268 34.6557 27.4268ZM21.2624 12.4735C21.0633 12.4735 20.8475 12.4071 20.6982 12.2412C20.3662 11.9258 20.3496 11.3947 20.665 11.0628L22.9055 8.67295C23.2208 8.34102 23.7519 8.32442 24.0838 8.63975C24.4157 8.95508 24.4323 9.48617 24.117 9.81809L21.8765 12.208C21.6939 12.3905 21.4782 12.4735 21.2624 12.4735Z" fill="#8CC8FF"/>
<path d="M19.3537 21.1036C19.1546 21.1036 18.9388 21.0206 18.7895 20.8712C18.4575 20.5559 18.4409 20.0248 18.7563 19.6929L24.1833 13.9339C24.4986 13.602 25.0297 13.5854 25.3616 13.9007C25.6935 14.2161 25.7101 14.7472 25.3948 15.0791L19.9678 20.838C19.8018 21.0206 19.5861 21.1036 19.3537 21.1036Z" fill="#8CC8FF"/>
<path d="M16.0842 18.0166C15.8851 18.0166 15.6693 17.9337 15.5199 17.7843C15.188 17.469 15.1714 16.9379 15.4867 16.606L20.9137 10.847C21.2291 10.5151 21.7602 10.4985 22.0921 10.8138C22.424 11.1292 22.4406 11.6602 22.1253 11.9922L16.6983 17.7511C16.5157 17.9337 16.3 18.0166 16.0842 18.0166Z" fill="#8CC8FF"/>
<path d="M19.3537 21.1035C19.1545 21.1035 18.9388 21.0206 18.7894 20.8712L15.5033 17.8009C15.1714 17.4855 15.1548 16.9545 15.4701 16.6225C15.7855 16.2906 16.3166 16.274 16.6485 16.5893L19.9346 19.6763C20.2665 19.9916 20.2831 20.5227 19.9677 20.8546C19.8018 21.0206 19.586 21.1035 19.3537 21.1035Z" fill="#8CC8FF"/>
<path d="M37.7092 24.0245C37.51 24.0245 37.2943 23.9416 37.1449 23.7922C36.813 23.4769 36.7964 22.9458 37.1117 22.6138L37.3441 22.3649L41.2774 18.2324L28.0335 5.68558L24.3325 9.56912C24.0172 9.90105 23.4861 9.91764 23.1542 9.60231C22.8223 9.28698 22.8057 8.7559 23.121 8.42397L27.4029 3.92636C27.7182 3.59444 28.2493 3.57784 28.5812 3.89317L43.0366 17.5686C43.2026 17.7179 43.2856 17.9337 43.3022 18.1494C43.3022 18.3652 43.2192 18.5809 43.0698 18.7469L38.5722 23.4769L38.3399 23.7258C38.1407 23.925 37.925 24.0245 37.7092 24.0245Z" fill="#8CC8FF"/>
<path d="M37.8919 19.3776C37.8421 19.3776 37.7758 19.3776 37.726 19.361C37.1285 19.278 36.7302 18.7137 36.8132 18.1328C36.8961 17.6017 37.3442 17.2034 37.8919 17.2034C37.9417 17.2034 38.0081 17.2034 38.0579 17.22C38.6554 17.303 39.0537 17.8673 38.9707 18.4482C38.8711 18.9792 38.423 19.3776 37.8919 19.3776ZM37.8919 17.7179C37.6098 17.7179 37.3608 17.9171 37.3277 18.2158C37.2779 18.5311 37.4936 18.8133 37.8089 18.8631C37.8421 18.8631 37.8753 18.8631 37.8919 18.8631C38.1741 18.8631 38.423 18.6473 38.4562 18.3652C38.506 18.0498 38.2902 17.7677 37.9749 17.7179C37.9417 17.7179 37.9085 17.7179 37.8919 17.7179Z" fill="#8CC8FF"/>
<path d="M37.7093 24.0245C37.5102 24.0245 37.2944 23.9416 37.145 23.7922L26.623 13.8344C26.291 13.519 26.2744 12.988 26.5898 12.656C26.9051 12.3241 27.4362 12.3075 27.7681 12.6228L38.2902 22.5807C38.6221 22.896 38.6387 23.4271 38.3234 23.759C38.1408 23.925 37.9251 24.0245 37.7093 24.0245Z" fill="#8CC8FF"/>
</svg>
