<svg width="44" height="44" viewBox="0 0 44 44" fill="none" xmlns="http://www.w3.org/2000/svg">
<path d="M29.0207 42.7663C28.9095 42.7663 28.7824 42.7345 28.6871 42.6869L21.9997 39.51L15.3124 42.6869C15.0741 42.7981 14.7723 42.7822 14.5499 42.6392C14.3275 42.4963 14.1846 42.2421 14.1846 41.9721V32.4573C14.1846 32.0125 14.534 31.663 14.9788 31.663C15.4236 31.663 15.773 32.0125 15.773 32.4573V40.7172L21.6662 37.9215C21.8885 37.8262 22.1268 37.8262 22.3492 37.9215L28.2423 40.7172V32.3778C28.2423 31.9331 28.5918 31.5836 29.0366 31.5836C29.4813 31.5836 29.8308 31.9331 29.8308 32.3778V41.9721C29.8308 42.2421 29.6878 42.4963 29.4654 42.6392C29.3225 42.7186 29.1795 42.7663 29.0207 42.7663Z" fill="#8CC8FF"/>
<path d="M26.7335 35.1735C25.8122 35.1735 24.9068 34.6811 24.0331 34.1887C23.3024 33.7916 22.5559 33.3786 21.9999 33.3786C21.4439 33.3786 20.6974 33.7916 19.9667 34.1887C19.093 34.6652 18.1876 35.1735 17.2663 35.1735C17.0122 35.1735 16.7739 35.1418 16.5515 35.0623C15.3602 34.6811 14.7725 33.4104 14.2483 32.2826C13.9147 31.5519 13.5652 30.8053 13.1522 30.5035C12.7234 30.1858 11.8974 30.0905 11.0873 29.9952C9.86416 29.8522 8.48221 29.6775 7.75153 28.6768C7.02084 27.6761 7.27499 26.3894 7.51326 25.1187C7.6721 24.3244 7.83095 23.4826 7.65622 22.9743C7.49738 22.4977 6.90965 21.9418 6.32192 21.4017C5.43239 20.5598 4.3999 19.6067 4.3999 18.3201C4.3999 17.0335 5.43239 16.0804 6.35369 15.2385C6.92553 14.6984 7.52914 14.1425 7.68799 13.666C7.84683 13.1576 7.68799 12.3317 7.54503 11.5215C7.30676 10.2667 7.05261 8.96415 7.7833 7.96343C8.51398 6.9627 9.89593 6.78797 11.119 6.64501C11.9291 6.54971 12.7551 6.43852 13.184 6.13671C13.597 5.83491 13.9465 5.08834 14.28 4.35765C14.8042 3.22985 15.392 1.95909 16.5833 1.57787C16.7898 1.49844 17.0281 1.46667 17.2822 1.46667C18.2035 1.46667 19.1089 1.95909 19.9826 2.45151C20.7133 2.84862 21.4598 3.26162 22.0158 3.26162C22.5717 3.26162 23.3183 2.84862 24.049 2.45151C24.9226 1.97498 25.8281 1.46667 26.7494 1.46667C27.0035 1.46667 27.2418 1.49844 27.4642 1.57787C28.6555 1.95909 29.2591 3.22985 29.7674 4.35765C30.101 5.08834 30.4504 5.83491 30.8634 6.13671C31.2923 6.43852 32.1183 6.54971 32.9284 6.64501C34.1515 6.78797 35.5335 6.9627 36.2642 7.96343C36.9948 8.96415 36.7407 10.2508 36.5024 11.5215C36.3436 12.3158 36.1847 13.1576 36.3595 13.666C36.5183 14.1425 37.106 14.6984 37.6938 15.2385C38.5992 16.0804 39.6476 17.0493 39.6476 18.336C39.6476 19.6226 38.6151 20.5757 37.6938 21.4335C37.1219 21.9735 36.5183 22.5295 36.3595 23.006C36.2006 23.5143 36.3595 24.3403 36.5024 25.1504C36.7407 26.4053 36.9948 27.7078 36.2642 28.7086C35.5335 29.7093 34.1515 29.884 32.9284 30.027C32.1183 30.1223 31.2923 30.2335 30.8634 30.5353C30.4504 30.8371 30.101 31.5836 29.7674 32.3143C29.2432 33.4421 28.6555 34.7129 27.4642 35.0941C27.2259 35.1418 26.9717 35.1735 26.7335 35.1735ZM21.9999 31.7901C22.9689 31.7901 23.906 32.2984 24.7956 32.8067C25.4945 33.188 26.2093 33.5851 26.7176 33.5851C26.797 33.5851 26.8764 33.5692 26.94 33.5533C27.48 33.3786 27.893 32.4891 28.306 31.6154C28.7349 30.71 29.1638 29.7728 29.9104 29.2169C30.6728 28.6609 31.7053 28.5338 32.706 28.4067C33.6432 28.2956 34.6281 28.1685 34.9457 27.7237C35.2634 27.2789 35.0728 26.3259 34.8981 25.4046C34.7075 24.4039 34.501 23.3714 34.8028 22.466C35.0887 21.6082 35.8353 20.9093 36.566 20.2262C37.2808 19.575 38.0115 18.8919 38.0115 18.3042C38.0115 17.7165 37.2808 17.0335 36.566 16.3822C35.8353 15.7151 35.0887 15.0161 34.8028 14.1425C34.5169 13.2371 34.7075 12.2046 34.8981 11.2039C35.0728 10.2826 35.2634 9.32949 34.9457 8.88473C34.6122 8.43996 33.6432 8.31288 32.706 8.20169C31.7053 8.07462 30.6728 7.94754 29.9104 7.39158C29.1638 6.85151 28.719 5.91433 28.306 4.99303C27.9089 4.11938 27.48 3.22985 26.94 3.05512C26.8764 3.03924 26.797 3.02335 26.7176 3.02335C26.2093 3.02335 25.4945 3.42047 24.7956 3.80169C23.8902 4.29411 22.9689 4.8183 21.9999 4.8183C21.0309 4.8183 20.0938 4.31 19.2042 3.80169C18.5053 3.42047 17.7905 3.02335 17.2822 3.02335C17.2028 3.02335 17.1234 3.03924 17.0598 3.05512C16.5198 3.22985 16.1068 4.11938 15.6938 4.99303C15.2649 5.89844 14.836 6.83563 14.0894 7.39158C13.327 7.94754 12.2945 8.07462 11.2938 8.20169C10.3566 8.31288 9.37174 8.43996 9.05405 8.88473C8.73636 9.32949 8.92698 10.2826 9.10171 11.2039C9.29232 12.2046 9.49882 13.2371 9.19701 14.1425C8.91109 15.0002 8.16452 15.6992 7.43384 16.3822C6.71904 17.0335 5.98835 17.7165 5.98835 18.3042C5.98835 18.8919 6.71904 19.575 7.43384 20.2262C8.16452 20.8934 8.91109 21.5923 9.19701 22.466C9.48293 23.3714 9.29232 24.4039 9.10171 25.4046C8.92698 26.3259 8.73636 27.2789 9.05405 27.7237C9.37174 28.1685 10.3566 28.2956 11.2938 28.4067C12.2945 28.5338 13.327 28.6609 14.0894 29.2169C14.836 29.7569 15.2808 30.6941 15.6938 31.6154C16.0909 32.4891 16.5198 33.3786 17.0598 33.5533C17.1234 33.5692 17.2028 33.5851 17.2822 33.5851C17.7905 33.5851 18.5053 33.188 19.2042 32.8067C20.1096 32.3143 21.0309 31.7901 21.9999 31.7901Z" fill="#8CC8FF"/>
<path d="M22.0001 29.8046C15.6622 29.8046 10.5156 24.658 10.5156 18.3201C10.5156 11.9822 15.6622 6.83563 22.0001 6.83563C22.7784 6.83563 23.5568 6.91505 24.3192 7.0739C24.7481 7.16921 25.0182 7.5822 24.9387 8.01108C24.8593 8.43997 24.4304 8.71 24.0015 8.63058C23.3503 8.5035 22.6831 8.42408 22.0001 8.42408C16.5517 8.42408 12.1041 12.8559 12.1041 18.3201C12.1041 23.7685 16.5358 28.2161 22.0001 28.2161C27.4644 28.2161 31.8961 23.7844 31.8961 18.3201C31.8961 15.9216 31.0225 13.6183 29.4499 11.8075C29.164 11.4739 29.1958 10.9815 29.5293 10.6797C29.8629 10.3938 30.3553 10.4255 30.6571 10.7591C32.4839 12.8559 33.4846 15.5244 33.4846 18.3042C33.4846 24.658 28.338 29.8046 22.0001 29.8046Z" fill="#8CC8FF"/>
</svg>
