<svg width="208" height="44" viewBox="0 0 208 44" fill="none" xmlns="http://www.w3.org/2000/svg">
<path d="M21.9208 26.9998C24.2609 29.1325 26.2668 31.4651 25.5313 35.4639C24.7958 39.5293 21.0516 41.5287 19.3132 40.9289C18.6446 40.6623 18.1097 39.9292 18.5108 38.8628C19.2463 36.9301 21.319 35.5305 23.3249 34.9307C24.5284 34.5975 24.6621 33.9976 24.0604 33.5311C23.5255 33.1312 22.5225 32.7314 21.1853 32.7314C17.6416 32.6647 13.9642 36.0637 15.1009 39.9292C15.7695 42.2618 18.3103 43.9279 21.4528 43.9946C25.0633 44.1279 29.2756 41.8619 30.2785 37.13C31.3483 31.865 27.8046 27.333 23.5923 25.8002C20.851 24.9338 21.0516 26.2 21.9208 26.9998Z" fill="#EE2A7B"/>
<path d="M16.1706 1.20768C17.5079 1.34097 21.5196 8.20554 22.4556 8.20554C23.3917 8.20554 30.7465 0.607862 32.0837 0.674508C33.6884 0.807801 32.2174 3.87353 30.011 7.73901C28.8075 9.80505 28.2057 10.8047 28.2057 11.6711C28.2057 12.6708 32.3512 17.6693 31.5488 18.6024C30.9471 19.3355 25.8656 16.603 24.6621 16.0031C23.7929 15.6033 23.726 16.2031 23.726 17.0695C23.726 17.736 24.3277 21.8014 23.0574 21.6681C19.6474 21.2682 13.095 0.874447 16.1706 1.20768Z" fill="#047BC1"/>
<path d="M41.9794 31.9983C42.9155 34.4642 42.648 37.0634 43.2498 38.3964C43.8515 39.6626 45.2556 40.0625 46.3254 39.3294C47.4621 38.463 47.4621 35.3306 47.1946 33.5312C46.9272 31.9317 45.8574 26.9332 43.3835 26.0002C41.8457 25.4003 40.0404 26.3334 39.773 27.3997C39.5055 28.4661 37.4997 32.7314 36.6973 32.3982C36.363 32.2649 35.6275 29.7323 35.2932 28.7327C34.8921 27.733 33.488 23.0677 32.485 23.0011C31.6827 22.9344 31.4821 25.4003 31.6827 27.533C31.8164 29.3325 32.485 35.3973 34.3572 36.5303C36.1624 37.5966 40.1741 35.5306 41.9794 31.9983Z" fill="#F58220"/>
<path d="M17.1736 26.5334C18.6446 26.9332 19.3801 27.733 19.3132 28.866C19.3132 30.0656 18.1766 30.9987 16.5719 30.8654C14.6329 30.6654 7.61243 28.2662 4.13562 23.6009C2.73152 21.6682 3.40014 19.9354 5.07168 18.8024C8.54849 16.4698 16.3044 14.8036 17.1736 16.4698C17.6417 17.4028 14.7666 18.3359 12.4265 19.3356C10.22 20.2686 8.08046 21.3349 8.08046 22.0014C8.0136 22.8678 12.6271 25.4004 17.1736 26.5334Z" fill="#00AEE6"/>
<path d="M16.0369 26.4C16.1706 24.6005 15.7695 20.0686 14.9671 19.7353C14.2985 19.4021 13.3624 22.0013 12.627 25.4003" fill="#00AEE6"/>
<path d="M24.8627 2.8737C24.3278 3.7401 23.1243 4.00669 22.2551 3.47352C21.3859 2.94035 21.1184 1.74071 21.6533 0.874312C22.1882 0.00791077 23.3917 -0.258674 24.2609 0.274496C25.1301 0.874312 25.3976 2.0073 24.8627 2.8737Z" fill="#047BC1"/>
<path d="M50.5379 9.67178C50.2704 10.6715 49.2675 11.3379 48.2646 11.0714C47.2616 10.8048 46.593 9.80507 46.8605 8.80538C47.1279 7.80569 48.1308 7.13922 49.1338 7.40581C50.2035 7.67239 50.8053 8.67209 50.5379 9.67178Z" fill="#39B54A"/>
<path d="M3.46704 21.7347C2.86528 22.6011 1.72863 22.8677 0.85943 22.2679C-0.00977164 21.6681 -0.277218 20.5351 0.324537 19.6687C0.926292 18.8023 2.06294 18.5357 2.93214 19.1355C3.80134 19.6687 4.06879 20.8017 3.46704 21.7347Z" fill="#00AEE6"/>
<path d="M33.8892 21.0017C34.4241 21.8681 35.1596 22.3346 36.3631 22.8012C37.9678 23.401 42.8487 23.2677 46.1249 20.002C49.1337 17.0029 49.468 12.471 46.9272 9.80514C43.8516 6.60611 37.834 6.80605 34.6247 10.8048C32.8194 13.0042 33.0869 15.4701 34.2904 16.6031C35.0927 17.3362 36.2962 17.8027 37.4329 17.8693C38.4358 17.936 38.4358 17.6694 37.9678 17.2029C36.898 16.0699 36.9648 14.6037 37.5666 13.4707C39.0376 10.7382 42.4475 10.1384 43.9185 11.8045C45.4563 13.4707 44.3196 16.4698 41.3777 18.0693C38.9038 19.4688 36.0956 19.0023 34.1567 18.2026C33.4212 19.2023 33.488 20.4019 33.8892 21.0017Z" fill="#39B54A"/>
<path d="M72.6891 13.608H75.9291V13.716C75.4491 13.908 75.2091 14.304 75.2091 14.904V18.36H77.2611V20.16H75.2091V28.044C75.2091 28.476 75.0831 28.794 74.8311 28.998C74.5911 29.214 74.2011 29.322 73.6611 29.322H72.6891V13.608ZM71.4111 24.552C71.2431 24.768 71.0271 24.894 70.7631 24.93C70.4991 24.966 70.2111 24.864 69.8991 24.624C69.3711 24.24 68.8431 23.73 68.3151 23.094C67.7871 22.458 67.3131 21.744 66.8931 20.952C66.4851 21.78 66.0051 22.542 65.4531 23.238C64.9011 23.934 64.3191 24.486 63.7071 24.894C63.3711 25.122 63.0771 25.224 62.8251 25.2C62.5731 25.164 62.3451 25.032 62.1411 24.804L61.6011 24.174C62.2371 23.73 62.8011 23.226 63.2931 22.662C63.7851 22.086 64.1931 21.48 64.5171 20.844C64.8531 20.208 65.1051 19.554 65.2731 18.882C65.4531 18.21 65.5431 17.556 65.5431 16.92V13.968H68.0811V16.596V16.812V16.92C68.0811 17.592 68.1711 18.252 68.3511 18.9C68.5431 19.536 68.8071 20.148 69.1431 20.736C69.4911 21.324 69.8991 21.876 70.3671 22.392C70.8351 22.908 71.3571 23.37 71.9331 23.778L71.4111 24.552ZM78.159 25.308H82.011V23.508C81.219 23.304 80.595 22.932 80.139 22.392C79.683 21.84 79.455 21.204 79.455 20.484C79.455 20.028 79.545 19.608 79.725 19.224C79.917 18.828 80.181 18.492 80.517 18.216C80.865 17.928 81.279 17.706 81.759 17.55C82.239 17.382 82.773 17.298 83.361 17.298C83.949 17.298 84.483 17.382 84.963 17.55C85.443 17.706 85.851 17.928 86.187 18.216C86.535 18.492 86.799 18.828 86.979 19.224C87.171 19.608 87.267 20.028 87.267 20.484C87.267 21.24 87.021 21.894 86.529 22.446C86.049 22.998 85.383 23.37 84.531 23.562V25.308H86.007C86.679 25.308 87.339 25.272 87.987 25.2C88.635 25.128 89.175 25.026 89.607 24.894V13.608H92.847V13.716C92.367 13.908 92.127 14.304 92.127 14.904V28.044C92.127 28.476 92.001 28.794 91.749 28.998C91.509 29.214 91.119 29.322 90.579 29.322H89.607V26.442C89.175 26.646 88.647 26.808 88.023 26.928C87.411 27.048 86.739 27.108 86.007 27.108H78.159V25.308ZM78.825 14.868H82.101V13.158H84.621V14.868H87.897V16.578H78.825V14.868ZM81.885 20.484C81.885 20.928 82.005 21.318 82.245 21.654C82.485 21.978 82.857 22.14 83.361 22.14C83.865 22.14 84.237 21.978 84.477 21.654C84.717 21.318 84.837 20.928 84.837 20.484C84.837 20.04 84.717 19.656 84.477 19.332C84.237 18.996 83.865 18.828 83.361 18.828C82.857 18.828 82.485 18.996 82.245 19.332C82.005 19.656 81.885 20.04 81.885 20.484ZM94.8429 13.788H103.555V15.498H100.333V15.966V16.2V16.29C100.333 17.298 100.603 18.162 101.143 18.882C101.695 19.602 102.631 20.202 103.951 20.682L103.663 21.348C103.543 21.612 103.351 21.798 103.087 21.906C102.835 22.002 102.517 21.978 102.133 21.834C101.557 21.63 101.023 21.348 100.531 20.988C100.039 20.616 99.6009 20.184 99.2169 19.692C98.8209 20.304 98.3409 20.826 97.7769 21.258C97.2249 21.678 96.6249 21.99 95.9769 22.194C95.5929 22.326 95.2809 22.344 95.0409 22.248C94.8009 22.14 94.6149 21.948 94.4829 21.672L94.1409 20.988C94.8969 20.772 95.5089 20.502 95.9769 20.178C96.4569 19.842 96.8289 19.47 97.0929 19.062C97.3689 18.654 97.5549 18.216 97.6509 17.748C97.7469 17.28 97.7949 16.794 97.7949 16.29V15.498H94.8429V13.788ZM96.1389 23.238H108.145V28.044C108.145 28.476 108.019 28.794 107.767 28.998C107.527 29.214 107.137 29.322 106.597 29.322H105.625V24.912H96.1389V23.238ZM103.015 16.794H105.625V13.608H108.865V13.716C108.385 13.908 108.145 14.304 108.145 14.904V21.24C108.145 21.672 108.019 21.996 107.767 22.212C107.527 22.416 107.137 22.518 106.597 22.518H105.625V18.468H103.015V16.794ZM121.823 13.608H125.063V13.716C124.583 13.908 124.343 14.304 124.343 14.904V28.044C124.343 28.476 124.217 28.794 123.965 28.998C123.725 29.214 123.335 29.322 122.795 29.322H121.823V13.608ZM110.789 23.58C111.749 23.256 112.607 22.824 113.363 22.284C114.119 21.732 114.755 21.114 115.271 20.43C115.799 19.734 116.195 18.996 116.459 18.216C116.735 17.436 116.873 16.65 116.873 15.858H111.131V14.058H119.393V15.696C119.393 16.644 119.213 17.586 118.853 18.522C118.493 19.458 118.013 20.328 117.413 21.132C116.825 21.924 116.147 22.632 115.379 23.256C114.611 23.868 113.819 24.33 113.003 24.642C112.547 24.822 112.163 24.9 111.851 24.876C111.551 24.84 111.305 24.63 111.113 24.246L110.789 23.58ZM126.969 17.874C126.969 17.286 127.083 16.74 127.311 16.236C127.539 15.732 127.851 15.3 128.247 14.94C128.643 14.58 129.111 14.298 129.651 14.094C130.191 13.89 130.779 13.788 131.415 13.788C131.955 13.788 132.459 13.866 132.927 14.022C133.395 14.166 133.815 14.376 134.187 14.652C134.571 14.916 134.895 15.234 135.159 15.606C135.423 15.978 135.615 16.392 135.735 16.848H138.021V13.608H141.261V13.716C140.781 13.908 140.541 14.304 140.541 14.904V20.97C140.541 21.402 140.415 21.726 140.163 21.942C139.923 22.146 139.533 22.248 138.993 22.248H138.021V18.522H135.807C135.735 19.026 135.567 19.494 135.303 19.926C135.051 20.346 134.733 20.706 134.349 21.006C133.965 21.306 133.521 21.54 133.017 21.708C132.525 21.876 131.991 21.96 131.415 21.96C130.779 21.96 130.191 21.858 129.651 21.654C129.111 21.45 128.643 21.168 128.247 20.808C127.851 20.448 127.539 20.022 127.311 19.53C127.083 19.026 126.969 18.474 126.969 17.874ZM131.127 24.534H138.021V22.968H140.541V27.954C140.541 28.386 140.415 28.704 140.163 28.908C139.923 29.124 139.533 29.232 138.993 29.232H128.607V22.968H131.127V24.534ZM129.489 17.874C129.489 18.69 129.675 19.308 130.047 19.728C130.431 20.136 130.887 20.34 131.415 20.34C131.943 20.34 132.393 20.136 132.765 19.728C133.149 19.308 133.341 18.69 133.341 17.874C133.341 17.058 133.149 16.446 132.765 16.038C132.393 15.618 131.943 15.408 131.415 15.408C130.887 15.408 130.431 15.618 130.047 16.038C129.675 16.446 129.489 17.058 129.489 17.874ZM138.021 26.154H131.127V27.612H138.021V26.154ZM152.473 23.994C152.329 24.27 152.131 24.444 151.879 24.516C151.639 24.588 151.345 24.534 150.997 24.354C150.433 24.078 149.881 23.682 149.341 23.166C148.801 22.65 148.327 22.05 147.919 21.366C147.487 22.122 146.983 22.788 146.407 23.364C145.843 23.928 145.255 24.366 144.643 24.678C144.283 24.858 143.977 24.918 143.725 24.858C143.473 24.786 143.257 24.612 143.077 24.336L142.663 23.688C143.359 23.364 143.953 22.98 144.445 22.536C144.937 22.08 145.339 21.582 145.651 21.042C145.963 20.502 146.191 19.932 146.335 19.332C146.479 18.72 146.551 18.096 146.551 17.46V15.804H143.437V14.058H152.149V15.804H149.089V17.136V17.388V17.46C149.089 18.744 149.407 19.89 150.043 20.898C150.691 21.906 151.615 22.722 152.815 23.346L152.473 23.994ZM154.219 13.608H157.459V13.716C156.979 13.908 156.739 14.304 156.739 14.904V28.044C156.739 28.476 156.613 28.794 156.361 28.998C156.121 29.214 155.731 29.322 155.191 29.322H154.219V13.608ZM159.994 16.848C159.994 16.332 160.102 15.876 160.318 15.48C160.534 15.084 160.834 14.754 161.218 14.49C161.614 14.226 162.076 14.028 162.604 13.896C163.132 13.764 163.714 13.698 164.35 13.698C164.974 13.698 165.55 13.764 166.078 13.896C166.618 14.028 167.08 14.226 167.464 14.49C167.86 14.754 168.166 15.084 168.382 15.48C168.598 15.876 168.706 16.332 168.706 16.848C168.706 17.376 168.598 17.838 168.382 18.234C168.166 18.618 167.86 18.942 167.464 19.206C167.08 19.47 166.618 19.668 166.078 19.8C165.55 19.932 164.974 19.998 164.35 19.998C163.714 19.998 163.132 19.932 162.604 19.8C162.076 19.668 161.614 19.47 161.218 19.206C160.834 18.942 160.534 18.612 160.318 18.216C160.102 17.82 159.994 17.364 159.994 16.848ZM167.356 22.86H170.596V13.608H173.836V13.716C173.356 13.908 173.116 14.304 173.116 14.904V24.606C173.116 25.038 172.99 25.356 172.738 25.56C172.498 25.764 172.108 25.866 171.568 25.866H170.596V24.57H167.356V22.86ZM173.476 27.522V27.954C173.476 28.386 173.35 28.704 173.098 28.908C172.858 29.124 172.468 29.232 171.928 29.232H161.002V25.146H163.558V27.522H173.476ZM159.148 20.646H166.096C166.888 20.646 167.608 20.604 168.256 20.52C168.916 20.436 169.456 20.316 169.876 20.16V21.636C169.012 22.116 167.812 22.356 166.276 22.356H165.43V23.328C165.43 23.76 165.304 24.084 165.052 24.3C164.812 24.504 164.422 24.606 163.882 24.606H163V22.356H159.148V20.646ZM162.514 16.848C162.514 17.388 162.688 17.778 163.036 18.018C163.384 18.258 163.822 18.378 164.35 18.378C164.878 18.378 165.316 18.264 165.664 18.036C166.012 17.796 166.186 17.4 166.186 16.848C166.186 16.296 166.012 15.906 165.664 15.678C165.316 15.438 164.878 15.318 164.35 15.318C163.822 15.318 163.384 15.438 163.036 15.678C162.688 15.918 162.514 16.308 162.514 16.848ZM176.84 21.348H178.91V15.768H176.93V14.058H188.882V15.768H186.902V21.348H188.972V22.194C188.972 22.518 188.882 22.746 188.702 22.878C188.522 22.998 188.324 23.058 188.108 23.058H184.184V25.128H190.466V26.064C190.466 26.388 190.376 26.616 190.196 26.748C190.016 26.868 189.818 26.928 189.602 26.928H175.346V25.128H181.628V23.058H176.84V21.348ZM181.466 21.348H184.346V15.768H181.466V21.348ZM193.362 22.806H205.332V26.658H195.918V27.648H205.692V27.954C205.692 28.386 205.566 28.704 205.314 28.908C205.074 29.124 204.684 29.232 204.144 29.232H193.398V25.326H202.812V24.39H193.362V22.806ZM200.472 15.354H194.676V16.812H199.662V18.324H194.676V19.908H201.192V20.286C201.192 20.718 201.066 21.042 200.814 21.258C200.574 21.462 200.184 21.564 199.644 21.564H192.12V13.698H200.472V15.354ZM200.562 16.722H202.812V13.608H206.052V13.716C205.572 13.908 205.332 14.304 205.332 14.904V20.898C205.332 21.33 205.206 21.654 204.954 21.87C204.714 22.074 204.324 22.176 203.784 22.176H202.812V18.36H200.562V16.722Z" fill="#103A6A"/>
</svg>
